<?xml version="1.0" encoding="UTF-8"?>
<svg xmlns="http://www.w3.org/2000/svg" version="1.1" viewBox="0 0 1920 1080">
  <!-- Generator: Adobe Illustrator 28.7.8, SVG Export Plug-In . SVG Version: 1.2.0 Build 200)  -->
  <g>
    <g id="_Слой_1" data-name="Слой_1">
      <g>
        <path d="M546,620c0-109.5,0-219,0-328.5,19-1.4,38-1.5,57.1-1.8,18.4-.3,36.8-1.2,55.2-1.2,1.4,15.7,2.8,30.7,4.1,45.8.3,0,.6,0,.9,0-1.3-15.1-2.6-30.2-3.9-45.3,33.8-1.9,67.8-2.3,101.7-2.3.4,10.6.7,21,1.1,31.5-2.3.6-4.1,1.1-6,1.5,0,.2,0,.3.1.5,1.8-.1,3.6-.2,6.1-.4.5,18.3,1,36.5,1.5,55.3-13.7-.4-26.6-.8-40.2-1.1.4-6.4.8-12.5,1.1-18.7-2.7,6-1,12.4-2.1,19.2-7.4-.2-14.8-.4-22.2-.6-6.1-.2-14.8,1.1-20.3-1.6-7.2,2.8-17,1.5-24.7,1.7-8,.2-15.8,1-23.8,2.1-8,1.1-16,2.3-24.1,2.8-8,.5-16.5-.4-24.3,1.2,0,.3.1.6.2.9,11.4-1.9,23.2-.9,34.8-2.1,11.1-1.2,21.9-3.6,33-4.1,23.8-1,47.7.2,71.6.2.5,1.2.9,2.1,1.4,3.1.3-1.2.5-2.1.9-3.3,12.7,1,25.4.5,38.2,1.2.3,5.6.5,10.7.7,16.3h-33.4v1h33.4c.4,18.4.7,36.2,1.1,54.5-13.2,0-26.3-.4-39.5,0-13.8.4-27.6.7-41.5,1-14.5.3-28.9.6-43.4.8-14.4.2-28.7-.1-43,2-8.8.4-17.7.8-26.5,1.2,1.3,2.5,9.8,1.2,12.3,1.2,5.3,0,9.3-.8,14.3-2.3,28.1-1.1,56.3-1.6,84.4-2.4,27.5-.7,55.4-2.9,82.7.2.4,11.1.7,21.7,1.1,32.2-2.5.6-4.3,1-6.2,1.4-3,1.5-5,1.5-8.4,1.5,0,.5,0,1,0,1.5h6.8c-1.8.4-3.5.7-5.6,1.2-.3.7-.6,1.7-1,2.6.3.2.5.4.8.6.7-1,1.3-2,1.6-2.3,13.4-2.8,27-2.6,40.7-3.1,14.3-.4,28.6-.9,43-1.4,28.4-.9,56.9-2.1,85.4-2.1,1.8,19.2,1.1,38.5,2.9,57.7h.3c0-.7,0-1.5.1-2.2.5.7,1,1.3,2,2.6.1-1.6.2-2.5.2-3.3,1.2-4.3.1-8.6,0-13-.1-4.7-.2-9.3-.3-14-.2-9.3-1-19-.2-28.2,15.1-.4,29.8-.8,44.2-1.1,1.1,1,1.9,1.7,2.8,2.4h0c.6,2.2,1.3,4.5,1.9,6.9.3-.8.6-1.5.9-2.4,2.7,0,8,.5,7.6-3.7.2-1,.5-2,.7-3,8.2-1.9,17.6-1.5,26-1.5v6.9c-2.6.7-4.9,1.3-7,1.9v9.2c.3,0,.5,0,.8,0v-8.6c2.5-.2,4.6-.3,7-.5.3,5.6.6,11,.9,16.7-8.9.9-17.5,1.7-26.9,2.6,8.2,1.5,18.6-.9,26.9-1.5.4,9.3,1.9,18.5,1.6,27.9-7.3.5-14.1,1-20.9,1.5,0,.3,0,.6,0,.8,6.9-.4,13.7-.9,20.7-1.3,1.5,5.7,1.4,11.5,1.7,17.4.1,2.6-.5,15.6,1.7,16.3.7,4.1,1.4,8.2,2.1,12.5.4,0,1,.1,1.6.2,0,.8,0,1.5,0,2.3-2.7,3.2-1.1,8-.8,11.7-9-1.8-18.1-2.8-27-4.9,8.4,4.5,17.9,4.4,26.5,6.2,2.4,7.8-.5,14.1-2.4,21.5-7,0-14,.3-20.9.9v.5c.8,0,1.5,0,2.2,0,0,1,0,2,0,3,.6,3.2,11.5,1.4,14,1.6,6.5.5,12.7,1.7,18.9,3.9.5,11.1,1.1,22.2,2.1,33.2.5,5.6,1,11.2,1.3,16.8.2,4.8-.3,10,1.1,14.6h18.1c.2,14.3-5.4,27.1-9,40.4,5.4-12.6,9.1-25.6,10.5-39.2,4.2-3.6,14.5-2.4,20-2.8,7.8-.6,15.7-1.1,23.5-1.7,6.3-.5,12.5-1,18.8-1.5v1.5c-1.2.4-2.4.7-3.9,1.2.4,1.2.8,2.2,1.2,3.5,1.4-.5,2.3-.8,3.4-1.2.3,2.4.6,4.7.9,7,1.2,7.6,2.6,15.2,2.9,23.1-26.4,4.5-52,11.7-78.7,14.5-.2-.8-.3-1.4-.3-1.1-17.8,4.3-37.2,1.7-55.4,3.1-9,.7-18.1,1.4-27.1,2-8.2.6-17.5,2.1-25.7.6-.3-10-.6-19.6-.9-29.4,10.7,0,21.3,0,32,0,10.2,0,21.1.9,30.3-4.2-1.2-4.7-8.2-.9-11.4-.4-5,.8-10,1-15.1,1-11.8,0-23.7,0-35.5,0-1.5-14.9-1.5-29.8-2.1-44.7-.4-11.7-3.1-25.9,7.7-34,5.5-2.1,9.9-3.1,15.8-3.4,5.7-.2,11.5-.4,17.2-.4,0-.1,0-.2,0-.4-2.2-.4-4.5-.7-6.7-1.1,2.4,0,4.8,0,7.2,0,.1-1.4.2-2.2.3-3-13.8-2.7-29.2.7-43.2.7-.5-17.1-1-33.6-1.5-50.1-.3,0-.7,0-1,0v2.2c-.4-.8-.8-1.7-1.4-2.9-.4.9-.6,1.5-.9,2.1-2.2,11.5,0,24.6,0,36.4-33.3,1.5-66.7,2-100.1,2.8-33.5.7-67.2,2.1-100.7,2.1-.7-4.7-1.4-8.9-2-13.1-.2,0-.5,0-.7.1.5,4.2,1,8.4,1.6,12.9-18.6-.1-36.7,1.9-55.6,1.5,3.3-42.1,1.1-84.8,6-126.7,17.5-.3,34.7-.6,52.8-1-1.1-.4-1.3-.4-1.5-.5.7-.5,1.4-1,2.5-1.7-.9-.3-1.3-.4-1.7-.6-4.2-1.5-9.4-.8-13.9-.8-4.6,0-9.2,0-13.8,0-10.3.2-20.5.7-30.8.7-9.8,0-19.6,0-29.5,0-4.7,0-9.3,0-14,0-3.1,0-7.6-1-8.1,3.2,17.5,2.2,35.5-.2,53,.7,0,21-2.4,41.8-2.9,62.8-.3,11.3-.5,22.6-.7,33.9-.1,5.4-.3,10.8-.5,16.3-.2,4.5.4,9.7-1,14-9.1,1.4-18.8,1-28,1.3-10.2.3-20.5.5-30.7.7-20.3.7-40.5,1.5-60.8,2.2ZM621,297.7c-2,4.9-2.2,8.3-2,13.6.3,5.5.2,11.1.2,16.6h-10.2c-.4-8.6-.7-16.9-1-25.3-.9-1.3-1.8-2.7-2.8-4.2h-4.9c-3.6,3.6-2.6,9.3-2.4,14,.2,5.6.4,11.1.5,16.7.2,12.1,0,24.1,0,36.2.3,0,.5,0,.8,0,.8,1.3,1.7,2.7,2.5,3.9h5.6c.8-1.6,1.6-3,2.5-4.8-.3-8.2-.6-16.7-1-25.3h10.6c.3,8.8.7,17.3,1,25.8.9,1.1,1.8,2.4,2.7,3.6h5.1c.9-1.4,1.6-2.7,2.7-4.5-.7-20.9-1.2-41.7-1.4-62.6-.2,0-.3,0-.5,0-.8-1.2-1.5-2.5-2.4-3.8h-5.7ZM721.3,338v-6.9h-9.7v-26.2c-1.5-.5-2.7-.9-3.7-1.2-.5-1.2-.9-2.2-1.2-3-3.2-.8-2.8,1.9-3.5,3.1-1,.4-1.8.8-2.7,1.1,0,9.9.2,19.8.4,29.7,0,5.1.2,10.2.2,15.2,0,4.6-.4,9.5.8,14h10.6v-25.8h8.7ZM633.3,410.8v-23.9c-1.7-.7-2.7-1-3.6-1.4-.4-.9-.7-1.7-1-2.5-1,0-1.8.1-2.7.2-.3,1-.6,1.8-.9,2.4-1.1.4-2,.7-3.3,1.2,0,9.9.4,19.8.7,29.7.1,4.9.3,9.8.5,14.6.1,3.5-.7,9.2.9,12.4.8.2,1.8.4,2.6.5.7,1,1.3,1.9,2,3,2-1.6,3.8-3,5.7-4.5v-23.9c3.4-.4,6.6-.9,9.7-1.3v-7.1c-3.4.2-6.5.4-10.6.6ZM615.2,446.5v-18.9c1.6-.4,2.8-.7,4-1v-3.7c-1.8-.2-3.2-.4-4.8-.6-.5-12.7.7-25.3-1.3-37.6h-10.8c1.1,10.7.9,21.5,1.1,32.3.2,9.9-.5,20.3.8,30.2,3.6-.3,7-.5,11-.8ZM687.7,364c0-9-.7-18.1-.9-27.1-.2-9.3.6-19.3-.8-28.5-1.1-.2-2.1-.5-3.1-.7-.6-1.7-.5-3.9-3.4-3-.4.9-.8,1.9-1.2,2.9-.9.4-1.7.8-2.6,1.2,0,18.4-.9,37.7,1.7,55.9,3.6-.2,6.6-.4,10.3-.7ZM680.4,594.7c12.5-.7,24.7-1.3,37.4-2-.4-4.2-.7-7.8-1.1-12-12.4.7-24.5,1.3-37.3,2,.4,4.2.7,7.8,1.1,12ZM593,387.8h-13.3c.2,11.5-.6,22.7,1.1,33.8h9.1v-30c1-.2,2-.4,3.2-.7v-3.1ZM661.5,417.2c0-5.4-.2-10.9-.3-16.3-.2-5.5.7-12.4-1-17.7h-13.2c-.1,1.1-.3,2.1-.4,3.3,1.9.2,3.3.4,5.3.6v30.1h9.6ZM682.8,456v20.2c1.2.4,2.2.7,3.1,1,.5,1.5,1,3.1,1.4,4.4h8.7c-.4-8.8-.8-17.2-1.1-25.5h-12.2ZM748.3,322.2h-19.4c.4,8.3.7,15.9,1.1,24,3.8-.4,7.2-.7,10.6-1v-16.1c2.7-.1,5.2-.3,7.7-.4v-6.5ZM709.9,481h9.4c-.1-8.8.7-17.3-1.1-25.5h-11.4v19.7c1,.6,1.8,1,2.6,1.5.2,1.4.3,2.6.6,4.3ZM844.5,502.9c-.4-3-.6-5.4-1-8.1-12.9,1.5-25.8-.2-38.5,2.1.3,2.5.6,4.6.9,7.1,12.7-.4,25.2-.7,38.6-1.1ZM758.5,443.6c-.4-13.4-.7-26.3-1.1-39.7-2.2.2-3.9.3-6,.5.4,13.3.7,26.1,1.1,39.2h6ZM550,316.8c10.4,1.6,20.5.7,30.9,1v-5.1c-1.7-.2-3.1-.4-4.5-.5-.7-1.6-.4-4-3.4-3.1-.5.8-1.1,1.7-1.8,3h-21.2v4.7ZM985.6,609.7c3.7.6,7.5,1.6,11.2,1.9,3.7.3,7.4-1.2,11-2.1.2-1.4.3-3,.5-4.7,1.8-.8,2.7-2,1.5-4.1h-4.8c-.6.9-1.2,1.8-2,3.1h-18.3c.4,2.5.7,4.5.9,6ZM1005.6,559.9c.5-7.3-.3-13.9-1.1-20.8-3,.5-5.3.9-7.5,1.2.5,7.1,1,13.4,1.5,20.5,2.7-.4,4.8-.7,7.2-1ZM748,297.8v20.6h5.1c1.7-1.6,2.9-2.8,4.3-4.1,0-.8,0-1.7-.1-2.7-1-.4-1.8-.8-3.1-1.4v-12.4h-6.2ZM681.2,391.8h5.5c.2-1.7.4-3.1.6-4.7,2.7-.2,5.2-.3,7.7-.5v-4.7h-20.3v5.3c2.3.3,4.2.5,6.1.7.2,1.4.3,2.5.5,3.9ZM743,389.5v-9.7c-4.8.3-9.2.6-13.6.9v8.7h13.6ZM1023.5,633.7c-4,0-7.6-1.2-11.3,1.3.4,2.9.8,5.7,1.3,8.9,3.7-.3,7-.6,11-1-.3-3.1-.6-5.8-1-9.2ZM631.1,314.1v10.8h7.4v-11.2c-2.7.1-4.9.3-7.4.4ZM994.8,507.8v12h5.9c.8-4.2,1.4-8.1,2.1-12h-8.1ZM1000.1,498.2v-12.5c-2.3.1-4,.2-5.9.3v12.2h5.9ZM737.1,357.1h-6.3v11.4h6.3v-11.4ZM740,517.4c.4,4.4.8,8.3,1.1,12.5,2-.1,3.7-.2,6-.3-.4-4.3-.7-8.2-1-12.2h-6.1ZM707.7,538c.5-2.4.9-4.7,1.4-7.5-3.6.3-6.8.5-9.9.7v6.8h8.5ZM1006.2,645.7v-11.2c-3.4.2-6.4.4-8.6.6-1.9-1.1-3.1-1.8-4.4-2.5-.8,1.1-1.2,1.8-1.6,2.3-1.5.2-2.8.4-4.1.6v10.2h18.7ZM998,702c.4,3.3.7,6,1.1,8.8,2.6-.1,4.6-.2,6.4-.3v-8.5h-7.4ZM721.8,537.3v-6.3h-9.9c.4,2,.7,4.1,1.1,6.3h8.8ZM1012,585.2c-.3-6.6-.6-12.6-.9-19.3-3.5.2-6.2.4-9.3.6.7,6.8-1,12.9,1.5,19.1,3-.1,5.5-.2,8.7-.4ZM674,333.2h-7.6v6.4c3.1-.2,5.7-.3,8.7-.5-.4-2.5-.7-4.2-1-5.9ZM734.6,528.1v7.6h5.2v-7.6h-5.2ZM979.8,494.4h6.1v-6.4c-2.2.1-4.1.2-6.1.3v6.1ZM717.7,596.8c0-.3-.1-.6-.2-.9-11.5.6-23.1,1.3-34.6,1.9,0,.3,0,.6,0,.9,11.6-.6,23.2-1.3,34.7-1.9ZM755.7,386.2v-5.8h-3.8c.2,2.3.4,4.2.6,6.4,1.2-.2,2.1-.4,3.2-.5ZM674.4,405.9h4.8v-3.9h-4.8v3.9ZM973.4,499.5c.1,1.7.2,2.8.3,4h4.5v-4h-4.8ZM764.1,494.5h4.5c0-1.3-.1-2.3-.2-3.6-1.8.2-3.1.3-4.9.5.3,1.3.4,2.2.6,3.1ZM750.6,342.5c.3,0,.6,0,.9,0,.5-6.5,1.1-13,1.6-19.6-.3,0-.6,0-.8,0-.5,6.5-1.1,13-1.6,19.6ZM734.5,546.2v4.5c1.2,0,2.2.1,3.2.2v-5c-1.2.1-2,.2-3.2.4Z" fill="#f9f7e9"/>
        <path d="M938.3,251c145.2,0,290.3,0,435.7,0v214.5c-6.5-1.3-13.2-2.5-19.9-1.8-6.5.7-13,1.5-19.6,2-13.4,1-26.8,2.6-40.2,3.3.9-3.3,1.7-6,2.4-8.7,6.4-11.2,15-22.2,16.7-35.2,2.1-15.5,3.5-31.1,3.5-46.7-1.3-.2-2.2-.4-3.4-.6-2.5,13.6-1.3,27.5-3.2,41.3-.9,6.7-1.5,13.3-5,19.1-3.1,5.1-8.9,10.8-9.4,16.9-.7,1.3-1.5,2.5-2.2,3.8-.7-.5-3.4,9.2-3.9,10.5-28.9.5-57.7,1-86.9,1.6,0-10-.2-20.1-.4-30.1,0-5-.2-10.1-.3-15.1,0-4.2.3-7.8-3.8-10-16.3.5-32.6,1-48.9,1.2-8.3.1-16.6.2-24.9.4-7.6.1-15.8-.7-23,1.8,0,0,0,0,0,0-.5.2-1,.5-1.5.7-5.2.2-10.5.5-15.7.7-.3-5.7,1.4-16.8-4.4-20.1-7.2-.4-8.6.4-7.6,4.4,1.8-.3,3.6-.5,6.1-.9,1.9,5.7,1.4,11.3,1.4,17.3-10.1.3-20.3-.8-30.7,1.1v7.1c.2,7,.6,14.1.7,21.1.1,7.4,0,14.9,0,22.3-11.6.5-23.2,1-35.2,1.5-.5-7-1.1-14-1.5-21-.4-6.7.2-13.7-2.2-20,.8,13.8,1.7,27.2,2.5,40.8-13.6,1.6-27.6,1.2-41.3,1.5-15,.3-30,1.1-45,1.1-.4-9.4-.7-18.1-1-26.9,4-2.1,7.8-4.1,11.6-6-.1-.2-.3-.5-.4-.7-3.5,1.7-7.1,3.4-10.9,5.2-5.9-58.3-2.9-117.3-6.7-175.8,2.7-2.3,5.7-3.8,6.3-7.3,3.3-3.6,6.6-7.3,9.8-10.9.9-1,1.5-2.2,2.2-3.3ZM1000.7,449.2c-9.2-1.7-17.9-3.4-26.9-5.1-.5,2-.9,3.5-1.3,4.9,1,.9,1.7,1.6,2.3,2.2v3.7c2.1.5,4.1.9,6.1,1.3.7-1.5,1.4-2.8,2.1-4.3,5.5,1.1,10.8,2.1,16.4,3.2.4-2.1.8-3.8,1.3-5.9ZM1009.9,407.5c.7-.4,1.5-.9,2.8-1.7-.7-2.5-1.4-4.9-2.2-7.6-4.2-.2-8.2-2.5-12.7-1.2-.2,1.8-.4,3.3-.6,4.8,1.2.8,2.2,1.5,3.2,2.1-.2,1.3-.4,2.3-.4,2.6,1.1,2.3,1.9,3.9,3,6,1.4.2,3.3.4,5.4.7.6-2.1,1.1-3.8,1.6-5.7ZM1030.1,456.2v-10.3c-2.9.2-5.3.4-7.5.6v9.7h7.5ZM945.6,432.7c20.3-3.5,40.3-.5,60.1-1.3-10.6-.6-21.1-.8-31.7-1.1-9.4-.3-18.5.3-27.9.9,0,.2-.2.7-.5,1.5ZM938.2,364.8c-1.5-.1-2.8-.3-4.2-.4-.1,2.8-.3,5.1-.4,7.8h3.7c.3-2.4.6-4.5.9-7.4Z" fill="#f9f7e9"/>
        <path d="M793.5,828.5h-247.5c0-68.2,0-136.5,0-204.7,27.6-1.1,55.3-1.8,82.9-2.8,49.7-1.7,99.5-3.4,149.3-4.5,24.9-.5,49.8-1.1,74.7-1.6,12.4-.3,24.9-.5,37.3-.8,12.1-.3,25.2-2,37.2-.4.9,22.2,1.1,44.5,1.8,66.7.4,10.8.8,21.7,1,32.5.2,10.1,1.5,20.9-.2,30.8-15.2,2.6-30.3,5.3-45.5,7.9-13.6,2.3-26,4.2-37.5,12.3-22.9,16-39.8,40.8-53.5,64.7Z" fill="#f9f7e9"/>
        <path d="M546,287v-36c84,0,168,0,252,0,.6,2,1,4.1,1.9,6,5.9,12.9,16.3,20.3,29.6,24.1-7.2,1.3-14.8.7-22.2.7-.1,1-.2,1.6-.3,2.2,0,1.6,47.8-.2,53.4-.7,9.5-.8,18.9-1.5,28.4-1.4,5,0,10,.2,15,.4,4,.1,8.7-.4,12.6.8.2,19.8,1.7,39.5,1.6,59.1-9.2.4-17.7.7-26.3,1.1,0,.3,0,.6,0,.9,8.6-.3,17.3-.6,26.4-1,.4,12.9.8,25.1,1.2,38h-20.1c0,.4,0,.8,0,1.2h19.8c2.1,12.5,3.4,64,1.8,67.8-13.8,1.7-27.6,3.5-41.5,5.2,0,.3,0,.6.1.9,14.2-1.7,28.3-3.4,42.7-5.2.3,9,.7,17.2,1,25.4-50.9,4.5-102.3,3.1-153.3,5.4-1.2-7.9-.6-16.3-.8-24.2-.2-7.9-.3-15.8-.5-23.8-.4-16.5-.6-33-.9-49.5-.4-32.7-2.6-65.4-2.6-98.1,6.5-.3,13.1-.2,19.4-1.4,0-.7,0-1.5,0-2.2,1,0,1.4.1,1.5-.8-32.2,0-64.5,1.5-96.7,2.3-10.1,0-20.2,0-30.3,0-.6-6.3-1.3-12.5-1.9-18.7h-.8c.5,6.4,1.1,12.7,1.6,19-10.3.4-19.8.8-29.4,1.2-10.7.3-21.5.5-32.2.8-10.5.2-21,.5-31.5.7-6.2,0-12.5,0-18.7,0ZM849.5,448.6h-20c-.4-4.2-.7-8.1-1.1-12h-8.7c.5,8.6,1,16.8,1.5,25.2,10.1-.3,19.6-.5,29.3-1.8-.4-4.1-.7-7.7-1.1-11.5ZM816.4,472.2v-9.7c-13.3.4-26.2.9-39,1.3v9.8c13.2-.5,25.9-.9,39-1.4ZM908.9,404.5c-7.4.3-14.4.6-21.3.9v13.1c7.5-.4,14.6-.8,22.3-1.2-.3-4.4-.7-8.1-1-12.8ZM902.3,373v-26.5h-9.9c.4,9-.8,17.8,1.1,26.5h8.7ZM854.5,400.4c9.9-.4,19.2-.7,28.7-1.1v-6.6c-5,0-9.9.2-14.9.4-4.5.2-9.5-.3-13.8,1.1v6.2ZM792.5,295.8c-5.6.4-10.9.8-16,1.1v6.4c2.7.1,5.2.2,7.5.4.4,1.3.7,2.4.9,3.3h11.3v-4.3c-1.2-.4-2.2-.8-3.3-1.2-.1-1.7-.2-3.3-.4-5.7ZM777.2,356.7c4.2-.7,8.2-1.4,12.7-2.2-.3-3.1-.6-5.9-.8-8.5-4.4-.7-8-1.3-11.9-1.9v12.5ZM793.1,316h14.4v-4.6h-14.4v4.6ZM877.8,446.7v5.7h11c-.1-2.3-.2-4.1-.3-6.6-3.9.3-7.2.6-10.6.9ZM812,397.6c1.5,0,2.9.2,4.5.3v-3.5c-3.8-1.1-7.3-2.6-11.4-2-.3,2.1-.6,3.7-1,5.7,2.3.5,4.4,1,6.5,1.4.5-.8.9-1.4,1.3-1.9ZM896.5,336.3h5.8c-.1-1.3-.2-2.3-.3-3.3h-5.5v3.3ZM896.3,329.5h5.7v-3.3h-5.5c0,1.1-.1,2-.2,3.3ZM887.2,344.6c-2.9,2.1-2.9,2.5,0,4.7,2-1.4,2.4-2.8,0-4.7ZM876.8,458.4h-2.8c-.2,2-.7,4,2.6,3.9,0-1.3.2-2.4.3-3.9Z" fill="#f9f7e9"/>
        <path d="M1374,641.8v56.2c-12.1,4.6-25.1,5.9-37.7,8.3-2-6.9-2.7-14.4-3.9-21.5-1.3-7.6-2.7-15.2-4.2-22.8,3.4-3.5,7.4-4.6,12-6.4,2.5-1,9.7-2.4,9-5.7-2.6.7-5.3,1.3-7.9,2.2-4.9,1.7-9.7,3.5-14.5,5.3-2.6-12.4-4.2-27.3-19.6-29.1-8.1-.9-16.6,0-24.8-.1-8.2,0-16.2-.7-24.5-.2-3.6.2-6.9.3-10.4,1.6-3.4,1.3-5.9,3.7-9.1,5.3-7.3,3.7-15,0-21.9-2.8-7.7-3.2-15.4-6.4-23.2-9.6-6.6-2.7-13.8-7.1-21.1-7.1-11.6-2.8-23.5-3-35.2-5.2.5-.8,1-1.5,1.5-2.3.3-2.3-.9-4.9,1.5-6.7,1.9-1.1,3.9-2,5.6-3.4,4-3.5,7.8-7.2,11.7-10.8,1.2,1.4,12.5-1.3,14.7-1.5,3.8-.5,9.6-.2,12.6-3,2.9-2.6,3.9-8.6,5.2-12.2,1.9-5.2,3.8-10.4,5.7-15.6,1.4-3.9,2.8-7.9,4-11.9,1-3.3,1.8-6.6,2.7-9.9.4-2.4.8-4.7,1.2-7.1,9.1-.4,18.2-.9,27.2-1.1,17.3-.4,34.7-.5,52-.8,1.2,0,2.3-.9,3.5-1.4,2.4-.3,4.8-.7,7.7-1.1-.3-8.6-.6-16.9-1-25.2,3.7-.5,7.6,1,11.4-1.4-.4-1.1-.7-2-1.1-3.1h-10.3c-.3-6-.5-12-.8-18,0-.2,0-.5,0-.7,14.4-1.2,28.8-2.4,43.2-3.4,12.7-1,26.2-4.2,38.5.4v45c-15.1,2.7-30.4,4.7-41,17.1-10.7,12.5-12.9,29.4-12.8,45.3,0,8.6.5,17.6,2.2,26.1,1.4,6.8,3.6,16.5,9.3,21,5.7,4.5,14.1,2.8,20.7,4.9,8.1,2.6,14.7,7.6,21.5,12.4Z" fill="#f9f7e9"/>
        <path d="M1328.2,662.1c1.4,7.6,2.8,15.2,4.2,22.8,1.2,7.1,1.8,14.6,3.9,21.5,12.7-2.4,25.6-3.8,37.7-8.3v51c-7.6,1-15.3,1.7-22.9,2.5-8.1.9-14.7,1.1-21.2,6.3-5.3,4.2-10.3,10-16.3,13.1-2.9,1.5-5.6,1.4-8.7,1.4-3.5,0-6.9.7-10.4,1.1.5,6,1.1,12,1.7,18-18.6,1.4-36.6,2.7-54.9,4.1,0,7.7,1.2,16.5-.2,24.1-1,5.7-10.3,7.1-14.9,8.9h-6c-2.3-2.3-4.7-4.6-7.5-7.4-11.1,0-22.6,2.5-33.7,3.6-11.3,1.1-22.6,1.9-33.8,3.9h-5.2c-.6-2.6-1.1-5.2-1.6-7.6,1.1-.6,1.8-1,2.4-1.3,13.9-2,27.7-3.9,41.7-5.6,7-.8,13.9-1.6,20.9-2.4,6.3-.7,15.2,0,20.7-3.2,0-.4-.2-.8-.3-1.3-4.5-.6-9.1.9-14,.8-.9-16.6-1.5-33-1.2-49.6.2-8.5.3-17.1.5-25.6.2-7.5-.8-16.4.9-23.7,10.3,0,20.1-1.9,30.2-4,4-.8,7.8-1.8,10.7-4.9,3.3-3.5,5.9-8.1,8.6-12,9.2.5,24.7-.6,28.1,10.7-.9.8-1.8,1.6-3,2.7.3.6.6,1.5,1.2,2.9,1.4-1.1,2.4-1.9,3.5-2.7,4.2,8.4,7.7,16.3,8.6,25.7.5,4.6,1.1,9.1,1.1,13.7,0,5-1.9,9.6-1.9,14.5.4,0,.8.2,1.2.2,8.8-17.6.8-38.6-6.7-55.1-1.7-3.8-3.1-7.4-6.6-9.9-3.4-2.4-7.5-3.3-10.8-5.7-2.6-1.9-5.2-4.8-7.1-7.3-2.4-3.2-1.8-7.2-2.5-10.9,20.4-1.8,41.4-1.8,61.4-6.4.7.5,1.5,1,2.2,1.6ZM1235.7,723.7c.7,1.5,1.2,2.6,1.7,3.7.4,0,.8,0,1.2,0,.4-1.1.8-2.2,1.3-3.6h-4.2ZM1275.4,768.1c.5.5.9,1,1.4,1.4.9-.7,1.7-1.4,2.6-2-.6-.6-1.2-1.3-1.8-1.9-.7.8-1.5,1.7-2.2,2.5ZM1219.9,806.5c1.7-2.2,1.9-2.1,0-4.2-1.9,2.1-1.7,2,0,4.2ZM1306.2,738.1q-3.4-.3-2.8,2.5c1.7.3,3.4.5,2.8-2.5ZM1367.9,706.5c0-.4.2-.8.3-1.2-1.1-.5-2.1-1-4.1-1.8.4,2,.5,2.9.8,4.1,1.3-.5,2.2-.8,3-1.1ZM1275.3,667.4c-2.6-.2-3.8.5-2.7,3.1q2.8-.5,2.7-3.1Z" fill="#cbe98d"/>
        <path d="M1112.3,828.5h-173.2c-1.5-6.7-1-14.1-1.2-21-.2-7.2-.4-14.3-.6-21.5-.4-13.8-.9-27.4-.9-41.2,10.2-.3,20.3-.7,30.4-1,.7.3,1.4.6,2.2.9,6.1,6.2,12.2,14.1,19.3,19.2,5.8,4.1,14.2,5.5,21.2,5.6,6.5.2,13.2-2,18-6.5,6.1-5.6,9.1-14.8,12.7-22.2.3-.2.6-.5.9-.7,9.2-1,18.5-2,27.7-2.9-.3,7.1,2.3,15.2,3.7,22.2,1.3,7,2.6,14.1,4.5,20.9,3.4,12.3,12,23.9,22.6,31.1,4.2,5.7,8.5,11.5,12.7,17.2Z" fill="#bedc89"/>
        <path d="M793.5,828.5c13.7-23.9,30.6-48.7,53.5-64.7,11.5-8.1,24-10,37.5-12.3,15.2-2.6,30.3-5.2,45.5-7.9.5.9,1.2,1.8,1.5,2.8.4,1.8.5,3.7.7,5.6.2,6.1.5,12.2.7,18.3.6,19.4,1.1,38.8,1.6,58.2h-141Z" fill="#bedc89"/>
        <path d="M1226.3,828.5c4.5-1.8,13.9-3.2,14.9-8.9,1.3-7.6.2-16.4.2-24.1,18.3-1.4,36.3-2.7,54.9-4.1-.6-6-1.2-12-1.7-18,3.5-.3,6.9-1,10.4-1.1,3.1,0,5.8,0,8.7-1.4,6-3.1,11-8.9,16.3-13.1,6.5-5.2,13.2-5.4,21.2-6.3,7.7-.8,15.3-1.5,22.9-2.5v66.7c-.2,1.1-.5,2.3-.7,3.4-.5,3.1-1,6.2-1.5,9.3h-145.5Z" fill="#f9f7e9"/>
        <path d="M934.5,828.5c-.5-19.4-1.1-38.8-1.6-58.2-.2-6.1-.4-12.2-.7-18.3.5-12.1-.9-24.6-1.3-36.8-.4-11.3-.8-22.6-1.2-33.9-.4-11.6-.6-23.2-.7-34.8-.2-11.2.8-23.1-.9-34.1-27.5,0-55.2,1.5-82.7,2.1-49.7,1.1-99.4,1.6-149,3.6-50.1,2-100.2,3.6-150.4,4.8,0-.7,0-1.5,0-2.2,20.2-1.2,40.5-1.5,60.8-1.5,10-1.4,20.3-1,30.4-1.3,5.1-.1,10.1-.2,15.2-.4,4.5-.2,9.7.3,14-1.2,1.8-10.1,1.2-21,1.5-31.2.3-10.5.7-21,1.2-31.5.9-21.8,3-43.9,3-65.7-9,0-18,0-27,0-4.6,0-9.2,0-13.8,0-4,0-8.3.5-12.2-.9,3.2-2.3,8.1-1.4,11.9-1.4,4.8,0,9.6-.1,14.4-.2,8.9,0,17.8-.2,26.8-.3,18.5-.2,37-.3,55.4-.3.4.1.8.3,1.7.6-1,.7-1.7,1.2-2.5,1.7-17.5,0-34.9-.2-52.3,1.1-3.4,42.7-5.1,85.7-5.1,128.5,18.7-2.6,38.5-1.9,57.4-2.4,34.1-.9,68.2-1.5,102.3-2.3,17-.4,34-.6,51-.8,8.9-.1,17.8-.2,26.6-.4,6.8-.2,15.7.9,22-1.3-1.3-12.2-1.4-24.5-1.7-36.8.3-.6.5-1.2.9-2.1.6,1.2,1,2,1.4,2.9.5,8.2.8,16.3,1,24.5.2,7.9-.4,16.2.8,24,7,.6,14.3-.5,21.4-.7,7.5-.2,15-.4,22.6-.6,0,.8-.1,1.7-.3,3-2.5,0-4.9,0-7.2,0-5.2.3-10.4.3-15.5.8-4,.4-8.1.9-11.4,3.7-11.4,8.5-7.8,23.3-7.5,35.6.4,14.8-.5,30.1,1.7,44.7,10.6,0,21.2,0,31.9,0,5.3,0,10.7.2,16-.2,4.5-.4,10.1-3.1,14.3-1.7-8.5,5-20.6,4.1-30.1,4.2-10.8,0-21.7-.4-32.5.2.4,10.6.8,20.7,1.1,31.1,15.1.7,30.9-.5,45.9-1.8,16.1-1.4,31.9-2.7,48.1-2.9,16.4-.3,31.9-1.5,48-4.8,15.7-3.2,31.9-5.9,47.3-10.4-.9-7.8-2.1-15.6-3.5-23.3-.4-3.3-.7-6.6-1.2-9.9-.4-2.7-1.2-5.4-1.8-8.1h0c-.2-1.4-.4-2.9-.6-4.3-.8-4.1-1.6-8.1-2.4-12.2-.7-11.9-1.5-23.7-2.2-36h-18.7c-2.9,0-5.7-.1-8.6,0-2.2,0-4.3.4-6.5.7-12.7-.3-25.5-.5-38.2-.8-5.8-1.7-11.5-3.6-17.4-5.1-7.8-2-15.9-1.3-23.9-1.6,0-1,0-2,0-3,6,0,12,0,17.9,0,3.3,1,6.5,2,9.8,2.9l6.8,2.3c3.8,1,7.5,2,11.3,3,9.2,0,18.5,0,27.7,0,3.4,0,6.7.1,10.1,0,1.9,0,3.8-.4,5.7-.7,8.5,0,17,0,25.5,0,.7,5.4,1.4,10.7,1.7,16.1.2,4.4-.5,9.8,1.3,13.9.4,7.3.8,14.6,3.3,21.5,31.5-3.2,62.6-6.5,93.9-9.7.7,1,1.2,1.8,1.9,2.8-14,1.3-27.6,2.6-41.3,3.9-.3,9.7-2.3,18.6-1.2,27.8,2.8.3,5,.6,7.2.8,8.1.7,16.1,1.5,24.2,2.1,4.6.4,9.3,1.3,13.8.7,8.1-1,16.2-2.8,24.2-4.4,2.9-.6,5.2-2.2,6.9-4.8,3-4.6,6-9.2,9.5-13.4,4.3-5.1,2.8-10.4,1.9-15.4-6.4-2.1-12.8,1.4-18.9-1.1.6-.7,1.3-1.1,2-1.2,8.2-.7,16.3-1.5,24.5-2.1,13.9-1.1,27.8-1.9,41.7-3.2,5.3-.5,10.8-.1,15.7-2.9,4.8-1.8,9.6-3.6,14.5-5.3,2.6-.9,5.3-1.5,7.9-2.2-1.1.7-2.1,1.7-3.3,2.2-6.6,2.8-13.3,5.5-19.9,8.3-20,4.5-41,4.6-61.4,6.4.7,3.7.1,7.7,2.5,10.9,1.9,2.6,4.5,5.5,7.1,7.3,3.3,2.4,7.4,3.4,10.8,5.7,3.6,2.5,4.9,6.1,6.6,9.9,7.5,16.5,15.6,37.4,6.7,55.1-.4,0-.8-.2-1.2-.2,0-4.9,1.9-9.5,1.9-14.5,0-4.6-.6-9.2-1.1-13.7-1-9.4-4.5-17.3-8.6-25.7-.5-1-1.1-1.9-1.6-2.9-3.4-11.3-19-10.1-28.1-10.7-2.8,3.9-5.4,8.6-8.6,12-2.9,3.1-6.7,4.1-10.7,4.9-10.1,2.1-19.9,4-30.2,4-1.7,7.3-.7,16.2-.9,23.7-.2,8.5-.4,17.1-.5,25.6-.3,16.6.3,33,1.2,49.6,4.9.1,9.5-1.5,14-.8,0,.4.2.8.3,1.3-5.5,3.2-14.4,2.5-20.7,3.2-7,.7-13.9,1.6-20.9,2.4-13.9,1.6-27.8,3.6-41.7,5.6-5,0-9.5.2-11.8-4.9-2.7-5.7-2-13.7-2.4-19.9-.6-23.2-1.2-46.3-1.8-69.7-18.8,2.3-37.6,7.8-56,12-9.2,1-18.5,2-27.7,2.9-13.3.2-26.7.3-40,.8-11,.4-22,1.5-33,2.3-.4,0-.9.4-1.3.6-10.1.3-20.2.7-30.4,1,0,13.8.5,27.4.9,41.2.2,7.2.4,14.3.6,21.5.2,6.9-.3,14.3,1.2,21h-4.5ZM1127.9,731.1c.3,18.9.6,37.8,1,56.6.1,4.8.3,9.5.4,14.3.1,3.7-.2,7.9,1.3,11.4,2.9,6.8,13.8,2.9,19.3,2.2-1-17.6.4-34.9,2.5-52.3,2.2-17.9,2.7-36.4,6.5-54,4.3-2.2,8.5-4.4,12.5-6.5-1.7-9.3,1.6-18.6.6-28-17.1,1.9-33.8,3.8-50.6,5.6,1.8,13.6,3.7,27.2,5.8,40.8.2,3.3.5,6.6.7,9.9ZM1172.3,793.3c1.8-2.4,1.5-8,1.9-11,.5-4,.9-8.1,1.2-12.1.6-7.4.9-14.9,1.3-22.4.8-14.1,3.5-28.9-3.3-42-4.8,1.5-10.9,2.3-13,7.4-2.2,5.2-1.1,12.7-1.4,18.2-.4,6.7-.9,13.2-1.8,19.8-.9,6.2-3.9,15-1.6,20.9-3.2,13.9-4.1,28.2-3,43,6.3-1,12.2-1.9,18.3-2.9,1.2-6.4,1.6-12.7,1.5-19h0ZM1207,708.1c-10.3-.9-20.1-1.7-30.2-2.5,5.3,17.5,3.6,34.5,2.1,52.4-1.5,17.9-2.7,36-5,53.9,11.3-1.2,22-2.3,33.1-3.5-2.1-33.3-1.6-67,0-100.3ZM1265.3,679.5c-1.5,2.3-2.6,4.1-4,6.2h9.5c-2-2.3-3.6-4-5.5-6.2ZM938.1,626.2c0-.3-.1-.6-.2-.9-2.3.3-4.7.6-7.2.9.4,2.5.7,4.6,1,7,2.3-2.5,4.3-4.8,6.4-7Z" fill="#fdfdfd"/>
        <path d="M1157.3,587c-3.9,3.6-7.7,7.3-11.7,10.8-1.6,1.4-3.7,2.3-5.6,3.4-.9-.1-1.9-.3-3.4-.4,3.1-2.2,5.5-3.9,7.9-5.6,2.2-2,4.5-3.9,6.7-5.9,4.8-3.2,8.3-5.3,14.1-6.1,4-.5,8.1-.6,12.1-1.3,5.9-.9,6.8-4.7,8.4-10,1.5-3.8,3-7.5,4.4-11.3,1.3-3.9,2.7-7.7,3.9-11.6,1.3-3.9,2.4-7.8,3.6-11.7h0c2.4-3.9,2.7-8,1.9-12.7-15.2,0-30.3,0-45.3,0-3.3.2-6.7.5-10,.8-.7,0-1.4.4-2,.7-20.6,0-41.2.4-61.9.7-10.7.2-21.4.3-32.1.4-9.7.1-20.1-.7-29.7.8.9,17.4,2.1,34.7,3.7,52.1-.6,0-1.2-.2-1.6-.2-.7-4.3-1.4-8.4-2.1-12.5-.6-15-1.3-29.9-2.5-44.9-1.1-15-1.3-30-3.2-44.9-14.3-.7-28.9.8-43.2,1-7.6.1-15.1.2-22.7.4-6.4.2-14.5-.7-20.5,1.4,1.8,18.4,1.6,37,2.1,55.5,0,.9-.1,1.7-.2,3.3-.9-1.2-1.5-1.9-2-2.6-1.3-18.9.5-38.5-2.6-57.1-27.3,2.1-54.8,2.3-82.2,3.2-13.9.4-27.8.9-41.6,1.3-13.8.4-27.9-.2-41.6,1.6h-6.8c0-.5,0-1,0-1.5,3.4,0,5.4,0,8.4-1.5h6.8c0-32.8-1.5-65.7-1.9-98.6-.2-16.2-.7-32.5-1.2-48.7-.3-8.7-.5-17.4-.8-26.1-.2-7.7.9-16.9-1.3-24.2-71.7,2.3-143.6,4.8-215.3,4.8v-2.2c6.2,0,12.5,0,18.7,0,10.5-.3,21-.5,31.5-.8,10.7-.2,21.5-.5,32.2-.7,5.7-.2,11.4-.5,17.1-.7,14.5-.3,29.1-.5,43.7-.8,31.7-1.2,63.5-2.2,95.2-2.2,0,.7,0,1.5,0,2.2h-20.6c1.9,32.8,2.7,65.7,3.3,98.5.3,16.9.7,33.7.9,50.6.2,16.1-1.1,33.1,1,49.1,25.6-2.2,51.4-2.2,77-3,25.8-.8,52-.2,77.7-2.7.5-8.1-.5-16.4-.9-24.4-.3-8.3-.7-16.6-1-24.9-.7-16.1-1.4-32.3-2-48.4-1.2-32.5-.5-65.2-3.1-97.5-18-1.4-35.9-1-53.9.1-18.7,1.1-37.3,1.5-56,1.9,0-.6.2-1.2.3-2.2,7.3,0,14.9.6,22.2-.7h8.2c13.2-.5,26.5-1.5,39.7-1.6,13.3,0,26.7.3,40.1-.3-.4-2.3-.7-4-1-5.7h0c.2-1.6.7-3.1.7-4.7-.1-5.9-.4-11.8-.7-17.8.7,0,1.5,0,2.2,0,.2,6.1-.5,12.3.6,19.2,5.7-6.4,10.8-12,15.9-17.7.5-.5,1-1,1.5-1.5.5,0,1,0,1.5,0-.7,1.1-1.3,2.3-2.2,3.3-3.2,3.7-6.5,7.3-9.8,10.9-2.2,2.5-4.5,5-7.1,7.8,1.6,34.6,2.4,69.3,3.5,103.9.5,17,1.3,34,1.9,51,.3,9,.7,18,1,27,.1,3.9.3,7.7.4,11.6.1,3.4-.4,7.9.9,11,20.2,0,40.4-1.3,60.6-1.8,20.8-.4,41.6-.8,62.5-1.3,5.9-.1,11.7-.3,17.6-.4,4.5-.1,10.8.8,15-1-.4-11.7-.8-23.4-1.1-35.2-.3-11.2,1.2-24-1.9-34.7-2.6.2-4.6.3-7.1.5,2-3.3,4.6-2.7,7.2-2.6,4.9,3.7,3.6,10.3,3.8,15.8.2,6.3.4,12.6.5,18.9.1,6.5.3,13.1.4,19.6.1,5.9-.6,12.5.7,18.3h4.1c.5.2.9.5,1.6.8-.7.7-1.2,1.1-1.6,1.5-12.2.3-24.4-.8-37,1.2,2.1,15.7,4.2,31.3,7,46.9,1,.3,2.1.7,3.1.7,5,0,9.9,0,14.9,0,3.3-.2,6.6-.6,9.9-.6,5.9-.1,11.9,0,17.8,0,15.5,0,31-.7,46.5-.7.5-.2,1-.5,1.5-.7,18,0,36,0,54,0,3.5-.2,7-.4,10.6-.7h16.5v-21c0-5.2.3-10.4,0-15.6-.2-2.8-1.4-5.6-2.1-8.4,0,0,0,0,0,0-.3-1-.6-2-.8-2.9h-20.2c-18.1.7-36.1.9-54.2,1.3-17.7.4-35.3,1.9-53.1.9-1.9,0-2.3-1.4-2.3-3-.2-9.3-.6-18.6-.7-28-.1-8.8-.5-17.5,1.5-26h0c15.6-2.5,32.5-1.4,48.3-1.5,16.1-.1,32-.4,48.1-1,3.8,2.6,3.3,6.4,3.4,10.5,0,4.8.1,9.7.2,14.5.2,9.9-.2,20.1.7,29.9,14.8,0,29.6-.5,44.3-.7,14.7-.2,29.5.6,44.1-1,1-3.9,1.9-7.5,2.9-11,.7-1.3,1.5-2.5,2.2-3.8,3.8-6.1,7.8-12.1,11.3-18.3,3.1-5.5,3.4-12.4,4.1-18.5,1.6-13.2,1.5-26.5,2.9-39.7,4.2,2.2,1.2,14.7.9,18.5-.6,7.9-1.3,15.8-2.2,23.6-.8,7.5-2,13.8-6.1,20.3-4,6.3-7.5,12.7-11,19.3-1,3.1-1.9,6.2-3.1,10.1,13.8-1.5,27.5-2.6,41.3-3.7,13-1,27.3-4.7,39.8.4v1.5c-6.9-.8-12.7-2.3-19.8-1.7-7.1.6-14.2,1.3-21.3,2-13.8,1.4-27.8,1.8-41.5,4.2-19.3.2-38.6-.7-58,1,.6,2.5,1.2,4.9,1.8,7.3.4,4.2.7,8.3,1.1,12.7,11.2,0,22.4-.7,33.6-.7,6.2,0,12.4,0,18.6,0,5,0,9.9-1.1,14.7.3,0,.3-.1.7-.2,1-11.1,1-22.2,1.1-33.4,1.3-11.1.2-23.1-1-34,.9.3,8.3.7,16.5,1,25h9c6.5,0,13,0,19.5-.2,6.6-.2,13.4-1.1,19.9.1,0,.3,0,.6,0,.9-6.3,1.7-13.8,1-20.3,1.1-6.8.2-13.6.3-20.4.4-7.3.1-14.6.2-21.9.3-6.4,0-13.4-.5-19.8.6-.4,2.8-.7,5.3-1.1,7.9-.4,1.4-.6,2.9-1.1,4.3-1.9,5.6-3.8,11.2-5.7,16.7-2.2,4.7-3.8,9.7-5.6,14.7-1.4,3.8-2.2,9.4-4.9,12.5-2.7,3-7.8,2.7-11.5,3.3-5.2.8-10.3,1.7-15.5,2.6ZM1196.3,471.6c1.2-.1,2.4-.2,4-.4-.4-9.1-.7-17.7-1.1-26.5-15.6-1.1-31.8.4-47.4.7-8.5.1-16.9.2-25.4.3-7.5,0-15.4-.4-22.9.6v27.4h7.3l1.5.7c14.1-1,28.1-1.7,42.3-2,13.6-.3,28.3,1.5,41.7-.9ZM1056.6,524.5c-2.3-16.1-4.6-31.9-7-48.1-11.5.4-22.7.7-34.3,1.1,1,16.2,2,31.9,3,48.1,13.1-.4,25.5-.7,38.2-1.1ZM1102.9,420.5v23.2c15.6,0,31.2-.9,46.8-1.1,16.2-.2,33,.9,49.1-.7v-22.7c-15.8-.8-31.8.6-47.6.8-16.1.2-32.2.5-48.3.5Z" fill="#fdfdfd"/>
        <path d="M1374,641.8c-6.8-4.8-13.5-9.9-21.5-12.4-6.6-2.1-15.1-.4-20.7-4.9-5.8-4.6-7.9-14.3-9.3-21-1.8-8.5-2.2-17.4-2.2-26.1-.1-15.9,2.1-32.8,12.8-45.3,10.6-12.4,25.9-14.3,41-17.1v126.7Z" fill="#bedd89"/>
        <path d="M865.5,251c16.8,0,33.5,0,50.2,0,0,6.3,0,12.7,0,19,0,1.2.5,2.3.7,3.5h0c0,1.4-.2,2.8-.2,4.3-11.6,1.4-23.8.5-35.4.7-11.6.2-23.2.9-34.8,1.1,5.1-2.6,9.3-6.4,11.9-11.4,2.9-5.5,5.1-11.5,7.6-17.2Z" fill="#f9f7e9"/>
        <path d="M865.5,251c-2.5,5.8-4.7,11.7-7.6,17.2-2.6,5-6.7,8.8-11.9,11.4-2.8.5-5.6.9-8.4,1.4-2.7,0-5.4,0-8.2.1-13.3-3.8-23.7-11.2-29.6-24.1-.9-1.9-1.3-4-1.9-6,22.5,0,45,0,67.5,0Z" fill="#bddb89"/>
        <path d="M546,290c71.7,0,143.6-2.5,215.3-4.8,2.2,7.3,1.1,16.6,1.3,24.2.3,8.7.5,17.4.8,26.1.5,16.2,1,32.5,1.2,48.7.4,32.8,1.9,65.7,1.9,98.6h-6.8c1.9-.4,3.7-.9,6.2-1.4-.4-10.5-.7-21.1-1.1-32.2-27.3-3.1-55.2-.9-82.7-.2-28.1.7-56.3,1.2-84.4,2.4h0c14.2-2.1,28.6-1.8,43-2,14.5-.2,28.9-.5,43.4-.8,13.8-.3,27.6-.6,41.5-1,13.2-.4,26.3,0,39.5,0-.4-18.2-.7-36.1-1.1-54.5h-33.4v-1h33.4c-.3-5.6-.5-10.8-.7-16.3-12.7-.7-25.4-.2-38.2-1.2-.3,1.3-.6,2.2-.9,3.3-.5-1-.9-1.9-1.4-3.1-23.9,0-47.8-1.2-71.6-.2-11.1.5-22,2.9-33,4.1-11.5,1.2-23.4.2-34.8,2.1,0-.3-.1-.6-.2-.9,7.9-1.6,16.3-.7,24.3-1.2,8.1-.5,16.1-1.7,24.1-2.8,7.9-1.1,15.8-1.9,23.8-2.1,7.8-.2,17.5,1.1,24.7-1.7,5.4,2.8,14.2,1.5,20.3,1.6,7.4.2,14.8.4,22.2.6,1-6.8-.6-13.2,2.1-19.2-.4,6.1-.8,12.3-1.1,18.7,13.6.4,26.5.7,40.2,1.1-.5-18.7-1-37-1.5-55.3-2.5.2-4.3.3-6.1.4,0-.2,0-.3-.1-.5,1.9-.5,3.8-1,6-1.5-.4-10.5-.7-20.9-1.1-31.5-33.9,0-67.9.4-101.7,2.3,1.3,15.2,2.6,30.2,3.9,45.3-.3,0-.6,0-.9,0-1.3-15-2.7-30.1-4.1-45.8-18.4,0-36.8.9-55.2,1.2-19,.3-38.1.4-57.1,1.8,0-.5,0-1,0-1.5Z" fill="#e2e1da"/>
        <path d="M1126.6,794.7c.4,6.2-.4,14.2,2.4,19.9,2.4,5,6.9,4.8,11.8,4.9-.6.4-1.3.7-2.4,1.3.5,2.4,1.1,5,1.6,7.6h-27.7c-4.2-5.7-8.5-11.5-12.7-17.2,3.7-1.6,8.7-1.1,12.7-1.3,4.8-.3,9.5-.8,14.3-1.3v-13.9Z" fill="#f9f7e9"/>
        <path d="M546,623c50.1-1.2,100.3-2.8,150.4-4.8,49.6-1.9,99.3-2.5,149-3.6,27.5-.6,55.2-2.1,82.7-2.1,1.7,11,.7,23,.9,34.1.2,11.6.4,23.2.7,34.8.4,11.3.7,22.6,1.2,33.9.5,12.2,1.8,24.6,1.3,36.8-.2-1.9-.3-3.8-.7-5.6-.2-1-1-1.9-1.5-2.8,1.7-10,.4-20.7.2-30.8-.2-10.8-.6-21.7-1-32.5-.7-22.2-.9-44.5-1.8-66.7-12-1.6-25.1.2-37.2.4-12.4.3-24.9.5-37.3.8-24.9.6-49.8,1.1-74.7,1.6-49.8,1.1-99.5,2.8-149.3,4.5-27.6,1-55.3,1.7-82.9,2.8,0-.3,0-.5,0-.7Z" fill="#e3e2dd"/>
        <path d="M1145.3,828.5c11.2-1.9,22.5-2.8,33.8-3.9,11.1-1.1,22.6-3.6,33.7-3.6,2.8,2.8,5.1,5.1,7.5,7.4h-75Z" fill="#f9f7e9"/>
        <path d="M936.8,251c-.5.5-1,1-1.5,1.5-1.9-.4-5,4.1-6.2,5.4-2.7,2.9-5.4,5.7-8.1,8.6-.3-.1-.5-.2-.8-.4-.2-5-.4-10.1-.6-15.1,5.7,0,11.5,0,17.2,0Z" fill="#f9f7e9"/>
        <path d="M1374,467c-12.5-5.1-26.8-1.4-39.8-.4-13.8,1.1-27.6,2.2-41.3,3.7,1.2-3.9,2.2-7,3.1-10.1.3,0,.5,0,.8,0-.8,2.7-1.5,5.4-2.4,8.7,13.4-.7,26.8-2.3,40.2-3.3,6.6-.5,13-1.2,19.6-2,6.7-.7,13.4.6,19.9,1.8v1.5Z" fill="#e2e2dc"/>
        <path d="M1291.5,473c13.7-2.4,27.6-2.8,41.5-4.2,7.1-.7,14.2-1.4,21.3-2,7.1-.6,12.9.9,19.8,1.7v1.5c-12.3-4.7-25.8-1.4-38.5-.4-14.4,1.1-28.8,2.3-43.2,3.4-.3,0-.5,0-.8,0Z" fill="#e3e2dd"/>
        <path d="M606.8,619.2c-20.2,0-40.5.3-60.8,1.5,0-.3,0-.5,0-.7,20.3-.7,40.5-1.5,60.8-2.2,0,.5,0,1,0,1.5Z" fill="#e3e2dd"/>
        <path d="M919.5,251c.2,5,.4,10.1.6,15.1.3.1.5.2.8.4,2.7-2.9,5.4-5.7,8.1-8.6,1.2-1.3,4.3-5.8,6.2-5.4-5.1,5.7-10.2,11.4-15.9,17.7-1.2-7-.4-13.1-.6-19.2.3,0,.5,0,.7,0Z" fill="#e4e3df"/>
        <path d="M916.5,273.5c-.3-1.2-.7-2.3-.7-3.5,0-6.3,0-12.7,0-19,.3,0,.5,0,.7,0,.2,5.9.5,11.8.7,17.8,0,1.6-.4,3.2-.7,4.7Z" fill="#e2e1db"/>
        <path d="M1371.8,828.5c.5-3.1,1-6.2,1.5-9.3.2-1.2.5-2.3.7-3.4v12.7h-2.2Z" fill="#c7e196"/>
        <path d="M564.7,287.7c-6.2,0-12.5,0-18.7,0v-.7c6.2,0,12.5,0,18.7,0,0,.2,0,.5,0,.7Z" fill="#dddcd7"/>
        <path d="M621,297.7h5.7c.8,1.3,1.6,2.5,2.4,3.8.2,0,.3,0,.5,0,.3,20.9.7,41.7,1.4,62.6-1.1,1.9-1.9,3.1-2.7,4.5h-5.1c-.9-1.2-1.9-2.5-2.7-3.6-.3-8.6-.7-17-1-25.8h-10.6c.3,8.6.7,17.2,1,25.3-.9,1.8-1.7,3.2-2.5,4.8h-5.6c-.8-1.3-1.7-2.6-2.5-3.9-.3,0-.5,0-.8,0,0-12.1.2-24.1,0-36.2-.1-5.6-.3-11.1-.5-16.7-.2-4.7-1.2-10.3,2.4-14h4.9c1,1.5,1.9,2.9,2.8,4.2.3,8.3.7,16.7,1,25.3h10.2c0-5.6,0-11.1-.2-16.6-.2-5.3,0-8.7,2-13.6Z" fill="#d7d7d7"/>
        <path d="M1045.5,626.7c-3.8-1-7.5-2-11.3-3-2.6-5.9-1.5-13.2-1.5-19.6,1.5-.6,2.7-1.1,4.5-1.8h-13.4v4.4c.8-1,1.9-2.1,2.9-3.3,1.1,1.2,2.1,2.3,3.2,3.5.6,1.2,1.3,2.6,2,4v10.9c-1.8-.2-3.2-.3-4.5-.4-3.3-1-6.5-2-9.8-2.9,2.8-1.4,6.6.4,9.5-2.7-1.2-1.1-2.1-2-3.1-2.9-2.1,1.5-3.9,2.8-5.7,4,2-7.4,4.8-13.7,2.4-21.5-8.6-1.8-18.1-1.7-26.5-6.2,8.9,2.1,18,3.1,27,4.9-.3-3.7-1.9-8.6.8-11.7.3,1.3.6,2.7.9,4,10.9-.4,21.9-1,32.8-1,.5.5,1,1,1.5,1.5-.4,3.6-.8,7.2-1.2,10.9-4.7.4-9.3.8-13.9,1.2,0,.3,0,.5,0,.8h14.5v26.1c-3.9,0-7.6.3-11.4.7ZM1045.1,622v-16.7h-10.5v16.7h10.5ZM1053.5,588.1h-18.2v6h18.2v-6Z" fill="#f1efe1"/>
        <path d="M999.8,621.5c8,.3,16.1-.5,23.9,1.6,5.8,1.5,11.6,3.4,17.4,5.1-.7,1,3.8,1.7,4.7,2,.8,8.5,1.5,17.1,1.9,25.6.2,4.3.5,8.6.7,12.9.1,2.3-.5,6.6,2.4,7.5.2.2.5.5.7.7,1.2.5,2.4.9,3.1,1.2.8,5.1,1.5,9.8,2.2,14.5-1.5,13.6-5.2,26.7-10.5,39.2,3.6-13.3,9.2-26.1,9-40.4h-18.1c-1.4-4.6-.8-9.8-1.1-14.6-.3-5.6-.8-11.2-1.3-16.8-1-11.1-1.6-22.1-2.1-33.2-6.2-2.2-12.3-3.4-18.9-3.9-2.5-.2-13.4,1.6-14-1.6ZM1046.2,680c-.3-6-.6-11.9-.8-17.9-.2,0-.5,0-.7,0v5.1c-.5-1.3-1-2.5-1.5-3.8,0-.4.2-.9.4-1.8-1.9.6-3.3,1-5,1.6.4,5.9.9,11.5,1.3,17.8,2.4-.4,4.4-.7,6.3-1ZM1043.3,653c.4,1,.8,2,1.2,3,.1,0,.3,0,.4-.1-.4-5.5-.8-11-1.2-17.2-2.3.3-4.2.5-6.6.8.4,6.6.8,12.6,1.1,18.6.2,0,.4,0,.6,0v-5.9c.4,1.8.8,3.7,1.2,5.7h3.3v-5Z" fill="#f1efe1"/>
        <path d="M721.3,338h-8.7v25.8h-10.6c-1.2-4.5-.7-9.4-.8-14,0-5.1-.2-10.2-.2-15.2-.2-9.9-.4-19.8-.4-29.7.8-.4,1.6-.7,2.7-1.1.7-1.2.3-3.9,3.5-3.1.3.8.7,1.8,1.2,3,1,.3,2.2.7,3.7,1.2v26.2h9.7v6.9Z" fill="#d7d7d7"/>
        <path d="M633.3,410.8c4.1-.2,7.1-.4,10.6-.6v7.1c-3.1.4-6.4.9-9.7,1.3v23.9c-1.9,1.5-3.7,2.9-5.7,4.5-.8-1.1-1.4-2-2-3-.8-.2-1.7-.3-2.6-.5-1.6-3.1-.7-8.8-.9-12.4-.2-4.9-.4-9.8-.5-14.6-.3-9.9-.7-19.8-.7-29.7,1.3-.5,2.3-.8,3.3-1.2.2-.7.5-1.5.9-2.4.8,0,1.7-.1,2.7-.2.3.8.6,1.6,1,2.5.9.4,1.9.7,3.6,1.4v23.9Z" fill="#d7d7d7"/>
        <path d="M615.2,446.5c-4,.3-7.4.6-11,.8-1.3-9.9-.6-20.2-.8-30.2-.2-10.8,0-21.6-1.1-32.3h10.8c2,12.3.8,24.8,1.3,37.6,1.6.2,3,.4,4.8.6v3.7c-1.2.3-2.4.6-4,1v18.9Z" fill="#d7d7d7"/>
        <path d="M687.7,364c-3.7.2-6.7.4-10.3.7-2.6-18.2-1.7-37.5-1.7-55.9.9-.4,1.7-.8,2.6-1.2.4-1,.8-2,1.2-2.9,2.9-.9,2.8,1.3,3.4,3,1,.2,2,.5,3.1.7,1.4,9.2.6,19.2.8,28.5.2,9,.9,18.1.9,27.1Z" fill="#d7d7d7"/>
        <path d="M1119,686.8c-6.3.5-12.5,1-18.8,1.5-7-1.7-15,.1-22.2.7-7.1.6-14.2.8-21.3.8-.3-4.2-.6-7.9-.9-12,15.1-1.1,29.5-2.1,44.4-3.1.4,4.2.7,7.8,1.1,11.4.2,0,.4,0,.6,0v-11.7c4.7-.2,9-.4,13.8-.7.8,2.2,1.7,4.6,2.6,7.1h0c.2,2,.5,4,.7,6ZM1098.8,677.7h-16.4c0,.3,0,.5,0,.8h3.6c-2,.2-4,.5-6,.7-1.1-.6-.6,4.6-.6,5.5,6.7-.5,13.2-.9,20.3-1.4-.4-2.2-.6-3.9-.9-5.6ZM1077.5,678.9c-6.7-1.2-13.1.7-20.2.6.4,2.5.7,4.5,1,6.7,6.7-.5,12.9-.9,19.2-1.3v-6Z" fill="#f1efe1"/>
        <path d="M680.4,594.7c-.4-4.2-.7-7.8-1.1-12,12.8-.7,24.9-1.3,37.3-2,.4,4.2.7,7.9,1.1,12-12.7.7-24.9,1.3-37.4,2Z" fill="#d7d7d7"/>
        <path d="M927,572.8c.3,12.3.4,24.6,1.7,36.8-6.4,2.3-15.3,1.2-22,1.3-8.9.2-17.8.3-26.6.4-17,.2-34,.4-51,.8-34.1.8-68.2,1.4-102.3,2.3-18.9.5-38.7-.2-57.4,2.4,0-42.8,1.7-85.8,5.1-128.5,17.4-1.4,34.8-1.1,52.3-1.1.2,0,.5.2,1.5.5-18.1.3-35.4.6-52.8,1-5,41.9-2.7,84.6-6,126.7,18.8.4,37-1.6,55.6-1.5-.6-4.6-1.1-8.7-1.6-12.9.2,0,.5,0,.7-.1.7,4.2,1.3,8.4,2,13.1,33.6,0,67.2-1.4,100.7-2.1,33.4-.7,66.7-1.3,100.1-2.8,0-11.7-2.2-24.9,0-36.4Z" fill="#e2e2dc"/>
        <path d="M1121.3,698.8c1.4,7.8,2.5,15.5,3.5,23.3-15.4,4.5-31.6,7.2-47.3,10.4-16.1,3.3-31.5,4.6-48,4.8-16.2.3-32,1.5-48.1,2.9-15.1,1.3-30.8,2.5-45.9,1.8-.4-10.4-.8-20.5-1.1-31.1,10.8-.6,21.7-.1,32.5-.2,9.6,0,21.7.8,30.1-4.2-4.2-1.4-9.8,1.4-14.3,1.7-5.3.4-10.7.2-16,.2-10.6,0-21.2,0-31.9,0-2.2-14.6-1.4-29.9-1.7-44.7-.3-12.3-3.9-27.1,7.5-35.6.2.2.5.5.7.7-10.8,8.1-8.1,22.3-7.7,34,.6,15,.6,29.9,2.1,44.7,11.8,0,23.7,0,35.5,0,5.1,0,10.1-.1,15.1-1,3.2-.5,10.1-4.3,11.4.4-9.2,5.1-20.1,4.3-30.3,4.2-10.7,0-21.3,0-32,0,.3,9.9.6,19.5.9,29.4,8.2,1.5,17.4,0,25.7-.6,9-.6,18.1-1.3,27.1-2,18.2-1.4,37.7,1.2,55.4-3.1,0-.2,0,.3.3,1.1,26.7-2.8,52.3-10,78.7-14.5-.3-7.9-1.7-15.5-2.9-23.1.2,0,.5,0,.7,0Z" fill="#e1e1dc"/>
        <path d="M593,387.8v3.1c-1.2.3-2.2.5-3.2.7v30h-9.1c-1.7-11.1-.9-22.3-1.1-33.8h13.3Z" fill="#d7d7d7"/>
        <path d="M661.5,417.2h-9.6v-30.1c-2-.2-3.5-.4-5.3-.6.1-1.1.3-2.1.4-3.3h13.2c1.6,5.3.8,12.1,1,17.7.1,5.4.3,10.8.3,16.3Z" fill="#d7d7d7"/>
        <path d="M682.8,456h12.2c.4,8.4.7,16.7,1.1,25.5h-8.7c-.4-1.3-.9-2.8-1.4-4.4-1-.3-1.9-.6-3.1-1v-20.2Z" fill="#d7d7d7"/>
        <path d="M748.3,322.2v6.5c-2.5.1-5,.2-7.7.4v16.1c-3.4.3-6.7.6-10.6,1-.4-8.2-.7-15.8-1.1-24h19.4Z" fill="#d7d7d7"/>
        <path d="M709.9,481c-.2-1.8-.4-3-.6-4.3-.8-.4-1.6-.9-2.6-1.5v-19.7h11.4c1.8,8.2,1,16.8,1.1,25.5h-9.4Z" fill="#d7d7d7"/>
        <path d="M844.5,502.9c-13.3.4-25.8.7-38.6,1.1-.3-2.5-.6-4.6-.9-7.1,12.7-2.3,25.6-.6,38.5-2.1.3,2.8.6,5.1,1,8.1Z" fill="#d7d7d7"/>
        <path d="M606.8,619.2c0-.5,0-1,0-1.5,10.2-.2,20.5-.4,30.7-.7,9.2-.2,18.9.2,28-1.3,1.3-4.3.8-9.5,1-14,.2-5.4.3-10.8.5-16.3.3-11.3.4-22.6.7-33.9.5-21,2.9-41.8,2.9-62.8-17.6-.9-35.6,1.5-53-.7.5-4.2,5-3.2,8.1-3.2,4.7,0,9.3,0,14,0,9.8,0,19.6,0,29.5,0,10.3,0,20.5-.6,30.8-.7,4.6,0,9.2,0,13.8,0,4.4,0,9.7-.8,13.9.8-18.5,0-37,.1-55.4.3-8.9,0-17.8.2-26.8.3-4.8,0-9.6.1-14.4.2-3.7,0-8.7-.9-11.9,1.4,3.8,1.4,8.2.9,12.2.9,4.6,0,9.2,0,13.8,0,9,0,18,0,27,0,0,21.8-2,43.9-3,65.7-.5,10.5-.9,21-1.2,31.5-.3,10.2.3,21.1-1.5,31.2-4.2,1.5-9.5,1-14,1.2-5.1.2-10.1.3-15.2.4-10.1.2-20.4,0-30.4,1.3Z" fill="#e1e1dc"/>
        <path d="M928.5,536c-.6-18.4-.4-37.1-2.1-55.5,6-2.1,14.1-1.3,20.5-1.4,7.6-.2,15.1-.3,22.7-.4,14.3-.2,29-1.7,43.2-1,1.9,14.9,2.1,30,3.2,44.9,1.1,15,1.9,29.9,2.5,44.9-2.1-.7-1.5-13.7-1.7-16.3-.3-5.9-.2-11.7-1.7-17.4-6.9.4-13.8.9-20.7,1.3,0-.3,0-.6,0-.8,6.8-.5,13.6-1,20.9-1.5.4-9.4-1.1-18.7-1.6-27.9-8.3.6-18.7,3-26.9,1.5,9.4-.9,18-1.8,26.9-2.6-.3-5.8-.6-11.1-.9-16.7-2.4.2-4.4.3-7,.5v8.6c-.3,0-.5,0-.8,0v-9.2c2.1-.6,4.4-1.2,7-1.9v-6.9c-8.4,0-17.8-.4-26,1.5-3.9-1.9-7.6-.3-11.5.2.1.8.2,1.5.3,2.1-.8-.7-1.6-1.5-2.8-2.4-14.4.4-29.1.7-44.2,1.1-.9,9.3,0,18.9.2,28.2,0,4.7.2,9.3.3,14,.1,4.4,1.2,8.8,0,13Z" fill="#e2e1da"/>
        <path d="M1056,585.5c-10.9,0-21.9.6-32.8,1-.3-1.4-.6-2.7-.9-4,0-.8,0-1.5,0-2.3-1.6-17.4-2.8-34.7-3.7-52.1,9.6-1.5,20-.6,29.7-.8,10.7-.1,21.4-.3,32.1-.4,20.6-.3,41.2-.7,61.9-.7h7.4c-1.6,2.2-10.4.9-12.9.9-4.9,0-9.7,0-14.6.1-9.7,0-19.4.2-29.2.3-18.7.2-37.4-.3-56,1.4.8,18.7,1.6,37.1,2.4,55.9,5.6,0,11,.2,16.6.8ZM1038.3,584.5c-.8-18.9-1.5-37.3-2.3-55.8h-16.3c1.1,18.8,1.6,37.4,4.5,55.8h14.2Z" fill="#e1e0d9"/>
        <path d="M758.5,443.6h-6c-.4-13-.7-25.9-1.1-39.2,2.2-.2,3.8-.3,6-.5.4,13.4.7,26.3,1.1,39.7Z" fill="#d7d7d7"/>
        <path d="M758.3,485.8c13.7-1.8,27.8-1.2,41.6-1.6,13.9-.4,27.8-.9,41.6-1.3,27.4-.9,54.9-1.1,82.2-3.2,3,18.6,1.3,38.2,2.6,57.1,0,.7,0,1.4-.1,2.2h-.3c-1.8-19.2-1.1-38.5-2.9-57.6-28.5,0-56.9,1.2-85.4,2.1-14.3.5-28.6.9-43,1.4-13.7.4-27.3.3-40.7,3.1-.2.3-.9,1.3-1.6,2.3-.3-.2-.5-.4-.8-.6.4-1,.8-1.9,1-2.6,2.1-.4,3.9-.8,5.6-1.2Z" fill="#e4e3de"/>
        <path d="M550,316.8v-4.7h21.2c.8-1.3,1.3-2.2,1.8-3,3-.9,2.7,1.5,3.4,3.1,1.4.2,2.8.3,4.5.5v5.1c-10.4-.4-20.5.6-30.9-1Z" fill="#d7d7d6"/>
        <path d="M985.6,609.7c-.2-1.5-.5-3.4-.9-6h18.3c.9-1.3,1.4-2.2,2-3.1h4.8c1.2,2.2.3,3.4-1.5,4.1-.2,1.7-.4,3.2-.5,4.7-3.6,1-7.2,2.5-11,2.1-3.7-.3-7.5-1.3-11.2-1.9Z" fill="#d6d6d5"/>
        <path d="M1005.6,559.9c-2.4.3-4.5.6-7.2,1-.5-7.1-1-13.4-1.5-20.5,2.3-.4,4.6-.8,7.5-1.2.8,6.8,1.7,13.5,1.1,20.8Z" fill="#d8d7d6"/>
        <path d="M748,297.8h6.2v12.4c1.3.6,2.1.9,3.1,1.4,0,1,0,2,.1,2.7-1.4,1.3-2.6,2.5-4.3,4.1h-5.1v-20.6Z" fill="#d6d6d6"/>
        <path d="M681.2,391.8c-.2-1.4-.3-2.5-.5-3.9-1.9-.2-3.8-.4-6.1-.7v-5.3h20.3v4.7c-2.5.2-5,.3-7.7.5-.2,1.6-.4,3.1-.6,4.7h-5.5Z" fill="#d7d7d6"/>
        <path d="M1118.3,680.8c-.9-2.5-1.8-5-2.6-7.1-4.8.2-9,.4-13.8.7v11.7c-.2,0-.4,0-.6,0-.3-3.6-.7-7.2-1.1-11.4-14.8,1-29.2,2-44.4,3.1.3,4.1.6,7.9.9,12,7.2,0,14.2-.2,21.3-.8,7.1-.6,15.2-2.3,22.2-.7-7.8.6-15.7,1.1-23.5,1.7-5.5.4-15.8-.8-20,2.8-.7-4.7-1.4-9.4-2.2-14.5-.7-.3-1.9-.7-3.1-1.2,21.4-1.1,42.7-2.6,64.1-4.7-.4-2.9-.7-5.5-1-8.1h.7c.8,4.1,1.6,8.1,2.4,12.2.3,1.4.4,2.9.6,4.3Z" fill="#dedcd3"/>
        <path d="M743,389.5h-13.6v-8.7c4.4-.3,8.9-.6,13.6-.9v9.7Z" fill="#d7d7d7"/>
        <path d="M1023.5,633.7c.4,3.3.7,6.1,1,9.2-3.9.3-7.2.6-11,1-.5-3.2-.9-6-1.3-8.9,3.7-2.5,7.3-1.3,11.3-1.3Z" fill="#e4e0d1"/>
        <path d="M631.1,314.1c2.5-.1,4.8-.3,7.4-.4v11.2h-7.4v-10.8Z" fill="#d7d7d6"/>
        <path d="M994.8,507.8h8.1c-.7,4-1.4,7.8-2.1,12h-5.9v-12Z" fill="#d7d7d5"/>
        <path d="M975,620.7c-7.5.2-15,.4-22.6.6-7.1.2-14.4,1.3-21.4.7-1.1-7.8-.6-16.1-.8-24-.2-8.2-.6-16.3-1-24.5,0-.7,0-1.4,0-2.2.3,0,.7,0,1,0,.5,16.5,1,33,1.5,50.1,14,0,29.4-3.4,43.2-.7Z" fill="#e2e1dc"/>
        <path d="M1000.1,498.2h-5.9v-12.2c1.8,0,3.6-.2,5.9-.3v12.5Z" fill="#e2decf"/>
        <path d="M737.1,357.1v11.4h-6.3v-11.4h6.3Z" fill="#d6d6d6"/>
        <path d="M740,517.4h6.1c.3,4.1.7,7.9,1,12.2-2.3.1-3.9.2-6,.3-.4-4.2-.7-8.1-1.1-12.5Z" fill="#d7d7d6"/>
        <path d="M707.7,538h-8.5v-6.8c3.2-.2,6.4-.4,9.9-.7-.5,2.8-1,5.1-1.4,7.5Z" fill="#d7d7d6"/>
        <path d="M1006.2,645.7h-18.7v-10.2c1.3-.2,2.6-.4,4.1-.6.4-.6.9-1.2,1.6-2.3,1.3.7,2.5,1.4,4.4,2.5,2.2-.1,5.2-.3,8.6-.6v11.2ZM987.8,636.7c.4,3.2.7,5.9,1.1,8.9,5.7-.4,11.1-.8,16.6-1.1,0-3.1,1.1-6.1-1.5-8.9-5.2.4-10.4.7-16.2,1.1Z" fill="#d9d6c8"/>
        <path d="M998,702h7.4v8.5c-1.8,0-3.7.2-6.4.3-.3-2.8-.7-5.5-1.1-8.8Z" fill="#d7d7d6"/>
        <path d="M721.8,537.3h-8.8c-.4-2.2-.8-4.3-1.1-6.3h9.9v6.3Z" fill="#d7d7d6"/>
        <path d="M1012,585.2c-3.2.1-5.7.3-8.7.4-2.6-6.1-.8-12.3-1.5-19.1,3.1-.2,5.8-.4,9.3-.6.3,6.7.6,12.7.9,19.3ZM1002.7,567.7c.4,5.8.7,11,1.1,17,2.5-.3,4.6-.6,6.6-.9v-16.1h-7.6Z" fill="#b4d2a2"/>
        <path d="M975,482c0-.6-.2-1.2-.3-2.1,3.9-.4,7.6-2.1,11.5-.2-.2,1-.5,2-.7,3-.6.9-1.3,1.7-1.6,2.1h-6.3c-1-1.1-1.8-1.9-2.7-2.8h0Z" fill="#f9f7e9"/>
        <path d="M674,333.2c.3,1.7.6,3.4,1,5.9-2.9.2-5.6.3-8.7.5v-6.4h7.6Z" fill="#d7d7d5"/>
        <path d="M1018.5,617c1.8-1.2,3.5-2.5,5.7-4,.9.9,1.8,1.7,3.1,2.9-2.9,3.1-6.7,1.3-9.5,2.7-6,0-12,0-17.9,0-.7,0-1.4,0-2.2,0v-.5c6.9-.6,13.9-.9,20.9-.9Z" fill="#f1efe1"/>
        <path d="M734.6,528.1h5.2v7.6h-5.2v-7.6Z" fill="#d7d7d6"/>
        <path d="M979.8,494.4v-6.1c2.1-.1,4-.2,6.1-.3v6.4h-6.1Z" fill="#d7d7d5"/>
        <path d="M597.8,451.2c-5,1.5-9,2.3-14.3,2.3-2.5,0-11,1.3-12.3-1.2,8.8-.4,17.7-.8,26.5-1.2h0Z" fill="#e8e7dc"/>
        <path d="M941.2,629c-.2-.2-.5-.5-.7-.7,3.3-2.8,7.4-3.2,11.4-3.7,5.2-.6,10.4-.6,15.5-.8,2.2.4,4.5.7,6.7,1.1,0,.1,0,.2,0,.4-5.7,0-11.5.1-17.2.4-5.9.3-10.3,1.3-15.8,3.4Z" fill="#e4e3de"/>
        <path d="M717.7,596.8c-11.6.6-23.2,1.3-34.7,1.9,0-.3,0-.6,0-.9,11.5-.6,23.1-1.3,34.6-1.9,0,.3.1.6.2.9Z" fill="#e2e1d8"/>
        <path d="M1121.3,698.8c-.2,0-.5,0-.7,0-.3-2.3-.6-4.6-.9-7-1.1.4-2,.7-3.4,1.2-.4-1.2-.8-2.2-1.2-3.5,1.6-.5,2.7-.8,3.9-1.2,0-.5,0-1,0-1.5-.2-2-.5-4-.7-6,.6,2.7,1.3,5.4,1.8,8.1.5,3.3.8,6.6,1.2,9.9Z" fill="#dcdbd7"/>
        <path d="M755.7,386.2c-1.1.2-2,.3-3.2.5-.2-2.2-.4-4.1-.6-6.4h3.8v5.8Z" fill="#d7d7d4"/>
        <path d="M674.4,405.9v-3.9h4.8v3.9h-4.8Z" fill="#d5d5d3"/>
        <path d="M973.4,499.5h4.8v4h-4.5c0-1.2-.2-2.4-.3-4Z" fill="#d5d5d3"/>
        <path d="M975,482c.8.9,1.6,1.7,2.7,2.8h6.3c.3-.4.9-1.2,1.6-2.1.4,4.3-4.9,3.7-7.6,3.7-.4.9-.6,1.6-.9,2.4-.7-2.4-1.3-4.6-1.9-6.9Z" fill="#e2e1da"/>
        <path d="M764.1,494.5c-.2-.9-.3-1.8-.6-3.1,1.8-.2,3.2-.3,4.9-.5,0,1.3.1,2.3.2,3.6h-4.5Z" fill="#d6d6d3"/>
        <path d="M750.6,342.5c.5-6.5,1.1-13,1.6-19.6.3,0,.6,0,.8,0-.5,6.5-1.1,13-1.6,19.6-.3,0-.6,0-.9,0Z" fill="#e2e1d8"/>
        <path d="M734.5,546.2c1.2-.1,2.1-.2,3.2-.4v5c-1.1,0-2-.1-3.2-.2v-4.5Z" fill="#d7d7d4"/>
        <path d="M1217.3,521.8c-3.5.2-7,.4-10.6.7-8.3-2.1-18.3-.7-26.8-.7-8.6,0-18.8-1.4-27.1.8-.5.2-1,.5-1.5.7-7.4-1.6-15.6-.8-23.2-.7-7.8.1-15.6.5-23.3.7-10,0-19.9,0-29.9,0-1.3,0-2.6.5-3.9.7-3.7,0-7.5,0-11.2,0-2.3-15.3-4.5-30.7-6.8-46.3,12.6-.4,24.7-.8,37.6-1.2-1.1-.3-1.3-.4-1.6-.5.4-.4.9-.8,1.6-1.5-.7-.3-1.1-.6-1.6-.8-1.1-.4-2.2-.8-3.5-1.3,0-.5-.2-1.1-.2-1.7-.3-16.7-.5-33.5-.7-50.2,5.2-.2,10.5-.5,15.7-.7-.2.7-.7,1.4-.7,2.1,0,11.6-.1,23.2,0,34.8,0,5.7.5,11.4.8,16.8-.1.1.2-.2.6-.5,0,1.6.4,2.9,2.3,3,10.9,1.6,22.4,1.2,33.4.2.4,4.7.7,9,1.1,13.3.1,0,.3,0,.4,0v-13.1c11.2-1.7,23.2-1.1,34.6-1.2,12.6-.2,25.2-.4,37.8-.6h18.9c.8.8,1.4,1.5,2.1,2.3h0c.5,5.2,1.1,10.5,1.5,15.8.2,2.7,0,5.5,0,8.2v20.3h-24.6c0,.2,0,.5,0,.7h8.9ZM1096.9,467.7v-16.9h-7.6v17.8c2.8-.3,5.2-.6,7.6-.9ZM1149.8,491.4c-.4-4.3-.8-8.2-1.2-12h-6.8v8.6c1.3-.3,2.2-.6,3.2-.8.2,1.4.4,2.7.7,4.3h4.1ZM1207.1,520h9.9v-5.4h-9.9v5.4ZM1174.2,515.4h-9.9v5.2h9.9v-5.2ZM1117,521.9c3.7-.5,7.1.8,10.4-1.2-.5-1.7-.9-3.2-1.2-4.5h-9.2v5.7ZM1078.5,522.2c-.1-1.9-.2-3.6-.3-5.3h-10.1c0,2,.2,3.5.3,5.3h10.2ZM1092.4,477.8v5.3h9.8v-5.3h-9.8ZM1068.6,478.5c.2,2.1.4,3.7.6,6,3.6-.4,6.7-.7,10.1-1-.2-2-.4-3.4-.5-4.9h-10.2ZM1185.3,481.7h9.2v-5.3h-9.8c.2,2,.4,3.6.6,5.3ZM1172.7,477h-10.3c.2,2.1.4,3.8.6,5.3,3.7-.2,6.7-.4,9.7-.6v-4.7ZM1101.5,521.6v-4.7h-9.8v4.7h9.8ZM1195.9,520v-4.7h-9.8v4.7h9.8ZM1141,520.7h9.9v-4.7h-9.9v4.7ZM1216.3,476.2h-9.3v5.7c3.3-.3,6.3-.6,9.3-.9v-4.7Z" fill="#f5f0d8"/>
        <path d="M1049.3,429.5v-7.1c10.4-2,20.6-.8,30.7-1.1,1.2,8.7,1,17.7,1.2,26.5.2,8.5.3,16.6-.7,25h-29.7c0-8,0-16,0-24,0-2.8,1.9-18.5-1.5-19.2ZM1070.7,423.1h-9.8v5.3h9.8v-5.3ZM1072.3,466.6h-10v4.6h10v-4.6Z" fill="#f5f0d8"/>
        <path d="M1050,474.5c-20.8.4-41.6.9-62.5,1.3-20.2.4-40.5,1.8-60.6,1.8-1.4-3.1-.8-7.6-.9-11-.1-3.9-.3-7.7-.4-11.6-.3-9-.6-18-1-27-.6-17-1.4-34-1.9-51-1.1-34.6-1.9-69.3-3.5-103.9,2.6-2.9,4.8-5.4,7.1-7.8-.7,3.5-3.7,5.1-6.3,7.3,3.8,58.4.8,117.4,6.7,175.8,3.8-1.8,7.3-3.5,10.9-5.2.1.2.3.5.4.7-3.8,2-7.6,3.9-11.6,6,.3,8.8.7,17.5,1,26.9,15,0,30-.7,45-1.1,13.7-.3,27.7,0,41.3-1.5-.8-13.6-1.7-27-2.5-40.8,2.3,6.3,1.8,13.3,2.2,20,.4,7,1,14,1.5,21,12-.5,23.6-1,35.2-1.5,0,.5,0,1,0,1.5Z" fill="#e3e2dc"/>
        <path d="M1293.8,458.8c-.9,3.6-1.9,7.2-2.9,11-14.6,1.7-29.4.9-44.1,1-14.8.2-29.6.7-44.3.7-1-9.9-.6-20-.7-29.9,0-4.8-.2-9.7-.2-14.5,0-4.1.4-7.9-3.4-10.5-16.1.6-32,.8-48.1,1-15.8.1-32.7-1-48.3,1.5,7.2-2.5,15.4-1.7,23-1.8,8.3-.1,16.6-.2,24.9-.4,16.3-.3,32.6-.8,48.9-1.2,4.1,2.2,3.8,5.9,3.8,10,0,5,.2,10.1.3,15.1.2,10,.4,20.1.4,30.1,29.2-.5,58-1,86.9-1.6.4-1.4,3.2-11.1,3.9-10.5Z" fill="#e3e3de"/>
        <path d="M1050,474.5c0-.5,0-1,0-1.5,0-7.4,0-14.9,0-22.3-.1-7-.4-14.1-.7-21.1,3.4.7,1.5,16.4,1.5,19.2,0,8,0,16,0,24h29.7c1.1-8.4.9-16.5.7-25-.2-8.8,0-17.7-1.2-26.5,0-6,.5-11.6-1.4-17.3-2.5.4-4.3.6-6.1.9-1-4.1.4-4.8,7.6-4.4,5.8,3.3,4.1,14.4,4.4,20.1.2,16.7.5,33.5.7,50.2,0,.6.1,1.2.2,1.7,1.3.5,2.4.9,3.5,1.3h-4.1c-1.3-5.7-.6-12.4-.7-18.3-.1-6.5-.2-13.1-.4-19.6-.1-6.3-.3-12.6-.5-18.9-.2-5.5,1.1-12.1-3.8-15.8-2.5,0-5.2-.7-7.2,2.6,2.5-.2,4.5-.3,7.1-.5,3.1,10.7,1.7,23.5,1.9,34.7.3,11.7.7,23.5,1.1,35.2-4.2,1.8-10.4.9-15,1-5.9.2-11.7.3-17.6.4Z" fill="#e0ded7"/>
        <path d="M1000.7,449.2c-.5,2.1-.8,3.8-1.3,5.9-5.6-1.1-10.9-2.1-16.4-3.2-.7,1.4-1.3,2.7-2.1,4.3-2-.4-4-.9-6.1-1.3v-3.7c-.6-.6-1.3-1.3-2.3-2.2.4-1.4.7-2.9,1.3-4.9,9.1,1.7,17.7,3.4,26.9,5.1Z" fill="#d7d7d6"/>
        <path d="M1009.9,407.5c-.5,1.8-1,3.6-1.6,5.7-2.1-.3-4-.5-5.4-.7-1.1-2.2-1.9-3.7-3-6,0-.2.2-1.3.4-2.6-1-.6-2-1.3-3.2-2.1.2-1.4.3-3,.6-4.8,4.5-1.3,8.5,1,12.7,1.2.8,2.7,1.5,5.1,2.2,7.6-1.3.8-2.1,1.3-2.8,1.7Z" fill="#d7d7d7"/>
        <path d="M1296.7,460.3c-.3,0-.5,0-.8,0,3.4-6.7,7-13,11-19.3,4.1-6.5,5.2-12.8,6.1-20.3.9-7.9,1.6-15.7,2.2-23.6.3-3.8,3.4-16.3-.9-18.5-1.4,13.2-1.3,26.5-2.9,39.7-.8,6.2-1,13-4.1,18.5-3.5,6.2-7.5,12.2-11.3,18.3.4-6.1,6.2-11.8,9.4-16.9,3.6-5.9,4.1-12.5,5-19.1,1.8-13.7.7-27.6,3.2-41.3,1.2.2,2.1.3,3.4.6,0,15.6-1.4,31.2-3.5,46.7-1.7,13-10.4,24-16.7,35.2Z" fill="#e2e2dd"/>
        <path d="M1030.1,456.2h-7.5v-9.7c2.2-.2,4.6-.4,7.5-.6v10.3Z" fill="#e6e2d4"/>
        <path d="M945.6,432.7c.3-.8.5-1.4.5-1.5,9.4-.6,18.5-1.2,27.9-.9,10.6.4,21.1.6,31.7,1.1-19.9.8-39.8-2.2-60.1,1.3Z" fill="#e2e1d7"/>
        <path d="M1101,473c-.4.3-.7.6-.6.5-.3-5.4-.7-11.1-.8-16.8-.1-11.6,0-23.2,0-34.8,0-.7.4-1.4.7-2.1.5-.2,1-.5,1.5-.7-2,8.6-1.6,17.2-1.5,26,.1,9.3.4,18.6.7,28Z" fill="#e0ded6"/>
        <path d="M938.2,364.8c-.4,2.9-.6,5-.9,7.4h-3.7c.1-2.6.3-4.9.4-7.8,1.4.1,2.7.3,4.2.4Z" fill="#d6d6d4"/>
        <path d="M807,284c18.7-.3,37.3-.7,56-1.9,18-1.1,35.9-1.5,53.9-.1,2.5,32.4,1.9,65.1,3.1,97.5.6,16.1,1.3,32.3,2,48.4.3,8.3.7,16.6,1,24.9.3,8.1,1.4,16.4.9,24.4-25.7,2.5-51.9,1.9-77.7,2.7-25.6.8-51.5.8-77,3-2.1-16-.7-33-1-49.1-.2-16.9-.6-33.7-.9-50.6-.6-32.9-1.5-65.7-3.3-98.5h20.6c-6.4,1.2-12.9,1.2-19.4,1.4,0,32.6,2.2,65.4,2.6,98.1.2,16.5.5,33,.9,49.5.2,7.9.3,15.8.5,23.8.2,7.9-.4,16.4.8,24.2,51-2.3,102.5-.9,153.3-5.4-.3-8.1-.6-16.4-1-25.4-14.4,1.8-28.6,3.5-42.7,5.2,0-.3,0-.6-.1-.9,13.8-1.7,27.7-3.5,41.5-5.2,1.6-3.8.2-55.3-1.8-67.8h-19.8c0-.4,0-.8,0-1.2h20.1c-.4-12.9-.8-25.1-1.2-38-9.1.3-17.8.7-26.4,1,0-.3,0-.6,0-.9,8.5-.4,17.1-.7,26.3-1.1.2-19.7-1.4-39.3-1.6-59.1-3.9-1.2-8.5-.7-12.6-.8-5-.2-10-.3-15-.4-9.5,0-18.9.6-28.4,1.4-5.6.5-53.4,2.4-53.4.7Z" fill="#e3e2db"/>
        <path d="M849.5,448.6c.4,3.8.7,7.4,1.1,11.5-9.6,1.2-19.1,1.5-29.3,1.8-.5-8.5-1-16.7-1.5-25.2h8.7c.3,3.9.7,7.8,1.1,12h20Z" fill="#d7d7d7"/>
        <path d="M816.4,472.2c-13.1.5-25.8.9-39,1.4v-9.8c12.8-.4,25.7-.9,39-1.3v9.7Z" fill="#d7d7d7"/>
        <path d="M908.9,404.5c.4,4.6.7,8.4,1,12.8-7.8.4-14.9.8-22.3,1.2v-13.1c7-.3,13.9-.6,21.3-.9Z" fill="#d7d7d6"/>
        <path d="M902.3,373h-8.7c-1.9-8.7-.7-17.5-1.1-26.5h9.9v26.5Z" fill="#d7d7d7"/>
        <path d="M854.5,400.4v-6.2c4.3-1.4,9.3-.9,13.8-1.1,5-.2,9.9-.4,14.9-.4v6.6c-9.4.4-18.8.7-28.7,1.1Z" fill="#d7d7d6"/>
        <path d="M792.5,295.8c.2,2.4.3,4,.4,5.7,1,.4,2,.7,3.3,1.2v4.3h-11.3c-.3-.9-.6-1.9-.9-3.3-2.3-.1-4.8-.2-7.5-.4v-6.4c5.1-.4,10.4-.7,16-1.1Z" fill="#d7d7d6"/>
        <path d="M777.2,356.7v-12.5c3.9.6,7.5,1.2,11.9,1.9.2,2.5.5,5.4.8,8.5-4.5.8-8.5,1.4-12.7,2.2ZM784.1,354.4c.3-3.1,1.2-5.4-1-7.3-3.7,2-.9,5.5,1,7.3Z" fill="#d7d7d6"/>
        <path d="M784.5,282.5c-31.8,0-63.5,1-95.2,2.2,0-.2,0-.5,0-.7,32.2-.7,64.5-2.3,96.7-2.3,0,.9-.5.7-1.5.8Z" fill="#e0e0da"/>
        <path d="M793.1,316v-4.6h14.4v4.6h-14.4Z" fill="#d6d6d6"/>
        <path d="M689.3,284c0,.2,0,.5,0,.7-14.6.3-29.1.5-43.7.8-5.7.1-11.4.4-17.1.7,0-.2,0-.5,0-.7,9.5-.4,19.1-.7,29.4-1.2-.5-6.3-1.1-12.6-1.6-18.9h.8c.6,6.1,1.3,12.3,1.9,18.6h30.3Z" fill="#e0dfd8"/>
        <path d="M877.8,446.7c3.5-.3,6.7-.5,10.6-.9.1,2.4.2,4.3.3,6.6h-11v-5.7Z" fill="#d7d7d6"/>
        <path d="M812,397.6c-.3.5-.7,1.1-1.3,1.9-2.1-.5-4.2-.9-6.5-1.4.3-2,.6-3.7,1-5.7,4.1-.6,7.6.9,11.4,2v3.5c-1.6-.1-3.1-.2-4.5-.3Z" fill="#d7d6d5"/>
        <path d="M628.5,285.5c0,.2,0,.5,0,.7-10.7.2-21.5.5-32.2.7,0-.2,0-.5,0-.7,10.7-.3,21.5-.5,32.2-.8Z" fill="#dddcd7"/>
        <path d="M596.3,286.3c0,.2,0,.5,0,.7-10.5.3-21,.5-31.5.8,0-.2,0-.5,0-.7,10.5-.2,21-.5,31.5-.7Z" fill="#dddcd7"/>
        <path d="M896.5,336.3v-3.3h5.5c0,1,.2,2,.3,3.3h-5.8Z" fill="#d5d5d3"/>
        <path d="M896.3,329.5c0-1.3.2-2.2.2-3.3h5.5v3.3h-5.7Z" fill="#d6d5d3"/>
        <path d="M887.2,344.6c2.3,1.9,1.9,3.3,0,4.7-2.8-2.2-2.8-2.6,0-4.7Z" fill="#d8d8d3"/>
        <path d="M876.8,458.4c0,1.5-.2,2.7-.3,3.9-3.3,0-2.8-1.9-2.6-3.9h2.8Z" fill="#d5d5d2"/>
        <path d="M1326.8,657.5c-4.9,2.7-10.4,2.4-15.7,2.9-13.9,1.3-27.8,2.1-41.7,3.2-8.2.6-16.3,1.4-24.5,2.1-.7,0-1.4.5-2,1.2,6.2,2.5,12.5-1,18.9,1.1.9,5.1,2.4,10.4-1.9,15.4-3.5,4.2-6.5,8.8-9.5,13.4-1.7,2.6-4,4.2-6.9,4.8-8.1,1.6-16.1,3.4-24.2,4.4-4.5.5-9.2-.4-13.8-.7-8.1-.7-16.1-1.4-24.2-2.1-2.2-.2-4.4-.5-7.2-.8-1.2-9.3.9-18.2,1.2-27.8,13.7-1.3,27.2-2.6,41.3-3.9-.7-1.1-1.2-1.8-1.9-2.8-31.3,3.2-62.4,6.4-93.9,9.7-2.5-7-2.9-14.3-3.3-21.5,16.7-3.5,33.6-2.1,50.5-4.3-.3-12.1-.6-24-.9-36.3h5.2c7.3,0,14.5,4.4,21.1,7.1,7.7,3.2,15.4,6.4,23.2,9.6,6.9,2.8,14.6,6.5,21.9,2.8,3.2-1.6,5.7-4,9.1-5.3,3.4-1.3,6.8-1.3,10.4-1.6,8.2-.6,16.2,0,24.5.2,8.1,0,16.7-.8,24.8.1,15.5,1.8,17,16.7,19.6,29.1ZM1181.9,678.7c.3-.3.7-.7,1-1l-1.5-3.1h-1c-1.4,2.7-1.1,2.6,1.5,4.1ZM1251.5,669.4c1.1,3.5,1.2,3.5,3.8,1.7-.5-2.2-1.6-3.1-3.8-1.7ZM1233.3,673.5c-.4-1.2-.8-2.2-1.4-4.2-2,2.5-3.4,5.6,1.4,4.2ZM1254,633c-2.3-1.3-2.5-1.9-4.4.2,2.3,2,2.1,1.6,4.4-.2ZM1171.7,652.5c-.3.3-.6.6-.9.8,1.3,1.6,1.6,2.8,3.6,2.2,0-1-.1-2-.2-3h-2.6ZM1216,650.7c.7-.9,3.1-3.4.6-4.1-3.5-1-1.1,3.3-.6,4.1ZM1194.5,640c.2-2.2.3-3.9-2.6-3v3h2.6ZM1289.6,660.3c1,0,2,.1,3.3.2,0-1.2-.2-1.9-.2-2.7-2-.4-3.6-.6-3.1,2.5ZM1191.6,652.4c-.4-1.3-.8-2.2-1.1-3.1-.4,0-.7-.1-1.1-.2-.5,1.1-1,2.2-1.9,4.1,2-.4,2.9-.5,4.1-.7ZM1207,646.6c-2.2.3-3.8.5-2.8,3.1,2.4.4,3.6,0,2.8-3.1Z" fill="#cbe98d"/>
        <path d="M1172.3,615.5h-5.2c.3,12.3.6,24.2.9,36.3-16.9,2.2-33.8.8-50.5,4.3-1.7-4.1-1-9.5-1.3-13.9-.3-5.4-1-10.8-1.7-16.1v-14.3c7,0,14.2.6,21-.8.5-.2,1-.5,1.5-.7,11.8,2.2,23.6,2.4,35.2,5.2ZM1136,615.9h-18.1v6h8.2v-5.6c1,.1,1.7.2,2.5.3.1,1.8.2,3.4.3,5,.1,0,.3,0,.4,0,.2-1.7.3-3.3.5-5.3,1.9.1,3.6.3,5.4.4v4.4c-1.6.3-2.9.5-4.2.7v.5c1.7-.1,3.2-.2,5.1-.4v-5.9Z" fill="#eaeae3"/>
        <path d="M1293,496.3c.3,8.3.6,16.6,1,25.2-2.9.4-5.3.7-7.7,1.1-.2-2.6-2.2-2.3-3.9-2.3-12.2.2-24.4.5-36.6.7h-8.5v-23.9c18.7-.3,37.2-.5,55.8-.8ZM1258.1,519.2v-5.3h-9.8v5.3h9.8ZM1274.4,518.4h10.5c-.4-1.9-.8-3.4-1-4.6h-9.5v4.6Z" fill="#f5f0d8"/>
        <path d="M1292.2,473.7c.3,6,.5,12,.8,18-18.7.8-37.6-.1-56.2,1.3,0-4.1-.2-7.8-.8-11.8-.4-2.1-.7-4.3-1.2-7,19.4-.2,38.4-.3,57.5-.5ZM1275.3,480.1h10.1c-.1-2-.2-3.6-.3-5.3h-9.8v5.3ZM1257.5,475.6h-9.2v5.4h9.2v-5.4Z" fill="#f5f0d8"/>
        <path d="M1137,610.2c-.5.2-1,.5-1.5.7h-21.1c-.3-4.3-.5-8.3-.8-12.7h22.7c0,.8-.1,1.6-.2,2.5h-18.2v6.5c6.2-.2,12.1.9,18-1.3.3-1.2.5-2.3.8-3.4.2,0,.4,0,.6,0,.4,1.8.9,3.6,1.3,5.4-.5.8-1,1.5-1.5,2.3Z" fill="#f1efe1"/>
        <path d="M1236,481.2c.6,4,.8,7.8.8,11.8,18.7-1.5,37.5-.6,56.2-1.3h10.3c.4,1,.7,2,1.1,3.1-3.8,2.5-7.8,1-11.4,1.4-18.6.3-37.1.5-55.8.8v23.9h8.5c0,.2,0,.5,0,.7h-9c-.3-8.5-.7-16.7-1-25,10.9-1.9,22.9-.8,34-.9,11.2-.2,22.3-.3,33.4-1.3,0-.3.1-.7.2-1-4.8-1.5-9.7-.4-14.7-.3-6.2,0-12.4,0-18.6,0-11.2,0-22.4.7-33.6.7-.4-4.4-.8-8.6-1.1-12.7.2,0,.5,0,.7,0Z" fill="#e1dfd6"/>
        <path d="M1245.7,521.7c0-.2,0-.5,0-.7,12.2-.3,24.4-.5,36.6-.7,1.7,0,3.7-.3,3.9,2.3-1.2.5-2.3,1.4-3.5,1.4-17.3.3-34.7.5-52,.8-9.1.2-18.1.7-27.2,1.1-.4,2.4-.8,4.8-1.2,7.1-.2,0-.5,0-.7,0,.3-2.6.7-5.1,1.1-7.9,6.3-1.2,13.3-.5,19.8-.6,7.3-.1,14.6-.2,21.9-.3,6.8-.1,13.6-.2,20.4-.4,6.5-.2,14,.6,20.3-1.1,0-.3,0-.6,0-.9-6.5-1.2-13.3-.3-19.9-.1-6.5.2-13,.2-19.5.2Z" fill="#e2e1dc"/>
        <path d="M1138.5,608c-.4-1.8-.9-3.6-1.3-5.4-.2,0-.4,0-.6,0-.3,1.1-.5,2.2-.8,3.4-5.8,2.2-11.7,1.1-18,1.3v-6.5h18.2c0-.8.1-1.7.2-2.5h0c2.8-1,5.5-2,8.3-3-2.4,1.7-4.8,3.4-7.9,5.6,1.5.2,2.4.3,3.4.4-2.5,1.8-1.2,4.4-1.5,6.7ZM1134.6,601.5h-16v4h16v-4Z" fill="#dad9d1"/>
        <path d="M1236,481.2c-.2,0-.5,0-.7,0-.6-2.4-1.2-4.8-1.8-7.3,19.4-1.6,38.7-.7,58-1,.3,0,.5,0,.8,0,0,.2,0,.5,0,.7-19.1.2-38.1.3-57.5.5.5,2.7.8,4.9,1.2,7Z" fill="#e0ddd4"/>
        <path d="M1157.3,587c5.2-.9,10.3-1.8,15.5-2.6,3.7-.5,8.8-.2,11.5-3.3,2.7-3.1,3.6-8.7,4.9-12.5,1.7-4.9,3.3-9.9,5.6-14.7.2.2.5.5.7.7-1.9,5.2-3.8,10.4-5.7,15.6-1.3,3.6-2.4,9.6-5.2,12.2-3,2.8-8.8,2.5-12.6,3-2.1.3-13.5,3-14.7,1.5Z" fill="#e2e1dc"/>
        <path d="M1326,660.5c6.7-2.8,13.3-5.5,19.9-8.3,1.2-.5,2.2-1.4,3.3-2.2.7,3.3-6.5,4.7-9,5.7-4.6,1.7-8.5,2.9-12,6.4-.7-.5-1.5-1-2.2-1.6Z" fill="#e2e2dc"/>
        <path d="M1195.5,554.7c-.2-.2-.5-.5-.7-.7,1.9-5.6,3.8-11.1,5.7-16.7.5-1.4.7-2.8,1.1-4.3.2,0,.5,0,.7,0-.9,3.3-1.7,6.6-2.7,9.9-1.3,4-2.7,7.9-4,11.9Z" fill="#e1e0db"/>
        <path d="M1287.7,698.8c.5,1,1.1,1.9,1.6,2.9-1,.8-2,1.6-3.5,2.7-.6-1.4-.9-2.3-1.2-2.9,1.2-1.1,2.1-1.9,3-2.7Z" fill="#dcdfb9"/>
        <path d="M1235.7,723.7h4.2c-.5,1.4-.9,2.5-1.3,3.6-.4,0-.8,0-1.2,0-.5-1.1-1-2.1-1.7-3.7Z" fill="#dee1b7"/>
        <path d="M1275.4,768.1c.7-.8,1.5-1.7,2.2-2.5.6.6,1.2,1.3,1.8,1.9-.9.7-1.7,1.4-2.6,2-.5-.5-.9-1-1.4-1.4Z" fill="#e4e1c1"/>
        <path d="M1219.9,806.5c-1.7-2.2-1.9-2.1,0-4.2,1.9,2.1,1.7,2,0,4.2Z" fill="#e4e1c1"/>
        <path d="M1306.2,738.1c.6,2.9-1.1,2.7-2.8,2.5q-.6-2.8,2.8-2.5Z" fill="#e4dfc2"/>
        <path d="M1367.9,706.5c-.9.3-1.7.6-3,1.1-.2-1.2-.4-2.1-.8-4.1,1.9.9,3,1.4,4.1,1.8,0,.4-.2.8-.3,1.2Z" fill="#e4e0c1"/>
        <path d="M1275.3,667.4q.1,2.6-2.7,3.1c-1.1-2.6,0-3.2,2.7-3.1Z" fill="#e4e0c2"/>
        <path d="M1126.6,794.7v13.9c-4.8.5-9.5,1-14.3,1.3-4.1.2-9-.3-12.7,1.3-10.6-7.2-19.2-18.7-22.6-31.1-1.9-6.9-3.1-14-4.5-20.9-1.3-7-4-15.1-3.7-22.2,18.4-4.2,37.2-9.7,56-12,.6,23.4,1.2,46.5,1.8,69.7Z" fill="#cbe98d"/>
        <path d="M1040.2,740.8c-3.6,7.3-6.6,16.5-12.7,22.2-4.9,4.5-11.5,6.7-18,6.5-7-.2-15.4-1.5-21.2-5.6-7.1-5.1-13.2-13-19.3-19.2,4.1-2.5,12.3-1.6,17-2,6.4-.5,12.9-1.1,19.3-1.1v5h5.5v-4.7c-1-.2-1.9-.5-2.8-.7,0,0,0-.2,0-.3h13.6c.4,2,.7,3.9,1,5.9,1.8,0,3.2-.2,4.8-.2v-5.8h12.8Z" fill="#f9f7e9"/>
        <path d="M1040.2,740.8h-12.8v5.8c-1.5,0-3,.1-4.8.2-.4-2-.7-3.9-1-5.9h-13.6c0,0,0,.2,0,.3.9.2,1.8.4,2.8.7v4.7h-5.5v-5c-6.5,0-12.9.6-19.3,1.1-4.8.4-13-.5-17,2-.7-.3-1.4-.6-2.2-.9.4-.2.8-.6,1.3-.6,11-.8,22-1.8,33-2.3,13.3-.5,26.6-.6,40-.8-.3.2-.6.5-.9.7Z" fill="#e3e0d6"/>
        <path d="M1127.3,721.2c-2.1-13.6-4-27.2-5.8-40.8,16.8-1.9,33.5-3.7,50.6-5.6.9,9.5-2.3,18.7-.6,28-3.9,2-8.2,4.3-12.5,6.5-1.1.6-2.1,1.1-3.2,1.7.3,1.3.5,2.3.7,3.2-2,4.1-1.4,9-1.4,13.4,0,4.4-.3,8-1.4,12.3.2,0,.4.1.6.2-.7,1-1.5,2-2.4,3.2.4,1.3.8,2.7,1.3,4.4-2,1.5-4.2,3-5.9,4.2-1.5,4.9,2.7,5.2,4.7,7.2v3.9c-2,1.1-4.1,2.3-6.3,3.5v2.7c2.6,1.7,5.1,3.4,4.9,7.3-1.7-.8-3.1-1.4-5.1-2.3-.3,2.6-.5,4.8-.7,7,1.9.8,3.4,1.4,5.6,2.3-2.8,1.5-4.9,2.7-7.2,4,0,1.2.1,2.4.2,3.6.2-.1.4-.2.7-.3,1.5,1.5,3,3,4.8,4.7-1.2,5-2.3,9.8-3.2,14,1.4,2.1,2.3,3.5,3.4,5.1-3,.3-5.5.6-8,.9,0,0,0,.1,0,.2-1.6.3-3.2.7-4.5,1-1.9-1.6-3.4-2.9-5.3-4.4,1.9-1.6,3.6-3,5.2-4.3v-5.1c-1.8-.6-3.7-1.3-5.6-2v-6.4c1.6-.6,3.1-1.1,4.7-1.5,1.5-3.6.9-4.7-3.2-6.2-1-1.9-1.9-3.8-3-5.9,2.5-2,4.5-3.6,7.2-5.7-1.9-1.5-3.3-2.5-5-3.9,1.5-1,2.8-1.9,4.4-3-.2-.9-.3-2-.5-2.9-2.2-1.1-4-1.9-5.8-2.8,0-.4.1-.8.2-1.2,1.4-.4,2.9-.8,4.8-1.4.3-.5.8-1.4,1.7-3.1-2.4-1.8-4.7-3.5-7-5.2v-5.1c2-.7,3.8-1.3,5.5-1.9v-4.7c-1.4,0-2.5-.2-3.9-.3-.6-.8-1.3-1.6-2.1-2.6.3-3.8.5-7.6.8-10.9,2-1.3,3.3-2.1,4.6-3,0-1.5,0-6.9-2.9-4.3-1.2.7-2.5,1.5-3.7,2.2ZM1128.1,711.3c-.3.2-.5.5-.8.7,0,1,.1,2,.3,3.7,1.6-.8,2.6-1.3,3.6-1.9,0-.3,0-.7,0-1-1-.5-2-1-3-1.6ZM1161.2,677.5c.3,3.6.5,3.6,3.3,2.1-.2-1.8-.8-3.1-3.3-2.1Z" fill="#cbe98d"/>
        <path d="M1207,708.1c-1.6,33.3-2.1,67,0,100.3-11.2,1.2-21.9,2.3-33.1,3.5,2.3-17.9,3.5-35.9,5-53.9,1.5-17.9,3.2-34.9-2.1-52.4,10.1.8,19.9,1.7,30.2,2.5ZM1204.4,767.3c-.9-.6-5-2.8-4.1.6.7,2.5,3.1,0,4.1-.6Z" fill="#cbe98e"/>
        <path d="M1114.5,664.3c.3,2.6.7,5.2,1,8.1-21.3,2-42.7,3.6-64.1,4.7-.2-.2-.5-.5-.7-.7-1.7-5.7-1.4-12.3-1.9-18.3-.5-6.6-1.1-13.3-1.6-19.9,4.7-.4,9-.7,13.3-1.1,0-.2,0-.4,0-.5h-13.3v-6.4h6.2c.2,1.7.3,3.1.5,4.7h3.2c.2-1.7.4-3.2.6-4.7h5.3c.2,1.3.4,2.4.7,4.1.4-1.8.6-3,.9-4.5h27.9c0-.2,0-.4,0-.7h-13.4c2.2-.2,4.3-.6,6.5-.7,2.9-.1,5.7,0,8.6,0,5.9,1.1,12,.7,18,.7,0,11.8,1.3,23.5,2.2,35.2ZM1060.8,645.1h6.8v-6h-6.8v6ZM1072.4,658.5h-7.9c.2,3.4.4,6.4.6,9.7h7.3v-9.7Z" fill="#f1efe1"/>
        <path d="M1172.3,793.3c.1,6.3-.3,12.6-1.5,19-6.1,1-12,1.9-18.3,2.9-1.1-14.9-.2-29.1,3-43-2.3-5.8.7-14.7,1.6-20.9.9-6.6,1.4-13.2,1.8-19.8.4-5.5-.7-13,1.4-18.2,2.2-5.2,8.3-5.9,13-7.4,6.8,13,4.1,27.9,3.3,42-.4,7.5-.8,14.9-1.3,22.4-.3,4.1-.7,8.1-1.2,12.1-.4,3,0,8.7-1.9,11-.4-1-.7-2.1-1.2-3.3-2.5.8-3,1.9-2,4.1,1.1-.3,2.1-.6,3.1-.9Z" fill="#cbe98e"/>
        <path d="M1131,719c3-2.6,2.9,2.8,2.9,4.3-1.3.8-2.6,1.7-4.6,3-.2,3.3-.5,7.1-.8,10.9.8,1,1.5,1.8,2.1,2.6,1.3,0,2.5.2,3.9.3v4.7c-1.8.6-3.5,1.2-5.5,1.9v5.1c2.3,1.7,4.6,3.4,7,5.2-.9,1.6-1.4,2.6-1.7,3.1-1.9.6-3.4,1-4.8,1.4,0,.4-.1.8-.2,1.2,1.8.9,3.6,1.8,5.8,2.8.1.9.3,1.9.5,2.9-1.6,1.1-2.9,2-4.4,3,1.7,1.3,3.1,2.4,5,3.9-2.6,2.1-4.7,3.7-7.2,5.7,1,2.1,2,4,3,5.9,4.1,1.5,4.7,2.6,3.2,6.2-1.6.4-3.1.9-4.7,1.5v6.4c2,.7,3.9,1.3,5.6,2v5.1c-1.6,1.3-3.3,2.8-5.2,4.3,1.9,1.6,3.4,2.8,5.3,4.4,1.3-.3,2.9-.6,4.5-1,0,0,0-.1,0-.2,2.5-.3,5.1-.6,8-.9-1-1.6-2-3.1-3.4-5.1,1-4.2,2.1-9,3.2-14-1.7-1.7-3.3-3.2-4.8-4.7-.2.1-.4.2-.7.3,0-1.2-.1-2.4-.2-3.6,2.3-1.3,4.4-2.5,7.2-4-2.2-.9-3.7-1.6-5.6-2.3.2-2.2.5-4.4.7-7,2,.9,3.4,1.5,5.1,2.3.1-3.9-2.3-5.6-4.9-7.3v-2.7c2.3-1.3,4.3-2.4,6.3-3.5v-3.9c-2-2-6.2-2.3-4.7-7.2,1.7-1.2,3.9-2.8,5.9-4.2-.5-1.7-.9-3.1-1.3-4.4.9-1.2,1.6-2.2,2.4-3.2-.2,0-.4-.1-.6-.2,1.2-4.2,1.4-7.9,1.4-12.3,0-4.4-.6-9.3,1.4-13.4-.2-1-.4-1.9-.7-3.2,1.1-.6,2.2-1.1,3.2-1.7-3.8,17.6-4.3,36-6.5,54-2.1,17.5-3.6,34.8-2.5,52.3-5.5.7-16.4,4.5-19.3-2.2-1.5-3.5-1.1-7.7-1.3-11.4-.1-4.8-.3-9.5-.4-14.3-.5-18.9-.7-37.8-1-56.6v-8.4c1.5-.1,2.5-.2,4-.3-.4-1.4-.7-2.4-1-3.4ZM1129.8,758.7c1.2,0,2.2-.2,3.4-.3-.2-1.1-.3-1.8-.4-2.5-1.9-.3-3.6-.6-3.1,2.7Z" fill="#cbe98e"/>
        <path d="M1136.3,598.2h-22.7c.3,4.4.5,8.4.8,12.7h21.1c-6.8,1.4-14.1.8-21,.8v14.3c-8.5,0-17,0-25.5,0h-11.2c0-.2,0-.4,0-.6,2.2-.1,4.3-.2,6.3-.3v-12h-25.6v12.9c5,0,9.7.1,14.6.7-9.2,0-18.5,0-27.7,0,3.9-.4,7.5-.7,11.4-.7v-26.1h-14.5c0-.3,0-.5,0-.8,4.6-.4,9.2-.8,13.9-1.2.4-3.7.8-7.3,1.2-10.9v11.2h21.8c4.3,0,8.7,0,13,0,1.2,0,2.3-.5,3.5-.7,12.2,0,24.4,0,36.6,0,1.3,0,2.6.5,3.9.7h0ZM1085.4,624.9h28.5c-.3-4.5-.6-8.6-.9-12.5h-27.6v12.5ZM1112.8,598.2c-9.4.4-18.4.8-27.3,1.1v12.7c9.3-.4,18.3-.8,27.3-1.2v-12.7ZM1084.1,611.6v-12.3h-25.6v12.3h25.6Z" fill="#dad9d1"/>
        <path d="M1073.2,626.7c-4.9-.6-9.7-.7-14.6-.7v-12.9h25.6v12c-2,.1-4.2.2-6.3.3,0,.2,0,.4,0,.6h11.2c-1.9.2-3.8.6-5.7.7-3.4.1-6.7,0-10.1,0ZM1068,617.7c-1.6-.3-3.2-.6-4.9-.9v5.8h17.7c-.2-2.2-.3-4.1-.4-6.2h-5.2c.1.6.2.9.3,1.2-2.5,0-5,0-7.5,0Z" fill="#f0efe1"/>
        <path d="M1079.2,629h13.4c0,.2,0,.4,0,.7h-27.9c-.3,1.5-.5,2.6-.9,4.5-.3-1.7-.5-2.8-.7-4.1h-5.3c-.2,1.5-.4,2.9-.6,4.7h-3.2c-.2-1.6-.3-3-.5-4.7h-6.2v6.4h13.3c0,.2,0,.4,0,.5-4.3.3-8.6.7-13.3,1.1.5,6.6,1.1,13.3,1.6,19.9.5,6,.2,12.6,1.9,18.3-2.9-.9-2.3-5.3-2.4-7.5-.3-4.3-.5-8.6-.7-12.9-.5-8.6-1.1-17.1-1.9-25.6-.8-.2-5.4-.9-4.7-2,12.7.3,25.5.5,38.2.8Z" fill="#dcdbd4"/>
        <path d="M1114.5,664.3c-.9-11.7-2.2-23.5-2.2-35.2-6,0-12.1.4-18-.7h18.7c.8,12.2,1.5,24.1,2.2,36h-.7Z" fill="#dcdbd4"/>
        <path d="M1027.5,621.5c1.3.1,2.6.3,4.5.4v-18.4h-5.2c-1,1.2-2,2.3-2.9,3.3v-4.4h13.4c-1.7.7-3,1.2-4.5,1.8,0,6.4-1.1,13.7,1.5,19.6l-6.8-2.3Z" fill="#dad9d1"/>
        <path d="M1265.3,679.5c2,2.2,3.5,3.9,5.5,6.2h-9.5c1.4-2.1,2.5-3.9,4-6.2Z" fill="#cce29e"/>
        <path d="M938.1,626.2c-2,2.2-4.1,4.5-6.4,7-.3-2.4-.7-4.4-1-7,2.5-.3,4.9-.6,7.2-.9,0,.3.1.6.2.9Z" fill="#e6e5df"/>
        <path d="M1131,719c.3,1,.6,2,1,3.4-1.5.1-2.6.2-4,.3v8.4c-.2-3.3-.5-6.6-.7-9.9,1.2-.7,2.5-1.5,3.7-2.2Z" fill="#d9ddb9"/>
        <path d="M1136.2,598.3c-1.3-.3-2.6-.7-3.9-.7-12.2,0-24.4,0-36.6,0-4.1,0-8.2,0-12.3,0-1.4,0-2.8.4-4.2.7h-21.8v-11.2c-.5-.5-1-1-1.5-1.5-5.6-.6-11-.8-16.6-.8-.8-18.7-1.6-37.2-2.4-55.9,18.6-1.7,37.3-1.2,56-1.4,9.7,0,19.4-.2,29.2-.3,4.9,0,9.7,0,14.6-.1,2.6,0,11.3,1.4,12.9-.9h-7.4c.7-.2,1.3-.6,2-.7,3.3-.3,6.7-.5,10-.8-.5.4-1,.8-1.4,1.1h46.6c-.6,4.1-1.2,7.9-1.7,11.6,0,0,0,0,0,0-2.6,2.7-3.5,8.6-4.8,12.2-1.1,3.1-3.9,8-2.7,11.1-1.5,3.8-3,7.5-4.4,11.3-1-.8-2.6,5.6-3.4,6.7-2.3,2.8-7.1,2.6-10.4,3-7.5.9-16.2.4-20.8,7.7-2.2,2-4.5,3.9-6.7,5.9l-8.3,3ZM1057.5,563c2.6.4,5.3.8,8.1,1.2-.1.8-.2,1.6-.4,2.8h-9.5v10c6.2,0,11.8,3.5,17.7,1.2,1.5-6.1.9-8.2-3-10.8v-3.6c.8-.6,1.4-1.1,2-1.5v-4.3c-.6-.4-1.5-1-2.2-1.5,0-1.6.2-3,.3-4.8h11.7c-.1-2.5-.2-4.4-.3-6.2h-25.5v7.2h8.5c-.2,1.5-.3,2.5-.4,3.7h-6.4c-1.2,1.5-2.3,3.1-3.7,4.8,1.3.9,2.1,1.4,2.9,1.9ZM1133.5,537c-.2,2.2-.4,4.3-.6,6.3h-9.9c-.2-2.2-.5-4.1-.7-6.1h-6v11.3h34.9c-.2-2.1-.4-3.8-.5-5.4.1,0,.2,0,.3,0,.4-1.9.8-3.9,1.2-6.1h-18.7ZM1165,573.5c4.5-6,4.1-10.2-.9-14.2h-35.4c-2.8,3.4-4.7,7.4-2.4,11.8,1.7,3.3,4.6,3.2,7.9,3.2,10.2,0,20.7.5,30.8-.8ZM1103.5,534v6.9h3.9v-6.9h-3.9ZM1153.7,536c1.6,0,2.7-.2,4.3-.2-.1-1.5-.2-2.6-.4-4.2-1.5.1-2.6.2-3.9.3v4.1ZM1092.8,538.5c0,1.6.2,3,.3,4.9,1.4-.3,2.3-.4,3.1-.6v-4.5c-1.2,0-2.2.1-3.4.2Z" fill="#f9f7e9"/>
        <path d="M1112.3,474.5l-1.5-.7c-2.1-.4-4.2-.8-6.5-1.3v-25.6c31.5-.6,62.7-1.1,94-1.7.4,8.9.7,17,1,25.3-1.3.1-2.2.2-3,.3-27.9,1.1-56.4-1.2-84,3.7ZM1194.9,469.8c-.5-2.3-.8-4-1.1-5.4h-9.2v5.4h10.3ZM1138.7,470.3h9.9v-5.6c-3.5.3-6.6.6-9.9,1v4.6ZM1123.6,471.3c-.2-2.1-.4-3.7-.6-6-3.3.4-6.1.8-9,1.1v4.9h9.6ZM1170.4,465h-9.8v4.6h9.8v-4.6Z" fill="#f5f0d8"/>
        <path d="M1056.6,524.5c-12.7.4-25.1.7-38.2,1.1-1-16.2-2-31.9-3-48.1,11.6-.4,22.7-.7,34.3-1.1,2.3,16.2,4.6,31.9,7,48.1ZM1046.2,505.2c.4,3.9.7,7.8,1.1,11.9-6.1,3.4-12.4.4-18.3,2.2,0,1.5.1,3,.2,4.4h26.4c-2.2-15.5-4.4-30.6-6.7-46.4-10.8.4-21.6.8-32.5,1.1.6,8.6,1.1,16.8,1.7,25.2,4.3,0,27.9-2.9,28.2,1.5-8.6-2.7-19.2-1.3-28.2-.5.5,6.8.9,13.3,1.3,20.2,3-.3,5.5-.6,7.8-.9.2-2.5.4-4.2.6-6.1,6.3,0,12.4.6,18.4-1.5v-11.2Z" fill="#e2e1db"/>
        <path d="M1102.9,420.5c16.1,0,32.2-.3,48.3-.5,15.8-.2,31.9-1.6,47.6-.8v22.7c-16.1,1.6-32.9.5-49.1.7-15.6.2-31.2,1.1-46.8,1.1v-23.2ZM1103.8,443.3c31.3-3.3,63-.5,94.3-1.9v-21.6c-15.6,0-31.1.7-46.7.9-8.2.1-16.3.2-24.5.3-7.6,0-15.7-.5-23.2.7v21.5Z" fill="#dedcd3"/>
        <path d="M1196.3,470.8c.8,0,1.7-.2,3-.3-.3-8.3-.7-16.4-1-25.3-31.3.6-62.5,1.1-94,1.7v25.6c2.3.4,4.4.8,6.5,1.3h-7.3v-27.4c7.5-1,15.3-.5,22.9-.6,8.5-.1,16.9-.2,25.4-.3,15.7-.2,31.8-1.7,47.4-.7.3,8.8.7,17.4,1.1,26.5-1.6.1-2.8.3-4,.4,0-.3,0-.5,0-.8Z" fill="#dfddd3"/>
        <path d="M1210.5,474.5c-12.6.2-25.2.4-37.8.6-11.3.2-23.4-.5-34.6,1.2v13.1c-.1,0-.3,0-.4,0-.4-4.3-.7-8.6-1.1-13.3-11,1-22.4,1.4-33.4-.2,17.7,1,35.3-.5,53.1-.9,18.1-.4,36.1-.6,54.2-1.3,0,.2,0,.5,0,.7Z" fill="#e0ded1"/>
        <path d="M1196.3,470.8c0,.3,0,.5,0,.8-13.4,2.3-28.1.6-41.7.9-14.1.3-28.2,1-42.3,2,27.6-4.9,56.1-2.5,84-3.7Z" fill="#e3e0d3"/>
        <path d="M1089,476c.2,0,.5.1,1.6.5-12.9.4-25,.8-37.6,1.2,2.3,15.7,4.6,31,6.8,46.3-.3,0-.5,0-.8,0-2.7-15.6-4.9-31.2-7-46.9,12.6-2,24.8-.8,37-1.2Z" fill="#e3e0d4"/>
        <path d="M837.7,280.9c2.8-.5,5.6-.9,8.4-1.4,11.6-.2,23.2-.9,34.8-1.1,11.6-.2,23.8.7,35.4-.7,0-1.4.2-2.9.2-4.3.3,1.7.6,3.4,1,5.7-13.3.7-26.7.3-40.1.3-13.2,0-26.5,1-39.7,1.4Z" fill="#e2e1db"/>
        <path d="M1197.7,537.5c.6-3.8,1.1-7.5,1.7-11.6h-46.6c.4-.3.9-.7,1.4-1.1,15.1,0,30.1,0,45.3,0,.9,4.7.5,8.9-1.9,12.8Z" fill="#e1e0d9"/>
        <path d="M1104.8,523.2c7.8-.3,15.6-.6,23.3-.7,7.6-.1,15.7-.8,23.2.7-15.5,0-31,.7-46.5.7,0-.2,0-.5,0-.7Z" fill="#e2e0d8"/>
        <path d="M1151.2,589.3c4.5-7.3,13.2-6.8,20.8-7.7,3.2-.4,8.1-.2,10.4-3,.8-1,2.5-7.5,3.4-6.7-1.6,5.3-2.5,9-8.4,10-4,.6-8.1.8-12.1,1.3-5.8.8-9.3,2.8-14.1,6.1Z" fill="#e3e2dd"/>
        <path d="M1152.7,522.5c8.4-2.1,18.5-.8,27.1-.8,8.5,0,18.5-1.4,26.8.7-18,0-36,0-54,0Z" fill="#dddbd0"/>
        <path d="M1217.3,521.8h-8.9c0-.2,0-.5,0-.7h24.6v-20.3c.2,0,.5,0,.7,0v21h-16.5Z" fill="#dddbd0"/>
        <path d="M1104.8,523.2c0,.2,0,.5,0,.7-5.9,0-11.9,0-17.8,0-3.3,0-6.6.4-9.9.6-2-.2-4-.5-6-.7,1.3-.2,2.6-.7,3.9-.7,10,0,19.9,0,29.9,0Z" fill="#e3e0d4"/>
        <path d="M1190.2,560.7c-1.2-3.1,1.7-8,2.7-11.1,1.3-3.6,2.2-9.5,4.8-12.2-1.2,3.9-2.4,7.8-3.6,11.7-1.3,3.9-2.6,7.7-3.9,11.6Z" fill="#e1e0db"/>
        <path d="M1233.7,500.8c-.2,0-.5,0-.7,0,0-2.7.2-5.5,0-8.2-.4-5.3-1-10.5-1.5-15.8.7,2.8,1.9,5.6,2.1,8.4.3,5.2,0,10.4,0,15.6Z" fill="#dcdad2"/>
        <path d="M1210.5,474.5c0-.2,0-.5,0-.7h20.2c.3,1,.6,2,.8,2.9-.7-.7-1.3-1.4-2.1-2.3h-18.9Z" fill="#dcdad2"/>
        <path d="M1071,524c2,.2,4,.5,6,.7-5,0-9.9,0-14.9,0-1,0-2.1-.5-3.1-.7.3,0,.5,0,.8,0,3.7,0,7.5,0,11.2,0Z" fill="#e2e0d8"/>
        <path d="M1045.1,622h-10.5v-16.7h10.5v16.7Z" fill="#e5e1d2"/>
        <path d="M1053.5,588.1v6h-18.2v-6h18.2ZM1036.2,593.9c5.8-.4,11-.7,16.8-1.1-.2-1.6-.3-2.8-.5-4.3-5.8.3-11.3-1-16.8,1.1.1,1.3.2,2.3.4,4.2Z" fill="#dfdbce"/>
        <path d="M1026.8,603.5h5.2v7.5c-.7-1.4-1.4-2.7-2-4-1.1-1.2-2.2-2.4-3.2-3.5Z" fill="#f1efe1"/>
        <path d="M1043.3,653v5h-3.3c-.4-2-.8-3.9-1.2-5.7-.2-3.9-.4-7.8-.6-12,1.7,0,2.9.2,4.5.2.2,4.4.4,8.4.6,12.5Z" fill="#fdfced"/>
        <path d="M1043.2,663.5c.5,1.3,1,2.5,1.5,3.8.3,4,.5,8,.8,11.9-1.3.3-2.7.6-4.5.9-.5-5.8-.9-11-1.3-16.4,1.3,0,2.4-.2,3.5-.2Z" fill="#fdfced"/>
        <path d="M1043.3,653c-.2-4.1-.4-8.1-.6-12.5-1.7,0-2.8-.2-4.5-.2.2,4.2.4,8.1.6,12v5.9c-.2,0-.4,0-.6,0-.4-6-.7-12-1.1-18.6,2.3-.3,4.3-.5,6.6-.8.4,6.2.8,11.7,1.2,17.2-.1,0-.3,0-.4.1-.4-1-.8-2-1.2-3Z" fill="#dfdcce"/>
        <path d="M1043.2,663.5c-1.1,0-2.2.1-3.5.2.4,5.4.8,10.6,1.3,16.4,1.8-.4,3.1-.7,4.5-.9.3.3.5.5.8.8-1.9.3-3.9.6-6.3,1-.5-6.3-.9-11.9-1.3-17.8,1.7-.5,3.1-1,5-1.6-.2.9-.3,1.3-.4,1.8Z" fill="#e0dcce"/>
        <path d="M1046.2,680l-.8-.8c-.3-4-.5-8-.8-11.9v-5.1c.2,0,.5,0,.7,0,.3,6,.6,11.9.8,17.9Z" fill="#ddd9cc"/>
        <path d="M1080,679.3c2-.2,4-.5,6-.7,4-.3,8-.5,11.9-.8.3,1.3.6,2.7.9,4.5-6.6.5-12.5,1-18.9,1.5v-4.5Z" fill="#fdfced"/>
        <path d="M1077.5,678.9v6c-6.3.4-12.4.9-19.2,1.3-.3-2.3-.6-4.2-1-6.7,7.1,0,13.5-1.8,20.2-.6ZM1059.2,685.2c6.2-.5,11.9-1,17.9-1.5-.2-1.7-.4-2.9-.6-4.4-6.1.5-11.7.9-17.4,1.3v4.6Z" fill="#dfdcce"/>
        <path d="M1080,679.3v4.5c6.3-.5,12.3-1,18.9-1.5-.4-1.8-.6-3.1-.9-4.5.3,0,.5,0,.8,0,.3,1.7.6,3.4.9,5.6-7.1.5-13.6.9-20.3,1.4,0-.9-.5-6.1.6-5.5Z" fill="#dfdccf"/>
        <path d="M1098.8,677.7c-.3,0-.5,0-.8,0-4,.3-8,.5-11.9.8h-3.6c0-.3,0-.5,0-.8h16.4Z" fill="#dedacd"/>
        <path d="M1038.3,584.5h-14.2c-2.9-18.4-3.4-37-4.5-55.8h16.3c.8,18.5,1.5,36.9,2.3,55.8ZM1027.8,551.5c2.1.1,4.1.2,6.5.3-.4-6.5,1.2-12.6-1.5-18.7-1.7.1-3.2.2-5,.3v18.1ZM1035.6,579.4c-.3-6.2-.6-12.2-.9-18.6-2.3.1-4.2.2-6.7.3.4,6.5.8,12.4,1.2,18.3h6.4Z" fill="#f1efe1"/>
        <path d="M987.8,636.7c5.8-.4,11.1-.8,16.2-1.1,2.6,2.8,1.6,5.8,1.5,8.9-5.5.4-10.9.7-16.6,1.1-.4-3-.7-5.7-1.1-8.9Z" fill="#e7e4d5"/>
        <path d="M1002.7,567.7h7.6v16.1c-2,.3-4,.6-6.6.9-.4-6-.7-11.2-1.1-17Z" fill="#eff0df"/>
        <path d="M1096.9,467.7c-2.4.3-4.8.6-7.6.9v-17.8h7.6v16.9Z" fill="#d7d7d6"/>
        <path d="M1149.8,491.4h-4.1c-.2-1.6-.5-2.9-.7-4.3-1,.3-2,.5-3.2.8v-8.6h6.8c.4,3.9.8,7.7,1.2,12Z" fill="#e0dccc"/>
        <path d="M1207.1,520v-5.4h9.9v5.4h-9.9ZM1216.3,516h-8c.2,1.1.3,1.8.4,2.6h7.5c0-.9,0-1.6.1-2.6Z" fill="#e8e0c9"/>
        <path d="M1174.2,515.4v5.2h-9.9v-5.2h9.9ZM1165.1,519.3h7.7c0-1,0-1.8-.1-2.5h-7.6v2.5Z" fill="#e8e0c9"/>
        <path d="M1117,521.9v-5.7h9.2c.3,1.3.7,2.8,1.2,4.5-3.3,2-6.7.7-10.4,1.2ZM1125.4,517.5h-7.8c.1,1,.2,1.8.2,2.5h7.7c0-1-.1-1.7-.2-2.5Z" fill="#e7dfc8"/>
        <path d="M1078.5,522.2h-10.2c0-1.8-.2-3.3-.3-5.3h10.1c.1,1.7.2,3.4.3,5.3ZM1077.5,518.2h-7.6v3.5c2.7-.4,5.2-.7,7.6-1v-2.5Z" fill="#e7dfc8"/>
        <path d="M1092.4,477.8h9.8v5.3h-9.8v-5.3ZM1093.5,478.4c.1,1.4.2,2.3.3,3.3h7.9c-.1-1.3-.2-2.3-.3-3.3h-7.9Z" fill="#e6dfc9"/>
        <path d="M1068.6,478.5h10.2c.2,1.6.3,3,.5,4.9-3.4.4-6.5.7-10.1,1-.2-2.2-.4-3.9-.6-6ZM1077.7,482.5c-.1-1.3-.2-2.2-.3-3.2h-7.4c-.2,1.1-.3,2-.4,3.2h8.2Z" fill="#e3e0d4"/>
        <path d="M1185.3,481.7c-.2-1.8-.4-3.3-.6-5.3h9.8v5.3h-9.2ZM1186,481h7.5c.1-1.2.2-2.2.3-3.2h-7.8v3.2Z" fill="#e5ddc6"/>
        <path d="M1172.7,477v4.7c-3,.2-6,.4-9.7.6-.2-1.6-.4-3.3-.6-5.3h10.3ZM1163.3,481h8.2c-.1-1.3-.3-2.3-.4-3.3h-7.6c0,1.1-.1,2-.2,3.3Z" fill="#e3dbc4"/>
        <path d="M1101.5,521.6h-9.8v-4.7h9.8v4.7ZM1101,520.8c-.1-1.4-.2-2.3-.3-3.3h-7.9c.1,1.3.2,2.3.3,3.3h7.9Z" fill="#e2dac3"/>
        <path d="M1195.9,520h-9.8v-4.7h9.8v4.7ZM1187.4,519.3h8c-.1-1.3-.2-2.3-.3-3.2h-7.8v3.2Z" fill="#e3dbc3"/>
        <path d="M1141,520.7v-4.7h9.9v4.7h-9.9ZM1149.4,520v-3.3h-7.9c.2,1.3.3,2.3.4,3.3h7.6Z" fill="#e2dac3"/>
        <path d="M1216.3,476.2v4.7c-3,.3-5.9.6-9.3.9v-5.7h9.3ZM1207.6,476.9c.1,1.3.2,2.3.2,3.3h7.9c-.1-1.2-.2-2.2-.3-3.3h-7.9Z" fill="#e2dac3"/>
        <path d="M1070.7,423.1v5.3h-9.8v-5.3h9.8ZM1070,424.5h-8c.1,1.3.2,2.3.3,3.7,2.8-.4,5.1-.8,7.6-1.2v-2.6Z" fill="#e6dec7"/>
        <path d="M1072.3,466.6v4.6h-10v-4.6h10ZM1071.7,467.3h-8.2c.1,1.3.2,2.3.4,3.3h7.6c0-1.1.1-2,.2-3.3Z" fill="#e2dac3"/>
        <path d="M784.1,354.4c-1.9-1.8-4.7-5.3-1-7.3,2.3,1.9,1.3,4.2,1,7.3Z" fill="#eeede5"/>
        <path d="M1181.9,678.7c-2.6-1.5-2.8-1.4-1.5-4.1h1c.5,1.1,1,2.1,1.5,3.1-.3.3-.7.7-1,1Z" fill="#dcdec0"/>
        <path d="M1251.5,669.4c2.2-1.4,3.2-.4,3.8,1.7-2.5,1.8-2.7,1.7-3.8-1.7Z" fill="#e9e5c8"/>
        <path d="M1233.3,673.5c-4.8,1.4-3.5-1.7-1.4-4.2.7,2,1,2.9,1.4,4.2Z" fill="#e5e2c6"/>
        <path d="M1254,633c-2.2,1.8-2.1,2.2-4.4.2,1.9-2.1,2.1-1.5,4.4-.2Z" fill="#e4e1c1"/>
        <path d="M1171.7,652.5h2.6c0,1.1.1,2,.2,3-2.1.6-2.3-.5-3.6-2.2.3-.3.6-.6.9-.8Z" fill="#e4e0c2"/>
        <path d="M1216,650.7c-.5-.8-2.9-5,.6-4.1,2.5.7,0,3.2-.6,4.1Z" fill="#e4e1c0"/>
        <path d="M1194.5,640h-2.6v-3c2.8-1,2.8.8,2.6,3Z" fill="#e5e0c2"/>
        <path d="M1289.6,660.3c-.6-3.1,1.1-2.9,3.1-2.5,0,.8.1,1.5.2,2.7-1.3,0-2.3-.1-3.3-.2Z" fill="#e4e0c2"/>
        <path d="M1191.6,652.4c-1.2.2-2.1.4-4.1.7.9-1.9,1.4-3,1.9-4.1.4,0,.7.1,1.1.2.3.9.7,1.9,1.1,3.1Z" fill="#e4e1c2"/>
        <path d="M1207,646.6c.8,3-.4,3.6-2.8,3.1-1-2.6.7-2.9,2.8-3.1Z" fill="#e4e0c1"/>
        <path d="M1136,615.9v5.9c-1.8.1-3.4.3-5,.4v-.5c1.2-.2,2.5-.4,4.1-.7v-4.4c-1.8-.1-3.4-.2-5.4-.4-.2,2-.3,3.7-.5,5.3-.1,0-.3,0-.4,0-.1-1.6-.2-3.2-.3-5-.8,0-1.5-.2-2.5-.3v5.6h-8.2v-6h18.1ZM1124.1,617.3h-5.9c.2,1.5.3,2.6.5,3.9h5.4v-3.9Z" fill="#e1ded2"/>
        <path d="M1258.1,519.2h-9.8v-5.3h9.8v5.3ZM1249.5,518.7c2.9-.4,5-.7,7.4-1-.1-1-.3-1.7-.3-2.4h-7.9c.4,1.3.6,2.3.9,3.4Z" fill="#e8e0c9"/>
        <path d="M1274.4,518.4v-4.6h9.5c.3,1.2.6,2.6,1,4.6h-10.5ZM1282.9,517.8v-3.3h-7.9c.2,1.3.3,2.3.4,3.3h7.6Z" fill="#e2dac2"/>
        <path d="M1275.3,480.1v-5.3h9.8c0,1.7.2,3.3.3,5.3h-10.1ZM1276.7,479.5h7.5c.1-1.1.3-2.1.4-3.3h-7.9v3.3Z" fill="#e6dec7"/>
        <path d="M1257.5,475.6v5.4h-9.2v-5.4h9.2ZM1256.7,476.9h-7.7v3.3h7.7v-3.3Z" fill="#e5dcc5"/>
        <path d="M1134.6,601.5v4h-16v-4h16Z" fill="#fefdee"/>
        <path d="M1128.1,711.3c1,.5,2,1,3,1.6,0,.3,0,.7,0,1-1,.5-2,1-3.6,1.9-.1-1.7-.2-2.7-.3-3.7.3-.2.5-.5.8-.7Z" fill="#d9ddb9"/>
        <path d="M1161.2,677.5c2.5-.9,3.1.3,3.3,2.1-2.8,1.5-3,1.4-3.3-2.1Z" fill="#e4e1c0"/>
        <path d="M1204.4,767.3c-.9.7-3.4,3.1-4.1.6-.9-3.4,3.2-1.1,4.1-.6Z" fill="#e4e1c1"/>
        <path d="M1060.8,645.1v-6h6.8v6h-6.8Z" fill="#dfdbcc"/>
        <path d="M1072.4,658.5v9.7h-7.3c-.2-3.3-.4-6.3-.6-9.7h7.9ZM1071.5,667.1v-7.9h-5.4v7.9h5.4Z" fill="#aacb97"/>
        <path d="M1172.3,793.3c-1,.3-2.1.6-3.1.9-1-2.2-.6-3.3,2-4.1.4,1.2.8,2.2,1.2,3.3h0Z" fill="#dcddba"/>
        <path d="M1129.8,758.7c-.5-3.3,1.1-3,3.1-2.7.1.7.2,1.4.4,2.5-1.2,0-2.2.2-3.4.3Z" fill="#e4e0c2"/>
        <path d="M1085.4,624.9v-12.5h27.6c.3,3.8.6,8,.9,12.5h-28.5ZM1091.3,621.5c4,0,8,0,12,0,2.5,2.1,3.7,2.1,7.4-.4-.1-1.3-.2-2.8-.4-4.5h-20.2v6.2h6.9c-2.3-.5-4-.9-5.8-1.2Z" fill="#f1efe1"/>
        <path d="M1112.8,598.2v12.7c-9,.4-18,.8-27.3,1.2v-12.7c8.9-.4,17.8-.7,27.3-1.1ZM1089.9,606.9h18.1v-6.3c-6.3.2-12.2-1-18.1,1v5.3Z" fill="#f1efe1"/>
        <path d="M1084.1,611.6h-25.6v-12.3h25.6v12.3ZM1080.3,607.7v-6.2h-17.9v6.2h17.9Z" fill="#f1efe1"/>
        <path d="M1079.3,598.2c1.4-.2,2.8-.7,4.2-.7,4.1,0,8.2,0,12.3,0-1.2.2-2.3.7-3.5.7-4.3,0-8.7,0-13,0Z" fill="#f1efe1"/>
        <path d="M1068,617.7c2.5,0,5,0,7.5,0h4.1v4.3h-15.9v-4.2h4.2Z" fill="#fdfced"/>
        <path d="M1068,617.7h-4.2v4.2h15.9v-4.3h-4.1c0-.3-.2-.7-.3-1.2h5.2c.1,2.1.3,4,.4,6.2h-17.7v-5.8c1.7.3,3.3.6,4.9.9Z" fill="#ddd9cc"/>
        <path d="M1057.5,563c-.8-.5-1.5-1-2.9-1.9,1.3-1.8,2.5-3.3,3.7-4.8,2.6.3,5.2.6,8.3,1-.1-2.4-.2-4.1-.4-6.3h-9.1v-4.6c7.9-1.3,15.7-.4,23.5-.6v5.4h-11c-1.5,3.7.1,6,2.8,8.4-.9,1.3-1.7,2.6-2.6,4,0,1.3-.2,2.8-.3,4.5-1-.1-1.8-.2-2.5-.3-.2-1.7-.4-3.1-.7-4.8h-8.6ZM1065,557.5c-.5,0-.9.2-1.4.2-.3,1-.6,2.1-1,3.5h4.4c-.9-1.6-1.4-2.6-2-3.7Z" fill="#ead8eb"/>
        <path d="M1057.5,563h8.6c.2,1.7.4,3.1.7,4.8.7,0,1.5.2,2.5.3.1-1.7.2-3.2.3-4.5.9-1.4,1.8-2.7,2.6-4-2.6-2.5-4.2-4.7-2.8-8.4h11v-5.4c-7.8.2-15.5-.7-23.5.6v4.6h9.1c.1,2.2.2,3.8.4,6.3-3.1-.4-5.7-.7-8.3-1h6.4c.1-1.2.2-2.2.4-3.7h-8.5v-7.2h25.5c0,1.8.2,3.7.3,6.2h-11.7c-.1,1.9-.2,3.2-.3,4.8.7.5,1.6,1.1,2.2,1.5v4.3c-.6.4-1.3,1-2,1.5v3.6c3.9,2.6,4.5,4.7,3,10.8-5.9,2.3-11.4-1.2-17.7-1.2v-10h9.5c.2-1.2.3-2,.4-2.8-2.9-.4-5.5-.8-8.1-1.2ZM1065.5,577.6v-9.1h-8.5v7.5c2.8.5,5.4,1,8.5,1.6ZM1072.3,570.1h-5.9c.4,2.8.8,5.2,1.2,7.7h4.7v-7.7Z" fill="#d8c8d7"/>
        <path d="M1133.5,537h18.7c-.4,2.2-.8,4.2-1.2,6.1-.1,0-.2,0-.3,0,.2,1.7.3,3.3.5,5.4h-34.9v-11.3h6c.2,2,.4,3.9.7,6.1h9.9c.2-2,.4-4,.6-6.3ZM1117.4,548.1c11.3-.6,21.7.8,31.8-1.2.7-3.2,1.3-6.1,1.9-9.2h-16.8c-.2,2.4-.4,4.5-.6,6.8h-12.1c-.2-2.2-.4-4.1-.6-6h-4.4c.3,3.3.6,6.2.9,9.5Z" fill="#cdd2dd"/>
        <path d="M1165,573.5c-10.1,1.3-20.6.8-30.8.8-3.3,0-6.1,0-7.9-3.2-2.3-4.4-.4-8.3,2.4-11.8h35.4c5,4,5.3,8.1.9,14.2ZM1129.8,560.5c-2.9,2.3-4.2,5.5-2.9,9.2,1.4,3.9,4.1,3.8,7.7,3.8,9.9,0,19.8-.3,29.7-.9,4-5.3,3.7-8.7-.6-12.1h-33.9Z" fill="#aacc97"/>
        <path d="M1103.5,534h3.9v6.9h-3.9v-6.9Z" fill="#d6d6d4"/>
        <path d="M1153.7,536v-4.1c1.3-.1,2.4-.2,3.9-.3.1,1.6.3,2.7.4,4.2-1.5,0-2.7.1-4.3.2Z" fill="#d6d6d3"/>
        <path d="M1092.8,538.5c1.3,0,2.2-.1,3.4-.2v4.5c-.8.2-1.8.3-3.1.6-.1-1.9-.2-3.3-.3-4.9Z" fill="#d6d6d3"/>
        <path d="M1194.9,469.8h-10.3v-5.4h9.2c.3,1.5.6,3.2,1.1,5.4ZM1185.1,465.6c0,1.3.1,2.3.2,3.2,2.7-.2,5.1-.4,7.8-.6,0-1-.1-1.7-.2-2.6h-7.8Z" fill="#e6dec7"/>
        <path d="M1138.7,470.3v-4.6c3.3-.3,6.4-.6,9.9-1v5.6h-9.9ZM1140.2,469.5h8.3c-.8-1.6-1.2-2.4-1.5-3h-6.9c0,1.2.1,2.1.1,3Z" fill="#e3e0d3"/>
        <path d="M1123.6,471.3h-9.6v-4.9c2.9-.4,5.7-.7,9-1.1.2,2.3.4,3.9.6,6ZM1122.6,467.2h-8c0,1.3.1,2.3.2,3.2h7.8v-3.2Z" fill="#e3dbc4"/>
        <path d="M1170.4,465v4.6h-9.8v-4.6h9.8ZM1169.1,465.7h-8c0,1.3.2,2.3.2,3.2h7.8v-3.2Z" fill="#e2dac3"/>
        <path d="M1046.3,505.3c-.3-4.5-23.9-1.5-28.2-1.5-.6-8.4-1.1-16.6-1.7-25.2,10.9-.4,21.6-.8,32.5-1.1,2.3,15.7,4.5,30.9,6.7,46.4h-26.4c0-1.4-.1-2.8-.2-4.4,5.9-1.8,12.3,1.2,18.3-2.2-.4-4.1-.7-8-1.1-11.9h0Z" fill="#f9f7e9"/>
        <path d="M1046.2,505.2v11.2c-6,2.1-12.1,1.5-18.4,1.5-.2,2-.4,3.6-.6,6.1-2.3.3-4.8.5-7.8.9-.5-7-.9-13.5-1.3-20.2,8.9-.9,19.6-2.2,28.2.5h0ZM1044.2,513.2c.7-2.8,1.1-4.9-1.6-6.3-.9.7-1.7,1.4-2.6,2.3-.6-.7-1.1-1.3-1.8-2.1-2.5.5-5,.9-7.9,1.5-.7-.8-1.6-3.2-3.9-.9v5.5h17.9Z" fill="#f9f7e9"/>
        <path d="M1103.8,443.3v-21.5c7.5-1.2,15.6-.6,23.2-.7,8.2-.1,16.3-.2,24.5-.3,15.6-.2,31.1-.9,46.7-.9v21.6c-31.4,1.5-63-1.3-94.3,1.9ZM1161.4,421.5v5.4h10.1c0-1.9-.2-3.5-.3-5.4h-9.8ZM1184.5,427.2c3.8-.2,7.1,1,10.3-1.3-.2-1.5-.3-2.8-.4-4.3h-9.8v5.6ZM1139.6,428.2c3.6-.4,6.7-.7,9.8-1v-5.1c-3.3,0-6.5.1-9.8.3v5.9ZM1121.8,421.8c-3.7.4-6.8.7-10.2,1.1.1,1.8.2,3.2.3,4.8h9.9v-5.9Z" fill="#f5f0d8"/>
        <path d="M1036.2,593.9c-.2-1.9-.3-3-.4-4.2,5.5-2.1,11-.8,16.8-1.1.2,1.5.3,2.8.5,4.3-5.7.4-11,.7-16.8,1.1Z" fill="#fcfbec"/>
        <path d="M1059.2,685.2v-4.6c5.6-.4,11.3-.9,17.4-1.3.2,1.5.3,2.7.6,4.4-6,.5-11.7,1-17.9,1.5Z" fill="#fdfced"/>
        <path d="M1027.8,551.5v-18.1c1.8-.1,3.3-.2,5-.3,2.7,6.1,1.1,12.2,1.5,18.7-2.4-.1-4.4-.2-6.5-.3ZM1028,534.6c.4,5.7.7,10.9,1.1,16.5,1.8-.3,2.9-.4,4.5-.6-.4-5.5-.7-10.6-1.1-15.8h-4.4Z" fill="#dfdbce"/>
        <path d="M1035.6,579.4h-6.4c-.4-6-.7-11.8-1.2-18.3,2.5-.1,4.3-.2,6.7-.3.3,6.4.6,12.4.9,18.6ZM1029.8,562v16.3c1.7.3,2.2.5,4,.1v-16.8c-1.8.2-3.2.4-4,.5Z" fill="#dfdbcd"/>
        <path d="M1216.3,516c0,1,0,1.7-.1,2.6h-7.5c-.1-.7-.2-1.5-.4-2.6h8Z" fill="#fef7e0"/>
        <path d="M1165.1,519.3v-2.5h7.6c0,.8,0,1.5.1,2.5h-7.7Z" fill="#fef7e0"/>
        <path d="M1125.4,517.5c0,.8.1,1.5.2,2.5h-7.7c0-.7-.1-1.5-.2-2.5h7.8Z" fill="#fef7e0"/>
        <path d="M1077.5,518.2v2.5c-2.5.3-4.9.6-7.6,1v-3.5h7.6Z" fill="#fef7e0"/>
        <path d="M1093.5,478.4h7.9c0,1,.2,2,.3,3.3h-7.9c0-1-.2-1.9-.3-3.3Z" fill="#fdf6df"/>
        <path d="M1077.7,482.5h-8.2c.2-1.2.3-2.1.4-3.2h7.4c0,1,.2,1.9.3,3.2Z" fill="#fdf6df"/>
        <path d="M1186,481v-3.2h7.8c-.1,1.1-.2,2.1-.3,3.2h-7.5Z" fill="#fcf5de"/>
        <path d="M1163.3,481c0-1.2.1-2.2.2-3.3h7.6c.1,1,.2,2,.4,3.3h-8.2Z" fill="#fdf6df"/>
        <path d="M1101,520.8h-7.9c0-1-.2-2-.3-3.3h7.9c0,1,.2,1.9.3,3.3Z" fill="#fdf6df"/>
        <path d="M1187.4,519.3v-3.2h7.8c0,.9.2,1.9.3,3.2h-8Z" fill="#fcf5df"/>
        <path d="M1149.4,520h-7.6c-.1-.9-.2-1.9-.4-3.3h7.9v3.3Z" fill="#fdf6df"/>
        <path d="M1207.6,476.9h7.9c0,1.1.2,2,.3,3.3h-7.9c0-.9-.1-1.9-.2-3.3Z" fill="#fdf6df"/>
        <path d="M1070,424.5v2.6c-2.5.4-4.9.7-7.6,1.2-.1-1.5-.2-2.5-.3-3.7h8Z" fill="#fcf5de"/>
        <path d="M1071.7,467.3c0,1.2-.1,2.2-.2,3.3h-7.6c-.1-1-.2-2-.4-3.3h8.2Z" fill="#fdf6df"/>
        <path d="M1124.1,617.3v3.9h-5.4c-.2-1.2-.3-2.4-.5-3.9h5.9Z" fill="#fcfbec"/>
        <path d="M1249.5,518.7c-.3-1.1-.5-2.1-.9-3.4h7.9c0,.7.2,1.4.3,2.4-2.4.3-4.5.6-7.4,1Z" fill="#fef7e0"/>
        <path d="M1282.9,517.8h-7.6c-.1-.9-.2-2-.4-3.3h7.9v3.3Z" fill="#fdf6df"/>
        <path d="M1276.7,479.5v-3.3h7.9c-.1,1.2-.3,2.1-.4,3.3h-7.5Z" fill="#fcf5de"/>
        <path d="M1256.7,476.9v3.3h-7.7v-3.3h7.7Z" fill="#fcf5df"/>
        <path d="M1071.5,667.1h-5.4v-7.9h5.4v7.9Z" fill="#eeefde"/>
        <path d="M1103.3,621.5c-4,0-8,0-12,0v-4.2h17.7v4.2h-5.7Z" fill="#fdfcee"/>
        <path d="M1103.3,621.5h5.7v-4.2h-17.7v4.2c1.7.4,3.5.7,5.8,1.2h-6.9v-6.2h20.2c.1,1.7.3,3.2.4,4.5-3.7,2.5-4.9,2.6-7.4.4Z" fill="#dfdbce"/>
        <path d="M1089.9,606.9v-5.3c5.9-1.9,11.8-.8,18.1-1v6.3h-18.1ZM1090.5,602.2c0,1.6.1,2.8.2,4.1h15.9v-4.1h-16.1Z" fill="#e0ddcf"/>
        <path d="M1080.3,607.7h-17.9v-6.2h17.9v6.2ZM1079.8,602.2c-5.7,0-11-1-16.3.8.1,1.6.2,2.8.4,4.4,5.5-.4,10.6-.7,16-1.1v-4.1Z" fill="#ddd9cc"/>
        <path d="M1065,557.5c.6,1,1.1,2.1,2,3.7h-4.4c.4-1.4.7-2.4,1-3.5.5,0,.9-.2,1.4-.2Z" fill="#d8c8d7"/>
        <path d="M1065.5,577.6c-3.1-.6-5.7-1.1-8.5-1.6v-7.5h8.5v9.1Z" fill="#ebd9ec"/>
        <path d="M1072.3,570.1v7.7h-4.7c-.4-2.5-.7-4.9-1.2-7.7h5.9Z" fill="#ead8eb"/>
        <path d="M1117.4,548.1c-.3-3.4-.6-6.3-.9-9.5h4.4c.2,1.9.3,3.7.6,6h12.1c.2-2.3.4-4.4.6-6.8h16.8c-.6,3.1-1.2,6-1.9,9.2-10.1,2.1-20.6.6-31.8,1.2Z" fill="#dbe2f3"/>
        <path d="M1129.8,560.5h33.9c4.3,3.3,4.6,6.8.6,12.1-9.9.6-19.7,1-29.7.9-3.7,0-6.3,0-7.7-3.8-1.3-3.7,0-6.9,2.9-9.2Z" fill="#eff0df"/>
        <path d="M1185.1,465.6h7.8c0,.9.1,1.7.2,2.6-2.7.2-5.1.4-7.8.6,0-.9,0-1.9-.2-3.2Z" fill="#fef7e0"/>
        <path d="M1140.2,469.5c0-.8,0-1.8-.1-3h6.9c.3.5.7,1.4,1.5,3h-8.3Z" fill="#fdf6df"/>
        <path d="M1122.6,467.2v3.2h-7.8c0-.9-.1-2-.2-3.2h8Z" fill="#fdf6df"/>
        <path d="M1169.1,465.7v3.2h-7.8c0-.9-.1-1.9-.2-3.2h8Z" fill="#fdf6df"/>
        <path d="M1044.2,513.2h-17.9v-5.5c2.3-2.3,3.2,0,3.9.9,3-.5,5.5-1,7.9-1.5.7.8,1.2,1.4,1.8,2.1,1-.8,1.8-1.5,2.6-2.3,2.7,1.4,2.3,3.5,1.6,6.3Z" fill="#e3dfd0"/>
        <path d="M1161.4,421.5h9.8c.1,1.9.2,3.5.3,5.4h-10.1v-5.4ZM1170.4,426.3c0-1.3.1-2.2.2-3.3h-8c0,1.3.1,2.3.2,3.3h7.6Z" fill="#e6dec7"/>
        <path d="M1184.5,427.2v-5.6h9.8c.2,1.5.3,2.8.4,4.3-3.1,2.4-6.5,1.1-10.3,1.3ZM1185,422.2c.1,1.4.2,2.3.3,3.3h7.9c-.1-1.3-.2-2.3-.3-3.3h-7.9Z" fill="#e5ddc6"/>
        <path d="M1139.6,428.2v-5.9c3.3-.2,6.5-.3,9.8-.3v5.1c-3.1.3-6.2.7-9.8,1ZM1148.9,426.3c-.2-1.2-.3-2.2-.5-3.3h-7.7c.1,1.3.2,2.3.3,3.3h7.9Z" fill="#e5ddc6"/>
        <path d="M1121.8,421.8v5.9h-9.9c-.1-1.7-.2-3-.3-4.8,3.4-.4,6.5-.7,10.2-1.1ZM1113.4,423.6v3.4h7.8c-.2-1.3-.3-2.3-.4-3.4h-7.5Z" fill="#e5ddc6"/>
        <path d="M1028,534.6h4.4c.4,5.2.7,10.3,1.1,15.8-1.5.2-2.7.4-4.5.6-.4-5.6-.7-10.8-1.1-16.5Z" fill="#fdfced"/>
        <path d="M1029.8,562c.8,0,2.2-.3,4-.5v16.8c-1.7.4-2.3.2-4-.1v-16.3Z" fill="#fdfced"/>
        <path d="M1090.5,602.2h16.1v4.1h-15.9c0-1.3-.1-2.5-.2-4.1Z" fill="#fefcee"/>
        <path d="M1079.8,602.2v4.1c-5.3.4-10.5.7-16,1.1-.1-1.7-.2-2.8-.4-4.4,5.4-1.7,10.6-.8,16.3-.8Z" fill="#fcfbec"/>
        <path d="M1170.4,426.3h-7.6c0-1-.1-2.1-.2-3.3h8c0,1.1-.1,2-.2,3.3Z" fill="#fdf6df"/>
        <path d="M1185,422.2h7.9c0,1,.2,2,.3,3.3h-7.9c0-1-.2-1.9-.3-3.3Z" fill="#fdf6df"/>
        <path d="M1148.9,426.3h-7.9c0-1-.2-2-.3-3.3h7.7c.2,1.1.3,2,.5,3.3Z" fill="#fdf5df"/>
        <path d="M1113.4,423.6h7.5c.1,1.1.2,2.1.4,3.4h-7.8v-3.4Z" fill="#fdf6df"/>
      </g>
    </g>
  </g>
</svg>