<?xml version="1.0" encoding="UTF-8"?>
<svg xmlns="http://www.w3.org/2000/svg" version="1.1" viewBox="0 0 1920 1080">
  <!-- Generator: Adobe Illustrator 28.7.8, SVG Export Plug-In . SVG Version: 1.2.0 Build 200)  -->
  <g>
    <g id="_Слой_1" data-name="Слой_1">
      <g>
        <path d="M1557.5,695.2h-37.5c-3.2-4-7.1-6.4-12.5-6-8.3.6-16.6,1.1-24.9,1.5-8.6.4-17.1.4-25.7.8-2.7.1-5.5.5-6.7,3.7h-452.2c-5.7-1.8-12.2-1.5-18.1-2.2-6.4-.8-12.8-1.6-19.3-2.2-13.1-1.1-26.3-1.6-39.4-1.9-13-.3-26.1,0-39-.6-12.5-.7-25-2.8-37.5-3.8-11.1-.9-22.2-2.4-33.3-2.8-11.8-.5-23.6-.6-35.4-.9-23.6-.7-47.2-1.4-70.8-1.9-23.1-.5-45.9-.9-68.8-3.4-22.7-2.5-45.6-4-68.3-6.4-11.1-1.2-22.6-1.7-33.4-4.2-10.5-2.5-19.2-7.1-28.8-11.9-20.2-10.3-42.4-15.1-63.9-21.9-10.2-3.2-20.1-7.6-28.5-14.3-8.6-6.8-17.2-13.5-25.8-20.3-8.2-6.4-17.1-11-27-13.9-5.1-1.5-10.3-2.8-15.3-4.5-4.3-1.4-9-4.9-13.3-5.6,0-15.5,0-31,0-46.5,5.1.6,10,3.5,14.9,5,4.4,1.4,9,2.4,13.5,3.3,9.9,2.2,19.9,4.3,29.8,6.4,10,2.2,20.1,4.3,30.1,6.5,4.6,1,9.3,2.1,13.9,3.2,2.8.7,7.5,2.7,7.7-1.9-32-7.1-64-14.3-95.9-21.4-3.8-14.3-5.6-29.3-8-43.9-.4-7.3,44.5-2.7,50.3-1.6-4.4,4.7-7.4,11.5-10.7,17.1.6,5.1,1.7,9.3,3.5,14.1,1.6,4.4,2.8,10.1,5.5,13.9,4.8,6.6,17.6.5,23.5-1.7,4.2-1.5,6.5-5,9.4-8.3,3.3-3.8,7.5-7.6,9.9-12,4-7.3-1.5-16.7,6.2-22.2,13,2.2,26.8,1.8,40,2.3,7,.3,14,.6,21,.8,6.4.2,14.4-.7,20.5,1.1-2,12.7-6.5,25.4-9.8,37.8-1.8,6.6-3.9,12.4-2.7,19.2,1.2,6.6,2.4,13.2,3.6,19.8-6.6-.4-13.3-.7-19.9-1.5-6.4-.8-12.5-2.5-18.9-3.1v3c21.8,4.8,44.4,6.1,66.7,7.9,22.4,1.9,44.8,4.7,67.2,6.7,40,3.7,79.9,8.5,119.9,11.5,20.3,1.5,40.6,4,61,5.4,19.8,1.4,39.7,2.3,59.5,3.5,82.8,4.7,165.8,4,248.7,4.1-1.1,27.1-2.3,54.3-3.1,81.4,3.7-1.8,2.3-15.4,2.4-19.1.3-6.7.6-13.4.9-20.1.6-14.1.9-28.1,1.3-42.2,10.1-.3,20.1-.6,30.4-1v-2.5c-10-.9-19.6-.7-29.6-.3,2.7-16.2,5.1-32.5,7.4-48.8,1.2-8.2,1.8-16.6,3.8-24.7,1.8-7.7,5.3-14.8,8.2-22.2,20.2-.4,39.6-.8,59.5-1.1,1,16.8,3,33.7,2.8,50.5,0,8.3.7,15.3,4.2,22.8,3.3,7.1,7.1,13.7,9.2,21.3-1.6,0-3.2,0-4.8,0-5.1.2-10.3.5-15.4.8h-3.6c-.2,1.1-.4,2.3-.6,3.9,2.2-.3,4-.6,5.8-.9,26.7-.6,53.3-.7,80-.7,13.4,0,26.7,0,40.1-.2,12.7-.2,26.1.7,38.7-.9.1-.4.2-.8.3-1.1-7.1-3.5-18.3-1.5-26.1-1.5-9,0-17.9,0-26.9,0-18.6,0-37.2,0-55.9,0-10,0-20,0-30,0h0c-1.7-7.5-6.6-13.7-9.8-20.6-3.5-7.5-3.8-14.9-3.7-23,0-17-1.4-33.7-2.9-50.6,6.1-.6,11.9-2.7,18-3.3,6.8-.6,13.9.7,20.7,1,13.8.6,27.7,1.9,41.5,2,27.3.2,54.8,6.4,81.7,10.6,13.7,2.8,28.1,4.7,41.1,10,6.2,2.5,11.4,6.4,17.3,9.4,5.8,2.9,12.2,4.2,18.6,4.7-2.1-2.2-6.3-2.1-9.1-2.9-2.8-.8-5.5-1.7-8.1-2.9-6.1-2.7-11.3-7-17.4-9.6-12.8-5.6-27.7-6.7-41.2-10.3,6.3-5.6,13.6-10.8,16-19.4,2.7-9.4-1.9-20.4,1.8-29.4,2.7-.4,4.9-.8,7.2-1.1,9,.3,17.8-.8,26.6-2.1,7.3-1.1,14.7-1.7,22.1-2.4,8.4.8,19,8.6,24.7,14.6,7,7.5,11.3,16.8,15.8,25.9-4.3,4.9-8.4,10.1-10.3,16.5-1.9,6.5-1.7,14.2-2.5,21-.4-3.6-.8-7.2-1.2-11.6-6.4-.3-12.9-.5-19.5-.8-.2,4.8-.4,9.4-.7,14.4,6.6.3,13.3.6,20,.9-1.5,3.7-4.2,8-4.3,12-.1,4.6,1.9,9,2,13.7.3,10.9-.5,21.9-.7,32.8-19.7,0-39.5,0-59.2,0-2.4-.3-4.7-.6-7.2-1v5.7c2.7-.4,4.9-.7,7.2-1.1,38.6,0,77.3,0,115.9,0,18.6,0,37.5-1.2,56,1.1,8.8,1.1,17.5,2.7,26,4.9,3.8,1,7.1,1.5,9.4,5,2.3,3.3,3.8,7.3,5.6,10.9v37.5c-4.9.9-7.2,1.6-11.3,4.7-3.8,2.8-7.4,5.8-11.1,8.8-3.8,3.2-6,5.7-6.5,10.7-.5,5.1-1.4,9.8-2.6,14.8ZM531.6,638.2c2.9-1.3,4.1-7.5,5.3-10.4-1.7-.6-3.2-1.1-4.6-1.5-3.9,2.2-3.5,6.6-5.8,10.3,2.1.7,3.6,1.1,5.1,1.6ZM482.1,579.7c2.8-.9,2.6-3.5,3.4-5.7-2.9-1.2-7.1-3.9-10.2-3.2-.9,1.5-1.7,3-2.9,5.2,3.7,1.4,6.7,2.6,9.7,3.8ZM779.7,612.7v7c3.5-.4,6.3-.7,9.1-1,.3-2.1.6-4.2,1-7.1-3.9.4-7,.8-10.1,1.1ZM461,572.2c1.4-1.8,2.9-3.6,4.8-6-4.1-1.4-7.4-2.6-10.7-3.7-2.9.4-2.8,2.9-3.9,5.3,3.5,1.5,6.7,3,9.9,4.4ZM539.8,597.7c1.1-1.9,2.3-3.9,3.8-6.4-1.9-.5-2.9-.8-3.9-1-.6.5-1.2,1.1-2.7,2.3-2.1-3.2-2.4-6.5-6.8-5.8-.9,2.3-1.7,4.4-2.8,7,4.4,1.4,8.3,2.7,12.3,4ZM1300.3,644.2h-4.7c.6,3.4,1.1,6.2,1.7,9,3.6-.3,7.3-.6,11-.8v-9c-2.9.3-5.4.6-7.9.9ZM1262,615.7c-4.6-.3-9.2-.7-14.3-1.1v10h15.4c-.4-3.5-.7-6.2-1.1-9ZM362.8,511.4c1.8-2.4,3.7-4.9,5.8-7.7-1.8-.6-2.7-.9-3.6-1.2-3.2-1.4-6.4-2.8-10-4.3-1.4,3.1-2.5,5.7-3.9,8.8,4.1,1.6,7.9,3,11.6,4.4ZM1441.2,661.5c3.4,1.4,6.9.6,10.2.5v-14c-3.1,0-5.9,0-8.7,0-.5.3-1.3.6-1.4.9-.1,4.2-.1,8.4-.1,12.6ZM571.2,600.7c-.9.6-1.7,1.2-2.9,2.1-1-1.3-2-2.7-3.2-4.3-1.8-.7-4-1.5-6.2-2.3-1,3-1.9,5.6-2.9,8.8,5,1.6,9.8,3.1,14.5,4.7.5.2,1.1.4,1.9.8.9-3.1,1.7-5.9,2.7-9.2-1.6-.2-2.7-.4-3.9-.6ZM1514.7,615c4.6.6,9.2,1.2,14,1.8v-10.8h-14c-.6-.2-1.2-.4-2-.7-.3,3.3-.7,6.3-1,9.5,1.3,0,2.1.2,3,.2ZM1356.5,607.6c-2.7,3.2-2.7,15.4,0,18.6h10.2v-19.2c-3.6.2-6.9.4-10.2.6ZM579.5,645c4.2-3.9,5.3-9.6,7.2-15-4-1.3-7.9-2.5-11.7-3.7-3.5,3.9-4.8,10.3-6.6,15.2,3.9,1.2,7.5,2.4,11.1,3.5ZM1397,607.5c-.4.2-1.2.4-1.2.6,0,3.5.3,7.1.5,10.6,5.3.3,10.7.7,16.2,1v-13.2c-5.4.4-10.4.7-15.4,1ZM1283.7,511.5c-.5.3-1.3.6-1.3,1-.6,4.1-1.1,8.3-1.6,12.5,2.2.6,4.4,1.1,6.7,1.7.6-1.3,1-2.2,1.4-3.1,4.1.5,7.9,1,11.9,1.5.3-4.3.5-7.7.8-11.4-6.4-.8-12.2-1.5-17.9-2.2ZM1379,581.9h13.8c-.4-7.7-.7-14.9-1-22.4-4.6,0-8.7,0-12.7,0-2.4,2.9-1.5,7.5-1.5,11.2,0,3.6-.9,8.4,1.5,11.2ZM1317.5,565.5c-3.1,4.3-1.3,11.3-.7,16.4h19.9c.3-2.5.5-4.4.7-6.5,2.1-.2,4.1-.3,6.6-.5-.4-3-.7-5.7-1.1-8.7-8.7-.2-17-.5-25.3-.7ZM956.8,626.3c-.3-2.4-.6-4.8-.9-7.2h-10.6c-.4,1.9-.8,3.4-1.2,4.9-1.2-4.9-1.2-13.4-4.9-17.1-10-1.2-20.1-.9-30.2-1.8-10.7-1-9,7.5-11.2,15.5-2.1,8-11.2,9.8-17.7,13.2-3.2,1.6-7.4,3-9,6.5-1.4,3.2-.9,8.3-1.1,11.8.4.7,1.1,2.2,1.7,3.4,4,2.3,5.8,2.2,10.2.9,5-1.5,10-2.8,15-4.3,5.2-1.5,8.8-2.6,12.6-6.3,2.6-2.5,5.6-3.3,9.2-2.8,6.9,4.2,13.7,8.5,20.6,12.7,6.4,3.9,10.7,7.5,18.3,7.1,15-.8,29.9-.8,44.9-2,2.7-4.5,5.5-9.1,8.2-13.7,2.3-3.9,5.5-7.8,6.9-12.1,1.3-4.2.7-9,.7-13.4,0-5-.3-9.8-.9-14.7-8.3-1.7-19.4-5.4-25.8,1.8-2.8,3.1-5,7.5-9.9,7-4.2-.4-8.8-3.1-12.8-4.6-7.2,2.9-6.7,10.7-12.1,15.2ZM668.8,636.8c-4.2,5.6-10.1,8.5-15.4,12.9-4.8,3.9-5.3,8.4-4.8,14.3,3.7,4.4,8.1,3.7,13.5,4,6.8.4,13.5.5,20.3.6,6.4.1,13.1,1,19.4.4,5.3-.4,8-5,11.3-8.7,4.2-4.6,7.9-9.9,12.2-14.4,3.4-3.5,7.2-3.4,11.6-2.3,6.1,1.5,12.1,3.3,18.2,5,5.2,1.4,11.6,4.6,17,2.7,5.3-5.2,2.8-15.6,3.1-22.4.4-7.3,2.9-18.2-1.1-24.8-7-2.9-15-3-22.5-3.7-7.7-.8-15.4-1.6-23.1-2.4-12.8-1.4-19,12.7-31,13.9-3.9-3.9-7.8-9-12.6-11.7-4.2-2.4-10-2.3-14.7-2.9-12-1.6-24-3.2-36-4.3-5,5.7-6.9,14.3-4.3,19,9.3,2.2,19.1,2.5,28.4,4.8,7.5,1.9,10.6,13,10.4,20.1ZM1184.3,511.3v19.1c8.2-.4,16.1-.7,24.2-1.1v-18h-24.2ZM1171.1,511.9c-6.8-1-13.3-1.7-19.6-.8v14.4h19.6v-13.6ZM1255,521.8v-10c-6.2-.4-12.1-.7-18-1-2,3.8-1.1,7.4-1,11.1h19ZM1190.7,582.7c5.9,0,11.2-.4,16.7-1.8-.5-4.2-.9-7.8-1.3-11.4-5.5.5-10.6.9-16.4,1.4.3,3.9.6,7.6.9,11.8ZM1039.4,620.9c-5.6-.3-10.6-.6-15.8-.9-.4,4.1-.8,8-1.2,12.4,5.3.7,10.5,1.5,15.8,2.2.4-4.8.8-8.8,1.2-13.7ZM1161.8,616.7v9.5c5.1-.2,9.9.8,14.6-1.3-.2-2.9,1-5.8-1.3-8.2h-13.4ZM1388,668.3c0,1.9.1,3,.2,4.1h10.4c-.2-2-.3-3.6-.5-6-3.5.7-6.6,1.3-10,1.9ZM879.1,623c0-2-.2-3.9-.3-6.4-3.7,2.5-1.9,5.3-2.2,8.3,4.3-.9,8.2,2,12.3-.1.2-2.3,1-4.6-1.4-6.7-.3,1.6-.6,3.3-1,5h-7.4ZM864.3,623.7c-.3-2.6-.5-4.6-.8-6.9-1,0-1.9-.2-2.8-.2,0,.1,0,.2,0,.3.7.3,1.5.6,2.4,1,0,1.5-.2,3-.3,4.9-2.7-.5-4.9-1-7-1.4-.2-1.9-.4-3.3-.6-5.2-2.6,1.8-1.7,3.8-1.8,6.4,3.6.3,7.1.7,10.9,1Z" fill="#f8f7f6"/>
        <path d="M1589,461.3v3c-5.4-1.6-10.8-3.2-15.9-4.8-1.9,1.1-3.3,1.9-4.7,2.8-.3,0-.5,0-.8,0-2.7,22.2-1.6,44.4-3.2,66.6-.7,10.4,1,20.1,6.2,29.1,5.7,10,12.2,19.6,18.3,29.4v23.2c-.4-.6-1-1.2-1.2-1.8-1.8-6.2-6.6-8.9-12.4-9.8-12.7-2-25.4-3.8-38.2-5.7-2-9.5-2.1-19.9-3-29.6-.7-8.1-.3-16.4-4.2-23.9-8.1-15.2-24.3-20.6-39.9-24.3-8.4-2-15-4.8-21.6-10.4-6.7-5.8-12.1-12-16.5-19.6-3.8-6.6-7-13.3-12.1-19-5.3-5.9-11.9-8.9-18.2-13.4,15.3-.9,28,5.2,42.4,8.9,14.4,3.7,29.7,3.4,44.5,4.5,3.6-.5,3.6-.5,3.2-3.7h-3.9c-15.4-.8-30.3-1.1-45.2-5.3-14.6-4.2-27.9-8.7-43.3-8.1-2.6-.2-5.3.2-7.8-.5-2.8-.8-5.5-2.8-8.2-4.1-5.2-2.4-10.6-4.5-16.1-6.2-10.7-3.4-22.9-1.4-33.7.6,0,.3.1.7.2,1,9.1-.6,19.3-2.8,28.3-1.1,9.6,1.8,18.2,6,27,10-1.4.9-2,1.2-2.6,1.6-13.7,1.5-27.2,3.6-41,4-7.2.2-14.4.3-21.6.4-4.9,0-11.9-1.1-16.5.8,0,.8-.1,1.7-.3,3,8.4,0,16.5,0,24.6,0,.7.1,1.4.3,2.2.4-.5,4.2-1.2,8.6-1.3,12.8,0,4.6,1.3,9.1.6,13.7-1.4,9.6-10,15.6-16.5,21.9-9-5.9-16.5-15.1-24.3-22.6-8-7.8-15.8-15.6-23.3-23.8,7-.6,14.6-1.2,22.2-1.9,0-.4,0-.8,0-1.2-23.2,0-46.7,3.3-69.9,5.6-22.5,2.2-45.2,5.5-67.8,5.5,3.1-10.4,5.9-21.9.4-32.1,35.4,5.9,70.7,12.8,106.4,16.4,6.1-.6,12.2-1.1,18.4-1.7,0-.4,0-.8,0-1.2-3.7,0-7.4.8-11.1.6-3-.1-5.7-1.3-8.7-1.3-26-2.7-51.7-7.6-77.5-12-10.7-1.8-21.8-4.8-32.7-4.7-11.6,0-23.4,1.9-35,2.8-23.4,1.8-46.8,3.3-70.2,3.7-10.8.2-21,1.3-30.8-4-9.9-5.4-19.6-11.3-29.4-17-19.8-11.4-39.3-23.2-58.8-34.9,2.5,0,5,0,7.5,0,6,5.3,14.3,8.8,21.2,13,7.1,4.2,14.2,8.5,21.3,12.7,14.7,8.8,29.4,17.6,44.1,26.4,30.8-2.7,61.5-5.6,92.3-7.7,15.8-1.1,31.4-4,47.3-2.2,14.5,1.7,28.8,4.1,43.4,5.2,5.5-5.1,1.3-12.7,7.6-17.3,5.9,0,11.4,1.8,17.2,3.2,6,1.5,12.1,2.7,18.2,4,6-11.7,9.1-24.7,12.2-37.4,21.5,0,43,0,64.5,0-.3,2.1-.6,4.1-1,6.3,9.4,8.9,21.3,15.5,32,22.7,11.6,7.8,23.2,15.6,34.8,23.4,3.7,0,6.3.2,8.3-3.1,2.7-4.7,4.8-9.9,7.2-14.8,5.7-11.4,12.1-22.7,16.9-34.5,38.7,0,77.5,0,116.2,0,3.6,13.6,7.1,27.3,10.8,40.9,1.4,5.3,2.1,14.4,5.9,18.6,3.6,4,11.4,5.8,16.3,8v6c-7.9-.9-15.2-4.8-23.1-5.9-7.3-1-14.9-1.3-22.3-2v3.2c15.5,1.6,30.4,4.4,45.4,8.5ZM1320.5,432.8c.8.5,1.7,1.4,2.5,1.4,2.9,0,5.9-.5,8.8-.7.7-.2,1.4-.6,2.1-.6,6.8-.3,13.5-.5,20.3-.7v4.2c7-.7,14.3-1.4,22-2.1-.4-4.1-.8-7.8-1.2-12-6.2.9-12.1,1.7-17.7,2.5-1.1,1.9-1.9,3.5-2.8,5.2-2.1,0-4.1,0-6.1,0-.3-.7-.5-1.5-.8-2.2.2-.7.4-1.3.7-2.4-7.4-2.7-14.6-5.3-21.8-8-2.6,1.2-7,13.1-5.9,15.7ZM1537.2,510c1.8.5,3.5,1,5.3,1.5,1.8,1.3,3.5,2.5,5.4,3.9,3.2-3.8-1.9-4.3-2.3-7.5,5.1.7,8.9-1.4,11.5-5.4h-3.4c-.3-2.5.8-5.2-1.5-7.4-4.4-.3-9-.5-13.5-.8-3.7,4-2.8,10.3-3.2,15.6.7,0,1.2,0,1.7,0ZM1546.2,588c5.9.3,11.7.7,17.7,1.1.4-5.8.7-10.7,1-15.9-6.4-.3-12.2-.6-18-.8-2.5,1.7-3.2,13.9-.7,15.7ZM1543.7,558.5c.3-2.5.6-4.5.9-6.6-1.5-2.9-3.9-2.2-6.2-1.8v9c2-.2,3.6-.4,5.3-.6Z" fill="#f8f7f6"/>
        <path d="M332,572.3c4.3.6,9,4.1,13.3,5.6,5.1,1.7,10.2,3,15.3,4.5,10,2.9,18.8,7.5,27,13.9,8.6,6.7,17.2,13.5,25.8,20.3,8.4,6.7,18.3,11.1,28.5,14.3,21.5,6.8,43.7,11.7,63.9,21.9,9.6,4.9,18.2,9.4,28.8,11.9,10.9,2.6,22.3,3.1,33.4,4.2,22.8,2.4,45.6,3.9,68.3,6.4,22.9,2.5,45.8,2.9,68.8,3.4,23.6.6,47.2,1.3,70.8,1.9,11.8.3,23.6.4,35.4.9,11.1.5,22.2,1.9,33.3,2.8,12.5,1,24.9,3.1,37.5,3.8,13,.7,26,.3,39,.6,13.1.3,26.3.8,39.4,1.9,6.4.6,12.9,1.4,19.3,2.2,5.9.7,12.5.4,18.1,2.2H332c0-41,0-82,0-123Z" fill="#97d2f8"/>
        <path d="M934.3,384c1.3,0,2.5,0,3.7,0,7.1,5.9,16.3,10,24.3,14.7,8.4,5,16.8,10,25.2,14.9,16.5,9.8,32.7,20.2,50.2,28.1,1.1,2.1-2.3,2.1-3.6,2.5-3.9,1.2-7.9,2.4-11.7,3.7-6.5,2.1-12.8,4.4-18.8,7.7-11.4,6.4-23.3,11.9-30.2,23.4-3.4,5.6-9,8.4-14.3,12-5.9,3.9-12.1,3.3-18.9,3.7-15,.8-30.2-2.2-45-4.2-11.6-3.1-24-3.4-35.9-4.8-12.3-1.4-24.5-1.8-36.9-2-11.3-.3-22.5-.5-33.8-.7-10.7-.3-21.7.1-32.3-1-10.1-1.1-20.8-5.6-30.4-8.8-10-3.4-19.6-7.6-29.2-12.1-9.4-4.4-17.9-9.1-26.4-15.1-8.1-5.7-16.5-10.8-23.8-17.5-15.8-14.5-31.3-29.4-46.7-44.4,13,0,26,0,39,0,1,3.4,3.9,4.2,6.8,5.2,39.7,13.2,79.4,26.5,119.1,39.7,2.3.8,4.7,2,7.1,2.3,4.9.5,9.9.6,14.9.8,6.6.3,13.2.5,19.8.8,4.5.2,8.9.5,13.4.8,10.3.7,20.5,1.6,30.8,2.1,4.7.2,9.4-.5,14.1-.6,12.1-.3,24.2-.7,36.3-.7,14.4-.1,28.8-.6,43.1,1.5.4,2.1.8,4.3,1.2,6.5.6,0,1.2.2,1.8.2,1.5,1.4,2.9,2.7,3.8,3.5,3.2-.2,5.3-.3,7.5-.5.5,2.2,1,4.5,1.6,6.7,2.7,3.7,7.7,2.3,11.5,1.7,4.7-.8,9.5-1.7,14.2-2.5,10-1.7,20.1-3.1,30.1-4.6,5.7-7.6-1.3-13.6-7.4-17.5-7.9-5-16-9.8-24-14.8-16.6-10.2-33.2-20.4-49.8-30.6ZM906.5,442.5c-1.8-.2-3.6-.5-5.7-.7-.8,4.3-1.4,7.9-2.1,11.7,3.5.7,6.4,1.2,9.2,1.8,5.4,1.5,10.9,3.2,16.6,3.1,4.9,0,9.9-.3,14.8-.3.7-.7,1.6-1.5,2-1.9.4-2.6.7-4.5,1.1-7-1.5-1.4-3.3-3.1-4.6-4.4-5.9.5-11.8,1.1-17.7,1.6-6.3.5-8.9.3-13.7-3.9Z" fill="#f8f7f6"/>
        <path d="M958.2,445.5c-2.2.1-4.3.3-7.5.5-.8-.8-2.3-2.1-3.8-3.5,3.1-2,.9-4.3.4-6.7h-3.4c-14.3-2.1-28.7-1.6-43.1-1.5-12.1,0-24.2.4-36.3.7-4.7.1-9.4.9-14.1.6-10.3-.5-20.5-1.4-30.8-2.1-4.5-.3-8.9-.6-13.4-.8-6.6-.3-13.2-.5-19.8-.8-5-.2-9.9-.3-14.9-.8-2.4-.3-4.7-1.5-7.1-2.3-39.7-13.2-79.4-26.5-119.1-39.7-2.9-1-5.8-1.8-6.8-5.2,47,0,94,0,141,0,6.3,3.1,12.6,6.6,19.2,8.9,7.2,2.5,7.6-3,8.5-8.9,42.2,0,84.5,0,126.7,0,16.6,10.2,33.2,20.4,49.8,30.6,8,4.9,16.1,9.7,24,14.8,6.1,3.8,13,9.8,7.4,17.5-10,1.5-20.1,2.9-30.1,4.6-4.7.8-9.4,1.7-14.2,2.5-3.8.6-8.8,2.1-11.5-1.7,1.7-.2,3.8.7,4.5-2.1-1-1.4-2.1-2.9-3.2-4.5-.9,0-1.9,0-2.8-.2Z" fill="#ccebb1"/>
        <path d="M366.5,384c48.7,0,97.5,0,146.2,0-.3,7.8-3.1,15.2-5.5,22.6-2.1,6.4-5.8,13.2-6.3,20-.4,5.5,2.2,9.7,6.3,13.1,4.4,3.7,11.1,6.7,10.9,13.4-.2,6.6-7.1,9.6-12.3,12.1-6.5,3.1-13.3,5-20.3,6.6-15.1,3.3-30.3,6.6-45.5,9.7-3.3-.2-6.7-.6-10-.7-13.4-.5-26.8-1-40.3-1.5,1.4-3.1,2.5-6.1,3.6-9.3-7.4-5.1-15.6-8.1-23.7-11.9-7.2-3.4-14.5-8.1-20.7-13.1-5.8-4.6-2.7-12.1-1.9-18.4.6-4.4,1.3-8.8,1.8-13.2.4-3.8.3-7.8,2.8-11,4.9-1.8,12.7-3.1,16.5-6.8,4.2-4,.9-7.7-1.6-11.6Z" fill="#ccebb1"/>
        <path d="M1277,384c-3.1,12.7-6.3,25.7-12.2,37.4-6.1-1.3-12.1-2.5-18.2-4-5.7-1.4-11.3-3.2-17.2-3.2-6.3,4.6-2.1,12.2-7.6,17.3-14.6-1.2-28.9-3.5-43.4-5.2-15.9-1.9-31.4,1.1-47.3,2.2-30.8,2.1-61.6,5-92.3,7.7-14.7-8.8-29.4-17.6-44.1-26.4-7.1-4.2-14.2-8.5-21.3-12.7-6.9-4.1-15.1-7.7-21.2-13,108.2,0,216.5,0,324.7,0Z" fill="#ccebb1"/>
        <path d="M522.5,384c24,0,48,0,72,0,8.7,9.4,18.6,17.9,27.9,26.8,8.7,8.3,17,17.7,26.7,24.9,10.1,7.4,20.5,15,31.2,21.3,9.6,5.7,20.3,9.3,30.4,14.1-33.5-.2-67.1-2.4-100.6-4.2-8-.4-15.7-1.4-23.6-2.3-7.8-.9-15.7,4.3-22.7,7.3-7.5,3.2-14.9,6.4-22.4,9.6-3.7,1.6-7.1,3.3-11.2,3.8-3.7.4-7.5-.1-11.2,0,2.5-8.3,4.6-16.9,7.8-25,3.1-7.9,5.9-15.1,6.2-23.6.7-17.7-6.3-35.5-10.5-52.5Z" fill="#f8f7f6"/>
        <path d="M710.7,471.1c-10.1-4.8-20.8-8.4-30.4-14.1-10.7-6.4-21.1-14-31.2-21.3-9.7-7.1-18-16.6-26.7-24.9-9.3-8.9-19.2-17.3-27.9-26.8,1.8,0,3.5,0,5.2,0,15.4,15,30.9,29.8,46.7,44.4,7.3,6.7,15.7,11.8,23.8,17.5,8.5,6,17,10.8,26.4,15.1,9.6,4.5,19.1,8.7,29.2,12.1,9.6,3.2,20.4,7.7,30.4,8.8,10.6,1.2,21.6.8,32.3,1,11.3.3,22.5.5,33.8.7,12.3.3,24.6.6,36.9,2,11.9,1.4,24.4,1.7,35.9,4.8,0,.5,0,1,0,1.5,0,7.2,0,14.4,0,21.7-1.5,13.4-.7,27.3-.7,40.8,0,13.6-.7,27.2-.7,40.8,31.1,1.6,61.6.7,92.1,1,.9.2,1.9.7,2.8.7,20.3,0,40.7,0,61,0,14.5,0,29,0,43.5,0,.5,0,1.1,0,1.6,0,10-.4,19.6-.6,29.6.3v2.5c-10.3.3-20.3.6-30.4,1-.5,0-1,0-1.5,0-82.9-.1-165.9.6-248.7-4.1-19.8-1.1-39.7-2.1-59.5-3.5-20.4-1.4-40.6-3.9-61-5.4-40-3-79.9-7.8-119.9-11.5-22.4-2.1-44.8-4.8-67.2-6.7-22.3-1.9-44.8-3.1-66.7-7.9v-3c6.4.6,12.5,2.4,18.9,3.1,6.6.8,13.2,1.1,19.9,1.5.5,0,1,0,1.5,0,19.4,2.4,38.9,3.7,58.3,5.7,19.3,2.1,38.6,4.1,57.9,5.8,38.5,3.4,77.2,6.8,115.6,11.6,2.3,0,4.7,0,7,0,2.3,0,4.6,0,6.5-1.5.2.7.3,1.4.5,2,7.3.7,14.3,1.4,21.1,2,.8-1,1.3-1.6,1.9-2.4.6,1.1,1,2,1.2,2.5,19.1,1.3,38.2,2.6,57.3,3.5,9.5.5,19.1.9,28.6,1.3,7.8.4,17,2.7,24.6,1.1.5-34.1,1-68.1,1.4-102.2-13-1.2-26.1-3.2-39.1-4.3-13.9-1.1-28-.8-42-1.1-1.5-.2-3-.5-4.5-.7-17-.3-34-.2-50.9-1.7-9.2,14.4-19.9,28.8-24.1,45.7-2.3,9.2-3.7,18.7-4.9,28.2-.6,4.7-1,9.5-1.9,14.2-.7,4-1.3,6.5-5,8.4,1-9,2.2-17.9,3.7-26.8,1.4-8.3,1.9-17.1,4.4-25.2,5.1-16.5,14.6-30.4,23.5-45-12.4-3.9-24.3-7.6-36.3-11.3-1.3-.7-2.6-1.4-3.9-2.2Z" fill="#c0c7d4"/>
        <path d="M1439.8,384c-4.7,11.8-11.2,23.1-16.9,34.5-2.4,4.8-4.5,10.1-7.2,14.8-2,3.4-4.6,3.2-8.3,3.1-11.6-7.8-23.2-15.6-34.8-23.4-10.7-7.2-22.6-13.9-32-22.7.3-2.2.7-4.2,1-6.3,32.7,0,65.5,0,98.2,0Z" fill="#ccebb1"/>
        <path d="M366.5,384c2.5,3.8,5.7,7.5,1.6,11.6-3.8,3.7-11.6,5-16.5,6.8-2.5,3.2-2.3,7.2-2.8,11-.5,4.4-1.3,8.8-1.8,13.2-.8,6.3-3.9,13.8,1.9,18.4,6.3,5,13.5,9.7,20.7,13.1,8,3.8,16.3,6.8,23.7,11.9-1.1,3.2-2.2,6.3-3.6,9.3-10-.5-20.1-1.1-30.1-1.5-5.9-.2-11.9,0-17.8,0-1-.8-2-1.6-3.4-2.8-.3-3.9.1-10.9-4.1-13-.8-3-1.5-6-2.3-9,0-22.9,0-45.8,0-69,11.5,0,23,0,34.5,0Z" fill="#f8f7f6"/>
        <path d="M1589,587.3c-6.1-9.8-12.6-19.4-18.3-29.4-5.2-9-6.9-18.7-6.2-29.1,1.6-22.2.4-44.4,3.2-66.6.3,0,.5,0,.8,0,1.4-.8,2.8-1.6,4.7-2.8,5.1,1.5,10.5,3.1,15.9,4.8v123Z" fill="#ccebb1"/>
        <path d="M440,481.5c15.2-3.1,30.4-6.3,45.5-9.7,7-1.5,13.8-3.4,20.3-6.6,5.2-2.5,12.1-5.5,12.3-12.1.2-6.7-6.4-9.7-10.9-13.4-4.1-3.4-6.7-7.7-6.3-13.1.5-6.8,4.3-13.6,6.3-20,2.4-7.4,5.2-14.8,5.5-22.6,2.8,0,5.5,0,8.2,0,1.6,3.5,2,7.9,3,11.6,1.1,4.2,2.3,8.4,3.4,12.6,2.2,8.5,3.7,17.2,3.8,26,0,9.1-2.5,16.9-5.6,25.4-3,8.1-4.4,17.6-8.3,25.2-25.7-1.5-51.5-2.6-77.3-3.3Z" fill="#f8f7f6"/>
        <path d="M1589,451.5c-4.8-2.2-12.7-4.1-16.3-8-3.8-4.1-4.5-13.3-5.9-18.6-3.7-13.6-7.3-27.3-10.8-40.9,11,0,22,0,33,0v67.5Z" fill="#ccebb1"/>
        <path d="M1037.7,441.8c-17.5-7.9-33.8-18.3-50.2-28.1-8.4-5-16.8-10-25.2-14.9-8-4.7-17.2-8.8-24.3-14.7,2.2,0,4.5,0,6.7,0,19.5,11.8,39.1,23.5,58.8,34.9,9.8,5.6,19.5,11.6,29.4,17,9.9,5.3,20,4.3,30.8,4,23.4-.5,46.8-2,70.2-3.7,11.6-.9,23.4-2.8,35-2.8,10.9,0,22,2.9,32.7,4.7,25.8,4.4,51.5,9.3,77.5,12,.7.4,1.3.8,2.1,1.3-.2.8-.4,1.6-.6,2.4-35.7-3.6-71-10.5-106.4-16.4-.5,0-1,0-1.6,0-22.2,1.2-44.3,3-66.4,4.5-21.6,1.4-43.2,1.6-64.8,1.6-1.3-.5-2.5-1-3.8-1.5Z" fill="#c1c7d4"/>
        <path d="M1557.5,695.2c1.2-5,2.1-9.7,2.6-14.8.5-5.1,2.7-7.6,6.5-10.7,3.6-3,7.3-5.9,11.1-8.8,4.1-3.1,6.4-3.8,11.3-4.7v39h-31.5Z" fill="#ccebb1"/>
        <path d="M440,481.5c25.8.7,51.5,1.8,77.3,3.3,3.9-7.6,5.3-17.1,8.3-25.2,3.1-8.5,5.7-16.3,5.6-25.4,0-8.8-1.6-17.5-3.8-26-1.1-4.2-2.3-8.4-3.4-12.6-1-3.7-1.4-8.1-3-11.6.5,0,1,0,1.5,0,4.3,16.9,11.2,34.8,10.5,52.5-.3,8.6-3.1,15.8-6.2,23.6-3.2,8.1-5.3,16.7-7.8,25,3.7,0,7.5.5,11.2,0,4.1-.4,7.5-2.2,11.2-3.8,7.5-3.2,14.9-6.4,22.4-9.6,7-3,14.9-8.1,22.7-7.3,7.9.9,15.7,1.8,23.6,2.3,33.5,1.8,67,4,100.6,4.2,1.3.7,2.6,1.4,3.9,2.2-17.3.3-34.8-1.6-52.2-2-16.8-.4-33.5-2.3-50.3-2.9-8.3-.3-16.5-1.5-24.8-2-8.5-.5-15.8,3.7-23.5,7-7.8,3.4-15.6,6.8-23.4,10.2-7.5,3.2-13.6,3.3-21.6,3.3-4.6,17.4-9.1,34.5-13.5,51.1,1.5,8.8,3,17.1,4.4,25.4-.5,0-1,0-1.5,0-1.2-6.6-2.4-13.2-3.6-19.8-1.2-6.9.9-12.6,2.7-19.2,3.3-12.4,7.8-25.1,9.8-37.8-6.2-1.8-14.1-.9-20.5-1.1-7-.3-14-.5-21-.8-13.2-.5-27,0-40-2.3-15.8-.4-31.5-1.2-47.3-.8-5.7-1.1-50.7-5.7-50.3,1.6-.2-1.3-.5-2.5-.7-3.8,1.5-.5,3-1,4.5-1.5,5.9,0,11.9-.2,17.8,0,10,.4,20.1,1,30.1,1.5,13.4.5,26.8,1,40.3,1.5,3.3.1,6.7.5,10,.7Z" fill="#edecea"/>
        <path d="M1537.3,593.2c12.7,1.9,25.5,3.6,38.2,5.7,5.8.9,10.5,3.6,12.4,9.8.2.7.8,1.2,1.2,1.8v8.2c-1.8-3.6-3.3-7.6-5.6-10.9-2.4-3.5-5.6-4-9.4-5-8.6-2.2-17.3-3.8-26-4.9-18.4-2.3-37.4-1.1-56-1.1-38.6,0-77.3,0-115.9,0,0-1.2,0-2.5,0-3.7,19.7,0,39.5,0,59.2,0,.5,0,1.1,0,1.6,0,10.5,0,21,0,31.4,0,23,0,46,0,69,0Z" fill="#c1c8d4"/>
        <path d="M337.3,479.2c.2,1.3.5,2.5.7,3.8,2.4,14.6,4.1,29.6,8,43.9,31.9,7.1,63.9,14.3,95.9,21.4-.2,4.6-4.9,2.6-7.7,1.9-4.6-1.2-9.2-2.2-13.9-3.2-10-2.2-20.1-4.3-30.1-6.5-9.9-2.1-19.9-4.3-29.8-6.4-4.5-1-9.1-2-13.5-3.3-4.9-1.5-9.8-4.5-14.9-5,0-.5,0-1,0-1.5,3.1.8,6.2,1.5,9.7,2.4-3-17.8-6.1-35.7-9.7-53.4,0-6.7,0-13.5,0-20.2.8,3,1.5,6,2.3,9,1,5.7,2,11.5,3,17.2Z" fill="#c1c8d5"/>
        <path d="M1450.3,695.2c1.2-3.2,4-3.6,6.7-3.7,8.6-.4,17.1-.5,25.7-.8,8.3-.4,16.6-.9,24.9-1.5,5.4-.4,9.3,2,12.5,6h-69.7Z" fill="#ccebb1"/>
        <path d="M332,473.3c3.6,17.7,6.8,35.5,9.7,53.4-3.6-.9-6.7-1.6-9.7-2.4,0-17,0-34,0-51Z" fill="#f8f7f6"/>
        <path d="M807.5,384c-.9,5.8-1.3,11.4-8.5,8.9-6.6-2.3-13-5.8-19.2-8.9,9.2,0,18.5,0,27.7,0Z" fill="#f8f7f6"/>
        <path d="M1589,461.3c-15.1-4-29.9-6.8-45.4-8.5v-3.2c7.4.7,15,1,22.3,2,7.9,1.1,15.2,5,23.1,5.9v3.7Z" fill="#c2c9d5"/>
        <path d="M668.8,636.8c.2-7.1-2.9-18.1-10.4-20.1-9.3-2.4-19.1-2.6-28.4-4.8-2.6-4.7-.8-13.2,4.3-19,12.1,1.1,24,2.7,36,4.3,4.7.6,10.5.5,14.7,2.9,4.8,2.8,8.7,7.9,12.6,11.7,12-1.2,18.2-15.3,31-13.9,7.7.8,15.4,1.6,23.1,2.4,7.6.8,15.5.8,22.5,3.7,4.1,6.6,1.5,17.5,1.1,24.8-.3,6.8,2.2,17.2-3.1,22.4-5.5,1.9-11.8-1.3-17-2.7-6.1-1.6-12.1-3.5-18.2-5-4.5-1.1-8.2-1.2-11.6,2.3-4.3,4.5-8,9.7-12.2,14.4-3.3,3.7-6.1,8.3-11.3,8.7-6.3.5-13-.3-19.4-.4-6.8-.1-13.5-.2-20.3-.6-5.5-.3-9.8.4-13.5-4-.5-5.8,0-10.3,4.8-14.3,5.3-4.4,11.2-7.3,15.4-12.9Z" fill="#ccebb1"/>
        <path d="M956.8,626.3c5.4-4.5,4.9-12.3,12.1-15.2,3.9,1.5,8.6,4.2,12.8,4.6,4.9.5,7-3.9,9.9-7,6.4-7.1,17.5-3.5,25.8-1.8.7,5,.9,9.7.9,14.7,0,4.4.6,9.2-.7,13.4-1.4,4.3-4.5,8.2-6.9,12.1-2.8,4.5-5.5,9.1-8.2,13.7-14.9,1.2-29.9,1.3-44.9,2-7.6.4-12-3.2-18.3-7.1-6.9-4.2-13.8-8.5-20.6-12.7-3.6-.5-6.6.3-9.2,2.8-3.9,3.7-7.4,4.8-12.6,6.3-5,1.5-10,2.9-15,4.3-4.4,1.3-6.2,1.4-10.2-.9-.6-1.3-1.3-2.7-1.7-3.4.2-3.5-.4-8.6,1.1-11.8,1.6-3.5,5.8-4.8,9-6.5,6.5-3.4,15.6-5.2,17.7-13.2,2.1-8,.5-16.5,11.2-15.5,10,1,20.1.7,30.2,1.8,3.7,3.7,3.7,12.2,4.9,17.1-.2,2.9,1.9,4.4,4.1,4.3,2.9-.1,5.8-1.3,8.7-2Z" fill="#ccebb1"/>
        <path d="M388.2,481.4c15.8-.4,31.5.4,47.3.8-7.8,5.6-2.2,15-6.2,22.2-2.4,4.4-6.6,8.3-9.9,12-2.8,3.3-5.2,6.7-9.4,8.3-6,2.2-18.7,8.4-23.5,1.7-2.7-3.8-3.9-9.5-5.5-13.9-1.8-4.8-2.9-9-3.5-14.1,3.3-5.6,6.2-12.3,10.7-17.1Z" fill="#ccebb1"/>
        <path d="M1037.7,441.8c1.3.5,2.5,1,3.8,1.5-8.1,3.2-16.7,5.1-24.8,8.2-8.5,3.2-16,7.7-23.8,12.3-7.2,4.3-12.9,7.6-17.5,14.8-4.5,6.9-10.7,10.5-17.5,14.9,4.5,2.4,13,.4,17.9.2,6.6-.2,13.2-.4,19.8-.4,12.7,0,26.5,1.9,39,3.9,13.3,2.2,26.4,4.4,39.9,4.5,12.8.1,26.1.8,38.7-2,3.3-5.6,6.8-11,10-16.7,2.6-4.6,4.9-9.6,10.4-11.2,12.1-3.6,25.8.2,38-2.6,5.2-11.5,5.5-20.8,1.1-32.1.5,0,1,0,1.6,0,5.5,10.1,2.6,21.7-.4,32.1,22.6,0,45.3-3.3,67.8-5.5,23.1-2.2,46.6-5.6,69.9-5.6,0,.4,0,.8,0,1.2-7.6.6-15.2,1.3-22.2,1.9,7.6,8.2,15.3,16,23.3,23.8,7.7,7.5,15.3,16.7,24.3,22.6,0,.7,0,1.5,0,2.2-26.9-4.2-54.4-10.5-81.7-10.6-13.8,0-27.7-1.4-41.5-2-6.8-.3-13.9-1.7-20.7-1-6.1.6-11.9,2.7-18,3.3,1.5,16.9,3,33.6,2.9,50.6,0,8.1.2,15.6,3.7,23,3.2,6.9,8.1,13.1,9.8,20.6-.5.3-1.1.5-1.6.8-2.2-7.5-5.9-14.2-9.2-21.3-3.5-7.6-4.3-14.5-4.2-22.8.2-16.9-1.8-33.7-2.8-50.5-19.8.4-39.2.7-59.5,1.1-2.8,7.4-6.3,14.5-8.2,22.2-1.9,8.1-2.6,16.5-3.8,24.7-2.3,16.3-4.7,32.6-7.4,48.8-.5,0-1.1,0-1.6,0,2.1-16.4,5.3-32.7,7.4-49.2,1-7.9,1.4-15.9,3.3-23.6,2-7.7,5.4-15,8.4-22.3-5.6.5-10.5,1-15.4,1.4-8,0-16,0-24,0-15.1-1.3-30-3.1-45.1-5.2-14.1-2-28.2-3.4-42.4-2.9-15,.5-30,.4-45,1.1-15.1.7-30.3-2.2-45.2-4.2,0-.5,0-1,0-1.5,14.8,2.1,30,5,45,4.2,6.8-.3,13,.3,18.9-3.7,5.3-3.6,10.9-6.4,14.3-12,6.9-11.5,18.8-17,30.2-23.4,6-3.3,12.3-5.6,18.8-7.7,3.9-1.3,7.8-2.5,11.7-3.7,1.3-.4,4.7-.5,3.6-2.5ZM1174.7,498.3c5.8-1.2,11.7-2.9,17.6-3.6,6.7-.8,13.6.5,20.3,1,13.1.9,26.3,1.5,39.4,1.9,6.7.2,13.6,0,20.3,1,6.7,1,13.3,2.2,20,3.2,13.4,2.1,26.8,4.1,40.3,6l.4-.6c-15.6-15-31.2-30-46.8-44.9-9.3-.8-19.6,1.2-28.9,1.9-9.5.7-18.9,1.8-28.4,2.7-18.6,1.8-37.3,2.9-55.9,4.7.5,9,1,17.6,1.5,26.8ZM1115.7,498.7c.2.3.4.6.6.9,10,0,19.9-.4,29.9-.6,8.9-.2,18.1.5,27-.5-.5-9-1-17.8-1.5-26.9-6.5.2-13,.4-19.6.6-5.4.2-11.9-.6-17.2,1-4.7,1.4-7.2,5.1-9.5,9.2-3.1,5.5-6.4,10.9-9.7,16.3Z" fill="#cfd4de"/>
        <path d="M1537.3,593.2c-23,0-46,0-69,0,10.6-1.9,22.3-.7,33-.7,10.5,0,21,0,31.5,0-.8-13.5-1.8-27-3-40.5-1-10.8-8-18.9-16.9-24.6-10.4-6.7-22.5-7.1-33.7-11.5-10.8-4.2-18-12.7-25.9-20.8-.3-.3-.5-.5-.8-.8-4.5-9-8.9-18.4-15.8-25.9-5.7-6.1-16.3-13.8-24.7-14.6,3.3-.2,6.5-.5,9.8-.7,6.3,4.5,12.9,7.5,18.2,13.4,5.1,5.7,8.3,12.4,12.1,19,4.4,7.7,9.8,13.9,16.5,19.6,6.6,5.7,13.2,8.4,21.6,10.4,15.6,3.7,31.8,9.1,39.9,24.3,4,7.4,3.5,15.7,4.2,23.9.9,9.7,1,20,3,29.6Z" fill="#e9e8e6"/>
        <path d="M1421.8,453c-3.3.2-6.5.5-9.8.7-7.4.8-14.8,1.3-22.1,2.4-8.8,1.3-17.7,2.4-26.6,2.1-3.8.2-7.5.5-11.3.7h-24.6c.1-1.4.2-2.3.3-3,4.6-2,11.5-.8,16.5-.8,7.2-.1,14.4-.2,21.6-.4,13.8-.4,27.3-2.5,41-4,3.6-.2,7.2-.5,10.8-.7.7,0,1.4-.4,2-.7,15.4-.5,28.7,4,43.3,8.1,14.9,4.3,29.7,4.5,45.2,5.3.5.7.9,1.3,1.5,2.1-.2.5-.5,1-.7,1.5-14.8-1.1-30.1-.8-44.5-4.5-14.4-3.7-27.2-9.8-42.4-8.9Z" fill="#c1c8d4"/>
        <path d="M1189.9,594.7c.5-.3,1.1-.5,1.6-.8,0,0,0,0,0,0,4.6,1.6,10.1.8,15,.8,4.9,0,10.3.7,15-.7,18.6,0,37.2,0,55.9,0,9,0,17.9,0,26.9,0,7.9,0,19-2,26.1,1.5-.1.4-.2.8-.3,1.1-12.6,1.6-26,.8-38.7.9-13.4.2-26.7.2-40.1.2-26.7,0-53.3.1-80,.7-.7-.4-1.3-.9-2.2-1.4.2-.5.4-1,.7-1.6,5.1-.3,10.3-.5,15.4-.8,1.6,0,3.2,0,4.8,0Z" fill="#c1c8d4"/>
        <path d="M1184.3,511.3h24.2v18c-8.1.4-16.1.7-24.2,1.1v-19.1Z" fill="#e6dfd9"/>
        <path d="M1317.5,565.5c8.3.2,16.6.4,25.3.7.4,3,.7,5.7,1.1,8.7-2.5.2-4.5.3-6.6.5-.2,2-.4,3.9-.7,6.5h-19.9c0-3.1,0-6.1,0-9.2,0-2.4.5-4.8.7-7.2Z" fill="#e6dfd9"/>
        <path d="M1379,559.6h12.7c.3,7.5.7,14.7,1,22.4h-13.8c0-7.5,0-14.9,0-22.4Z" fill="#e7e0da"/>
        <path d="M1171.1,511.9v13.6h-19.6v-14.4c6.3-.9,12.7-.2,19.6.8Z" fill="#e6dfd9"/>
        <path d="M1283.7,511.5c5.8.7,11.5,1.4,17.9,2.2-.3,3.7-.5,7.1-.8,11.4-4-.5-7.8-1-11.9-1.5-.4.9-.8,1.8-1.4,3.1-2.3-.6-4.5-1.2-6.7-1.7.5-.8,1.3-1.5,1.4-2.3.6-3.7,1-7.4,1.5-11.1Z" fill="#e6dfd9"/>
        <path d="M1255,521.8h-19c-.2-3.6-1-7.3,1-11.1,5.9.3,11.8.7,18,1v10Z" fill="#e6dfd9"/>
        <path d="M1352,459c3.8-.2,7.5-.5,11.3-.7-2.3.4-4.6.7-7.2,1.1-3.8,9,.9,20-1.8,29.4-2.4,8.5-9.7,13.8-16,19.4,13.4,3.7,28.4,4.8,41.2,10.3,6.1,2.6,11.3,6.9,17.4,9.6,2.6,1.2,5.3,2.1,8.1,2.9,2.8.8,7.1.7,9.1,2.9-6.4-.4-12.8-1.8-18.6-4.7-5.9-2.9-11.1-6.9-17.3-9.4-13-5.3-27.4-7.1-41.1-10,0-.7,0-1.5,0-2.2,6.5-6.3,15.1-12.3,16.5-21.9.7-4.6-.7-9.1-.6-13.7,0-4.3.8-8.6,1.3-12.8-.8-.2-1.5-.3-2.2-.4Z" fill="#edecea"/>
        <path d="M1438.2,534.8c-6.7-.3-13.3-.6-20-.9.2-5,.5-9.7.7-14.4,6.7.3,13.1.5,19.5.8.5,4.3.9,7.9,1.2,11.6-.5,1-1,2-1.5,3ZM1422.2,529.8c4.7,1.4,9,1.7,13.2.8.8-4,.6-4.5-2.5-7-3.9,0-8-.6-11.8,1.7.4,1.6.7,3,1.1,4.5Z" fill="#e6dfd9"/>
        <path d="M1397,607.5c5-.3,10-.7,15.4-1v13.2c-5.5-.3-10.8-.7-16.2-1,.2-3.7.5-7.5.7-11.2Z" fill="#e7e0db"/>
        <path d="M579.5,645c-3.6-1.1-7.2-2.3-11.1-3.5,1.8-4.9,3.1-11.3,6.6-15.2,3.1,1.5,6.3,3,9.8,4.6-1.1,4.8-2.8,9.6-5.3,14.1Z" fill="#e7e0da"/>
        <path d="M1438.2,534.8c.5-1,1-2,1.5-3,.8-6.8.6-14.5,2.5-21,1.9-6.4,5.9-11.6,10.3-16.5.3.3.5.5.8.8-5.6,7.6-10.5,14.9-10.7,24.7-.2,10.3-3.9,18-7.7,27.3,3.7,6.5,2.2,13.9,2.8,21.5h18.6c-5.6,2.9-12.6.9-18.7,2.2-.2,7.5-.5,15-.7,22.5-.5,0-1.1,0-1.6,0,.3-10.9,1-21.9.7-32.8-.1-4.6-2.1-9.1-2-13.7.1-4,2.8-8.3,4.3-12Z" fill="#d0d4df"/>
        <path d="M1356.5,607.6c3.3-.2,6.5-.4,10.2-.6v19.2h-10.2v-18.6ZM1359.4,613.7c-2.1,1.9-1.2,3.8-.1,5.5h5.2v-5.5h-5.1Z" fill="#e6dfda"/>
        <path d="M1190.7,582.7c-.3-4.2-.6-7.8-.9-11.8,5.8-.5,10.9-.9,16.4-1.4.4,3.6.8,7.2,1.3,11.4-5.5,1.4-10.8,1.7-16.7,1.8ZM1202.5,572.7h-8.4v5.3h8.4v-5.3Z" fill="#e6dfd9"/>
        <path d="M1514.8,606h14v10.8c-4.9-.6-9.4-1.2-14-1.8,0-3,0-6,0-9Z" fill="#e6dfd9"/>
        <path d="M1039.4,620.9c-.4,4.9-.8,8.9-1.2,13.7-5.3-.7-10.5-1.5-15.8-2.2.4-4.5.8-8.3,1.2-12.4,5.2.3,10.2.6,15.8.9ZM1027,623.4c-1.7,2.3-1.9,4.5,0,6.2h8.2v-6.2h-8.1Z" fill="#e6dfda"/>
        <path d="M570.5,609.7c-4.8-1.5-9.6-3.1-14.5-4.7,1.1-3.2,1.9-5.8,2.9-8.8,2.3.8,4.4,1.6,6.2,2.3,1.2,1.6,2.2,2.9,3.2,4.3,1.2-.8,2-1.5,2.9-2.1.8.5,1.5,1,2.6,1.8-1.1,2.5-2.2,4.9-3.2,7.2Z" fill="#e9e3de"/>
        <path d="M1442.7,648h8.7v14c-3.4,0-6.8,1-10.2-.5.5-.9,1.4-1.8,1.5-2.8.2-3.6,0-7.1,0-10.7Z" fill="#e8e1dc"/>
        <path d="M1092.5,600.8c.5,0,1,0,1.5,0-.4,14.1-.7,28.1-1.3,42.2-.3,6.7-.6,13.4-.9,20.1-.2,3.7,1.3,17.3-2.4,19.1.8-27.1,2-54.3,3.1-81.4Z" fill="#edecea"/>
        <path d="M362.8,511.4c-3.8-1.4-7.5-2.8-11.6-4.4,1.4-3.1,2.5-5.7,3.9-8.8,3.5,1.5,6.8,2.9,10,4.3,0,1.3.2,2.6-.1,3.8-.5,1.8-1.4,3.4-2.1,5.1Z" fill="#e0e0e0"/>
        <path d="M956.8,626.3c-2.9.7-5.8,1.9-8.7,2-2.2,0-4.2-1.4-4.1-4.3.4-1.5.7-3.1,1.2-4.9h10.6c.3,2.4.6,4.8.9,7.2Z" fill="#ece9e5"/>
        <path d="M1262,615.7c.3,2.8.7,5.5,1.1,9h-15.4c.4-2.5.9-5,1.4-7.8,4.6,2.2,8.9,1.4,12.9-1.2Z" fill="#e8e2dd"/>
        <path d="M1300.3,644.2c2.5-.3,5-.6,7.9-.9v9c-3.7.3-7.4.6-11,.8v-7.4c1.2-.6,2.1-1.1,3.1-1.5Z" fill="#eae5e2"/>
        <path d="M1161.8,616.7h13.4c2.3,2.4,1.1,5.3,1.3,8.2-4.7,2.2-9.5,1.1-14.6,1.3v-9.5ZM1173.2,617.5h-8.2c-.4,1.9-.7,3.5-1,5.4h9.3v-5.4Z" fill="#e6e0da"/>
        <path d="M539.8,597.7c-4-1.3-8-2.6-12.3-4,1-2.6,1.9-4.7,2.8-7,4.4-.6,4.7,2.7,6.8,5.8,1.4-1.2,2-1.8,2.7-2.3.5.7.9,1.4,1.3,1.9-.4,2-.8,3.8-1.2,5.5Z" fill="#e9e4e0"/>
        <path d="M461,572.2c-3.2-1.4-6.5-2.9-9.9-4.4,1.2-2.3,1-4.9,3.9-5.3,2.7,1.4,5.3,2.8,8,4.1-.7,2-1.4,3.8-2,5.5Z" fill="#e6e0da"/>
        <path d="M788.8,618.7c-2.8.3-5.5.6-9.1,1v-7h9.1v6Z" fill="#efecea"/>
        <path d="M482.1,579.7c-3-1.2-6-2.3-9.7-3.8,1.2-2.1,2.1-3.6,2.9-5.2,2.7,1.2,5.4,2.3,8.3,3.5-.5,1.9-1,3.6-1.4,5.4Z" fill="#e7e0da"/>
        <path d="M531.6,638.2c-1.5-.5-3-.9-5.1-1.6,2.3-3.7,1.9-8.1,5.8-10.3.9.7,1.8,1.5,3.1,2.4-1.2,3.1-2.5,6.3-3.8,9.4Z" fill="#e1e1e1"/>
        <path d="M1388,668.3c3.5-.7,6.5-1.3,10-1.9.2,2.4.4,4.1.5,6h-10.4c0-1.1,0-2.2-.2-4.1Z" fill="#eeebe8"/>
        <path d="M879.1,623h7.4c.3-1.7.7-3.4,1-5,2.4,2.1,1.6,4.4,1.4,6.7-4.1,2.1-8-.8-12.3.1.3-3-1.5-5.8,2.2-8.3.1,2.6.2,4.4.3,6.4Z" fill="#e6dfda"/>
        <path d="M1262,615.7c-4.1,2.6-8.3,3.4-12.9,1.2-.5,2.7-.9,5.2-1.4,7.8v-10c5.1.4,9.7.7,14.3,1.1Z" fill="#d1cecc"/>
        <path d="M1376,593.3c0,1.2,0,2.5,0,3.7-2.3.3-4.5.7-7.2,1.1v-5.7c2.5.3,4.8.6,7.2,1Z" fill="#e0dcdb"/>
        <path d="M1379,559.6c0,7.5,0,14.9,0,22.4-2.4-2.8-1.5-7.6-1.5-11.2,0-3.7-.9-8.3,1.5-11.2Z" fill="#d3ccc7"/>
        <path d="M864.3,623.7c-3.8-.4-7.3-.7-10.9-1,0-2.6-.9-4.6,1.8-6.4.2,1.9.4,3.3.6,5.2,2.1.4,4.3.8,7,1.4.1-2,.2-3.4.3-4.9-.9-.4-1.6-.7-2.4-1,0-.1,0-.2,0-.3.9,0,1.8.1,2.8.2.3,2.3.5,4.3.8,6.9Z" fill="#e5dfda"/>
        <path d="M579.5,645c2.5-4.5,4.2-9.3,5.3-14.1-3.5-1.7-6.6-3.1-9.8-4.6,3.8,1.2,7.7,2.5,11.7,3.7-1.9,5.4-3,11.1-7.2,15Z" fill="#ccc5c0"/>
        <path d="M1442.7,648c0,3.6.1,7.1,0,10.7,0,1-.9,1.9-1.5,2.8,0-4.2,0-8.4.1-12.6,0-.3.9-.6,1.4-.9Z" fill="#d2ccc6"/>
        <path d="M1356.5,607.6v18.6c-2.7-3.2-2.7-15.4,0-18.6Z" fill="#d3ccc7"/>
        <path d="M1221.5,594c-4.7,1.4-10.1.7-15,.7-4.8,0-10.4.8-15-.8,10,0,20,0,30,0Z" fill="#cfd4de"/>
        <path d="M1514.8,606c0,3,0,6,0,9-.8,0-1.7-.1-3-.2.3-3.2.6-6.1,1-9.5.8.3,1.4.5,2,.7Z" fill="#d1cac5"/>
        <path d="M461,572.2c.7-1.8,1.3-3.6,2-5.5-2.6-1.4-5.3-2.8-8-4.1,3.3,1.2,6.7,2.3,10.7,3.7-1.9,2.4-3.3,4.2-4.8,6Z" fill="#cdc6c2"/>
        <path d="M482.1,579.7c.5-1.8.9-3.5,1.4-5.4-2.9-1.2-5.6-2.4-8.3-3.5,3.1-.7,7.3,2,10.2,3.2-.8,2.3-.6,4.8-3.4,5.7Z" fill="#ccc5c0"/>
        <path d="M1317.5,565.5c-.2,2.4-.6,4.8-.7,7.2-.1,3.1,0,6.1,0,9.2-.6-5.1-2.3-12.1.7-16.4Z" fill="#d4cec9"/>
        <path d="M1397,607.5c-.2,3.7-.5,7.5-.7,11.2-.2-3.5-.4-7.1-.5-10.6,0-.2.8-.4,1.2-.6Z" fill="#d5cdc9"/>
        <path d="M1283.7,511.5c-.5,3.7-.9,7.4-1.5,11.1-.1.8-.9,1.5-1.4,2.3.5-4.2,1-8.3,1.6-12.5,0-.4.9-.6,1.3-1Z" fill="#d4cdc9"/>
        <path d="M570.5,609.7c1.1-2.4,2.1-4.8,3.2-7.2-1.1-.7-1.8-1.2-2.6-1.8,1.2.2,2.4.4,3.9.6-1,3.3-1.8,6.1-2.7,9.2-.8-.3-1.4-.6-1.9-.8Z" fill="#ccc5c0"/>
        <path d="M362.8,511.4c.7-1.7,1.6-3.4,2.1-5.1.3-1.2.1-2.5.1-3.8.9.3,1.8.6,3.6,1.2-2.1,2.8-4,5.3-5.8,7.7Z" fill="#c7c7c7"/>
        <path d="M531.6,638.2c1.3-3.2,2.6-6.4,3.8-9.4-1.2-1-2.1-1.7-3.1-2.4,1.4.5,2.9,1,4.6,1.5-1.2,2.9-2.5,9.1-5.3,10.4Z" fill="#c6c6c6"/>
        <path d="M1169.8,595.5c-.2.5-.4,1.1-.7,1.6.8.5,1.5,1,2.2,1.4-1.8.3-3.6.6-5.8.9.2-1.6.4-2.7.6-3.9h3.6Z" fill="#dddcdd"/>
        <path d="M788.8,618.7v-6h-9.1c3.1-.3,6.2-.7,10.1-1.1-.4,2.9-.7,5-1,7.1Z" fill="#d1cbc6"/>
        <path d="M539.8,597.7c.4-1.8.7-3.6,1.2-5.5-.3-.5-.8-1.2-1.3-1.9,1,.3,2,.5,3.9,1-1.5,2.6-2.6,4.5-3.8,6.4Z" fill="#cbc5c0"/>
        <path d="M1300.3,644.2c-.9.5-1.9.9-3.1,1.5,0,2.4,0,4.9,0,7.4-.5-2.8-1-5.6-1.7-9h4.7Z" fill="#d3ccc7"/>
        <path d="M1547,572.3c5.8.3,11.6.5,18,.8-.3,5.1-.6,10.1-1,15.9-6-.4-11.9-.7-17.7-1.1.2-5.2.5-10.4.7-15.7Z" fill="#e6dfd9"/>
        <path d="M1348.3,429.7c2,0,4,0,6.1,0,.9-1.6,1.8-3.2,2.8-5.2,5.6-.8,11.6-1.6,17.7-2.5.4,4.3.8,7.9,1.2,12-7.7.7-14.9,1.4-22,2.1v-4.2l3.9-.2c0-.3,0-.6,0-1-3.5-.1-7.1-.3-10.6-.4.3-.2.5-.5.8-.7Z" fill="#e0e0e0"/>
        <path d="M1326.4,417.1c7.2,2.6,14.4,5.3,21.8,8-.3,1.1-.5,1.8-.7,2.4-4.9.3-9.5.2-14.3.2-3.9,0-8.1,2.4-11.9,3.5,1.7-4.7,3.4-9.5,5.1-14.2Z" fill="#e1e1e1"/>
        <path d="M1538.7,494.3c4.5.3,9,.5,13.5.8,2.4,2.2,1.3,5,1.5,7.4-4.1-1.2-8.2-3-12.6-.7v4.1c1.1,1.3,2.2,2.5,3.5,3.9-.8.7-1.5,1.2-2.1,1.8-1.8-.5-3.5-1-5.3-1.5.1-1,.3-1.9.4-2.9.4-4.2.8-8.5,1.1-12.7Z" fill="#f3dae2"/>
        <path d="M1542.5,511.5c.6-.5,1.3-1.1,2.1-1.8-1.2-1.4-2.4-2.7-3.5-3.9v-4.1c4.4-2.3,8.5-.5,12.6.7h3.4c-2.6,4.1-6.5,6.2-11.5,5.4.3,3.1,5.4,3.7,2.3,7.5-1.9-1.4-3.7-2.6-5.4-3.9Z" fill="#f4eaea"/>
        <path d="M1419.5,449.3c-.7.2-1.3.6-2,.7-3.6.3-7.2.5-10.8.7.6-.4,1.2-.8,2.6-1.6-8.8-4-17.4-8.2-27-10-9-1.7-19.3.4-28.3,1.1,0-.3-.1-.7-.2-1,10.8-2,23-4,33.7-.6,5.5,1.7,10.9,3.8,16.1,6.2,2.6,1.2,5.4,3.2,8.2,4.1,2.5.7,5.2.3,7.8.5Z" fill="#d1d5df"/>
        <path d="M1321.3,431.3c3.8-1.1,8-3.5,11.9-3.5,4.8,0,9.4,0,14.3-.2.3.7.5,1.5.8,2.2-.3.2-.5.5-.8.7-4.4.3-8.8.4-13.2.9-.9,0-1.6,1.4-2.4,2.1-2.9.3-5.9.7-8.8.7-.8,0-1.7-.9-2.5-1.4.3-.5.5-1,.8-1.5Z" fill="#ecebea"/>
        <path d="M1543.7,558.5c-1.7.2-3.3.4-5.3.6v-9c2.3-.4,4.7-1.1,6.2,1.8-.3,2.1-.6,4.2-.9,6.6Z" fill="#dedede"/>
        <path d="M1331.8,433.4c.8-.7,1.6-2,2.4-2.1,4.4-.5,8.8-.6,13.2-.9,3.5.1,7.1.3,10.6.4,0,.3,0,.6,0,1l-3.9.2c-6.8.2-13.5.5-20.3.7-.7,0-1.4.4-2.1.6Z" fill="#d0d3dc"/>
        <path d="M1280.7,453.7c.2-.8.4-1.6.6-2.4-.7-.5-1.4-.9-2.1-1.3,3,0,5.7,1.2,8.7,1.3,3.7.1,7.4-.6,11.1-.6,0,.4,0,.8,0,1.2-6.1.6-12.2,1.1-18.4,1.7Z" fill="#cdd2dc"/>
        <path d="M1538.7,494.3c-.4,4.2-.7,8.5-1.1,12.7,0,1-.3,2-.4,2.9-.5,0-1,0-1.7,0,.4-5.3-.4-11.6,3.2-15.6Z" fill="#ddc6ce"/>
        <path d="M1547,572.3c-.2,5.2-.5,10.4-.7,15.7-2.5-1.7-1.8-13.9.7-15.7Z" fill="#d2cbc6"/>
        <path d="M1321.3,431.3c-.3.5-.5,1-.8,1.5-1.1-2.6,3.4-14.5,5.9-15.7-1.7,4.7-3.4,9.5-5.1,14.2Z" fill="#c7c7c7"/>
        <path d="M1508.7,466.5c.2-.5.5-1,.7-1.5-.6-.8-1-1.5-1.5-2.1h3.9c.5,3.1.5,3.1-3.2,3.7Z" fill="#dfe1e7"/>
        <path d="M906.5,442.5c4.8,4.2,7.4,4.4,13.7,3.9,5.9-.5,11.8-1.1,17.7-1.6,1.3,1.2,3.1,2.9,4.6,4.4-.4,2.5-.7,4.4-1.1,7-.4.4-1.3,1.2-2,1.9-5,0-9.9.2-14.8.3-5.7,0-11.2-1.6-16.6-3.1-2.3-4-1.9-8.4-1.5-12.7Z" fill="#ebeaee"/>
        <path d="M906.5,442.5c-.4,4.4-.8,8.7,1.5,12.7-2.9-.5-5.8-1.1-9.2-1.8.7-3.8,1.3-7.4,2.1-11.7,2,.3,3.8.5,5.7.7Z" fill="#e1e0ea"/>
        <path d="M958.2,445.5c1,0,1.9.1,2.8.2,1.2,1.6,2.2,3.1,3.2,4.5-.7,2.8-2.8,1.9-4.5,2.1-.5-2.2-1-4.5-1.6-6.7Z" fill="#dbefc6"/>
        <path d="M944,435.8h3.4c.6,2.5,2.7,4.7-.4,6.7-.6,0-1.2-.2-1.8-.2-.4-2.2-.8-4.3-1.2-6.5Z" fill="#e4f2d7"/>
        <path d="M509.7,563.3c-1.4-8.3-2.9-16.6-4.4-25.4,4.4-16.6,8.9-33.7,13.5-51.1,8,0,14.1,0,21.6-3.3,7.8-3.4,15.6-6.8,23.4-10.2,7.6-3.3,14.9-7.5,23.5-7,8.3.5,16.5,1.8,24.8,2,16.8.6,33.5,2.5,50.3,2.9,17.3.4,34.9,2.3,52.2,2,11.9,3.7,23.9,7.5,36.3,11.3-8.9,14.6-18.4,28.5-23.5,45-2.5,8.1-3,16.9-4.4,25.2-1.5,8.9-2.7,17.8-3.7,26.8,3.7-1.9,4.2-4.4,5-8.4.9-4.7,1.3-9.5,1.9-14.2,1.2-9.4,2.6-18.9,4.9-28.2,4.2-16.9,14.9-31.3,24.1-45.7,16.9,1.5,33.9,1.4,50.9,1.7.6.4,1.2.8,1.7,1.1-9.1,10-18.2,20-27.2,30-1.3,21.1-2.6,42-3.9,62.8.5,0,1,0,1.5,0,1.3-20.7,2.7-41.3,4-62.3,9.4-10.4,18.8-20.8,28.5-31,14,.3,28,0,42,1.1,13,1,26.1,3,39.1,4.3-.5,34.1-1,68.1-1.4,102.2-7.6,1.6-16.8-.7-24.6-1.1-9.5-.4-19.1-.8-28.6-1.3-19.1-.9-38.2-2.2-57.3-3.5-.3-.5-.7-1.4-1.2-2.5-.6.7-1,1.3-1.9,2.4-6.7-.6-13.8-1.3-21.1-2-.1-.6-.3-1.3-.5-2,.2-1.4.5-2.8.7-4.1,1.5-.5,2.7-.8,3.8-1.2,5.1.3,10.3.5,15.5.8.9-9.3,1.8-18.6,2.2-27.9.3-7.8,1.4-19.1-4.9-25.3-6.1-5.9-19.1-2.2-26.3-.6-3.3.7-7.9.8-10.3,3.6-2.5,2.9-2.2,8.4-2.7,11.9,3.3,3.6,6.5,7,9.5,10.2-1.2,5.3-4.9,6.5-7.5,10.6-2.4,3.9-2.2,9.3.3,13.1,2.5.2,5.4.3,8.4.5-2,.4-4.1.8-6.2,1.2,2.5,3.2,3.8,4.5,4,8.5-38.4-4.8-77.1-8.2-115.6-11.6-19.3-1.7-38.6-3.8-57.9-5.8-19.4-2.1-38.9-3.3-58.3-5.7ZM586.2,552v-3.4c-1.1-.4-2-.7-3-1-3.8-.6-7.7-1.2-11.7-1.8-.6,4.1-1.1,7.5-1.7,11.5,4.8.6,9.5,1.1,14.1,1.6.6-1.7,1.1-2.8,1.5-3.9.2-1,.4-2,.6-3ZM864.5,567c-.3,0-.5,0-.8,0,4.3-3.5,14.3-4,16.7-9.3,1.2-2.6.6-9.3-.9-11.7-2.1-3.3-7.5-4.5-10.9-6.1-1-5.2-8.9-7.3-13.1-9.5-2-4.2-3.5-8.8-9.1-10-5.5,2.4-10.6,5.7-14.2,11,.5,1,1,1.9,1.4,2.8-2.3,4.3-4.2,10.6-9.6,11.7-3.3.7-11.2.4-12-3.8,4.6.5,9.2.9,14,1.4.7-4,1.2-7.6,1.8-11-1.3-1.5-2.4-2.7-3.4-3.8h-8.2c-1.2,1-2.3,2-3.2,2.8-.3,3.5-.7,6.7-1,9.9-1.7-2.3-1.2-6.9-2.4-9.8-1.6-3.8-4.2-6.6-7.1-9.4-5.5-5.2-12.4-7.2-17.7-.1-.5,12.8-.8,25.6-1.5,38.5-.2,4.6-2.2,12.1,1.8,15.7,3.6,3.3,11.3,2.4,15.8,2.7,13.3,1,26.6,1.3,39.9,2.1,4.9.3,14.4,2.7,18.2-1.3,3.3-3.4.6-10.5,4.8-13v6.5c4.8,1.7,8.8,5.5,14.3,4.7.5-3.1,1.1-6.1,1.6-9.5-5.3-.6-10.2-1.2-15.1-1.7ZM546.6,565.4c2.7-1.1,5.4-9.4,3-11.2-6.3-1.8-12.5-3.9-19.1-4.4-.8,4-1.5,7.3-2.2,11,6.4,1.6,12.3,3.1,18.3,4.6ZM616.2,565.5c2,6.1,4.8,6.5,10.9,7.1,7.3.7,14.6,1.4,21.9,2,7.3.6,14.6,1,21.9,1.4,6.8.4,13.6,2.3,20.3.3,4-6.1-2-12.9-4.9-18.2,5.6-5.5,11.8-9,18-13.7,6.1-4.7,3-14.3-.7-19.7-6.1.7-15.3,3.8-21.1.9-2.1-5.6-3.7-11.2-5.5-16.8-1.2-3.8-3-6.8-7.3-7.2-4.5-.4-10.5.9-14.8,2-4.9,1.4-8.2,5.1-11.9,8.4-4.5,4.1-9.9,7.8-13.9,12.4-3.7,4.3-1.5,8.3.8,12.7,3.3,6.6,1.5,9.5-2.9,14.9-3.7,4.4-7.2,8.9-10.8,13.4ZM696.6,566.7c3.9.5,7.7.8,11.6,1v-5.1c-2,.7-3.7,1.3-5.6,1.9-1.3-1.2-2.5-2.3-3.7-3.6-3.7.6-2.1,3.4-2.3,5.7Z" fill="#f8f7f6"/>
        <path d="M986,596.3c-30.5-.2-61.1.6-92.1-1,0-13.6.7-27.2.7-40.8,0-13.5-.8-27.3.7-40.8,1-.4,2-.8,3.5-1.4-1-1.7-1.7-3-2.5-4.3,3.2-3.2,1.8-7.3,1.5-11.6,17.5,1.9,34.8,3.9,52.4,3.7,17.7-.3,35.6-2.1,53.3-1.1,17.7,1,35.1,5.2,52.7,7,17,1.7,33.5,1.4,50.6.6-9.5,16.8-8.6,35.3-11.7,53-.3-4.5,1.9-13-3.5-14.9-3.4-1.2-8.9-.4-12.5-.5-4.1-.1-8.1-.3-12.2-.4-9-.2-18-.5-27-.6-2.6,0-7.3-1.1-9.5.6-2.3,1.8-1.5,6.3-1.6,8.8-.2,8.5-.5,16.9-.6,25.4,0,2.9-.4,5.4,2.5,6.8,2.7,1.2,7.1.5,10.1.6,16.8.7,33.8,0,50.5,1.7-.7,2.6-1.4,4.8-1.9,6.7-5.8,0-11.5.8-17.3.7-5.7,0-11.3-1.4-17-.8-5.6.5-11.3,1.7-17,1.2-3.9-.4-8.4-3.7-9.9,1.4-14,0-28,0-42,0ZM982.5,527.3c-4.3,0-8.6,0-12.9.2-2.7.2-7.1-.2-8.9,2.3-1.7,2.3-.9,7.5-.9,10.3,0,3.7,0,7.5,0,11.2,6.6,4.4,13.4,9,20.1,13.5,12.5,0,25.2.7,37.7-.8,2.1-5.3,4.1-10.7,6.2-16.1,1-2.6,1.6-4.4.4-7.1-2-4.5-6-7.8-7.9-12.5-2.3-5.3-2.5-11.2-4.2-16.7-2.6-8.7-14.8-7.2-22.1-5.6-8,1.8-6.8,14.8-7.5,21.1ZM1002.6,580.1c5.4,2,10.7.9,16.1,1v-9.9c-5.4-.8-10.6-1.2-16.1-1.2v10.1ZM966,571.8c-.3,2.7-.6,5.2-.9,7.8,3.9.4,7.3.7,11,1.1.4-3.2.8-5.8,1.1-8.8h-11.2ZM952.8,566.1v-10.1h-6.6c-.3,3.4-.5,6.7-.8,10.1h7.4Z" fill="#f8f7f6"/>
        <path d="M1028,596.2c1.5-5.1,6.1-1.8,9.9-1.4,5.7.5,11.4-.7,17-1.2,5.7-.5,11.3.8,17,.8,5.7,0,11.5-.7,17.3-.7.5-1.9,1.2-4.1,1.9-6.7-16.7-1.6-33.7-1-50.5-1.7-3-.1-7.4.6-10.1-.6-2.9-1.3-2.5-3.8-2.5-6.8,0-8.5.3-16.9.6-25.4,0-2.5-.7-7,1.6-8.8,2.1-1.7,6.9-.6,9.5-.6,9,.2,18,.4,27,.6,4.1.1,8.1.3,12.2.4,3.6.1,9.1-.7,12.5.5,5.4,1.9,3.2,10.4,3.5,14.9,3.1-17.7,2.2-36.2,11.7-53-17.1.8-33.6,1.2-50.6-.6-17.6-1.8-35-6.1-52.7-7-17.7-1-35.6.9-53.3,1.1-17.6.3-35-1.8-52.4-3.7.3,4.3,1.8,8.3-1.5,11.6.8,1.4,1.5,2.7,2.5,4.3-1.5.6-2.5,1-3.5,1.4,0-7.2,0-14.4,0-21.7,14.9,2,30.1,4.8,45.2,4.2,15-.7,30-.5,45-1.1,14.2-.5,28.3,1,42.4,2.9,15,2.1,29.9,3.9,45.1,5.2,2.6,1.8,8.8.6,12,.6,3.2,0,9.4,1.2,12-.6,4.9-.5,9.8-.9,15.4-1.4-3,7.3-6.4,14.6-8.4,22.3-2,7.7-2.3,15.8-3.3,23.6-2.2,16.4-5.3,32.7-7.4,49.2-14.5,0-29,0-43.5,0-1.2-.2-2.3-.7-3.5-.7-6.1,0-12.2,0-18.2,0ZM1091.8,584.6c-.6-13.1,1.7-25.3.4-37.6-20.5-.5-40.7-1-60.9-1.4-.4,12.6-.7,24.7-1,36.9,9.9,1.8,20.9.8,31,1,10.3.2,20.4.4,30.6,1.2Z" fill="#f8f7f6"/>
        <path d="M810.5,487.5c-9.7,10.1-19.1,20.6-28.5,31-1.4,20.9-2.7,41.6-4,62.3-.5,0-1,0-1.5,0,1.3-20.8,2.6-41.7,3.9-62.8,9-10,18.1-20,27.2-30-.5-.3-1.1-.7-1.7-1.1,1.5.2,3,.5,4.5.7Z" fill="#d1d5df"/>
        <path d="M741.5,586.5c-.3-4-1.6-5.3-4-8.5,2.2-.4,4.2-.8,6.2-1.2,3.2.9,6.2,1.8,9.7.9,2.1-.6,4.8-.7,6.1,2.1-1.1.4-2.3.7-3.8,1.2-.2,1.3-.4,2.7-.7,4.1-1.9,1.5-4.2,1.6-6.5,1.5-2.3,0-4.7,0-7,0Z" fill="#cee3bf"/>
        <path d="M1028,596.2c6.1,0,12.2,0,18.2,0,1.2,0,2.3.4,3.5.7-20.3,0-40.7,0-61,0-.9,0-1.9-.4-2.8-.7,14,0,28,0,42,0Z" fill="#f4f2f0"/>
        <path d="M337.3,479.2c-1-5.7-2-11.5-3-17.2,4.2,2.1,3.8,9.1,4.1,13,1.4,1.1,2.4,1.9,3.4,2.8-1.5.5-3,1-4.5,1.5Z" fill="#f8f7f6"/>
        <path d="M1172.8,437.2c4.4,11.3,4.1,20.6-1.1,32.1-12.3,2.8-26-1-38,2.6-5.4,1.6-7.8,6.6-10.4,11.2-3.2,5.6-6.7,11.1-10,16.7-12.6,2.9-25.8,2.2-38.7,2-13.5-.1-26.6-2.3-39.9-4.5-12.5-2.1-26.3-4-39-3.9-6.6,0-13.2.2-19.8.4-4.9.2-13.5,2.2-17.9-.2,6.8-4.4,13-8,17.5-14.9,4.6-7.2,10.4-10.5,17.5-14.8,7.7-4.7,15.2-9.2,23.8-12.3,8.2-3.1,16.7-5,24.8-8.2,21.6,0,43.2-.2,64.8-1.6,22.1-1.4,44.3-3.3,66.4-4.5Z" fill="#f8f7f6"/>
        <path d="M1436.8,593.2c.2-7.5.5-15,.7-22.5h18.5c-1.5,2.1-3.3,3.1-4.9,2.1-3.5-2.3-6.6-1-9.9.2-3,2.7-2.2,9.5-2.5,13.5h4.7c3.8-3.2,6.7-4.4,11.5-5.5,5-1.2,5.1-3.3,5.1-8.1-1.4-1.6-2.6-2.9-3.8-4.3-6.1,0-12.2,0-18.6,0-.5-7.5.9-14.9-2.8-21.5,3.8-9.4,7.5-17.1,7.7-27.3.2-9.8,5-17.1,10.7-24.7,7.9,8.1,15.1,16.6,25.9,20.8,11.2,4.4,23.3,4.9,33.7,11.5,8.9,5.7,15.9,13.8,16.9,24.6,1.2,13.5,2.3,27,3,40.5-10.5,0-21,0-31.5,0-10.8,0-22.4-1.2-33,.7-10.5,0-21,0-31.4,0ZM1522,573.5v-9c-2.2.5-4,.9-5.4,1.3v8.3c2-.2,3.5-.4,5.4-.6ZM1509.8,589.9c0-.4,0-.8,0-1.1-2.2.1-4.4-.7-6.6,1.1h6.6Z" fill="#f8f7f6"/>
        <path d="M1174.7,498.3c-.5-9.2-1-17.8-1.5-26.8,18.6-1.9,37.3-2.9,55.9-4.7,9.5-.9,18.9-2,28.4-2.7,9.3-.7,19.6-2.6,28.9-1.9,15.6,15,31.2,29.9,46.8,44.9l-.4.6c-13.5-1.8-26.9-3.9-40.3-6-6.7-1-13.3-2.3-20-3.2-6.7-1-13.6-.7-20.3-1-13.1-.4-26.3-1-39.4-1.9-6.7-.5-13.6-1.8-20.3-1-5.9.7-11.8,2.4-17.6,3.6Z" fill="#f8f7f6"/>
        <path d="M1115.7,498.7c3.3-5.4,6.6-10.8,9.7-16.3,2.3-4.1,4.7-7.7,9.5-9.2,5.2-1.6,11.7-.8,17.2-1,6.5-.2,13-.4,19.6-.6.5,9.1,1,17.8,1.5,26.9-8.8,1-18.1.3-27,.5-10,.2-19.9.6-29.9.6-.2-.3-.4-.6-.6-.9ZM1134.5,480c-.5.3-1.3.7-1.3.9.4,5.2.9,10.3,1.3,15.5,11.1-.2,22.3-.5,33.6-.7-.5-2.2-.4-4-2.8-3.7,1.5-1.7,3.1-3.5,4.8-5.4-1.1-.9-1.8-1.5-2.6-2.1,0-1.7-.2-3.3-.3-5.6-11.2.4-22,.8-32.8,1.1Z" fill="#f8f7f6"/>
        <path d="M1097,503.3c-2.6,1.8-8.8.6-12,.6-3.2,0-9.4,1.2-12-.6,8,0,16,0,24,0Z" fill="#f4f2f0"/>
        <path d="M1422.2,529.8c-.4-1.6-.7-3-1.1-4.5,3.8-2.3,7.9-1.7,11.8-1.7,3.1,2.5,3.3,3.1,2.5,7-4.3.9-8.6.6-13.2-.8Z" fill="#eeebea"/>
        <path d="M1441.2,573c3.3-1.2,6.4-2.5,9.9-.2,1.5,1,3.3,0,4.9-2.1-6.4,0-12.4,0-18.5,0,6.1-1.3,13.1.7,18.7-2.2,1.2,1.4,2.4,2.8,3.8,4.3,0,4.8-.1,6.9-5.1,8.1-4.8,1.1-7.7,2.3-11.5,5.5-3-4.1-2.1-8.9-2.2-13.5Z" fill="#f0efee"/>
        <path d="M1359.4,613.7h5.1v5.5h-5.2c-1-1.7-1.9-3.6.1-5.5Z" fill="#f2efed"/>
        <path d="M1202.5,572.7v5.3h-8.4v-5.3h8.4Z" fill="#edebe9"/>
        <path d="M1027,623.4h8.1v6.2h-8.2c-1.8-1.7-1.6-3.9,0-6.2Z" fill="#edebea"/>
        <path d="M1173.2,617.5v5.4h-9.3c.4-1.9.7-3.5,1-5.4h8.2Z" fill="#efecea"/>
        <path d="M616.2,565.5c3.6-4.5,7.2-9,10.8-13.4,4.4-5.4,6.2-8.3,2.9-14.9-2.2-4.4-4.5-8.4-.8-12.7,3.9-4.6,9.4-8.3,13.9-12.4,3.7-3.3,6.9-7.1,11.9-8.4,4.3-1.2,10.3-2.4,14.8-2,4.4.4,6.1,3.4,7.3,7.2,1.8,5.7,3.4,11.3,5.5,16.8,5.8,2.9,15-.2,21.1-.9,3.6,5.3,6.8,15,.7,19.7-6.2,4.7-12.4,8.2-18,13.7,2.9,5.3,8.9,12.1,4.9,18.2-6.7,2-13.5,0-20.3-.3-7.3-.4-14.6-.9-21.9-1.4-7.3-.6-14.6-1.3-21.9-2-6.1-.6-8.8-1-10.9-7.1Z" fill="#ccebb1"/>
        <path d="M812,542.3c.8,4.2,8.8,4.5,12,3.8,5.4-1.2,7.4-7.4,9.6-11.7-.5-.9-.9-1.8-1.4-2.8,3.6-5.3,8.7-8.6,14.2-11,5.6,1.2,7.1,5.8,9.1,10,4.2,2.2,12.1,4.3,13.1,9.5,3.3,1.5,8.7,2.8,10.9,6.1,1.6,2.4,2.2,9.1.9,11.7-2.5,5.3-12.5,5.8-16.7,9.3h0c-4.1,2.5-1.4,9.5-4.8,13-3.9,4-13.3,1.6-18.2,1.3-13.3-.8-26.6-1.1-39.9-2.1-4.5-.3-12.2.6-15.8-2.7-3.9-3.6-2-11.1-1.8-15.7.7-12.8,1-25.6,1.5-38.5,5.3-7.1,12.2-5.1,17.7.1,2.9,2.8,5.5,5.6,7.1,9.4,1.2,2.9.7,7.5,2.4,9.8,0,.3,0,.5,0,.8Z" fill="#ccebb1"/>
        <path d="M759.5,579.7c-1.3-2.8-4-2.7-6.1-2.1-3.5,1-6.5,0-9.7-.9-2.9-.2-5.9-.4-8.4-.5-2.5-3.8-2.8-9.2-.3-13.1,2.6-4.1,6.3-5.3,7.5-10.6-3-3.2-6.1-6.6-9.5-10.2.5-3.6.2-9.1,2.7-11.9,2.4-2.7,7.1-2.8,10.3-3.6,7.2-1.6,20.2-5.3,26.3.6,6.4,6.2,5.2,17.4,4.9,25.3-.4,9.4-1.3,18.6-2.2,27.9-5.2-.3-10.4-.6-15.5-.8Z" fill="#ccebb1"/>
        <path d="M546.6,565.4c-6-1.5-11.9-3-18.3-4.6.8-3.8,1.4-7,2.2-11,6.6.5,12.8,2.6,19.1,4.4-1,3.7-2,7.4-3,11.2Z" fill="#e7e0db"/>
        <path d="M812,542.3c0-.3,0-.5,0-.8.3-3.2.6-6.4,1-9.9.9-.8,2-1.7,3.2-2.8h8.2c1.1,1.2,2.1,2.4,3.4,3.8-.6,3.4-1.2,7-1.8,11-4.8-.5-9.4-.9-14-1.4Z" fill="#e6dfd9"/>
        <path d="M878,578.3c-5.4.7-9.4-3-14.3-4.7v-6.5h0c.3,0,.5,0,.8,0v5.1c2.6-1.8,5.4-3.9,8.7-2.5,3.4,1.4,3.8,5.6,4.7,8.7Z" fill="#eeecea"/>
        <path d="M585.6,555c-.4,1.1-.9,2.3-1.5,3.9-4.6-.5-9.3-1.1-14.1-1.6.6-4,1.1-7.4,1.7-11.5,4,.6,7.8,1.2,11.7,1.8,0,.4.1.9.1,1.1-2.4.4-4.7.8-6.9,1.1-.9-.2-1.9-.4-3-.6-.6,1.2-1.1,2.3-1.6,3.4.7,1.1,1.2,2.1,2,3.5,3.9-.3,7.8-.7,11.7-1Z" fill="#e7e0db"/>
        <path d="M585.6,555c-3.9.3-7.8.7-11.7,1-.8-1.4-1.4-2.3-2-3.5.5-1.1,1.1-2.2,1.6-3.4,1.1.2,2.1.4,3,.6,2.1.3,4.1.4,6.2.8,1.2.3,2.4.9,3.5,1.4-.2,1-.4,2-.6,3Z" fill="#f0edea"/>
        <path d="M696.6,566.7c.2-2.4-1.4-5.1,2.3-5.7,1.3,1.2,2.5,2.3,3.7,3.6,1.8-.6,3.5-1.2,5.6-1.9v5.1c-3.9-.2-7.7-.6-11.6-1Z" fill="#ededec"/>
        <path d="M878,578.3c-1-3.1-1.4-7.3-4.7-8.7-3.4-1.4-6.1.7-8.7,2.5v-5.1c4.9.6,9.8,1.1,15.1,1.7-.6,3.4-1.1,6.5-1.6,9.5Z" fill="#e4ddd8"/>
        <path d="M586.2,552c-1.2-.5-2.3-1.1-3.5-1.4-2-.4-4.1-.6-6.2-.8,2.2-.4,4.5-.7,6.9-1.1,0-.2,0-.6-.1-1.1.9.3,1.8.6,3,1v3.4Z" fill="#cfcecc"/>
        <path d="M546.6,565.4c1-3.7,2-7.4,3-11.2,2.5,1.7-.3,10.1-3,11.2Z" fill="#ccc5c0"/>
        <path d="M982.5,527.3c.7-6.3-.5-19.3,7.5-21.1,7.2-1.6,19.5-3.2,22.1,5.6,1.6,5.5,1.9,11.3,4.2,16.7,2,4.6,5.9,8,7.9,12.5,1.2,2.7.6,4.4-.4,7.1-2.1,5.4-4.1,10.7-6.2,16.1-12.4,1.6-25.1.8-37.7.8-6.7-4.5-13.5-9.1-20.1-13.5,0-3.7,0-7.5,0-11.2,0-2.8-.8-8,.9-10.3,1.9-2.4,6.2-2.1,8.9-2.3,4.3-.3,8.6-.2,12.9-.2Z" fill="#ccebb1"/>
        <path d="M1002.6,580.1v-10.1c5.5,0,10.6.4,16.1,1.2v9.9c-5.4,0-10.7,1-16.1-1Z" fill="#e7e0db"/>
        <path d="M966,571.8h11.2c-.4,3-.7,5.7-1.1,8.8-3.7-.4-7.1-.7-11-1.1.3-2.6.6-5.1.9-7.8Z" fill="#e6dfd9"/>
        <path d="M952.8,566.1h-7.4c.3-3.4.5-6.7.8-10.1h6.6v10.1Z" fill="#e0e0e0"/>
        <path d="M1091.8,584.6c-10.2-.8-20.4-.9-30.6-1.2-10-.2-21.1.8-31-1,.3-12.2.7-24.3,1-36.9,20.2.5,40.4,1,60.9,1.4,1.3,12.3-1,24.5-.4,37.6Z" fill="#f4f2f0"/>
        <path d="M1522,573.5c-1.8.2-3.4.4-5.4.6v-8.3c1.4-.3,3.2-.8,5.4-1.3v9Z" fill="#e0dfdf"/>
        <path d="M1441.2,573c.1,4.6-.8,9.3,2.2,13.5h-4.7c.3-3.9-.5-10.8,2.5-13.5Z" fill="#d6d1ce"/>
        <path d="M1509.8,589.9h-6.6c2.1-1.8,4.4-1,6.6-1.1,0,.4,0,.8,0,1.1Z" fill="#e5dfda"/>
        <path d="M1167.5,484.5c.7.6,1.5,1.2,2.6,2.1-1.7,1.9-3.3,3.6-4.8,5.4-4.5,0-9-.1-13.5,0-4.3.2-8.6,2.1-13.3.9.4-1.7.7-3,1.1-4.3.3-.3.5-.5.8-.8-1.4-.8-2.8-1.6-4.1-2.3.8-3.4,2.9-4.3,5.5-4,8.6.9,17.2,2,25.8,3Z" fill="#f8f2ee"/>
        <path d="M1167.5,484.5c-8.6-1-17.2-2.1-25.8-3-2.5-.3-4.7.6-5.5,4,1.3.7,2.7,1.5,4.1,2.3-.3.3-.5.5-.8.8-.3,1.3-.6,2.6-1.1,4.3,4.7,1.1,8.9-.7,13.3-.9,4.5-.2,9,0,13.5,0,2.4-.2,2.4,1.6,2.8,3.7-11.3.3-22.5.5-33.6.7,0-5.5,0-10.9,0-16.4,10.8-.4,21.5-.8,32.8-1.1.1,2.3.2,3.9.3,5.6Z" fill="#e6dfda"/>
        <path d="M1134.5,480c0,5.5,0,10.9,0,16.4-.5-5.2-1-10.3-1.3-15.5,0-.3.9-.6,1.3-.9Z" fill="#d6ceca"/>
      </g>
    </g>
  </g>
</svg>