<?xml version="1.0" encoding="UTF-8"?>
<svg xmlns="http://www.w3.org/2000/svg" version="1.1" viewBox="0 0 1920 1080">
  <!-- Generator: Adobe Illustrator 28.7.8, SVG Export Plug-In . SVG Version: 1.2.0 Build 200)  -->
  <g>
    <g id="_Слой_1" data-name="Слой_1">
      <g>
        <path d="M500,557.8v-156.8c143.5,0,287,0,430.5,0,6.2,20.1,12,42.4,1.5,62.3-.3.5-.5,1-.8,1.4-4.6,6-8.5,12.1-14.3,17.1-5.7,4.8-11.9,9.1-18.3,12.9-13.6,8.2-27.8,14.5-42.7,19.9-7.7,2.8-15.5,5.4-23.1,8.5-6.4,2.6-15.1,5.2-20.2,10-11.9,11.3,4.4,28.7,1,41.8-6,10.3-12.1,20.5-18.1,30.8-18.8,4.3-47.1,5.1-61.6-10.3-4.1-4.4-7.9-9.2-11.6-13.9-3.4-4.2-6.6-8.2-8.1-13.6-1.4-5-1.4-10.4-.9-15.5.5-5,2.7-10.6,0-15.3-10.7,5.8-13.8,19.8-21.4,28.8-6.8,8-16.4,12.5-26.8,13.6-6.2.2-12.5.5-18.7.7-.8,0-1.5,0-2.3,0-4-.3-8-.5-12-.8-5.5-2.5-11-5-16.6-7.5-1.2-.5-2.5-1-3.7-1.5-8.4-3.4-15.6-6.9-24.9-6.9-9.6,0-19.1.5-28.7.7-19.5.3-39-3.1-58.1-6.6Z" fill="#96d3f1"/>
        <path d="M500,653c0-13,0-26,0-39,9.4-1.1,19-1.7,28.5-2.1,4.4-.2,8.4.7,12.7,1.8,3.8,1,9.4,1.1,12.1,4-1.2,2.1-2.4,4.2-3.5,6.1-2.2,1.3-4.2,2.5-6.3,3.7-.2.9-.4,1.8-.6,2.7-1.3-.5-2.1-.9-3.2-1.4-1.2.9-2.5,1.9-3.9,2.9.8,1.3,1.5,2.3,2.1,3.2,1.7-.7,3.1-1.3,4.6-2,0,1,.1,1.9.2,2.7.1.7.3,1.4.4,1.9,16.4,1.7,32.8,1.8,49.2,2.8,16.5,1.1,32.9,2.1,49.4,2.8,16.6.7,33.2,2.2,49.7,3.3,16.1,1.1,32.4,4.2,48.6,4.2v-6c1.9-.5,4.5,1.2,6.1-2.2-2.2-.6-4.1-1.1-6.1-1.6.2-3.2.5-6.5.7-9.7,3.5,0,6.9,0,10.4,0,1,0,2.6.6,2.3-1.5,4.4-3.5,8.7-7.3,14.3-9,.7.2,1.4.8,2,.7,4.9-.9,9.7-2,14.5-3,.4,1.6.8,3.3,1.3,5.4,3.6.3,7.4.7,11.7,1.1,0-1.3.1-2.5.2-3.6-3.2-.8-6-1.5-8.7-2.2,0-.4-.2-.9-.4-2.1,3,1.1,5.5,2,7.9,2.9,2.5.5,5.1.9,7.5,1.4.2,1.3.3,2.4.5,3.6h4.3c.2-1.3.4-2.3.5-2.8h16.8v5.2h4c.2-1.3.4-2.4.6-3.5-.8-.5-1.3-.9-2.3-1.5,6.5,0,16.1-1.7,21.5,3h0c3,7.2,4.9,19.1,14.3,19.6,10.1.5,20.5-.3,30.6-.5,9.8-.1,19.9.4,29.5-.9,10.7-1.5,21.4-2.5,32.1-4.1,0-.2,0-.4,0-.5-.7,0-1.5,0-2.2-.1.3-.5.5-.9.8-1.4.9-.1,1.9-.3,3.1-.5-.2-1.7-.3-3-.5-4.4h-20.6v4c1.2.4,2.4.8,3.8,1.3h-5.8c-.2-1.8-.3-3.4-.5-5-.1,0-.3,0-.4,0,0,1.8-.2,3.6-.3,5.9-4.5.5-8.9,1.1-13.3,1.6v-7.8h-12.5c-.1,1.3-.2,2.2-.3,3.2-2,0-3.8.2-5.8.3v3.9c5.1.1,9.9.3,14.7.4-5.9.3-11.7.7-17.7,1-.2-2.1-.3-3.5-.5-5-.6,1.7-1.2,3.2-1.7,4.5-11,.3-21.4.7-31.9,1-.8,0-1.6-.2-2.4-.4,0-.1.1-.2.2-.3,1.1-.1,2.1-.2,3.6-.4,0-1.4-.1-2.6-.2-3.9h-5.3c-.5.6-1.1,1.3-1.8,2-1-1.8-2-3.5-3-5.3-1.7-4.9-2.6-11.1-7.8-13.3-4.5-1.9-10.3-1.4-15-1.6-6.7-.3-13.5-.4-20.2-.6-5.4-.2-12.5-2.3-17.6-1-1.2-.7-2.5-1.3-3.8-2,2.4-3.6,4.6-6.8,6.8-10,3.4,1.9,8.4,1.4,12.2,2.4,3.8,1,6.9,3.2,10.9,3.5,9.9.8,19.8.5,29.7,1.5,4.5.5,9,.9,13.4,1.6,4.1.7,6.8,3.5,10.9,4.2,9.5,1.6,19.9.9,29.6.9.7-1.3,1.4-2.5,2.4-4.4,1.7,1.2,5.9,5.9,8.1,4.3.7-1.7,1.3-3.1,2-4.9,1.7.5,2.9.8,4.1,1.1.3,1.5.5,2.7.8,3.9,5.7,3.6,32.7,3.4,37.5-.2.4-2.1.8-4.2,1.2-6.2h.9c2.1,4.7,3.5,5.2,8.7,4.6,5.3-.5,10.5-1.1,15.8-1.7,10.7-1.2,21.3-2.2,32-3.2,5-.5,9.8-1.1,14.8,0,4.4,1.1,7.6,1.3,12.1,1,9-.7,18-1.6,27-1.8,4.8-.2,9.4.7,14.2.8,4.6,0,8.8-1.4,13.3-2.1,4.7-.8,9.6-.8,14.3-.3,4,.4,8.1,1.6,12.2.7,3.7-.8,6.4-3.5,10-4.6,4.3-1.3,9.2-1.5,13.6-2.2,9.7-1.4,19.5-2.7,29.3-3.6,9-.8,17.9-1.4,26.9-2.4,1.5-.2,3.1-.2,4.6-.9,1.6-.8,1.8-2,3.1-3,2.3-1.9,6.8-1.7,9.7-2,1.2,1.3,2,2.2,2.7,3,8.9,0,17.7-.2,26.6.4,7.9.5,16,.8,23.6-1.9,3.9-1.4,7.4-3.8,11.5-5,3.5-1,7-1.3,10.6-1.4,8.7-.2,17.3,1.4,25.7,3.7,8.3,2.3,16.5,5.3,25,6.8,8.4,1.5,16.6.8,25,1.5,7.3.6,15.8,3.5,22.8.3,4.5-2.1,6.4-2.2,11.2-1,4.1,1,8.3,1.8,12.4,2.7v34.5c-9.1-.4-18.1.5-27.2,1.1-9.7.6-19.5.8-29.2,1.3-17.3,1-34.3,4.2-51.7,5-17.2.8-34.5,1.4-51.7,2-17,.6-33.7.8-50.7.2-15.9-.6-31.6-4.5-46.5-9.9v-3c-12.8-2.4-27.2-4.8-40.3-4.1-13.1.6-26.3,2.6-39.4,3.7-13.9,1.1-27.8,2.3-41.8,2.7-13.2.4-28-1.6-40.7,2.6-2.9,1-5.8,1.9-8.7,3-.7.3-1.2,1-1.8,1.5,0,.5,0,1,0,1.5,4.5,0,8.2-1.8,12.4-3.1,4.4-1.3,8.9-1.6,13.5-1.9,8.4-.6,17.1-1.4,25.5-.8,16.8,1.1,33.9-.6,50.5-3.2,13.9-1,27.6-1.7,41.6-1.5,14,.2,26.3,5.3,39.4,9.7,8,1.5,16,3,24,4.5,9.2,1.1,18.3,2.4,27.6,2.4,9.5,0,19.1-.6,28.6-1,18.9-.7,37.7-1.4,56.6-2.4,36.6-1.9,73.2-7,109.9-6.5v18.8c-8.3,1.7-17.4,1.4-26,1.9-8.3.4-16.5.9-24.8,1.3-17.4.9-34.8,1.6-52.2,2.3-32.5,1.4-65.2,2.5-97.7,5.7-120.3,11.7-241.2,6.2-361.7.7-59.6-2.7-119.1-5.8-178.6-8.9-59.8-3-119.5-6.7-179.3-8.3ZM965.8,639.5c2.5,1.6,5,3.2,7.2,4.7,2.8-1.9,3.3-3.6,1.1-5.4.7-.4,1.4-.7,2-1.1-.4-1.8-.6-3.2-.9-4.6-3.3-1.1-6.3-2-9.4.4v5.9ZM780.1,652.8h18.2c.2-3.5.5-6.8.8-10.7-6.3,0-12.4-1.8-19-.6v11.3ZM780.7,636.7c2,1.3,3.3,2.3,4.7,3.2,0,.2,0,.5,0,.7,4.2-1.1,8.5-2.1,12.8-3.2v-8.6h-11.8c-.5-1.3-.9-2.3-1.3-3.3h-4.3v11.1ZM1262.1,604.6c-7.6.2-15.1.4-22.7,1.1-4,.4-7.8.5-11.7-.2-3.9-.7-6.3.6-10,2,.4,4.6.7,9.3,1.2,14.5,9.2-.8,18.4-1,27.6-1.6,9-.6,18,.9,26.7-2.1-.4-5.8-.9-11.7-1.3-17.5h-8.4c-.4,1.2-.7,2.1-1.3,3.8ZM815.3,651.1c6.1,2.2,12.5.9,18.9,1.1v-8.4h-18.9v7.3ZM769.3,639.4v4.6c.7.5,1.4,1,2.4,1.7v7h5.7c1.6-7.4.5-14.7.9-22h-6v6.8c-1.1.7-1.9,1.2-3,1.9ZM897.3,646.4c-7.4-.6-14.6-.9-22-.9v5c7.3,2,14.6.7,22,1.1v-5.2ZM1206.6,607.5c.7,5.4,1.3,10.3,2,15.2,2.7-.3,5-.5,7.8-.8-.4-5-.8-9.7-1.2-14.4h-8.7ZM741.8,632.9v7.5c6.2-.4,12.1-.8,18.2-1.1v-4.3h-5.7c-1.1-.8-2-1.5-2.7-2.1h-9.7ZM851.4,653.5v-15.2h-5.3c-.3,5.1-.6,10.1-.9,15.2h6.3ZM1002.3,644.8c-6.4,0-13.8-1.4-10.6,7.2h11.5c-.3-2.5-.6-4.6-.9-7.2ZM753.1,647.1v5.5h11.4v-5.5h-11.4ZM808.4,626.2c-.3,4.4-.6,8.5-1,12.9h4.7c.3-4.4.6-8.5.9-12.9h-4.6ZM854.3,622.2h13.5v-4.6c-4.8.3-9.1.5-13.9.8.2,1.8.3,3,.4,3.8ZM914.8,630.6c5.8-.6,10.9,1.9,16.4,0-.2-1-.4-1.9-.6-3.1h-15.4c0,.8-.2,1.7-.4,3.2ZM989,637.4c-1.3-1.7-2.4-3.1-3.7-4.8-.5,1.2-.9,2-1.3,2.8-1,.3-1.9.7-2.9,1v3.6h3.7c.3-.8.5-1.4.8-2,.2,0,.4.2.6.3-.5,1.2-.9,2.3-1.4,3.6,1.1-.1,2.4-.3,4-.4,0-1.7.2-3,.2-4ZM1101.8,641.8c2.2-.2,3.9-.4,5.6-.6-.4-2.6-.7-4.5-1.1-7-1.7.3-3.1.5-4.5.8v6.8ZM765.5,628.9c3.2.3,5.8.5,9,.8-.3-1.9-.4-3-.6-4.2h-8c-.2,1.1-.3,2-.5,3.4ZM1090.2,636.3c.5,2.7.8,4.7,1.2,6.9,1.3-.1,2.4-.2,3.7-.3v-7.2c-1.8.2-3.2.4-4.9.6ZM924.1,636.9h6.1v-3.8h-6.1v3.8ZM896.1,627.9h5.1c0-1.5-.1-2.6-.2-3.9h-4.9v3.9ZM963.1,632.5c.9-5.7.7-6.3-2.3-6.9v7.1c1,0,1.7-.1,2.3-.2ZM937.2,629c0,.3,0,.6,0,.9,6.8.4,13.6.8,20.4,1.2,0-.3,0-.6,0-.9-6.8-.4-13.6-.8-20.4-1.2ZM874.7,629c0,1.2-.1,2-.2,3.1,2.3-.4,4.5.9,6.4-1.6-2.1-.5-3.8-.9-6.3-1.4ZM907,623.3c-1.6.8-2.7,1.3-3.7,1.8,0,.4,0,.7,0,1.1,1.1.5,2.2,1,3.7,1.7v-4.5Z" fill="#faf8e8"/>
        <path d="M1100.8,401c106.5,0,213,0,319.5,0v79.5c-8.9,1.7-17.9,4.3-26.9,4.6-8.4.2-16.5-1.9-24.8-1.9-7.8,0-15.5,3.1-23.2,1.2-4.1-1-7.2-4-11.3-5-4-1-8.7-.3-12.7-.3-.1-.7-.2-1.4-.4-2.1-2.6-.1-5-.2-7.8-.4.3.8.5,1.3.6,1.7.3.4.6.7,1.1,1.4-3.1.2-5.8,1.9-8.6,3.1-3.8,1.5-7.5,3-11.3,4.5-2.4-1.3-18.5,5.1-18.7,7.5-3.3,1.7-6.5,3.5-9.8,5.2-.4-.2-.9-.6-1.2-.5-3.1,1.4-6.2,2.8-9.3,4.2-13.1,2.1-26,6.1-39.1,8.4-13.1,2.4-26.3,3.9-39.3,6.2-13.9,2.5-27.7,4.2-41.8,4.8-13.2.6-26.2,2.6-39.4,3.6.9-5.4,1.9-10.9,2.8-16.3.9-5.2,2.3-10.5,1.6-15.7.5-1,1-2,1.4-3,.5.3,3.1-12.6,3.5-14.4,1.2-6.7,2.2-13.4,3.3-20.1,0-2,0-4,0-6-2.9-8.1-6.3-16.1-8.4-24.5-2.4-9.3-1.3-16.5.2-25.8ZM1128.8,504.1c55-24.1,109.5-48,164.5-72.2-1.5-3.4-2.8-6.3-4.3-9.6-45.7,20-91.1,39.9-136.7,60-2.1-4.4-4-8.4-6.2-12.9-6.3,2.8-12.1,5.3-18.4,8.1,1.1,2.5,2.1,4.6,3.2,7,4.3-1.8,8-3.4,12.2-5.2,1,2,1.9,3.8,2.8,5.6-7.4,3.4-14.4,6.6-21.5,9.8,1.6,3.5,2.9,6.2,4.3,9.3ZM1321.7,459.1h-4.7v9.8h4.7v-9.8ZM1379.5,448.7c-4.9,1-9.3,1.9-13.8,2.8,0,1,.1,1.7.2,3.1,4.8-.9,9.3-1.8,13.9-2.7,0-1.2-.1-1.8-.2-3.1ZM1338.3,457c-4,.7-7.5,1.4-11,2,0,.4-.2.8-.3,1.1,3.8,2.2,7.1.7,11.3,0v-3.1ZM1356.1,477.3c-1.3.4-2.2.6-3.4,1,.1,1.5.2,2.7.4,4.4,1.6-.2,2.7-.4,4.1-.6-.4-1.7-.6-2.9-1.1-4.8ZM1356.1,457.1c.3-4,0-4.4-3.3-3.6.1,1,.3,2.1.4,3.4,1.1,0,2,.1,2.9.2Z" fill="#faf8e8"/>
        <path d="M1420.2,601.3c-4.1-.9-8.3-1.7-12.4-2.7-4.8-1.2-6.7-1.1-11.2,1-7,3.2-15.5.3-22.8-.3-8.4-.6-16.6,0-25-1.5-8.6-1.5-16.7-4.5-25-6.8-8.4-2.4-17-4-25.7-3.7-3.6,0-7.2.5-10.6,1.4-4.1,1.2-7.5,3.5-11.5,5-7.6,2.8-15.7,2.5-23.6,1.9-8.9-.6-17.7-.4-26.6-.4-.7-.8-1.6-1.7-2.7-3-2.9.4-7.4.1-9.7,2-1.2,1-1.5,2.2-3.1,3-1.4.7-3,.8-4.6.9-8.9,1-17.9,1.6-26.9,2.4-9.8.9-19.6,2.2-29.3,3.6-4.4.6-9.3.9-13.6,2.2-3.5,1.1-6.3,3.7-10,4.6-4.1.9-8.1-.3-12.2-.7-4.8-.5-9.6-.4-14.3.3-4.5.7-8.7,2.1-13.3,2.1-4.8,0-9.4-1-14.2-.8-9,.3-18,1.2-27,1.8-4.5.3-7.7,0-12.1-1-5-1.2-9.8-.5-14.8,0-10.7,1-21.3,2.1-32,3.2-5.3.6-10.5,1.2-15.8,1.7-5.1.5-6.6.1-8.7-4.6h-.9c-.4,2-.8,4.1-1.2,6.2-4.9,3.6-31.8,3.7-37.5.2-.2-1.1-.5-2.3-.8-3.9-1.2-.3-2.4-.7-4.1-1.1-.7,1.8-1.3,3.2-2,4.9-2.3,1.7-6.4-3-8.1-4.3-1,1.9-1.7,3.1-2.4,4.4-9.6,0-20,.7-29.6-.9-4-.7-6.8-3.5-10.9-4.2-4.4-.7-9-1.1-13.4-1.6-9.9-1-19.8-.8-29.7-1.5-4-.3-7.1-2.5-10.9-3.5-3.8-1-8.9-.5-12.2-2.4,5.5-9,11-18,16.4-27.1.7.2,1.3.4,1.8.6,3-4.4,6.2-12.2,11.1-14.7,4.8-2.5,12.6-1,17.4.8,5.7,2.1,11.1,3.8,17.2,4.3,6.1.5,12.3-.4,18.4.1,6.4.6,12.2,3.6,18.6,4.4,6.8.8,13.6,1.1,20.5,1.7,7.2.6,14.2,1.5,21.3,3.1,4.4,1,8.8,2.5,9.1,7.8,2.5.4,4.9.7,7.3,1.1,2.3-3.6,6.3-3.9,10.2-3.9,5.5,0,11,.4,16.5.6,11.5.4,22.9.9,34.3,1.6,2.4,2.9,4,5.2,7.9,5.8,3.4.5,7.1.2,10.5.3,7.6.2,14.9-1.6,22.5-2.2,1-1.3,1.7-2.1,2.7-3.4,9.9.7,19.7,1,29.6,1,4.7,0,9.4,0,14,0,4.1,0,7.8,1.3,11.8,1.5,3.9.2,7.5-1.6,11.3-2.5,4.6-1.1,9.3-2.3,13.9-3.4,9.3-2.3,18.5-4.5,27.8-6.7,9.1-2.1,18.3-3.6,27.4-5.1,8.8-1.5,17.6-3.5,26.5-3.5,4.1,0,8.6-1.4,12.5-1.1,4.6.3,7.9,2.4,12.8,1.6,3.8-.6,7.6-2.6,11.5-2.6,4.2,0,7.1,2.5,10.3,5q6.9-1.2,7.8-7.5c2.5-2.2,4.5-2.7,7.5-4,3.3-1.4,6.3-3.3,9.8-4.5,6-1.9,12.6-2.5,18.3-5.3,5.2-2.6,7.9-6.4,10.6-11.4,2.7-5.1,6.2-9.1,11.3-12,6-3.4,13-4.7,19.5-7.2,6.6-2.6,13-5.1,20-6.4,14.6-2.8,29.6-4,44.4-5.4v32.3c-7.5,0-15.1-.4-22.6,0-3.7.2-7.4.6-11,1.5-3.4.8-6.6,2.6-10.1,2.6-3.5,0-6.4-1.1-9.9-.2-3,.8-5.2,2.7-7.8,4.4-4.3,2.9-10,3.4-10,9.9-1,1.3-1.7,2.4-2.4,3.4,1.3,5.9,5.6,6.8,10.9,5.8,6.9-1.3,13.7-2.9,20.6-3.9,7.3-1.1,13.6.7,20.8,1.1,7.2.4,14.6.3,21.6,2.5v35.3Z" fill="#94d2f1"/>
        <path d="M1420.2,506.8c-14.8,1.4-29.8,2.6-44.4,5.4-7,1.3-13.4,3.9-20,6.4-6.4,2.5-13.4,3.8-19.5,7.2-5.1,2.9-8.6,6.9-11.3,12-2.6,5-5.4,8.8-10.6,11.4-5.7,2.8-12.3,3.4-18.3,5.3-3.5,1.1-6.4,3-9.8,4.5-3,1.3-5.1,1.8-7.5,4q-.9,6.2-7.8,7.5c-3.2-2.5-6-5-10.3-5-3.9,0-7.7,2-11.5,2.6-4.9.8-8.2-1.3-12.8-1.6-4-.3-8.4,1.1-12.5,1.1-9,0-17.7,2-26.5,3.5-9.2,1.6-18.4,3.1-27.4,5.1-9.3,2.1-18.6,4.4-27.8,6.7-4.6,1.1-9.3,2.3-13.9,3.4-3.8.9-7.3,2.7-11.3,2.5-4-.2-7.7-1.5-11.8-1.5-4.7,0-9.4,0-14,0-9.9,0-19.7-.3-29.6-1-1,1.2-1.7,2.1-2.7,3.4-7.6.5-14.9,2.4-22.5,2.2-3.5,0-7.1.2-10.5-.3-3.9-.6-5.5-2.9-7.9-5.8-11.4-.8-22.9-1.2-34.3-1.6-5.5-.2-11-.6-16.5-.6-3.9,0-7.8.3-10.2,3.9-2.3-.3-4.7-.7-7.3-1.1-.4-5.2-4.7-6.8-9.1-7.8-7-1.6-14.1-2.5-21.3-3.1-6.8-.6-13.7-.9-20.5-1.7-6.4-.8-12.1-3.8-18.6-4.4-6.1-.6-12.3.4-18.4-.1-6.1-.5-11.5-2.2-17.2-4.3-4.9-1.8-12.6-3.3-17.4-.8-4.9,2.5-8.2,10.3-11.1,14.7-.5-.2-1.2-.4-1.8-.6,3.2-5.7,6.5-11.5,9.7-17.2,2.6-1.7,4-4.5,5.7-7.1,11.3,7.1,23.6,6.4,35.8,6.4.3,1.7.6,2.9.9,4.2h4.4c.4-1.3.7-2.3,1-3.5h25.6v8.5h25.5v-7.8c10.5-2,22.1-.7,32.8-.7,0,1.5.1,2.6.2,3.7-.2,0-.5,0-.7,0-2.6-.3-5.2-.6-7.9-1v6.4c2.8-.6,5.2-1.1,7.7-1.6.1,1,.2,1.6.2,2.2-.8,2.5-1.7,5-2.3,6.9,8.5,0,16.3,2.9,24.2,2.4,8.1-.6,16.3.8,24.6-1.7-.4-3.6-.7-7-1-10.1-2.4-.4-4.4-.8-6.4-1.2.2-1.3.5-2.6.8-4.6-4.9.4-8.9.7-13.2,1.1-.1,1.3-.3,2.4-.4,3.4-.2,0-.5,0-.7,0v-6.9c5.6-.2,11.3-.4,16.9-.6,5.1-.2,11.8.6,16.1-2.3.8-.5,1.5-1,2.3-1.5,2.2.9,11.7-3.6,12-6,1.7-.7,3.5-1.5,5.2-2.2,3.8-2,7.6-4,11.3-6,3-1.4,6.1-2.7,9.1-4.3,2.3-1.2,4.4-2.6,6.6-4,10.7,0,20.9-.5,31.5-1.9,10.3-1.4,20.6-3.3,31-4.2,21.2-1.7,42-2.8,63.1-6.3,20.8-3.5,41.8-6.6,62.3-11.6,10.3-2.5,18.9-7.3,28.3-11.9,8.9-4.4,18.3-7.5,27.5-11.4.4,0,.8,0,1.1,0,9.4-3.8,19.1-4.8,29.1-3,.4,0,.8-.4,1.2-.7.8.5,1.5,1,2.3,1.5-.7.8,7.8,4.5,9.1,5.1,12.5-1.4,24.3-2.2,36.8-.6,12.9,1.6,24.1-1.8,36.6-4.5v23.3ZM1066.7,535.5v6.7c4.1.8,21.4-.5,24.4-1.8,0-1.8-.2-3.7-.3-6-8.2.4-15.9.7-24.1,1.1ZM1242,538.9c-9.7.6-19.4,1.2-29.4,1.8.2,5.4-.8,10.4,1.2,15.2,7.5.9,48.7-1.8,50.9-3.2v-10.7c-7.4.4-14.2.8-21.4,1.1-.4-1.2-.7-2.5-1.2-4.2ZM1283.4,541.6c-5.7,1.3-10.6,1.6-16.4,1.6.4,3.7.7,6.8,1,9.7h9.5c.1-2.1.3-3.9.3-5.1,1.8.3,3.5.7,5.6,1.1v-7.2ZM1087,577.4c-8.4-.4-16.2-.7-24.1-1.1v4.2c5.4.8,10.4,1.5,14.9,2.2,3.3-.5,6.2-.9,9.4-1.3,0-1.2-.1-2.3-.2-3.9ZM1022.3,564.6c3.5.8,6.5,1.9,9.5,2,3.1,0,6.2-1.1,9.7-1.8-.2-1.3-.3-2.5-.5-4.2h-18.7v4ZM1066.5,565c4.7.6,9.1-2,12.5,1.1,2.5-1.6,4.6-2.9,7-4.5-2.4-2.5-5.5-1.4-8-1.9-3.8-.8-7.8-1.1-11.8.9,0,1.4.2,2.7.3,4.4ZM1217.3,534.4c-.4-5.4-.8-10.4-1.1-15.7-2.2.2-3.8.4-5.8.5.5,5.3.9,10.3,1.4,15.2h5.6ZM1026.3,576.1c4.4.3,8.4.7,12.6,1v-7.1c-3.8-.2-7.4-.4-11.2-.7-.4,2-.8,3.9-1.4,6.8ZM1300.6,503.8v8c3.6.3,6.9.5,10.6.8v-4.4c-2-.3-3.9-.6-6-1-.3-.7-.6-1.6-.9-2.5-1-.3-2-.5-3.6-.9ZM1282.7,518c-.2,1.6-.3,2.9-.4,4.6,4.4.7,8.5,1.3,13,2.1v-4.8c-4.1-.6-8-1.2-12.6-1.9ZM1298.8,512.3c-4.1-.6-7.5-1.1-11.6-1.8-.1,1.9-.2,3.4-.3,5,4,.5,7.5,1,11.5,1.6.2-1.7.3-3,.4-4.8ZM1103.4,577.6h-11.6c.1,1.5.2,2.6.3,4,4,.3,7.5.6,11.2.8v-4.8ZM1189.9,544.8c-3.6.3-6.9.6-10.4,1,.1,1.8.2,3.1.3,4.2h10.1v-5.2ZM1223.9,524.5c.4,3.6.7,6.5,1,9.9,1.5-.1,2.6-.2,4.1-.4-.3-3.6,1-7-1.4-10.2-1.3.2-2.4.4-3.7.7ZM1267.5,518.8c-.2-.3-.5-.5-.7-.8-3.9.9-4.1,6.8-5.1,10.4-.8,1.1-1.4,2-2,3,.2.2.5.5.7.7.9-.1,1.8-.2,2.7-.4,1.6-4.5,3-8.7,4.5-13ZM1330,494.5c2.8-.5,5.2-1,8-1.5-.6-1.5-1-2.4-1.6-3.9-2.5,1.8-4.9-1.9-7.5.7.3,1.4.7,2.8,1.1,4.6ZM930.2,569.6v-5.2c-2.2.1-4.1.3-6.4.4.2,1.9.3,3.2.5,4.7h5.9ZM1055.9,566.1c2.5-.5,4.8.9,6.7-1.7-.4-1.1-.8-2.4-1.3-3.7-1.9,0-3.6.2-5.4.3v5.2ZM1324.3,519.3c.2-1.6.4-3.1.6-4.7h-5.7c0,1.7.1,3.1.2,4.4,1.8.4,3.1.4,4.9.3ZM884.8,565.8c0-1.6-.1-2.8-.2-4.1h-5.5v4.1h5.7ZM1320.1,508.5v5c1.5,0,2.7-.2,3.9-.2v-4.8h-3.9ZM1060.1,554.2h-4.8v4h4.8v-4ZM1305.7,536.1c1.6-.1,2.8-.2,4.3-.3-.1-1.7-.2-3.1-.3-4.7h-4v5ZM1278.3,508.3c-1.3,0-2.3.1-3.7.2-.1,1.6-.3,3-.5,5,1.8-.2,2.9-.3,4.1-.4v-4.8ZM1110.6,580c-1.3-3-3.3-2-5.7-1.6,0,1,0,2-.2,3.2,2.3,0,4.4.9,5.9-1.6ZM1328.1,486.1c-2.5.6-4.3,1-6.1,1.4.1,1.1.2,1.8.3,2.5h5.2c.2-1.1.3-2,.6-3.9ZM1316.4,534.4v-4.4c-1.5.2-2.6.3-3.9.5v3.9h3.9ZM1080.2,545.8c-1.7,0-2.9.2-4.2.2.1,1.6.2,2.8.3,4h4.2c0-1.4-.1-2.5-.2-4.2ZM1021.1,579.1l.8-.8c0-1-.1-2-.3-3.7-1.8.7-3.1,1.2-4.4,1.7,0,.4,0,.9,0,1.3,1.3.5,2.5,1,3.8,1.5ZM1170.9,567.9c0-1.2.1-2.1.2-3.1-4.1,0-4.4.3-3.7,3.5,1,0,2.1-.2,3.5-.3ZM1102.7,558h-3.7c.5,1.6.9,2.9,1.4,4.4,1.3-.7,2.1-1.2,3.1-1.7-.3-1-.5-1.8-.8-2.7ZM1324.6,506.8c.2-.4.4-.7.5-1.1-2.1-2-2.5-1.8-5.3-1,0,.5,0,1,0,1.5l4.7.6ZM1312.3,492.7c0,1.1.1,1.8.2,2.6h4.1c-.1-1-.2-1.8-.3-2.6h-4Z" fill="#faf8e8"/>
        <path d="M500,653c59.8,1.5,119.6,5.2,179.3,8.3,59.5,3,119.1,6.1,178.6,8.9,120.5,5.5,241.3,11,361.7-.7,32.4-3.2,65.1-4.3,97.7-5.7,17.4-.7,34.8-1.5,52.2-2.3,8.3-.4,16.5-.8,24.8-1.3,8.5-.4,17.6-.1,26-1.9v21c-306.8,0-613.5,0-920.2,0,0-8.7,0-17.5,0-26.2Z" fill="#95d3f1"/>
        <path d="M500,557.8c19.1,3.4,38.6,6.9,58.1,6.6,9.6-.2,19.1-.6,28.7-.7,9.3,0,16.5,3.5,24.9,6.9-1.3,0-2.7.6-3.8.2-9.7-3.2-18.8-1.4-27.7,2.7h0c-1.3.8-2.6,1.6-3.3,2.1-.8,4.8-2.2,10.2-1.8,15.1.5,5.6,5.5,8.4,7.6,13.2-.9.3-1.6.6-2.9,1,.6,1.4,1.2,2.6,2,4.4-.2,1.3-.5,3.3-.8,5.4-4.5,1.7-11.4-.1-16.3-.5-6.2-.5-12.2-1-18.2-2.5-7.1-1.7-13.2-3.3-20.6-2.9-8.6.5-17.3.9-25.9,1.3,0-3,0-6,0-9,3.5-2.2,7-4.5,10.4-6.7,0-5.7-6.1-6.6-10.4-6.8v-30ZM561.3,586.8c-4,.9-8.1-.2-11.6,3.6,1.3,1,2.2,2.4,3.2,2.4,3.5.2,7-.2,10.3-2.6-.6-1.2-1.1-2.1-1.9-3.5ZM588.7,566.1c0,.3,0,.7-.1,1,3.2.3,6.3.6,10.1,1-2.7-3.4-6-3.9-9.9-2Z" fill="#faf8e8"/>
        <path d="M1001.8,401c32.2,0,64.5,0,96.8,0-.7,2-1.5,4-2.2,6-.3,1.2-.7,2.3-.7,3.5-.7,9,1.8,17.4,4.5,25.8,2.1,5,4.1,10,6.1,14.8-11-.4-25.6-2.6-34.6,5.4-.2,0-.5,0-.8,0-.8-3.3-1.6-6.6-2.4-10,1.7-.6,2.8-.9,4-1.3,0,.3,0,.6.1,1l14.9-1.5c-2.1-1.8-5.3-.1-7.6.2-2.7.3-5.1-.2-7.8-.2-5.9,0-12.5,1.8-18.4,2.7-1.6-4.8-3.1-9.4-4.7-14.1.9-.7,1.7-1.3,2.8-2.2-1.4,0-2.3.1-3.4.2-1-2.8-1.9-5.5-2.9-8.1-5.2-.6-11,2.6-15.9,4.2-.9-2-1.7-4-2.6-6-.2,0-.3.1-.5.2.5,1.9,1,3.7,1.6,6-5,1.9-9.8,3.8-14.5,5.6-2.2-5.9-4.3-11.5-6.4-17-.2-.6-.3-1.2-.5-1.8-1.6-4.4-3.2-8.8-4.8-13.2ZM1063.7,435.9c3.8-.2,4.4-.5,5.3-2.8-3.6-.7-5.1,0-5.3,2.8Z" fill="#faf8e8"/>
        <path d="M824,560.7c-3.2,5.7-6.5,11.5-9.7,17.2-5.5,9-11,18-16.4,27.1-2.2,3.2-4.4,6.4-6.8,10,1.3.7,2.5,1.3,3.8,2,5.7,2.4,11.7,1.7,17.6,2.1,10,.8,20.1.6,30.2.9,4.1.1,7.4,1.8,9.2,5.8,1.1,2.6,2.5,5.1,3.8,7.6,1,1.8,2,3.5,3,5.3.2.7.5,1.5.7,2.2,6.9,2.2,14.1,1.2,21.3,1,6.8-.2,13.6-.3,20.4-.3,14.4,0,28.1-1.5,42.3-3.8,3.7-.2,7.5-.4,11.2-.7-.3.5-.5.9-.8,1.4-20.1,2.3-39.7,5-60,5.3-5.2,0-10.4,0-15.6,0-5,0-11,.9-15.9,0-3.3-.7-4.8-2.7-6.2-5.6-2.2-4.4-4.3-8.7-6.6-13.1h0c-1-3.4-4-3.5-6.6-3.6-9-.5-18.1-.5-27.1-.9-6.5-.3-13-1-19.6-1.5-2.1-1.1-4.3-2.1-6.4-3.2-1.3.6-2.3,1.2-3.4,1.7-.7,0-1.5,0-2.2,0-5.5,1-11,2-16.5,3-5.6,1.7-9.9,5.4-14.3,9-1.4.3-2.9.7-4.3.8-6.1,0-12.1,0-18.2,0-11.8-1.5-23.9-1.5-35.8-1.5v8.5c5.5.4,10.9.8,16.2,1.2,4.4,1.9,10.5,1.4,15.4,1.8,5.8.5,11.5,1.3,17.3,2.2,0,.4,0,.8-.1,1.2-14.3-1.4-28.7-2.6-43-4.4-2.6-.3-5.2-.7-7.7-.7-12.7-.3-25.3-.5-38-.8-12-1.1-24-1.9-36-3-5.8-1.5-12.2-1.5-18.2-2-6.4-.6-12.9-1.2-19.3-1.8-2.8-1.9-9.2-1.3-12.6-1.5-3.7-.3-7.6-.1-11.2-.8-6.8-1.1-5.6-5-4.7-10.4.5-.8.9-1.7,1.3-2.3-8.4-2.1-17-5.3-25.8-5.3-9.6,0-19.2,1-28.8,1.5,0-.5,0-1,0-1.5,8-.3,16-.6,24-1.2,7.8-.7,14.3,1.1,21.7,2.7,5.4,2.8,12.7,1.9,18.6,2.6,3.1.4,15.8,3.3,17.4-.3.8-3.8,1.7-7.7,2.4-11-3.2-4.9-7.7-8.2-8.2-13.1.6-5,1.1-9.3,1.7-13.8.8-1,1.8-2.1,2.7-3.3h0c5.4-1.3,10.8-3.1,16.4-3.3,6.1-.2,12.1,1.5,18.1,2.6.7.5,1.3,1,2,1.6l-.4,1c-4.3-.9-8.6-1.7-12.9-2.6-5.8-3.4-16.6-.7-22.1,2.4-3.5,1.9-2.9,6.1-3.1,9.6-.3,4.8-.2,7.1,1.9,11.3h0c1.6,2.2,3.1,4.4,4.1,5.8,32.6,1.9,65.3,1.9,97.9,2.4h0c2.3.5,4.5,1.1,6.8,1.5,4.5.8,9,1.5,13.5,2.3.3.6.7,1.3,1,1.9.1-.4.2-.9.4-1.3,5-2,9.9-3.6,14.4-6.6,3.2-.6,6.4-1.1,9.5-2,.7-.2,2.7-.6,1.7-2.5-1.9-2.4-3.7-4.7-5.4-6.8h-8.2,0c-5.7-2.1-12.1-2.6-18-3.7-5.1-1.8-10.2-3.2-15.7-3-.8-.2-1.6-.8-2.3-.7-3.5.4-7,1-10.4,1.5-.5.5-1,1-1.5,1.5-.6,5.4-1.1,10.8-1.7,16.1-1.8-1.3-1.9-6.7,0-16.7-1-1.1-2-2.3-3.1-3.5-.1.2-.3.3-.4.5-1.6-.2-3.2-.5-4.8-.7,0-.3,0-.6,0-1h5.4c.5.5,1,1,1.5,1.5.7.8,1.4,1.6,2.1,2.3,13.4-6.6,29.4-.1,42.9,3.7h11.5c-2.4-3.1-4.7-6-7-9-.7-1.2-1.5-2.5-2.2-3.7,2.2,2.5,4.4,4.9,6.7,7.4,5.2,5.6,10.5,11.1,15.8,16.7,5.3,3.7,10.5,7.5,15.8,11.2,5.9,5.8,14.4,9.1,22.6,7.5,7.6-1.5,16.2-1.3,20.2-9,.7-1.2,1.5-2.5,2.2-3.7,6-10.3,12.1-20.5,18.1-30.8,2-3,3.9-6,5.9-9,3.5-6.1,6.8-12.6,12.3-17.1,5.3-4.4,11.3-5.2,17.8-6.5,16.1-3.1,32-7,47.9-10.7v-6.1c-.3-1.1-.6-2.1-.8-3.2-.7-4-1.3-8-5.2-10.3-.2-.6-.4-1.1-.7-1.9.6-.1,1-.3,1.4-.4.2.2.5.5.7.7,1,1,1.9,2.1,3.1,3.3,1.4-1.6,2.6-2.8,3.7-4.1.2-.2.5-.5.7-.7,4.1-2.5,8.2-4.9,12.4-7.4,1.4-.8,2.8-1.6,4.1-2.4h0c3.8-1.7,7.5-3.5,11.3-5.2,1.1-.1,2.1-.3,3.2-.4l.3.7c-7.9,3.7-15.8,7.3-23.7,11-2.8,2.2-5.5,4.5-8.3,6.7-1,.9-2,1.8-2.8,2.6,1,5.7,2,11.2,3,16.9,4-1.1,7.6-2,11.1-2.9,8.7-.2,18.2-3.7,26.7-5.6,8.6-1.9,17.3-3.9,25.9-5.8,17.7-3.9,35.5-7.7,53.1-11.9h7.8c1.5-9.7,1.9-18.6-1.7-27.4-7.1,1.3-14.1,3.2-21,5-3.3,1.2-6.5,2.5-9.8,3.7.4-2.8,11.5-5.1,14.2-6.1,5.5-1.9,10.8-3.2,16.5-4.4-.3-2.2-.5-3.7-.7-5.3-2-8-3.1-16.6-8.8-23-12.2,5.8-23.6,12.7-36,18.1,1.9,6,3.8,11.6,5.6,17.2-.4.1-.7.3-1.1.4-1.9-5.5-3.7-11-5.8-17.2-6.8,3-13.1,5.8-19.4,8.5-.2-.3-.3-.6-.5-.9,7.2-3.6,18.5-6.2,17.6-16.3-1.9-3-3.8-6-5.9-9.4-3.2,3.7-5.9,7.8-9.6,10.9-4.1,3.4-9.4,5.4-14.1,7.8-3.6.7-6.8,2.1-9.5,5.9,1.3,5.8,2.9,11.1,5,16.6.3,1,.1.9-.3,1.9-2.2-5.3-8.6-14.9-4.9-20.7,1.6-2.5,5-3.6,7.5-4.8,5-2.4,9.9-4.8,14.9-7.2,1-.9,2.2-1.7,3-2.7,2.3-3,4.5-6.2,6.7-9.2,0-.9.4-1.9.2-2.7-2.9-8.7-2-17,2.1-25.1.5-.3,1-.5,1.5-.8-1,3.5-2,7-3,10.5-.2.9-.7,1.8-.7,2.7,0,7.5,1.6,14.6,5.2,21.2,1.3,3,3.8,4.5,6.7,5.2,6.8,3.8,12.6,1.5,18-3,3.5-2,7-4,10.5-6,1.9-.7,3.8-1.5,6.2-2.4-.6-2.6-1.2-5-1.7-7.4-1-3.8-2-7.5-2.9-11.3-1.6-5.2-3.2-10.5-5-15.7-.4-1.1-1.2-2.1-1.8-3.1-1-2.7-2-5.5-3-8.2.5,0,1,0,1.5,0,2.2,5.3,4.5,10.5,6.7,15.8,1.6,5.5,3.5,10.9,4.8,16.4,1.3,5.1,1.7,10.1,3.9,14.9,4.5,9.6,6.6,19.5,9,29.8,1.3,5.3,2.5,10.7,2.4,16.3-.1,5.4-1.1,10.6-.8,16.1.6,11,3.7,21.8,6,32.6.1.7.3,1.3.5,2.4,4.8-2.4,9.3-4.7,13.8-6.9,5.5-3,11-6,16.5-9,0,.7-.1,1.4-.2,2.2,4.6,0,9.1.3,13.6.7-5.5,0-11,0-16.5,0-5.2,2.8-10.5,5.5-15.8,8.3-3.8,2.2-7.6,4.5-11.3,6.7-1.7.7-3.5,1.5-5.2,2.2-4,2-8,4-12,6-.8.5-1.5,1-2.3,1.5-9.2.9-18.2,1.6-27.5,1.8-4.8.1-9.6.2-14.4.3-4.1,0-9.1-.7-12.9.9-29.1-.2-58.2-.4-87.2-.7-7.7,0-15.4-.6-23.1-.7-4.5,0-8.6-1.1-12.6-3-2.1-1-4.3-1.7-7.1-2.8-1.7,2.8-3.3,5.4-4.9,8ZM1007.8,541.3c-5.8.3-11.6.6-17.9.9-1.6,5.1.4,9.8.9,14,7.1,0,13.7.2,20.2-.1,2-.1,3.9-1.8,5.8-2.8,4.7-2.2,9.4-4.4,14.5-6.8-.4-1.7-.7-3.1-1-4.5-3.8-.5-7.7-1.2-11.5-1.3-3.7-.1-7.3.4-11,.6ZM682.2,606.5h0c-11.6-1.9-23.2-1.3-35-1.6-11.2-.2-22.3-.6-33.5-.6.4,1.6.7,2.7.9,3.8,6.1,8.2,16.5,9.9,25.3,13.6,4.7,2,9.5,3.7,14.6,4.3,2.6.3,10.9-1.3,11.1,1.5-4.7,0-9.6.4-14.2-.3-4.4-.7-8.6-2.8-12.8-4.2-1.5-.5-3-1-4.5-1.5-3.6-2-6.9-1.5-10.9-1.5-.8,4-1.7,8.2-2.7,13.1,3.9.4,7.2.8,10.6,1.2.8.2,1.5.5,2.3.7,20,1.2,40,2,60,2v-8c-.2-.5-.5-1-.7-1.5h8.4c.8-5.9,1.5-11.2,2.2-17-6.4-3.1-14.1-3.1-21.1-4ZM753.5,627.5c1.2-.7,2.3-1.4,3.5-2.2-7.6-1.9-15.3-2.8-23.1-3.9-4.2-.9-8.4-1.7-12.6-2.6-1.3-.3-2.5-.7-3.8-1.1-4.2-1.4-8.4-2.9-13.2-4.5-.4,4.5-.8,9.2-1.2,13.8,8.4,1,16.7,1.3,25.1,1.5,7.9.2,18,2,25.3-1.1h0ZM586.2,605h0c-2.3,3.2-2.4,7-3,11,13.8,2.6,27.3,1.5,40.7,1.8v-.7c-.4-.3-1-.5-1.6-.8-.7-.5-1.5-1-2.2-1.5-3.3-3.2-8-5.2-8.6-10.5-8,0-15.6,0-23.2,0-.7,0-1.3.5-2,.7ZM894.5,533.8c-.5.2-.9.4-1.4.5-18.4,4-36.8,8.1-55.3,12.1-3.2.7-5,2.7-7,5.4,1.8.8,3.3,1.4,4.7,2.2,6.7,3.5,14,3.3,21.1,3.7,7.2.4,14.5,0,21.7.2,6.2.1,12.4.6,18.7.9.5-1.7.8-2.9,1.2-4.1v-21.4c-1.5.2-2.6.4-3.7.5ZM1013.8,539h15.7c0-1.6,0-2.6,0-3.7-.2-.8-.5-1.6-.7-2.5-1.3-5.9-2.5-11.9-3.7-17.8,0-2.6-.2-5.2-.3-8.5-2.9.4-5.1.7-7.3,1.1-5.7,1.2-11.5,2.5-17.2,3.7-4.2-.4-9.3,1.6-13.5,2.5-4,.9-8.1,1.7-12.1,2.6-8.4,1.8-16.7,3.6-25.1,5.4-16.4,3.5-32.7,7-49,11-.4,9-.7,17.2-1.1,25.8,29.7,0,59.6.8,89.2-1.9,1.2-5.4-4-11.1,1.6-16.3,7.8-.3,15.8,0,23.5-1.4ZM724.2,617.1c3.5,1,7,1.9,10.5,2.9,5.6.7,11.1,1.5,16.7,2.2,4.2.6,9.4,2,12.5-1.8-4.9-2.5-9.8-4.8-14.3-8-4.3-5.9-13.8-12.1-21.3-10.8-5.1.9-10.2,2.9-15.1,4.5-3.3,1-7.3,1.5-7.6,5.8,4.4,2.2,8.6,3.2,13.3,4.4,1.7.3,3.5.6,5.2.8ZM621.6,619.6c-13.2-.4-25.9-.8-39.4-1.2-.5,3.1-1,6.6-1.6,10.7,13.1,1.3,25.6,2.5,38.4,3.8.9-4.7,1.7-8.8,2.5-13.3ZM579.1,629.2c.6-4.3,1.1-7.7,1.6-11.4-8.2-.6-16.2-1.2-24.1-1.8-1.6,3.2-4,5.5-2.9,9.8,8,3.2,16.8,1.6,25.4,3.3ZM973.7,465.8c3.5-1.4,6.7-2.7,9.8-4,0-.3,0-.6,0-1-2.7-.9-5.3-1.7-8.2-2.7-.6,2.7-1,4.8-1.6,7.6Z" fill="#fcfcfc"/>
        <path d="M1007,449c-3.5,2-7,4-10.5,6-3.5.4-6.6,2.8-9.7,4.6-2.9-1-5.2-1.5-8.3-1.6-3-.8-5.5-2.2-6.7-5.2,0-.6.4-1.4.1-1.9-3.5-7-4.9-14.4-4.6-22.1,1-3.5,2-7,3-10.5,2.9-2.5,5.8-5,8.8-7.4,3.4-2.7,6.1-5.8,7.7-9.8,4,0,8,0,12,0,1,2.7,2,5.5,3,8.2-1.1,2.5,1.2,3.9,1.9,5.8,1.5,4.4,3.3,8.6,5,12.9,1,3.8,2,7.5,2.9,11.3v6.5c-1.5,1-3,2.1-4.5,3.2ZM976.1,426.6c.8-.7,1.5-1.2,2.2-1.9-.7-1-1.3-1.8-2.1-2.9-.9.7-1.6,1.3-2.5,2,.9,1,1.6,1.8,2.5,2.7Z" fill="#faf8e8"/>
        <path d="M986.8,401c-1.6,4.1-4.3,7.2-7.7,9.8-3,2.4-5.9,4.9-8.8,7.4-.5.3-1,.5-1.5.8-2.2.3-3.4,6.7-4,8.7-1.1,3.8-.7,7-.5,10.9-1.6,0-3.2-.1-4.8-.2,0,.2,0,.4,0,.6-.6-.3-1.3-.7-2.1-1.1-1.8,2.2-5.9,1.9-5.7,5.8-1.1.9-2.1,1.8-3.5,2.9,1,.8,1.6,1.4,2.3,2,4.8-3,10.2-5.5,13.8-9.9.8,2.8,1.5,5.5,2.3,8.3-2.2,3.1-4.4,6.2-6.7,9.2-.8,1.1-2,1.8-3,2.7-1.3-1.4-2.6-2.9-4.1-4.6-7,2.9-13.8,6-20.7,9.1,10.5-19.9,4.7-42.1-1.5-62.3,18.8,0,37.5,0,56.2,0ZM946.3,431.8c-1.9.8-3.6,1.4-6.1,2.4,3.1,2.1,4.8.7,6.9-.1-.3-.8-.5-1.3-.8-2.3Z" fill="#faf8e8"/>
        <path d="M1420.2,566c-7-2.2-14.3-2.1-21.6-2.5-7.3-.4-13.6-2.2-20.8-1.1-6.9,1-13.7,2.6-20.6,3.9-5.3,1-9.6.1-10.9-5.8.7-1,1.5-2.1,2.4-3.4,0-6.5,5.7-6.9,10-9.9,2.5-1.7,4.7-3.6,7.8-4.4,3.5-1,6.4.1,9.9.2,3.6,0,6.7-1.7,10.1-2.6,3.6-.9,7.3-1.3,11-1.5,7.5-.4,15.1,0,22.6,0v27Z" fill="#faf8e8"/>
        <path d="M1096.3,407c.7-2,1.5-4,2.2-6,.5,0,1,0,1.5,0-2.2,5.3-2.9,10.9-2.2,16.5,1.6,11.9,5.9,23,11.2,33.8,0,2,0,4,0,6-.2.3-.6.5-.7.9-1.3,6.7-2.6,13.4-3.8,20.1-.8,4.5-1.6,9-2.3,13.6-.5,1-1,2-1.4,3-1.8,10.9-3.6,21.8-5.4,33.2,26.5-3,53.3-3.7,79.7-8,13.5-2.2,27.1-4,40.6-6.2,13.6-2.3,27-6,40.4-9.2,3.5-1.5,7-3,10.5-4.5,3.3-1.7,6.5-3.5,9.8-5.2,6.2-2.5,12.5-5,18.7-7.5,3.8-1.5,7.5-3,11.3-4.5,3.8-1,7.5-2.1,11.3-3.1h.4s.4,0,.4,0c8.5.2,15.5-.3,23.1,4,7.7,4.4,16.3.8,24.6.4,9.1-.3,18,2.7,27,2.3,9.1-.4,18.4-3.4,27.3-5.3v1.5c-14.2,3-27,6.4-41.6,3.8-7.7-1.4-14.9-.9-22.5.1-7.4,1-11.6-.3-18.3-3.2-.8-.5-1.5-1-2.3-1.5-2.1-.3-4.2-.6-6.3-.8-8.7-.7-17.1.5-25.2,3.8-8.4,3.4-17.1,6.2-25.4,10-7.9,3.6-15.3,8.6-23.7,10.9-18.5,5.2-37.8,9.1-56.8,11.8-19.3,2.8-38.4,6.3-57.9,7.4-19.3,1.1-38.3,3.4-57.5,5.5-.5-.3-1-.5-1.5-.8,4.1-.6,8.2-1.3,12.4-2,1.6-10.1,3.9-19.8,4.9-29.6-.4-.1-.7-.3-1.1-.4-1.2,1.7-2.3,3.3-3.5,5-4.5,4.5-9,9-13.5,13.4-2.5,2-5,4-7.5,6-.3-.2-.5-.5-.8-.7,1.3-1.3,2.5-2.5,3.8-3.8h0c.7-.3,1.5-.4,1.9-.9,4.1-4.2,8.2-8.4,12.3-12.6.5-.5,1-1,1.5-1.5,2.3-2.5,4.5-5,6.8-7.5.5-.8,1-1.5,1.5-2.3,3.8-12.3,5.2-25.8,7.5-38.4-1.5-.2-2.6-.4-3.8-.6,0,0,0,0,0,0-4.7-1.9-9.2-1.8-14.2-1.2-3.9.5-10.7.6-13.5,3.4,0,0,0,0,0,0-5.3,3.4-10.8,5.3-16.5,7.7.3,1.8.6,3.4.8,5.1,1,3,1.9,6,2.9,9,1.3,7.3,3.5,14.5,5.5,21.6,2.1,7.4,4.7,14.2,2,21.8-.5,0-1,0-1.5,0-.6-.5-1.2-1.5-1.6-1.4-2.5.3-4.9.9-7.3,1.4.2,1.5.5,3,.7,4.5-.5.4-.9.7-1.7,1.4-2-6.9-4.7-12-8.7-17.9-.5-2.5-1-5-1.6-7.5-2.5-8.4-4.4-16.8-4.8-25.6,2.2.8,3,10.3,3.5,12.7.8,4,1.6,7.9,2.4,11.9,1.4,7,4,12.9,9,18.1,3.5,0,10.2.8,11.7-3.6,1.2-3.7-1.8-10.1-2.7-13.5-1.8-6.9-3.7-13.7-5.5-20.6-1.6-6.2-3.8-12.3-4.1-18.7,4.5-1.6,8.7-3.7,13.1-5.7,6-3.4,11.8-5.1,18.8-5.9,6.3-.7,11.6,1.1,17.8,1.7-2.6-6.3-5-11.9-7.3-17.6-3.1-9.3-5.2-18.7-4.5-28.5Z" fill="#fcfcfc"/>
        <path d="M990.5,643.2c0-.5,0-1,0-1.5,3.5-1.2,7-2.5,10.5-3.7,13-2.9,27.1-2.9,40.4-3.1,14.1-.1,27.8-.5,41.8-1.8,13-1.2,26-3.2,39-4,6.7-.4,13.4.6,20,1.3,6.6.7,13.3,1.3,19.8,2.7,0,.2,0,.4,0,.6-.9.2-1.9.5-3.2.8,7.3,3.9,16.9,5.9,24.9,7.8,9.5,2.2,19.3,3.2,29,3.9,17.4,1.2,34.8-.2,52.2-1,17.1-.7,34.2-1.2,51.2-1.9,17.1-.7,34-3,51.1-4.5,17.7-1.5,35.4-1.9,53.1-2.5v1.5c-19,.9-38,1.3-57,2.6-18.3,1.3-36.4,4.3-54.8,5.1-36.8,1.6-74.3,5-111,.6-1-.1-2-.2-2.9-.4-7-1.4-14-2.8-21-4.2-4.9-3.4-12.5-4.8-18.2-6.6-6.5-2-12.9-2.4-19.6-3.4-14.3-2.2-29,.4-43.2,1.8-8.7.9-17.4,2-26.2,2.8-8.3.8-16.3.2-24.6.2-8.3,0-16.7.4-25,.9-9.4.5-17.4,3-26.2,5.8Z" fill="#fcfcfc"/>
        <path d="M1420.2,636.5c-17.7.5-35.4.9-53.1,2.5-17,1.5-34,3.8-51.1,4.5-17.1.7-34.2,1.2-51.2,1.9-17.4.7-34.8,2.2-52.2,1-9.7-.7-19.5-1.7-29-3.9-8-1.9-17.6-3.9-24.9-7.8,1.3-.3,2.3-.6,3.2-.8,0-.2,0-.4,0-.6-6.5-1.5-13.1-2-19.8-2.7-6.6-.7-13.4-1.7-20-1.3-13,.8-26,2.8-39,4-14,1.3-27.7,1.7-41.8,1.8-13.3.1-27.4.2-40.4,3.1,0-.3,0-.5,0-.8,12.7-4.2,27.5-2.2,40.7-2.6,14-.4,27.9-1.6,41.8-2.7,13.1-1,26.3-3,39.4-3.7,13.1-.6,27.5,1.7,40.3,4.1v3c14.9,5.4,30.6,9.3,46.5,9.9,17,.6,33.7.5,50.7-.2,17.2-.6,34.5-1.2,51.7-2,17.3-.8,34.4-4,51.7-5,9.7-.6,19.5-.7,29.2-1.3,9.1-.6,18.1-1.5,27.2-1.1v.8Z" fill="#e4e3dd"/>
        <path d="M1197.5,646.3c36.7,4.4,74.1.9,111-.6,18.4-.8,36.5-3.8,54.8-5.1,19-1.3,38-1.7,57-2.6v1.5c-36.7-.6-73.3,4.6-109.9,6.5-18.9,1-37.7,1.7-56.6,2.4-9.5.4-19.1,1-28.6,1-9.3,0-18.4-1.3-27.6-2.4,0-.2,0-.5,0-.7Z" fill="#e5e4de"/>
        <path d="M1420.2,481.3c-8.9,1.8-18.2,4.8-27.3,5.3-9,.4-17.9-2.6-27-2.3-8.3.3-16.9,4-24.6-.4-7.6-4.4-14.6-3.9-23.1-4,1-.2,2-.5,3-.7,4.1,0,8.7-.6,12.7.3,4.1,1,7.2,4,11.3,5,7.7,1.8,15.5-1.3,23.2-1.2,8.3,0,16.4,2.2,24.8,1.9,9-.2,18.1-2.8,26.9-4.6v.8Z" fill="#e5e4df"/>
        <path d="M500,587.8c4.4.2,10.4,1.1,10.4,6.8-3.5,2.2-7,4.5-10.4,6.7,0-4.5,0-9,0-13.5Z" fill="#95d3f1"/>
        <path d="M1337.8,483.5c6.7,2.9,11,4.2,18.3,3.2,7.7-1,14.9-1.5,22.5-.1,14.6,2.6,27.4-.7,41.6-3.8v.8c-12.5,2.7-23.7,6.1-36.6,4.5-12.5-1.6-24.3-.7-36.8.6-1.3-.6-9.8-4.4-9.1-5.1Z" fill="#e5e4de"/>
        <path d="M500,612.5c9.6-.5,19.2-1.5,28.8-1.5,8.8,0,17.3,3.2,25.8,5.3-.4.6-.8,1.5-1.3,2.3,0-.3,0-.5,0-.8-2.7-2.9-8.3-3-12.1-4-4.2-1.1-8.2-2-12.7-1.8-9.4.4-19.1,1-28.5,2.1,0-.5,0-1,0-1.5Z" fill="#e4e3dd"/>
        <path d="M1109,451.3c-5.3-10.7-9.6-21.8-11.2-33.8-.8-5.6,0-11.2,2.2-16.5.2,0,.5,0,.8,0-1.5,9.3-2.5,16.5-.2,25.8,2.1,8.3,5.6,16.4,8.4,24.5Z" fill="#e4e4de"/>
        <path d="M545.7,612.5c-7.4-1.6-14-3.4-21.7-2.7-8,.7-16,.9-24,1.2,0-.3,0-.5,0-.8,8.6-.4,17.3-.8,25.9-1.3,7.4-.4,13.5,1.2,20.6,2.9-.2.2-.5.5-.7.7Z" fill="#e3e2dd"/>
        <path d="M1007,416.8c-2.2-5.3-4.5-10.5-6.7-15.8.5,0,1,0,1.5,0,1.6,4.4,3.2,8.8,4.8,13.2.2.6.3,1.2.5,1.8,0,.3,0,.5,0,.8Z" fill="#e4e3de"/>
        <path d="M932,463.3c6.9-3.1,13.7-6.2,20.7-9.1,1.5,1.7,2.8,3.1,4.1,4.6-5,2.4-9.9,4.8-14.9,7.2-2.5,1.2-5.9,2.3-7.5,4.8-3.7,5.8,2.6,15.4,4.9,20.7.4-1,.6-.9.3-1.9-.3-5.9-4.9-11.2-3.5-17.2,2.5-2.1,5.1-3.7,7.9-5.4,4.7-2.4,10-4.4,14.1-7.8,3.8-3.1,6.5-7.2,9.6-10.9,2.1,3.4,4,6.4,5.9,9.4.9,10.1-10.4,12.7-17.6,16.3.2.3.3.6.5.9,6.3-2.8,12.6-5.5,19.4-8.5,2.1,6.2,4,11.7,5.8,17.2.4-.1.7-.3,1.1-.4-1.8-5.6-3.6-11.2-5.6-17.2,12.4-5.4,23.8-12.3,36-18.1,5.7,6.4,6.7,15,8.8,23-.3,1.5-.6,3-.9,4.8,0,0-.3.3-.6.3-9.6,1.2-18.7,4.4-27.6,8.2-1.7.7-2.5,1.4-2.4,3.2-6.9,1.4-13.9,2.9-21.4,4.4.9,4.6,1.6,8.6,2.3,12.6-.6.5-1.2,1.1-1.9,1.7l-.3-.9c-3.4.9-6.8,1.9-10.3,2.4-2.5.6-3.7,1.6-5.7,3.2-.1.9-.2,1.4-.3,2-.5-.3-1-.5-1.5-.8-2.8,0-5.6,0-8.3,0,.3-.5.9-1.3,1.9-2.8-1.3-.6-2.3-1.2-3.3-1.7.4-1,.7-2,1.1-3-1.4-3-1.4-7.2-3.4-9.7-.5-.9-1-1.8-1.5-2.7,0,4.1.8,7.9,1.1,11.7.3,3.2,2.2,6.4.4,9.7-1.6.5-3.3,1.1-5,1.5-1.6.4-2.8,1.1-2.6,3-.4-.5-.8-.9-1.1-1.3-4.3,1-8.3,1.9-12.3,2.8-.4-1.1-.7-2.2-1-3.3-.8,0-1.4.2-2,.2,1.4-4.4-1.9-7.8-2.3-11.2-2.1,0-3.6,0-5.2,0,7.9-3.7,15.8-7.3,23.7-11l-.3-.7c-1.1.1-2.1.3-3.2.4-.3,0-.5,0-.8,0,.7-.5,1.4-.9,2.1-1.3-.2-3.9.3-4.5,5-5.4.3.8.7,1.9,1,3,.4-.4.8-.7,1.2-1.1-1.7-4.6-3.4-9.2-4.9-13.5.5-2.3,1-4.2,1.3-5.7-.8-2.1-1.4-3.7-2-5.3.3-.5.5-1,.8-1.4ZM955.1,498.8c.7,2.6,1.4,4.8,2,7.1,1,0,1.6-.2,2.9-.3-.8-2.8-1.4-5.3-2.2-8.2-1.1.6-1.7.9-2.8,1.4Z" fill="#f5f0d8"/>
        <path d="M931.2,464.7c.6,1.6,1.2,3.2,2,5.3-.3,1.5-.8,3.4-1.3,5.7,1.6,4.3,3.2,8.9,4.9,13.5-.4.4-.8.7-1.2,1.1-.4-1.1-.8-2.2-1-3-4.7.9-5.2,1.5-5,5.4-.7.4-1.4.9-2.1,1.3-3.5,1.8-7,3.5-10.5,5.3h0c-6.2,2.1-12.4,4.1-16.5,9.8-.2.2-.5.5-.7.7-1.4,0-2.6,1.8-4.2.1-.3-.3-1.7.4-2.7.6-.2-.2-.5-.5-.7-.7-.6-.5-1.1-1-1.9-1.8-1,2.2-1.8,3.9-2.6,5.5,2.6,2,2.8-.6,3.8-1.4,3.9,2.3,4.6,6.3,5.2,10.3.2,1.1.5,2.1.8,3.2-.4,1.8-.9,3.7-1.4,5.8-3.3.6-6.6,1.2-9.8,1.7-2.2-3.4-2.7-6-3.5-10-12.5,2.7-24.6,5.3-37,8,.5,3.9,1,7.4,1.5,11-7.5,1.6-12.9,2.3-18.3,8.1-4.1,4.3-8.7,9.9-9.4,15.9-2,3-3.9,6-5.9,9,3.5-13.2-12.9-30.5-1-41.8,5.1-4.9,13.7-7.4,20.2-10,7.6-3.1,15.4-5.7,23.1-8.5,14.9-5.4,29.1-11.7,42.7-19.9,6.4-3.9,12.6-8.1,18.3-12.9,5.8-5,9.7-11.1,14.3-17.1ZM817.5,547.1c-.8-3.4-1.6-6.4-2.4-9.8-1.3.6-2.2,1-3.4,1.5.7,3.1,1.4,6,2.1,9.3,1.4-.4,2.4-.7,3.8-1.1ZM905.6,499c.2,1.1.4,1.9.7,3.2,1.5-.6,2.7-1.1,4.4-1.8-.8-1.2-1.2-1.9-1.8-2.8-1.1.5-2,.9-3.3,1.4ZM899.6,502.8c-3.7-.7-4.5,0-3.6,3.2,1.6-.6,3.7-.5,3.6-3.2ZM891,501.9c0,.4,0,.8,0,1.2,2-.1,6-.7,4.4-3.8-1.6.9-3,1.8-4.4,2.6ZM841.1,536.4c1.1-.7,1.7-1.2,2.4-1.7-.5-1.2-.9-2.1-1.4-3.4-.9.5-1.6.9-2.3,1.3.4,1.2.8,2.2,1.4,3.8ZM880,511c.4.4.7.8,1.1,1.1,2.5-1.3,2.9-1.2,2-3.9l-1-.2c-.7,1-1.4,1.9-2.1,2.9ZM842.8,541c.2-.4.3-.9.5-1.3-2.6-1.3-2.6-1.4-4.4.7.2.3.3.5.5.8,1.1,0,2.3-.1,3.4-.2Z" fill="#faf8e8"/>
        <path d="M603.5,572.8c4.3.9,8.6,1.7,12.9,2.6l.4-1c-.7-.5-1.3-1-2-1.6.2-.3.5-.5.7-.8,5.5,2.5,11,5,16.6,7.5,2.5.5,5,.9,7.3,1.6,1.8.6,3.3.7,4.6-.8.8,0,1.5,0,2.3,0,1.6,2.3,3.9.3,5.8.9,3.4,1,6.8,1.7,10.8,2.6.5.5,1.3,1.4,2.1,2.3-.4,3.3-.8,6.5-1.2,9.9h-19.1c-3.9-.7-7.7-1.4-12-2.2v8.2c-15.5-.3-30.9-.5-46.4-.8-.4,0-.7-.2-.6-.1-2.1-1.9-3.8-3.5-5.6-5.1h0c-2.9-6-.9-12.1-.5-18.7,6.6-3.7,16.2-6.4,23.8-4.6Z" fill="#f5f0d8"/>
        <path d="M795.5,605.8c-.7,1.2-1.5,2.5-2.2,3.7-.5.2-1.1.4-1.5.8-1.8,1.5-3.5,3-5.2,4.5-.1-.9-.3-1.9-.4-2.7h-8.6c.2,1.1.3,1.8.5,2.8h4.7c-5.9,2.1-12,4.3-18.2,2.9-2.8-.7-5.6-1.7-8.1-3.3-2.2-1.4-3.3-3.1-5.9-3.4-5.3-3.7-10.5-7.5-15.8-11.2-.2-.6-.2-1.3-.6-1.7-8.8-8.1-16-17.5-23.4-26.8-.3-6.2-.3-12.5-1.6-18.7h-1c-2.1,3.1-1.2,8-1.2,11.8,0,3.8-.7,8.9,3.7,10.6.5.2,1,.5,1.5.7h0c.7,1.2,1.5,2.5,2.2,3.7.3,3.3,3.2,5.7,5.2,8.3h-9.7c-7.5-2-14.9-4.3-22.5-5.9-6.6-1.4-13.5-2.3-19.3,1.3-1.4-.3-2.3-.5-3.1-.6-.5-.5-1-1-1.5-1.5.5-.5,1-.9,1.5-1.4,10.4-1.1,20-5.6,26.8-13.6,7.7-9,10.7-23,21.4-28.8,2.8,4.7.6,10.3,0,15.3-.5,5.1-.5,10.5.9,15.5,1.5,5.3,4.7,9.3,8.1,13.6,3.8,4.7,7.5,9.5,11.6,13.9,14.5,15.4,42.8,14.6,61.6,10.3Z" fill="#faf8e8"/>
        <path d="M665,579.6c-.5.5-1,.9-1.5,1.4h-5.4c0,.3,0,.6,0,1,1.6.2,3.2.5,4.8.7.1-.2.3-.3.4-.5,1,1.2,2.1,2.4,3.1,3.5-1.8,9.9-1.7,15.4,0,16.7.6-5.3,1.1-10.7,1.7-16.1,1.1,5.2.3,11.2.3,16.5,4.8,0,9.2.6,13.9,1.5-32.6-.5-65.3-.5-97.9-2.4-1-1.5-2.6-3.6-4.1-5.8,1.7,1.6,3.5,3.2,5.6,5.1-.2,0,.2.1.6.1,15.5.3,30.9.5,46.4.8.6,0,1.2-.1,1.4-.2.2-1.8.4-3.3.6-4.7,3.5.2,6.6.4,10,.6-.1,1.4-.2,2.5-.3,4-2.4.1-4.4.3-6.4.4v.3h8.9v-5.1c-.7-.5-1.4-.9-2.1-1.4h19.1c.4-3.5.8-6.6,1.2-9.9-.8-.9-1.6-1.8-2.1-2.3-3.9-.9-7.4-1.6-10.8-2.6-1.9-.6-4.2,1.4-5.8-.9,6.2-.2,12.5-.5,18.7-.7ZM661.4,601.6h-10.4v-4.5h-3v5.4h16v-4.8c-1,0-1.7,0-2.6.1v3.8ZM652.4,598.3c.1,1.2.2,1.9.2,2.5h8.5c-2.6-3.5-5.6-2.3-8.7-2.5ZM644.4,599.7c-3.4-2.2-7.3-1.9-8.4.4,2.7.4,5.4.9,8.4-.4Z" fill="#e5e3d9"/>
        <path d="M615.5,572c-.2.3-.5.5-.7.8-5.9-1.1-12-2.8-18.1-2.6-5.6.2-11,2-16.4,3.3,8.9-4.2,18-5.9,27.7-2.7,1.1.4,2.5-.1,3.8-.2,1.2.5,2.5,1,3.7,1.5Z" fill="#e3e3dd"/>
        <path d="M644,580.3c-1.3,1.5-2.8,1.4-4.6.8-2.4-.7-4.9-1.1-7.3-1.6,4,.3,8,.5,12,.8Z" fill="#e5e3d9"/>
        <path d="M553.2,617.8c0,.3,0,.5,0,.8-1,5.3-2.1,9.2,4.7,10.4,3.6.6,7.5.5,11.2.8,3.4.3,9.8-.3,12.6,1.5-.4,0-1.4-.1-1.5.5,13,1.3,26,2.1,39,4,1.7,0,3.5,0,5.2.1,10.3.9,20.5,1.9,30.8,2.9,4.1.3,8.1.6,12.2.7,11.2.3,22.3.5,33.5.8,13,1.9,26,2.5,39,4.5v6c-16.2,0-32.4-3.1-48.6-4.2-16.6-1.1-33.1-2.6-49.7-3.3-16.5-.6-32.9-1.7-49.4-2.8-16.4-1.1-32.8-1.1-49.2-2.8-.1-.5-.2-1.2-.4-1.9.7-2.7,2.3-5.3.8-8.2,2.1-1.2,4.1-2.4,6.3-3.7,1.1-1.9,2.3-4,3.5-6.1Z" fill="#f5f0d8"/>
        <path d="M740.8,631.3c-.2,3.2-.5,6.5-.7,9.7-1,0-2,0-3-.1-7.8-.7-15.5-1.4-23.3-2.1-5.8-1.1-11.8-1.7-17.7-2.4v-6.2h4.1c-.5,1.6-1,2.9-1.6,4.9,6.1,1.3,11.9.5,18.2.6-.2-1.8-.3-2.9-.4-4.4h-8.4c0-.3,0-.6,0-.9,7.7.3,15.4.6,23.1,1,3.3,0,6.5,0,9.8,0Z" fill="#f5f0d8"/>
        <path d="M780.1,652.8v-11.3c6.5-1.3,12.6.7,19,.6-.3,3.9-.5,7.2-.8,10.7h-18.2Z" fill="#d8d8d7"/>
        <path d="M780.7,636.7v-11.1h4.3c.4,1,.8,2,1.3,3.3h11.8v8.6c-4.3,1.1-8.6,2.1-12.8,3.2,0-.2,0-.5,0-.7-1.3-.9-2.7-1.8-4.7-3.2Z" fill="#d8d8d7"/>
        <path d="M1262.1,604.6c.6-1.7.9-2.7,1.3-3.8h8.4c.4,5.8.9,11.8,1.3,17.5-8.7,3-17.7,1.5-26.7,2.1-9.2.6-18.4.8-27.6,1.6-.4-5.2-.8-10-1.2-14.5,3.7-1.4,6.1-2.7,10-2,3.9.7,7.7.6,11.7.2,7.6-.7,15.1-.9,22.7-1.1ZM1263.5,619.1c.1.3.3.6.4.9,2.6-.8,5.1-1.6,8-2.6-.4-5.2-.8-10.1-1.1-15.2h-6.8c-.5,1.2-.9,2.2-1.4,3.4-6.7.3-13.5.5-20.1,1.1-5.2.5-12.4,2.1-17.2-.9-2.1,1-3.9,1.9-5.7,2.9v11.8c14.5,1,29.3-1.9,43.9-1.4Z" fill="#dddaca"/>
        <path d="M815.3,651.1v-7.3h18.9v8.4c-6.4-.2-12.8,1.1-18.9-1.1Z" fill="#d8d8d7"/>
        <path d="M769.3,639.4c1.1-.7,1.9-1.2,3-1.9v-6.8h6c-.3,7.4.7,14.6-.9,22h-5.7v-7c-.9-.7-1.6-1.2-2.4-1.7v-4.6Z" fill="#d8d8d6"/>
        <path d="M916.2,640.3c-4.8-.1-9.6-.3-14.7-.4v-3.9c2,0,3.8-.2,5.8-.3,0-1,.2-1.9.3-3.2h12.5v7.8c-1.3,0-2.5,0-3.8,0Z" fill="#d8d7d4"/>
        <path d="M897.3,646.4v5.2c-7.4-.5-14.7.8-22-1.1v-5c7.4,0,14.6.3,22,.9Z" fill="#d8d8d6"/>
        <path d="M1206.6,607.5h8.7c.4,4.7.8,9.4,1.2,14.4-2.8.3-5.1.5-7.8.8-.6-4.9-1.3-9.8-2-15.2Z" fill="#e4e1d1"/>
        <path d="M741.8,632.9h9.7c.7.6,1.6,1.3,2.7,2.1h5.7v4.3c-6,.4-11.9.7-18.2,1.1v-7.5Z" fill="#e3dfd0"/>
        <path d="M849.5,625.2c2.2,4.3,4.4,8.7,6.6,13.1,1.4,2.9,2.9,5,6.2,5.6,4.9,1,10.9,0,15.9,0,5.2,0,10.4,0,15.6,0,20.3-.2,39.9-3,60-5.3.7,0,1.5,0,2.2.1,0,.2,0,.4,0,.5-10.7,1.6-21.4,2.6-32.1,4.1-9.7,1.3-19.8.8-29.5.9-10.1.1-20.5.9-30.6.5-9.4-.4-11.3-12.3-14.3-19.6Z" fill="#e4e4de"/>
        <path d="M954.5,637.3c-3.7.2-7.5.4-11.2.7-.7-.5-1.3-1.3-2.1-1.4-1.5-.2-3.1,0-4.7,0v-4h20.6c.2,1.4.3,2.8.5,4.4-1.2.2-2.2.3-3.1.5Z" fill="#d8d8d5"/>
        <path d="M990.5,643.2c8.9-2.8,16.9-5.3,26.2-5.8,8.3-.4,16.7-.8,25-.9,8.3,0,16.2.5,24.6-.2,8.7-.8,17.5-1.9,26.2-2.8v.7c-16.6,2.5-33.8,4.3-50.5,3.2-8.4-.6-17.1.2-25.5.8-4.6.3-9.1.6-13.5,1.9-4.2,1.3-7.9,3.1-12.4,3.1Z" fill="#e5e4de"/>
        <path d="M936.5,636.5c1.6,0,3.1-.1,4.7,0,.7.1,1.4.9,2.1,1.4-14.2,2.3-27.9,3.9-42.3,3.8-6.8,0-13.6,0-20.4.3-7.2.2-14.4,1.1-21.3-1,1,0,2,0,3,0,0,.1-.1.2-.2.3.8.1,1.6.4,2.4.4,10.5-.3,20.9-.6,31.9-1,.5-1.3,1-2.8,1.7-4.5.2,1.5.3,2.9.5,5,5.9-.3,11.8-.7,17.7-1,1.3,0,2.5,0,3.8,0,4.4-.5,8.8-1,13.3-1.6.1-2.2.2-4,.3-5.9.1,0,.3,0,.4,0,.1,1.6.3,3.2.5,5h5.8c-1.4-.5-2.6-.9-3.8-1.3Z" fill="#e6e5de"/>
        <path d="M851.4,653.5h-6.3c.3-5.2.6-10.1.9-15.2h5.3v15.2Z" fill="#e4e0d1"/>
        <path d="M1002.3,644.8c.3,2.6.6,4.7.9,7.2h-11.5c-3.2-8.6,4.2-7.2,10.6-7.2Z" fill="#e5e1d2"/>
        <path d="M796.3,619.2c6.5.5,13,1.2,19.6,1.5,9,.4,18.1.4,27.1.9,2.5.1,5.6.2,6.6,3.7-5.4-4.7-15-3-21.5-3,1,.6,1.5,1,2.3,1.5-.2,1.1-.4,2.2-.6,3.5h-4v-5.2h-16.8c0,.5-.3,1.6-.5,2.8h-4.3c-.2-1.2-.3-2.3-.5-3.6-2.4-.4-5-.9-7.5-1.4,0-.3,0-.5,0-.8Z" fill="#e2e1db"/>
        <path d="M1092.5,634.3v-.7c14.3-1.4,29-4.1,43.2-1.8,6.7,1.1,13,1.4,19.6,3.4,5.7,1.7,13.3,3.1,18.2,6.6,0,.3,0,.5,0,.8-13.1-4.4-25.4-9.5-39.4-9.7-14-.2-27.7.5-41.6,1.5Z" fill="#e5e4de"/>
        <path d="M753.1,647.1h11.4v5.5h-11.4v-5.5Z" fill="#e4e0d1"/>
        <path d="M713.8,638.8c7.8.7,15.5,1.4,23.3,2.1,1,0,2,0,3,.1,2,.5,3.9,1,6.1,1.6-1.6,3.4-4.2,1.7-6.1,2.2-13-2-26-2.6-39-4.5,0-.2,0-.5,0-.7,14.3,1.8,28.7,3,43,4.4,0-.4,0-.8.1-1.2-5.8-.9-11.5-1.7-17.3-2.2-4.8-.4-10.9.2-15.4-1.8.8,0,1.5,0,2.3,0Z" fill="#e3e2da"/>
        <path d="M855.5,633.5c-1.3-2.5-2.6-5-3.8-7.6-1.8-4-5.1-5.7-9.2-5.8-10.1-.3-20.1-.2-30.2-.9-5.9-.4-12,.2-17.6-2.1,5.1-1.3,12.2.8,17.6,1,6.7.2,13.5.4,20.2.6,4.7.2,10.6-.3,15,1.6,5.2,2.2,6.2,8.4,7.8,13.3Z" fill="#e4e3dd"/>
        <path d="M808.4,626.2h4.6c-.3,4.4-.6,8.5-.9,12.9h-4.7c.3-4.4.6-8.4,1-12.9Z" fill="#e4e0d1"/>
        <path d="M854.3,622.2c0-.8-.2-2-.4-3.8,4.8-.3,9.1-.5,13.9-.8v4.6h-13.5Z" fill="#d8d8d5"/>
        <path d="M965.8,639.5v-5.9c3.1-2.4,6.2-1.5,9.4-.4.3,1.4.6,2.8.9,4.6-.6.3-1.3.7-2,1.1-1.5-.6-2.9-1.2-4.4-1.8,0,.4,0,.7,0,1.1-1.3.5-2.6,1-3.9,1.4Z" fill="#d8d8d5"/>
        <path d="M784.3,617.8c.7,0,1.5,0,2.2,0,.8.5,1.5,1,2.3,1.5,2.7.7,5.5,1.4,8.7,2.2,0,1.1-.1,2.2-.2,3.6-4.3-.4-8.1-.8-11.7-1.1-.5-2.2-.9-3.8-1.3-5.4,0-.2,0-.5,0-.7Z" fill="#d8d8d5"/>
        <path d="M914.8,630.6c.2-1.5.3-2.4.4-3.2h15.4c.2,1.2.4,2.1.6,3.1-5.5,1.9-10.6-.5-16.4,0Z" fill="#d7d7d4"/>
        <path d="M989,637.4c0,1-.1,2.3-.2,4-1.6.2-2.9.3-4,.4.5-1.3,1-2.4,1.4-3.6-.2,0-.4-.2-.6-.3-.2.6-.4,1.2-.8,2h-3.7v-3.6c1.1-.4,2-.7,2.9-1,.4-.8.7-1.6,1.3-2.8,1.3,1.7,2.4,3.1,3.7,4.8Z" fill="#dcdad1"/>
        <path d="M965.8,639.5c1.3-.5,2.6-1,3.9-1.4,0-.4,0-.7,0-1.1l4.4,1.8c2.2,1.9,1.8,3.5-1.1,5.4-2.3-1.5-4.7-3.1-7.2-4.7Z" fill="#edebe0"/>
        <path d="M1101.8,641.8v-6.8c1.4-.2,2.8-.5,4.5-.8.4,2.4.7,4.3,1.1,7-1.7.2-3.4.4-5.6.6Z" fill="#e2decf"/>
        <path d="M765.5,628.9c.2-1.4.3-2.3.5-3.4h8c.2,1.1.3,2.3.6,4.2-3.2-.3-5.8-.5-9-.8Z" fill="#e3dfd0"/>
        <path d="M543.5,627.5c1.5,2.9,0,5.5-.8,8.2,0-.8-.1-1.7-.2-2.7-1.6.7-2.9,1.3-4.6,2-.6-1-1.3-1.9-2.1-3.2,1.4-1.1,2.6-2,3.9-2.9,1.1.5,2,.8,3.2,1.4.2-1,.4-1.8.6-2.7Z" fill="#e6e4d7"/>
        <path d="M1090.2,636.3c1.7-.2,3-.4,4.9-.6v7.2c-1.2.1-2.4.2-3.7.3-.4-2.3-.7-4.2-1.2-6.9Z" fill="#e2dfcf"/>
        <path d="M924.1,636.9v-3.8h6.1v3.8h-6.1Z" fill="#d9d9d4"/>
        <path d="M862.2,641c-1,0-2,0-3,0-.2-.7-.5-1.5-.7-2.2.6-.7,1.3-1.4,1.8-2h5.3c0,1.3.1,2.4.2,3.9-1.5.1-2.5.3-3.6.4Z" fill="#d9d9d4"/>
        <path d="M896.1,627.9v-3.9h4.9c0,1.3.1,2.4.2,3.9h-5.1Z" fill="#d7d7d4"/>
        <path d="M963.1,632.5c-.6,0-1.3,0-2.3.2v-7.1c3,.6,3.2,1.2,2.3,6.9Z" fill="#d8d8d3"/>
        <path d="M1173.5,642.5c0-.3,0-.5,0-.8,7,1.4,14,2.8,21,4.2,1,.2,2,.3,2.9.4,0,.2,0,.5,0,.7-8-1.5-16-3-24-4.5Z" fill="#e3e3dd"/>
        <path d="M937.2,629c6.8.4,13.6.8,20.4,1.2,0,.3,0,.6,0,.9-6.8-.4-13.6-.8-20.4-1.2,0-.3,0-.6,0-.9Z" fill="#e9e7db"/>
        <path d="M740.8,631.3c-3.3,0-6.5,0-9.8,0,0-.3,0-.5,0-.8,6.1,0,12.1,0,18.2,0,1.4,0,2.9-.5,4.3-.8.2,2.1-1.3,1.5-2.3,1.5-3.5,0-6.9,0-10.4,0Z" fill="#e0dfd7"/>
        <path d="M784.3,617.8c0,.2,0,.5,0,.7-4.8,1-9.7,2-14.5,3-.6.1-1.3-.4-2-.7,5.5-1,11-2,16.5-3Z" fill="#e5e4de"/>
        <path d="M874.7,629c2.4.5,4.1.9,6.3,1.4-2,2.5-4.1,1.3-6.4,1.6,0-1,0-1.8.2-3.1Z" fill="#d8d8d3"/>
        <path d="M907,623.3v4.5c-1.5-.7-2.6-1.2-3.7-1.7,0-.4,0-.7,0-1.1,1-.5,2.1-1,3.7-1.8Z" fill="#d9d8d3"/>
        <path d="M788.8,619.2c-.8-.5-1.5-1-2.3-1.5,1.1-.5,2.1-1.1,3.4-1.7,2.1,1.1,4.2,2.1,6.4,3.2,0,.3,0,.5,0,.8-2.5-.9-4.9-1.8-7.9-2.9.2,1.3.3,1.7.4,2.1Z" fill="#e5e4de"/>
        <path d="M1001,637.3c0,.3,0,.5,0,.8-3.5,1.2-7,2.5-10.5,3.7.6-.5,1.1-1.2,1.8-1.5,2.9-1.1,5.8-2,8.7-3Z" fill="#e4e3dd"/>
        <path d="M1128.8,504.1c-1.4-3.1-2.7-5.8-4.3-9.3,7.1-3.2,14-6.4,21.5-9.8-.9-1.8-1.8-3.6-2.8-5.6-4.2,1.8-8,3.4-12.2,5.2-1.1-2.4-2.1-4.6-3.2-7,6.3-2.7,12.1-5.3,18.4-8.1,2.1,4.5,4.1,8.4,6.2,12.9,45.7-20,91.1-39.9,136.7-60,1.5,3.3,2.8,6.2,4.3,9.6-55,24.1-109.5,48-164.5,72.2Z" fill="#fefefe"/>
        <path d="M1256,504.5c-13.4,3.2-26.7,7-40.4,9.2-13.5,2.3-27.1,4-40.6,6.2-26.4,4.3-53.2,5-79.7,8,1.9-11.4,3.7-22.3,5.4-33.2.7,5.2-.7,10.5-1.6,15.7-.9,5.4-1.9,10.9-2.8,16.3,13.2-1,26.2-3,39.4-3.6,14.1-.6,27.9-2.3,41.8-4.8,13.1-2.3,26.3-3.8,39.3-6.2,13.1-2.4,26-6.3,39.1-8.4,0,.2,0,.5,0,.7Z" fill="#e4e3dd"/>
        <path d="M1321.7,459.1v9.8h-4.7v-9.8h4.7Z" fill="#d8d8d5"/>
        <path d="M1379.5,448.7c.1,1.4.2,2,.2,3.1-4.6.9-9.1,1.8-13.9,2.7,0-1.4-.1-2.1-.2-3.1,4.5-.9,9-1.8,13.8-2.8Z" fill="#d8d8d4"/>
        <path d="M1338.3,457v3.1c-4.2.8-7.5,2.3-11.3,0,0-.4.2-.8.3-1.1,3.5-.6,7-1.3,11-2Z" fill="#d7d7d3"/>
        <path d="M1102.2,491.7c.8-4.5,1.5-9,2.3-13.6,1.2-6.7,2.5-13.4,3.8-20.1,0-.3.4-.6.7-.9-1.1,6.7-2.2,13.4-3.3,20.1-.3,1.8-3,14.8-3.5,14.4Z" fill="#e3e2dd"/>
        <path d="M1295,487.2c-6.2,2.5-12.5,5-18.7,7.5.2-2.4,16.3-8.9,18.7-7.5Z" fill="#e4e3dd"/>
        <path d="M1356.1,477.3c.4,1.9.7,3.1,1.1,4.8-1.3.2-2.5.4-4.1.6-.2-1.7-.3-2.9-.4-4.4,1.2-.3,2.1-.6,3.4-1Z" fill="#d8d8d3"/>
        <path d="M1321.3,479c-1,.2-2,.5-3,.7h-.4s-.4,0-.4,0c-.5-2.4-2.5-1.1-3.8-1.5-.2-.5-.3-.9-.6-1.7,2.8.1,5.2.2,7.8.4.1.8.3,1.4.4,2.1Z" fill="#d5d5d0"/>
        <path d="M1356.1,457.1c-.9,0-1.8-.1-2.9-.2-.2-1.3-.3-2.4-.4-3.4,3.3-.8,3.6-.4,3.3,3.6Z" fill="#d8d8d3"/>
        <path d="M1313.7,478.3c1.3.3,3.2-.9,3.8,1.5-3.8,1-7.5,2.1-11.3,3.1,2.8-1.3,5.5-3,8.6-3.1-.5-.7-.8-1-1.1-1.4Z" fill="#e5e4df"/>
        <path d="M1256,504.5c0-.2,0-.5,0-.7,3.1-1.4,6.2-2.9,9.3-4.2.3-.1.8.3,1.2.5-3.5,1.5-7,3-10.5,4.5Z" fill="#e4e4df"/>
        <path d="M980.8,566.7c.2,0,.5,0,.7,0,1.3.2,2.6.7,4,.7,2.9,0,5.9-.4,8.8-.7,2,.4,4,.8,6.4,1.2.3,3.1.7,6.5,1,10.1-8.3,2.5-16.6,1.1-24.6,1.7-7.9.6-15.7-2.4-24.2-2.4.7-2,1.5-4.5,2.3-6.9,0-2,0-4,0-6,.2,0,.5,0,.7,0,.1.3.2.6.5,1.3.2-1.9.4-3.2.6-5h7.9c4.6-.3,9.3-.6,13.3-.9,1,2.9,1.8,4.9,2.5,6.9Z" fill="#f5f0d8"/>
        <path d="M1082.8,530.8c19.2-2.2,38.2-4.4,57.5-5.5,19.5-1.1,38.6-4.6,57.9-7.4,19-2.7,38.3-6.6,56.8-11.8,8.4-2.4,15.8-7.3,23.7-10.9,8.3-3.8,16.9-6.6,25.4-10,0,.2,0,.5,0,.7-9.2,3.8-18.5,7-27.5,11.4-9.4,4.6-18.1,9.4-28.3,11.9-20.5,5-41.5,8.1-62.3,11.6-21.1,3.5-41.9,4.5-63.1,6.3-10.4.9-20.7,2.8-31,4.2-10.6,1.4-20.8,1.9-31.5,1.9,0-.3,0-.5,0-.8,5.5,0,11,0,16.5,0,2-.5,4-1,6-1.5Z" fill="#e4e3dd"/>
        <path d="M923,561.5v7.8h-25.5v-8.5c8.5.2,17,.5,25.5.7Z" fill="#f5f0d8"/>
        <path d="M1066.7,535.5c8.1-.4,15.9-.7,24.1-1.1.1,2.2.2,4.1.3,6-3,1.3-20.3,2.6-24.4,1.8v-6.7Z" fill="#e6e2d3"/>
        <path d="M923,561.5c-8.5-.2-17-.5-25.5-.7-8.5,0-17,0-25.6,0-.3,1.1-.6,2.1-1,3.5h-4.4c-.3-1.3-.5-2.5-.9-4.2-12.2,0-24.5.7-35.8-6.4-1.7,2.6-3.1,5.4-5.7,7.1,1.6-2.6,3.2-5.2,4.9-8,2.8,1.1,5,1.8,7.1,2.8,4,1.9,8.1,3,12.6,3,7.7,0,15.4.6,23.1.7,29.1.3,58.2.5,87.2.7,2,.3,4,.5,6,.8h-7.9c-.2,1.8-.3,3.2-.6,5-.3-.7-.4-1-.5-1.3,0-1.1-.1-2.2-.2-3.7-10.7,0-22.3-1.3-32.8.7Z" fill="#e4e3dc"/>
        <path d="M1242,538.9c.5,1.7.8,3,1.2,4.2,7.2-.4,14.1-.7,21.4-1.1v10.7c-2.2,1.4-43.3,4.1-50.9,3.2-2-4.8-1-9.9-1.2-15.2,10-.6,19.7-1.2,29.4-1.8ZM1241.4,540.3c-9.4.3-18.7.5-28.3,1.7.4,4.8.8,9,1.2,13.5,16.6-1,33-2.1,50.1-3.1-.4-3.1-.8-5.9-1.2-9-7.2.3-14.1.6-20.9.9-.4-1.7-.6-2.8-.9-3.9Z" fill="#dddaca"/>
        <path d="M1283.4,541.6v7.2c-2.1-.4-3.8-.7-5.6-1.1,0,1.2-.2,3-.3,5.1h-9.5c-.3-2.9-.6-6.1-1-9.7,5.8,0,10.7-.3,16.4-1.6Z" fill="#e4e0d1"/>
        <path d="M1087,577.4c0,1.6.1,2.8.2,3.9-3.2.4-6.1.8-9.4,1.3-4.5-.7-9.5-1.4-14.9-2.2v-4.2c7.9.4,15.7.7,24.1,1.1Z" fill="#d8d8d6"/>
        <path d="M1022.3,564.6v-4h18.7c.2,1.7.4,2.9.5,4.2-3.5.7-6.6,1.8-9.7,1.8-3,0-5.9-1.2-9.5-2Z" fill="#e5e1d2"/>
        <path d="M1066.5,565c-.1-1.7-.2-3-.3-4.4,4-2,8-1.7,11.8-.9,2.5.5,5.5-.6,8,1.9-2.4,1.5-4.5,2.8-7,4.5-3.4-3.1-7.8-.5-12.5-1.1Z" fill="#d8d8d6"/>
        <path d="M1217.3,534.4h-5.6c-.4-4.9-.9-9.8-1.4-15.2,2-.2,3.7-.3,5.8-.5.4,5.3.7,10.3,1.1,15.7Z" fill="#e5e1d2"/>
        <path d="M1026.3,576.1c.6-2.9,1-4.8,1.4-6.8,3.8.2,7.4.4,11.2.7v7.1c-4.2-.3-8.2-.7-12.6-1Z" fill="#e4e0d1"/>
        <path d="M1300.6,503.8c1.7.4,2.6.7,3.6.9.3.9.7,1.8.9,2.5,2.1.4,4,.7,6,1v4.4c-3.6-.3-7-.5-10.6-.8v-8Z" fill="#d7d7d4"/>
        <path d="M1282.7,518c4.6.7,8.5,1.3,12.6,1.9v4.8c-4.6-.7-8.6-1.4-13-2.1.2-1.7.3-2.9.4-4.6Z" fill="#d8d8d5"/>
        <path d="M965,560.7c-2-.3-4-.5-6-.8,3.7-1.6,8.8-.8,12.9-.9,4.8,0,9.6-.2,14.4-.3,9.2-.2,18.3-.9,27.5-1.8-4.2,2.9-11,2.1-16.1,2.3-5.6.2-11.2.4-16.9.6v6.9c-.7-2-1.5-4-2.5-6.9-4,.3-8.6.6-13.3.9Z" fill="#e6e5dc"/>
        <path d="M994.3,566.8c-2.9.2-5.9.6-8.8.7-1.3,0-2.6-.5-4-.7.1-1.1.2-2.1.4-3.4,4.3-.4,8.3-.7,13.2-1.1-.4,2-.6,3.3-.8,4.6Z" fill="#e2dfd0"/>
        <path d="M1298.8,512.3c-.2,1.8-.3,3.1-.4,4.8-3.9-.5-7.4-1-11.5-1.6,0-1.6.2-3.1.3-5,4.1.6,7.6,1.1,11.6,1.8Z" fill="#d8d8d5"/>
        <path d="M1103.4,577.6v4.8c-3.7-.3-7.3-.5-11.2-.8-.1-1.3-.2-2.4-.3-4h11.6Z" fill="#e2dfd0"/>
        <path d="M1189.9,544.8v5.2h-10.1c0-1.1-.2-2.4-.3-4.2,3.5-.3,6.7-.6,10.4-1Z" fill="#d8d8d5"/>
        <path d="M1223.9,524.5c1.3-.2,2.4-.4,3.7-.7,2.4,3.2,1.1,6.6,1.4,10.2-1.5.1-2.6.2-4.1.4-.3-3.3-.6-6.2-1-9.9Z" fill="#e2dfcf"/>
        <path d="M955.3,564.5c0,2,0,4,0,6,0-.6-.1-1.2-.2-2.2-2.5.5-4.8,1-7.7,1.6v-6.4c2.8.3,5.3.7,7.9,1Z" fill="#e3e0d0"/>
        <path d="M1267.5,518.8c-1.5,4.2-2.9,8.5-4.5,13-.9.1-1.8.2-2.7.4-.2-.2-.5-.5-.7-.7.6-.9,1.3-1.9,2-3,1-3.6,1.2-9.5,5.1-10.4.2.3.5.5.7.8Z" fill="#d8d7d3"/>
        <path d="M1330,494.5c-.4-1.8-.8-3.2-1.1-4.6,2.6-2.7,5,1,7.5-.7.6,1.5,1,2.4,1.6,3.9-2.8.5-5.2,1-8,1.5Z" fill="#e2decf"/>
        <path d="M930.2,569.6h-5.9c-.2-1.5-.3-2.9-.5-4.7,2.3-.2,4.2-.3,6.4-.4v5.2Z" fill="#e2decf"/>
        <path d="M1055.9,566.1v-5.2c1.8,0,3.4-.2,5.4-.3.5,1.4.9,2.6,1.3,3.7-1.9,2.6-4.2,1.2-6.7,1.7Z" fill="#e1dece"/>
        <path d="M1324.3,519.3c-1.8,0-3.2,0-4.9-.3,0-1.4-.1-2.7-.2-4.4h5.7c-.2,1.7-.4,3.2-.6,4.7Z" fill="#d8d8d4"/>
        <path d="M1304,485.8c0-.2,0-.5,0-.7,8.1-3.3,16.5-4.5,25.2-3.8,2.1.2,4.2.5,6.3.8-.4.2-.9.7-1.2.7-10-1.7-19.7-.7-29.1,3-.3.1-.7,0-1.1,0Z" fill="#e1e0da"/>
        <path d="M884.8,565.8h-5.7v-4.1h5.5c0,1.3.1,2.5.2,4.1Z" fill="#e1dece"/>
        <path d="M1320.1,508.5h3.9v4.8c-1.3,0-2.4.1-3.9.2v-5Z" fill="#d8d7d4"/>
        <path d="M1060.1,554.2v4h-4.8v-4h4.8Z" fill="#d7d7d3"/>
        <path d="M1305.7,536.1v-5h4c.1,1.6.2,3,.3,4.7-1.5,0-2.7.2-4.3.3Z" fill="#d7d7d3"/>
        <path d="M1278.3,508.3v4.8c-1.3.1-2.4.2-4.1.4.2-2,.3-3.4.5-5,1.4,0,2.3-.1,3.7-.2Z" fill="#d9d9d4"/>
        <path d="M1110.6,580c-1.5,2.5-3.6,1.5-5.9,1.6,0-1.2.1-2.1.2-3.2,2.4-.4,4.5-1.4,5.7,1.6Z" fill="#d9d9d3"/>
        <path d="M1328.1,486.1c-.3,1.8-.5,2.7-.6,3.9h-5.2c0-.7-.2-1.4-.3-2.5,1.8-.4,3.5-.8,6.1-1.4Z" fill="#d8d8d3"/>
        <path d="M1316.4,534.4h-3.9v-3.9c1.3-.2,2.4-.3,3.9-.5v4.4Z" fill="#d8d8d4"/>
        <path d="M1080.2,545.8c0,1.7.2,2.9.2,4.2h-4.2c0-1.2-.2-2.4-.3-4,1.4,0,2.5-.1,4.2-.2Z" fill="#d8d8d3"/>
        <path d="M1060.2,532.3c0,.3,0,.5,0,.8-2.2,1.3-4.3,2.8-6.6,4-3,1.5-6.1,2.9-9.1,4.3,0-.3,0-.5,0-.8,5.2-2.8,10.5-5.5,15.8-8.3Z" fill="#e4e3de"/>
        <path d="M1021.1,579.1c-1.3-.5-2.5-1-3.8-1.5,0-.4,0-.9,0-1.3,1.3-.5,2.5-1,4.4-1.7.1,1.7.2,2.7.3,3.7l-.8.8Z" fill="#e0ddcd"/>
        <path d="M1170.9,567.9c-1.4.1-2.4.2-3.5.3-.7-3.2-.5-3.5,3.7-3.5,0,1-.1,2-.2,3.1Z" fill="#d7d7d3"/>
        <path d="M1102.7,558c.3.9.5,1.7.8,2.7-1,.5-1.8,1-3.1,1.7-.5-1.5-.9-2.7-1.4-4.4h3.7Z" fill="#d9d9d3"/>
        <path d="M1016,555.5c4-2,8-4,12-6-.3,2.4-9.8,6.9-12,6Z" fill="#e4e3dd"/>
        <path d="M1324.6,506.8l-4.7-.6c0-.5,0-1,0-1.5,2.9-.8,3.2-1,5.3,1-.2.4-.4.7-.5,1.1Z" fill="#d8d8d3"/>
        <path d="M1044.5,540.5c0,.3,0,.5,0,.8-3.8,2-7.6,4-11.3,6,3.8-2.2,7.6-4.5,11.3-6.7Z" fill="#e4e3dd"/>
        <path d="M1312.3,492.7h4c0,.8.2,1.5.3,2.6h-4.1c0-.8-.1-1.5-.2-2.6Z" fill="#dedbcb"/>
        <path d="M561.3,586.8c.8,1.4,1.3,2.3,1.9,3.5-3.2,2.3-6.7,2.8-10.3,2.6-1,0-1.9-1.4-3.2-2.4,3.4-3.8,7.6-2.7,11.6-3.6Z" fill="#99d4f1"/>
        <path d="M580.3,573.5c-.9,1.1-1.9,2.3-2.7,3.3-.5,4.5-1.1,8.8-1.7,13.8.5,4.9,5,8.2,8.2,13.1-.7,3.3-1.5,7.2-2.4,11-.2,0-.5,0-.7,0,.3-2.1.6-4.1.8-5.4-.8-1.8-1.4-3-2-4.4,1.3-.5,2.1-.7,2.9-1-2.1-4.8-7.1-7.6-7.6-13.2-.4-4.9,1-10.3,1.8-15.1.8-.5,2-1.3,3.3-2.1Z" fill="#e3e3dd"/>
        <path d="M581,614.8c.2,0,.5,0,.7,0-1.6,3.6-14.3.7-17.4.3-5.9-.7-13.2.2-18.6-2.6.2-.2.5-.5.7-.7,6,1.5,12,2,18.2,2.5,4.9.4,11.7,2.2,16.3.5Z" fill="#e6e5df"/>
        <path d="M588.7,566.1c4-1.9,7.2-1.4,9.9,2-3.8-.4-6.9-.7-10.1-1,0-.3,0-.7.1-1Z" fill="#d8d8d2"/>
        <path d="M1007,416.8c0-.3,0-.5,0-.8,2.1,5.5,4.2,11.1,6.4,17,4.8-1.8,9.6-3.7,14.5-5.6-.6-2.3-1.1-4.2-1.6-6,.2,0,.3-.1.5-.2.9,2,1.7,4,2.6,6,2.4,3.1,4.7,6.2,7.3,9.6-2.1,4.6.7,13.9,5.5,16.4-1.7.6-1.8,1.8-1.2,3.3.6,1.4,1.6,2.7,1.7,4.1.4,6,2.9,11.4,3.5,17.4,1,9.7,4,19.1,5.9,28.7,1,5.1,4.9,8.2,7.6,12.1,2.9-.4,5.4-.7,8.1-1.1,2.1-2,2.6-3.1,1.8-6.2-1.5-5.6-3.1-11.3-4.6-16.9-2.5-9.1-4.9-18.2-7.3-27.3-1.1-4.2-.5-5.2,3.7-6.6,2-.7,4.1-1.2,6-2.1,1.2-.5,2.2-1.4,3.3-2.2.2,0,.5,0,.8,0,0,.3,0,.5,0,.8-4.3,2.1-8.5,4.2-13.1,5.7.3,6.4,2.5,12.5,4.1,18.7,1.8,6.9,3.7,13.7,5.5,20.6.9,3.4,4,9.8,2.7,13.5-1.5,4.4-8.3,3.6-11.7,3.6-5-5.2-7.6-11.1-9-18.1-.8-4-1.6-7.9-2.4-11.9-.5-2.4-1.3-11.9-3.5-12.7.4,8.7,2.3,17.2,4.8,25.6v7.5c-3.2.7-6.8,1.6-10.5,2.4,0-.2-.1-.4-.2-.6,2.1-.9,4.3-1.9,6.9-3-1.2-1.5-1.8-2.3-2.5-3.3-3,.9-5.8,1.8-9.1,2.8.7,1.8,1.2,3.1,1.7,4.5-.2.2-.7.6-1.3,1-2,.6-4,1.3-6.3,2,1.9,9.1,3.7,17.8,5.6,26.5-.3.3-.5.5-.8.8-2.3-10.7-5.4-21.6-6-32.6-.3-5.4.7-10.7.8-16.1.1-5.5-1.2-10.9-2.4-16.3-2.4-10.2-4.6-20.2-9-29.8-2.2-4.8-2.7-9.8-3.9-14.9-1.4-5.5-3.2-11-4.8-16.4ZM1034.4,442.1c-6.2.7-11,3.3-16.5,5.1.7,1.5,1.2,2.6,1.7,3.9,5-1.7,9.8-3.3,14.7-4.9v-4.1ZM1028.6,471.4c4.7-1.9,9.1-3.6,13.8-5.5-3.2-2.8-15,1.5-13.8,5.5ZM1021.8,437.8c3-1.3,5.8-2.5,8.6-3.7-.1-.4-.3-.8-.4-1.2-3.4-.6-6,1.9-9.4,2.6.5,1,.8,1.6,1.2,2.4ZM1025.2,462.4c5,.2,8.1-1.5,8.4-4.3-3,1.2-6.3,1.5-8.4,4.3ZM1029.4,482.4c2.8,2.4,6.9,1.3,8.4-2-3.1.7-5.7,1.4-8.4,2ZM1039.8,493.9c-2.8.7-5.4,1.3-8.5,2.1,3.5,2.3,7.6,1.2,8.5-2.1Z" fill="#efedde"/>
        <path d="M1070.8,456.5c-1.1.7-2.1,1.7-3.3,2.2-1.9.8-4,1.4-6,2.1-4.2,1.4-4.8,2.4-3.7,6.6,2.4,9.1,4.9,18.2,7.3,27.3,1.5,5.6,3.1,11.2,4.6,16.9.8,3.1.4,4.2-1.8,6.2-2.6.3-5.2.7-8.1,1.1-2.7-3.9-6.6-7-7.6-12.1-1.9-9.6-4.9-19.1-5.9-28.7-.6-6-3.1-11.5-3.5-17.4,0-1.4-1.1-2.7-1.7-4.1-.6-1.5-.5-2.7,1.2-3.3-4.8-2.6-7.6-11.8-5.5-16.4-2.6-3.4-4.9-6.5-7.3-9.6,4.9-1.6,10.7-4.8,15.9-4.2.9,2.7,1.9,5.3,2.9,8.1,1,0,2,0,3.4-.2-1.1.9-1.9,1.5-2.8,2.2,1.6,4.7,3.1,9.3,4.7,14.1,5.9-.9,12.4-2.8,18.4-2.7,2.7,0,5,.6,7.8.2,2.4-.3,5.6-2,7.6-.2l-14.9,1.5c0-.3,0-.6-.1-1-1.2.4-2.3.8-4,1.3.8,3.4,1.6,6.7,2.4,10Z" fill="#f5f0d8"/>
        <path d="M1071.5,457.3c0-.3,0-.5,0-.8,9-8,23.6-5.8,34.6-5.4-2-4.8-4-9.8-6.1-14.8.2-.2.5-.5.7-.7,2.3,5.6,4.7,11.3,7.3,17.6-6.1-.6-11.5-2.4-17.8-1.7-6.9.8-12.8,2.5-18.8,5.9Z" fill="#e4e3de"/>
        <path d="M1100.7,435.5c-.2.2-.5.5-.7.7-2.7-8.4-5.2-16.8-4.5-25.8,0-1.2.5-2.3.7-3.5-.7,9.9,1.4,19.3,4.5,28.5Z" fill="#e2e1dc"/>
        <path d="M1063.7,435.9c.2-2.7,1.7-3.5,5.3-2.8-.9,2.3-1.5,2.6-5.3,2.8Z" fill="#d8d7d2"/>
        <path d="M665.7,627.5c-.3-2.8-8.6-1.2-11.1-1.5-5.1-.6-9.9-2.3-14.6-4.3-8.8-3.8-19.2-5.5-25.3-13.6.1-.9.2-1.9.4-3.1,22,3.8,45-.2,67.1,1.5h0c3.8.7,7.7,1.4,11.4,2.3,3,.7,6.6-.4,8.6,2.6-.7,5.3-1.4,10.3-2.2,15.6-3.2-.4-5.7-.6-8.5-.9.6.7.9,1.1,1.2,1.5.2.5.5,1,.7,1.5-.5,1-.9,1.9-1.5,3.2-1.4-.9-2.6-1.6-3.6-2.2h-6.6c-.5,1.9-1,3.7-1.7,6-9.8-.3-19.6-.7-29.4-1,.2-2.2.5-4.5.7-6.7,2.9,0,5.7,0,8.6,0,1.9,0,3.8-.5,5.7-.7Z" fill="#f5f0d8"/>
        <path d="M959,507.5c3.5-.5,6.9-1.5,10.3-2.4l.3.9c.6-.6,1.3-1.1,1.9-1.7-.8-4.1-1.5-8-2.3-12.6,7.5-1.6,14.4-3,21.4-4.4.5.2,1.1.4,2,.8-.2-.7-.4-1.1-.5-1.5,3.3-1.2,6.5-2.5,9.8-3.7,3.2-.3,5.9-.6,8.9-1.6.8,1.1,1.3,1.9,2.4,3.4.4-2,.6-3,.8-4.3,2.8-.5,5.5-1,8.1-1.5,2,4.5,3.1,11.2,2.3,14-1.4-2.1-2.7-4.2-4.2-6.3-1.1,3.6-.1,8.2,3.9,9.8v8.2c-2.6,0-4.9,0-7.2,0-1.7.3-3.4.7-5.1,1-18.4,4.1-36.7,8.2-55.1,12.3-.5.1-1.2-.1-1.9-.2v-6.3c1.4-1.2,2.8-2.6,4.3-3.9ZM976.9,510.7c6.2-1.5,11.6-2.8,17.2-4.1-.9-4.1-1.7-7.5-2.5-11.4-2.1.6-3.8,1.2-5.5,1.7.4,2.7.7,4.9,1.1,7.2-1.9.3-3.5.6-5.2.9-.8-2.3-1.6-4.6-2.4-7-1.8.4-3.2.6-5.1,1,.8,3.9,1.6,7.6,2.5,11.7ZM958.8,514.6c4-.9,7.6-1.6,11.5-2.5-.2-1.6-.4-3-.6-4.7-4.4,1-8.3,2-12.5,3,.6,1.7,1,2.7,1.6,4.2ZM1006.7,500.7c3.4,3,7.9,1.3,9.6-2.2-3.6.8-6.3,1.4-9.6,2.2Z" fill="#efedde"/>
        <path d="M1025,515c1.2,5.9,2.5,11.9,3.7,17.8.2.8.5,1.6.7,2.5-.5,1-.9,1.9-1.4,3h-15c-1.6.2-3.2.6-4.7.7-6.2.3-12.4.5-18.5.8-1.7-8.2-3.5-16.5-5.2-24.7l15.8-3.8c5.7-1.2,11.5-2.5,17.2-3.7h6.5c.2,2.7.2,5,1.1,7.5ZM1020.2,520.1c1.8-3.9.4-6.3-.7-9-5.2,1.4-9.9,2.6-15,3.9.9,2.9,1.6,5.2,2.3,7.6,1.5-.5,2.5-.8,3.5-1.2.4-1.1.8-2.1,1.2-3.1,1.6-.4,3-.7,3.7-.9,1.9,1,3.3,1.7,5.1,2.6Z" fill="#f5f0d8"/>
        <path d="M682.3,604.3c-4.7-.9-9.1-1.5-13.9-1.5,0-5.3.7-11.3-.3-16.5.5-.5,1-1,1.5-1.5,1.1.2,2.1.4,3.1.6,0,1,.1,1.9.2,3.2,2.3.3,4.5.6,6.9,1,.5-1.5.8-2.5,1.3-4.1-2.1-.4-3.7-.7-5.4-1,0-.1,0-.3,0-.4h6.7c5.5-.2,10.6,1.2,15.7,3,5.7,2.9,11.7,4.2,18,3.8h0c2.2.4,4.5.7,6.8,1.1-.2.8-.5,1.8-.6,2,1.3,1.9,2.3,3.3,3,4.4,1.9-.3,3.1-.5,4.3-.7,1,1.9-1,2.3-1.7,2.5-3.1.9-6.3,1.3-9.5,2-5,2-10,4-15,6-.8-.5-1.5-1.4-2.4-1.5-6.2-.8-12.4-1.5-18.7-2.3h0Z" fill="#faf8e8"/>
        <path d="M1033.2,542c-1.8-8.7-3.6-17.4-5.6-26.5,2.3-.7,4.3-1.4,6.3-2,2.1-.3,4.2-.3,6.2-.8,3.5-.9,6.9-2,10.4-2.9,4.1,5.9,6.8,10.9,8.7,17.9.8-.6,1.2-1,1.7-1.4.8,1,1.5,2,2.3,3-5.5,3-11,6-16.5,9-4.7.6-8.8,3.3-12.9,5.3-.2-.7-.4-1.1-.5-1.6Z" fill="#f5f0d8"/>
        <path d="M719,616.2c-4.7-1.2-9-2.2-13.3-4.4.3-4.2,4.3-4.7,7.6-5.8,4.9-1.5,10-3.6,15.1-4.5,7.5-1.3,17,4.9,21.3,10.8,2.8,4.5,7.6,6.2,12.3,8.3-3.9,2.2-7.7.8-12,.3-5.1-.6-10.2-1.5-15.3-1.1-3.5-1-7-1.9-10.5-2.9.6-1.4,1.2-2.7,2.1-4.6-1.8-.3-2.8-.5-2.9-.5-1.8,1.8-3.1,3.1-4.3,4.3Z" fill="#f5f0d8"/>
        <path d="M908,505.3h5.2c.4,3.4,3.7,6.8,2.3,11.2-.7.2-1.4.3-2.5.6.5,2.7,1,5.1,1.6,7.7,1.9-.5,3.2-.8,4.6-1.1-.2-1.5-.4-2.8-.6-4.1,4-.9,8.1-1.8,12.3-2.8.3.4.7.9,1.1,1.3.2.7.3,1.4.5,2.1,2.9-.2,5.5-.3,8.1-.5,0-.1,0-.2-.1-.3,3.9-1.2,7.8-2.4,11.6-3.6-.2-1.5-.3-2.6-.5-3.7.5.3,1,.5,1.5.8.3,1.8.5,3.6.7,5.2-.5.4-.7.6-.9.6-13.7,3.1-27.4,6.1-41.1,9.1-.5.1-1,0-1.5,0-3.1.8-6.1,1.5-9.6,2.4-.9-5.3-1.8-10.3-2.6-15.2.2,0,.3,0,.5,0,.4-1,.8-2,1.2-3,2.8-2.2,5.5-4.5,8.3-6.7ZM909.8,526.9c1.4-3.7-.9-5.7-2.8-8.2-.6.3-1.1.5-1.8.8.6,2.4,1.1,4.6,1.7,7.1,1.1,0,2,.2,2.9.2Z" fill="#faf8e8"/>
        <path d="M1030.3,542c.3,1.4.6,2.7,1,4.5-5.1,2.4-9.8,4.6-14.5,6.8-8.1,4.1-16.8,1-25.5,3.1-.4-4.8-.7-9-1-13.3,6.3-.4,11.9-.7,17.4-1.1,7.5,0,15,0,22.5,0Z" fill="#f5f0d8"/>
        <path d="M1063.2,529.3c-.8-1-1.5-2-2.3-3l-.7-4.5c.6,0,1.2.1,1.7.2.5,1.2.9,2.3,1.3,3.2,3.5,1,4.2-2,6-3.4.5,0,1,0,1.5,0,.5,0,1,0,1.6,0,.3.2.5.5.8.7-.1.4-.2.8-.6,2.1,2.1-1.8,8-5.3,8.1-8.1,4.5-4.5,9-9,13.5-13.4,1.1-.9,2.2-1.7,3.6-2.8-1.6,9.4-3.2,18.3-4.8,27.2-1.9.2-11.8,0-11.6,2.6.5.3,1,.5,1.5.8-2,.5-4,1-6,1.5-4.6-.5-9-.7-13.6-.7,0-.9.1-1.6.2-2.2Z" fill="#f9f7e8"/>
        <path d="M717.5,617.8c1.3.4,2.5.8,3.8,1.1,4.2.9,8.4,1.7,12.6,2.6,6.9,1.4,13.8,2.9,20.9,3.8-.7,1.1-1,1.7-1.3,2.2h0c-8.5,1-16.9.4-25.4.1-4.3-.2-8.7-.3-13-.5-3.4-.2-8.3.4-11.2-1.2.4-3.5.8-7.2,1.1-10.6,4.3.8,8.4,1.6,12.5,2.4Z" fill="#f5f0d8"/>
        <path d="M989.7,539.7c6.2-.2,12.4-.5,18.5-.8,1.6,0,3.2-.5,4.7-.7.3.2.5.5.8.7-7.7,1.4-15.7,1.1-23.5,1.4-5.6,5.2-.4,10.9-1.6,16.3-29.5,2.7-59.5,1.9-89.2,1.9.4-8.6.7-16.9,1.1-25.8,16.3-4,32.6-7.5,49-11,8.4-1.8,16.7-3.6,25.1-5.4,4-.9,8.1-1.7,12.1-2.6,4.1-.9,9.3-2.9,13.5-2.5-5.3,1.3-10.5,2.5-15.8,3.8-13.4,3.7-27.2,6.1-40.8,9-14.1,3.1-28.3,6.2-42.4,9.3.6,2.3-1.6,4.9,1.5,6.4h0c-2.9,3.1-.9,6.7-1.4,10.5h17.2c0,.3,0,.5,0,.8h-17.9v6.6c.1,0,.3,0,.4,0,.5-1.5.9-3,1.4-4.3h14.6c-4.7,1-9.5,0-14.2.9,0,.5,0,1,0,1.5,6.1.6,12.2,1.2,18.3,1.8.3-1.3.5-2.1.8-3.4.4,1.4.6,2.3.9,3.5,8.9-.6,17.7,1.2,24.9-1,14.3.5,27.3.2,40.3-.9-.5-4.1-1-8-1.5-12.1h-5.5v-8.9h6.2c.2,2.2.4,4,.6,6.1.9-.5,1.4-.9,1.9-1.2Z" fill="#e4e2da"/>
        <path d="M620,614.8c.7.5,1.5,1,2.2,1.5-5.6,1.4-11.6.7-17.4.7-4,0-8.9.8-10.6-3.8h-9.1v-3h13.2c0-.3,0-.5,0-.8h-12.7c.3-1.8.5-3.1.7-4.4,0,0,0,0,0,0,.8,0,1.7.1,2.7.2.2,1.2.5,2.2.7,3.3h15.7c.4-1.3.7-2.3,1-3.4h4.5c.2,1.4.4,2.7.7,4.6,2.4,1.4,5.5,3.2,8.5,5Z" fill="#f9f7e8"/>
        <path d="M651.5,628.3c-.2,2.2-.5,4.5-.7,6.7-2.3-.2-4.7-.6-7-.6-3.4,0-6.8.4-10.2.6-.8-.2-1.5-.5-2.3-.7.3-.1.6-.3,1.1-.5-3.7-.5-7-1-10.6-1.5.3-1.4.5-2.5.6-3.4,5.9.3,11.5.6,17.4,1v-4.4c-5.7-.4-11.1-.8-16.6-1.2.3-1,.6-2.2,1-3.9,3.4.3,6.6.7,9.9,1,1.5.5,3,1,4.5,1.5,4.3,1.8,8.5,3.5,12.8,5.3Z" fill="#faf8e8"/>
        <path d="M898.2,554.7c-.3,1.2-.7,2.3-1.2,4.1-6.3-.3-12.5-.8-18.7-.9-7.2-.2-14.5.2-21.7-.2-7.1-.4-14.5-.2-21.1-3.7-1.4-.7-2.9-1.3-4.7-2.2,2-2.7,3.8-4.7,7-5.4,18.4-3.9,36.9-8,55.3-12.1.5-.1.9-.4,1.4-.5,0,.2,0,.5,0,.7-2.8.8-5.6,1.6-8.5,2.2-7.7,1.8-15.4,3.5-23,5.3-6.2.7-12.4,2.4-18.5,3.7-4.4,1-9.8,1.4-12,6,3.7,1.4,7.3,2.7,10.8,4.1.8-1.8,1.4-2.9,1.9-4,.3,0,.7,0,1,0,.5,1.4,1,2.7,1.6,4.2,3,.3,6.1.7,9.1,1h39.4c.2-.5.7-1.4,1.1-2.2.2,0,.5,0,.7,0Z" fill="#e8e6dc"/>
        <path d="M633.5,635c3.4-.2,6.8-.6,10.2-.6,2.3,0,4.7.4,7,.6,9.8.3,19.6.7,29.4,1,.6-2.3,1.1-4.1,1.7-6h6.6c1,.6,2.2,1.4,3.6,2.2.6-1.3,1.1-2.3,1.5-3.2v8c-20,0-40-.8-60-2Z" fill="#e4e1d2"/>
        <path d="M910.3,527.8c.5,0,1,0,1.5,0,13.7-3,27.4-6.1,41.1-9.1.2,0,.4-.3.9-.6-.2-1.6-.5-3.4-.7-5.2,0-.6.2-1.1.3-2,2-1.6,3.2-2.6,5.7-3.2-1.5,1.3-2.9,2.6-4.3,3.9v6.3c.8,0,1.4.3,1.9.2,18.4-4.1,36.7-8.2,55.1-12.3,1.7-.4,3.4-.7,5.1-1,0,.3,0,.5,0,.8-17.6,4.2-35.4,8-53.1,11.9-8.7,1.9-17.3,3.8-25.9,5.8-8.5,1.9-18,5.4-26.7,5.6-.2-.2-.5-.5-.7-.7Z" fill="#e4e3db"/>
        <path d="M621.6,619.6c-.8,4.5-1.6,8.7-2.5,13.3-12.8-1.3-25.3-2.5-38.4-3.8.6-4.1,1.1-7.6,1.6-10.7,13.4.4,26.2.8,39.4,1.2ZM605,630.5c4,.5,8,1,12,1.5.3-4.1.6-7.9,1-11.9h-35.2c-.4,2.5-.8,5-1.3,8.4,8.1.7,15.8,1.4,23.5,2.1Z" fill="#e0dfd8"/>
        <path d="M731,630.5c0,.3,0,.5,0,.8-7.7-.3-15.4-.6-23.1-1,0,.3,0,.6,0,.9h8.4c.1,1.6.2,2.7.4,4.4-6.3,0-12.1.7-18.2-.6.7-2,1.1-3.3,1.6-4.9h-4.1v6.2c5.9.7,11.8,1.2,17.7,2.4-.8,0-1.5,0-2.3,0-5.4-.4-10.8-.8-16.2-1.2v-8.5c11.9,0,24,0,35.8,1.5ZM699.9,632.3c1.9,2,10.4,3.1,15,2.3v-2.3h-15Z" fill="#e6e3d5"/>
        <path d="M886.3,533c3.3-.6,6.5-1.1,9.8-1.7.5-2.1,1-3.9,1.4-5.8v6.1c-15.9,3.7-31.8,7.7-47.9,10.7-6.5,1.2-12.6,2.1-17.8,6.5-5.5,4.6-8.7,11.1-12.3,17.1.7-6,5.4-11.6,9.4-15.9,5.4-5.7,10.8-6.5,18.3-8.1,6.6-1.5,13.3-3,19.9-4.5,6.4-1.5,12.7-3,19.1-4.5Z" fill="#e4e2d8"/>
        <path d="M586.2,605c-.2,1.3-.4,2.6-.7,4.4h12.7c0,.3,0,.5,0,.8h-13.2v3h9.1c1.7,4.6,6.7,3.8,10.6,3.8,5.8,0,11.8.6,17.4-.7.6.3,1.2.5,1.8.8v.7c-13.6-.3-27,.8-40.8-1.8.7-3.9.7-7.7,3-11Z" fill="#e0dfd8"/>
        <path d="M898.2,554.7c-.2,0-.5,0-.7,0,0-4,0-8,0-12-.1-.9-.2-1.9-.4-3.4-5.1,1.2-9.8,2.3-14.6,3.4-.5-1.1-1-2.2-1.8-3.8,5.8-1.3,11.1-2.4,16.5-3.6,0-.2,0-.4,0-.5-.9-.1-1.8-.2-2.7-.3,0-.2,0-.5,0-.7,1.1-.1,2.2-.3,3.7-.5v21.4Z" fill="#e3e0d0"/>
        <path d="M1016.8,505.3c0-.3,0-.5,0-.8h7.2v-8.2c-4-1.6-5-6.2-3.9-9.8,1.4,2.2,2.8,4.2,4.2,6.3.8-2.8-.3-9.5-2.3-14-2.6.5-5.4,1-8.1,1.5-.2,1.2-.5,2.3-.8,4.3-1.1-1.5-1.6-2.3-2.4-3.4-3,.9-5.7,1.3-8.9,1.6,7-1.8,14-3.7,21-5,3.5,8.8,3.2,17.8,1.7,27.4h-7.8Z" fill="#dddcd7"/>
        <path d="M634.2,621.5c-3.3-.3-6.6-.7-9.9-1-.5,1.7-.8,2.9-1,3.9,5.5.4,10.9.8,16.6,1.2v4.4c-5.9-.3-11.5-.6-17.4-1-.2.9-.4,1.9-.6,3.4,3.6.5,6.9,1,10.6,1.5-.6.3-.8.4-1.1.5-3.4-.4-6.8-.8-10.6-1.2,1-4.9,1.9-9.1,2.7-13.1,4,0,7.3-.5,10.9,1.5ZM639.3,627.6c-.2-.5-.3-.9-.5-1.4h-14.8c0,.4-.1,1-.2,1.7,5.1.4,10.8,2,15.4-.3Z" fill="#e5e3d9"/>
        <path d="M717.5,617.8c-4.1-.8-8.2-1.6-12.5-2.4-.4,3.4-.7,7.1-1.1,10.6,3,1.6,7.8,1,11.2,1.2,4.3.2,8.7.4,13,.5,8.5.3,17,.8,25.4-.2-7.3,3.1-17.4,1.2-25.3,1.1-8.5-.2-16.7-.5-25.1-1.5.4-4.6.8-9.3,1.2-13.8,4.7,1.6,9,3.1,13.2,4.5Z" fill="#e2e0d6"/>
        <path d="M682.3,606.5c-22.1-1.8-45.1,2.2-67.1-1.5-.2,1.2-.3,2.2-.4,3.1-.3-1.1-.5-2.2-.9-3.8,11.2,0,22.3.4,33.5.6,11.8.2,23.3-.4,35,1.6Z" fill="#e3e1d8"/>
        <path d="M579.1,629.2c-8.5-1.8-17.4-.1-25.4-3.3-1.2-4.3,1.3-6.6,2.9-9.8,7.9.6,15.9,1.2,24.1,1.8-.5,3.7-1,7-1.6,11.4ZM553.8,623.4c2.1,3.9,6.2,3.4,10.1,3.7,4.9.4,9.7.6,14.6.9.3-3.2.6-6.2.8-9.3-7.8-.6-15-1.2-22.2-1.8-1.2,2.5-2.2,4.4-3.3,6.5Z" fill="#e1dfd6"/>
        <path d="M620,614.8c-3.1-1.8-6.1-3.6-8.5-5-.3-1.9-.5-3.2-.7-4.6h-4.5c-.3,1.1-.6,2.1-1,3.4h-15.7c-.2-1.1-.5-2.1-.7-3.3-1,0-1.8-.2-2.7-.2.7-.3,1.3-.7,2-.7,7.6,0,15.2,0,23.2,0,.6,5.4,5.3,7.4,8.6,10.5ZM590.3,607.7c9.1.8,13,.5,15.2-1.8-5.4-.4-10.2-.7-15.2-1.1v2.9Z" fill="#e0dfd8"/>
        <path d="M1007.8,542c-5.5.3-11.1.7-17.4,1.1.3,4.3.6,8.5,1,13.3,8.7-2.1,17.4,1,25.5-3.1-1.9,1-3.8,2.7-5.8,2.8-6.6.4-13.1.1-20.2.1-.4-4.2-2.5-8.9-.9-14,6.2-.3,12.1-.6,17.9-.9,0,.2,0,.5,0,.7Z" fill="#e2e0d6"/>
        <path d="M750.5,611c2.6.3,3.7,2,5.9,3.4,2.5,1.6,5.3,2.6,8.1,3.3,6.3,1.5,12.3-.8,18.2-2.9,1.3,0,2.5,0,3.8,0,1.7-1.5,3.5-3,5.2-4.5.4-.4,1-.5,1.5-.8-4,7.7-12.6,7.4-20.2,9-8.1,1.6-16.7-1.7-22.6-7.5Z" fill="#e5e5dd"/>
        <path d="M665,582.5c.9.2,1.7.4,3.1.6,5.8-3.6,12.7-2.6,19.3-1.3,7.6,1.6,15,3.9,22.5,5.9,0,.2,0,.5,0,.7-13.5-3.8-29.5-10.3-42.9-3.7-.7-.7-1.4-1.5-2.1-2.3Z" fill="#e5e4de"/>
        <path d="M692.7,627.5c-.3-.4-.6-.7-1.2-1.5,2.8.3,5.3.6,8.5.9.7-5.2,1.4-10.2,2.2-15.6-2.1-3-5.7-1.8-8.6-2.6-3.8-.9-7.6-1.6-11.4-2.3,7.1.9,14.7.9,21.1,4-.8,5.9-1.4,11.1-2.2,17h-8.4Z" fill="#e3e1d8"/>
        <path d="M682.3,584h-6.7c0,.1,0,.3,0,.4,1.6.3,3.2.6,5.4,1-.5,1.5-.8,2.6-1.3,4.1-2.4-.3-4.5-.6-6.9-1,0-1.3-.1-2.2-.2-3.2-.9-.2-2-.4-3.1-.6,3.5-.5,6.9-1.1,10.4-1.5.7,0,1.6.5,2.3.7Z" fill="#dcdcd7"/>
        <path d="M734.8,620c5.2-.4,10.2.4,15.3,1.1,4.2.5,8.1,1.9,12-.3-4.7-2.1-9.5-3.8-12.3-8.3,4.5,3.2,9.3,5.5,14.3,8-3.2,3.8-8.3,2.3-12.5,1.8-5.6-.8-11.1-1.5-16.7-2.2Z" fill="#e3e1d9"/>
        <path d="M710.7,571.3c7.4,9.3,14.6,18.8,23.4,26.8.4.4.4,1.1.6,1.7-5.3-5.6-10.6-11.1-15.8-16.7-2.3-2.4-4.5-4.9-6.7-7.4h0c-.5-1-1-2-1.5-3,0-.5,0-1,0-1.5Z" fill="#e4e4de"/>
        <path d="M603.5,572.8c-7.6-1.9-17.1.9-23.8,4.6-.4,6.6-2.4,12.7.5,18.7-2.1-4.2-2.2-6.5-1.9-11.3.2-3.5-.4-7.7,3.1-9.6,5.5-3.1,16.4-5.7,22.1-2.4Z" fill="#e2e0d8"/>
        <path d="M992,486.5c.1.4.3.8.5,1.5-.9-.4-1.5-.6-2-.8-.1-1.8.7-2.5,2.4-3.2,8.9-3.8,17.9-7,27.6-8.2.3,0,.6-.3.6-.3.3-1.8.6-3.3.9-4.8.2,1.6.4,3.1.7,5.3-5.6,1.2-11,2.5-16.5,4.4-2.7.9-13.9,3.3-14.2,6.1Z" fill="#e2e0d7"/>
        <path d="M973.7,465.8c.6-2.8,1-5,1.6-7.6,2.9.9,5.5,1.8,8.2,2.7,0,.3,0,.6,0,1-3.1,1.3-6.2,2.5-9.8,4Z" fill="#e8e5d7"/>
        <path d="M701,639.5c0,.2,0,.5,0,.7-11.2-.3-22.3-.5-33.5-.8-4.1-.1-8.2-.5-12.2-.7,0-.2,0-.5,0-.7,12.7.3,25.3.5,38,.8,2.6,0,5.2.5,7.7.7Z" fill="#e0ded4"/>
        <path d="M729.5,597.5c-1.2.2-2.4.4-4.3.7-.8-1.1-1.7-2.5-3-4.4,0-.2.3-1.2.6-2-2.3-.4-4.6-.8-6.8-1.1h8.2c1.6,2.1,3.5,4.4,5.4,6.8Z" fill="#ddddd9"/>
        <path d="M619.3,635.7c-12.9-2-26-2.7-39-4,0-.6,1.1-.5,1.5-.5,6.4.6,12.9,1.2,19.3,1.8,6,.5,12.4.5,18.2,2,0,.3,0,.5,0,.8Z" fill="#e2e0d6"/>
        <path d="M619.3,635.7c0-.3,0-.5,0-.8,12,1.1,24,1.9,36,3,0,.2,0,.5,0,.7-10.3-1-20.5-1.9-30.8-2.9-1.7-.2-3.5-.1-5.2-.1Z" fill="#e1dfd6"/>
        <path d="M910.3,527.8c.2.2.5.5.7.7-3.5.9-7.1,1.9-11.1,2.9-1-5.8-2-11.2-3-16.9.9-.8,1.9-1.7,2.8-2.6-.4,1-.8,2-1.2,3-.2,0-.3,0-.5,0,.8,4.9,1.7,9.8,2.6,15.2,3.5-.9,6.6-1.6,9.6-2.4Z" fill="#e5e4de"/>
        <path d="M966.5,446.8c-.8-2.8-1.5-5.5-2.3-8.3h0c-.1-3.9-.5-7,.5-10.8.6-2,1.7-8.4,4-8.7-4.1,8.1-5,16.4-2.1,25.1.3.8-.1,1.8-.2,2.7Z" fill="#e5e4de"/>
        <path d="M944,466.9c-2.8,1.7-5.4,3.3-7.9,5.4-1.4,6,3.2,11.3,3.5,17.2-2.1-5.5-3.7-10.8-5-16.6,2.7-3.8,5.9-5.2,9.5-5.9Z" fill="#e2e0d6"/>
        <path d="M753.5,627.5c.3-.5.6-1.1,1.3-2.2-7-1-13.9-2.4-20.9-3.8,7.7,1.1,15.5,2,23.1,3.9-1.2.7-2.3,1.4-3.5,2.2Z" fill="#e2e0d8"/>
        <path d="M651.5,628.3c-4.3-1.8-8.5-3.5-12.8-5.3,4.2,1.4,8.4,3.5,12.8,4.2,4.7.7,9.5.3,14.2.3-1.9.3-3.8.6-5.7.7-2.8.1-5.7,0-8.6,0Z" fill="#e3e2dc"/>
        <path d="M967.2,428.8c-.2,7.7,1.1,15.1,4.6,22.1.2.5,0,1.2-.1,1.9-3.6-6.6-5.3-13.7-5.2-21.2,0-.9.5-1.8.7-2.7Z" fill="#e4e3dd"/>
        <path d="M719,616.2c1.2-1.2,2.5-2.5,4.3-4.3.1,0,1.1.2,2.9.5-.9,1.9-1.5,3.3-2.1,4.6-1.7-.3-3.5-.6-5.2-.8Z" fill="#d8d8d1"/>
        <path d="M710,588.5c0-.2,0-.5,0-.7h9.7c-2.1-2.5-4.9-4.9-5.2-8.3,2.3,3,4.6,5.9,7,9h-11.5Z" fill="#e4e3dd"/>
        <path d="M1007.8,542c0-.2,0-.5,0-.7,3.7-.2,7.4-.8,11-.6,3.9.1,7.7.9,11.5,1.3-7.5,0-15,0-22.5,0Z" fill="#e2dfd2"/>
        <path d="M1008.6,428c-1.7-4.3-3.5-8.6-5-12.9-.7-1.9-3-3.4-1.9-5.8.6,1,1.5,2,1.8,3.1,1.7,5.2,3.3,10.4,5,15.7Z" fill="#e4e3dd"/>
        <path d="M978.5,458c3.1,0,5.4.6,8.3,1.6,3.1-1.8,6.2-4.3,9.7-4.6-5.4,4.5-11.2,6.8-18,3Z" fill="#e4e3de"/>
        <path d="M900.5,509c4.1-5.7,10.3-7.7,16.5-9.8-1.4.8-2.8,1.6-4.1,2.4-4.1,2.4-8.3,4.9-12.4,7.4Z" fill="#e4e3dd"/>
        <path d="M682.2,604.3c6.2.7,12.5,1.4,18.7,2.3.8.1,1.6,1,2.4,1.5-.3,0-.5,0-.8,0-4.5-.7-9-1.5-13.5-2.3-2.3-.4-4.5-1-6.8-1.5Z" fill="#e5e3d9"/>
        <path d="M702.5,608c.3,0,.5,0,.8,0,5-2,10-4,15-6-4.5,3-9.4,4.6-14.4,6.6-.1.4-.2.9-.4,1.3-.3-.6-.7-1.3-1-1.9Z" fill="#e4e3dd"/>
        <path d="M1033.2,542c.1.4.3.9.5,1.6,4.2-2.1,8.3-4.8,12.9-5.3-4.5,2.3-9,4.5-13.8,6.9-.2-1-.4-1.7-.5-2.4l.8-.8Z" fill="#e2e0d7"/>
        <path d="M716,590.8c-6.4.4-12.4-.8-18-3.8,5.9,1.1,12.4,1.7,18,3.8Z" fill="#ddddd9"/>
        <path d="M1013.8,539c-.3-.2-.5-.5-.8-.7h15c.5-1.1,1-2,1.4-3,0,1.1,0,2.2,0,3.7h-15.7Z" fill="#dfddcf"/>
        <path d="M891.5,512c-1,.9-1.2,3.5-3.8,1.4.8-1.6,1.6-3.3,2.6-5.5.8.8,1.4,1.3,1.9,1.8-.4.1-.9.2-1.4.4.3.7.5,1.3.7,1.9Z" fill="#e4e3dc"/>
        <path d="M892.9,510.5c.9-.2,2.3-.9,2.7-.6,1.6,1.6,2.8-.2,4.2-.1-1.1,1.3-2.3,2.5-3.7,4.1-1.2-1.3-2.2-2.3-3.1-3.3Z" fill="#dfdfd8"/>
        <path d="M1007,449c1.5-1.1,3-2.2,4.5-3.2v-6.5c.6,2.4,1.1,4.8,1.7,7.4-2.4.9-4.3,1.7-6.2,2.4Z" fill="#e4e3de"/>
        <path d="M917,499.3c3.5-1.8,7-3.5,10.5-5.3.3,0,.5,0,.8,0-3.8,1.8-7.5,3.5-11.3,5.3Z" fill="#e4e3de"/>
        <path d="M1025,515c-.9-2.5-.9-4.8-1.1-7.5-2.4,0-4.4,0-6.5,0,2.2-.3,4.4-.6,7.3-1.1.1,3.3.2,5.9.3,8.5Z" fill="#e0dfd6"/>
        <path d="M976.1,426.6c-.8-.9-1.5-1.7-2.5-2.7.9-.7,1.6-1.3,2.5-2,.8,1,1.4,1.9,2.1,2.9-.8.6-1.4,1.2-2.2,1.9Z" fill="#d8d8d3"/>
        <path d="M964.2,438.5c-3.6,4.4-9,6.9-13.8,9.9-.7-.6-1.4-1.2-2.3-2,1.3-1.1,2.3-1.9,3.5-2.9-.2-3.9,4-3.6,5.7-5.8.8.4,1.5.8,2.1,1.1,0-.2,0-.4,0-.6,1.6,0,3.2.1,4.8.2,0,0,0,0,0,0Z" fill="#d8d8d5"/>
        <path d="M946.3,431.8c.3.9.5,1.5.8,2.3-2.1.8-3.8,2.2-6.9.1,2.4-1,4.2-1.7,6.1-2.4Z" fill="#d7d7d2"/>
        <path d="M1100,493.2c-.5.8-1,1.5-1.5,2.3-2.4,2.3-4.8,4.7-7.3,7,.2.2.3.3.5.5-.5.5-1,1-1.5,1.5-3.1,1-5.1,4.2-7.4,6.5-.1-.2-.2-.5-.3-.7-1.9.5-3.7.9-5.6,1.4,0,.3,0,.6,0,.9.7.5,1.5,1,2.3,1.5-1.1,1.4-2.2,2.7-3.3,4h0c-1.2.5-2.3,1.1-3.8,1.8.6-2.1,1.1-4,1.6-5.6-1.3-4.7-2.5-9.1-3.7-13.5,3.7-1,7.3-1.9,11.2-3-3.1-12.5-6.1-25-9-37.5,1.3-1.3,2.5-2.5,3.8-3.8,0,0,0,0,0,0,9.2-1.9,18.3-4.3,27.8-2.3,0,0,0,0,0,0,.8.5,1.5,1.1,2.2,1.6,0,6.1-1.8,12.3-3,18.4-1.3,6.4-2.2,12.6-2.9,19.1ZM1072.9,502.1c.3,1.5.6,2.6,1,4.2,1.7-.6,3-1,4.5-1.5-.3-1.4-.6-2.6-.9-4-1.6.5-2.8.8-4.6,1.4Z" fill="#faf8e8"/>
        <path d="M1072.2,460.2c2.9,12.5,5.9,25.1,9,37.5-3.9,1-7.6,2-11.2,3-1.8-6.7-3.5-13.5-5.4-20.2-.2-.8-.9-1.6-1.4-2.3-1-3-1.9-6-2.9-9,.2-1.5.3-2.9.5-4.6,3.7-1.4,7.6-2.9,11.4-4.4Z" fill="#f5f0d8"/>
        <path d="M1063.2,478.3c.5.8,1.2,1.5,1.4,2.3,1.8,6.7,3.6,13.4,5.4,20.2,1.2,4.4,2.4,8.8,3.7,13.5-.4,1.6-1,3.5-1.6,5.6,1.5-.7,2.7-1.3,3.8-1.9-1.3,1.3-2.5,2.5-3.8,3.8-.5,0-1,0-1.6,0,2.7-7.7.1-14.4-2-21.8-2-7.1-4.3-14.4-5.5-21.6Z" fill="#e4e3dd"/>
        <path d="M1050.5,509.7c-3.5,1-6.9,2.1-10.4,2.9-2,.5-4.1.6-6.2.8.5-.4,1-.8,1.3-1-.5-1.4-1-2.7-1.7-4.5,3.3-1,6.1-1.9,9.1-2.8.7.9,1.4,1.8,2.5,3.3-2.6,1.1-4.7,2.1-6.9,3,0,.2.1.4.2.6,3.6-.8,7.3-1.7,10.5-2.4,0-2.8,0-5.1,0-7.5.5,2.5,1,5,1.6,7.5ZM1034.8,509c2.8,2,6.3,1.3,8-1.5-2.3-.9-3.8-.6-8,1.5Z" fill="#e6e3d6"/>
        <path d="M1081.3,530c-.2-2.5,9.7-2.3,11.6-2.6,1.6-9,3.1-17.9,4.8-27.2-1.4,1.1-2.5,1.9-3.6,2.8,1.2-1.7,2.3-3.3,3.5-5,.4.1.7.3,1.1.4-1,9.9-3.2,19.6-4.9,29.6-4.2.7-8.3,1.3-12.4,2Z" fill="#e3e3dd"/>
        <path d="M1100,493.2c.7-6.4,1.7-12.7,2.9-19.1,1.2-6,3-12.2,3-18.4-.7-.5-1.4-1-2.2-1.6,1.2.2,2.3.4,3.8.6-2.3,12.7-3.7,26.1-7.5,38.4Z" fill="#e4e3dd"/>
        <path d="M1076,518c1.1-1.3,2.2-2.6,3.3-4-.8-.5-1.5-1-2.3-1.5,0-.3,0-.6,0-.9,1.9-.5,3.7-.9,5.6-1.4.1.2.2.5.3.7,2.2-2.3,4.3-5.4,7.4-6.5-4.1,4.2-8.2,8.4-12.3,12.6-.5.5-1.3.6-1.9.9Z" fill="#e1e1da"/>
        <path d="M1069.2,521.7c-1.7,1.4-2.5,4.4-6,3.4-.4-.9-.8-2-1.3-3.2-.5,0-1.1-.1-1.7-.2,2.4-.5,4.9-1.1,7.3-1.4.5,0,1.1.9,1.6,1.4Z" fill="#e3e0d6"/>
        <path d="M1103.8,454.2c-9.5-2-18.6.4-27.8,2.3,2.8-2.9,9.6-3,13.5-3.4,5.1-.6,9.5-.7,14.2,1.2Z" fill="#e3e2dd"/>
        <path d="M1072.2,460.2c-3.9,1.5-7.7,3-11.4,4.4-.2,1.6-.4,3.1-.5,4.6-.3-1.7-.5-3.3-.8-5.1,5.8-2.4,11.2-4.3,16.5-7.7-1.3,1.3-2.5,2.5-3.8,3.8Z" fill="#e3e1d9"/>
        <path d="M1080.5,516.5c0,2.8-6,6.3-8.1,8.1.4-1.3.5-1.7.6-2.1,2.5-2,5-4,7.5-6Z" fill="#e5e4df"/>
        <path d="M1091.7,503c-.2-.2-.3-.3-.5-.5,2.4-2.3,4.8-4.7,7.3-7-2.3,2.5-4.5,5-6.8,7.5Z" fill="#e4e3de"/>
        <path d="M951.5,512c.2,1.1.3,2.3.5,3.7-3.8,1.2-7.7,2.4-11.6,3.6,0,.1,0,.2.1.3-2.6.2-5.3.3-8.1.5-.2-.7-.3-1.4-.5-2.1-.2-1.9,1-2.6,2.6-3,1.7-.4,3.3-1,5-1.5.1,1.6.2,3.3.3,4.9.4,0,.8,0,1.2,0,.2-3.4.5-6.7.7-10.1,0-.3,0-.5,0-.8,1,.5,2.1,1,3.3,1.7-1,1.5-1.6,2.3-1.9,2.8h8.3Z" fill="#e2dfd1"/>
        <path d="M941.7,508.3c-.2,3.4-.5,6.7-.7,10.1-.4,0-.8,0-1.2,0-.1-1.6-.2-3.3-.3-4.9,1.8-3.3-.1-6.5-.4-9.7-.4-3.8-1.1-7.7-1.1-11.7.5.9,1,1.8,1.5,2.7.8,4.5,1.5,9,2.3,13.5Z" fill="#fbfbfb"/>
        <path d="M918.5,519.5c.2,1.3.4,2.6.6,4.1-1.4.4-2.7.7-4.6,1.1-.5-2.6-1-5-1.6-7.7,1.2-.3,1.9-.4,2.5-.6.6,0,1.2-.1,2-.2.3,1.1.7,2.2,1,3.3Z" fill="#e2dfd0"/>
        <path d="M955.1,498.8c1-.5,1.6-.8,2.8-1.4.8,2.8,1.4,5.3,2.2,8.2-1.3.1-2,.2-2.9.3-.7-2.3-1.3-4.5-2-7.1Z" fill="#d7d6d0"/>
        <path d="M941.7,508.3c-.8-4.5-1.5-9-2.3-13.5,2,2.6,2,6.7,3.4,9.7-.4,1-.7,2-1.1,3,0,.3,0,.5,0,.8Z" fill="#dddcd4"/>
        <path d="M886.3,533c-6.4,1.5-12.7,3-19.1,4.5-6.6,1.5-13.3,3-19.9,4.5-.5-3.5-1-7-1.5-11,12.4-2.7,24.5-5.3,37-8,.8,4,1.4,6.6,3.5,10ZM858.7,536c3.3.9,10-.5,10.8-2.3-.3-.9-.7-1.9-1.2-3.2-3.3.7-6.5,1.4-9.9,2.1,0,1.4.2,2.3.2,3.4Z" fill="#f5f0d8"/>
        <path d="M817.5,547.1c-1.4.4-2.4.7-3.8,1.1-.8-3.3-1.4-6.3-2.1-9.3,1.3-.6,2.1-.9,3.4-1.5.8,3.4,1.6,6.4,2.4,9.8Z" fill="#e2decf"/>
        <path d="M905.6,499c1.2-.5,2.1-.9,3.3-1.4.6.8,1,1.6,1.8,2.8-1.6.7-2.9,1.2-4.4,1.8-.3-1.2-.4-2-.7-3.2Z" fill="#e0dccc"/>
        <path d="M899.6,502.8c.2,2.7-1.9,2.6-3.6,3.2-.9-3.2-.2-3.8,3.6-3.2Z" fill="#dfdccc"/>
        <path d="M891,501.9c1.4-.8,2.9-1.7,4.4-2.6,1.6,3.2-2.4,3.7-4.4,3.8,0-.4,0-.8,0-1.2Z" fill="#dad9d2"/>
        <path d="M841.1,536.4c-.6-1.6-.9-2.6-1.4-3.8.8-.4,1.4-.8,2.3-1.3.5,1.2.9,2.2,1.4,3.4-.7.5-1.3.9-2.4,1.7Z" fill="#d8d8d2"/>
        <path d="M880,511c.7-1,1.4-1.9,2.1-2.9l1,.2c.8,2.7.4,2.5-2,3.9-.4-.4-.7-.8-1.1-1.1Z" fill="#d9d8d3"/>
        <path d="M842.8,541c-1.1,0-2.3.1-3.4.2-.2-.3-.3-.5-.5-.8,1.9-2.2,1.9-2,4.4-.7-.2.4-.3.9-.5,1.3Z" fill="#d7d7d2"/>
        <path d="M644.7,596c.7.5,1.4.9,2.1,1.4v5.1h-8.8v-.3c2-.1,4-.3,6.4-.4.1-1.5.2-2.6.3-4-3.4-.2-6.4-.4-10-.6-.2,1.5-.3,2.9-.6,4.7-.3,0-.9,0-1.4.2v-8.2c4.3.8,8.1,1.5,12,2.2Z" fill="#f8f6e6"/>
        <path d="M710.7,571.3c0,.5,0,1,0,1.5-2.2-6-1.3-12.1-1.8-18.4-.4,0-.8,0-1.2,0,0,6.7-1.6,15,3,20.6-4.5-1.7-3.7-6.8-3.7-10.6,0-3.7-.9-8.6,1.2-11.7h1c1.3,6.1,1.3,12.4,1.6,18.6Z" fill="#e0e0db"/>
        <path d="M710.8,575c-4.6-5.6-3-13.9-3-20.6.4,0,.8,0,1.2,0,.5,6.3-.4,12.4,1.8,18.4.5,1,1,2,1.5,3-.5-.2-1-.5-1.5-.7Z" fill="#fcfcfc"/>
        <path d="M786.5,614.8c-1.3,0-2.5,0-3.8,0h-4.7c-.2-.9-.3-1.7-.5-2.8h8.6c.1.9.3,1.8.4,2.7Z" fill="#d7d6d3"/>
        <path d="M661.4,601.6v-3.8c.9,0,1.6,0,2.6-.1v4.8h-16v-5.4h3v4.5h10.4Z" fill="#f8f6e7"/>
        <path d="M652.4,598.3c3.2.2,6.1-1,8.7,2.5h-8.5c0-.6-.1-1.3-.2-2.5Z" fill="#fcfbec"/>
        <path d="M644.4,599.7c-3.1,1.3-5.7.8-8.4.4,1.1-2.4,5-2.7,8.4-.4Z" fill="#fdfded"/>
        <path d="M1263.5,619.1c-14.6-.5-29.4,2.4-43.9,1.4v-11.8c1.8-.9,3.6-1.8,5.7-2.9,4.7,2.9,12,1.4,17.2.9,6.7-.7,13.4-.8,20.1-1.1.5-1.2.9-2.2,1.4-3.4h6.8c.4,5.1.8,10,1.1,15.2-2.9.9-5.5,1.8-8,2.6-.1-.3-.3-.6-.4-.9Z" fill="#e7e3d4"/>
        <path d="M1241.4,540.3c.3,1.1.5,2.2.9,3.9,6.9-.3,13.7-.6,20.9-.9.4,3.2.8,5.9,1.2,9-17,1.1-33.4,2.1-50.1,3.1-.4-4.5-.8-8.7-1.2-13.5,9.5-1.2,18.9-1.4,28.3-1.7Z" fill="#e7e3d4"/>
        <path d="M1034.4,442.1v4.1c-4.9,1.6-9.7,3.2-14.7,4.9-.6-1.3-1.1-2.4-1.7-3.9,5.5-1.9,10.3-4.4,16.5-5.1ZM1034.6,444.8c-1.1-1-1.5-1.6-1.8-1.5-4.5,1.3-8.9,2.7-13.7,4.2.6,1,.9,1.6,1.4,2.4,4.5-1.7,8.9-3.2,14-5.1Z" fill="#e3e1d5"/>
        <path d="M1028.6,471.4c-1.2-4,10.6-8.3,13.8-5.5-4.7,1.9-9.1,3.6-13.8,5.5Z" fill="#fdfded"/>
        <path d="M1021.8,437.8c-.4-.8-.7-1.3-1.2-2.4,3.3-.7,5.9-3.2,9.4-2.6.1.4.3.8.4,1.2-2.8,1.2-5.6,2.5-8.6,3.7Z" fill="#fcfced"/>
        <path d="M1025.2,462.4c2-2.8,5.3-3.1,8.4-4.3-.2,2.8-3.4,4.5-8.4,4.3Z" fill="#fdfced"/>
        <path d="M1029.4,482.4c2.6-.6,5.3-1.3,8.4-2-1.5,3.3-5.5,4.4-8.4,2Z" fill="#fcfced"/>
        <path d="M1039.8,493.9c-.9,3.3-5,4.4-8.5,2.1,3.2-.8,5.7-1.4,8.5-2.1Z" fill="#fcfcec"/>
        <path d="M976.9,510.7c-.9-4.1-1.7-7.7-2.5-11.7,1.9-.4,3.3-.7,5.1-1,.8,2.4,1.6,4.7,2.4,7,1.7-.3,3.3-.6,5.2-.9-.3-2.3-.7-4.4-1.1-7.2,1.7-.5,3.5-1.1,5.5-1.7.9,4,1.6,7.3,2.5,11.4-5.6,1.3-11,2.6-17.2,4.1ZM988.2,504.8c-2.5.5-4.6,1-7,1.5-.8-2.6-1.5-4.7-2.3-7.2-1.3.4-2.3.8-3.3,1.1.7,3.1,1.4,5.9,2.2,9.3,5.2-1.2,10.1-2.3,15.3-3.5-.8-3.6-1.5-6.5-2.2-9.5-1.2.4-2.2.8-3.4,1.2.3,2.4.5,4.7.7,7.2Z" fill="#dbdde0"/>
        <path d="M958.8,514.6c-.6-1.5-1-2.5-1.6-4.2,4.3-1,8.1-1.9,12.5-3,.2,1.7.4,3,.6,4.7-3.9.9-7.5,1.6-11.5,2.5ZM959.2,513.3c3.5-1,7.1-.5,10.7-3.1-4.3-2.4-7.3.7-10.7.5v2.6Z" fill="#e3e1d5"/>
        <path d="M1006.7,500.7c3.3-.8,6-1.4,9.6-2.2-1.7,3.5-6.1,5.2-9.6,2.2Z" fill="#fcfcec"/>
        <path d="M902.8,539.8c-3.1-1.6-.9-4.1-1.5-6.4,14.1-3.1,28.3-6.2,42.4-9.3,13.6-3,27.4-5.3,40.8-9,1.7,8.2,3.5,16.5,5.2,24.7-.5.3-1.1.7-1.9,1.2-.2-2-.4-3.9-.6-6.1h-6.2v8.9h5.5c.5,4.1,1,8,1.5,12.1-13,1.1-26,1.4-40.3.9-7.2,2.2-16,.4-24.9,1-.3-1.2-.5-2.1-.9-3.5-.3,1.3-.5,2.1-.8,3.4-6.1-.6-12.2-1.2-18.3-1.8,0-.5,0-1,0-1.5,4.7-.9,9.5,0,14.2-.9h-14.6c-.4,1.3-.9,2.8-1.4,4.3-.1,0-.3,0-.4,0v-6.6h17.9c0-.3,0-.5,0-.8h-17.2c.5-3.8-1.5-7.3,1.4-10.5,5.6-.3,10.9-1.4,15.9-4.6-.2-1.2-.4-2.2-.7-3.9-5.4,1.2-10.5,2.3-16,3.5.3,1.9.6,3.4.9,4.9ZM963.4,533.4c.1,1.8.3,3.9.5,6.4,2.7-.4,4.8-.8,7.4-1.2-.5-3.2-.9-6-1.3-9.1-1.4,0-2.3-.1-3.1-.2-1.2,1.4-2.3,2.6-3.5,4.1ZM930.8,534.2c.6-1.5,1.3-3.5-1.4-5-2.7.7-5.3,1.5-8.4,2.3.9,2.2,1.5,3.7,1.9,4.8,2.8-.7,5-1.3,7.8-2.1ZM933.8,543.9c-3.9.7-7.3,1.3-10.9,2,.2,1.9.3,3,.4,4.3,4.3.3,8.1-.2,12-2-.5-1.5-.9-2.6-1.5-4.3ZM949,534.9c-3.6.7-6.5,1.3-9.8,1.9.5,2.1.9,3.6,1.3,5.5,3.1-.6,5.8-1.1,8.5-1.5v-5.9ZM934.7,551c-1.9.1-3.5.2-5.4.3v3.1h5.7c-.1-1.3-.2-2.2-.3-3.4ZM970,526.7c1.7.9,3.4,1.9,4.6-.7-1.9-2-3.2-.3-4.6.7Z" fill="#faf8e8"/>
        <path d="M1020.2,520.1c-1.8-.9-3.1-1.6-5.1-2.6-.7.2-2.1.5-3.7.9-.4,1-.8,2-1.2,3.1-1,.3-2,.7-3.5,1.2-.7-2.4-1.4-4.7-2.3-7.6,5.1-1.3,9.9-2.6,15-3.9,1.2,2.7,2.5,5.1.7,9Z" fill="#e2dfcf"/>
        <path d="M909.8,526.9c-.9,0-1.8-.1-2.9-.2-.6-2.5-1.1-4.7-1.7-7.1.7-.3,1.2-.6,1.8-.8,1.8,2.4,4.2,4.5,2.8,8.2Z" fill="#d7d7d3"/>
        <path d="M897.5,542.7c0,4,0,8,0,12-.4.9-.8,1.7-1.1,2.2h-39.4c.3-2.2.6-4.5.9-6.9-3.8.7-6.7,2.7-9.9,1,5.6-1.5,11.3-2.8,17-4.1-.9-1.8-1.4-3-2-4.2,0-.2,0-.5,0-.7,7.7-1.8,15.4-3.5,23-5.3,2.8-.7,5.6-1.5,8.5-2.2.9.1,1.8.2,2.7.3,0,.2,0,.4,0,.5-5.4,1.2-10.7,2.4-16.5,3.6.7,1.6,1.2,2.7,1.8,3.8-.1.9-.2,1.7-.4,2.9,5.6-1,10.5-2,15.4-2.9Z" fill="#f5f0d8"/>
        <path d="M863,542c0,.2,0,.5,0,.7-5,1.1-10.1,2.2-15.3,3.4.1,1.7-2.5,3.3.3,4.8,3.2,1.7,6.1-.3,9.9-1-.3,2.5-.6,4.7-.9,6.9-3.1-.3-6.1-.7-9.1-1-.5-1.4-1.1-2.8-1.6-4.2-.3,0-.7,0-1,0-.5,1.1-1.1,2.3-1.9,4-3.6-1.3-7.2-2.7-10.8-4.1,2.2-4.6,7.6-5,12-6,6.1-1.4,12.2-3,18.5-3.7Z" fill="#faf8e8"/>
        <path d="M605,630.5c-7.7-.7-15.4-1.4-23.5-2.1.5-3.3.9-5.8,1.3-8.4h23c-.3,3.5-.5,7-.8,10.5Z" fill="#f5f0d8"/>
        <path d="M605,630.5c.3-3.5.5-7,.8-10.5h12.2c-.3,4-.6,7.9-1,11.9-4-.5-8-1-12-1.5Z" fill="#faf8e8"/>
        <path d="M699.9,632.3h15v2.3c-4.6.7-13.1-.3-15-2.3Z" fill="#fcfcec"/>
        <path d="M897.5,542.7c-4.9.9-9.8,1.8-15.4,2.9.2-1.2.3-2,.4-2.9,4.7-1.1,9.5-2.2,14.6-3.4.2,1.5.3,2.4.4,3.4Z" fill="#f8f6e7"/>
        <path d="M639.3,627.6c-4.6,2.3-10.3.7-15.4.3,0-.7.1-1.3.2-1.7h14.8c.2.5.3.9.5,1.4Z" fill="#fcfced"/>
        <path d="M553.8,623.4c1-2.1,2-4,3.3-6.5,7.2.6,14.5,1.2,22.2,1.8-.3,3.1-.6,6.1-.8,9.3-4.9-.2-9.7-.4-14.6-.9-3.8-.3-7.9.1-10.1-3.7Z" fill="#f5f0d8"/>
        <path d="M590.3,607.7v-2.9c5,.4,9.8.7,15.2,1.1-2.1,2.3-6.1,2.7-15.2,1.8Z" fill="#fbfbeb"/>
        <path d="M1072.9,502.1c1.9-.6,3-.9,4.6-1.4.3,1.4.6,2.6.9,4-1.6.5-2.8.9-4.5,1.5-.4-1.5-.6-2.7-1-4.2Z" fill="#e1ddce"/>
        <path d="M1034.8,509c4.2-2.1,5.7-2.3,8-1.5-1.8,2.8-5.2,3.5-8,1.5Z" fill="#fcfced"/>
        <path d="M858.7,536c0-1.1-.2-2.1-.2-3.4,3.3-.7,6.5-1.4,9.9-2.1.5,1.4.9,2.4,1.2,3.2-.8,1.7-7.6,3.1-10.8,2.3ZM868.1,531.4c-3.1,1.5-6.5.5-9.3,3.6,3.8,1.3,6.5-.4,9.3-.9v-2.7Z" fill="#e4e2d8"/>
        <path d="M1034.6,444.8c-5.1,1.9-9.5,3.5-14,5.1-.5-.8-.8-1.4-1.4-2.4,4.7-1.5,9.2-2.9,13.7-4.2.2,0,.7.6,1.8,1.5Z" fill="#fcfced"/>
        <path d="M988.2,504.8c-.3-2.5-.5-4.8-.7-7.2,1.2-.4,2.2-.8,3.4-1.2.7,3.1,1.4,5.9,2.2,9.5-5.1,1.2-10,2.3-15.3,3.5-.8-3.4-1.4-6.1-2.2-9.3,1-.3,2-.7,3.3-1.1.8,2.5,1.5,4.7,2.3,7.2,2.4-.5,4.5-.9,7-1.5Z" fill="#fcfbee"/>
        <path d="M959.2,513.3v-2.6c3.4.3,6.5-2.8,10.7-.5-3.6,2.5-7.2,2.1-10.7,3.1Z" fill="#fcfcec"/>
        <path d="M963.4,533.4c1.2-1.4,2.3-2.6,3.5-4.1.8,0,1.7.1,3.1.2.4,3,.9,5.9,1.3,9.1-2.7.4-4.8.8-7.4,1.2-.2-2.5-.3-4.5-.5-6.4Z" fill="#e3e0d0"/>
        <path d="M930.8,534.2c-2.8.7-5,1.3-7.8,2.1-.4-1.1-1-2.6-1.9-4.8,3-.8,5.7-1.6,8.4-2.3,2.7,1.5,2,3.5,1.4,5Z" fill="#e2dfd0"/>
        <path d="M902.8,539.8c-.3-1.5-.6-3.1-.9-4.9,5.5-1.2,10.6-2.3,16-3.5.3,1.7.5,2.7.7,3.9-5,3.2-10.3,4.3-15.9,4.6h0ZM903.4,538c4.9-1.1,9.5-2.1,14.5-3.1-.4-1-.6-1.6-.9-2.3-4.8,1-9.3,2-14.1,3.1.2.8.3,1.4.5,2.4Z" fill="#e6e4d8"/>
        <path d="M933.8,543.9c.6,1.7,1,2.8,1.5,4.3-3.9,1.8-7.7,2.3-12,2-.1-1.3-.2-2.5-.4-4.3,3.6-.6,7-1.3,10.9-2ZM933.1,544.8c-3.3.7-6.3,1.4-9.8,2.1.8,1.2,1.2,1.9,1.7,2.6,2.9-.6,5.6-1.2,8.4-1.8-.1-1.1-.2-1.8-.4-2.9Z" fill="#e7dede"/>
        <path d="M949,534.9v5.9c-2.7.5-5.4,1-8.5,1.5-.5-1.9-.8-3.4-1.3-5.5,3.4-.7,6.3-1.2,9.8-1.9ZM948.8,539.3c-.5-1.4-.7-2.2-1.1-3.3-2.6.6-4.9,1.2-7.4,1.8.6,1.4,1,2.4,1.4,3.5,2.4-.6,4.5-1.2,7.1-1.9Z" fill="#cbdcb9"/>
        <path d="M934.7,551c.1,1.3.2,2.2.3,3.4h-5.7v-3.1c1.9-.1,3.5-.2,5.4-.3Z" fill="#dfdccd"/>
        <path d="M970,526.7c1.4-1.1,2.8-2.7,4.6-.7-1.3,2.6-3,1.7-4.6.7Z" fill="#d8d8d2"/>
        <path d="M848,551c-2.8-1.5-.2-3.1-.3-4.8,5.3-1.2,10.3-2.3,15.3-3.4.6,1.2,1.1,2.4,2,4.2-5.7,1.3-11.3,2.6-17,4.1ZM847.5,547.7c3.2,2.1,13.1,0,16-3.3-5.7.2-10.5,1.6-16,3.3Z" fill="#e8e6dc"/>
        <path d="M868.1,531.4v2.7c-2.9.5-5.5,2.2-9.3.9,2.8-3.1,6.2-2.1,9.3-3.6Z" fill="#fcfcec"/>
        <path d="M903.4,538c-.2-1-.4-1.6-.5-2.4,4.8-1,9.3-2,14.1-3.1.3.7.5,1.4.9,2.3-5,1.1-9.6,2.1-14.5,3.1Z" fill="#fcfced"/>
        <path d="M933.1,544.8c.1,1.1.2,1.8.4,2.9-2.8.6-5.5,1.2-8.4,1.8-.5-.7-.9-1.4-1.7-2.6,3.5-.8,6.5-1.4,9.8-2.1Z" fill="#f8f7de"/>
        <path d="M948.8,539.3c-2.6.7-4.7,1.3-7.1,1.9-.4-1.1-.8-2-1.4-3.5,2.6-.6,4.9-1.2,7.4-1.8.4,1.1.7,1.9,1.1,3.3Z" fill="#f1eee0"/>
        <path d="M847.5,547.7c5.5-1.7,10.2-3.1,16-3.3-2.9,3.3-12.8,5.4-16,3.3Z" fill="#fdfded"/>
      </g>
    </g>
  </g>
</svg>