<?xml version="1.0" encoding="UTF-8"?>
<svg xmlns="http://www.w3.org/2000/svg" version="1.1" viewBox="0 0 1920 1080">
  <!-- Generator: Adobe Illustrator 28.7.8, SVG Export Plug-In . SVG Version: 1.2.0 Build 200)  -->
  <g>
    <g id="_Слой_1" data-name="Слой_1">
      <g>
        <path d="M814.5,826.9h-202.5V253.1c87.8,0,175.5,0,263.2,0-1.4,2.5-2.9,5.1-4.3,7.6-2.5,4.5-5.1,8.9-7.7,13.4,0,0,0,0,0,0-2.2,3.2-4.4,6.4-6.5,9.7,0,.1.3.6.5.8-2,2.3-4,4.5-6,6.8-4.2,2-7.1,6.5-10.2,10-3.3,3.8-6.7,7.5-10,11.3-6.4,7.2-12.6,15.7-20,22-20.9-5.6-41.4-11.1-61.9-16.7-3.1,2.9-5.5,4.7-7.6,8.4-1.8,3.2-3.6,6.5-5.4,9.8-3.8,7.1-7.3,14.3-10.1,21.9-5.6,15-10.7,30.1-16.1,45.1,1.7,5.4,1.8,9.8,5.5,14.6,4.4,5.7,9.7,7.3,16.4,9.4,13.6,4.3,27.2,8.4,40.6,13-5.2,11.8-13.1,22.9-19.5,34.1,0,0,0,0,0,0-3,4.7-6,9.5-9,14.2-15.2,24.9-30.4,49.8-45.6,74.8.3,1,.4,1.8.6,2.5-5,7.1-10,14.1-15.3,21.6,18.4,13.4,36.7,26.6,55.4,40.3,10.1-13.8,20.1-27.5,30.2-41.2,9.9,6.2,18.2,13.9,27.9,19.4,9.8-13.2,19.1-25.9,28.4-38.6.2.3.6.6.6.9.3,5.4,3.1,9.3,7.4,12.1,3.2,2.1,6.6,3.8,9.9,5.7,11.6,4.3,23.7-1.5,34.2-6.3,10.6-4.8,17.9-11.3,25.5-19.9,5.1,10.1,9.6,18.3,19.8,23.9,2,2,4,4,6.1,5.9.6,6.6-.2,11.9-1.7,18.4-1.4,6.4-3.2,12.7-4.5,19.1-2.6,12.4-2.2,24.9-3.9,37.4-1.4,9.8,2.1,19,9.8,25.2,6.5,5.1,18.7,9.9,23.5-.1,3-3.3,6-6.5,9-9.8,1.6-1.7,3.1-3.5,4.8-5.2,5.6-5.8,11.3-11.5,17-17.3,4.3-3.9,8.7-7.8,12.9-11.8,6.3-6,12.4-12.1,18.6-18.2,6.9-4.8,12.8-11.3,19-17.1,1.6,1,2.9,1.9,4.3,2.8,3.5,2.5,6.9,5,10.5,7.5,2.7,1.9,5.5,3.5,8.3,5.3,4.3,3,8.5,6,12.8,9,.8.8,1.5,1.6,2.3,2.3,3.4,2.5,6.9,5,10.4,7.5,3.3,2.3,6.6,4.7,10,7.1-15.8,21.1-31.1,41.8-49.8,60.4h0c-7.6,4.4-14.8,9.5-22.4,13.8-8.2,4.6-17,8-25.7,11.5-31.5,12.7-62.4,26.9-93.4,41-15.7,7.1-31.3,14.3-46.9,21.6-7.2,3.3-14.5,6.8-20.7,11.8-6.2,5.1-12.6,10-18.9,15ZM905.3,694.1h0c.8.8,1.6,1.6,2.7,2.8,2.3-3,4.2-5.7,6.5-8.6-2.9-2.1-5.5-3.9-8.7-6.1-1.4,3.7-5,5.5-4.9,9.8,1.6.8,3,1.5,4.4,2.2ZM758.3,315.4c1.7.6,3.4,1.1,5,1.7,3.3-4.4,3.4-5,2.5-7.7-2.6-2.2-5.4-3.6-9.6-3.6.9,2.8-3.2,4-1.6,7.1,2.9-.9,1.3-5.2,5.6-5.5-1.2,2.7-2.2,4.8-3.3,7.1.5.3.9.7,1.4,1ZM637.3,578.9c.3,3.7.6,6.8.9,10.5,3-.4,5.5-.8,8-1.1v-9.4h-8.9ZM896.2,607.7c2.1-2.8,4.1-5.4,6.2-8.1-2.9-2.1-5.4-4-8.3-6.1-1.5,2.1-2.6,3.7-3.8,5.4.2.1.4.3.6.4,1.1-1.3,2.2-2.6,3.3-4,2.2,1.6,4.2,3,6.3,4.6-1.6,2.2-3.1,4.2-4.5,6.3-1.7-1-3-1.8-4.3-2.5-.1.2-.3.4-.4.7,1.5,1,3,2.1,4.9,3.4Z" fill="#f8f7e9"/>
        <path d="M1100.2,253.1h207v538.5c-9.9,1.5-18.5-1.4-27.7-4.5,0-.4,0-.8.2-1.1,5.1-6.9,10.1-13.8,15.2-20.7,3.6-4.9,7.1-9.8,10.9-15-59.9-43.5-119.5-86.7-179.1-130,1.7-2,3-3.5,4.3-5,5.7-7.9,10.4-16.5,14.9-25.1,4.6-9,10.4-15.6,17.4-22.9l12-12c1,.7,2.1,1.3,3.1,2,2.5,1.6,4.9,3.2,7.4,4.8.7.5,1.5,1,2.2,1.5,5.2,4.1,10.4,8.2,16.1,12.6,34.6-47.5,68.7-94.4,103-141.3-11.3-10-24.7-18.2-37.2-26.5-1.7-6-5.8-10-10.9-13.3-5.6-3.7-11.1-7.5-16.6-11.3-11.9-8.1-23.7-16.5-35.8-24.4-11.9-7.8-24.2-11.5-37.6-15.5-13.8-4.2-27.6-8.5-41.4-12.8-6.3-27-14.7-53.2-27.2-77.9ZM1150.5,615.4c1-1.3,2-2.5,2.9-3.8.6-1,1.1-2,1.8-3.2-2.3-1.6-4.3-3-6.7-4.7-3.5,4.7-6.7,9-10.2,13.7,2.3,1.8,4.3,3.3,6.9,5.4,1.9-2.6,3.6-5,5.2-7.4Z" fill="#f8f7e9"/>
        <path d="M1284.8,826.9h-37.5c-3.3-2.6-9.8-3.2-13.8-4.5-4.3-1.4-8.5-3-12.6-4.7-8.4-3.4-16.5-7.3-24.6-11.5-16.4-8.4-33-18.4-50.9-23.1-18.5-4.8-37.6-2.1-56.3.5-19.6,2.8-39.1,6.4-58.5,10.1-9.6-18-20.1-35.6-29.3-53.9,6.8-3,13.9-5.3,20.5-8.9,7.2-3.9,14.1-8.4,21.1-12.6,7.8,10.9,15.6,23.6,30.4,25.2,9.9,2.6,18.3.3,28.2-.9,9.1-1.1,18.2-.7,27.3-2.1.2-.9.3-1.8.5-2.5-1.1-.5-1.9-.8-2.7-1.2,1.5-.1,1.4,0,1.6-1.4-13.3.9-26.4,2-39.6,3.8-11.1,1.5-22.1-1.3-30.2-9.2-3.8-5-7.6-10-11.4-15,6.3-6.6,13.9-12.6,19-20.2,4.1-3.3,7-8.2,10.1-12.4,2.1-2.8,8.5-8.7,7.9-12.3,4.1-5.5,8.2-10.9,12.4-16.6,13.3,7.6,25.5,18.2,37.9,27.3,12.6,9.3,25,18.7,37.4,28.2,1.9,4,6.5,6.6,9.9,9.3,3.9,3,7.9,5.8,11.9,8.7h0c6.5,7.4,15.4,13,23.3,18.7h0c4.2,3.7,8.4,7.5,12.5,11.2-.7,1.3-1.4,2.5-2,3.8-7.2,5.6-15.1,14.1-24,16.9-4.1,1.3-8.5,1.5-12.7.4-4-1-7.3-3.5-11.3-4.6-2.8-2-5.5-4-8.3-5.9-1.9-4.2-8-7-11.8-9.6-4.7-3.2-9.6-6.2-14.4-9.2-3.1-2.8-6.1-5.5-9.8-8.8-1.1,2.5-1.8,4.2-2.6,6.3,4.5,2.9,8.9,5.7,13.2,8.6,2.7,1.5,5.5,2.7,8,4.5,8.1,5.7,16.1,11.5,24.2,17.3-.8,4.1,12.7,7.3,15.7,7.6,7.2.7,13.5-1.6,19.5-5.3,7.4-5.2,15.2-10.1,20-17.5,1.5-.2,2.4-.4,3.3-.5,1.5,1.2,3,2.5,4.5,3.7,6.7,9.9,19.4,16.1,29.2,22.5,2.5,1.6,4.8,3.7,7.5,4.7,8.9,3.4,17.8,7.3,27.8,5.8-4.2,5.8-8.4,11.7-12.5,17.5-2.7,3.8-5.2,7.8-7.8,11.7ZM1182,743.6c1.5-1.7,3.1-3.4,5-5.5-3.1-2.3-5.9-4.4-9-6.7-1.9,2.7-3.8,5.2-5.9,8.2,2.8,2.2,5.6,4.3,8.8,6.7.5-1.2.9-1.9,1.2-2.6h0ZM1274.5,815.3c1.9,3,4.8,1.5,7.4,1.6,2.1-3.9,1.9-6.3-1-8.9-1.9,0-4,.2-6.4.3v7ZM1202,748.6c-2,3.1-3.8,5.8-5.6,8.6,3.2,2.2,6,4.1,9,6.2,2-3.1,3.7-5.8,5.5-8.6-3.3-2.3-6-4.2-9-6.2ZM1079.3,729.3c-.4-4.5-5.3-4.5-7.5-7.7-2.2,2.9-4.1,5.4-6.3,8.4,3,2.3,5.7,4.3,8.5,6.5,1.8-2.5,3.4-4.6,5.2-7.2ZM1265,792.6c-1.7,3.4-5.1,5.1-4.5,9.2,1.8,1.3,3.6,2.7,5.5,4,.2-.2.3-.4.5-.6-1.4-1.2-2.8-2.3-4.4-3.7,1.6-2.2,3-4.1,4.5-6.3,2.2,1.5,4.1,2.7,6.1,4,0,.9-.1,1.6-.2,3.1.9-1.2,1.4-1.8,2.3-2.9-3.2-2.3-6.2-4.3-9.6-6.8ZM1237.6,772.6c-2.1,3.1-3.9,5.7-5.9,8.6,1.8,1.2,3,2.1,4.3,2.9.1-.1.2-.3.3-.4-.6-.9-1.2-1.7-1.9-2.7,1.5-2,2.8-3.9,4.4-6,2.2,1.6,4.1,3,6.2,4.6-.8,1.4-1.4,2.7-2.1,4,.2.1.4.3.6.4,1-1.4,2-2.8,3.3-4.5-3.1-2.3-6-4.4-9.2-6.7ZM1198.8,791.3c-3.2-2.2-6-4.3-9.2-6.6-1.9,2.8-3.6,5.2-5.5,7.9.4.6.8,1.3,1.2,1.8,1.8-2.5,3.6-5,5.5-7.5,2.3,1.8,4.2,3.3,6.1,4.9-.8,1.4-1.4,2.6-2,3.7.2.1.4.2.5.3,1-1.3,2-2.6,3.4-4.5ZM1092.7,761.1c-2.1,2.9-4,5.5-6.1,8.4.6.8,1.2,1.5,2.3,2.7.3-4.5,2.4-6.6,5-8.6,2,1.6,3.8,2.9,5.5,4.3-.5,1.1-.8,2-1.2,2.9.2,0,.4.2.6.3.7-1.2,1.5-2.4,2.3-3.8-2.8-2-5.3-3.9-8.5-6.2ZM1050.8,762.1c2.5,2,4.7,3.8,6.9,5.5-1-4-4.5-5.3-7.7-7.4-1.9,2.7-3.7,5.2-5.4,7.6,1.1,1.4,2,2.4,2.9,3.5.2-.2.4-.3.6-.5-.6-.8-1.2-1.6-1.9-2.6,1.4-2,2.8-3.8,4.6-6.2ZM1134.2,765.1c-3-2.1-5.6-3.8-8.2-5.7-2,2.7-3.7,4.9-5.5,7.3.4.8.8,1.5,1.1,2,1.8-2.5,3.4-4.9,5.3-7.5,2.4,1.9,4.3,3.4,6.1,4.9-.5,1-.8,1.7-1.1,2.4.3.1.5.2.8.3.5-1.2.9-2.5,1.4-3.7ZM1155.6,776.6l.5-.4c-.5-.8-1-1.6-1.5-2.2,1.5-2.1,2.9-4,4.4-6.2,2.4,1.8,4.7,3.4,7,5.1-1.5-3.5-4.8-4.9-7.8-7.2-2,2.8-3.8,5.4-5.6,8.1,1.2,1.1,2.1,1.9,3,2.7ZM1155.6,716.1c-4,3.2-5.6,5.9-4.8,8.5,1.7-2.3,3.4-4.5,5.2-6.9,2.6,1.8,4.8,3.4,7,5-1.7-3.2-4.5-4.9-7.4-6.6Z" fill="#f5f0d8"/>
        <path d="M1126.5,736.9c.8.4,1.7.7,2.7,1.2-.1.7-.3,1.6-.5,2.5-9.1,0-18.3.6-27.4,1.3-9.4.7-17.9,2.5-27.3,1.7-6.2-2.6-12.3-4.6-17.4-9.1-5.6-4.9-9.5-11.7-13.7-17.8-7.9,5-15.6,10.4-24,14.7-8.8,4.5-18.3,7.6-27.5,11.4-17.9,7.5-35.6,15.6-53.3,23.7-18,8.2-36,16.4-53.9,24.6-8.9,4.1-17.6,8.4-26.6,12.3-8.1,3.5-16.3,7.1-22.9,13-4.5,3.5-9,7-13.5,10.4h-5.2c8-6.2,15.8-13.4,24.3-18.9,8.7-5.6,19.1-9.3,28.5-13.6,19.8-9,39.6-18.2,59.4-27.1,20.1-9,40.1-18.2,60.2-27.1,9.4-4.2,19.2-7.3,28.5-11.6,9.3-4.4,17.3-10.4,25.6-16.5,0,0,0,0,0,0,.5-.1,1.1-.1,1.4-.4,6.3-6.2,12.9-12.1,18.6-18.9,8-9.6,15.3-19.9,22.8-29.9,2.8-3.7,5.5-7.6,8.6-11.7-4.1-2.6-7.9-5-11.6-7.4l-12.8-9.6c-4-2.8-8-5.5-12-8.3-6.3-4.5-12.5-9-18.8-13.5-1.6-1.1-3.2-2.2-5-3.4-6.5,6-12.7,11.8-18.9,17.6-3.4,3.2-6.9,6.4-10.3,9.7-7.1,6.7-14.1,13.5-21.2,20.3-.7.3-1.5.5-1.9,1-6.9,7.2-13.7,14.4-20.5,21.6-2.8,3.2-5.5,6.5-8.3,9.7-7.8,10.1-17.4,4.8-25.2-2.3-8.5-7.8-7.1-18.8-6.7-29.4.5-11.9,2.2-23.3,4.7-34.9,1.4-6.1,2.8-12.3,4.2-18.4,1-4.5,3-10-.4-14.1-2-2-4-4-6.1-5.9-9.5-6.1-14.9-15.4-19.5-25.8-3.6,4.1-7.2,8.8-11.4,12.3-4.3,3.5-9.4,6.3-14.4,8.6-9.7,4.7-22.6,10.4-33.4,6.5-4.8-2.8-10.7-5.1-14.3-9.5-3.4-4.2-3.4-9.9-2.4-15,2.1-11.1,10.5-22.4,18.3-30.3,2.6-2.8,5.1-5.6,8-8.7-8-7.2-17.6-12.9-26.4-19.1-9.4-6.6-18.8-13.4-28.1-20.2-1.1-3.1-2.2-6.1-3.4-9.6-13.2-.8-26.5,1.9-40.2,4.7-.6.7-1.4,1.7-2.1,2.6-.5.8-1,1.7-1.5,2.5-2.8,4.9-5.6,9.8-8.3,14.7,0,0,0,0,0,0-3.7,6-7.5,12-11.2,18-4,6.5-8,13-12,19.5-3.8,6.1-7.5,12.3-11.3,18.4-1.7,2.8-5.7,13.7-10.1,10.6,14.9-25.1,30.2-49.9,45.4-74.8.5-.8,1-1.7,1.5-2.5,2.3-4.1,4.6-8.3,6.8-12.5h0c4.5-3.5,7.6-11.6,10.6-16.5,3.5-5.8,7-11.7,10.5-17.5-7.2-4.6-17.7-6.2-25.9-8.8-8.1-2.6-17.1-4.5-24.7-8.2-5.4-2.7-9.8-7.9-11.2-13.8-1.6-6.8,1.1-13.1,3.5-19.4,5.7-15.4,10.5-31.2,17.5-46.1,3.2-6.7,6.5-14.8,11.3-20.6,5-5.9,11.6-2.8,17.9-1,16.4,4.5,32.7,9.1,49.1,13.3,14.3-13.6,26.7-29.7,39.8-44.4,2-2.3,4-4.5,6-6.8,2-3.5,4-7,6-10.5,0,0,0,0,0,0,.6-.6,1.5-1,1.9-1.7,3.9-6.4,7.7-12.9,11.6-19.3,1.2,0,2.5,0,3.8,0-4.6,7.7-9.2,15.3-13.8,23,8.2,17.9,17.3,35.3,26.1,52.9,4.4,9,8.9,18,13.3,27,4.6,9.3,5.3,18,6.5,28.2,3.5,1.9,7.5,4,11.4,6.1,8.5,4.3,17,8.6,25.6,12.9,10-15,19.9-30,29.9-45.1,3.8-5.5,7.5-11,11.3-16.6-2.5-1.9-4.7-3.5-6.9-5.2-5.5-4-11-8-16.5-12.1-1.3-1-2.5-2-3.8-2.9-6.5-4.8-13-9.5-19.5-14.3-5.9-4.4-12.7-8.5-17.4-14.1.2-.3.5-.7.7-1,3.7,1.3,6.6,3.3,9.9,5.4,1.3,1.1,2.5,2.4,3.9,3.4,4.4,3.2,8.9,6.3,13.4,9.4,2.3,1.9,4.5,3.9,6.9,5.6,4.4,3.2,8.9,6.3,13.4,9.4,2.4,1.9,4.6,4,7.1,5.8,4.1,2.9,8.3,5.6,12.4,8.4.8.8,1.5,1.7,2.4,2.2,17.9,11.2,35.9,22.4,53.9,33.7,2.7,1.6,5.3,3.2,7.7,4.6,7.1-.7,10.4-9.5,13.8-14.7,4.5-7,8.8-14.1,13-21.3,5-4.3,10.3-9.9,16.8-11.7,3.5-1,7.7-1.3,11.4-1.6,3.1-.2,6.2.7,9.1.1-3.1-13.2-6.5-26.3-10.9-39.1-4.5-13.2-10.3-25.8-15.9-38.5,1.3,0,2.5,0,3.8,0,5.6,13,11.7,25.9,16,39.4,4.2,13,6.5,26.9,11.5,39.6,13.8,4.2,27.7,8.3,41.5,12.5,12.6,3.8,24.9,7.3,35.9,14.8,11.8,8,23.5,16.1,35.2,24,9.5,6.4,22.9,12.5,28.4,23.1.5,5.6,1.1,9.5-2.1,14.6-4,6.4-8.6,12.5-12.8,18.8-1,1.3-2,2.5-2.9,3.8-5.5,7.5-11,15-16.5,22.5-1,1.3-2,2.5-2.9,3.8-4.8,6.5-9.5,13-14.3,19.5-1,1.3-2,2.5-2.9,3.8-9.9,13.6-17,29-25.6,43.5-3.2,4.2-6.5,8.5-9.7,12.7-3,3.4-6.1,6.9-9.1,10.2-2.2,2.4-4.4,4.7-6.6,7-6.7,7-12.7,13.1-17,21.9-4.4,9.1-9.4,17.8-15.3,26-5.5,6.2-11,12.5-16.5,18.7-5,5.8-10.1,11.5-15.3,17.5,1.6,1.1,2.8,2,4,2.8,9.8,7.2,19.5,14.5,29.3,21.7,3.7,2.7,7.5,5.5,11.2,8.2,3.5,2.5,7,5,10.5,7.6,8.7,6.8,17.5,13.5,26.2,20.3,2.7,2.2,5.5,4.5,8.2,6.7,6.3,5,12.5,10,18.8,15,1.5,1.2,3,2.5,4.5,3.7,6.3,5,12.5,10,18.8,15,2.7,2.2,5.5,4.5,8.2,6.7,6.3,5,12.5,10,18.8,15,1.5,1.2,3,2.5,4.5,3.7,2.4,1.5,4.8,3,7.2,4.6,11.7,7.6,24.2,12.5,38.5,11.2v3c-13.7,2-24.5-3.7-36.7-9-10.8-6.5-20.2-14.7-30-22.5-1.5-1.2-3-2.5-4.5-3.7-.8-.5-1.6-1-2.8-1.7-6.1,7-13.2,13.1-20.5,18.8-6.2,2.9-11.4,5.8-18.5,5.3-6.2-.4-11.8-3.1-16.8-6.7-8.1-5.8-16.1-11.6-24.2-17.3-2.5-1.7-5.3-3-8-4.5-3.5-2.9-7-5.8-10.6-8.9.3-.9.6-1.7,1-2.9,3.1,2.3,5.9,4.4,8.8,6.5,8.7,6,17.5,12,26.2,18.1,2.8,2,5.5,4,8.3,5.9,7.5,5.9,16.2,8.5,25.1,4.8,8.9-3.6,16.7-9.3,22.9-16.9,1.3-1.5,2.5-2.9,4-4.7-4.7-3.9-9.6-7.5-14.5-11.1h0c-6.6-7.3-15.4-12.9-23.3-18.7h0c-.9-1-1.7-2.1-2.8-3-6.3-5-12.7-10-19-15-12.4-9.6-24.8-19-37.4-28.2-12.4-9.1-24.5-19.8-37.9-27.3-4.3,5.7-8.4,11.2-12.4,16.6-6.2,8.3-12.5,16.5-18.7,24.8-6.4,6.6-12.7,13.2-19.2,19.9,3.3,5,6.5,12.2,11.6,15.4,8,9.3,18.7,11.8,30,10.2,13-1.8,25.9-3.6,39-3.4ZM986.2,575.6c-3-2-6-4-8.9-6-4.3-3.2-8.5-6.4-12.8-9.7-4.2-3-8.5-6-12.7-9-4.3-3-8.5-6-12.8-9-5.4-3.7-10.7-7.5-16.3-11.4-1.5,2.6-2.7,4.7-3.9,6.8-4.4,5.8-8.8,11.6-13.2,17.5,2.9,5.4,5.2,10.7,8.4,15.4,2.2,3.3,5.6,5.7,8.5,8.5,4.4,3.6,10,7.1,11.7,12.9,1.8,6.2-1.4,14.1-2.8,20.1-3.4,14.1-6.2,28-6.7,42.6-.4,11.5-3.7,22.2,5.9,31,3.6,3.3,9.7,7.6,14.8,5.5,5.3-2.1,9.1-9.6,12.5-13.9,23.3-24.4,49.4-46,73.1-69.9-1.8-1.2-3-2-4.2-2.9-3.5-2.5-7-5.1-10.6-7.6-2.6-1.8-5.4-3.5-8.1-5.2-4-3-8-6-12.1-9-3.2-2.3-6.5-4.5-9.7-6.8ZM915.7,453.4c-3.7,3.2-7.5,6.5-11.2,9.7-2.8,2.1-5.6,4.3-9.5,7.2,10,6,19.3,13.1,29.2,19.1,8.9,5.4,18.4-4.5,22.3-12.1,1.5-2,3-4,4.5-6,.8-.7,1.9-1.3,2.5-2.2,8.2-12,16.3-24.1,24.3-36.2.5-.7.2-1.9.2-2.8-8-7-16-13.9-24-20.9-1.1-.5-2.2-1-3.1-1.5-.5.4-.7.5-.9.7-8.1,12-15,24.8-25.2,35.2-3,3.2-6.1,6.5-9.1,9.7ZM1184.2,427.9s0,0,0,0c-.8.9-1.8,1.7-2.4,2.7-2.5,3.6-4.9,7.2-7.3,10.8-2.2,2.8-4.5,5.5-6.7,8.3-7.4,6.6-15,10.3-24,14.1,1.2,18.8.7,37.7.7,56.6,0,18.5,2.9,36.6,5.5,54.9,3.3-3.6,6.1-6.5,8.8-9.4,12.2-12.6,23.7-25,32-40.6,8.4-15.9,17.5-30.3,28.1-44.8,2.3-3,4.8-6,7-9,3-4.2,5.8-8.5,8.8-12.7h0c.6-.4,1.2-.8,1.7-1.4,5.2-7,10.4-14.1,15.6-21.1l2.9-3.8c2.7-3.8,5.5-7.6,8-11.6,4.4-6.8,3.7-15.9-4.2-20.7-1-.7-2-1.5-3-2.2-.2-.1-.4-.2-.6-.4-6-3.9-12.1-7.8-18.1-11.7,0,0,0,0,0,0-5.3-3.9-10.6-7.8-16.2-11.9-2.8,4.1-5.3,7.6-7.7,11.1-3,4.5-6.1,9-9.1,13.5-3.3,5-6.5,10-9.8,15h0c-3.3,4.7-6.5,9.5-9.8,14.2ZM908.3,520.9c-4-3-8-6-12-9-8.8-6.2-17.5-12.5-26.3-18.7-1.1-.6-2.1-1.3-3.2-1.9-5.2-2.9-10.4-5.8-15.5-8.6-1.4-1-2.7-2.1-4.2-2.9-5.8-3.3-11.7-6.5-17.5-9.8-6.2-3.8-12.3-7.7-19-11.9-4.1,5.7-7.9,11-11.7,16.3-1.2,9.2,10.1,13.8,16.4,18.1,11,7.7,22,15.5,33,23.2l14.2,9.8,38.3,27c1.2.9,2.3.7,3.2-.5,4.5-6.5,8.9-13.1,13.3-19.6,1-1.1,2-2.3,3.1-3.6-4.5-2.8-8.3-5.3-12.2-7.7h0ZM1197,402.4c3.3-5,6.5-9.9,9.8-14.9,3.6-5,7.2-10,11-15.1-6.2-4.2-12.3-8.6-18.8-12.5-7.3-4.4-14.9-6.9-23-9.3-16.3-4.9-32.6-10-48.9-14.7.4,5.3.4,9.5-.3,14.9-.8,5.3-1.3,10.6-1.6,15.9-.6,10.6-.7,21.3,1.9,31.6,5.3,20.7,12.9,40.6,16.9,61.6,2.5-1,4.8-1.8,7.2-2.7,9.4-4,16.3-10.9,21.7-19.4,4.5-6.7,9-13.5,13.6-20.2,3.5-5,7-10,10.5-15ZM1062,624.5c6,4.2,12,8.5,18,12.7.8.7,1.5,1.6,2.4,2.2,3.9,2.8,7.9,5.5,11.8,8.2.9,0,2.2.2,2.7-.3,1.5-1.2,2.7-2.8,4-4.3,6.3-7.2,12.6-14.3,18.9-21.5,2.6-3,5-6.1,7.4-9.2,3.2-4.8,6.4-9.6,9.6-14.4,3.4-6.7,6.7-13.3,9.8-19.3-1.4-10.8-2.7-21.6-4.4-32.4-.7-9.5-1.5-18.9-1.6-28.4,0-9.1.3-18.2-.2-27.2-7.6,1.8-13.7,5-18.5,10.6-5.5,6.2-11,12.5-16.5,18.7l-8.3,9.8c-6.7,7.8-13.3,15.6-20,23.4-5.6,6.5-11.1,12.9-16.7,19.4-4.3,6-8.5,12-12.8,18-1,1.3-2,2.5-2.9,3.8-2.8,3.9-5.6,7.7-8.7,12,4.3,3.5,8.4,6.8,13.1,9.1,4.2,3,8.5,6,12.7,9ZM1040.3,594.4c7.8-9.3,14.4-19.6,21.8-29.3,3.2-3.5,6.5-6.9,9.7-10.5,1.4-1.6,2.5-3.5,3.8-5.3,14.7-16.1,29-32.5,42.8-49.4,2.7-2.5,5.5-5,8.2-7.5,4.7-2,9.3-4,14.5-6.2-.6-15.6-.4-30.7-4.8-45.9-4.5-15.4-9.1-30.8-13.6-46.2-1-10-1.4-19.4-.7-29.5.6-9.2,4.5-20.7,1-29.5-7.4-2.5-14.7-.1-22.9.8-3.3,2.9-7.2,6.1-11,9.4-.4.4-1,.8-1.3,1.3-3.1,4.8-6.1,9.7-9.1,14.5-3,4.8-6.2,9.6-9.1,14.4-2.6,4.4-5.9,7.6-11.4,7.9-3.7-2.2-7.4-4.4-11.1-6.6-5.2-3.3-10.5-6.5-15.7-9.8-2.3-1.5-4.5-3-6.8-4.4-10.2-6.3-20.4-12.7-31.2-19.3-7,10.6-13.8,21-20.6,31.3-2.2,3.3-4.5,6.5-6.7,9.8-4.4,6.7-8.7,13.4-13.2,20.2,5.3,3.6,10.4,7.3,15.3,11.3,4.4,4.1,8.8,8.2,12.1,11.3,4.5-1,7.6-2,10.7-2.3,7.6-.7,13.6,3,19.3,7.4,7.6,5.9,15.1,11.8,22.7,17.6-2.2,3.6-3.7.1-5.4.3-4.2-3.2-8.5-6.5-12.7-9.7-5.6-4.7-11-10.1-18.4-11.6-6.1-1.3-12.6-.5-15.4,5.6-6,8.8-12,17.5-18,26.3-6.3,9.2-12.1,19.9-20.5,27.3-3.3,2.9-8.3,7.3-12.9,7.2-4.7,0-10-5.1-13.7-7.6-7.3-5-14.6-10-22.1-15.2-3.1.9-4.8,3.6-7.2,5.4-4.7,4.1-9.4,8.2-14.5,12.6,9.9,7,19.3,13.7,28.7,20.4,4.7,3.3,9.5,6.6,14.2,9.9l8.3,5.9c8.5,6,17,12,25.5,18,10.6,7.6,21.2,15.1,31.8,22.7,14.4,10.2,28.8,20.4,43.2,30.5,3.1,2.1,6.3,4.3,9.8,6.7,2.5-3.7,4.6-7,6.7-10.3ZM891,410.7c2.3-2.9,4.6-5.7,6.7-8.8,3.5-5.1,7.7-9.7,9-16,4-8.3,1.1-18-2.3-26.1-3.8-9-8.8-17.6-13.1-26.4-8.9-17.8-17.3-36.1-26.9-53.5-1.6,2.3-2.9,4.3-4.3,6.2-9.1,10.1-18.1,20.3-27.2,30.4-8.7,9.7-17.6,18.7-23.7,30.4-1.2,7.8-4.6,15.8-7,23.4-2.4,7.7-4.9,15.5-7.3,23.2-4.8,15.1-9.6,30.1-15.8,44.7,21.6,11.7,43.2,23.1,64.5,35.5,1.5,1,3,1.9,4.5,2.9,3.1,1.7,6.1,3.5,9,5.1,0-6.6-1-14.2.7-20.6,1.5-5.9,6.3-11.3,9.6-16.3,7.6-11.5,15.6-22.8,23.5-34.1ZM897.7,559.9c1.4-1.6,2.7-3.3,4.2-5.1-2.2-1.5-3.9-2.7-5.7-3.9-13.1-9.2-26.1-18.5-39.3-27.8-.9,1-1.4,1.6-2,2.2-10.8,12.2-37.9,39.4-16.2,53.5,10.5,6.8,20.3,3.8,31.2-.3,10.5-4,21-9.3,27.8-18.6ZM891.8,468.4h0c5.9-3.3,11.1-8.6,16.1-13.2,5.3-4.8,10.4-9.8,15.3-15,9.6-10.3,16.9-22.3,24.4-34.2-12.6-6.5-24.8-12.8-36.3-18.7-10.2,14.8-20.4,29.6-30.9,44.2-1.5,2-3,4-4.4,6-4.8,6.7-11.2,13.7-14,21.6-2.7,7.8-1,17.3-.3,25.4,2.8,1.5,5.3,2.8,7.5,4.1,7.8-6.5,15.2-13.2,22.5-20.3ZM775.8,436.8c8.1-15.4,12.5-33.6,17.6-50.1,2.5-8.1,5.3-16.2,7.7-24.3,1.2-4,2.3-8.1,3.7-12.1,1.2-3.3,4.3-7.9,4.3-11.3-10.3-3.5-20.9-6.1-31.4-8.9-5.4-1.5-10.7-2.8-16.1-4.3-4.4-1.3-8.8-2.8-13.4-1.8-4.2,5.3-7.1,12-10.2,18-3.4,6.5-6.3,13.1-8.8,19.9-5.1,13.7-9.8,27.6-14.6,41.4,1.1,4.6,1.7,9.4,4.8,13.1,3.9,4.7,10.1,5.6,15.6,7.3,13.7,4.1,27.3,8.4,40.8,13.1ZM807.5,456.7c-9.9-5.9-20.1-10.5-30.2-15.4-6.5,10.8-12.7,21.3-19,31.8.2.3.3.5.5.8,12.8-3.3,25.8-4.7,39.1-3.9,3.1-4.4,6.1-8.5,9.5-13.3Z" fill="#fefefe"/>
        <path d="M881.2,253.1c71,0,142,0,213,0,12.3,24.1,20.9,49.5,27,76.1-6.4,1.1-13.3.2-19.6,1.8-6.2,1.6-11.6,8.1-16.4,12.1-11.5-5.1-22.1-14.3-32.5-21.4-10.7-7.3-21.5-14.6-32.3-21.9-21.8-14.7-43.5-29.6-65.5-44.1-9.6,10.7-15.3,24.9-25.7,34.9-1,.4-2,.7-3.3,1.2.4,1.5.7,2.8,1,4-8.4,12.4-16.8,24.7-25.3,37.1-1.1,1.6-2.6,2.8-3.9,4.2-9.8-20.4-20-40.6-30.1-60.8,4.7-7.6,9.1-15.4,13.5-23.2Z" fill="#f8f7e9"/>
        <path d="M1239.8,826.9h-288c.1-10.5,9-15.2,17.9-17.3,11.4-2.7,22.8-5.4,34.2-7.9,20.6-4.6,41.4-8.8,62.1-12.4,20.4-3.6,42.3-7.6,63-6.2,19.7,1.3,37.5,10.1,54.9,18.8,18.3,9.2,36.5,18,55.8,25.1Z" fill="#f8f7e9"/>
        <path d="M1001.2,739.9c9.2,18.3,19.6,35.9,29.3,53.9-7.2,1.5-14.4,3-21.5,4.6-15.2,3.5-30.3,6.9-45.4,10.5-7,1.7-14.9,11.2-14.1,17.9h-126l12-9.7c5.9-4.4,11.4-7.8,18.1-11,6.4-3,12.9-5.9,19.4-8.9,14.2-6.5,28.5-13,42.7-19.5,28.4-13,56.8-25.8,85.5-37.9Z" fill="#f8f7e9"/>
        <path d="M949.5,826.9c-.8-6.7,7-16.3,14.1-17.9,15.1-3.6,30.3-7.1,45.4-10.5,7.2-1.6,14.3-3.1,21.5-4.6,19.5-3.7,38.9-7.3,58.5-10.1,18.6-2.6,37.8-5.3,56.3-.5,17.9,4.7,34.5,14.7,50.9,23.1,8.1,4.1,16.2,8.1,24.6,11.5,4.2,1.7,8.4,3.2,12.6,4.7,4,1.4,10.5,2,13.8,4.5h-7.5c-19.3-7.1-37.4-15.9-55.8-25.1-17.4-8.7-35.2-17.4-54.9-18.8-20.8-1.4-42.6,2.7-63,6.2-20.8,3.6-41.5,7.8-62.1,12.4-11.4,2.5-22.8,5.2-34.2,7.9-8.9,2.1-17.8,6.9-17.9,17.3h-2.2Z" fill="#96d3f0"/>
        <path d="M1284.8,826.9c2.6-3.9,5.1-7.8,7.8-11.7,4.1-5.9,8.3-11.7,12.5-17.5.7,0,1.5,0,2.2,0v29.2h-22.5Z" fill="#f8f7e9"/>
        <path d="M1253.2,439.9c4.3-6.2,8.8-12.4,12.8-18.8,3.2-5.1,2.7-9,2.1-14.6-5.5-10.6-18.9-16.6-28.4-23.1-11.8-8-23.5-16-35.2-24-11-7.5-23.3-11-35.9-14.8-13.8-4.2-27.7-8.3-41.5-12.5-5-12.7-7.3-26.6-11.5-39.6-4.4-13.5-10.5-26.4-16-39.4.2,0,.5,0,.8,0,12.5,24.8,20.8,51,27.2,77.9,13.8,4.3,27.6,8.6,41.4,12.8,13.5,4.1,25.7,7.8,37.6,15.5,12.1,7.9,23.8,16.3,35.8,24.4,5.5,3.8,11,7.6,16.6,11.3,5.1,3.3,9.2,7.3,10.9,13.3.3,6.4-1.2,11.5-4.9,16.7-2.9,4.1-7,13.2-11.6,14.8Z" fill="#deded9"/>
        <path d="M1042.5,712.1c-8.3,6.1-16.2,12.1-25.6,16.5-9.3,4.4-19.1,7.5-28.5,11.6-20.1,8.9-40.1,18.1-60.2,27.1-19.9,8.9-39.6,18.1-59.4,27.1-9.4,4.3-19.8,8-28.5,13.6-8.5,5.5-16.3,12.6-24.3,18.9h-1.5c6.3-5,12.7-9.9,18.9-15,6.2-5.1,13.5-8.5,20.7-11.8,15.6-7.2,31.3-14.4,46.9-21.6,30.9-14.1,61.8-28.3,93.4-41,8.7-3.5,17.5-6.9,25.7-11.5,7.6-4.3,14.8-9.5,22.4-13.8Z" fill="#deded9"/>
        <path d="M881.2,253.1c-4.4,7.8-8.8,15.5-13.5,23.2,10.1,20.2,20.3,40.5,30.1,60.8,7.2,15,16.5,28.6,14.9,45.9,4.3,2.3,8.2,4.5,12.1,6.6-.2.2-.5.5-.7.7-3.9-2.1-7.9-4.2-11.4-6.1-1.2-10.2-2-18.9-6.5-28.2-4.4-9-8.9-18-13.3-27-8.7-17.6-17.9-35-26.1-52.9,4.6-7.7,9.2-15.4,13.8-23,.3,0,.5,0,.8,0Z" fill="#deddd8"/>
        <path d="M1085.2,343.1c4.8-4,10.2-10.5,16.4-12.1,6.3-1.6,13.2-.7,19.6-1.8-6.1-26.6-14.7-52-27-76.1.5,0,1,0,1.5,0,5.6,12.7,11.4,25.4,15.9,38.5,4.4,12.8,7.8,25.9,10.9,39.1-3,.6-6-.3-9.1-.1-3.6.3-7.9.6-11.4,1.6-6.5,1.8-11.8,7.4-16.8,11.7,0,0,0,0,0,0,0-.3,0-.5,0-.8Z" fill="#deddd8"/>
        <path d="M1307.2,793.1c-14.3,1.3-26.8-3.5-38.5-11.2-2.4-1.6-4.8-3.1-7.2-4.6.7,0,1.6,0,2.1.2,5.3,3.1,10.6,6.3,15.9,9.5,9.2,3.1,17.9,6,27.7,4.5v1.5Z" fill="#dfdfd8"/>
        <path d="M1307.2,797.6c-.7,0-1.5,0-2.2,0-10,1.5-18.9-2.4-27.8-5.8-2.7-1-5-3.1-7.5-4.7.3,0,.5,0,.8,0,12.2,5.3,23.1,11.1,36.7,9v1.5Z" fill="#dedcd2"/>
        <path d="M876.8,253.1c-3.9,6.4-7.7,12.9-11.6,19.3-.4.7-1.2,1.1-1.9,1.7,2.6-4.5,5.1-8.9,7.7-13.4,1.5-2.5,2.9-5.1,4.3-7.6.5,0,1,0,1.5,0Z" fill="#dfded9"/>
        <path d="M835.5,817.1c-4,3.2-8,6.5-12,9.7h-2.2c4.5-3.5,9-7,13.5-10.4.2.2.5.5.7.7Z" fill="#dfdeda"/>
        <path d="M799.5,482.6c9.3,6.8,18.7,13.5,28.1,20.2,8.8,6.2,18.4,11.9,26.4,19.1-2.8,3.1-5.4,5.9-8,8.7-.6.2-1.4.2-1.7.6-3.6,4.5-7.4,9-10.6,13.7-4.6,6.7-7.6,14.1-8,22.4-9.3,12.7-18.7,25.3-28.4,38.6-9.7-5.6-18-13.2-27.9-19.4-10.1,13.7-20.1,27.4-30.2,41.2-18.7-13.6-37-26.9-55.4-40.3,5.3-7.5,10.3-14.5,15.3-21.6,1.1.3,2.3.5,3.5.8,6.2-10.2,12.4-20.4,18.2-30.8,4-6.5,8-13,12-19.5,1-1.4,2.1-2.7,2.9-4.1,2.8-4.9,5.5-9.8,8.3-14.7,0,0,0,0,0,0,.5-.5,1.2-.9,1.5-1.5,3-5,6-10,9-15,3.6-4.7,12.9-4.5,18.3-5.3,7.5-1.2,14.9-1.3,22.5-1.7,1,4,1.3,5.6,4.2,8.5ZM704.2,584.7c-.7,1-1.5,1.9-2.2,2.9-.6.9-1.2,1.9-1.9,2.9,2.8,2.1,5.1,3.8,7.9,6,2.3-3,4.4-5.8,6.6-8.5-2.7-2.1-5-3.8-7.2-5.4-1.8-.3-3,.2-3.2,2.2ZM811.8,522.8c-1.8,2.4-3.2,4.3-4.6,6.2-1-.4-1.8-.8-2.6-1.2-.1.2-.2.4-.3.6,1.1.7,2.1,1.4,3.5,2.3,2.1-2.9,3.9-5.4,6-8.3-3-2-5.6-3.7-8.2-5.4l-.4.7c2.1,1.6,4.2,3.3,6.6,5.1ZM790,573.8c-3.1-2.1-5.7-3.8-8.4-5.6-.2.3-.4.6-.6.9,2.2,1.7,4.4,3.3,6.8,5.2-1.8,2.6-3.3,4.8-4.9,7.1,3.4-1.3,4.9-4.4,7.1-7.6Z" fill="#f5f0d8"/>
        <path d="M851.3,291.4c-13.1,14.7-25.5,30.9-39.8,44.4-16.4-4.3-32.8-8.8-49.1-13.3-6.3-1.7-12.9-4.9-17.9,1-4.9,5.7-8.1,13.8-11.3,20.6-7,14.9-11.8,30.6-17.5,46.1-2.3,6.3-5.1,12.6-3.5,19.4,1.4,5.9,5.8,11.1,11.2,13.8,7.6,3.8,16.7,5.7,24.7,8.2,8.2,2.6,18.7,4.2,25.9,8.8-3.5,5.8-7,11.7-10.5,17.5-3,4.9-6,13-10.6,16.5,6.3-11.3,14.2-22.3,19.5-34.1-13.5-4.6-27.1-8.7-40.6-13-6.7-2.1-12-3.7-16.4-9.4-3.7-4.8-3.8-9.2-5.5-14.6,5.4-15,10.5-30.2,16.1-45.1,2.8-7.5,6.3-14.8,10.1-21.9,1.7-3.3,3.5-6.5,5.4-9.8,2.1-3.8,4.5-5.5,7.6-8.4,20.5,5.5,41.1,11,61.9,16.7,7.4-6.2,13.6-14.7,20-22,3.3-3.8,6.7-7.5,10-11.3,3.1-3.5,6-8,10.2-10Z" fill="#deded9"/>
        <path d="M720.8,535.9c-5.9,10.4-12,20.6-18.2,30.8-1.3-.3-2.4-.6-3.5-.8-.2-.7-.4-1.4-.6-2.5,15.2-24.9,30.3-49.9,45.6-74.8.2.2.5.5.7.7-15.2,24.9-30.4,49.7-45.4,74.8,4.4,3.1,8.5-7.9,10.1-10.6,3.7-6.2,7.5-12.3,11.3-18.4,0,.3,0,.6,0,.8Z" fill="#deded8"/>
        <path d="M929.3,589.8c3.4,4,1.4,9.5.4,14.1-1.4,6.1-2.9,12.3-4.2,18.4-2.6,11.6-4.3,23-4.7,34.9-.4,10.6-1.9,21.6,6.7,29.4,7.7,7.1,17.4,12.4,25.2,2.3,0,.3,0,.5,0,.8-4.7,10-17,5.3-23.5.1-7.8-6.2-11.2-15.4-9.8-25.2,1.8-12.5,1.4-25,3.9-37.4,1.3-6.4,3-12.7,4.5-19.1,1.5-6.5,2.3-11.8,1.7-18.4Z" fill="#deded9"/>
        <path d="M844.5,585.4c10.8,3.9,23.7-1.8,33.4-6.5,5-2.4,10.1-5.1,14.4-8.6,4.3-3.5,7.8-8.2,11.4-12.3,4.6,10.5,10,19.8,19.5,25.8-10.2-5.5-14.7-13.7-19.8-23.9-7.6,8.7-14.9,15.1-25.5,19.9-10.5,4.7-22.6,10.6-34.2,6.3l.7-.7Z" fill="#dededa"/>
        <path d="M1082.3,643.8c3.7,2.4,7.5,4.8,11.6,7.4-3,4.1-5.7,7.9-8.6,11.7-7.5,10-14.8,20.3-22.8,29.9-5.6,6.8-12.3,12.6-18.6,18.9-.3.3-.9.3-1.4.4,18.7-18.6,34-39.3,49.8-60.4-3.4-2.5-6.7-4.8-10-7.1,0-.3,0-.5,0-.8Z" fill="#dfdeda"/>
        <path d="M637.3,578.9h8.9v9.4c-2.4.4-4.9.7-8,1.1-.3-3.7-.6-6.8-.9-10.5Z" fill="#d0d0cf"/>
        <path d="M844.5,585.4l-.7.7c-3.3-1.9-6.7-3.7-9.9-5.7-4.4-2.8-7.2-6.7-7.4-12.1,0-.3-.4-.6-.6-.9.4-8.3,3.4-15.7,8-22.4,3.2-4.8,7-9.2,10.6-13.7.3-.4,1.1-.4,1.7-.6-7.7,7.9-16.2,19.2-18.3,30.3-1,5.1-1,10.7,2.4,15,3.6,4.4,9.5,6.7,14.3,9.5Z" fill="#deddd6"/>
        <path d="M758.3,315.4c-.5-.4-1-.7-1.4-1,1.1-2.3,2-4.4,3.3-7.1-4.3.3-2.7,4.7-5.6,5.5-1.6-3.1,2.5-4.2,1.6-7.1,4.2,0,7,1.4,9.6,3.6-1.1,1.7-2.3,3.3-3.4,4.9-1.4.4-2.7.7-4.1,1.1Z" fill="#efeddf"/>
        <path d="M983.2,656.6c7.1-6.8,14.1-13.5,21.2-20.3,3.4-3.2,6.9-6.4,10.3-9.7,0,.3,0,.5,0,.8-6.2,6.1-12.4,12.2-18.6,18.2-4.2,4-8.6,7.9-12.9,11.8,0-.3,0-.5,0-.8Z" fill="#dfdeda"/>
        <path d="M905.3,694.1c-1.4-.7-2.8-1.4-4.4-2.2-.1-4.2,3.5-6.1,4.9-9.8,3.2,2.3,5.8,4.1,8.7,6.1-2.2,3-4.2,5.6-6.5,8.6-1.1-1.1-1.9-2-2.7-2.8.9.2,1.9.4,3.1.7,1.4-1.9,2.7-3.8,4.2-5.9-2.3-1.7-4.2-3.1-6.5-4.7-1.7,2.5-3.1,4.5-3.9,5.8,1.4,1.8,2.3,2.9,3.2,4.1Z" fill="#e3dbc6"/>
        <path d="M896.2,607.7c-2-1.4-3.5-2.4-4.9-3.4.1-.2.3-.4.4-.7,1.3.8,2.7,1.6,4.3,2.5,1.4-2,2.9-4.1,4.5-6.3-2.1-1.5-4.1-3-6.3-4.6-1.2,1.4-2.2,2.7-3.3,4-.2-.1-.4-.3-.6-.4,1.2-1.6,2.3-3.3,3.8-5.4,2.8,2.1,5.4,3.9,8.3,6.1-2.1,2.7-4,5.3-6.2,8.1Z" fill="#e2dac5"/>
        <path d="M1014.8,627.4c0-.3,0-.5,0-.8,6.2-5.8,12.5-11.6,18.9-17.6,1.8,1.2,3.4,2.3,5,3.4-.2.2-.5.5-.7.7-1.3-.9-2.7-1.8-4.3-2.8-6.1,5.8-12,12.2-19,17.1Z" fill="#dfded9"/>
        <path d="M983.2,656.6c0,.3,0,.5,0,.8-5.7,5.8-11.3,11.5-17,17.3-1.6,1.7-3.2,3.5-4.8,5.2-.2-.2-.5-.5-.7-.7,6.8-7.2,13.7-14.4,20.5-21.6.5-.5,1.3-.7,1.9-1Z" fill="#deded9"/>
        <path d="M1038,613.1c.2-.2.5-.5.7-.7,6.3,4.5,12.5,9,18.8,13.5-.3,0-.5,0-.8,0-2.8-1.8-5.6-3.4-8.3-5.3-3.5-2.4-7-5-10.5-7.5Z" fill="#dfdfda"/>
        <path d="M758.3,315.4c1.4-.4,2.7-.7,4.1-1.1,1.1-1.6,2.2-3.2,3.4-4.9,1,2.7.8,3.2-2.5,7.7-1.6-.5-3.3-1.1-5-1.7Z" fill="#d2cfc0"/>
        <path d="M744.7,489.4c-.2-.2-.5-.5-.7-.7,3-4.7,6-9.5,9-14.2-2.3,4.2-4.6,8.3-6.8,12.5-.5.9-1,1.7-1.5,2.5Z" fill="#deded9"/>
        <path d="M1082.3,643.8c0,.3,0,.5,0,.8-3.5-2.5-7-4.9-10.4-7.5-.9-.6-1.6-1.5-2.3-2.3,0-.2,0-.5,0-.7l12.8,9.6Z" fill="#dfdfda"/>
        <path d="M1069.5,634.2c0,.2,0,.5,0,.7-4.3-3-8.5-6-12.8-9,.3,0,.5,0,.8,0,4,2.8,8,5.5,12,8.3Z" fill="#dfdeda"/>
        <path d="M960.8,679.2c.2.2.5.5.7.7-3,3.3-6,6.5-9,9.8,0-.3,0-.5,0-.8,2.8-3.2,5.5-6.5,8.3-9.7Z" fill="#dededa"/>
        <path d="M863.3,274.1c-2,3.5-4,7-6,10.5-.2-.3-.6-.7-.5-.8,2.2-3.2,4.4-6.5,6.5-9.7Z" fill="#deddd8"/>
        <path d="M1279.5,787.1c-5.3-3.2-10.6-6.4-15.9-9.5-.6-.3-1.4-.2-2.1-.2-1.5-1.2-3-2.5-4.5-3.7-1.9-3.8-5.9-6.1-9.2-8.8-2.4-1.9-6.6-6.7-9.6-6.3-2.7-2.2-5.5-4.5-8.2-6.7-1.9-3.8-5.9-6.1-9.2-8.8-2.4-1.9-6.6-6.7-9.6-6.3-1.5-1.2-3-2.5-4.5-3.7-1.9-3.8-5.9-6.1-9.2-8.8-2.4-1.9-6.6-6.7-9.6-6.3-2.7-2.2-5.5-4.5-8.2-6.7-.7-1.1-1.3-2.5-2.2-3.2-7.7-6-15.5-11.9-23.3-17.8-3.7-2.5-7.5-5-11.2-7.5-3.3-2.7-6.7-5.3-10-7.9-.2-.1-.8.3-1.2.4-9.8-7.2-19.5-14.5-29.3-21.7-.6-1.1-1.2-2.2-2-3.6,1.9-2.1,15-14.8,13.3-16.7,5.5-6.2,11-12.5,16.5-18.7.3.2.5.5.8.7-1.3,1.5-2.6,3-4.3,5,59.6,43.3,119.2,86.5,179.1,130-3.8,5.2-7.3,10.1-10.9,15-5.1,6.9-10.1,13.8-15.2,20.7-.2.3-.2.7-.2,1.1ZM1196.2,700.1c1.1-1.2,2.2-2.5,3.5-4-3-2.2-5.4-4-8.4-6.2-2.3,2.8-4.4,5.4-6.7,8.2,3.4,2.3,6.2,4.2,9.4,6.3.9-1.8,1.6-3,2.2-4.3h0ZM1276.4,766.3c2.1-3,3.9-5.6,6-8.5-3.4-2.3-6.2-4.2-9.2-6.3-2.2,2.9-4,5.3-6.1,8.1,3.2,2.3,6.1,4.4,9.3,6.7ZM1259.8,742.1c-3.2-2.3-6-4.2-9.1-6.4-2.1,2.8-4,5.3-6.2,8.2,3.7,2,5.7,5.8,10,5.6,1.7-2.4,3.3-4.6,5.3-7.4ZM1157.9,679.2c2-2.8,3.9-5.4,5.9-8.1-3.2-2.3-5.8-4.2-8.7-6.4-2.1,3.1-3.9,5.6-5.8,8.5,3.1,2.2,5.7,4,8.7,6.1Z" fill="#f5f0d8"/>
        <path d="M1253.2,439.9c4.7-1.7,8.7-10.7,11.6-14.8,3.7-5.2,5.3-10.3,4.9-16.7,12.5,8.3,25.9,16.6,37.2,26.5-34.2,47-68.4,93.9-103,141.3-5.6-4.4-10.8-8.5-16.1-12.6,1.3.4,2.6.8,4.1,1.2-2.7-2.4-4.9-4.4-7.1-6.4,1.7-1.8,3.3-3.5,5-5.2,1.1.5,1.9.9,2.6,1.3.1-.2.2-.4.3-.6-1.1-.8-2.3-1.5-3.6-2.4-1.9,2.2-4.5,3.7-4.4,6.9-.5.2-.9.4-1.5.7.9,1.2,1.6,2.1,2.3,3.1-2.5-1.6-4.9-3.2-7.4-4.8-1-.7-2.1-1.3-3.1-2,.9-1.2,1.8-2.4,2.6-3.7.4-.6.3-1.5.5-2.3,3.2-4.2,6.5-8.5,9.7-12.7,2-.7,2.5-1.2,4.3-4.7,6.3-12.6,12.5-25.3,21-36.7.4-.5.2-1.4.3-2.1,1-1.3,2-2.5,2.9-3.8,2.9-.2,6.2-6.7,7.9-9,2-2.7,6.9-7.1,6.4-10.5,1-1.3,2-2.5,2.9-3.8,3.1-.2,7.1-8,9-10.5,2.1-2.8,8.1-8.4,7.6-12,1-1.3,2-2.5,2.9-3.8ZM1219.5,513.4c-.6-.3-1.2-.6-2-1-2,2.5-3.9,4.9-6.1,7.7,2.8,2,5.1,3.7,7.3,5.3,2.3,0,3.4-.9,3.7-3,1.3-1.4,2.5-2.8,4.2-4.6-2.7-1.6-4.9-3-7.2-4.4ZM1269.7,453.4c-1-.7-2-1.5-2.9-2.2-2.8-5-7.9,4.2-9.3,6.1,2.9,2.2,5.3,4,8.3,6.3,2.2-3,4.3-5.7,6.7-8.9-1.3-.6-2-.9-2.7-1.3ZM1235.1,487.9c-2.3,3.1-4.3,5.9-6.2,8.5,7,6,7.9,6.4,9.8,4.1-3.3-.4-5.5-2.2-7.4-4.8,1.6-2,2.9-3.8,4.2-5.4.9.1,1.6.2,3.1.4-1.3-1.1-2-1.7-3.4-2.8Z" fill="#f5f0d8"/>
        <path d="M1153.5,611.6c-1,1.3-2,2.5-2.9,3.8-2.5.7-3.8,3.6-5.3,5.6-1.6-1.2-3-2.2-4.8-3.5,3.1-4.1,6-8.1,9-12.2,1.9,1.4,3.1,2.4,4.1,3.1v3.1Z" fill="#e7e2d2"/>
        <path d="M1131,615.4c-.3-.2-.5-.5-.8-.7,5.8-8.2,10.9-17,15.3-26,4.3-8.8,10.3-14.9,17-21.9.2.2.5.5.7.7-7,7.3-12.7,13.9-17.4,22.9-4.5,8.7-9.2,17.2-14.9,25.1Z" fill="#deded9"/>
        <path d="M1153.5,611.6v-3.1c-.9-.7-2.2-1.7-4.1-3.1-3,4-5.9,8-9,12.2,1.8,1.3,3.2,2.3,4.8,3.5,1.5-2,2.9-4.9,5.3-5.6-1.7,2.4-3.4,4.7-5.2,7.4-2.6-2-4.6-3.6-6.9-5.4,3.5-4.7,6.7-9,10.2-13.7,2.4,1.6,4.3,3,6.7,4.7-.7,1.2-1.2,2.2-1.8,3.2Z" fill="#d6d3c3"/>
        <path d="M1163.2,567.4c-.2-.2-.5-.5-.7-.7,2.2-2.3,4.4-4.7,6.6-7,3.1-3.4,6.1-6.8,9.1-10.2-.1.8,0,1.6-.5,2.3-.7,1.3-1.7,2.5-2.6,3.7-4,4-8,8-12,12Z" fill="#deded8"/>
        <path d="M1185.8,562.1c-.7-.9-1.4-1.9-2.3-3.1.6-.3,1.1-.5,1.5-.7h0c2.2,2,4.4,4,7.1,6.5-1.5-.4-2.8-.8-4.1-1.2-.7-.5-1.5-1-2.2-1.5Z" fill="#e2dac4"/>
        <path d="M835.5,817.1c-.2-.2-.5-.5-.7-.7,6.7-6,14.8-9.5,22.9-13,8.9-3.9,17.7-8.2,26.6-12.3,18-8.2,35.9-16.5,53.9-24.6,17.7-8,35.4-16.1,53.3-23.7,9.1-3.8,18.6-6.9,27.5-11.4,8.4-4.3,16.1-9.7,24-14.7,4.3,6.1,8.1,12.8,13.7,17.8,5.2,4.5,11.2,6.5,17.4,9.1-.3,0-.5,0-.8,0-14.8-1.6-22.6-14.3-30.4-25.2-7,4.2-13.9,8.6-21.1,12.6-6.5,3.6-13.6,5.9-20.5,8.9-28.8,12.1-57.1,24.9-85.5,37.9-14.2,6.5-28.5,13-42.7,19.5-6.5,3-13,5.8-19.4,8.9-6.7,3.1-12.1,6.6-18.1,11Z" fill="#deddd8"/>
        <path d="M1274.5,815.3v-7c2.4-.1,4.5-.2,6.4-.3,2.9,2.6,3.1,5,1,8.9-2.6-.1-5.5,1.3-7.4-1.6Z" fill="#dcd8c8"/>
        <path d="M1126.5,736.9c-13.1-.2-26,1.5-39,3.4-11.3,1.6-22-.8-30-10.2.3,0,.6,0,.8,0,8.1,7.9,19.2,10.7,30.2,9.2,13.2-1.8,26.3-2.9,39.6-3.8-.1,1.4,0,1.2-1.6,1.4Z" fill="#dddbd1"/>
        <path d="M1227,761.6c-6.2,7.5-14.1,13.2-22.9,16.9-8.9,3.6-17.5,1-25.1-4.8,4,1.1,7.3,3.6,11.3,4.6,4.2,1.1,8.6.9,12.7-.4,8.8-2.8,16.7-11.3,24-16.9,0,.2,0,.5,0,.7Z" fill="#dddbd3"/>
        <path d="M1073.2,743.6c.3,0,.5,0,.8,0,9.4.9,17.9-.9,27.3-1.7,9.1-.7,18.3-1.3,27.4-1.3-9.1,1.4-18.2,1-27.3,2.1-9.9,1.1-18.3,3.5-28.2.9Z" fill="#dddcd3"/>
        <path d="M1202,748.6c2.9,2,5.6,3.9,9,6.2-1.8,2.8-3.6,5.5-5.5,8.6-3-2.1-5.8-4-9-6.2,1.8-2.8,3.6-5.5,5.6-8.6ZM1203.5,750.8c-1.8,2.2-3.4,4.2-5.1,6.4,2.2,1.6,4.2,3,6.4,4.6,1.5-2,2.9-3.8,4.7-6-1.9-1.6-3.7-3.1-6-5Z" fill="#e4dcc6"/>
        <path d="M1058.2,730.1c-.3,0-.6,0-.8,0-5.1-3.2-8.3-10.4-11.6-15.4,6.5-6.7,12.9-13.3,19.2-19.9.2,0,.5,0,.7,0-5.1,7.6-12.7,13.6-19,20.2,3.8,5,7.6,10,11.4,15Z" fill="#dedcd2"/>
        <path d="M1182,743.6c-.3.7-.7,1.5-1.2,2.6-3.1-2.4-5.9-4.5-8.8-6.7,2.2-3,4-5.5,5.9-8.2,3.1,2.3,5.9,4.4,9,6.7-1.9,2.1-3.4,3.8-5,5.5.9-1.8,1.9-3.6,2.9-5.6-2.1-1.5-4-2.9-6.2-4.5-1.6,2.5-3,4.4-4.3,6.4,2.9,2.3,4.1,3.2,7.6,3.6Z" fill="#e4dcc5"/>
        <path d="M1079.3,729.3c-1.9,2.6-3.4,4.7-5.2,7.2-2.9-2.2-5.5-4.2-8.5-6.5,2.2-2.9,4.1-5.5,6.3-8.4,2.2,3.2,7.1,3.2,7.5,7.7ZM1072.2,723.8c-1.7,2.2-3,4-4.7,6.3,2.3,1.7,4.2,3.2,6.4,4.9,1.7-2.4,3.2-4.4,4.7-6.5-2.1-1.5-4-2.9-6.3-4.6Z" fill="#e3dbc4"/>
        <path d="M1265,792.6c3.4,2.4,6.4,4.5,9.6,6.8-.9,1.1-1.4,1.7-2.3,2.9.1-1.4.2-2.2.2-3.1-1.9-1.3-3.9-2.6-6.1-4-1.5,2.1-2.9,4.1-4.5,6.3,1.7,1.4,3.1,2.5,4.4,3.7-.2.2-.3.4-.5.6-1.9-1.4-3.7-2.7-5.5-4-.5-4.1,2.9-5.7,4.5-9.2Z" fill="#e6ddc7"/>
        <path d="M1237.6,772.6c3.2,2.4,6.1,4.5,9.2,6.7-1.3,1.8-2.3,3.1-3.3,4.5-.2-.1-.4-.3-.6-.4.7-1.3,1.3-2.5,2.1-4-2.1-1.5-4.1-3-6.2-4.6-1.6,2.1-2.9,4-4.4,6,.7,1,1.3,1.9,1.9,2.7-.1.1-.2.3-.3.4-1.2-.8-2.5-1.7-4.3-2.9,2-2.9,3.8-5.5,5.9-8.6Z" fill="#e5ddc6"/>
        <path d="M1144.5,749.6c-2.9-2.1-5.7-4.2-8.8-6.5-.4,1.1-.7,2-1,2.9,3.7,3.1,7.1,6,10.6,8.9-4.3-2.8-8.7-5.6-13.2-8.6.9-2.1,1.6-3.7,2.6-6.3,3.6,3.3,6.7,6,9.8,8.8,0,.3,0,.5,0,.8Z" fill="#e4decd"/>
        <path d="M1270.5,787.1c-.3,0-.5,0-.8,0-9.8-6.4-22.6-12.6-29.2-22.5,9.8,7.8,19.3,16,30,22.5Z" fill="#dedcd4"/>
        <path d="M1177.5,776.6c4.9,3.7,10.6,6.3,16.8,6.7,7.1.5,12.3-2.4,18.5-5.3,0,.3,0,.5,0,.8-6,3.8-12.3,6.1-19.5,5.3-3-.3-16.5-3.5-15.7-7.6Z" fill="#dddbd3"/>
        <path d="M1198.8,791.3c-1.4,1.9-2.4,3.2-3.4,4.5-.2-.1-.4-.2-.5-.3.6-1.1,1.2-2.3,2-3.7-1.9-1.5-3.8-3-6.1-4.9-1.9,2.6-3.6,5-5.5,7.5-.3-.5-.8-1.2-1.2-1.8,1.8-2.7,3.5-5.1,5.5-7.9,3.2,2.3,6.1,4.3,9.2,6.6Z" fill="#e5ddc6"/>
        <path d="M1092.7,761.1c3.2,2.3,5.7,4.1,8.5,6.2-.9,1.4-1.6,2.6-2.3,3.8-.2,0-.4-.2-.6-.3.4-.9.7-1.8,1.2-2.9-1.7-1.3-3.4-2.7-5.5-4.3-2.6,2-4.7,4.1-5,8.6-1-1.2-1.7-1.9-2.3-2.7,2.1-2.9,4-5.5,6.1-8.4Z" fill="#e3dcc5"/>
        <path d="M1144.5,749.6c0-.3,0-.5,0-.8,4.8,3,9.7,6,14.4,9.2,3.8,2.6,9.9,5.4,11.8,9.6-8.7-6-17.5-12-26.2-18.1Z" fill="#dedcd3"/>
        <path d="M1050.8,762.1c-1.7,2.3-3.1,4.2-4.6,6.2.7,1,1.3,1.8,1.9,2.6-.2.2-.4.3-.6.5-.9-1.1-1.8-2.1-2.9-3.5,1.7-2.4,3.5-4.9,5.4-7.6,3.2,2.1,6.7,3.4,7.7,7.4-2.2-1.8-4.4-3.5-6.9-5.5Z" fill="#e2dac4"/>
        <path d="M1134.2,765.1c-.5,1.3-1,2.5-1.4,3.7-.3-.1-.5-.2-.8-.3.3-.7.6-1.3,1.1-2.4-1.8-1.5-3.7-3-6.1-4.9-1.8,2.6-3.5,5-5.3,7.5-.3-.5-.7-1.2-1.1-2,1.8-2.4,3.5-4.7,5.5-7.3,2.6,1.8,5.2,3.6,8.2,5.7Z" fill="#e3dbc4"/>
        <path d="M1065.8,694.9c-.2,0-.5,0-.7,0,6.2-8.3,12.5-16.5,18.7-24.8.6,3.6-5.7,9.5-7.9,12.3-3.2,4.2-6.1,9.1-10.1,12.4Z" fill="#dddcd4"/>
        <path d="M1212.8,778.9c0-.3,0-.5,0-.8,7.3-5.7,14.4-11.8,20.5-18.8,1.1.7,1.9,1.2,2.8,1.7-.9.1-1.7.3-3.3.5-4.7,7.4-12.5,12.2-20,17.5Z" fill="#dedcd3"/>
        <path d="M1155.6,776.6c-.9-.8-1.8-1.6-3-2.7,1.9-2.7,3.7-5.3,5.6-8.1,3,2.3,6.3,3.7,7.8,7.2-2.3-1.7-4.6-3.4-7-5.1-1.5,2.2-2.9,4.1-4.4,6.2.4.7,1,1.5,1.5,2.2l-.5.4Z" fill="#e3dbc4"/>
        <path d="M1193.3,727.1c7.9,5.8,16.7,11.5,23.3,18.8-7.9-5.8-16.8-11.4-23.3-18.8Z" fill="#dedcd4"/>
        <path d="M1171.5,709.1c6.3,5,12.7,10,19,15,1.1.8,1.8,2,2.8,3-4-2.8-8-5.6-11.9-8.7-3.5-2.7-8-5.4-9.9-9.3Z" fill="#dedcd4"/>
        <path d="M1155.6,716.1c2.8,1.7,5.7,3.4,7.4,6.6-2.2-1.6-4.4-3.2-7-5-1.8,2.4-3.5,4.6-5.2,6.9-.8-2.6.8-5.3,4.8-8.5Z" fill="#e3dbc4"/>
        <path d="M1227,761.6c0-.2,0-.5,0-.7.7-1.3,1.3-2.5,2-3.8-4.2-3.7-8.3-7.5-12.5-11.2,4.9,3.6,9.8,7.2,14.5,11.1-1.5,1.7-2.7,3.2-4,4.7Z" fill="#dedcd4"/>
        <path d="M848.3,476.6c-1.5-1-3-1.9-4.5-2.9,1.6-3-57.1-32.5-63-35.9,5.8-15,11-29.9,15.6-45.3,2.3-7.7,4.7-15.3,7.1-23,2.2-7,6.1-15.2,5.8-22.6,6.1-11.7,15-20.7,23.7-30.4,9.1-10.1,18.1-20.3,27.2-30.4,1.5-1.2,3-2.4,4.5-3.7,8.7,17.2,17,34.5,25.6,51.7,7.8,15.7,20,32.6,16.4,51-3,5-5.9,10-9,14.9-2.1,3.4-4.5,6.5-6.8,9.8-4.7,4.3-8.2,10.8-12,16-4.3,6-8.6,11.9-12.7,18-3.6,5.3-7.4,11-9.4,17.1-2,6-.6,12.8-.6,19.1-2.9-1.7-4.8-2.8-8.1-3.4ZM875.7,396.7c-2.5-1.7-4.4-3-6.4-4.4.5-1.1.9-2,1.3-2.9-4.9,4.3,2.6,6.9,6,9.1,2-3,3.7-5.6,5.5-8.3-.4-.5-.8-1-1.1-1.3-1.7,2.5-3.3,4.9-5.2,7.6ZM849.9,446c-3.3-2.3-5.9-4.2-8.7-6.2-.8.9-1.4,1.5-1.9,2.1,0,.1.2.3.2.4.7-.3,1.4-.6,2.2-.9,2,1.4,3.9,2.7,6.1,4.2-2,2.6-3.8,4.9-5.8,7.5,4.7-.1,4.7-4.6,7.9-7.2Z" fill="#f5f0d8"/>
        <path d="M1167.8,449.6c2.2-2.8,4.5-5.5,6.7-8.3.4,0,1,.1,1.2,0,2.9-4.5,5.7-8.9,8.6-13.4h0c3.3-4.7,6.5-9.5,9.8-14.2,0,0,0,0,0,0,3.3-4.7,6.5-9.5,9.8-14.2,3.2-4.8,6.5-9.5,9.7-14.3,2.4-3,4.8-6,7.4-9.2,5.3,3.3,10.6,6.6,15.9,9.9,0,0,0,0,0,0,2.1,3.1,6.9,5.3,10,7.4,2.2,1.5,6.1,5.6,8.7,4.6,1,.7,2,1.5,3,2.2.6,2.5,3.5,4,4.7,6.4,1.3,2.5,1.5,5.2,1,7.9-1.3,6.8-8.7,11.3-9.5,17.9l-2.9,3.8c-3.7,1.3-6.5,7-8.9,10.2-3,4-5.7,8.2-8.4,12.4h0c-3,3.6-6,7.2-8.8,10.9-2.4,3.2-4.6,6.7-6.9,10-6.3,5.2-11.2,14.3-15.7,21.2-4.7,7.3-8.9,14.9-12.7,22.8-3.7,7.6-8.4,14.6-13.7,21.3-5.6,7-12.7,13-17.9,20.3-2.6,2.4-5.2,4.8-8,7.4-1.9-8.2-2.4-16.8-3.3-25.1-.9-8.7-1.9-17.4-2.1-26.2-.4-18.9,0-37.9,0-56.8,2.9-1.6,25.3-10.6,22.5-14.7ZM1235.2,429.4c-1.4-1.1-2.9-2.3-4.5-3.5-2.3,3.1-4.2,5.6-6.3,8.4,2.8,2.1,5.4,4,8.5,6.3.7-1.4,1.1-2.2,1.6-3,1.5-1.7,3.1-3.4,5-5.6-1.7-1.1-3-1.9-4.3-2.7ZM1174.5,516.4c-.3-.6-.7-1.3-1.4-2.7-2.7,3.7-4.6,6.4-6.6,9.2,2.9,2.2,5.3,4,8.1,6.1,2.2-2.8,4.2-5.4,6.4-8.4-1.5-.9-2.5-1.4-3.5-2-1-.7-2-1.5-2.9-2.2ZM1210.4,421.8c-2.1-1.4-4-2.7-6.4-4.4,2.1-2.5,3.9-4.8,5.8-7-4,1.2-5.5,4.7-7.6,7.8,2.5,1.9,4.7,3.6,7.2,5.5,1.1-.7,2.2-1.4,3.4-2.1-.1-.2-.2-.5-.4-.7-.6.3-1.2.6-2,1ZM1184.7,444.1c1.9-2.6,3.4-4.8,4.9-6.9-3.3,1.4-4.6,4.7-7.2,7.4,2.7,2,5.3,3.9,8,5.9.7-.5,1.4-.9,1.8-1.2-2.5-1.8-5-3.4-7.5-5.2Z" fill="#f5f0d8"/>
        <path d="M1101,643.1c-1.3,1.4-2.5,3-4,4.3-.6.5-1.8.2-2.7.3-.5-.8-.9-1.8-1.5-2.3-4.2-3.1-8.4-6-12.7-9-6-4.2-12-8.5-18-12.7-4.2-3-8.5-6-12.7-9-3.9-2.7-7.9-5.5-11.9-8.3,2.6-3.5,6.9-7.6,7.4-11.9,1-1.3,2-2.5,2.9-3.8,3.4-1.6,5.3-5.6,7.5-8.7,1.7-2.4,5.8-6.4,5.3-9.3,5.6-6.5,11.1-12.9,16.7-19.4,6.7-7.8,13.3-15.6,20-23.4,2.1.4,9-7.8,8.3-9.8,5.5-6.2,11-12.5,16.5-18.7,5.5-3.7,10.6-7.6,17.2-9.1,1.9,8.5.7,18,.7,26.7,0,9.2.2,18.3,1.6,27.4,1.2,9.2,2.6,18.5,3.6,27.7.8,8.1-5.4,16.3-8.9,23.3-3,4.7-6,9.5-9,14.2-8.4,9.5-16.8,19.1-25.2,28.6-.6.7-2.6,1.2-1.1,2.9ZM1111.5,606.4c1.1-.6,2.2-1.1,3.3-1.7-.2-.5-.5-1-.7-1.5-2.6-1.9-5.2-3.9-8.1-6.1-2,2.8-3.8,5.3-5.8,8.1,2.8,2.3,5,5,9,5.9.9-1.7,1.6-3.2,2.4-4.7,0,0,0,0,0,0Z" fill="#f5f0d8"/>
        <path d="M1024.5,362.6c2.3,1.5,4.5,3,6.8,4.4,0,.3-.2.8-.1.9,5.3,3.2,10.6,6.5,15.9,9.7,1.7,1.2,3.2,2.7,5.1,3.6,2.7,1.3,5,3.8,8.4,3.2-4.8,9.9-12.3,19-18.5,28.2-6.2,9.3-13.7,18.6-18.3,28.8-4.2-3-8.5-6-12.7-9-6.9-7.8-15.8-9.1-25.4-8.1-1.6.8-3.1,1.5-4.5,2.2-4.5-4-8.7-7.7-12.9-11.4-4.5-3.7-9-7.3-13.8-11.2,4-6.1,9.8-12.5,11.6-19.6,2.2-3.3,4.5-6.5,6.7-9.8,4.4-2.1,7.7-10,10.4-14.1,3.5-5.3,7.1-10.5,10.7-15.8,5.4,3.4,10.8,6.8,16.3,10.2,4.7,2.9,9.1,6.4,14.4,7.7ZM1046,386.4c-1.5,2.5-2.9,4.9-4.6,7.7-2.4-1.7-4.5-3.1-6.6-4.6,1.2-2,2.2-3.6,3.1-5.2l-.7-.4c-1.3,2.1-2.6,4.2-4.1,6.4,3,2,5.5,3.7,8,5.3,4.3-4.1,5.9-7.4,4.9-9.2ZM1007,359.4c-.2.2-.5.4-.7.6.3.6.6,1.3.9,2-1.4,2-2.7,3.9-4.2,6.2-2.6-2-4.9-3.7-7.1-5.4-.4,2.5,2.6,5.3,7.8,6.8,1.7-2.5,3.4-5.1,5.5-8.2-.7-.7-1.4-1.3-2.1-2Z" fill="#f5f0d8"/>
        <path d="M924.8,389.6c-3.9-2.1-7.8-4.3-12.1-6.6,1.6-17.3-7.7-30.9-14.9-45.9,1.3-1.4,2.8-2.6,3.9-4.2,8.5-12.3,16.9-24.7,25.3-37.1,1,.7,2.1,1.3,3.1,2,4.5,3.1,8.9,6.2,13.4,9.3,6.5,4.9,12.9,9.9,19.4,14.8.1,0,.6-.3.9-.5,1.3,1,2.5,2,3.8,2.9-.4,2.1,14.3,12.8,16.5,12.1,2.2,1.6,4.4,3.3,6.9,5.2-3.8,5.6-7.6,11.1-11.3,16.6-.6.4-1.3.6-1.7,1.1-8.9,13.2-17.7,26.4-26.5,39.5-.7,1-1.5,1.9-2.3,3-8.3-4.1-16.3-8.1-24.3-12.1ZM960.8,337.1c-.6.9-1.2,1.9-1.9,3,3,2,5.5,3.7,8.3,5.5,2.1-3,3.9-5.7,6-8.7-1.2-.5-2-.9-2.7-1.2-1.9-1.3-3.9-2.5-6-3.9-1.4,2-2.5,3.7-3.7,5.3ZM930,320.7c4.9-4.8,6.2-7.8,4.7-9.4-1.4,2.3-2.9,4.6-4.6,7.2-2.7-1.8-5-3.3-7.9-5.2,1.3,4.3,5.2,4.9,7.8,7.3Z" fill="#f5f0d8"/>
        <path d="M876,437.6c1.5-2,3-4,4.4-6,3.9-2.2,6.5-7,9.1-10.7,2.5-3.7,5-7.4,7.6-11,2.6-3.5,5.2-6.9,7.6-10.5,2.3-3.6,3.8-7.8,6.7-10.9,11.5,5.9,22.9,11.8,34.7,17.9-7.7,11.6-14.8,23.4-24.2,33.8-9.3,10.2-20.3,18.6-30.3,28.1h0c-4,1.5-7.4,5.8-10.6,8.6-4,3.5-8.1,6.9-12.1,10.4-2.2-1.3-4.3-2.5-6.6-3.8-.4-8.3-2.2-17.5,1.1-25.4,1.7-3.9,4.3-7.3,6.8-10.8,2.1-3,5.2-6.1,5.6-9.8Z" fill="#f8f7e9"/>
        <path d="M951,471.3c-1.5,2-3,4-4.5,6-5.7,5.9-12.2,16.8-21.4,11.5-9.6-5.5-18.5-12.4-27.6-18.8,2.5-2.3,4.7-4.2,6.9-6.2,4-3.5,8-7,12-10.5,3-3.2,6-6.5,9-9.7,5.5-5.9,10.3-11.6,14.8-18.4,1.7-2.6,9.2-17.7,12.9-15.4,2.6,2,5.4,3.9,7.9,6,5.7,4.9,11.3,10,16.9,15-5.6,8.3-11.3,16.6-16.9,24.9-3.4,5.1-6.7,10.3-10.1,15.5Z" fill="#f8f7e9"/>
        <path d="M900.8,552.4l-38.3-27c1-1.7-12.7-11.3-14.2-9.8-11-7.7-22-15.5-33-23.2-4-6-16.5-8.5-15.7-17.3,3.8-5.3,7.4-10.3,11.1-15.5,6.6,3.9,12.7,7.5,18.8,11.1,7.2,4.2,14.5,8.5,21.7,12.7,5.1,3,10.2,6,15.3,8.9,1,.6,2.3.6,3.4.9,8.8,6.2,17.5,12.5,26.3,18.7,0,.3-.3.8-.2.9,4,2.7,8.1,5.4,12.2,8.1h0c3.4,2.7,6.8,5.5,10.3,8.3-.4.7-.9,1.4-1.3,2.2-2.5,3.4-4.9,6.8-7.4,10.2-4.8-4.8-37.3-26.8-40-27,.3.4.6.8.9,1.1-3.1.7-3.7,3.5-5,5.7,11.5,8.5,22.9,16.8,34.2,25,1.4,1,2.8,2.1,4.6,3.4-1.4.9-2.6,1.8-3.8,2.6ZM810,475.8c-1,1.5-2,3-3.1,4.6,12.2,8.5,24.5,16.8,36.1,26.1,1,.6,2,1.1,3.1,1.8,2-2.8,3.6-5.2,5.6-8.1-13.6-9.4-26.9-18.6-40.9-28.4-.4,2-.6,3-.8,3.9Z" fill="#f2f1e4"/>
        <path d="M855,525.3c.6-.6,1.1-1.3,2-2.2,13.2,9.3,26.2,18.5,39.3,27.8,1,1.8,2.1,2.9,3.6,4.3-.9,1.7-1.5,2.8-2.2,4-4.8,4.6-9,9.1-14.9,12.3-5.4,3-11,5.6-16.8,7.7-5.6,2-11.3,4.2-17.2,2.7-4.8-1.2-10.2-3.4-13.8-6.9-6.9-6.7-2.4-18,1.8-24.9,2.9-4.9,6.2-9.6,10-13.8,1.5-1.7,10-8.8,8.1-10.7Z" fill="#f8f7e9"/>
        <path d="M923.3,526.9c-2.8-2-5.5-4-8.3-5.9-.4-.7-.6-1.7-1.2-2.1-4-2.9-8.2-5.6-12.3-8.4-9.2-6.6-18.4-13.1-27.8-19.9,4.5-3.8,8.6-7.4,12.8-10.9-.2,1-.5,2-.7,3,3.5,6.4,10.8,9.8,16.8,14,.7-.4,1.3-.8,2-1.2.3,1,.5,2,.9,3.4,5.8,4,12,8.3,18.2,12.6,0-.2.2-.4.3-.6,2.2.8,4.5,1.6,6.9,2.5.8-.2,1.9-.5,3-.7-.4.8-.6,1.6-1.1,2.3-2.6,3.8-5.3,7.5-7.9,11.2-.5.2-1,.5-1.5.7Z" fill="#f2f1e4"/>
        <path d="M933.8,512.6c-1.1.3-2.1.5-3,.7-2.5-.9-4.7-1.7-6.9-2.5,0,.2-.2.4-.3.6-6.2-4.3-12.4-8.6-18.2-12.6-.4-1.5-.6-2.4-.9-3.4.5-.8,1-1.5,1.5-2.3.5.5,1,1,1.5,1.5-.5.8-1,1.6-1.7,2.9,6.1,4.2,12,8.3,18.2,12.7,1.6-2.4,2.9-4.3,4.4-6.4-5.7-4.4-11.8-8.2-17.9-12.2-.8-.7-1.5-1.5-2.3-2.2-5.8-4-11.5-7.9-17.2-11.9-1.6,1.8-3.1,3.5-4.5,5.1-.3,0-.5,0-.8,0,.2-1,.5-2,.7-3v-1.5c2.3-1.8,4.1-4.5,7.2-5.4,7.5,5.1,14.8,10.2,22.1,15.2,0,.4-.1,1,0,1.2,5.3,3.5,10,8.3,17.2,7.1,2,1.8,5.8,3.9,5.9,6.9,0,2.9-3.7,7.2-5.2,9.6Z" fill="#ebeadd"/>
        <path d="M775.8,436.8c-13.5-4.7-27.1-9-40.8-13.1-5.5-1.6-11.7-2.6-15.6-7.3-3.1-3.7-3.8-8.6-4.8-13.1,4.8-13.8,9.5-27.7,14.6-41.4,2.5-6.8,5.5-13.5,8.8-19.9,3.1-6,6-12.7,10.2-18,4.7-1,9,.5,13.4,1.8,5.3,1.5,10.7,2.9,16.1,4.3,10.5,2.8,21.1,5.4,31.4,8.9,0,3.4-3.1,7.9-4.3,11.3-1.4,4-2.5,8-3.7,12.1-2.4,8.2-5.2,16.2-7.7,24.3-5.1,16.6-9.4,34.8-17.6,50.1ZM749.6,323.6c-7.2,11.6-13.7,23.2-18.4,36-4.8,13.2-11.2,26.6-14.5,40.2-3.3,13.6,7.1,19.6,18.2,22.8,13.4,3.9,27.2,7.7,40.1,12.9,8.5-13.7,11.9-31.2,16.7-46.4,5.2-16.6,10.5-33.2,15.9-49.8-18.9-5.1-38.2-10.4-58-15.8Z" fill="#deddd8"/>
        <path d="M1151.2,457c-2.3.9-4.6,1.8-7.2,2.7-4-21.1-11.6-40.9-16.9-61.6-2.6-10.3-2.5-21.1-1.9-31.6.3-5.3.8-10.6,1.6-15.9.8-5.3.8-9.5.3-14.9,16.4,4.7,32.6,9.8,48.9,14.7,8.1,2.4,15.7,5,23,9.3,6.4,3.9,12.6,8.3,18.8,12.5-3.8,5.2-7.4,10.1-11,15.1,0-.3,0-.6,0-.8,3.1-4.6,6.1-9.3,9.4-14.2-6.5-4.4-12.9-9-19.8-12.8-6.8-3.7-13.9-6.1-21.2-8.4-15.3-4.8-30.8-9.4-46.2-13.9-1.6,20.6-5.3,41.2-.5,61.7,4.7,20,13.6,38.8,16.3,59.3,2-.7,3.9-1.3,5.8-2,.2.2.5.5.7.7Z" fill="#dddbd2"/>
        <path d="M891.8,468.4c10-9.5,21-17.9,30.3-28.1,9.4-10.3,16.5-22.2,24.2-33.8-11.8-6.1-23.2-12-34.7-17.9-2.8,3.1-4.3,7.4-6.7,10.9-2.4,3.6-5,7-7.6,10.5-2.7,3.6-5.1,7.3-7.6,11-2.6,3.7-5.2,8.5-9.1,10.7,10.4-14.6,20.7-29.4,30.9-44.2,11.5,5.9,23.7,12.2,36.3,18.7-7.5,11.9-14.8,23.8-24.4,34.2-4.9,5.2-10,10.3-15.3,15-5.1,4.5-10.2,9.9-16.1,13.2Z" fill="#dfded9"/>
        <path d="M809.3,346.9c.3,7.4-3.6,15.6-5.8,22.6-2.4,7.7-4.8,15.3-7.1,23-4.7,15.3-9.9,30.3-15.6,45.3,5.9,3.4,64.6,33,63,35.9-21.3-12.4-42.9-23.8-64.5-35.5,6.1-14.7,10.9-29.6,15.8-44.7,2.5-7.7,4.9-15.5,7.3-23.2,2.4-7.6,5.8-15.6,7-23.4Z" fill="#dddbd2"/>
        <path d="M957.8,676.9c-3.4,4.3-7.3,11.8-12.5,13.9-5.1,2.1-11.2-2.2-14.8-5.5-9.5-8.8-6.3-19.5-5.9-31,.5-14.6,3.3-28.4,6.7-42.6,1.5-6.1,4.6-13.9,2.8-20.1-1.6-5.8-7.3-9.3-11.7-12.9,0-.3,0-.5,0-.8,2.8,2,6.1,3.7,8.5,6.2,2.7,2.8,3.6,6.7,4.9,10.2-1.8,11.4-5.1,22.4-7.4,33.7-2.3,11.1-2.5,22.3-3.2,33.5-.3,5.2-1.3,10.7.6,15.6,1.6,4.2,4.6,7.3,8.3,9.7,3.3,2.2,7.4,4.7,11.4,2.6,4.5-2.3,8.2-8.9,11.4-12.7.3,0,.5,0,.8,0Z" fill="#deded9"/>
        <path d="M807.5,456.7c-3.5,4.8-6.4,8.9-9.5,13.3-13.3-.9-26.3.6-39.1,3.9-.2-.3-.3-.5-.5-.8,6.3-10.5,12.5-20.9,19-31.8,10.1,5,20.2,9.5,30.2,15.4ZM777.8,442.5c-5.9,9.9-11.6,19.5-17.2,29,12.6-1.4,24.9-2.7,38-4.1,2-2.8,4.5-6.5,7.5-10.7-9.7-4.9-18.8-9.5-28.2-14.2Z" fill="#dfdfda"/>
        <path d="M855,525.3c1.9,1.9-6.6,9-8.1,10.7-3.8,4.2-7.1,9-10,13.8-4.1,7-8.7,18.2-1.8,24.9,3.6,3.5,9,5.7,13.8,6.9,5.9,1.5,11.6-.6,17.2-2.7,5.8-2.1,11.4-4.7,16.8-7.7,5.8-3.2,10.1-7.7,14.9-12.3,0,.3,0,.5,0,.8-6.8,9.3-17.3,14.6-27.8,18.6-10.9,4.2-20.7,7.1-31.2.3-21.7-14.1,5.4-41.4,16.2-53.5Z" fill="#deded9"/>
        <path d="M1167.8,449.6c2.8,4.1-19.7,13.2-22.5,14.7,0,18.9-.3,37.9,0,56.8.2,8.8,1.2,17.5,2.1,26.2.8,8.4,1.4,16.9,3.3,25.1,2.8-2.6,5.4-5,8-7.4,0,.2,0,.5,0,.7-2.7,2.9-5.4,5.8-8.8,9.4-2.6-18.3-5.5-36.4-5.5-54.9,0-18.9.5-37.8-.7-56.6,9-3.8,16.6-7.6,24-14.1Z" fill="#dbd9d0"/>
        <path d="M906.7,385.1c3.6-18.4-8.6-35.3-16.4-51-8.5-17.2-16.9-34.5-25.6-51.7-1.5,1.2-3,2.5-4.5,3.7,1.3-1.9,2.6-3.8,4.3-6.2,9.6,17.5,18,35.7,26.9,53.5,4.4,8.7,9.4,17.4,13.1,26.4,3.4,8.1,6.3,17.7,2.3,26.1,0-.3,0-.5,0-.8Z" fill="#dddbd2"/>
        <path d="M957.8,676.9c-.3,0-.5,0-.8,0,22.1-25,48.6-45.7,72-69.5-1.2-1.3-2.1-2.3-3-3.3.3,0,.5,0,.8,0,1.2.8,2.4,1.7,4.2,2.9-23.7,23.9-49.8,45.5-73.1,69.9Z" fill="#dfdeda"/>
        <path d="M900.8,552.4c1.2-.8,2.5-1.7,3.8-2.6-1.8-1.3-3.2-2.3-4.6-3.4,1.1.2,2.1.5,3.4.8,1.4-2,2.8-4,4.2-6-12.2-8.6-24.5-17.1-36.9-25.5-.3-.4-.6-.7-.9-1.1,2.7.3,35.2,22.2,40,27,2.5-3.4,5-6.8,7.4-10.2v.8c-4.4,6.5-8.8,13.1-13.3,19.6-.8,1.2-1.9,1.5-3.2.5Z" fill="#e2dfd1"/>
        <path d="M1158.7,565.8c0-.2,0-.5,0-.7,5.2-7.3,12.2-13.3,17.9-20.3,5.3-6.6,10-13.6,13.7-21.3,3.8-7.8,8-15.4,12.7-22.8,4.4-6.9,9.3-16,15.7-21.2,0,.3,0,.5,0,.8-10.6,14.5-19.7,29-28.1,44.8-8.2,15.6-19.8,28-32,40.6Z" fill="#dddcd3"/>
        <path d="M1122.7,394.1c4.5,15.4,9.1,30.8,13.6,46.2,4.4,15.2,4.2,30.2,4.8,45.9-5.2,2.2-9.9,4.2-14.5,6.2,0-.3,0-.5,0-.8,4.5-2.1,8.9-4.1,13.8-6.4-.7-15.4-.6-30.8-5.1-45.7-4.5-15.1-10-29.9-13.2-45.4.2,0,.5,0,.7,0Z" fill="#ddddd8"/>
        <path d="M1023.8,598.1c-14.4-10.2-28.8-20.3-43.2-30.5-10.6-7.5-21.2-15.1-31.8-22.7.2-.2.5-.5.7-.7,15.6,11,31.2,22.1,46.8,33.1,9.4,6.7,18.8,13.4,28.2,20.1-.2.2-.5.5-.7.7Z" fill="#dfdfda"/>
        <path d="M1122.7,394.1c-.2,0-.5,0-.7,0-1.5-4.1-1-9.2-1.2-13.5-.2-5.1-.4-10.2,0-15.2.6-9.2,4.5-20.1,1.6-29.1-5.4-2.5-13.7-1.2-19.2.3-5.8,1.5-9.9,6.4-14.1,10.3,0-.5,0-1,0-1.5,3.8-3.3,7.7-6.6,11-9.4,8.2-.9,15.5-3.2,22.9-.8,3.6,8.8-.3,20.4-1,29.5-.7,10-.3,19.5.7,29.5Z" fill="#dfded9"/>
        <path d="M876,437.6c-.3,3.7-3.4,6.8-5.6,9.8-2.4,3.5-5.1,6.9-6.8,10.8-3.3,7.9-1.6,17.1-1.1,25.4,2.2,1.3,4.3,2.5,6.6,3.8,4-3.5,8.1-6.9,12.1-10.4,3.2-2.8,6.5-7.2,10.6-8.7-7.3,7-14.7,13.8-22.5,20.3-2.3-1.2-4.8-2.6-7.5-4.1-.7-8.1-2.4-17.6.3-25.4,2.7-7.9,9.2-14.9,14-21.6Z" fill="#dfded9"/>
        <path d="M848.3,476.6c3.3.5,5.3,1.7,8.1,3.4,0-6.3-1.4-13,.6-19.1,2-6.1,5.8-11.8,9.4-17.1,4.1-6.1,8.4-12,12.7-18,3.7-5.2,7.2-11.7,12-16v.8c-7.9,11.3-15.8,22.6-23.5,34.1-3.3,5-8.1,10.4-9.6,16.3-1.7,6.4-.7,14.1-.7,20.6-2.9-1.6-5.9-3.3-9-5.1Z" fill="#dddcd3"/>
        <path d="M924.8,389.6c8,4,16,8,24.3,12.1.8-1.1,1.6-2,2.3-3,8.8-13.2,17.7-26.4,26.5-39.5.3-.5,1.1-.7,1.7-1.1-9.9,15-19.8,30.1-29.9,45.1-8.6-4.3-17.1-8.6-25.6-12.9.2-.2.5-.5.7-.7Z" fill="#dddbd3"/>
        <path d="M904.5,463.9c-2.2,2-4.4,4-6.9,6.2,9,6.4,18,13.3,27.6,18.8,9.2,5.3,15.6-5.6,21.4-11.5-3.9,7.6-13.4,17.5-22.3,12.1-9.9-6.1-19.2-13.1-29.2-19.1,3.9-3,6.7-5.1,9.5-7.2,0,.3,0,.5,0,.8Z" fill="#deded9"/>
        <path d="M1024.5,362.6c-5.3-1.3-9.8-4.8-14.4-7.7-5.4-3.4-10.8-6.8-16.3-10.2-3.6,5.2-7.1,10.5-10.7,15.8-2.7,4.1-6,12-10.4,14.1,6.8-10.3,13.6-20.7,20.6-31.3,10.8,6.7,21,13,31.2,19.3Z" fill="#dedcd4"/>
        <path d="M1118.3,499.9c-13.7,16.9-28,33.4-42.8,49.4h0c13.3-17.5,28.2-33.8,42.8-50.3,0,.3,0,.5,0,.8Z" fill="#dfdeda"/>
        <path d="M829.5,470.6c-6.1-3.6-12.2-7.2-18.8-11.1-3.8,5.3-7.4,10.3-11.1,15.5-.8,8.8,11.6,11.4,15.7,17.3-6.3-4.4-17.6-8.9-16.4-18.1,3.8-5.3,7.6-10.6,11.7-16.3,6.7,4.2,12.8,8,19,11.9,0,.3,0,.5,0,.8Z" fill="#ddddd9"/>
        <path d="M1050.8,375.3c-18-11.2-35.9-22.4-53.9-33.7-.9-.6-1.6-1.5-2.4-2.2,0,0,0,0,0,0,.6.2,1.2.3,1.7.6,6.8,4.2,13.5,8.4,20.3,12.6,11.7,7.3,23.4,14.7,35,22-.2.2-.5.5-.7.7Z" fill="#dedcd3"/>
        <path d="M933,496.1c-7.2,1.2-11.9-3.6-17.2-7.1-.2-.1,0-.8,0-1.2,3.8,2.4,9.1,7.5,13.7,7.6,4.6,0,9.7-4.4,12.9-7.2,8.5-7.4,14.2-18.1,20.5-27.3,0,.3,0,.6,0,.8-4.4,6.7-8.5,13.7-13.3,20.1-4.5,6.1-10.7,9.9-16.8,14.3Z" fill="#deded9"/>
        <path d="M1141.5,546.4c-1.4-9.1-1.6-18.3-1.6-27.4,0-8.7,1.3-18.2-.7-26.7-6.6,1.5-11.7,5.4-17.2,9.1,4.7-5.6,10.9-8.8,18.5-10.6.6,9,.2,18.1.2,27.2,0,9.5.9,18.9,1.6,28.4-.3,0-.5,0-.8,0Z" fill="#dbd9d1"/>
        <path d="M799.5,482.6c-2.9-2.9-3.3-4.5-4.2-8.5-7.5.4-15,.4-22.5,1.7-5.4.9-14.7.6-18.3,5.3-.2-.2-.5-.5-.7-.7.8-1,1.5-1.9,2.1-2.6,13.7-2.9,27-5.6,40.2-4.7,1.2,3.5,2.3,6.6,3.4,9.6Z" fill="#dfddd4"/>
        <path d="M886.5,478.1v1.5c-4.1,3.5-8.2,7-12.7,10.9,9.4,6.7,18.6,13.3,27.8,19.9-.2.2-.5.5-.7.7-9.4-6.7-18.8-13.3-28.7-20.4,5-4.4,9.8-8.5,14.5-12.6Z" fill="#dddcd8"/>
        <path d="M1050.8,375.3c.2-.2.5-.5.7-.7,2.5,1.4,4.9,2.9,8.1,4.7,5.6-4.7,8.8-10,12.7-16.2,4.1-6.6,8.5-12.9,12.9-19.3,0,0,0,0,0,0-4.2,7.2-8.5,14.3-13,21.3-3.4,5.2-6.6,14-13.8,14.7-2.4-1.4-5.1-3-7.7-4.6Z" fill="#dddbd3"/>
        <path d="M922.5,577.9c0,.3,0,.5,0,.8-2.9-2.8-6.3-5.2-8.5-8.5-3.2-4.7-5.5-10-8.4-15.4,4.4-5.9,8.8-11.7,13.2-17.5,0,.3,0,.5,0,.8-3.9,5.7-7.8,11.4-11.7,17,4.1,8.5,7.7,17.1,15.5,22.8Z" fill="#ddddd8"/>
        <path d="M1141.5,546.4c.3,0,.5,0,.8,0,1.8,10.8,3.1,21.6,4.4,32.4-3,6-6.4,12.7-9.8,19.3-.2-.2-.5-.5-.7-.7,3.5-7,9.7-15.2,8.9-23.3-1-9.3-2.4-18.5-3.6-27.7Z" fill="#dcdad1"/>
        <path d="M1213.5,493.1c0,.7,0,1.6-.3,2.1-8.5,11.4-14.7,24.1-21,36.7-1.8,3.5-2.2,4-4.3,4.7,8.5-14.5,15.7-29.9,25.6-43.5Z" fill="#dddbd2"/>
        <path d="M951,471.3c3.4-5.2,6.6-10.4,10.1-15.5,5.6-8.3,11.3-16.6,16.9-24.9,0-.3,0-.6,0-.9,0,1,.2,2.1-.2,2.8-8,12.1-16.2,24.2-24.3,36.2-.6.9-1.6,1.5-2.5,2.2Z" fill="#deded9"/>
        <path d="M968.2,415.1c4.2,3.7,8.4,7.4,12.9,11.4,1.4-.7,2.9-1.4,4.5-2.2,9.6-1,18.5.2,25.4,8.1-.2,0-.5,0-.7,0-5.7-4.4-11.7-8.1-19.3-7.4-3.1.3-6.1,1.3-10.7,2.3-3.3-3.1-7.7-7.2-12.1-11.3,0-.3,0-.5,0-.8Z" fill="#dedcd3"/>
        <path d="M953.2,409.9c-3.7-2.3-11.1,12.8-12.9,15.4-4.5,6.7-9.3,12.5-14.8,18.4-.2,0-.5,0-.7,0,10.3-10.4,17.2-23.2,25.2-35.2.1-.2.4-.3.9-.7.9.4,2,1,3.1,1.5l-.7.7Z" fill="#dfded9"/>
        <path d="M1060.5,384.4c-3.4.6-5.7-1.9-8.4-3.2-1.9-.9-3.4-2.4-5.1-3.6,0-.3,0-.5,0-.8,3.7,2.2,7.4,4.4,11.1,6.6,5.5-.3,8.7-3.5,11.4-7.9,2.9-4.9,6.1-9.6,9.1-14.4.2,0,.5,0,.7,0-4.1,8-8.6,15.8-14.7,22-1.7.5-2.8.9-4,1.3Z" fill="#deddd7"/>
        <path d="M968.2,415.1c0,.3,0,.5,0,.8-5-4-10.1-7.7-15.3-11.3,4.4-6.8,8.8-13.5,13.2-20.2-1.8,7.1-7.5,13.5-11.6,19.6,4.7,3.9,9.3,7.5,13.8,11.2Z" fill="#dddcd3"/>
        <path d="M1101,643.1c-1.5-1.6.4-2.1,1.1-2.9,8.4-9.6,16.8-19.1,25.2-28.6,0,.3,0,.6,0,.8-2.5,3.1-4.9,6.2-7.4,9.2-6.2,7.2-12.6,14.4-18.9,21.5Z" fill="#dedcd4"/>
        <path d="M981,434.6c2.8-6.2,9.4-6.9,15.4-5.6,7.4,1.5,12.8,7,18.4,11.6-.3,0-.6,0-.8,0-5.7-4.2-11.3-9.6-18.5-10.9-7.1-1.3-9.9.8-14.5,5.7,0-.3,0-.5,0-.8Z" fill="#dddcd4"/>
        <path d="M943.5,307.1c-4.5-3.1-8.9-6.2-13.4-9.3-1-.7-2.1-1.3-3.1-2-.3-1.2-.6-2.5-1-4,1.3-.5,2.3-.9,3.3-1.2,3,2.2,6,4.5,9,6.7-.3,0-.6,0-.8,0-3.3-2.1-6.2-4-9.9-5.4-.2.3-.5.7-.7,1,4.7,5.6,11.5,9.7,17.4,14.1-.2,0-.5,0-.7,0Z" fill="#deddd6"/>
        <path d="M1010.3,432.4c.2,0,.5,0,.7,0,4.2,3,8.5,6,12.7,9,3.3,2.7,6.7,5.3,9.7,7.7.1,2.8-.9,4-2.9,4.2l-3-3h0c1.7-.2,3.2,3.2,5.4-.4-7.5-5.9-15.1-11.7-22.7-17.6Z" fill="#deddd7"/>
        <path d="M1254.7,432.4c.8-6.6,8.1-11.1,9.5-17.9.5-2.8.3-5.4-1-7.9-1.2-2.4-4.1-3.9-4.7-6.4,7.9,4.8,8.6,13.9,4.2,20.7-2.5,3.9-5.3,7.7-8,11.6Z" fill="#dddcd4"/>
        <path d="M1062,565.1c-7.4,9.7-13.9,20-21.8,29.3,0-.3,0-.5,0-.8,3.3-4.9,6.5-10,10.1-14.7,3.7-4.8,7.8-9.2,11.7-13.8,0,0,0,0,0,0Z" fill="#deded9"/>
        <path d="M1154.2,690.4c7.8,5.9,15.6,11.8,23.3,17.8,1,.8,1.5,2.1,2.2,3.2-8.7-6.8-17.5-13.5-26.2-20.3.2-.2.5-.5.7-.7Z" fill="#dedcd3"/>
        <path d="M949.5,544.1c-.2.2-.5.5-.7.7-8.5-6-17-12-25.5-18,.5-.2,1-.5,1.5-.7.7.7,1.3,1.5,2,2.1,7.6,5.3,15.1,10.6,22.7,15.9Z" fill="#dfdfda"/>
        <path d="M981,434.6c0,.3,0,.5,0,.8-.4.8-.7,1.5-1.2,2.3-3.6,5.5-7.2,11-10.8,16.5-2,2.5-4,5-6,7.5,0-.3,0-.6,0-.8,6-8.8,12-17.5,18-26.3Z" fill="#dedcd5"/>
        <path d="M953.2,409.9c.2-.2.5-.5.7-.7l24,20.9c0,.3,0,.6,0,.9-5.6-5-11.2-10.1-16.9-15-2.5-2.2-5.2-4-7.9-6Z" fill="#dfdfda"/>
        <path d="M1236.8,385.9c-5.3-3.3-10.6-6.6-15.9-9.9-2.5,3.1-5,6.2-7.4,9.2-.2,0-.5,0-.7,0,2.5-3.5,4.9-7,7.7-11.1,5.6,4.1,10.9,8,16.2,11.9Z" fill="#dddcd3"/>
        <path d="M891,410.7v-.8c2.2-3.3,4.6-6.5,6.7-9.8,3.1-4.9,6-9.9,9-14.9,0,.3,0,.5,0,.8-1.3,6.3-5.6,10.9-9,16-2.1,3-4.5,5.8-6.7,8.8Z" fill="#dddcd5"/>
        <path d="M1151.2,457c-.2-.2-.5-.5-.7-.7,6.1-3,11.7-6.6,16.1-12,1.9-2.3,3.8-4.5,5.6-6.8.2,0,.5,0,.7,0-5.4,8.5-12.3,15.4-21.7,19.4Z" fill="#dedcd4"/>
        <path d="M1044.8,594.4c-.5,4.3-4.9,8.4-7.4,11.9,4,2.8,8,5.6,11.9,8.3v.8c-4.8-2.3-8.9-5.6-13.2-9.1,3.1-4.2,5.9-8.1,8.7-12Z" fill="#dddcd3"/>
        <path d="M1250.3,443.6c.5,3.6-5.4,9.2-7.6,12-1.9,2.5-5.9,10.3-9,10.5,5.5-7.5,11-15,16.5-22.5Z" fill="#dddbd2"/>
        <path d="M1234.5,458.6c2.8-4.2,5.5-8.3,8.4-12.4,2.3-3.2,5.1-8.8,8.9-10.2-5.2,7-10.4,14.1-15.6,21.1-.4.6-1.1,1-1.7,1.4Z" fill="#dddcd3"/>
        <path d="M1113.8,633.4c1.8,1.9-11.4,14.6-13.3,16.7.7,1.3,1.4,2.4,2,3.6-1.2-.9-2.4-1.7-4-2.8,5.2-5.9,10.2-11.7,15.3-17.5Z" fill="#dedcd3"/>
        <path d="M918.8,538.1c0-.3,0-.5,0-.8,1.2-2.1,2.4-4.2,3.9-6.8,5.6,3.9,11,7.7,16.3,11.4,0,.2,0,.5,0,.7-5.2-3.4-10.5-6.8-15.9-10.3-1.4,1.9-2.9,3.9-4.3,5.8Z" fill="#deded9"/>
        <path d="M1218.8,480.4c0-.3,0-.5,0-.8,2.3-3.3,4.5-6.8,6.9-10,2.8-3.7,5.9-7.3,8.8-11-2.9,4.2-5.8,8.5-8.8,12.7-2.2,3.1-4.7,6-7,9Z" fill="#dddcd3"/>
        <path d="M1172.9,437.6c-.2,0-.5,0-.7,0,3-4.6,6-9.3,9.1-13.9,1.6-2.4,3.5-4.7,5.2-7.1,0,.3,0,.5,0,.8-4.5,6.7-9,13.5-13.6,20.2Z" fill="#dddbd3"/>
        <path d="M1188,718.1c3-.5,7.2,4.3,9.6,6.3,3.3,2.6,7.3,5,9.2,8.8-6.3-5-12.5-10-18.8-15Z" fill="#dedcd3"/>
        <path d="M1230.8,469.9c.5,3.4-4.4,7.8-6.4,10.5-1.7,2.3-5,8.8-7.9,9,4.8-6.5,9.5-13,14.3-19.5Z" fill="#dddbd2"/>
        <path d="M943.5,307.1c.2,0,.5,0,.7,0,6.5,4.8,13,9.5,19.5,14.3-.3.2-.8.6-.9.5-6.5-4.9-12.9-9.8-19.4-14.8Z" fill="#dedcd4"/>
        <path d="M1238.2,758.6c3-.5,7.2,4.4,9.6,6.3,3.3,2.6,7.3,5,9.2,8.8-6.3-5-12.5-10-18.8-15Z" fill="#dedcd3"/>
        <path d="M975,325.2c-4.5-3.1-9-6.2-13.4-9.4-2.4-1.7-4.6-3.7-6.9-5.6,0,0,0,0,0,0,3,2,6.2,3.9,9.1,6.1,3.8,2.8,7.4,5.9,11.2,8.9,0,0,0,0,0,0Z" fill="#dedcd3"/>
        <path d="M1211.2,736.9c3-.5,7.2,4.4,9.6,6.3,3.3,2.6,7.3,5,9.2,8.8-6.3-5-12.5-10-18.8-15Z" fill="#dedcd3"/>
        <path d="M829.5,470.6c0-.3,0-.5,0-.8,5.8,3.3,11.7,6.5,17.5,9.8,1.5.8,2.8,2,4.2,2.9,0,.3,0,.5,0,.8-7.3-4.2-14.5-8.5-21.7-12.7Z" fill="#dddcd8"/>
        <path d="M1040.2,593.6c0,.3,0,.5,0,.8-2.1,3.3-4.3,6.5-6.7,10.3-3.5-2.4-6.6-4.5-9.8-6.7.2-.2.5-.5.7-.7,2.6,1.8,5.3,3.6,8.4,5.7,2.5-3.3,4.9-6.4,7.3-9.5Z" fill="#dfdeda"/>
        <path d="M994.5,339.4c-4.1-2.8-8.4-5.5-12.4-8.4-2.5-1.8-4.7-3.9-7.1-5.8,0,0,0,0,0,0,6.5,4.7,13,9.5,19.5,14.2,0,0,0,0,0,0Z" fill="#dedcd3"/>
        <path d="M720.8,535.9c0-.3,0-.6,0-.8,4-6.5,8-13,12-19.5,0,.3,0,.5,0,.8-4,6.5-8,13-12,19.5Z" fill="#dddbd3"/>
        <path d="M1060.5,572.6c.5,3-3.6,6.9-5.3,9.3-2.2,3-4.1,7.1-7.5,8.7,4.3-6,8.5-12,12.8-18Z" fill="#dddbd2"/>
        <path d="M1026.7,604.1c-.3,0-.5,0-.8,0l-18.7-12.8c.3,0,.5,0,.8,0,2.7,1.7,5.4,3.4,8.1,5.2,3.6,2.5,7.1,5,10.6,7.6Z" fill="#dfdfda"/>
        <path d="M1255.5,397.9c-2.6.9-6.6-3.2-8.7-4.6-3.1-2.1-7.9-4.3-10-7.4,6,3.9,12.1,7.8,18.1,11.7.2.1.4.3.6.4Z" fill="#dedcd4"/>
        <path d="M1062,623.6c6,4.2,12,8.5,18,12.7,0,.3,0,.5,0,.8-6-4.2-12-8.5-18-12.7v-.8Z" fill="#dedcd3"/>
        <path d="M851.3,483.4c0-.3,0-.5,0-.8,5.2,2.9,10.4,5.8,15.5,8.6,1.1.6,2.1,1.3,3.2,1.9-1.2-.3-2.4-.3-3.4-.9-5.1-2.9-10.2-5.9-15.3-8.9Z" fill="#dcdcd7"/>
        <path d="M984,336.4c-2.2.8-16.9-9.9-16.5-12.1,5.5,4,11,8,16.5,12.1Z" fill="#dddcd4"/>
        <path d="M732.8,516.4c0-.3,0-.5,0-.8,3.7-6,7.5-12,11.2-18-2.8,4.9-5.5,9.8-8.3,14.7-.8,1.5-2,2.7-2.9,4.1Z" fill="#dddbd3"/>
        <path d="M937.4,297.4c.3,0,.6,0,.8,0,1.9,1.3,3.9,2.6,5.7,4,3.6,2.9,7.2,5.8,10.8,8.7h0c-4.5-3.1-8.9-6.1-13.4-9.3-1.4-1-2.6-2.3-3.9-3.4Z" fill="#dedcd3"/>
        <path d="M1075.5,549.4c-1.3,1.8-2.4,3.6-3.8,5.3-3.1,3.6-6.4,7-9.7,10.5h0c1.5-2.1,2.9-4.2,4.6-6.1,2.9-3.3,6-6.5,8.9-9.7h0Z" fill="#dededa"/>
        <path d="M753.8,480.4c.2.2.5.5.7.7-3,5-6,10-9,15-.4.6-1,1-1.5,1.5,2.8-4.9,5.6-9.8,8.3-14.7.5-.9,1-1.7,1.5-2.5Z" fill="#dddbd2"/>
        <path d="M1079.3,361.1c-.2,0-.5,0-.7,0,3-4.8,6-9.7,9.1-14.5.3-.5.9-.9,1.3-1.3,0,.5,0,1,0,1.5-1,1.5-2,3.1-3.1,4.6-2.2,3.2-4.5,6.4-6.7,9.6Z" fill="#deded9"/>
        <path d="M1047,376.9c0,.3,0,.5,0,.8-5.3-3.2-10.6-6.4-15.9-9.7,0,0,0-.6.1-.9,5.2,3.3,10.5,6.5,15.7,9.8Z" fill="#dddcd4"/>
        <path d="M1080,637.2c0-.3,0-.5,0-.8,4.2,3,8.5,5.9,12.7,9,.7.5,1,1.5,1.5,2.3-4-2.7-7.9-5.5-11.8-8.2-.9-.6-1.6-1.5-2.4-2.2Z" fill="#dedcd3"/>
        <path d="M1206.7,386.6c0,.3,0,.6,0,.8-3.3,5-6.5,9.9-9.8,14.9-.2,0-.5,0-.7,0,3.5-5.3,7-10.5,10.5-15.8Z" fill="#dddbd3"/>
        <path d="M900.8,511.1c.2-.2.5-.5.7-.7,4.1,2.8,8.2,5.6,12.3,8.4.6.4.8,1.4,1.2,2.1-4.7-3.3-9.5-6.6-14.2-9.9Z" fill="#dcdcd7"/>
        <path d="M848.3,515.6c1.6-1.5,15.2,8,14.2,9.8l-14.2-9.8Z" fill="#dfded9"/>
        <path d="M1196.2,402.4c.2,0,.5,0,.7,0-3.5,5-7,10-10.5,15,0-.3,0-.5,0-.8,3.2-4.7,6.5-9.5,9.7-14.2Z" fill="#dddbd3"/>
        <path d="M1127.3,612.5c0-.3,0-.6,0-.8,3-4.7,6-9.5,9-14.2.2.2.5.5.7.7-3.2,4.8-6.4,9.6-9.6,14.4Z" fill="#dddbd1"/>
        <path d="M1203.8,399.4c-3.3,4.7-6.5,9.5-9.8,14.2l9.8-15c0,.3,0,.5,0,.8Z" fill="#dddbd3"/>
        <path d="M1203.8,399.4c0-.3,0-.5,0-.8,3-4.5,6.1-9,9.1-13.5.2,0,.5,0,.7,0-3.2,4.8-6.5,9.5-9.7,14.3Z" fill="#dddbd3"/>
        <path d="M917.3,532.2c0-.3,0-.6,0-.8.4-.7.9-1.4,1.3-2.2-3.5-2.8-6.9-5.6-10.3-8.4,3.9,2.4,7.7,4.9,12.2,7.7-1.2,1.4-2.2,2.5-3.1,3.6Z" fill="#dcdcd8"/>
        <path d="M1184.2,427.9c-2.8,4.5-5.7,9-8.6,13.4-.1.2-.8,0-1.2,0,2.4-3.6,4.8-7.2,7.3-10.8.7-1,1.6-1.8,2.4-2.7Z" fill="#dddbd3"/>
        <path d="M1194,413.6c-3.3,4.8-6.5,9.5-9.8,14.3,3.3-4.8,6.5-9.5,9.8-14.3Z" fill="#dddbd3"/>
        <path d="M964.5,559.9c4.3,3.2,8.5,6.4,12.8,9.7-.3,0-.5,0-.8,0l-12.7-9c.2-.2.5-.5.7-.7Z" fill="#dfdeda"/>
        <path d="M1014,440.6c.3,0,.6,0,.8,0,4.2,3.2,8.5,6.5,12.7,9.7h0c-4.5-3.2-9-6.5-13.5-9.7Z" fill="#dedcd4"/>
        <path d="M1062,623.6v.8c-4.3-3-8.5-6-12.8-9v-.8c4.3,3,8.5,6,12.8,9Z" fill="#dedcd3"/>
        <path d="M939,542.6c0-.2,0-.5,0-.7,4.3,3,8.5,6,12.8,9,0,.2,0,.5,0,.7-4.2-3-8.5-6-12.7-9Z" fill="#dfdeda"/>
        <path d="M951.7,551.6c0-.2,0-.5,0-.7,4.2,3,8.5,6,12.7,9l-.7.7c-4-3-8-6-12-9Z" fill="#dfdeda"/>
        <path d="M904.5,463.9c0-.3,0-.5,0-.8,3.7-3.2,7.5-6.5,11.2-9.7.3,0,.5,0,.8,0-4,3.5-8,7-12,10.5Z" fill="#dfdeda"/>
        <path d="M1008.1,591.4c-.3,0-.5,0-.8,0-4-3-8-6-12-9h.4s.4,0,.4,0c4,3,8,6,12.1,9Z" fill="#dfdeda"/>
        <path d="M908.3,520.9c-4.1-2.7-8.1-5.4-12.2-8.1,0,0,.1-.6.2-.9,4,3,8,6,12,9Z" fill="#dddcd8"/>
        <path d="M1131.8,675.4c.4-.1,1-.6,1.2-.4,3.4,2.6,6.7,5.3,10,7.9,0,.2,0,.5,0,.7-3.7-2.7-7.5-5.5-11.2-8.2Z" fill="#dddcd3"/>
        <path d="M1105.5,520.1c.7,2-6.2,10.2-8.3,9.8,2.8-3.3,5.5-6.5,8.3-9.8Z" fill="#dddcd3"/>
        <path d="M916.5,453.4c-.3,0-.5,0-.8,0,3-3.2,6.1-6.5,9.1-9.7.2,0,.5,0,.7,0-3,3.2-6,6.5-9,9.7Z" fill="#deded8"/>
        <path d="M1143,683.6c0-.2,0-.5,0-.7,3.7,2.5,7.5,5,11.2,7.5-.2.2-.5.5-.7.7-3.5-2.5-7-5-10.5-7.6Z" fill="#dddcd2"/>
        <path d="M897.7,559.9c0-.3,0-.5,0-.8.6-1.2,1.3-2.3,2.2-4-1.6-1.4-2.6-2.5-3.6-4.3,1.7,1.2,3.4,2.4,5.7,3.9-1.5,1.8-2.8,3.4-4.2,5.1Z" fill="#e0e0db"/>
        <path d="M996,582.4h-.4s-.4,0-.4,0c-3.3-2.2-6.5-4.5-9.8-6.7.3,0,.5,0,.8,0,3.2,2.3,6.5,4.5,9.7,6.8Z" fill="#dfdfda"/>
        <path d="M1118.3,499.9c0-.3,0-.5,0-.8,2.7-2.5,5.5-5,8.2-7.5,0,.3,0,.5,0,.8-2.7,2.5-5.5,5-8.2,7.5Z" fill="#deded8"/>
        <path d="M986.2,575.6c-.3,0-.5,0-.8,0-3-2-6-4-9-6,.3,0,.5,0,.8,0,3,2,6,4,8.9,6Z" fill="#e0dfdb"/>
        <path d="M954.8,310.1c-3.6-2.9-7.2-5.9-10.8-8.7-1.8-1.4-3.8-2.7-5.7-4-3-2.2-6-4.5-9-6.7,10.4-10,16-24.2,25.7-34.9,21.9,14.5,43.7,29.4,65.5,44.1,10.8,7.3,21.5,14.5,32.3,21.9,10.4,7.1,21,16.3,32.5,21.4,0,.3,0,.5,0,.8-4.5,6.3-8.8,12.7-12.9,19.3-3.9,6.2-7.1,11.5-12.7,16.2-3.2-1.8-5.6-3.3-8.1-4.7-11.7-7.3-23.3-14.7-35-22-6.7-4.2-13.5-8.4-20.3-12.6-.5-.3-1.1-.4-1.7-.6-6.5-4.7-13-9.5-19.5-14.2-3.7-3-7.3-6.1-11.2-8.9-2.9-2.2-6.1-4.1-9.1-6.1ZM942.8,284.6c-.8.9-1.7,1.9-2.8,3.1,3.2,2.2,6,4,9,6.1,1.5-3.5,5.1-5.6,4.9-9.8-2.6-1.7-5-3.2-7.7-5-.8,1.4-1.3,2.4-1.9,3.4-.5.7-1,1.4-1.5,2.2ZM1012.5,333.3c-.6.7-1.1,1.4-1.9,2.3,3.1,2,5.7,3.8,8.6,5.7,2-3,3.8-5.7,5.9-8.9-2.2-1.3-4.1-2.4-5.9-3.4-1-.3-2-.6-2.9-.8-1.4,2-2.6,3.6-3.8,5.3ZM987,307.1c-1.4-.8-2.9-1.6-4.4-2.5-1.4,2.1-2.6,3.8-3.8,5.5-.6.7-1.2,1.4-2.1,2.5,3.1,2.1,5.8,3.9,8.6,5.8,2.1-3,3.9-5.6,5.9-8.7-1.6-1-2.9-1.8-4.2-2.6ZM1059.9,367.1c-2.5-1.8-4.2-3.1-6-4.4,0-1,.2-1.8.2-2.6-.2,0-.4-.1-.6-.2-.5,1.2-1,2.4-1.7,3.8,2.8,1.8,5.4,3.4,8.1,5.2,2.1-3.1,3.9-5.8,5.7-8.6-.5-.5-.9-.9-1-1.1-1.6,2.6-3.2,5-4.9,7.8Z" fill="#f5f0d8"/>
        <path d="M702,587.6c.7-1,1.5-1.9,2.2-2.9,3.7-1.6,5,2.1,8,3.3-1.7,2.4-3.1,4.5-4.7,6.7-2.3-1.7-4.2-3.1-6.1-4.5.2-.9.4-1.8.6-2.6Z" fill="#fdf6e0"/>
        <path d="M702,587.6c-.2.8-.4,1.7-.6,2.6,1.9,1.4,3.8,2.8,6.1,4.5,1.5-2.2,3-4.2,4.7-6.7-3-1.3-4.2-4.9-8-3.3.1-2,1.3-2.5,3.2-2.2,2.2,1.7,4.5,3.4,7.2,5.4-2.1,2.8-4.2,5.5-6.6,8.5-2.8-2.1-5.2-3.9-7.9-6,.7-1,1.3-2,1.9-2.9Z" fill="#e1d9c2"/>
        <path d="M811.8,522.8c-2.3-1.8-4.4-3.5-6.6-5.1l.4-.7c2.6,1.7,5.2,3.5,8.2,5.4-2.1,2.8-3.9,5.4-6,8.3-1.4-.9-2.5-1.6-3.5-2.3.1-.2.2-.4.3-.6.8.4,1.6.7,2.6,1.2,1.4-1.9,2.8-3.8,4.6-6.2Z" fill="#e1d9c2"/>
        <path d="M790,573.8c-2.1,3.2-3.7,6.2-7.1,7.6,1.6-2.3,3.1-4.5,4.9-7.1-2.4-1.8-4.6-3.5-6.8-5.2.2-.3.4-.6.6-.9,2.6,1.8,5.3,3.5,8.4,5.6Z" fill="#e1d9c2"/>
        <path d="M905.3,694.1c-.9-1.2-1.8-2.3-3.2-4.1.9-1.3,2.3-3.3,3.9-5.8,2.2,1.6,4.1,3,6.5,4.7-1.5,2.1-2.8,4-4.2,5.9-1.2-.3-2.1-.5-3.1-.7h0Z" fill="#fdf6df"/>
        <path d="M1276.4,766.3c-3.3-2.3-6.1-4.4-9.3-6.7,2.1-2.8,3.9-5.2,6.1-8.1,3.1,2.1,5.9,4,9.2,6.3-2,2.9-3.9,5.6-6,8.5ZM1276.3,764.9c1.6-2.4,2.8-4.3,4.3-6.6-2.2-1.6-4.1-3-6.2-4.6-1.7,2.3-3.1,4.2-4.7,6.3,2.2,1.6,4.1,3,6.6,4.8Z" fill="#e5ddc7"/>
        <path d="M1259.8,742.1c-2,2.7-3.5,4.9-5.3,7.4-4.3.2-6.3-3.6-10-5.6,2.2-2.9,4-5.4,6.2-8.2,3.2,2.2,5.9,4.2,9.1,6.4ZM1253.6,748.8c1.6-2.1,3.2-4,4.3-6.4-1.9-1.5-3.8-2.9-6.1-4.6-1.7,2.4-3,4.4-4.6,6.6,2.3,1.6,4.3,3,6.3,4.4Z" fill="#e5ddc6"/>
        <path d="M1196.2,700.1c-.7,1.3-1.3,2.5-2.2,4.3-3.2-2.1-6-4-9.4-6.3,2.3-2.8,4.4-5.4,6.7-8.2,3,2.2,5.4,4,8.4,6.2-1.3,1.5-2.4,2.7-3.5,4,.5-1.2,1-2.4,1.7-4-2.1-1.4-4.1-2.8-6.3-4.4-1.5,2.3-2.9,4.4-4.5,6.8,2.4,1.5,4.3,2.7,6.1,3.8,1.2-1,2.1-1.6,3-2.3Z" fill="#e3dbc5"/>
        <path d="M1157.9,679.2c-3-2.1-5.6-3.9-8.7-6.1,1.9-2.8,3.7-5.4,5.8-8.5,3,2.2,5.6,4.1,8.7,6.4-2,2.8-3.9,5.3-5.9,8.1ZM1157.8,677.7c1.5-2.1,2.8-3.8,4.5-6.1-2.1-1.7-4-3.2-6.2-5-1.8,2.5-3.2,4.5-4.7,6.7,2.2,1.5,4.1,2.8,6.5,4.4Z" fill="#e3dbc4"/>
        <path d="M1266.8,451.1l2.9,2.2c.3.8.5,1.6.8,2.4-1.5,1.8-2.9,3.5-4.5,5.4-2.3-1.7-4.2-3.1-6.3-4.6,1.7-2.2,3.2-4,4.5-5.8,1,.2,1.7.3,2.4.4Z" fill="#fef7e0"/>
        <path d="M1266.8,451.1c-.7-.1-1.4-.2-2.4-.4-1.4,1.8-2.8,3.6-4.5,5.8,2.1,1.5,4,3,6.3,4.6,1.6-1.9,3-3.6,4.5-5.4-.3-.8-.5-1.6-.8-2.4.7.3,1.5.7,2.7,1.3-2.4,3.1-4.5,5.9-6.7,8.9-3-2.3-5.5-4.1-8.3-6.3,1.4-1.9,6.5-11.1,9.3-6.1Z" fill="#e2dac4"/>
        <path d="M1235.1,487.9c1.4,1.1,2.1,1.7,3.4,2.8-1.5-.2-2.2-.3-3.1-.4-1.3,1.7-2.6,3.4-4.2,5.4,1.9,2.6,4.2,4.4,7.4,4.8-1.9,2.3-2.8,1.9-9.8-4.1,1.9-2.7,3.9-5.4,6.2-8.5Z" fill="#e2dac4"/>
        <path d="M1222.5,522.4c-.3,2-1.5,3-3.7,3-2.2-1.6-4.6-3.3-7.3-5.3,2.1-2.7,4-5.1,6.1-7.7.7.4,1.4.7,2,1h0c-1.8,2-3.7,3.9-5.8,6.1,2.4,1.8,4.2,3.2,6.1,4.6,1.1-.7,1.9-1.2,2.7-1.7,0,0,0,0,0,0Z" fill="#e3dbc4"/>
        <path d="M1185,558.4c-.1-3.2,2.4-4.7,4.4-6.9,1.3.9,2.5,1.6,3.6,2.4-.1.2-.2.4-.3.6-.8-.4-1.6-.8-2.6-1.3-1.6,1.7-3.3,3.5-5,5.2h0Z" fill="#e2dac4"/>
        <path d="M1219.5,513.4c2.2,1.4,4.5,2.7,7.2,4.4-1.6,1.8-2.9,3.2-4.2,4.6h0c.7-1.4,1.3-2.8,2-4.3-1.7-1.6-3.4-3.1-5-4.7h0Z" fill="#e3dbc4"/>
        <path d="M1203.5,750.8c2.3,1.9,4,3.4,6,5-1.7,2.2-3.2,4-4.7,6-2.2-1.6-4.2-3-6.4-4.6,1.7-2.1,3.3-4.1,5.1-6.4Z" fill="#fef7e0"/>
        <path d="M1182,743.6c-3.6-.4-4.8-1.3-7.6-3.6,1.3-2,2.7-4,4.3-6.4,2.2,1.6,4.1,3,6.2,4.5-1,1.9-1.9,3.7-2.9,5.6,0,0,0,0,0,0Z" fill="#fef7e0"/>
        <path d="M1072.2,723.8c2.3,1.7,4.2,3.1,6.3,4.6-1.5,2.1-2.9,4.1-4.7,6.5-2.1-1.6-4.1-3.1-6.4-4.9,1.7-2.3,3.1-4.1,4.7-6.3Z" fill="#fdf6e0"/>
        <path d="M875.7,396.7c1.8-2.7,3.5-5.1,5.2-7.6.3.4.7.8,1.1,1.3-1.8,2.7-3.5,5.2-5.5,8.3-3.4-2.3-10.9-4.9-6-9.1-.4.9-.8,1.8-1.3,2.9,2.1,1.4,4,2.7,6.4,4.4Z" fill="#e0d8c2"/>
        <path d="M849.9,446c-3.2,2.6-3.2,7.1-7.9,7.2,2.1-2.7,3.8-5,5.8-7.5-2.3-1.6-4.2-2.9-6.1-4.2-.8.3-1.5.6-2.2.9,0-.1-.2-.3-.2-.4.6-.6,1.1-1.2,1.9-2.1,2.8,2,5.4,3.8,8.7,6.2Z" fill="#e1d9c2"/>
        <path d="M1174.5,516.4l2.9,2.2c.6.9,1.1,1.9,1.7,2.9-1.6,1.9-3,3.7-4.6,5.6-2.3-1.7-4.2-3.2-6.1-4.6,2-2.7,3.2-4.4,6.1-6.1Z" fill="#fef7e0"/>
        <path d="M1174.5,516.4c-2.8,1.7-4.1,3.3-6.1,6.1,1.9,1.4,3.8,2.9,6.1,4.6,1.6-1.9,3-3.7,4.6-5.6-.6-1-1.2-2-1.7-2.9,1,.6,2,1.2,3.5,2-2.3,2.9-4.2,5.5-6.4,8.4-2.8-2.1-5.2-3.9-8.1-6.1,2-2.8,4-5.5,6.6-9.2.7,1.4,1.1,2,1.4,2.7Z" fill="#e2dac3"/>
        <path d="M1234.5,437.6c-.4.8-.8,1.6-1.6,3-3.1-2.3-5.7-4.2-8.5-6.3,2.2-2.9,4-5.3,6.3-8.4,1.6,1.2,3,2.4,4.5,3.5h0c-1.2-.5-2.4-1-4.1-1.7-1.4,2-2.7,3.9-4.3,6,1.5,1.2,5.4,5.6,7.6,3.9h0Z" fill="#e2dac3"/>
        <path d="M1210.4,421.8c.9-.4,1.5-.7,2-1,.1.2.2.5.4.7-1.1.7-2.2,1.4-3.4,2.1-2.5-1.9-4.7-3.6-7.2-5.5,2.1-3.1,3.6-6.6,7.6-7.8-1.8,2.2-3.7,4.5-5.8,7,2.4,1.7,4.3,3,6.4,4.4Z" fill="#e1d9c3"/>
        <path d="M1184.7,444.1c2.5,1.8,5,3.4,7.5,5.2-.5.3-1.1.7-1.8,1.2-2.7-2-5.2-3.9-8-5.9,2.6-2.8,3.9-6,7.2-7.4-1.5,2.1-3,4.3-4.9,6.9Z" fill="#e2dac3"/>
        <path d="M1235.2,429.4c1.3.8,2.6,1.6,4.3,2.7-1.9,2.2-3.5,3.9-5,5.6h0c.9-1.8,1.9-3.6,2.9-5.4-.7-.9-1.4-1.9-2.1-2.8,0,0,0,0,0,0Z" fill="#e2dac3"/>
        <path d="M1111.5,606.4c-.8,1.5-1.5,3-2.4,4.7-3.9-.8-6.2-3.5-9-5.9,2-2.7,3.8-5.3,5.8-8.1,2.9,2.2,5.5,4.1,8.1,6.1.2.5.5,1,.7,1.5-1.1.6-2.2,1.1-3.3,1.7.4-1,.7-2,1.2-3.2-2.1-1.4-4.1-2.7-6.3-4.2-1.6,2.2-3,4.2-4.6,6.4,2.4,1.7,4.4,3.1,5.8,4.1,1.6-1.3,2.8-2.2,3.9-3.1Z" fill="#e2d9c3"/>
        <path d="M1126.5,491.6c-2.7,2.5-5.5,5-8.2,7.5-14.5,16.5-29.4,32.8-42.8,50.2-3,3.2-6,6.4-8.9,9.7-1.7,1.9-3.1,4-4.6,6.1-3.9,4.6-8,9-11.7,13.8-3.6,4.7-6.7,9.8-10.1,14.7-2.4,3.1-4.8,6.2-7.3,9.5-3.1-2.1-5.8-3.9-8.4-5.7-9.4-6.7-18.8-13.4-28.2-20.1-15.6-11.1-31.2-22.1-46.8-33.1-7.6-5.3-15.2-10.6-22.7-15.9-.8-.6-1.4-1.4-2-2.1,2.6-3.7,5.3-7.5,7.9-11.2.5-.7.7-1.5,1.1-2.3,1.5-2.4,5.3-6.8,5.2-9.6-.1-3-3.9-5.1-5.9-6.9,6.1-4.4,12.2-8.2,16.8-14.3,4.8-6.4,8.9-13.4,13.3-20.1,2-2.5,4-5,6-7.5,13.6,9,27,18.3,40.7,27.3,6.8-9.5,13.5-18.9,20.8-28,2.1-.3,3-1.5,2.9-4.2-3-2.4-6.3-5.1-9.7-7.7,4.6-10.2,12-19.5,18.3-28.8,6.1-9.2,13.7-18.3,18.5-28.2,1.2-.4,2.3-.7,4-1.3,6.1-6.1,10.6-13.9,14.7-22,2.2-3.2,4.5-6.4,6.7-9.6,1-1.5,2-3.1,3.1-4.6,4.2-4,8.3-8.8,14.1-10.3,5.6-1.5,13.9-2.8,19.2-.3,2.9,9-1,19.9-1.6,29.1-.3,5.1-.1,10.2,0,15.2.2,4.4-.3,9.4,1.2,13.5,3.2,15.5,8.7,30.3,13.2,45.4,4.5,14.9,4.3,30.3,5.1,45.7-4.8,2.2-9.3,4.3-13.8,6.4ZM1026,483.4c-.9-.7-1.8-1.4-2.9-2.3-2.6,4-6.1,6.8-7,11.4,1.9,1.3,3.7,2.5,5.4,3.7,6.7,4.8,13.3,9.6,20.6,13.6l.5-.7c.9,1.4,1.9,2.8,3.2,4.8,1,.7,2.5,1.7,4.6,3.1,2.7-3.8,5.2-7.3,8-11.2-5.7-4-10.8-7.6-15.8-11.2,1.3-5.5,5.3-9.9,8.5-14.6-1.8-1-3.3-1.9-4.7-2.7h0c-1.4-1.3-2.9-2.5-4.7-4.2-3.5,4.7-6.8,9-9.9,13.2-2.3-1.2-4-2.1-5.7-3h0ZM1081.5,394.9c2.4,1.6,4.8,3.3,7.3,5,1.9-2.7,3.5-4.8,5.3-7.3-2.5-1.4-4.5-2.6-6.6-3.7-3-2.3-5.9-4.6-9.3-7.2-1.8,2.6-3.4,4.9-5.3,7.5,2,1.3,3.8,2.4,5.5,3.5,1,.7,2,1.4,3,2.2ZM1065.8,544.8c.7-.9,1.4-1.9,2.2-2.9-1.3-1.1-2.5-2-3.7-3-1.2-1.1-2.5-2.1-3.8-3.3-2.2,3-4.1,5.6-6,8.2,3,2.1,5.5,4,8.5,6.2,1.1-2,1.9-3.6,2.7-5.2ZM1032.7,551.6c.3-.8.6-1.6,1-2.8-5-3-9.1-7.3-14.8-9.5-1.8,2.8-3.4,5.4-5.1,8,2.1,1.5,3.8,2.8,5.5,4-2.4,3.8-4.7,7.3-7,10.9.8.6,1.3,1,1.7,1.4-1.2,3.1-2.3,6.2-3.6,9.6,1.6.9,3.3,1.9,5.2,3.1,5.8-8.4,11.5-16.5,17.1-24.7ZM956.2,489.3c-.8,1.2-1.6,2.3-2.7,3.9,2.6,1.8,4.9,3.5,7.4,5.3-4.8,7-9.6,13.9-14.4,20.8-.6,1-1.1,2.1-1.9,3.6,3.5,2.4,6.8,4.5,10.4,7,8.1-11.5,15.7-22.4,23.8-33.9-6.2-4.4-12-8.5-18.4-13-1.5,2.3-2.8,4.4-4.1,6.4Z" fill="#f8f7e9"/>
        <path d="M1046,386.4c1,1.8-.6,5-4.9,9.2-2.5-1.6-5-3.3-8-5.3,1.4-2.3,2.7-4.3,4.1-6.4l.7.4c-1,1.6-2,3.2-3.1,5.2,2.2,1.5,4.3,3,6.6,4.6,1.7-2.8,3.1-5.2,4.6-7.7Z" fill="#e2dac3"/>
        <path d="M1007,359.4c.7.6,1.4,1.3,2.1,2-2.1,3.1-3.8,5.7-5.5,8.2-5.1-1.5-8.2-4.3-7.8-6.8,2.2,1.7,4.6,3.4,7.1,5.4,1.6-2.3,2.9-4.2,4.2-6.2-.3-.7-.6-1.3-.9-2,.2-.2.5-.4.7-.6Z" fill="#e2d9c3"/>
        <path d="M960.8,337.1c1.2-1.7,2.3-3.4,3.7-5.3,2.1,1.4,4.1,2.6,6,3.9.3,3.3-1.8,5.1-3.8,7.6-2.3-1.5-4.3-2.9-6.2-4.1.1-.8.2-1.4.3-2Z" fill="#fdf6e0"/>
        <path d="M930,320.7c-2.5-2.4-6.4-3-7.8-7.3,2.9,1.9,5.2,3.4,7.9,5.2,1.7-2.6,3.1-5,4.6-7.2,1.5,1.5.2,4.6-4.7,9.4Z" fill="#e0d8c1"/>
        <path d="M960.8,337.1c0,.6-.2,1.2-.3,2,1.9,1.3,3.9,2.6,6.2,4.1,2-2.6,4.1-4.3,3.8-7.6.7.3,1.5.7,2.7,1.2-2.1,3-4,5.8-6,8.7-2.8-1.8-5.3-3.5-8.3-5.5.7-1.1,1.3-2,1.9-3Z" fill="#e1d9c3"/>
        <path d="M870.8,515.6c12.4,8.4,24.7,16.9,36.9,25.5-1.4,2-2.8,4-4.2,6-1.3-.3-2.4-.5-3.4-.8-11.3-8.3-22.6-16.6-34.2-25,1.2-2.2,1.8-5,5-5.7Z" fill="#fdfcee"/>
        <path d="M843,506.6c-11.6-9.3-23.9-17.6-36.1-26.1,1.1-1.6,2.1-3.1,3.1-4.6.7-.6,1.4-1.1,2-1.6,12.6,8.8,24.9,17.4,37.2,26.1-2,2.8-3.2,4.7-6.2,6.4Z" fill="#fdfcee"/>
        <path d="M843,506.6c3-1.6,4.2-3.6,6.2-6.4-12.4-8.7-24.6-17.2-37.2-26.1-.6.5-1.3,1.1-2,1.6.2-1,.4-1.9.8-3.9,14.1,9.8,27.3,18.9,40.9,28.4-2,2.9-3.7,5.3-5.6,8.1-1.1-.6-2.1-1.2-3.1-1.8Z" fill="#e2dfd0"/>
        <path d="M906,493.1c-.5.8-1,1.5-1.5,2.3-.6.4-1.2.8-2,1.2-6-4.1-13.3-7.5-16.8-14,.3,0,.5,0,.8,0,4.5,5,10,8.4,15.5,12.3,2.2-1.9,3.9-3.3,5.5-4.8-.5,1-1,2-1.5,3Z" fill="#e7e3d4"/>
        <path d="M910.5,491.6c6,4,12.2,7.8,17.9,12.2-1.4,2.1-2.7,4-4.4,6.4-6.2-4.3-12.1-8.4-18.2-12.7.7-1.3,1.2-2.1,1.7-2.9l3-3Z" fill="#fdfcee"/>
        <path d="M907.5,490.1c-1.7,1.4-3.3,2.9-5.5,4.8-5.5-3.8-11-7.3-15.5-12.3,1.5-1.6,2.9-3.3,4.5-5.1,5.7,3.9,11.4,7.9,17.2,11.9-.2.2-.5.5-.7.7Z" fill="#fdfcee"/>
        <path d="M907.5,490.1c.2-.2.5-.5.7-.7.8.7,1.5,1.5,2.3,2.2l-3,3c-.5-.5-1-1-1.5-1.5.5-1,1-2,1.5-3Z" fill="#f2f1e4"/>
        <path d="M749.6,323.6c19.8,5.4,39,10.6,58,15.8-5.4,16.6-10.7,33.2-15.9,49.8-4.8,15.2-8.2,32.7-16.7,46.4-12.9-5.3-26.7-9-40.1-12.9-11.1-3.3-21.6-9.2-18.2-22.8,3.3-13.6,9.7-27,14.5-40.2,4.7-12.9,11.2-24.4,18.4-36Z" fill="#f8f7e9"/>
        <path d="M1196.2,402.4c-3.2,4.7-6.5,9.5-9.7,14.2-1.7,2.4-3.6,4.7-5.2,7.1-3.1,4.6-6,9.3-9.1,13.9-1.9,2.3-3.8,4.5-5.6,6.8-4.4,5.4-10,9-16.1,12-1.9.6-3.7,1.3-5.8,2-2.7-20.5-11.6-39.3-16.3-59.3-4.8-20.4-1-41.1.5-61.7,15.4,4.5,30.9,9,46.2,13.9,7.4,2.3,14.4,4.7,21.2,8.4,6.9,3.8,13.2,8.5,19.8,12.8-3.3,4.9-6.3,9.6-9.4,14.2-3.5,5.3-7,10.5-10.5,15.8ZM1185.9,383.3c-.1-.2-.3-.4-.4-.6-.7.2-1.4.4-2,.6-2-1.5-3.9-2.9-6-4.5,1.8-2.4,3.6-4.6,5.3-6.9-3.6,1.6-5.4,4.7-6.9,8.1,2.7,1.9,5.1,3.6,8,5.7.8-.9,1.4-1.6,2.1-2.3Z" fill="#f5f0d8"/>
        <path d="M976.5,569.6c3,2,6,4,9,6,3.3,2.2,6.5,4.5,9.8,6.7,4,3,8,6,12,9l18.7,12.8c.9,1,1.8,2,3,3.3-23.4,23.8-49.9,44.4-72,69.5-3.2,3.8-6.9,10.4-11.4,12.7-4,2-8.1-.4-11.4-2.6-3.7-2.4-6.7-5.5-8.3-9.7-1.9-5-.9-10.4-.6-15.6.6-11.3.9-22.4,3.2-33.5,2.3-11.3,5.6-22.3,7.4-33.7-1.3-3.6-2.2-7.4-4.9-10.2-2.4-2.5-5.7-4.2-8.5-6.2-7.8-5.7-11.3-14.3-15.5-22.8,3.9-5.6,7.8-11.3,11.7-17,1.5-2,2.9-3.9,4.3-5.8,5.4,3.5,10.7,6.9,15.9,10.3,4.2,3,8.5,6,12.7,9,4,3,8,6,12,9l12.7,9ZM925.5,553.8c-2,2.4-4,4.9-6.3,7.6,2.6,2,5,3.8,7.6,5.8,2.9-4.1,5.4-7.6,8.2-11.5-2.6-1.9-4.8-3.5-7.5-5.3-.8,1.4-1.4,2.4-2,3.4,0,0,0,0,0,0ZM946.3,582.3c3-4.2,5.6-7.9,8.3-11.8-3-2.1-5.5-3.8-8.2-5.8-2.9,4.1-5.6,7.9-8.5,12,3,2,5.6,3.7,8.4,5.6ZM986,608.6c1.8-2.5,3.4-4.9,5.2-7.5-2.8-2-5.2-3.7-8.1-5.8-2.1,2.9-4,5.5-6.2,8.4,3.4,1.5,5.3,4.8,9.1,4.9Z" fill="#f8f7e9"/>
        <path d="M777.8,442.5c9.4,4.7,18.6,9.4,28.2,14.2-3,4.2-5.5,7.8-7.5,10.7-13.1,1.4-25.4,2.8-38,4.1,5.7-9.6,11.3-19.1,17.2-29Z" fill="#f8f7e9"/>
        <path d="M1030.5,453.4c-7.3,9.1-14,18.5-20.8,28-13.7-8.9-27.1-18.3-40.7-27.3,3.6-5.5,7.2-11,10.8-16.5.5-.7.8-1.5,1.2-2.3,4.6-4.8,7.4-6.9,14.5-5.7,7.2,1.3,12.8,6.7,18.5,10.9,4.5,3.3,9,6.5,13.5,9.8,1,1,2,2,3,3ZM1006.2,460.2c2-2.8,3.8-5.3,5.7-7.9-.6-.7-1.1-1.2-1.1-1.2-1.5,2.5-2.9,4.9-4.6,7.9-2.7-2.1-5-3.9-7.4-5.7.9,4,4.7,4.6,7.4,7Z" fill="#f5f0d8"/>
        <path d="M978.8,310.1c1.2-1.7,2.3-3.4,3.8-5.5,1.5.9,3,1.7,4.4,2.5.7.9,1.3,1.8,2.1,2.8-1.3,2-2.6,3.9-4.2,6.2-2-2.3-5.9-2.2-6.2-6Z" fill="#fef7e0"/>
        <path d="M1012.5,333.3c1.2-1.7,2.4-3.3,3.8-5.3.9.3,1.9.5,2.9.8,1.2,1.2,2.3,2.5,3.8,4-1.2,1.8-2.6,3.8-3.8,5.7-4.4-1.7-5.5-2.6-6.6-5.3Z" fill="#fef7e0"/>
        <path d="M942.8,284.6c.5-.7,1-1.4,1.5-2.2.9-.6,1.8-1.1,2.8-1.7,2,1.4,3.7,2.6,5.8,4.1-1.5,2.3-2.9,4.3-4.4,6.6-2.2-1.4-4.3-2.8-6.3-4.1.2-1,.4-1.8.6-2.6Z" fill="#fef6e0"/>
        <path d="M942.8,284.6c-.2.8-.4,1.7-.6,2.6,2.1,1.3,4.1,2.7,6.3,4.1,1.5-2.3,2.9-4.3,4.4-6.6-2.1-1.4-3.9-2.7-5.8-4.1-1,.6-1.9,1.2-2.8,1.7.6-1,1.1-2,1.9-3.4,2.7,1.8,5.1,3.3,7.7,5,.2,4.2-3.3,6.3-4.9,9.8-3.1-2.1-5.8-3.9-9-6.1,1.1-1.2,2-2.2,2.8-3.1Z" fill="#e2d9c3"/>
        <path d="M1012.5,333.3c1.1,2.7,2.2,3.5,6.6,5.3,1.3-1.9,2.6-3.9,3.8-5.7-1.5-1.5-2.6-2.8-3.8-4,1.8,1.1,3.7,2.2,5.9,3.4-2.2,3.3-3.9,5.9-5.9,8.9-2.9-1.9-5.5-3.6-8.6-5.7.8-.9,1.3-1.6,1.9-2.3Z" fill="#e1d9c3"/>
        <path d="M978.8,310.1c.3,3.9,4.2,3.7,6.2,6,1.5-2.3,2.8-4.2,4.2-6.2-.8-1-1.5-1.9-2.1-2.8,1.3.8,2.6,1.6,4.2,2.6-2.1,3-3.9,5.6-5.9,8.7-2.8-1.9-5.5-3.7-8.6-5.8,1-1.1,1.6-1.8,2.1-2.5Z" fill="#e1d9c3"/>
        <path d="M1059.9,367.1c1.7-2.8,3.3-5.2,4.9-7.8,0,.1.5.5,1,1.1-1.9,2.8-3.6,5.4-5.7,8.6-2.7-1.7-5.2-3.3-8.1-5.2.6-1.4,1.1-2.6,1.7-3.8.2,0,.4.1.6.2,0,.8-.1,1.5-.2,2.6,1.7,1.3,3.5,2.6,6,4.4Z" fill="#e1d9c3"/>
        <path d="M1276.3,764.9c-2.5-1.8-4.4-3.2-6.6-4.8,1.6-2.2,3-4,4.7-6.3,2.1,1.5,4,2.9,6.2,4.6-1.5,2.3-2.7,4.2-4.3,6.6Z" fill="#fef7e0"/>
        <path d="M1253.6,748.8c-2.1-1.5-4.1-2.8-6.3-4.4,1.5-2.2,2.9-4.2,4.6-6.6,2.2,1.7,4.1,3.1,6.1,4.6-1.1,2.4-2.7,4.3-4.3,6.4Z" fill="#fef7e0"/>
        <path d="M1196.2,700.1c-.9.7-1.8,1.4-3,2.3-1.8-1.1-3.7-2.4-6.1-3.8,1.6-2.4,3-4.5,4.5-6.8,2.3,1.6,4.2,2.9,6.3,4.4-.7,1.5-1.2,2.8-1.7,4h0Z" fill="#fdf6e0"/>
        <path d="M1157.8,677.7c-2.4-1.6-4.3-2.9-6.5-4.4,1.5-2.2,3-4.2,4.7-6.7,2.2,1.8,4.1,3.3,6.2,5-1.6,2.2-2.9,4-4.5,6.1Z" fill="#fef7e0"/>
        <path d="M1219.5,513.4c1.7,1.5,3.3,3.1,5,4.7-.7,1.5-1.4,2.9-2,4.3-.8.5-1.6,1-2.7,1.7-1.8-1.4-3.7-2.8-6.1-4.6,2.1-2.2,3.9-4.1,5.8-6.1Z" fill="#fef7e0"/>
        <path d="M1235.2,429.4c.7.9,1.4,1.9,2.1,2.8-1,1.9-1.9,3.6-2.9,5.4-2.2,1.6-6-2.8-7.6-3.9,1.5-2.1,2.9-4.1,4.3-6,1.7.7,2.9,1.2,4.1,1.7Z" fill="#fef7e0"/>
        <path d="M1111.5,606.4c-1.2.9-2.3,1.8-3.9,3.1-1.4-1-3.4-2.4-5.8-4.1,1.5-2.2,3-4.1,4.6-6.4,2.2,1.5,4.2,2.8,6.3,4.2-.4,1.2-.8,2.2-1.2,3.2,0,0,0,0,0,0Z" fill="#fdf6e0"/>
        <path d="M1042.5,494.6c5,3.6,10.1,7.1,15.8,11.2-2.8,3.9-5.3,7.4-8,11.2-2.1-1.4-3.6-2.5-4.6-3.1-1.3-1.9-2.2-3.4-3.2-4.8l-.5.7c-7.3-3.9-13.8-8.8-20.6-13.6-1.3-1.6-2.6-3.3-4.2-5.2,1.9-2.6,3.9-5.5,5.8-8.2,1.3.3,2.1.4,2.9.6h0c1.8,1.5,3.6,3.1,5.8,4.9,3.5-4.7,6.5-8.9,9.7-13.1,1.7.8,3.3,1.5,4.8,2.2h0c.9,1.1,1.9,2.1,3,3.4-3.1,4.4-6.1,8.8-9.1,13.2.2.3.3.6.5.9.6,0,1.3-.1,1.9-.2Z" fill="#e6e2d4"/>
        <path d="M946.5,519.3c4.8-6.9,9.6-13.8,14.4-20.8-2.5-1.8-4.8-3.4-7.4-5.3,1.1-1.6,1.9-2.8,2.7-3.9,2-1.3,3-2.9,4.4-4.9,5.6,4,10.9,7.8,16.4,11.7-7.8,11.1-15.2,21.5-22.7,32.3-3-2.1-5.7-4.1-7.9-5.6v-3.4Z" fill="#e6e2d4"/>
        <path d="M1032.7,551.6c-5.7,8.2-11.3,16.3-17.1,24.7-2-1.2-3.6-2.1-5.2-3.1,1.3-3.4,2.4-6.5,3.6-9.6-.2-4.2,4.4-9.1,6.2-12.7-2-1.8-3.4-3.1-5-4.6,1.7-2.1,3.2-3.8,4.8-5.7,4.3,3,8.2,5.6,11.9,8.3.3,1,.5,1.8.8,2.7Z" fill="#e6e2d4"/>
        <path d="M946.5,519.3v3.4c2.2,1.6,4.9,3.5,7.9,5.6,7.6-10.7,14.9-21.2,22.7-32.3-5.5-3.9-10.8-7.6-16.4-11.7-1.4,1.9-2.4,3.6-4.4,4.9,1.3-2,2.6-4.1,4.1-6.4,6.4,4.5,12.2,8.7,18.4,13-8,11.4-15.7,22.4-23.8,33.9-3.6-2.4-6.8-4.6-10.4-7,.8-1.5,1.4-2.5,1.9-3.6Z" fill="#d5d1c1"/>
        <path d="M1064.3,538.9c1.2,1,2.4,1.9,3.7,3-.8,1.1-1.5,2-2.2,2.9-1.1,1-2.1,2-3.5,3.2-2-1.6-4-3.1-6.1-4.8,1.9-2.3,3.3-4.1,4.6-5.7,1.4.6,2.5,1,3.5,1.4Z" fill="#fdf6e0"/>
        <path d="M1078.5,392.7c-1.7-1.1-3.5-2.2-5.5-3.5,1.8-2.6,3.4-4.9,5.3-7.5,3.4,2.6,6.3,4.9,9.3,7.2h0c-2.8,1.6-3.9-1.8-6.2-2-.8.3-1.6.6-2.5,1l.8.4c-.3,1.5-.7,3-1,4.6Z" fill="#d1d1d0"/>
        <path d="M1087.5,388.9c2,1.1,4,2.3,6.6,3.7-1.8,2.5-3.3,4.6-5.3,7.3-2.6-1.8-4.9-3.4-7.3-5,.6-.4,1.2-.7,1.9-1.1,1,.3,2,.7,2.9,1,2.6-1.7,2.3-3.7,1.2-5.8,0,0,0,0,0,0Z" fill="#d1d1d0"/>
        <path d="M1087.5,388.9c1.1,2.2,1.3,4.2-1.2,5.8-.9-.3-1.9-.6-2.9-1-.6.4-1.2.8-1.9,1.1-1-.7-2-1.4-3-2.2.3-1.5.7-3,1-4.6l-.8-.4c.9-.3,1.8-.7,2.5-1,2.3.3,3.4,3.7,6.2,2.1Z" fill="#e8e5d9"/>
        <path d="M1032.7,551.6c-.3-.9-.5-1.7-.8-2.7-3.8-2.6-7.6-5.3-11.9-8.3-1.6,1.9-3.1,3.6-4.8,5.7,1.6,1.5,3,2.8,5,4.6-1.8,3.6-6.4,8.5-6.2,12.7-.5-.4-.9-.8-1.7-1.4,2.3-3.6,4.6-7.1,7-10.9-1.7-1.3-3.4-2.5-5.5-4,1.7-2.6,3.3-5.1,5.1-8,5.8,2.2,9.8,6.5,14.8,9.5-.4,1.2-.7,2-1,2.8Z" fill="#d5d2c2"/>
        <path d="M1064.3,538.9c-1-.4-2-.8-3.5-1.4-1.3,1.6-2.7,3.4-4.6,5.7,2.1,1.7,4.1,3.2,6.1,4.8,1.3-1.2,2.4-2.2,3.5-3.2-.8,1.6-1.7,3.1-2.7,5.2-3-2.2-5.6-4-8.5-6.2,1.9-2.6,3.8-5.2,6-8.2,1.4,1.2,2.6,2.2,3.8,3.3Z" fill="#e2dbc5"/>
        <path d="M1046.3,477.4c-1.5-.7-3.1-1.4-4.8-2.2-3.1,4.2-6.2,8.4-9.7,13.1-2.2-1.8-4-3.3-5.8-4.9,1.7.9,3.4,1.8,5.7,3,3.1-4.2,6.4-8.5,9.9-13.2,1.8,1.6,3.3,2.9,4.7,4.2Z" fill="#d6d2c3"/>
        <path d="M1042.5,494.6c-.6,0-1.3.1-1.9.2-.2-.3-.3-.6-.5-.9,3-4.4,6.1-8.8,9.1-13.2-1.1-1.2-2-2.3-3-3.4,1.4.8,2.9,1.6,4.7,2.7-3.2,4.7-7.2,9.1-8.5,14.6Z" fill="#d5d2c2"/>
        <path d="M1026,483.4c-.8-.2-1.7-.4-2.9-.6-1.9,2.7-4,5.5-5.8,8.2,1.6,1.9,2.9,3.6,4.2,5.2-1.7-1.2-3.5-2.4-5.4-3.7.9-4.6,4.4-7.4,7-11.4,1.1.9,2,1.6,2.9,2.3Z" fill="#d5d2c2"/>
        <path d="M1185.9,383.3c-.6.7-1.3,1.4-2.1,2.3-2.9-2-5.3-3.7-8-5.7,1.5-3.5,3.3-6.5,6.9-8.1-1.7,2.2-3.4,4.5-5.3,6.9,2.1,1.6,4,3,6,4.5.6-.2,1.3-.4,2-.6.1.2.3.4.4.6Z" fill="#e1d9c2"/>
        <path d="M946.3,582.3c-2.9-1.9-5.4-3.6-8.4-5.6,2.9-4.1,5.6-7.8,8.5-12,2.8,1.9,5.2,3.7,8.2,5.8-2.8,3.9-5.3,7.6-8.3,11.8ZM953.1,571.2c-2.3-1.8-4.3-3.3-6.5-5-2.6,3.6-4.8,6.8-7.2,10.1,2.2,1.7,4.1,3,6.2,4.6,2.4-3.2,4.7-6.1,7.4-9.7Z" fill="#d5d2c2"/>
        <path d="M925.5,553.9c.6-1,1.2-2,2-3.4,2.6,1.9,4.9,3.5,7.5,5.3-2.8,3.9-5.3,7.4-8.2,11.5-2.6-2-4.9-3.8-7.6-5.8,2.3-2.7,4.3-5.2,6.3-7.6-1.4,2.6-2.8,5.1-4.3,7.7,1.6,1.4,3.1,2.8,5,4.4,2.4-3.5,4.6-6.7,6.9-10-1.9-1.4-3.4-2.5-5-3.7-1,.6-1.9,1.2-2.7,1.7Z" fill="#d5d1c2"/>
        <path d="M986,608.6c-3.9,0-5.7-3.3-9.1-4.9,2.2-3,4.1-5.6,6.2-8.4,2.9,2.1,5.3,3.8,8.1,5.8-1.8,2.6-3.5,5-5.2,7.5ZM985,608.1c1.5-2.3,2.9-4.3,4.4-6.6-2.2-1.6-4.1-3-6.3-4.5-1.7,2.3-3.1,4.3-4.6,6.4,2.2,1.6,4.1,3,6.4,4.7Z" fill="#e2dbc6"/>
        <path d="M1006.2,460.2c-2.7-2.4-6.5-3-7.4-7,2.3,1.8,4.7,3.6,7.4,5.7,1.7-2.9,3.1-5.4,4.6-7.9,0,0,.5.6,1.1,1.2-1.9,2.7-3.7,5.1-5.7,7.9Z" fill="#e1d9c3"/>
        <path d="M953.1,571.2c-2.8,3.6-5,6.5-7.4,9.7-2.1-1.6-4-2.9-6.2-4.6,2.4-3.3,4.6-6.5,7.2-10.1,2.2,1.7,4.2,3.2,6.5,5Z" fill="#e6e2d4"/>
        <path d="M925.5,553.9c.8-.5,1.7-1,2.7-1.7,1.6,1.2,3.1,2.3,5,3.7-2.3,3.4-4.5,6.6-6.9,10-1.9-1.7-3.4-3-5-4.4,1.4-2.6,2.9-5.1,4.3-7.7,0,0,0,0,0,0Z" fill="#e5e1d3"/>
        <path d="M985,608.1c-2.4-1.7-4.2-3.1-6.4-4.7,1.5-2.1,2.9-4,4.6-6.4,2.2,1.6,4.1,3,6.3,4.5-1.5,2.3-2.9,4.3-4.4,6.6Z" fill="#f8f7e9"/>
      </g>
    </g>
  </g>
</svg>