<?xml version="1.0" encoding="UTF-8"?>
<svg xmlns="http://www.w3.org/2000/svg" version="1.1" viewBox="0 0 1920 1080">
  <!-- Generator: Adobe Illustrator 28.7.8, SVG Export Plug-In . SVG Version: 1.2.0 Build 200)  -->
  <g>
    <g id="_Слой_1" data-name="Слой_1">
      <g>
        <path d="M1281.3,226c18.8,0,37.5,0,56.2,0v627.7c-82.5,0-165,0-247.5,0,4-17,4.8-33.1-7.5-47-10.2-11.5-25.7-16.1-35.9-27.4-10.3-11.5-9.3-27.1-3.2-40.5,6.7-14.8,23.3-20.4,30.3-35,.2,0,.4,0,.6,0,9.6,12.2,17.8,26.1,28.7,37.1,1-3-3.1-6.5-4.8-8.9-2.4-3.2-4.8-6.5-7.2-9.7-5-6.7-10-13.4-15-20.1,0-.7,0-1.4,0-2.1,7.1-12.9,12.9-24.6,28-29.2,13.4-4.1,26.9-2.4,36.5-14.5,7.6-9.6,12.2-26,10.8-38.2-1.4-12.8-11-17.9-22.4-12.2-12.7,6.3-21.5,18.4-33.7,25.4-4.8,2.8-10.6,4.7-15.7,1.6-5.1-3.1-6.7-8.8-9.1-13.8-5.6-11.4-15.1-17.6-26.1-23.2-13.3-6.8-27.1-13.3-40.1-20.8-11.5-6.7-17.6-16.8-22.8-28.7-6.1-13.8-12.1-27.7-18.2-41.5,23.5-20.6,47-41.3,70.6-61.9,82.7-72.1,165.3-144.4,247.5-217.1ZM1247,429.9c11,9.9,21.5,19.3,32.3,29,1.2-1.8,2.2-3.2,3.2-4.8-8.4-7.6-16.5-14.9-24.5-22.2-1,.4-1.7.7-2.5,1-2-1.8-3.8-3.5-6.1-5.7-.8.9-1.4,1.6-2.4,2.7ZM1060.8,452.8c-3.1-2.3-5.7-4.2-8.6-6.3-.7.6-1.4,1.2-2.4,2,2.9,3.1,5.9,5.7,8.1,8.9,2.2,3.1,3.6,6.7,5.5,10.4q2.2-2.9-2.6-15.1Z" fill="#bedc88"/>
        <path d="M767.5,853.8h-184.5c0-151.7,0-303.5,0-455.2.4.3.9.5,1.2.9,14.3,14.5,28.5,29,42.8,43.5,10.8,11,21.7,21.9,32.6,33-1.2,2.2-2.5,4.8-3.9,7.5-.5.7-1,1.5-1.5,2.2-1.4,1.7-2.8,3.4-4.2,5h-4.7c1.3,1.5,2,2.4,2.7,3.1-2.1,3.5-4.2,6.7-6,10.1-3.4,6.6-4.9,13.7-6.3,20.9-2.6,13.6-6.7,27-5.5,41.1-4.5,7.1-2.1,17.2,1.6,24,2,2.5,4,5,6,7.5-.8,1.3,3.6,4.5,4.7,5.7,1.8,1.8,3.9,5.3,6.6,4.8l1.5,1.5c.2.6.2,1.3.6,1.7,3.3,3,6.6,5.9,9.9,8.8,0,0,0,0,0,0,3.4,3.5,6.8,7.1,10.2,10.5.3.3,1.2,0,1.8,0,7,4.2,12.2,8.6,19.6,2.7,6.3-5,12.4-10.3,18.7-15.4,2.5,0,10-7.4,8.3-10.5,2.2-3.5,4.5-7,6.7-10.5,3.3-1.6,4.9-7.5,6.5-10.7,2-3.9,5.1-8.1,4.8-12.5.7-1.5,1.5-3,2.2-4.5.7.6,3.2-10.4,3.3-12.1.4-5.7-.9-11.5-1.6-17.1.2,0,.4,0,.7-.1.9-1.5,1.9-2.9,2.8-4.4,1.4-2.3,2.9-4.5,4.5-7.1,2.7,1.2,5.1,2.3,7.5,3.3-.7,24.7-1.5,49.3-2.3,74-.8,23.8-2.1,47.7-2.1,71.5,9.4.6,19.1,2,28.5.8.9.1,1.9.2,3.3.4-1.6,29.6-2.1,59.1-3,88.7-.5,14.8,0,29.4-2.5,44.1-2.6,14.6-7.3,28.8-11.2,43ZM613.6,645.2c9.6-7.8,19-15.3,28.4-23-1.1-1.8-2.3-3.4-3.6-5.1-9.7,7.8-19.2,15.5-28.7,23.2,1.4,1.7,2.4,2.9,3.9,4.8ZM661.7,639.5c-10.1,8.2-19.7,16-29.6,24,1.2,1.6,2.1,3,3.4,4.8,10.1-8.1,19.8-15.9,29.7-24-1.2-1.7-2.2-3-3.4-4.8ZM669.9,655.2c-6.1,4.9-11.6,9.4-17.5,14.1,1.4,1.7,2.6,3.1,4,4.8,5.9-4.8,11.4-9.3,17.1-14-1.4-1.9-2.3-3.2-3.6-5ZM715.4,640.7c-1.3-1-2.3-1.7-3.4-2.5-1.8,1.9-3.3,3.5-5,5.3,1.1,1.1,2,1.9,3,2.8,1.8-1.9,3.4-3.5,5.4-5.6ZM665.2,698.4c-1.3-1.4-2.3-2.7-3.9-4.5-1.4,1.2-2.4,2-3.4,2.8,1.5,2,2.3,3,3.3,4.3,1.3-.8,2.4-1.5,4-2.6ZM684.2,654.3c1.7-1.6,2.8-2.6,3.7-3.5-1-1.4-1.7-2.5-2.5-3.7-1.6,1.1-2.5,1.7-3.8,2.6.8,1.5,1.5,2.7,2.6,4.6ZM719.7,637.1c-1.1-1.3-1.8-2.2-2.9-3.5-1,.9-1.9,1.7-2.9,2.6,1,1.3,1.8,2.3,2.7,3.5,1.2-1,1.9-1.7,3-2.6ZM620.3,464c.4-.4.8-.7,1.2-1.1-1-1.2-1.9-2.5-3.2-4.1-.8,1.1-1.2,1.6-1.7,2.4,1.4,1,2.5,1.9,3.7,2.8ZM740.5,587.6c-1.5,1.8-2,3.2.3,4.4.7-.8,1.3-1.5,2.1-2.4-1-.8-1.7-1.4-2.4-2ZM717.4,615.8c-.3,0-.7,0-1,0-.5,1.1-2.1,3.8.5,3.8,2.6,0,1-2.7.5-3.8Z" fill="#f9f7e8"/>
        <path d="M1073.6,703.8c-7,14.6-23.6,20.3-30.3,35-6.1,13.4-7.1,29,3.2,40.5,10.2,11.3,25.7,16,35.9,27.4,12.3,13.9,11.5,30,7.5,47h-317.2c6.9-25,13.6-49.6,14.1-75.7.2-13.3.5-26.6.7-39.9.1-6.4.2-12.8.5-19.3,0-3,.2-6,.3-9,0-2.5-.4-6.5.6-8.7.6-.2,1.3-.5,2.1-.8-.9-.4-1.7-.8-2.1-.9v-36.1c-.1,0-.3,0-.4,0v3.7c-1,0-2,0-2.9,0,.6-2.1,1.1-4.2,1.7-6.3.1,0,.2,0,.4.1.2-1.8.4-3.6.6-5.3,1.6-.4,2.7-.6,4.1-1,0-1.1-.2-2-.2-2.9-1.5-.4-2.7-.7-3.5-.9,0-6.9-.3-13.6-.7-20.5,17.8,2.6,35.5,5.8,53.2,9,7,1.1,13.9,2.2,20.9,3.4,4.6.8,9.2,1.5,13.8,2.3,3.7,13.3,7.5,26.3,10.8,39.4,1.3,5.3,4.3,10.4,2.6,16.3,0,.2.4.6.6.9-.8,2.3-1.5,4.7-2.3,7-2,5.9-3.9,11.8-5.9,17.8-1.1-.9-3.7,13.3-3.9,14.8-1.1,6.3-2.1,12.6-3.2,19-2.1,12.6-3.8,25.2-6.1,37.8-1.7,9.2,0,18.1,9.4,22.3,4.8,2.1,10.5,2.4,15.6,3.2,6.3,1,12.6,1.9,19,2.8,8,1.6,16.1,2.9,24.2,4.3,7.5,1.3,15.7,3.7,23.3,2.8,7.9-.9,15.4-3.7,23.3-4.9,3.1-.5,6.2-.7,9.3,0,2.5.6,5.5,3.8,7.7,2.9.7,1,1.5,2,2.2,3-.3,3,1.9,6.2,5.7,7.4-.6-4.8-3.1-7.9-5.7-11.9-4.7-3-8.5-6-14.4-5.8-6,.1-12.4,2.2-18.3,3.4-.4-1.8-.9-3.4-1.4-5.5-2.3,1-4,1.6-5.7,2.4.2,1.7.3,3,.5,4.4-9.1,2.1-19.3-1-28.5-2.4-10-1.6-19.9-3.3-29.9-4.9-5.1-.8-10.2-1.7-15.4-2.5-4.3-.7-8.9-1-12.5-3.5-6.6-4.6-5.1-11.6-5.6-18.5.2-1.4.5-2.9.8-4.3.7-3.6,1.5-7.1,2.2-10.7.1.3.3.6.5,1.1,1.6-9.2,3.2-18.4,4.8-27.5,1.4-8.6,4.8-18.9,3.8-27.5,1.2-3.5,2.5-7,3.7-10.5.9.7,2.6-5.9,2.9-7.1,1.2-3.7,2.4-7.4,3.6-11.1,6.3,1.1,12.5,2.1,18.3,3.1v7.6c0,5.6-.5,11.2,2.8,16.1,3.4,5.1,9.7,7.4,15,10.1-1.2,7.1-2.3,13.9-3.4,21.3,32.4,5.4,64.7,10.8,97.2,16.3,4.1-14.5,5.4-30.2,7.8-45,.3-1.3.5-2.7.8-4,1.5-8.7,3-17.3,4.5-26,0-.5,0-1,0-1.5,6.3,0,12.8,1.7,19,2.8,6.3,1.1,12.5,2.3,18.6,4ZM868,658.8c.9-2.5-.7-3.6-2.6-4.6-3.9,1.7-7.3,3.7-11.8,3.6-4.8-.1-10-1.5-14.8-2.2,3.9,2.4,8.6,1.3,12.4,3.6l-.2.8c-4.9-.7-9.7-1.4-14.6-2.1,0,.2,0,.4-.1.6,2.2.7,4.5,1.3,6.7,2,0,.3,0,.5-.1.8-.7.1-1.3.3-2,.4h-3.4c-.7,1.6-1.4,3-1.7,3.8,1.6,1.8,2.8,3,4.5,4.8,6.4,1.1,13.5,2.3,20.7,3.5-.4,3-.8,5.5-1.1,8.3,1.5.5,2.9.9,5,1.5,1.1-8.7,2.1-16.8,3.2-24.9ZM948.5,792.3c1.9,3.5,3.8,6.9,5.3,10.6,1.2,2.9,2,5.3,4.5,7.3,4.5,3.7,10.7,4.1,15.7,1.2,3.6-2.1,6.1-4.8,10.4-5.5,3.7-.6,7.2.3,10.8-1.4,3.4-1.6,5.8-4.7,8.9-6.7,3.2-2.1,6.3-4.3,9.4-6.6-1.2-5.8-5.2-5.6-8.8-5.8-6.6-7-18.3,2.5-26,3.4-5.3.7-10.5,1.4-15.8,2.2-4.9.7-9.7.3-14.5,1.3ZM899.4,721.2c3.1.5,5.9,1,8.9,1.5.8-4.7,1.4-8.8,2.2-13.3-2.9-.5-5.5-.9-8.7-1.4-.8,4.4-1.5,8.3-2.4,13.1ZM964,835c2.1,4.9,4,9.6,6.2,14.7,2-.8,3.5-1.4,5.7-2.3-2.2-5.2-4.2-10-6.4-15.1-2.1,1-3.6,1.7-5.5,2.7ZM889,736.6c5.5.9,10.7,1.8,16.2,2.7.5-2,.9-3.5,1.4-5.5-5.8-1-11.2-1.9-17.1-2.9-.2,2.1-.3,3.7-.4,5.7ZM905.3,744.9c4.8.8,9,1.6,13.5,2.4.4-1.5.7-2.7,1.2-4.4-4.8-.8-9.1-1.6-13.9-2.4-.3,1.5-.5,2.6-.8,4.4ZM1014.2,832.9c-1.3-2.9-2.4-5.3-3.6-8-2.1.8-3.7,1.5-5.8,2.4,1.2,2.9,2.2,5.5,3.4,8.5,2.2-1.1,4-2,6-2.9ZM800.8,643.7c-.4,2.3-.7,4.2-1.1,6.5,3.3.4,5.8.7,8.8,1.1v-6.5c-2.6-.4-5-.7-7.7-1.1ZM1011.7,848.1c3.3-1.5,6.3-2.8,9.5-4.2-.9-1.7-1.6-3-2.3-4.4-3.4,1.6-6.4,2.9-9.7,4.5,1,1.7,1.6,2.8,2.4,4.2ZM827.2,651.9c2,.3,3.5.5,5.1.7.5-2.7.9-4.7,1.3-7-1.7-.5-3.2-.8-5.1-1.4-.4,2.6-.8,4.9-1.3,7.7ZM822.8,643.8v-5.3c-2.2-.3-4.4-.5-6.9-.8v5.1c2.2.3,4.3.6,6.9,1ZM1065.3,802.9c1.3,3,2.4,5.9,3.8,9.3,1.4-.9,2.2-1.5,3.2-2.1-1.3-3.1-2.6-5.9-3.8-8.8-1.2.6-2,1.1-3.2,1.7ZM820.3,710.9c-1.9-.5-3.2-.8-5-1.3-.2,1.5-.3,2.5-.5,3.6,1.6.4,2.9.8,4.4,1.2.4-1.2.7-2.1,1.1-3.5ZM829.2,642.7h3.5c0-1-.1-1.6-.2-2.6-1.2,0-2.2.1-3.3.2v2.4Z" fill="#f9f7e8"/>
        <path d="M583,391.8c0-49.3,0-98.5,0-147.8,3.7-6,7.5-12,11.3-18,32.2,0,64.5,0,96.8,0,4.7,10.5,8.9,21.2,15.1,30.9,5,7.8,11.9,17.3,20.8,21,10.1,4.3,17.8-2.1,23.2-10.3,6.1-9.3,11-20,12.3-31.2,2.7,1.2,5.5,2.5,8.2,3.7-.7.9,4.7,2.9,5.6,3.3-1.8,2.6-4.9,5.5-4.9,8.7-3,4.8-6,9.5-8.9,14.3-4-1-1.2,24.8-.8,27.8-3.5,1.2-6.5,2.6-9.7,4.5-.4.2-.8.6-1.2.7-10.1,4-20.2,8-30.3,11.9-.6-.8-1.2-1.5-1.8-2.3,5-4.9,10.1-9.9,15.4-15.1-1.6-1.6-3.4-3.4-4.5-4.6-5.8,5.5-11.1,10.6-16.7,15.8,1.6,1.8,3.1,3.5,4.7,5.4-1.2.9-2.1,1.6-3.1,2.4-4.5,2-9,4-13.5,5.9-4.6-.7-10.2,2.7-14.6,4.4-4.7,1.8-9.5,2.8-12.4,6.9-.5.5-1,1-1.5,1.5-1.2-1-1.7,2.7-1.8,3.4-.2,2,.3,4,1.3,5.8,2.6,4.6,7.4,8.6,10.9,12.6,3.9,7.7,6.6,16,9.7,24.1,1.5,3.9,2.9,7.9,4.5,11.8.7,1.7,1.3,6.2,3.9,6.1,1.2,1.5,2.5,3,3.7,4.5.3.6.4,1.6.9,1.9,2,1,4.1,1.9,6.2,2.6,6.2,1.8,12.4,3.5,18.6,5.3,14.7,4.2,29.3,8.5,43.5,12.7,7.1-1.2,13-.1,18,5.3-.4,4.3,0,8.8-1.3,12.9-3,10.3-.8,20.5-.5,30.7-1.2,2-2.5,4-3.7,6-2.9,1.4-4.4,5.8-5.9,8.5-2,3.5-4,7-6,10.5-3.7,6.6-10.5,14.7-11.4,22.2-1.2,2-2.5,4-3.7,6-.8.4-1.7.8-2.6,1.2-16.9-7.6-33.5-15.7-49.6-25-14.9-8.7-30.6-16.8-43.3-28.7-14.1-13.2-27.5-27.3-41.2-41-13.1-13.1-25.7-27-39.6-39.3ZM710.2,427c2.3.6,4.1,1.1,6.3,1.7.5-1.8.8-3.3,1.3-5.1-2.3-.6-4.1-1.1-6-1.6-.6,1.8-.9,3-1.6,5ZM663.8,341.8c-.4-3.3-3.1-4.6-7-3.5.3,2.9,2.5,4,7,3.5ZM619.2,232.6v4c1,.2,1.9.4,3.1.7.4-1.4.8-2.5,1.2-4.1-1.5-.2-2.6-.4-4.3-.7Z" fill="#f9f7e8"/>
        <path d="M770.5,240.2c-2.7-1.2-5.5-2.5-8.2-3.7-1.8-.8-3.7-1.6-5.5-2.4-5.7-2.7-11.4-5.4-17.1-8.1,2,0,4,0,6,0,1.2.7,2.3,1.5,3.5,2.1,4.1,1.9,8.2,3.7,12.3,5.5,2.5,1.3,5.1,2.5,7.5,3.7v-11.3c.8,0,1.5,0,2.2,0-.7,3.6-1.6,7.3.5,10.6,2.2,3.4,6.7,4.5,10.2,5.9,10.4,4.1,20.7,8.2,31.2,12,6.9,3.4,14.2,6.1,21.4,8.9.9-4.6,1.8-8.6,2.6-12.7,1-3.7,2.1-7.3,2.9-11,1-4.5,3.3-8.9,1.6-13.7h2.2c.7,6.3-1.7,12-3,18-1.6,6.7-3.1,13.4-4.7,20.2,8,3.2,15.5,6.1,23.6,9.3-.4-6.9-1.3-13.9-1.3-20.8,0-7.4,2.7-13.9,4.9-20.8,1-2,2-4,3-6,.5,0,1,0,1.5,0-.7,1.8-1.5,3.5-2.2,5.3-2.9,7.2-5.2,13.7-5.2,21.5,0,7.2.8,14.2,2.2,21.2h0c.3.4.5.9.9,1.1,5.4,2.2,10.8,4.3,16.6,6.6,2-3.4,3.9-6.7,5.8-10,3.2-5.3,6.5-10.5,9.7-15.8,1.9-3.5,4.6-6.8,5.5-10.5,1.5-6.3,1.9-13,2.8-19.4.8,0,1.5,0,2.2,0-.8,6.5-1.7,12.9-2.6,19.9,3.3,1.3,6.7,2.7,10.1,4.1,9,4.5,18,8.9,27,13.3.4.2,1,0,1.5.1h0c5.6,4.5,13.5,7.4,20.2,9.8,6,3,12,6,18,9-.7.2-1.5.5-2.2.7-11.4-4-21.5-11.2-32.9-15-1.1-.7-2.3-1.4-3.4-2-.5.4-.9.5-1.1.8-7.6,11.4-15.1,22.8-22.6,34.2-6.9,8.9-11.6,20.4-19.5,28.4-.2-.2-.4-.4-.6-.6,5-8,9.9-16,14.9-23.9.4-.3.8-.6,1.1-1,8-12,16-24,24-36,.6-.9.9-1.9,1.5-3.4-3.1-1.2-5.9-2.2-8.6-3.2-9.1-5.1-18.6-9.4-28-14-10.5,16.5-20.1,33.5-30.2,50.3-9.9,16.4-18.7,33.3-25,51.5-.8,3.1-1.7,6.2-2.2,9.4-1.8,10,.5,20.4-2.3,30.4h0c-1.1,2.9-2.3,5.7-3.4,8.6.2.1.4.2.5.3,1.2-1,2.4-2,3.6-2.9,6.5-5.7,13-11.5,19.5-17.2,3.4-3.8,6.4-7.9,9.8-11.6,3.7-4.1,8.5-7.4,12.7-10.9.9-.6,1.7-1.2,2.6-1.8.2.2.4.4.6.6-4.3,4-9.2,7.6-13.3,11.7-4,4-6.7,9.1-10.9,13-9.6,9.1-19.6,17.6-29.2,26.8-.2.9-.5,1.7-.8,2.8,19.5,3,37.7,8.4,54.7,17.5,9.2,7.1,17.4,14.9,21.7,27.1,3.1-4.9,5.5-9.8,10-13.5,5.5-4.5,11-8.9,16.4-13.6,4.7-4.2,9.7-8.1,13.3-13.4,3.2-4.8,6-11,10.6-14.5.2.2.4.4.6.6-1.7,2.6-3.4,5.1-5,7.7-3.2,4.6-6.4,9.3-10.3,13.4-3.8,4-8.4,7.4-12.6,11-7.2,6.3-15.7,11.5-19.7,20.5-2.4,3.4-1.1,6.7,0,10.2,1.3,3.9,1.6,7.9,2.5,11.9,1.9,8.9,6.5,16,11,23.7,2.5,4.5,5,9,7.5,13.5-.1.4-.2.8-.3,1.2-.5-.2-.8-.3-1.2-.4-5.1-8.6-10.7-17.1-14.9-26.2-4-8.7-5.2-18.2-7.4-27.4-.3,0-.7,0-1,0-.7,1.4-1.5,2.8-2.2,4.2-3.2,5.3-6.5,10.5-9.7,15.8-3,5.1-6,10.2-9,15.3-2.8,4.7-5.5,9.3-8.3,13.9-2,3.3-4,6.5-5.9,9.8-5.8,9.7-11.5,19.5-17.3,29.2-2.5,4.8-5.3,9.4-7.5,14.3-2.1,4.6-3.5,9.5-5.2,14.2-5.9,19.8-11.3,39.7-14.1,60.5,15,2.6,29.8,5.1,45.1,7.7,1.6-4.7,2.8-10.2,5.4-14.4,2.3-3.8,6.3-5.3,10.1-7.2,2.8-1.5,5.7-3,8.5-4.6,5.5-3.2,10.9-6.4,16.3-9.6,3-3.7,6.3-7.3,8.9-11.3,3.2-5,5.6-10.5,8.4-15.7,4.7-6.3,9.5-12.5,14.2-18.8,4.8-6.6,5.7-14.2,5.1-21.9-.3-3.7.5-7.8-2.1-11.1-2.5-3-5-6-7.5-9-1.8-2.2-3.5-4.5-5.3-6.7,3.4,1,4.8,3.3,7.1,6,6-5.1,11.9-10.3,17.6-15.8,19.3-17,38.6-34,57.9-51,34.5-30.4,69.2-60.7,103.8-91,34-29.7,69-58.6,101.9-89.5-10,.5-19.9.5-29.9.5-5.4,0-7,.6-11.1,3.8-4.2,3.3-9,3.2-14.1,3.8-5,0-10-.6-14.9.1-7.5,1.2-14.2.6-20.4-4-4.2-3.4-8.7-6.3-14.9-6.8-3.7,4.6-7.5,9.4-11.4,14.3-2.2,2.8-4.5,5.5-6.7,8.3-7.2,9-14.3,18-21.5,27-3.3,4.2-9.1,5.5-14.1,3.2-5.3-2.5-10.5-5-15.8-7.5-2.4-1.1-4.7-2.1-7.1-3.2-4.7-2.5-9.4-5.1-14.2-7.3-2.9-1.4-6-2.2-9.1-3.2-6.2-2.8-14-3.3-20.6-5.2-6.1-1.8-12.6-3.5-17.7-7.5,15.9,4.1,31.6,9.3,47.3,14.2,4.8,2.2,9.6,4.5,14.6,6.8.4-.5.8-1,1.1-1.5.4-5-.2-9.8-2.9-14.3-2.1-3.5-2.6-7.7-2.3-11.9,0,0,0,0,0,0,2.9-3.2,5.7-6.5,8.6-9.7,2.1-2.3,4.3-4.5,6.4-6.8,0,0,0,0,0,0,3.5-3.3,7-6.5,10.5-9.8,0-.2,0-.5,0-.7,6.8-3.3,9.9-10.3,17.9-11.4,6.8,4.5,14.3,9.5,21.8,14.4,1.8,1.2,3.5,2.5,5.3,3.7,5.3,4.2,11.3,7.1,18,8.3,3.2,2.2,6.2,4.6,9.5,6.5,2.1,1.2,4.6,2.3,6.9,2.3,10.5,0,20.9-.4,31.4-.7.6,0,1.1-.4,1.7-.7,4.1-1,5.8-4.1,9.2-6.2,3.4-2,7.7-1.3,11.4-1.3,10,0,19.9,0,29.9,0,16-13.9,32-27.8,47.7-42,1.3,0,2.5,0,3.8,0-82.2,72.7-164.8,144.9-247.5,217.1-23.6,20.6-47,41.3-70.6,61.9-.7.5-1.5,1-2.2,1.5-4.8,4.2-9.6,8.3-14.6,12.6,3.7,4.4,6.9,8.3,10.1,12.1,5.2,5.8,10.5,11.5,15.7,17.3,10.5,11.6,20.7,23.3,30.7,35.2,3.4,3.9,7.7,7.9,10.1,12.5,2.6,4.9,1.9,9.7,1.1,15-1.9,12.1-4.1,24.2-5.9,36.3-2.3,2.6-2.1,10.5-2.6,13.9-.8,5.2-1.6,10.4-2.5,15.6,13.7,2.7,27.6,4.8,41.4,7.1,5.9,1,12.6,1.3,17.9,4,5.7,2.9,9.4,9.3,13.4,14.1,5,6.7,10,13.4,15,20.1,2.4,3.2,4.8,6.5,7.2,9.7,1.8,2.4,5.8,6,4.8,8.9-10.9-11-19.1-25-28.7-37.1-3.4-6.3-7.4-12-14.2-15.1-2.3-.4-4.6-.8-6.9-1.2-5.7-.9-11.4-1.8-17.1-2.6-4.8-1-9.5-1.9-14.3-2.9-6.2-.9-12.4-1.8-18.6-2.7-2.8,4.2-2.6,12.8-3.4,17.9-.9,5.5-1.8,11.1-2.8,16.6-2,11.9-4,23.8-5.9,35.7-.4,1.2-.8,2.4-1.3,3.6-.4-.1-.8-.2-1.2-.4.6-4.3,1.1-8.6,1.7-12.9.7-3.5,1.5-7,2.2-10.5.3-2.5.5-5,.8-7.5.5-2.1,1-4.2,1.6-6.6-14.8-2.6-29.6-5.1-44.4-7.6-19.4-3-38.7-6.6-58.2-9.3-2,6.7-3.8,12.9-5.6,19-1.2,3.5-2.5,7-3.7,10.5-3.8,17.8-6.3,36-9,54-.7,3.6-1.5,7.1-2.2,10.7-.3,1.4-.5,2.9-.8,4.3-1.4,11.8.3,19.5,13,22.2,13.4,2.8,27.2,4.5,40.7,6.7,13.6,2.3,27.7,6.2,41.4,3.6,6.7-1.3,13.7-3.8,20.5-4.4,6.1-.5,10.7,2.6,15.7,5.7,1.5,3,3.1,6,4.6,9-.3.2-.7.4-1,.5-1.2-2-2.4-3.9-3.6-5.9-.7-1-1.5-2-2.2-3-12-9.9-28.1,0-41.5.7-7.6.4-15.2-1.6-22.7-2.7-7.6-1.1-15.2-2.5-22.8-4-6.1-.2-12.3-1.8-18.3-2.8-5.4-.9-11.1-1.6-16.2-3.6-10.4-3.9-10.5-12.2-9-21.9,3.6-23.6,8.1-47.2,12.1-70.7,2-5.9,4-11.8,5.9-17.8.8-2.3,1.5-4.7,2.3-7,2.6-8.8-3-20-5.4-28.5-2.7-9.6-5.3-19.2-7.9-28.9-11.8-2.1-23.6-4-35.5-5.7-17.6-3.8-35.5-6.3-53.2-9-.1-.5-.2-1.1-.5-2.3,14.3,2.4,28.1,4.6,42.1,6.9,2.4-14.2,6-28.2,9.3-42.2,0-.6,0-1.3.3-1.8,3.2-10.1,6.4-20.3,9.6-30.4,7.5-17.3,19-33.4,28.6-49.5,10.2-17,20.7-33.7,30.6-50.9,7.5-13-13.4-29.2-23.5-34.6-15.6-8.3-33.6-12.3-50.8-15-27.1,38.1-52,76.9-73.5,118,3.9,2.5,7.6,4.9,11.4,7.3,1.4,1.3,2.9,2.4,4.1,3.8,8.1,9.5,11.4,21.1,14,33l1.4,11.5c.3,0,.6,0,.8,0,.7-1.1,1.5-2.2,2.2-3.3.5-.9,1-1.7,1.5-2.6,6-10.1,12-20.3,18.1-30.4,12-19.7,23.7-39.5,35.6-59.3,6.1-10.1,12.3-20.1,18.4-30.1,3.1-5,6.2-10,9.3-15,2.3-3.9,4-8.5,7.2-11.7.3.3.6.6.9.8-8.3,13.7-16.6,27.3-25,41-.5.9-1,1.7-1.5,2.6-6.8,11.4-13.5,22.8-20.3,34.2-1.8,2.9-3.7,5.9-5.5,8.8-7.7,12.8-15.3,25.6-23,38.4-6,10-12,20.1-18.3,30.7-.2,8.4-.3,17.3-.5,26.3-.5,2.4-1,4.7-1.6,7.1-.2,0-.5,0-.7,0-.5-.8-1-1.7-1.4-2.5.3-24.2,3.7-50.2-9.8-72-6.1-11.2-17.4-14.8-28.4-19.7-1.6,3-3.1,5.7-4.6,8.4-1,1.2-2,2.4-3,3.6,0,5.5,0,10.7.7,16.1.7,5-.9,9.3-2.2,14-.7,1.5-1.5,3-2.2,4.5-3.8,7.7-7.5,15.5-11.3,23.2-2.2,3.5-4.5,7-6.7,10.5-2.2,4-4.3,7.9-8.3,10.5-6.2,5.1-12.4,10.4-18.7,15.4-7.4,5.9-12.5,1.5-19.6-2.7-2.6-2.4-5.1-4.9-7.7-7.3-1.3-1.2-2.8-2.2-4.3-3.2,0,0,0,0,0,0-3.5-3.5-7-7-10.5-10.5-.5-.5-1-1-1.5-1.5-3.7-3.5-7.5-7-11.2-10.5-2-2.5-4-5-6-7.5-2.8-7.9-4-15.9-.8-24,0-4.7-.4-9.5.3-14.2,1.3-8.3,3.7-16.4,4.9-24.7,2.1-14,7.7-26.3,16.1-37.5.9-1.2,1.3-2.6,2-3.9.5-.7,1-1.5,1.5-2.2,1.9-2.6,3.8-5.3,5.6-7.7-12.9-12.9-25.5-26.1-38.4-39-13.2-13.2-25.9-27.3-40-39.6,0-1.3,0-2.5,0-3.8,14.4,12.6,27.4,27.1,40.9,40.6,13,13,25.8,26.4,39.4,38.8,13.1,12.1,28.8,20.7,44.2,29.5,8,4.6,16.1,9,24.4,13.1,8.1,4.1,17,9.4,25.9,11.5.5-.9,1-1.6,1.5-2.3,1.2-2,2.5-4,3.7-6,.1-.2.2-.5.3-.7,7.7-13.5,15.3-27,23-40.6,1.2-2,2.5-4,3.7-6,.9-7.3-.7-14.5.1-21.9.8-7.2,4.4-16.1,1.6-23.2-4.3-5.2-11.7-5-17.8-5.6-7.7-.8-15.3-3.5-22.7-5.6-15.8-4.5-31.5-8.8-46.7-15-1.2-1.5-2.5-3-3.7-4.5-6.8-13.5-10.6-28.4-17.3-42-2.7-3.3-5.2-7-8.3-9.9-3.6-3.5-4.7-7.2-3-11.8.5-.5,1-1,1.5-1.5,1-.7,1.9-1.7,3-2.2,8-3.1,16-6.1,24-9.1,4.5-2,9-4,13.5-5.9,2-.5,4-1.1,6-1.6,10.1-4,20.2-8,30.3-11.9.4-.2.8-.5,1.2-.7,3.4-1.2,6.9-2.5,10.6-3.8-.8-9.6-2.6-19,0-28.5,3-4.8,6-9.5,8.9-14.3,2.1-3,4.2-6.1,6.6-9.7-3-1-5.2-1.7-7.3-2.4ZM650.5,606.3c2.5,2.6,4.9,5.2,7.4,7.7,1.4,1.3,3,2.4,4.5,3.6,4.3,4,8.5,8,12.8,12,3.3,2.2,6.9,5.7,11.2,5.1,3.7-.5,7.1-4.4,9.8-6.7,3.2-2.5,6.4-5,9.4-7.6,3.2-2.8,6.2-5.9,9.3-8.9,2.5-4.1,5.3-8.2,7.5-12.5,4.9-9.5,9.5-19.2,14.3-28.8,1.2-3.8,2.5-7.5,3.7-11.3-.6-4.4-1.2-8.8-1.7-12.8-6.5-1.1-12.9-2.1-19.2-3.7-1.5-.5-2.9-1-4.4-1.4-6-3.2-11.9-4.6-18.8-2.5-12,3.7-24.4,5.3-37.1,4.7-4.1-.2-7.5,1.5-10.2,4.5-.5.5-1,1-1.5,1.5-4,4.2-8.1,8.3-12.1,12.6-.6.7-1,1.6-1.4,2.5h0c-6.5,7.2-3.3,25.6,4.5,30.8,2.3,2.4,4.5,4.9,6.9,7.2,1.6,1.5,3.4,2.7,5.1,4.1ZM703.7,319.7c-2.2.8-4.4,1.4-6.6,2.3-5.3,2.2-10.6,4.4-15.9,6.7-4.6.3-7.3,2.7-8.3,8.2,3.7,5.1,8.3,9.4,11.7,14.6,3.6,5.3,5.4,11.9,7.9,17.8.5,6.2,4.7,13.2,7,18.9,1.8,4.5,3.4,10.4,8.7,11.8,1.5.6,2.9,1.3,4.4,1.8,6.3,1.9,12.6,3.8,18.9,5.7,2.8.8,5.7,1.5,8.5,2.3,6.4,1.7,12.8,3.5,19.2,5.3,8.6,5,19.9,3.7,29.2,6,7.4,4.8,6.2,11.2,5,18.9-1.4,8.8-3.2,17.1,0,25.7,4.7-7.1,9.3-14.2,13.9-21.4h0c.8-.9,1.8-1.7,2.5-2.7,4.5-6.6,8.9-13.2,13.3-19.8,1.7-2.5,3.5-5,5.2-7.5,1-1.8,2-3.6,3.1-5.5-11.4-6-23-11.6-34.5-17.3-11.4-5.7-22.7-12.4-34.6-17-4.9-2.6-10.4-4.9-15-8-4.1-2.8-5.9-7.3-8.2-11.5-4.5-8.8-9-17.6-13.6-26.3-.6-1.1-1.4-2-2.1-2.9-1.8-3.8-3.5-7.5-5.5-11.7-5,2.1-9.5,3.9-14.1,5.8ZM733,339.3c4.2,8,8.5,16,12.7,24,1.8,1.2,3.5,2.5,5.3,3.7,14,6.5,27.7,13.5,41.4,20.4,13.3,6.6,26.5,14.3,40.4,19.7.9-1.6,1.6-2.8,2.2-4,.5-.8,1-1.5,1.4-2.3,1.8-7.1,5.4-13.1,6-20.7.5-7,.7-14.4.7-21.5,0-8.3-1-16.7-1.6-25-.4-5.8.7-13.4-5.9-16.1-5.7-1-11.4-2.1-17.1-3.1-10.8-1.8-21.4-4-30.9-9.8-1-.7-2-1.5-3-2.2-9.7-7.9-19.8-7-30.7-2.5-11.5,4.8-23.3,9-34.9,13.6,2.5,4.3,4.8,8.2,7.1,12.1,2.3,4.5,4.5,9,6.8,13.5ZM1048.1,297.2c1.3,3.9.9,7.7-.8,11.7,6.6,3.2,13.1,6.2,19.6,9.4,3.7,1.9,7.4,1.7,11.2.6,4-4.7,8-9.5,12-14.2,9.9-12.4,19.8-24.7,30.2-37.6-11.8-7.9-23.3-15.6-35.3-23.6-1.9.5-4.5.5-6,1.7-4,3.3-7.6,7.1-11.4,10.7-2.9,2.6-5.8,5.1-8.6,7.7-4.4,4.2-8.8,8.4-13.1,12.6-2.7,3.5-3.3,7.3-1.6,11.4,1.3,3.2,2.6,6.4,3.9,9.5ZM838.7,300.3h0c5,16.5,4.7,33.9,6.1,51,.2,0,.4,0,.6,0,.5-2.3,1-4.5,1.6-6.8.4-.7,1-1.4,1.3-2.2,2.3-5.3,4.6-10.6,6.9-15.9,1.4-4.1,3.4-7.6,3.8-12.1.3-4.5,0-9,0-13.5,0-3.9,3.1-25.6-1.6-26.1-5.3-2.2-10.5-4.5-15.8-6.7-1.8-.5-3.5-1-5.4-1.5-.2.7-.5,1.2-.5,1.6,0,8.1-.3,16.2,0,24.3.1,2.7,1.9,5.2,2.9,7.9ZM833.5,265.7c-7.7-5.4-18.4-8.1-27.1-11.6-9-3.6-17.9-7.3-27-10.4-1.2,1.6-2,2.8-2.9,4-2.2,3-4.5,6-6.7,9-9.3,11.2-6.8,24.4-5.2,37.7,13.4-2.2,23.1,9.7,34.9,13.8,13,4.4,27.4,5.9,40.9,8.8-.7-4.2-.9-8.6-2.4-12.7-1.5-4.1-3.3-7.4-3.7-11.8-.8-8.9,0-17.9-.8-26.8,0,0,0,0,0,0ZM1001.5,671.5s0,0,0,0c.5-1.9.9-3.7,1.5-6.1-41.6-7-82.7-14-124.5-21,4.8,17.5,9.4,34.5,14.1,51.9,5.8.8,11.6,1.5,17.4,2.3,20.3,4.4,40.9,7.5,61.5,10.5,7.6,1.4,15.1,2.7,22.7,4,.4,0,.8-.7,1.3-1.1,1.4-9,2.8-18,4.2-27,.7-4.5,1.3-9,1.9-13.5ZM868.8,301c1-1.5,2-3,2.9-4.5,2.5-4.3,4.9-8.6,7.6-13.3-5.7-2.3-11.2-4.4-17.2-6.8-.4,12.6-.7,24.3-1.1,36,.3,0,.7.1,1,.2,2.2-3.9,4.5-7.7,6.7-11.6ZM637.8,531.2c-2.8,9.6-5.2,19.3-4.3,30.2,4.2-4.2,8.2-8.2,11.9-12.9.2-.2.5-.5.7-.7,9.9-9.8,25.5-6.4,38.1-8.3,6.5-1,13.6-4.6,20.1-4.1,7.1.5,14.6,4.2,21.3,6.4,4.2,2.4,8.6,1.9,12.5,1.3,1.7-3.5,3.2-6.6,4.8-9.6,1.4-2.4,2.9-4.8,4.4-7.4-11.3-6-23-11.1-34.2-17.5-11.4-6.6-22.7-13.4-34-20.1-3.8-2.7-7.5-5.5-11.3-8.2-1.5-1.2-3-2.5-4.8-4-2.3,3.5-4.4,6.7-6.5,10-1.2,1.8-2.5,3.5-3.7,5.3-2.5,4-5,8-7.6,12-1,2.7-1.9,5.5-2.9,8.2-2.7,4.9-3,10.4-3.9,15.8-.2,1.2-.4,2.4-.7,3.7ZM949,562c-3.8,5-7.5,10-11.3,15-1.5,2.3-3,4.5-4.4,6.8-2.3,4.5-4.5,9-6.8,13.5-4,5.2-7.7,10.6-13.9,13.8-7.1,3.6-14.1,7.5-21.1,11.3-8.3,4.4-12.6,11.9-11.4,20.3,2.9.4,5.9.8,8.9,1.2,18.2,4.7,37.3,6.7,55.8,9.8,19.5,3.3,39,6.7,58.6,9.7,1.8-10.7,3.7-21.4,5.5-32.1,1-5.8,2-11.6,2.9-17.4.9-5.5,2-11,.2-16.4-.7-1-1.5-2-2.2-3-8-9.5-16-19-24-28.5-2.1-2.4-4.1-4.9-6.3-7.3-3.1-3.4-6.3-6.7-9.4-10-4.8-5.2-9.5-10.4-14.3-15.5-.3.2-.5.4-.8.5.4,8.7,1.3,17.6-3.7,25.5-.7,1-1.5,2-2.2,3Z" fill="#fdfdfd"/>
        <path d="M1066.7,253c0,.2,0,.5,0,.7-3.5,3.3-7,6.5-10.5,9.8,0,0,0,0,0,0-6.6,4.2-11.1,9.8-15,16.5,0,0,0,0,0,0-2.1,4.7-.2,9.1,1.8,13,2,4,3.2,8,2.7,12.5-1.3-.1-2.6,0-3.8-.4-3.5-1.5-7-3.2-10.5-4.8-5.6-2.1-11.1-5-16.9-6-6.3-1.1-12.6-2.3-18.6-4.6-3.7-1.4-7.5-2.5-11.2-3.9-1.1-.4-2-.7-2.1.9-.2,0-.5,0-.7,0-.2-.5-.5-1-.7-1.5,0-.4.2-.9.2-1.1-1.2-.4-2.2-.8-3.2-1.2.7-.2,1.5-.5,2.2-.7.4,0,.7-.2.9-.5-5.9-2.8-11.9-6.6-18.2-8.5-2.3-1.2-4.6-2.4-6.9-3.4-4.7-2.1-9.4-4.2-14.1-6.3,0,0,0,0,0,0-1.1-.7-2.2-1.5-3.4-2.1-8.3-4.1-16.7-8.1-25.1-12.1-3-1.4-6-2.7-9-4.1.8-6.7,1.5-13,2.2-19.2,34,0,68,0,102,0,5.1,9.3,16,13.8,25.9,10.6,11.3-3.6,22.7-7.1,34.1-10.6,15.5,0,31,0,46.5,0-1,4.7-3.7,9.6-3.8,14.4-.2,4.8,2.6,7.5,6.2,10.1,4.6,3.3,9.3,6.6,14.1,9.5,4.1,2.5,9.3,2.7,14,3.5,2.4,5.5,5.1,8.8,11.4,9.5,4.9.5,10.8-1.9,14.6,2.5h7.4c-.6.2-1.1.7-1.7.7-10.5.3-20.9.7-31.4.7-2.3,0-4.8-1.1-6.9-2.3-3.3-1.9-6.4-4.3-9.5-6.5-1.9-2.6-6.3-2.6-9.3-4-2.6-1.2-5.9-4.8-8.7-4.3-1.8-1.2-3.5-2.5-5.3-3.7-3.1-4.6-9.2-7.2-13.7-10.4-4.8-3.4-9.7-6.2-15.5-3.2-5.2-4.4-10.9-7.9-16.9-11.5-2.3,3.5-4.4,6.7-6.1,9.3,5.3,3.5,10.6,6.1,14.7,10.4-.7.8-1.5,1.5-2.2,2.3ZM983.6,259.4c-1.6-1.4-2.9-2.5-4.5-3.9,1.7-2.6,3.4-5.3,5.2-8.2-1-.8-1.9-1.4-3.3-2.5-2.7,3.7-5.1,7.2-8,11.2,2.8,2.1,5.3,3.9,8,5.9.9-.9,1.5-1.5,2.6-2.6ZM965.6,264.6c2.1,1.5,3.3,2.4,4.4,3.2,1.3-1.8,2.3-3.3,3.4-4.8-1.2-.9-2.3-1.8-4-3.1-1.3,1.5-2.4,2.9-3.8,4.6ZM1003,232.4c-.7,1.2-1,2-1.5,2.9.8.7,1.5,1.3,2.5,2.2.7-1.1,1.3-2,1.9-3.1-1-.7-1.8-1.2-3-2Z" fill="#f9f7e8"/>
        <path d="M1179.3,275.5h-7.4c-3.7-4.4-9.6-2-14.6-2.5-6.3-.7-9-3.9-11.4-9.5-4.7-.8-9.9-1-14-3.5-4.8-2.9-9.5-6.2-14.1-9.5-3.7-2.7-6.4-5.3-6.2-10.1.2-4.8,2.8-9.7,3.8-14.4,43,0,86,0,129,0,2,1.8,3.9,3.6,5.8,5.3q3.7-2.9,3.2-5.3c8,0,16,0,24,0-15.7,14.2-31.7,28.2-47.7,42-10,0-19.9,0-29.9,0-3.7,0-8.1-.8-11.4,1.3-3.4,2-5.1,5.2-9.2,6.2Z" fill="#bedc89"/>
        <path d="M739.8,226c5.7,2.7,11.4,5.4,17.1,8.1,1.8.8,3.6,1.6,5.5,2.4-1.2,11.1-6.2,21.9-12.3,31.2-5.3,8.2-13,14.6-23.2,10.3-8.9-3.7-15.8-13.2-20.8-21-6.2-9.7-10.4-20.4-15.1-30.9,16.3,0,32.5,0,48.8,0Z" fill="#bfdd89"/>
        <path d="M895.7,256c-3.2,5.3-6.5,10.5-9.7,15.8-2.9,2.2-4.5,5.5-6.4,8.5-6-2.2-11.5-4.2-16.9-6.3h0c-.4-7.4-1.4-15.1-1.2-22.5.2-7.1,3.9-13.4,4.2-20.2.7-1.8,1.5-3.5,2.2-5.3,11.7,0,23.5,0,35.2,0-.7,9.3-1.1,18.7-6.9,26.8-.6.8-.4,2.1-.6,3.2Z" fill="#f9f7e8"/>
        <path d="M772,226c23,0,46,0,69,0,0,1.8.6,3.7.2,5.4-1.4,6.2-3.1,12.4-4.7,18.6-.8,3.9-1.7,7.9-2.5,12-7-2.6-13.5-5.1-20-7.5-13.8-5.7-27.7-11.3-41.6-16.8-.1-3.8-.3-7.7-.4-11.7Z" fill="#f9f7e8"/>
        <path d="M866.5,226c-1,2-2,4-3,6-1.7-1.5-5.7,16-5.9,17.9-.5,7.2,2.4,15.2.8,22.1-7.2-2.9-14.1-5.7-21-8.4.6-6.5,2.8-13.2,4.3-19.5,1.5-5.9,4.2-11.6,3-18,7.2,0,14.5,0,21.8,0ZM842.1,250.5c-.7,2.3-1.3,4.3-2.1,6.7,2.9.9,5.5,1.7,8.7,2.7.6-2.4,1-4.5,1.5-6.6-2.9-1-5.2-1.8-8.1-2.8Z" fill="#f9f7e8"/>
        <path d="M785.5,667c1,0,2,0,2.9,0-1.1,31.2-2.2,62.4-2.8,93.6-.3,15.9.1,31.7-2.8,47.4-2.9,15.4-6.7,30.6-10.9,45.7h-3c3.9-14.7,8.5-29.2,10.8-44.2,2.3-15.1,2.8-30.3,3.2-45.5.8-31.6,1.6-63.2,2.5-94.8,0-.7,0-1.5,0-2.2Z" fill="#fefefe"/>
        <path d="M1069,226c-11.4,3.5-22.7,7-34.1,10.6-9.9,3.2-20.8-1.3-25.9-10.6,20,0,40,0,60,0Z" fill="#bddb89"/>
        <path d="M759.3,524.5c-.5.7-.9,1.5-1.5,2.3-8.9-2.1-17.8-7.4-25.9-11.5-8.3-4.2-16.4-8.6-24.4-13.1-15.4-8.8-31.1-17.4-44.2-29.5-13.6-12.5-26.4-25.8-39.4-38.8-13.5-13.5-26.5-28-40.9-40.6,0-.5,0-1,0-1.5,13.9,12.3,26.5,26.2,39.6,39.3,13.7,13.7,27.1,27.8,41.2,41,12.7,11.9,28.4,20,43.3,28.7,16,9.3,32.7,17.4,49.6,25,.9-.4,1.8-.8,2.6-1.2Z" fill="#e2e1dc"/>
        <path d="M785.5,669.2c-.9,31.6-1.6,63.2-2.5,94.8-.4,15.2-.8,30.4-3.2,45.5-2.3,15-6.9,29.5-10.8,44.2h-1.5c3.9-14.3,8.7-28.4,11.2-43,2.6-14.6,2.1-29.3,2.5-44.1.9-29.6,1.4-59.2,3-88.7-1.4-.2-2.4-.3-3.3-.4-.8-1.1,2-1.6,2.7-1.8,1.1-5.2-.9-10.5,1.6-15.2-.6,2.9-1.2,5.8.2,8.7Z" fill="#e1e0db"/>
        <path d="M772,853.8c4.1-15.1,8-30.3,10.9-45.7,2.9-15.7,2.5-31.5,2.8-47.4.6-31.2,1.7-62.4,2.8-93.6,0-1.2,0-2.4,0-3.7.1,0,.3,0,.4,0v36.1c.4.2,1.2.5,2.1.9-.8.3-1.4.5-2.1.8-1,2.2-.5,6.3-.6,8.7-.1,3-.2,6-.3,9-.2,6.4-.3,12.8-.5,19.3-.2,13.3-.5,26.6-.7,39.9-.5,26.1-7.2,50.7-14.1,75.7h-.8Z" fill="#e1e1db"/>
        <path d="M583,397c14,12.3,26.8,26.4,40,39.6,12.9,12.9,25.4,26.1,38.4,39-1.7,2.4-3.6,5-5.6,7.7,1.4-2.6,2.7-5.2,3.9-7.5-10.9-11-21.8-22-32.6-33-14.3-14.5-28.5-29-42.8-43.5-.3-.3-.8-.6-1.2-.9,0-.5,0-1,0-1.5Z" fill="#e4e3de"/>
        <path d="M594.3,226c-3.8,6-7.5,12-11.3,18,0-6,0-12,0-18,3.8,0,7.5,0,11.2,0Z" fill="#c0de8a"/>
        <path d="M761.5,233.6c-4.1-1.8-8.2-3.6-12.3-5.5-1.2-.6-2.3-1.4-3.5-2.1,5.8,0,11.5,0,17.2,0,0,1.8.1,3.7-.1,5.5,0,.8-.9,1.4-1.4,2.1Z" fill="#bfdc8c"/>
        <path d="M761.5,233.6c.5-.7,1.3-1.4,1.4-2.1.2-1.8,0-3.6.1-5.5h6v11.3c-2.4-1.2-5-2.5-7.5-3.7Z" fill="#f4f2e5"/>
        <path d="M772,226c.1,3.9.3,7.8.4,11.7,13.9,5.5,27.8,11.1,41.6,16.8-.3,0-.5,0-.8,0-10.5-3.8-20.9-7.9-31.2-12-3.5-1.4-8-2.5-10.2-5.9-2.1-3.3-1.2-7.1-.5-10.6.2,0,.5,0,.8,0Z" fill="#e4e3de"/>
        <path d="M1253.5,226q.5,2.5-3.2,5.3c-1.9-1.7-3.9-3.5-5.8-5.3,3,0,6,0,9,0Z" fill="#e1decd"/>
        <path d="M895.7,256c.2-1.1,0-2.4.6-3.2,5.8-8,6.2-17.4,6.9-26.8.3,0,.5,0,.8,0-.9,6.5-1.3,13.1-2.8,19.4-.9,3.7-3.6,7-5.5,10.5Z" fill="#e2e1dc"/>
        <path d="M907,226c-.7,6.2-1.4,12.5-2.2,19.2,2.9,1.3,5.9,2.7,9,4.1,0,.3,0,.5,0,.8-3.4-1.4-6.8-2.8-10.1-4.1.9-7,1.8-13.5,2.6-19.9.3,0,.5,0,.8,0Z" fill="#e1e1dc"/>
        <path d="M836.5,250c1.6-6.2,3.3-12.3,4.7-18.6.4-1.7-.1-3.6-.2-5.4h.8c1.7,4.8-.6,9.2-1.6,13.7-.8,3.7-1.9,7.3-2.9,11-.2-.2-.5-.5-.7-.7Z" fill="#e3e2dc"/>
        <path d="M844.8,226c1.2,6.4-1.5,12.1-3,18-.2,0-.5,0-.7,0,1.3-6,3.6-11.7,3-18h.8Z" fill="#e2e2dd"/>
        <path d="M961,506.5c.7-.5,1.5-1,2.2-1.5,6.1,13.8,12.1,27.7,18.2,41.5,5.2,11.9,11.3,21.9,22.8,28.7,12.9,7.6,26.7,14,40.1,20.8,11,5.6,20.5,11.8,26.1,23.2,2.4,5,4,10.7,9.1,13.8,5.1,3.1,10.9,1.1,15.7-1.6,12.2-7,21-19.1,33.7-25.4,11.4-5.7,21-.6,22.4,12.2,1.3,12.2-3.2,28.5-10.8,38.2-9.6,12.1-23.2,10.4-36.5,14.5-15.1,4.6-20.9,16.3-28,29.2-3.6-4.2-7-9.4-11.8-12.3-5.3-3.2-12.5-3.3-18.5-4.3-13.7-2.4-27.4-4.7-41.1-7,.8-9.5,2.7-18.9,4.5-28.2.3-13.8,5.9-27.3,6.7-41,.3-4.8-1.1-9.7-3.4-13.9-.7-1.3-7.8-11.4-9.4-9.6-10.1-11.9-20.3-23.7-30.7-35.2,1.5-1.6-.4-2.1-1-2.9-4.6-5.1-9.3-10.1-14-15.2-3.1-3.7-6.2-7.5-9.3-11.3,4.8-4.1,9.2-7.7,13-12.7ZM1029.6,676.9c.9-5.5,1.7-10.3,2.6-15.6-4.7-.9-9.1-1.7-14.1-2.7-.8,5.5-3.1,10.5-1.9,16.2,4.5.7,8.7,1.3,13.4,2ZM1045.3,633.2c-.9,5.2-1.7,9.9-2.5,14.7,1.7.4,3.1.8,4.8,1.2,1.5-5.2,2.4-10.2,2.5-15.7-1.8-.1-3.1-.2-4.8-.3ZM1022.2,626.4c3,.6,5.5,1.1,8.7,1.7.5-2.9.9-5.7,1.4-8.7-3.4-.4-6.1-.8-8.8-1.1-.5,2.9-.8,5.2-1.3,8.1ZM1061.6,657.7c-3.1-.5-5.8-1-8.8-1.5-.4,2-.8,3.5-1.1,5.4,3.1.6,5.7,1,8.5,1.5.5-1.8.8-3.2,1.4-5.4ZM1023.5,635.7c-.4,3.1-.8,5.7-1.2,8.5,2,.2,3.4.4,5.3.6.5-2.7,1-5.1,1.6-8-1.9-.4-3.5-.7-5.7-1.1ZM1076.1,684.5c.4-2.2.7-4.2,1.2-6.6h-6.4v6.1c1.8.2,3.4.3,5.2.5ZM1082.5,660.8c2.4.4,4.4.7,6.5,1,.4-2.3.6-4,.9-5.8-2.3-.4-4.2-.7-6.2-1.1-.4,2.1-.7,3.7-1.2,5.9ZM1071.8,658.1c-.4,2.1-.8,3.9-1.2,6,1.9.5,3.6,1,6.1,1.7.2-2.4.4-4.4.6-6.6-2-.4-3.5-.7-5.6-1.1ZM1080.7,653.8c.4-2.5.7-4.4,1.1-6.7-2.2-.2-3.9-.3-5.8-.4-.4,2-.8,3.7-1.2,5.7,2.1.5,3.8.8,5.9,1.3ZM1064.5,654c-14.4-2.9-28.7-6.4-43.6-4.4,14.8-1.3,29.1,3,43.6,4.4ZM1052.8,676.5c-.4,1.4-.6,2.3-.8,3.1.2.3.4.6.6.9,2.3-.8,3-.8,3.6-3.1-1.1-.3-2-.5-3.4-.9Z" fill="#f9f7e8"/>
        <path d="M1060,688.8c6.8,3.1,10.9,8.8,14.2,15.1-.2,0-.4,0-.6,0-6.2-1.7-12.3-2.9-18.6-4-6.2-1.1-12.7-2.8-19-2.8v-1.5c.2-1.5.5-3,.8-4.5.2-1.5.5-3,.7-4.5,7.4-1.1,15,3.5,22.5,2.3ZM1045.6,697.1c5.2.8,10,1.5,15.3,2.4.2-2.5.3-4.5.5-6.6-5.1-.9-9.5-1.8-14.3-2.6-.5,2.3-.9,4.1-1.6,6.9Z" fill="#efeee0"/>
        <path d="M1247,429.9c1-1.1,1.6-1.8,2.4-2.7,2.3,2.2,4.1,3.8,6.1,5.7.7-.3,1.5-.6,2.5-1,8,7.3,16.1,14.6,24.5,22.2-1.1,1.6-2,3-3.2,4.8-10.8-9.7-21.2-19.1-32.3-29Z" fill="#95d3f0"/>
        <path d="M1009,648.2c-1.9,9.4-3.7,18.7-4.5,28.2,13.7,2.3,27.4,4.6,41.1,7,5.9,1,13.2,1.1,18.5,4.3,4.8,2.9,8.2,8.1,11.8,12.3,0,.7,0,1.4,0,2.1-3.9-4.8-7.7-11.2-13.4-14.1-5.4-2.7-12.1-3-17.9-4-13.8-2.3-27.6-4.4-41.4-7.1.8-5.2,1.6-10.4,2.5-15.6.5-3.4.3-11.4,2.6-13.9.3.3.5.5.8.8Z" fill="#e3e3dd"/>
        <path d="M1060.8,452.8q4.8,12.2,2.6,15.1c-1.9-3.7-3.4-7.3-5.5-10.4-2.2-3.2-5.2-5.8-8.1-8.9,1-.8,1.7-1.4,2.4-2,2.9,2.1,5.5,4,8.6,6.3Z" fill="#95d3ef"/>
        <path d="M785.5,669.2c-1.4-2.9-.8-5.8-.2-8.7-2.4,4.7-.4,10-1.6,15.2-.6.3-3.4.8-2.7,1.8-9.4,1.2-19-.2-28.5-.8,0-23.8,1.3-47.7,2.1-71.5.8-24.7,1.6-49.3,2.3-74,4.2,2.5,8.7,4.7,12.6,7.5,2.7,2,4.6,4.9,6.9,7.4,5.2,11.2,8.7,22.7,9.9,35,.6,6,.6,12,.4,18.1-.2,6.3-1.2,12.8.2,18.9.5.8,1,1.7,1.4,2.5.2,0,.5,0,.7,0,.5-2.4,1-4.7,1.6-7.1,0,1.3.1,2.5.2,3.8.1,0,.2,0,.4,0,.4-10,.7-20.1,1.1-30,5.7-9.4,11.4-18.8,17-28.1.4-.7.2-1.7.3-2.6,7.6-12.8,15.3-25.6,23-38.4,1.8-3,3.7-5.9,5.5-8.8.5-.1,1.2-.1,1.3-.5,6.8-11.2,13.5-22.4,20.2-33.7.4-.7.2-1.7.2-2.6,8.3-13.7,16.6-27.3,25-41-.3-.3-.6-.6-.9-.8-3.3,3.2-4.9,7.8-7.2,11.7-3,5-6.2,10-9.3,15-6.2,10-12.4,20-18.4,30.1-11.9,19.8-23.6,39.6-35.6,59.3-.5.1-1.2.2-1.3.5-6,10-12,19.9-18,30-.4.7-.2,1.7-.2,2.6-.7,1.1-1.5,2.2-2.2,3.3-.3,0-.6,0-.8,0-.5-3.8-.9-7.7-1.4-11.5.4-.2.9-.4,1.4-.6-2.3-7.1-4.1-14.6-7.1-21.4-2.4-5.5-6.3-13-12.3-14.8-3.7-2.4-7.5-4.8-11.4-7.3,21.6-41.1,46.5-79.9,73.5-118,17.3,2.7,35.3,6.8,50.8,15,10.1,5.4,31,21.6,23.5,34.6-9.8,17.1-20.4,33.9-30.6,50.9-9.7,16.1-21.2,32.3-28.6,49.5-1.6-.4-10.7,28.8-9.8,32.2-3.3,14-6.9,28-9.3,42.2-14-2.3-27.8-4.6-42.1-6.9.2,1.2.4,1.7.5,2.3,0,.3,0,.5,0,.8.4,6.8.7,13.6.7,20.5.7.2,2,.5,3.5.9,0,.8.1,1.8.2,2.9-1.4.3-2.5.6-4.1,1-.2,1.8-.4,3.6-.6,5.3-.1,0-.2,0-.4-.1-.6,2.1-1.1,4.2-1.7,6.3,0,.7,0,1.5,0,2.2Z" fill="#f5f0d8"/>
        <path d="M613.6,645.2c-1.6-1.9-2.5-3.1-3.9-4.8,9.6-7.7,19.1-15.4,28.7-23.2,1.4,1.6,2.5,3.3,3.6,5.1-9.4,7.6-18.8,15.2-28.4,23Z" fill="#d7d7d6"/>
        <path d="M661.7,639.5c1.3,1.8,2.2,3.1,3.4,4.8-9.9,8-19.6,15.8-29.7,24-1.3-1.8-2.2-3.1-3.4-4.8,9.9-8,19.5-15.8,29.6-24Z" fill="#d7d7d6"/>
        <path d="M669.9,655.2c1.3,1.8,2.3,3.1,3.6,5-5.7,4.6-11.2,9.1-17.1,14-1.4-1.7-2.6-3.1-4-4.8,5.9-4.7,11.4-9.2,17.5-14.1Z" fill="#d7d7d6"/>
        <path d="M654.3,485.5c-.6,1.3-1.1,2.8-2,3.9-8.4,11.2-14,23.5-16.1,37.5-1.3,8.3-3.6,16.4-4.9,24.7-.7,4.6-.2,9.4-.3,14.2-.2,0-.5,0-.7,0-1.1-14.1,2.9-27.5,5.5-41.1,1.4-7.2,3-14.3,6.3-20.9,1.7-3.4,3.9-6.6,6-10.1-.6-.7-1.4-1.6-2.7-3.1h4.7c1.4-1.7,2.8-3.4,4.2-5Z" fill="#e1e1db"/>
        <path d="M776.5,546.3c-2.3-2.5-4.2-5.5-6.9-7.4-3.9-2.9-8.4-5.1-12.6-7.5-2.4-1.1-4.9-2.2-7.5-3.3-1.6,2.6-3.1,4.8-4.5,7.1h-.8c1.5-2.7,2.9-5.4,4.6-8.4,11,4.9,22.3,8.4,28.4,19.7-.2,0-.5,0-.7,0Z" fill="#e2e0da"/>
        <path d="M744.2,535h.8c-.9,1.5-1.9,2.9-2.8,4.4-.2,0-.4,0-.7.1.6,5.7,2,11.4,1.6,17.1-.1,1.7-2.6,12.7-3.3,12.1,1.3-4.8,2.9-9.1,2.2-14-.7-5.4-.7-10.7-.7-16.1.9-1.1,2-2.4,3-3.6Z" fill="#e3e2db"/>
        <path d="M715.4,640.7c-2.1,2.1-3.6,3.7-5.4,5.6-1-1-1.8-1.7-3-2.8,1.7-1.8,3.2-3.4,5-5.3,1.1.8,2.1,1.5,3.4,2.5Z" fill="#d6d6d4"/>
        <path d="M726.2,596.5c3.8-7.7,7.5-15.5,11.3-23.2.3,4.4-2.8,8.6-4.8,12.5-1.6,3.2-3.2,9.1-6.5,10.7Z" fill="#e2e1dc"/>
        <path d="M630.2,565.7c.2,0,.5,0,.7,0-3.2,8.1-1.9,16.1.8,24-3.6-6.8-6.1-16.9-1.6-24Z" fill="#e4e3dd"/>
        <path d="M665.2,698.4c-1.7,1.1-2.8,1.8-4,2.6-1-1.3-1.8-2.3-3.3-4.3,1-.8,2-1.6,3.4-2.8,1.5,1.8,2.6,3,3.9,4.5Z" fill="#d6d6d4"/>
        <path d="M684.2,654.3c-1.1-1.9-1.8-3.1-2.6-4.6,1.3-.9,2.2-1.5,3.8-2.6.8,1.2,1.6,2.2,2.5,3.7-1,.9-2.1,1.9-3.7,3.5Z" fill="#d7d6d4"/>
        <path d="M719.7,637.1c-1.1.9-1.9,1.6-3,2.6-1-1.2-1.7-2.2-2.7-3.5,1-.9,1.9-1.7,2.9-2.6,1,1.2,1.8,2.1,2.9,3.5Z" fill="#d7d6d3"/>
        <path d="M661,619.7c1.4,1.1,3,2,4.3,3.2,2.6,2.4,5.2,4.9,7.7,7.3-.6,0-1.5.3-1.8,0-3.5-3.5-6.8-7-10.2-10.5Z" fill="#e3e2dd"/>
        <path d="M637.8,597.2c3.7,3.5,7.5,7,11.2,10.5-2.7.5-4.8-3-6.6-4.8-1.1-1.1-5.5-4.4-4.7-5.7Z" fill="#e3e2dd"/>
        <path d="M650.5,609.2c3.5,3.5,7,7,10.5,10.5-3.3-2.9-6.6-5.8-9.9-8.8-.4-.4-.4-1.1-.6-1.7Z" fill="#e3e2dd"/>
        <path d="M711.2,617.5c3.9-2.6,6.1-6.5,8.3-10.5,1.8,3.1-5.8,10.6-8.3,10.5Z" fill="#e2e1dc"/>
        <path d="M620.3,464c-1.2-.9-2.4-1.7-3.7-2.8.6-.8,1-1.3,1.7-2.4,1.2,1.6,2.2,2.8,3.2,4.1-.4.4-.8.7-1.2,1.1Z" fill="#d4d4d1"/>
        <path d="M740.5,587.6c.7.6,1.4,1.2,2.4,2-.8.9-1.5,1.7-2.1,2.4-2.2-1.2-1.8-2.6-.3-4.4Z" fill="#eae3cd"/>
        <path d="M717.4,615.8c.5,1.1,2.1,3.8-.5,3.8-2.6,0-1-2.7-.5-3.8.3,0,.7,0,1,0Z" fill="#eae2cc"/>
        <path d="M1036,695.5v1.5c0,.5,0,1,0,1.5-.7,1.5-1.4,2.9-2.1,4.4-1.9-.4-4.1-.9-7-1.6-1.4,8.4-2.8,16.6-4.2,25,2.7.8,5.4,1.6,8.1,2.2-2.4,14.9-3.7,30.5-7.8,45-32.5-5.5-64.8-10.9-97.2-16.3,1.2-7.4,2.3-14.2,3.4-21.3-5.3-2.7-11.5-4.9-15-10.1-3.3-4.9-2.8-10.5-2.8-16.1.5-2.4,1.1-4.8,1.7-7.4,11.3,2,22.2,4,33.1,5.8,1.3.2,2.8-.4,4.2-.6,14.8,2.5,29.6,5,44.4,7.6-.6,2.4-1.1,4.5-1.6,6.6-.1-.3-.2-.7-.4-1.1-.3.5-.6.9-.7,1.1-8.3-1.3-16.3-3.4-24.7-3.7-.4,2.3-.7,4-1.2,6.3,8.7,1.8,17.4,3.3,26.2,4.8-.7,3.5-1.5,7-2.2,10.5,0-.5-.1-.8-.5-.9-.2.6-.4,1.3-.6,1.9-8.1-1.4-15.9-2.7-24.6-4.2-.2,2.7-.4,4.9-.5,7.2,8.4,1.5,16.1,2.8,24.1,4.2-.2,2-.4,3.5-.6,5.2.6.5,1.4,1,2.8,2,.6-2.3,1-4,1.4-5.7,1.6-9.4,3.3-18.7,5-28.6,5.4.9,10.7,1.7,16,2.6,0-.3.1-.6.2-.9-5.2-.9-10.3-1.8-16-2.7.9-5.3,1.8-10.6,2.6-15.7,1.7-.2,3-.3,5.1-.5-2.1-.4-3.2-.6-4.8-1,1.2-7.4,2.4-14.5,3.7-22.3,6.2,1,12,2.2,18.3,1.9,4.8,1,9.5,1.9,14.3,2.9.5.5,1,1,1.5,1.6-.2,1.5-.5,3-.7,4.5-.5-1-.9-1.9-1.6-3.3-7.9-.9-15.8-3.4-24.4-3.3v6.2c7.3,2.7,16,3.4,23.7,3.4h0c.4-.5.8-1,1.5-1.9v3.4ZM940.7,731c8.4,1.4,16.5,2.8,24.9,4.3.5-2.3,1-4.2,1.5-6.3-.9-.6-1.6-1.1-2.3-1.6.3-.3.7-.6,1.5-1.3-8.5-1.4-16.6-2.6-24.6-3.9,0,.3,0,.6-.1.9.8.1,1.6.3,2.5.5-.9.6-1.6,1-2.2,1.4-.3,1.9-.7,3.6-1.1,6.1ZM1016.9,707.8c-3-.6-5.7-1.1-8.7-1.7-1.6,3.8-2.3,7.5-1.9,11.5,3.2.6,6,2.2,9.1.4.5-3.2,1-6.5,1.5-10.1ZM994.9,759.9c-4.4-1-8.2-2.4-12.6-1.7v6.1c3.8.6,7.4,1.2,11.1,1.8.6-2.2,1-3.9,1.5-6.1ZM919.3,716.9c8.2,1.4,15.8,2.6,24,4,.4-2.4.8-4.5,1.3-7-8.8-1.6-16.8-3.3-25.3-4.2v7.2ZM964,746.7c-8.5-1.6-16.4-3.8-25-3.9-.5,2.3-.8,4-1.3,6.2,8.5,1.9,16.6,3.3,25,4.2.4-2.3.8-3.9,1.3-6.5ZM1004.9,723.4c-1.4,8.5-2.8,16.5-4.2,25,2.5.4,4.7.8,7.1,1.2,1.4-8.5,2.7-16.2,4-24.7-2.2-.5-4.3-.9-6.9-1.5ZM1013,698c-.5,2.2-.9,4.2-1.4,6.2-.6.2-1.2.5-2.1.8,2,.4,3.5.7,5.1,1.1,1-.4,2.1-.7,3.6-1.3.2-2.1.3-4.3.5-6.8h-5.7ZM1023.3,735.3c.3-1.3.5-2.2.8-3.5-1.8-.4-3.3-.8-4.9-1.2-.3,1.3-.6,2.2-.9,3.3,1.6.4,3,.8,5,1.3ZM916.5,725c1.9.5,3.4.9,5.2,1.3.4-.9.7-1.7,1.1-2.6-1.8-.5-3.2-.8-4.9-1.2-.4.8-.8,1.5-1.4,2.6Z" fill="#f0eee0"/>
        <path d="M948.5,792.3c4.8-1,9.7-.6,14.5-1.3,5.3-.8,10.5-1.5,15.8-2.2,7.7-1,19.4-10.4,26-3.4,3.7.2,7.7,0,8.8,5.8-3.1,2.3-6.2,4.5-9.4,6.6-3.1,2-5.6,5.1-8.9,6.7-3.6,1.7-7.1.8-10.8,1.4-4.3.7-6.9,3.4-10.4,5.5-5,2.9-11.2,2.5-15.7-1.2-2.5-2-3.4-4.4-4.5-7.3-1.5-3.7-3.5-7.1-5.3-10.6Z" fill="#95d3f1"/>
        <path d="M841,661.8c.7-.1,1.3-.3,2-.4,0-.3,0-.5.1-.8-2.2-.7-4.5-1.3-6.7-2,0-.2,0-.4.1-.6,4.9.7,9.7,1.4,14.6,2.1l.2-.8c-3.8-2.3-8.5-1.2-12.4-3.6,4.8.7,9.9,2,14.8,2.2,4.5.1,7.8-1.8,11.8-3.6,1.9,1,3.5,2,2.6,4.6-1.9.6-3.7,1.2-5.9,1.9,0,.9-.1,2.2-.2,3.6-.7.9-1.3,1.8-2.2,3-5.7-.9-11.4-1.8-17.5-2.7.9-.4,1.5-.7,2.4-1.1-1.5-.7-2.6-1.1-3.6-1.6Z" fill="#efefe9"/>
        <path d="M841,661.8c1.1.5,2.2,1,3.6,1.6-.9.4-1.5.7-2.4,1.1,6.1,1,11.8,1.9,17.5,2.7.9-1.2,1.5-2.1,2.2-3,0-1.4.2-2.7.2-3.6,2.2-.7,4-1.3,5.9-1.9-1,8.1-2.1,16.2-3.2,24.9-2.1-.6-3.4-1-5-1.5.4-2.8.7-5.3,1.1-8.3-7.2-1.2-14.3-2.4-20.7-3.5-1.7-1.8-2.8-3.1-4.5-4.8.4-.8,1-2.2,1.7-3.8h3.4ZM865.7,669.5c-8.5-1.7-16.7-3.5-25.2-4.1v3.7c8.4,1.4,16.5,3.3,25,3.9,0-1.4,0-2.2.2-3.5Z" fill="#cfd4e0"/>
        <path d="M1002.2,830.5c-5-3-9.6-6.2-15.7-5.7-6.8.5-13.7,3.1-20.5,4.4-13.7,2.6-27.8-1.3-41.4-3.6-13.5-2.2-27.3-3.9-40.7-6.7-12.6-2.7-14.4-10.4-13-22.2.5,6.9-1,13.9,5.6,18.5,3.7,2.6,8.3,2.8,12.5,3.5,5.1.8,10.2,1.7,15.4,2.5,10,1.6,19.9,3.3,29.9,4.9,9.1,1.5,19.4,4.5,28.5,2.4-.1-1.4-.3-2.7-.5-4.4,1.7-.7,3.4-1.4,5.7-2.4.5,2,.9,3.7,1.4,5.5,5.9-1.2,12.3-3.3,18.3-3.4,5.9-.1,9.7,2.8,14.4,5.8,0,.3,0,.5,0,.8Z" fill="#e1e0db"/>
        <path d="M881.6,726.3c-4,23.6-8.5,47.1-12.1,70.7-1.5,9.7-1.4,18,9,21.9,5.2,1.9,10.8,2.6,16.2,3.6,6,1,12.2,2.6,18.3,2.8-.2.2-.5.5-.7.7-6.3-.9-12.6-1.8-19-2.8-5.1-.8-10.8-1.1-15.6-3.2-9.5-4.2-11.2-13-9.4-22.3,2.4-12.5,4-25.2,6.1-37.8,1.1-6.3,2.1-12.6,3.2-19,.3-1.5,2.8-15.6,3.9-14.8Z" fill="#e3e2dd"/>
        <path d="M899.4,721.2c.9-4.8,1.6-8.8,2.4-13.1,3.1.5,5.7.9,8.7,1.4-.7,4.5-1.4,8.6-2.2,13.3-3.1-.5-5.8-1-8.9-1.5Z" fill="#d7d7d6"/>
        <path d="M1030.7,728.5c-2.8-.6-5.4-1.4-8.1-2.2,1.4-8.4,2.8-16.5,4.2-25,2.9.7,5.2,1.2,7,1.6.7-1.5,1.4-3,2.1-4.4-1.5,8.7-3,17.3-4.5,26-.2,1.3-.5,2.7-.8,4ZM1027.7,703c-1.3,7.8-2.6,15.3-4,23.3,2.3-.2,3.7-.3,5.2-.4,1.2-7.6,2.4-14.8,3.6-22.4-2-.2-3.1-.3-4.9-.5Z" fill="#e2dfd3"/>
        <path d="M964,835c2-.9,3.5-1.7,5.5-2.7,2.2,5.1,4.2,9.9,6.4,15.1-2.2.9-3.7,1.5-5.7,2.3-2.2-5.1-4.1-9.8-6.2-14.7Z" fill="#d7d7d6"/>
        <path d="M889,736.6c.1-2,.3-3.7.4-5.7,5.9,1,11.3,1.9,17.1,2.9-.5,2.1-.9,3.6-1.4,5.5-5.5-.9-10.6-1.8-16.2-2.7Z" fill="#d7d7d6"/>
        <path d="M841,638.5c11.9,1.7,23.7,3.6,35.5,5.7,2.6,9.6,5.2,19.3,7.9,28.9,2.3,8.4,8,19.7,5.4,28.5-.2-.3-.7-.7-.6-.9,1.8-5.8-1.2-11-2.6-16.3-3.3-13.1-7.1-26.1-10.8-39.4-4.6-.8-9.2-1.6-13.8-2.3-7-1.1-13.9-2.2-20.9-3.4,0-.3,0-.5,0-.8Z" fill="#e2e1dc"/>
        <path d="M912.2,826c.2-.2.5-.5.7-.7,7.6,1.4,15.1,2.9,22.8,4,7.5,1.1,15.1,3.1,22.7,2.7,13.5-.8,29.6-10.6,41.5-.7-2.2.8-5.3-2.3-7.7-2.9-3.1-.8-6.2-.6-9.3,0-7.8,1.2-15.4,4.1-23.3,4.9-7.6.8-15.8-1.5-23.3-2.8-8.1-1.4-16.2-2.8-24.2-4.3Z" fill="#e3e2dd"/>
        <path d="M950.5,707.5c-1.4.2-2.9.8-4.2.6-10.9-1.8-21.8-3.8-33.1-5.8-.6,2.6-1.1,5-1.7,7.4v-7.6c-5.8-1-12-2-18.3-3.1-1.2,3.7-2.4,7.4-3.6,11.1-.4,1.1-2.1,7.7-2.9,7.1,1.8-6.2,3.6-12.4,5.6-19,19.4,2.7,38.7,6.4,58.2,9.3Z" fill="#e1e0da"/>
        <path d="M905.3,744.9c.3-1.8.5-2.9.8-4.4,4.8.8,9.1,1.6,13.9,2.4-.5,1.7-.8,2.9-1.2,4.4-4.5-.8-8.7-1.5-13.5-2.4Z" fill="#d7d6d5"/>
        <path d="M1014.2,832.9c-2,1-3.8,1.8-6,2.9-1.2-3-2.2-5.6-3.4-8.5,2.1-.8,3.7-1.5,5.8-2.4,1.2,2.6,2.3,5,3.6,8Z" fill="#d7d7d6"/>
        <path d="M800.8,643.7c2.7.4,5.1.7,7.7,1.1v6.5c-2.9-.4-5.5-.7-8.8-1.1.4-2.3.7-4.2,1.1-6.5Z" fill="#d7d7d5"/>
        <path d="M874,781.7c2.7-18,5.2-36.2,9-54,1,8.6-2.3,18.9-3.8,27.5-1.6,9.2-3.2,18.4-4.8,27.5-.2-.5-.3-.8-.5-1.1Z" fill="#e2e1dc"/>
        <path d="M1011.7,848.1c-.8-1.4-1.5-2.5-2.4-4.2,3.3-1.5,6.3-2.9,9.7-4.5.7,1.4,1.4,2.7,2.3,4.4-3.3,1.4-6.2,2.8-9.5,4.2Z" fill="#d7d6d5"/>
        <path d="M841,638.5c0,.3,0,.5,0,.8-17.7-3.2-35.4-6.4-53.2-9,0-.3,0-.5,0-.8,17.8,2.7,35.7,5.2,53.2,9Z" fill="#e3e2dc"/>
        <path d="M827.2,651.9c.5-2.8.8-5,1.3-7.7,2,.5,3.4.9,5.1,1.4-.4,2.3-.8,4.3-1.3,7-1.6-.2-3.1-.4-5.1-.7Z" fill="#d6d6d5"/>
        <path d="M822.8,643.8c-2.6-.4-4.7-.7-6.9-1v-5.1c2.6.3,4.7.6,6.9.8v5.3Z" fill="#d7d6d5"/>
        <path d="M1065.3,802.9c1.2-.6,2-1.1,3.2-1.7,1.3,3,2.5,5.7,3.8,8.8-1,.7-1.9,1.2-3.2,2.1-1.4-3.3-2.6-6.2-3.8-9.3Z" fill="#d6d6d4"/>
        <path d="M1002.2,830.5c0-.3,0-.5,0-.8,2.6,4,5.1,7.2,5.7,11.9-3.8-1.2-6-4.5-5.7-7.4,1.2,2,2.4,3.9,3.6,5.9.3-.2.7-.4,1-.5-1.5-3-3.1-6-4.6-9Z" fill="#e4e3de"/>
        <path d="M820.3,710.9c-.5,1.4-.7,2.2-1.1,3.5-1.5-.4-2.7-.8-4.4-1.2.2-1.1.3-2.1.5-3.6,1.8.5,3.1.8,5,1.3Z" fill="#d6d6d3"/>
        <path d="M829.2,642.7v-2.4c1.1,0,2.1-.1,3.3-.2,0,1,.1,1.7.2,2.6h-3.5Z" fill="#d6d6d2"/>
        <path d="M720.2,311.5c-2,.5-4,1.1-6,1.6.9-.7,1.9-1.5,3.1-2.4-1.6-1.8-3.1-3.6-4.7-5.4,5.6-5.3,11-10.4,16.7-15.8,1.2,1.2,2.9,3,4.5,4.6-5.3,5.2-10.4,10.2-15.4,15.1.6.8,1.2,1.5,1.8,2.3Z" fill="#d7d7d6"/>
        <path d="M704.5,400c15.2,6.2,30.9,10.5,46.7,15,7.4,2.1,15,4.9,22.7,5.6,6.1.6,13.5.4,17.8,5.6,2.8,7-.9,16-1.6,23.2-.8,7.5.8,14.6-.1,21.9-.3-10.2-2.5-20.4.5-30.7,1.2-4.1.9-8.6,1.3-12.9-5-5.5-10.9-6.5-18-5.3-14.2-4.1-28.8-8.4-43.5-12.7-6.2-1.8-12.4-3.5-18.6-5.3-2.1-.6-4.2-1.6-6.2-2.6-.5-.2-.6-1.2-.9-1.9Z" fill="#e3e2dc"/>
        <path d="M786.3,477.3c-7.7,13.5-15.3,27-23,40.6-.1.2-.2.4-.3.7.9-7.5,7.6-15.7,11.4-22.2,2-3.5,4-7,6-10.5,1.5-2.7,3.1-7.1,5.9-8.5Z" fill="#e3e2dd"/>
        <path d="M683.5,353.5c6.7,13.6,10.5,28.5,17.3,42-2.5,0-3.2-4.4-3.9-6.1-1.5-3.9-3-7.8-4.5-11.8-3-8-5.8-16.4-9.7-24.1.3,0,.5,0,.8,0Z" fill="#e2e2dc"/>
        <path d="M762.3,266.5c-2.6,9.5-.7,18.8,0,28.5-3.7,1.3-7.1,2.6-10.6,3.8,3.2-1.9,6.2-3.3,9.7-4.5-.3-3.1-3.2-28.8.8-27.8Z" fill="#e2e1dc"/>
        <path d="M710.2,427c.6-2,1-3.2,1.6-5,1.9.5,3.8,1,6,1.6-.5,1.8-.8,3.2-1.3,5.1-2.2-.6-4-1.1-6.3-1.7Z" fill="#d7d6d5"/>
        <path d="M700.7,319c-8,3-16,6-24,9.1-1.1.4-2,1.4-3,2.2,2.9-4.1,7.7-5.1,12.4-6.9,4.3-1.7,9.9-5.1,14.6-4.4Z" fill="#e2e2dc"/>
        <path d="M683.5,353.5c-.3,0-.5,0-.8,0-3.5-3.9-8.4-8-10.9-12.6-1-1.8-1.5-3.8-1.3-5.8,0-.7.6-4.3,1.8-3.4-1.7,4.6-.6,8.3,3,11.8,3.1,3,5.5,6.6,8.3,9.9Z" fill="#e2e2dc"/>
        <path d="M663.8,341.8c-4.5.6-6.7-.5-7-3.5,3.9-1.1,6.6.1,7,3.5Z" fill="#d6d6d3"/>
        <path d="M770.5,240.2c2.2.7,4.3,1.4,7.3,2.4-2.4,3.6-4.5,6.6-6.6,9.7,0-3.2,3.1-6.2,4.9-8.7-.9-.4-6.3-2.4-5.6-3.3Z" fill="#e2e1dd"/>
        <path d="M619.2,232.6c1.7.3,2.8.5,4.3.7-.5,1.6-.8,2.7-1.2,4.1-1.1-.3-2-.5-3.1-.7v-4Z" fill="#d6d6d3"/>
        <path d="M982,286.8c.2,0,.5,0,.7,0,.2,0,.5,0,.7,0,5.1,4,11.5,5.7,17.7,7.5,6.6,1.9,14.4,2.4,20.6,5.2-.3.3-.5.5-.8.8-5.7-2-11.6-3.3-17.8-3.7-8.1,19.4-16.1,38.9-23.9,58.4-3.9,9.7-7.5,19.5-11.7,29-1.9,4.4-3.4,8.2-4.6,12.8-.9,3.5-2.5,7.6-5.8,9.2,1.7-2.6,3.4-5.1,5-7.7-.2-.2-.4-.4-.6-.6-4.6,3.5-7.4,9.7-10.6,14.5-3.5,5.3-8.5,9.3-13.3,13.4-5.3,4.7-10.9,9.1-16.4,13.6-4.5,3.7-6.9,8.6-10,13.5-4.2-12.2-12.5-20-21.7-27.1-1.5-1.2-2.9-2.4-4.5-3.4-1.9-1.2-4-2.3-6-3.4.9.2,1.9.4,3.2.7,1.3-2.5,2.7-4.8,4.1-7.5-2.1-1-3.5-1.7-5-2.4-1.6,2.4-5.8,6.8-2.3,9.3-1.5-.4-3.2-.6-4.6-1.2-10.9-4.4-22.2-7.5-33.8-9.3-2-.3-4.2-.6-5-2.9,9.5-9.2,19.6-17.7,29.2-26.8,4.2-4,6.9-9.1,10.9-13,4.1-4.1,9-7.6,13.3-11.7-.2-.2-.4-.4-.6-.6-.9.6-1.7,1.2-2.6,1.8-4.6.6-9.5,6.4-12.8,9.6-2.8,2.8-9.5,8.9-9.7,12.9-6.5,5.7-13,11.5-19.5,17.2-.5-.5-1-1.1-1.3-1.4.2-1.7.4-3.1.6-4.6h0c.8-2.9,2.1-5.8,2.2-8.8.4-9.6,0-19.3,2.9-28.6.2-.7-.3-1.5-.5-2.3,6.3-18.1,15.1-35,25-51.5,10.1-16.7,19.7-33.8,30.2-50.3,9.4,4.5,18.9,8.8,28,14,2.3,1.4,4.7,2.7,7.2,4.2-7.9,13.2-18.9,25.3-25.2,39.4-5,8-9.9,16-14.9,23.9.2.2.4.4.6.6,8-8,12.6-19.5,19.5-28.4.5-.3,1.2-.4,1.5-.8,3.1-4.5,6-9.1,9.1-13.6,4.3-6.5,8.6-12.9,12.8-19.2,1.5.2,2.6.4,3.7.5,11.4,3.9,21.5,11.1,32.9,15,1,.4,2,.7,3.2,1.2,0,.2-.1.7-.2,1.1-9.8,11.3-20.1,22.1-28.5,34.5-.6.4-1.3.6-1.7,1.1-9.7,14.5-19.5,29-29.1,43.6-.7,1-1,2.2-1.4,3.4,0,.4,0,.8-.3,1.1-9.1,14.9-18.1,29.9-27.2,44.8-.6,1-1,2.1-1.4,3.1.3.2.6.3.8.5,1.6-2.3,3.2-4.6,4.8-6.8,3.4-1.1,6.3-8.6,8.1-11.7,2.5-4.2,6.6-8.9,6.9-13.8,4.5-7,9-14,13.5-21,.6-.4,1.3-.6,1.7-1.1,8.7-13,17.5-26,26.1-39.1.7-1,1-2.2,1.4-3.4,3.1-4.4,5.9-9.1,9.3-13.2,5.7-7,11.8-13.6,17.7-20.4ZM896,422c3.6,2.2,6.9,4.1,10.4,6.2,1.5-2.7,2.7-4.8,4.1-7.2-3.4-2.2-6.5-4.1-10-6.3-1.5,2.4-2.8,4.6-4.5,7.2ZM980.2,314.1c-1.1.7-1.9,1.4-2.9,2-1-.5-1.8-.9-2.9-1.4-.5,1.2-.9,2.1-1.4,3.1.7.7,1.3,1.1,1.8,1.7,1.1-.6,2.1-1.1,3-1.6,1,.2,1.9.5,2.6.7,2.1-1.7,1.8-3.1-.3-4.5Z" fill="#f5f0d8"/>
        <path d="M1171.8,278.5c5.1-.6,9.9-.5,14.1-3.8,4.1-3.2,5.7-3.8,11.1-3.8,10,0,19.9,0,29.9-.5-32.9,30.9-68,59.7-101.9,89.5-34.6,30.3-69.3,60.6-103.8,91-19.3,17-38.6,34-57.9,51-1.4-7.2-.4-15.2,0-22.6.4-7.3,1.1-14.5,2.3-21.7,2.5-14.9,5.5-29.8,9-44.5,3-12.7,6.6-25.4,11.4-37.5,4.2-10.6,9.4-23.1,19.7-29.1,9.6-5.6,22.4-7.2,31.9-.8,4.6,3.1,7.7,7.6,11.4,11.6,4.6,4.9,8.2,5.4,14.8,5.5,4.9.1,11.2.6,15.9-1.5,4.3-1.9,4.6-6,5.5-10.1,2.3-10.5,8.3-16.3,18.3-19.7,8-2.7,25.6-6.9,27.2-16.9.4-2.4-.4-4.6,1.1-6.7,1.5-2.1,4.3-3,6.5-4.2,2.6-1.5,5-3.6,8.2-3.4,2.9.2,5.9,2,8.6,3.1,6.2-6.8,11.1-14.8,16.1-22.5.2-.8.5-1.5.7-2.3Z" fill="#bedc89"/>
        <path d="M1171.1,280.8c-5,7.7-9.9,15.8-16.1,22.5-2.7-1.1-5.7-2.9-8.6-3.1-3.2-.2-5.6,1.9-8.2,3.4-2.1,1.2-5,2.1-6.5,4.2-1.5,2.1-.7,4.3-1.1,6.7-1.6,10-19.2,14.2-27.2,16.9-10,3.4-16,9.2-18.3,19.7-.9,4.1-1.2,8.2-5.5,10.1-4.6,2.1-11,1.6-15.9,1.5-6.6-.2-10.2-.7-14.8-5.5-3.7-4-6.8-8.5-11.4-11.6-9.5-6.3-22.3-4.8-31.9.8-10.3,6-15.5,18.6-19.7,29.1-4.9,12.2-8.4,24.8-11.4,37.5-3.5,14.7-6.5,29.6-9,44.5-1.2,7.2-1.9,14.4-2.3,21.7-.4,7.3-1.5,15.4,0,22.6-5.7,5.5-11.6,10.7-17.6,15.8-2.3-2.7-3.7-5-7.1-6-1.1-1.5-2.6-2.8-3.2-4.4-1.7-4.3-3.9-8.2-7.3-11.3-3.5-6.3-7.1-12.7-9.3-19.6-2.2-7-3.1-14.4-4.5-21.6,0-1.1.2-2.5.3-3.8,4.1-9,12.5-14.2,19.7-20.5,4.2-3.7,8.8-7,12.6-11,3.9-4.1,7.1-8.8,10.3-13.4,3.3-1.5,5-5.7,5.8-9.2,1.2-4.6,2.6-8.5,4.6-12.8,4.2-9.5,7.8-19.4,11.7-29,7.8-19.5,15.8-39,23.9-58.4,6.2.4,12,1.7,17.8,3.7,3.9,1.5,7.9,2.8,11.8,4.4,3.9,1.6,7.7,3.5,11.5,5.3,8.3,4.2,16.5,8.7,25.1,12.3,4.7,2,10.2-.1,13.5-4.1,6.9-8.5,13.7-17,20.4-25.6.4-.5.2-1.4.3-2.1,2.2-2.8,4.5-5.5,6.7-8.3,1.3-.7,2.6-1.3,3.9-2,5.3,3.6,10.7,7.2,16.6,11.1,3.1-4.7,5.9-9.2,8.8-13.6,4.9,2.7,10.4,2.4,15.8,2.1,4.5-.3,12.3-2.1,15.8.9ZM933.7,447.9c-3-1.7-5.6-3.1-8.5-4.7-1.2,2.2-2.2,4-3.5,6.2,2.7,1.6,5.2,3.1,8.1,4.8,1.2-2,2.4-3.9,3.8-6.3ZM948.7,434.3c-2.4-1.4-4.3-2.6-6.6-3.9-1.3,2.1-2.5,4-3.8,6.2,2.3,1.4,4.3,2.7,6.6,4.2,1.3-2.1,2.4-4,3.8-6.4ZM1033.5,322.1c-1.3-.7-2.1-1.1-2.9-1.5-.3.1-.6.3-.9.4.2,1.2.5,2.5.7,3.7.3,0,.7,0,1,0,.6-.7,1.2-1.4,2.2-2.7Z" fill="#f9f7e8"/>
        <path d="M948.2,560.5c-4.7,6.3-9.5,12.5-14.2,18.8-3.5.3-6.8,10.7-8.5,13.7-1.5,2.7-3.1,5.4-5,7.9-1.1,1.4-4.2,3.7-3.8,5.4-5.4,3.2-10.8,6.4-16.3,9.6-2.8,1.6-5.7,3.1-8.5,4.6-2.6-1.6-8.4,3.3-10,5.3-3.3,4-4.4,10.4-6,15.3-14.7-2.5-28.8-4.8-43.5-7.3,1.7-10.1,3.5-19.9,6.1-29.8,1.4-5.3,2.8-10.5,4.2-15.8,1.2-4.4,3.5-9.6,2.8-14.1,1.7-4.7,3.2-9.6,5.2-14.2,2.2-4.9,5-9.5,7.5-14.3,3.2-.3,7.6-10.8,9.3-13.7,2.5-4.1,8.3-10.7,8-15.5,2-3.3,4-6.5,5.9-9.8,3.1-.3,7.4-10.4,9.1-13.2,2.9-4.9,7.6-10.3,8.2-16,3.2-5.3,6.5-10.5,9.7-15.8.9-.5,1.7-1.1,3-1.8,2.2,9.7,3.7,19.2,8.2,28.1,2.2,4.4,4.6,8.6,7,12.8,1.7,2.9,4.1,9.4,7.3,10.4.3.1.6.2,1.2.4.1-.4.2-.8.3-1.2,2.1,2.5,4.2,5,6.3,7.4.4.5,1.3.6,1.9.8,2.5,3,5,6,7.5,9,.4,5.6,1.3,11.5,1.2,17.1-.2,5.8-3.2,10.4-4.2,15.9ZM949.4,552.5c-2-1.6-3.5-2.8-5.3-4.2-2.1,2.8-4,5.2-6,7.9,1.7,1.5,3.1,2.6,4.8,4.1,2.3-2.7,4.3-5.1,6.5-7.8ZM910.9,567.4c-1.5,1.5-2.9,2.8-4.5,4.4,2,1.7,3.4,2.8,5,4.2,1.6-1.8,2.8-3.2,4.3-4.9-1.6-1.3-2.9-2.2-4.9-3.7ZM925.4,580c-1.7-1.6-3-2.8-4.8-4.4-1.5,1.9-2.7,3.5-4.1,5.2,1.6,1.3,2.9,2.3,4.2,3.3,1.5-1.3,2.9-2.5,4.7-4.1ZM896.7,601c-.4,3.3-.8,5.9-1.1,8.8,1.4.4,2.4.7,3.6,1,.6-3.3,1.1-6.1,1.7-9.4-1.6-.2-2.7-.3-4.2-.4ZM912.6,503c-.8-.9-1.5-1.6-2.5-2.6-.8,1.3-1.3,2.2-1.7,3,1.6,2.1,2.7,1.9,4.2-.4Z" fill="#f9f7e8"/>
        <path d="M751,367c-1.8-1.2-3.5-2.5-5.3-3.7.6-.5-10.7-23.8-12.7-24.8l-6.8-13.5c-1.8-3.5-3.5-7.1-5.3-10.7,10.8-5.7,23.1-9.3,34.5-13.7,5.2-2,10.1-4,15.8-3.3,5,.7,8.8,4,13.5,5.2,1,.7,2,1.5,3,2.2,0,.4,0,1.1.1,1.1,4.2,1.9,8.2,4.5,12.6,5.5,11.4,2.7,23,4.6,34.5,6.9,7.2,3.8,5.5,11.6,5.8,18.7.3,7.3,1.2,14.5,1.5,21.8.3,7,0,14.6-.7,21.6-.8,6.9-5.1,13.7-5.1,20.4-.5.8-1,1.5-1.4,2.3-1.1.9-2.1,1.8-3.3,2.8-5-2.5-10.1-5-15.2-7.6-20.5-10.3-41-20.5-61.6-30.7-1.1-.6-2.6-.4-3.9-.6Z" fill="#f9f7e8"/>
        <path d="M739,355c2.4,4.2,4.1,8.7,8.2,11.5,4.6,3.1,10.1,5.4,15,8-.6.7,13.2,7.4,14.7,8.2,5.8,2.9,11.7,5.8,17.5,8.7,11.7,5.8,23.5,11.4,35,17.6-.5,2-.9,3.6-1.2,5.2-1.7,2.5-3.5,5-5.2,7.5-3.7,2.5-5.7,6.6-8.1,10.3-2.7,4-5.2,8.1-7.6,12.2h0c-5.2,5.6-8.7,12.6-13.5,18.6-.3-.1-.6-.3-.9-.4,0-8.4.5-16.2,1.8-24.5,1.1-6.8,2.1-13.6-5.4-17-3.3-2.3-7.2-3-10.9-2.9-6.5.2-12.4-1.7-18.4-3.8-4.7-1.3-9.5-2.6-14.2-3.9-4.7-1.3-9.5-2.5-14.3-3.7-7.5-2.2-15-4.5-22.5-6.7-5.1-3.4-6.9-7.7-9-13.3-2.4-6.1-4.9-12.2-7.5-18.3-2.6-6.8-4.4-14.2-8.9-20.1-3.9-5.1-10.5-8.4-8.6-15.8,2-1.1,4.5-2.5,7-3.9.6-.2,1.2-.3,1.8-.5,6.9-2.6,13.8-5.2,20.7-7.8,4.2-1.7,8.4-3.4,12.7-5.2,1.9,3.8,3.6,7.1,5.3,10.5,2.8,4.8,5.3,9.8,7.9,14.8,2.5,4.7,4.6,11,8.6,14.5ZM813.6,419.8c1.9,1,3.4,1.8,5.3,2.9,2.3-4.8,4.4-9.3,6.7-14.1-2.3-.8-4-1.4-5.9-2.2-2.1,4.6-4,8.7-6.1,13.4Z" fill="#f9f7e8"/>
        <path d="M647.5,549.2c.5-.5,1-1,1.5-1.5,2.1-.4,3.6-1.9,5.6-2.7,2.5-1,5.1-1.2,7.7-1.1,6.2.1,11.8,0,18-1.2,6.4-1.2,12.7-2.6,19.1-3.9,5.6-1.2,10.3.8,15.7,2.2,1.5.5,2.9,1,4.4,1.4,5.7,3.3,12.1,3.8,18.5,4,.3,2.8.6,5.2.9,8.4-3.2-2.1-5.9-3.9-8.9-5.9-.9,1.4-1.7,2.6-2.7,4.2,3.3,2.2,6.4,4.3,9.4,6.3,1.1-1,1.9-1.6,2.6-2.2.5.8.8,1.3,1.2,1.8-1.2,3.8-2.5,7.5-3.7,11.3-.7-.6-4,7.3-4.6,8.3-1.8,3.7-3.7,7.4-5.6,11.1-1.9,3.7-4,7.3-6.1,10.8-2.1,3.6-5,6.8-5.5,11-3.1,3-6.1,6-9.3,8.9-3,2.7-6.3,5.1-9.4,7.6-2-1.5-6.6,4.6-8.9,5.3-4.4,1.3-8.6-2.4-12.1-4.6-4-3.8-8-7.5-12-11.3-4.2-4-8.5-8-12.7-12-3.8-3.5-7.5-7-11.3-10.5-3.2-2.8-5-6.3-6.1-10.3-1.9-6.9-1.4-13.7.9-20.4,0,0,0,0,0,0,4.5-4.4,9.1-8.8,13.5-13.3.3-.3,0-1.2,0-1.8ZM689.4,626.8c2.7-2.4,5.2-4.5,7.8-6.8-1-1.4-1.7-2.3-2.9-3.9-2.8,2.3-5.5,4.4-8.4,6.8,1.4,1.5,2.4,2.6,3.6,3.9Z" fill="#f9f7e8"/>
        <path d="M1009.8,594.2c.7,1,1.5,2,2.2,3-.2.6-.6,1.3-.6,1.9,0,3.8,0,7.7-.1,11.5-15.4-2.4-30.7-4.8-46.1-7.2-2.6,16.9-5.7,33.8-8.6,50.7-11.1-.6-22.3-3.3-33.3-5.2-11.4-2-22.8-3.7-34.3-5.3-3-.4-6-.8-8.9-1.2-1.2-8.4,3.1-15.9,11.4-20.3,7.1-3.7,14-7.7,21.1-11.3,6.2-3.1,9.9-8.5,13.9-13.8,0,0,.2.2.3.3.8-1.7,7.3-13.2,6.5-13.8,1.5-2.3,3-4.5,4.4-6.8,2.4.5,11.7-12.6,11.3-15,.7-1,1.5-2,2.2-3,6-2.8,6.2-18.4,4.7-23.5,5.6,3.1,8.2,10.5,14.2,13,3.1,3.3,6.3,6.6,9.4,10,2.2,2.4,4.2,4.8,6.3,7.3,1.2,5.4,7.4,10.6,11,14.9,4.1,4.9,7.8,10,13,13.6ZM971.1,587.2c-3.8-.5-6.6-.8-9.6-1.2-.5,3-.9,5.4-1.4,8.2,3.3.5,6.1,1,9.5,1.6.5-2.9,1-5.5,1.5-8.6ZM919.3,624.5c-3.3-.6-6-1.1-9-1.7-.4,1.3-.7,2.4-1.2,4,3.3.5,6.1,1,9.1,1.5.4-1.4.7-2.2,1.1-3.7ZM931.4,593.1c1.5,1.6,2.7,2.9,4.3,4.6,1.4-1.9,2.6-3.5,3.9-5.2-1.9-1.2-3.2-2.1-4.8-3.1-1.2,1.3-2.3,2.4-3.4,3.7Z" fill="#f9f7e8"/>
        <path d="M646,547.8c-.2.2-.5.5-.7.7-3.6,3.4-7.2,6.7-10.8,10.1-.3-.1-.5-.3-.8-.4,1-9.1,2.5-18,4-27,.2-1.2.4-2.4.7-3.7.8-2.3,1.6-4.5,2.3-6.8,1,3,3.5,3.7,6.3,4.6,1.3-2.2,2.4-4.2,3.6-6.2-2.1-1.4-3.8-2.5-5.5-3.7-1.6,1.9-3,3.6-4.4,5.3.5-3,1-6,1.5-9,1-2.7,1.9-5.5,2.9-8.2,3.1-.3,7.5-9,7.6-12l3.7-5.3c2.9-1.3,4.7-5.3,6.4-7.9,2.3,0,2.5,3.4,4.9,1.9,3.8,2.7,7.5,5.5,11.3,8.2,3.8,5,11,8.1,16.4,11.2,5.5,3.2,11.1,6.1,16.6,9.1,11.2,6,22.4,12,33.7,17.8-1.7,2.5-2.7,4-3.1,6.9-1.5,3-3,6.1-4.8,9.6-3.9.6-8.3,1-12.5-1.3.6-.8-7.7-3.1-8.6-3.4-3.4-1.1-6.9-2.9-10.5-3.6-7.2-1.3-15.1,2.5-22.1,3.8-7.9,1.5-15.6,1.5-23.6,1.6-5.7,0-12.2,2.1-14.8,7.6Z" fill="#f9f7e8"/>
        <path d="M769.8,256.8c2.2-3,4.5-6,6.7-9,1.3-.9,2.5-1.7,4.1-2.8,17.6,7,35.3,14,53,20.9,0,0,0,0,0,0-1.9,7.9-1.6,18.7-.6,26.8,1,8,6.1,14.6,6.1,22.9-13.7-2.7-28.6-3.9-41.6-9.1-6.1-2.4-11.1-6.3-16.7-9.6-2.6-1.5-5.4-2.7-8.4-3.2-2.3-.4-5,.3-7-.7-.6-6.4-2.1-13.1-1.5-19.6.3-3,1.1-6,2.3-8.7,1.2-2.7,3.6-4.8,3.6-7.8Z" fill="#f9f7e8"/>
        <path d="M995.5,712c-.4.4-.9,1.1-1.3,1.1-7.6-1.3-15.1-2.7-22.7-4,.3-.1.6-.2,1.5-.6-20.1-3.4-39.6-6.7-59.2-10v-3.7c.2-1.2.5-2.5.7-3.7,1.7-2.2,1.6-7.2,2-9.9.5-3,.9-6,1.4-9,1-6.6,2.1-13.1,3.6-19.6,26.6,4.6,53.7,8,80,13.9v5.1h0c-1.1,5-2.2,9.9-3.4,15.1-14.6-2.4-28.8-4.8-43.1-7.1,0,.3,0,.6-.1.9,14.3,2.4,28.7,4.9,43.3,7.3-.8,4.9-1.7,9.6-2.3,14.4-.4,3.2-2.3,6.4-.5,9.7ZM951.5,673.3c-.3,0-.5,0-.8-.1-.8-1.1-1.7-2.1-2.7-3.4-1.6.4-3.1.7-4.9,1.2-.9,4.8-2.4,9.4-2,14.5,2.8.4,5,.7,7.8,1.2.9-4.7,1.7-9,2.5-13.3ZM922.4,658.5c-1.7,9.9-3.3,19.3-5,29.2,2.3.4,4.2.7,6.4,1.1,1.6-10,3.1-19.4,4.6-28.8-2.2-.5-3.6-.9-6-1.5ZM978.8,675.6c2.3.5,3.9.8,6.3,1.3.5-3.2,1.1-6.2,1.7-9.7-2.5-.4-4.4-.6-6.6-.9-.5,3.5-.9,6.2-1.4,9.4ZM967.4,673.9c.6-3.3,1.1-6.2,1.7-9.2-2.9-.8-5.5-2.4-8.8-.6-.3,2.7-.7,5.6-1,8.8,3,.4,5.4.7,8.1,1.1ZM965.3,690.7c-2.8-.5-5.5-.9-8.8-1.4-.2,2.2-.4,3.9-.6,5.7,3.5.7,6.3,2.3,9.5.4v-4.7Z" fill="#f0eee0"/>
        <path d="M1045.8,276.3c4.4-4.2,8.7-8.4,13.1-12.6,2.8-2.6,5.7-5.1,8.6-7.7,2.6-.2,3.6-1.6,5.6-3.4,12.5,8.4,24.8,16.7,37.2,25.1-3.7,4.6-7.4,9.2-11.1,13.8-3.2,4-7.8,8.2-9.2,13.2-4,4.7-8,9.5-12,14.2-2.3-.8-4.4.3-6.8-.1-2.4-.4-4.6-1.8-6.9-2.8-4.8-2.3-9.6-4.6-14.4-7-.4-4.6-.8-8.2-1.1-11.8-1.1-2.6-2.2-5.2-3.3-8.1,1.6.6,2.8,1,4.1,1.5.9-1.3,1.5-2.2,2.1-3.2-.2-.2-.5-.4-.7-.6-.6,1-1.2,2-2.1,3.5-1.9-2.2-3.3-3.9-4.5-5.3v-4.3c.2,0,.4,0,.6,0,.3-1.5.6-3,.9-4.6ZM1047.3,282.9c.2.1.4.3.6.4,1.3-1.6,2.6-3.2,3.9-4.7,1,0,1.7.1,2.4.2,0-.2.1-.4.2-.6-.9-.5-1.8-1-2.9-1.6-1.5,2.3-2.9,4.3-4.2,6.2Z" fill="#f9f7e8"/>
        <path d="M855.2,326.5c-2.3,5.3-4.6,10.6-6.9,15.9-.3.8-.9,1.4-1.3,2.2-.5.3-.9.5-1.5.8-.3-1.9-.6-3.7-.7-5.5-.8-10-1.3-20-2.4-30-.4-3.3-2.4-6.4-3.6-9.6h0c0-.4,0-.8,0-1.1-3.9-8.7-1.7-17.9-2.1-26.9,0-1.4.7-2.8,1-3.8,1.6-.2,2.9-.3,4.1-.5,5.3,2.2,10.5,4.5,15.8,6.7,2.1,8.9,1.2,18.1.9,27.2-.1,4.4.1,9-.5,13.4-.6,3.9-2.5,7.2-2.7,11.1Z" fill="#f9f7e8"/>
        <path d="M1090,304.7c1.4-4.9,6-9.2,9.2-13.2,3.7-4.6,7.4-9.2,11.1-13.8-12.5-8.4-24.7-16.7-37.2-25.1-1.9,1.8-2.9,3.1-5.6,3.4,3.8-3.6,7.4-7.4,11.4-10.7,1.5-1.2,4.1-1.2,6-1.7,12,8,23.5,15.7,35.3,23.6-10.3,12.9-20.2,25.2-30.2,37.6Z" fill="#f5f0d8"/>
        <path d="M1139.5,277.8c-2.9,4.4-5.8,8.9-8.8,13.6-5.9-3.9-11.3-7.5-16.6-11.1-1.3.7-2.6,1.3-3.9,2,3.9-4.8,7.7-9.7,11.4-14.3,6.3.5,10.7,3.4,14.9,6.8,1,1,2,2,3,3.1Z" fill="#f5f0d8"/>
        <path d="M871.7,296.5c-1,1.5-2,3-2.9,4.5-2.9,1.9-4.5,5.6-6.3,8.5-.2,0-.4-.2-.6-.3.4-10.4.7-20.7,1.1-31.5,5.1,2.1,9.8,4,14.9,6.1-2.6,4.2-4.9,7.9-6.2,12.7Z" fill="#f9f7e8"/>
        <path d="M1001.5,671.5v-5.1c-26.3-5.9-53.4-9.3-80-13.9-1.5,6.5-2.6,13-3.6,19.6-.5,3-.9,6-1.4,9-.4,2.7-.4,7.7-2,9.9-.2-1.5-.5-3-.7-4.5,2.7-4.7,2.8-11,3.6-16.3,1-6,1.9-11.9,2.8-17.9-13.3-2.2-26.5-4.4-40.4-6.7,4.7,17.1,9,33.2,13.4,49.4,5.5,1.3,11.2,2.3,16.7,3.5h0c-5.8-.7-11.5-1.5-17.4-2.3-4.7-17.4-9.3-34.3-14.1-51.9,41.8,7,83,14,124.5,21-.6,2.4-1.1,4.3-1.5,6.1Z" fill="#e2e1da"/>
        <path d="M1011.2,610.7c0-3.8,0-7.7.1-11.5,0-.7.4-1.3.6-1.9,1.8,5.5.7,10.9-.2,16.4-1,5.8-2,11.6-2.9,17.4-1.8,10.7-3.6,21.4-5.5,32.1-19.6-3-39.1-6.3-58.6-9.7-18.5-3.2-37.6-5.2-55.8-9.8,11.4,1.6,22.9,3.4,34.3,5.3,11,1.9,22.1,4.6,33.3,5.2,4.7,1.2,9.4,2.6,14.5,1.9,1-5.9,2-11.4,2.9-17,.3,0,.5,0,.8.1-.9,5.8-1.7,11.6-2.6,17.8,3.6.7,6.8,1.2,10,1.8.6-1.3,1-2.2,1.4-3.2,1.2.2,2.3.4,3.4.6v3.6c5.3.8,10.4,1.5,15.8,2.3,2.9-17.6,5.7-34.5,8.5-51.3Z" fill="#e0e0da"/>
        <path d="M769.8,256.8c0,2.9-2.4,5.1-3.6,7.8-1.2,2.8-2,5.7-2.3,8.7-.7,6.5.8,13.1,1.5,19.6,2,1,4.7.3,7,.7,3,.5,5.8,1.7,8.4,3.2,5.7,3.2,10.6,7.1,16.7,9.6,13,5.2,27.9,6.5,41.6,9.1,0-8.4-5.1-14.9-6.1-22.9-1.1-8.1-1.3-18.9.6-26.8.8,8.9,0,17.9.8,26.8.4,4.4,2.3,7.7,3.7,11.8,1.4,4.1,1.7,8.4,2.4,12.7-13.5-2.9-27.9-4.4-40.9-8.8-11.8-4-21.6-15.9-34.9-13.8-1.6-13.3-4.1-26.5,5.2-37.7Z" fill="#e3e2dd"/>
        <path d="M845.5,574c.7,4.6-1.6,9.7-2.8,14.1-1.4,5.3-2.8,10.5-4.2,15.8-2.6,9.9-4.4,19.7-6.1,29.8,14.7,2.5,28.9,4.8,43.5,7.3,1.6-4.9,2.7-11.2,6-15.3,1.6-2,7.5-6.9,10-5.3-3.8,1.9-7.7,3.4-10.1,7.2-2.6,4.2-3.8,9.8-5.4,14.4-15.2-2.6-30.1-5.1-45.1-7.7,2.8-20.8,8.2-40.7,14.1-60.5Z" fill="#e2e1dc"/>
        <path d="M1021.7,682c-6.3.4-12.1-.8-18.3-1.9-1.3,7.8-2.4,14.9-3.7,22.3,1.6.3,2.8.6,4.8,1-2.1.2-3.4.4-5.1.5-.9,5.2-1.8,10.4-2.6,15.7,5.7,1,10.9,1.9,16,2.7,0,.3-.1.6-.2.9-5.3-.8-10.6-1.7-16-2.6-1.7,9.9-3.3,19.3-5,28.6-.2,0-.5,0-.7,0,1.9-11.9,3.9-23.8,5.9-35.7.9-5.5,1.9-11.1,2.8-16.6.8-5,.6-13.7,3.4-17.9,6.2.9,12.4,1.8,18.6,2.7Z" fill="#dfded7"/>
        <path d="M751,367c1.3.2,2.8,0,3.9.6,20.5,10.2,41,20.5,61.6,30.7,5.1,2.6,10.2,5.1,15.2,7.6,1.2-1,2.3-1.9,3.3-2.8-.7,1.2-1.3,2.4-2.2,4-13.9-5.3-27.1-13-40.4-19.7-13.8-6.9-27.5-13.9-41.4-20.4Z" fill="#e3e2dc"/>
        <path d="M742.7,533.5c.4-3,1.4-4.5,3.1-6.9-11.3-5.8-22.5-11.8-33.7-17.8-5.6-3-11.2-5.9-16.6-9.1-5.4-3.1-12.7-6.2-16.4-11.2,11.3,6.7,22.6,13.5,34,20.1,11.1,6.4,22.8,11.5,34.2,17.5-1.6,2.6-3,5-4.4,7.4Z" fill="#e3e2dd"/>
        <path d="M740.5,559c-.3-.5-.7-1-1.2-1.8-.7.6-1.5,1.3-2.6,2.2-3.1-2-6.1-4.1-9.4-6.3,1-1.6,1.8-2.8,2.7-4.2,3,2,5.7,3.7,8.9,5.9-.3-3.2-.6-5.6-.9-8.4-6.4-.2-12.8-.8-18.5-4,6.4,1.6,12.8,2.6,19.2,3.7.6,4.1,1.1,8.4,1.7,12.8Z" fill="#dad9d7"/>
        <path d="M836.5,400.7c0-6.7,4.3-13.5,5.1-20.4.8-6.9,1-14.6.7-21.6-.3-7.3-1.2-14.6-1.5-21.8-.3-7.1,1.3-14.9-5.8-18.7.2-.2.5-.5.7-.7,6.6,2.6,5.4,10.2,5.9,16.1.6,8.3,1.6,16.7,1.6,25,0,7.1-.1,14.4-.7,21.5-.6,7.6-4.2,13.6-6,20.7Z" fill="#e4e4de"/>
        <path d="M991,749.5c.2,0,.5,0,.7,0-.4,1.7-.8,3.4-1.4,5.7-1.4-1-2.2-1.6-2.8-2,.2-1.7.3-3.1.6-5.2-8-1.4-15.7-2.7-24.1-4.2.2-2.4.3-4.6.5-7.2,8.6,1.5,16.5,2.8,24.6,4.2.2-.6.4-1.2.6-1.9.4.1.6.4.5.9-.6,4.3-1.1,8.6-1.7,12.9.4.1.8.2,1.2.4.4-1.2.8-2.4,1.3-3.6ZM988.4,741.7c-7.7-1.2-14.9-2.4-22.5-3.7-.5,1.6-.9,2.8-1.5,4.7,8,1.4,15.6,2.6,23.3,3.9.3-1.9.5-3.3.7-5Z" fill="#e0ddd1"/>
        <path d="M828.2,414.2c.4-1.6.8-3.2,1.2-5.2-11.5-6.2-23.3-11.8-35-17.6-5.8-2.9-11.7-5.8-17.5-8.7-1.6-.8-15.3-7.5-14.7-8.2,11.9,4.6,23.2,11.3,34.6,17,11.5,5.8,23.1,11.4,34.5,17.3-1.1,1.9-2.1,3.7-3.1,5.5Z" fill="#e3e2de"/>
        <path d="M841,244c.2,0,.5,0,.7,0-1.5,6.4-3.6,13-4.3,19.5,6.9,2.8,13.8,5.5,21,8.4,1.5-6.9-1.3-14.9-.8-22.1.1-1.9,4.1-19.4,5.9-17.9-2.2,6.9-4.8,13.4-4.9,20.8,0,6.9.8,13.9,1.3,20.8-8.1-3.2-15.6-6.2-23.6-9.3,1.6-6.8,3.2-13.5,4.7-20.2Z" fill="#e2e2dc"/>
        <path d="M995.5,712c-1.9-3.3.1-6.5.5-9.7.5-4.8,1.5-9.5,2.3-14.4-14.6-2.5-29-4.9-43.3-7.3,0-.3,0-.6.1-.9,14.2,2.4,28.4,4.7,43.1,7.1,1.2-5.2,2.3-10.2,3.4-15.2-.6,4.5-1.2,9-1.9,13.5-1.4,9-2.8,18-4.2,27Z" fill="#e1dfd5"/>
        <path d="M784.7,302.5c-4.7-1.2-8.5-4.6-13.5-5.2-5.7-.8-10.6,1.3-15.8,3.3-11.4,4.4-23.7,8-34.5,13.7,1.8,3.7,3.6,7.2,5.3,10.7,0,.3,0,.5,0,.8-2.3-3.9-4.6-7.9-7.1-12.1,11.6-4.6,23.4-8.8,34.9-13.6,10.9-4.5,21-5.4,30.7,2.5Z" fill="#e2e2dc"/>
        <path d="M1103.5,290.5c0,.7,0,1.6-.3,2.1-6.8,8.6-13.5,17.2-20.4,25.6-3.3,4-8.7,6.1-13.5,4.1-8.6-3.6-16.8-8.2-25.1-12.3h.8c2.4,1.1,4.8,2.1,7.1,3.2,5.3,2.5,10.5,5,15.8,7.5,5,2.3,10.7,1,14.1-3.2,7.2-9,14.3-18,21.5-27Z" fill="#e3e2dd"/>
        <path d="M646,547.8c2.6-5.5,9.1-7.5,14.8-7.6,8,0,15.7-.1,23.6-1.6,7-1.3,14.9-5.1,22.1-3.8,3.6.7,7,2.5,10.5,3.6.9.3,9.1,2.7,8.6,3.4-6.7-2.1-14.3-5.9-21.3-6.4-6.5-.4-13.7,3.1-20.1,4.1-12.6,1.9-28.2-1.5-38.1,8.3Z" fill="#e2e2db"/>
        <path d="M871.7,296.5c1.3-4.8,3.6-8.5,6.2-12.7-5.1-2.1-9.8-4-14.9-6.1-.4,10.8-.7,21.2-1.1,31.5.2,0,.4.2.6.3,1.8-2.9,3.3-6.6,6.3-8.5-2.2,3.9-4.5,7.7-6.7,11.6-.3,0-.7-.1-1-.2.4-11.7.7-23.3,1.1-36,6,2.4,11.5,4.5,17.2,6.8-2.7,4.7-5.1,9-7.6,13.3Z" fill="#e2e1dc"/>
        <path d="M913.7,694.7v3.7c19.6,3.3,39.1,6.6,59.2,10-.9.4-1.2.5-1.5.6-20.6-3-41.2-6.1-61.5-10.5h0c.9-.1,1.8-.2,3-.4v-4.1c.2.3.5.5.7.8Z" fill="#e2e1da"/>
        <path d="M992.5,729.2c-8.7-1.5-17.5-3-26.2-4.8.4-2.4.7-4,1.2-6.3,8.4.3,16.5,2.4,24.7,3.7.1-.2.4-.6.7-1.1.1.4.3.7.4,1.1-.3,2.5-.5,5-.8,7.5ZM967.6,723.8c7.8,1.3,15.1,2.5,22.9,3.8.2-1.7.4-3.2.6-5-7.7-1.3-15-2.5-22.7-3.8-.2,1.6-.4,3-.7,5Z" fill="#e0ddd1"/>
        <path d="M789.3,421c7.5,3.4,6.5,10.1,5.4,17-1.3,8.3-1.8,16.1-1.8,24.5.3.1.6.3.9.4,4.8-6,8.3-13,13.5-18.6-4.6,7.2-9.1,14.3-13.9,21.4-3.2-8.7-1.3-16.9,0-25.7,1.2-7.7,2.4-14.1-5-18.9h.8Z" fill="#e2e1dc"/>
        <path d="M776.5,546.3c.2,0,.5,0,.7,0,13.5,21.8,10.1,47.8,9.8,72-1.3-6.1-.3-12.6-.2-18.9.2-6,.2-12.1-.4-18.1-1.2-12.3-4.8-23.8-9.9-35Z" fill="#dfddd5"/>
        <path d="M1009,648.2c-.3-.3-.5-.5-.8-.8,1.9-12.1,4-24.2,5.9-36.3.8-5.3,1.5-10.1-1.1-15-2.4-4.6-6.7-8.6-10.1-12.5,1.6-1.8,8.7,8.2,9.4,9.6,2.3,4.2,3.7,9.1,3.4,13.9-.9,13.7-6.5,27.2-6.7,41Z" fill="#e2e2dc"/>
        <path d="M934,511c-3.2-1-5.6-7.5-7.3-10.4-2.5-4.2-4.9-8.4-7-12.8-4.5-9-6.1-18.4-8.2-28.1-1.2.7-2.1,1.3-3,1.8.7-1.4,1.5-2.8,2.2-4.2.3,0,.7,0,1,0,2.2,9.2,3.4,18.8,7.4,27.4,4.2,9.1,9.8,17.6,14.9,26.2Z" fill="#e3e2dd"/>
        <path d="M809.5,556.8c0,.9.1,1.9-.3,2.6-5.6,9.4-11.3,18.7-17,28.1-.4,10-.7,20-1.1,30-.1,0-.2,0-.4,0,0-1.3-.1-2.5-.2-3.8.2-9,.3-17.9.5-26.3,6.3-10.6,12.3-20.6,18.3-30.7Z" fill="#e1dfd5"/>
        <path d="M715.1,541c-5.4-1.4-10.1-3.3-15.7-2.2-6.4,1.3-12.7,2.8-19.1,3.9-6.2,1.1-11.7,1.3-18,1.2-2.7,0-5.2.1-7.7,1.1-2,.8-3.5,2.3-5.6,2.7,2.7-3,6.1-4.7,10.2-4.5,12.6.5,25-1,37.1-4.7,6.9-2.1,12.9-.7,18.8,2.5Z" fill="#e1e1dc"/>
        <path d="M833.5,265.7c-17.7-6.9-35.3-13.8-53-20.9-1.6,1.1-2.8,2-4.1,2.8.9-1.2,1.7-2.4,2.9-4,9.1,3.1,18.1,6.8,27,10.4,8.8,3.5,19.4,6.3,27.1,11.6Z" fill="#e3e2dd"/>
        <path d="M879.2,418.7c2,1.1,4,2.2,6,3.4,1.6,1,3,2.3,4.5,3.4-17-9.2-35.2-14.5-54.7-17.5.3-1.1.5-1.9.8-2.8.9,2.3,3.1,2.6,5,2.9,11.6,1.9,22.9,4.9,33.8,9.3,1.5.6,3.1.8,4.6,1.2h0Z" fill="#e3e0d4"/>
        <path d="M913,304.8c6.3-14,17.3-26.2,25.2-39.4-2.6-1.5-4.9-2.9-7.2-4.2,2.7,1,5.5,2.1,8.6,3.2-.6,1.5-.9,2.5-1.5,3.4-8,12-16,24-24,36-.3.4-.7.7-1.1,1Z" fill="#e1e0d7"/>
        <path d="M838.7,300.2c1.2,3.2,3.2,6.3,3.6,9.6,1.1,10,1.6,20,2.4,30,.1,1.8.5,3.6.7,5.5.6-.3,1.1-.6,1.5-.8-.5,2.3-1,4.5-1.6,6.8-.2,0-.4,0-.6,0-1.5-17.1-1.1-34.4-6.1-51Z" fill="#e2e2dc"/>
        <path d="M1077.3,242.5c5.9-3,10.7-.3,15.5,3.2,4.5,3.2,10.6,5.8,13.7,10.4-7.5-5-15-9.9-21.8-14.4-8,1.1-11.1,8.2-17.9,11.4.7-.8,1.5-1.5,2.2-2.3,2.8-2.7,5.5-5.5,8.3-8.2Z" fill="#e3e2dd"/>
        <path d="M682,328.8c-2.5,1.4-5,2.8-7,3.9-2,7.4,4.7,10.7,8.6,15.8,4.5,5.8,6.3,13.3,8.9,20.1,0,.3,0,.5,0,.8-2.4-5.9-4.3-12.5-7.9-17.8-3.5-5.2-8.1-9.5-11.7-14.6,1-5.5,3.8-7.9,8.3-8.2.3,0,.5,0,.8,0Z" fill="#e3e2dd"/>
        <path d="M970,548.5c-5.9-2.5-8.5-9.9-14.2-13,1.5,5.2,1.3,20.8-4.7,23.5,5-7.9,4.1-16.7,3.7-25.5.3-.2.5-.4.8-.5,4.8,5.2,9.5,10.4,14.3,15.5Z" fill="#e4e4de"/>
        <path d="M983.5,286.7c-.2,0-.5,0-.7,0,.1-1.6,1-1.3,2.1-.9,3.7,1.3,7.5,2.5,11.2,3.9,6,2.3,12.2,3.5,18.6,4.6,5.8,1,11.3,3.9,16.9,6-.2.2-.5.5-.7.7-15.7-4.9-31.3-10.2-47.3-14.2Z" fill="#e3e2dc"/>
        <path d="M835.7,317.6c-.2.2-.5.5-.7.7-11.5-2.3-23.1-4.2-34.5-6.9-4.4-1-8.4-3.6-12.6-5.5-.2,0,0-.7-.1-1.1,9.5,5.7,20.1,8,30.9,9.8,5.7.9,11.4,2,17.1,3.1Z" fill="#e3e2dd"/>
        <path d="M914.5,451c-.1,1.3-.2,2.7-.3,3.8,1.4,7.2,2.3,14.6,4.5,21.6,2.2,6.9,5.8,13.3,9.3,19.6,0,.3,0,.5,0,.8-4.5-7.7-9.1-14.8-11-23.7-.8-4-1.2-8-2.5-11.9-1.1-3.6-2.4-6.8,0-10.2Z" fill="#e3e2dd"/>
        <path d="M715,611.5c.5-4.1,3.4-7.4,5.5-11,2.1-3.6,4.1-7.2,6.1-10.8,1.9-3.7,3.8-7.4,5.6-11.1.5-1.1,3.9-8.9,4.6-8.3-4.7,9.6-9.4,19.3-14.3,28.8-2.2,4.3-5,8.3-7.5,12.5Z" fill="#e2e1dc"/>
        <path d="M855.2,326.5c.2-3.9,2.1-7.2,2.7-11.1.6-4.4.4-9,.5-13.4.2-9.2,1.2-18.3-.9-27.2,4.6.5,1.7,22.2,1.6,26.1-.1,4.5.3,9.1,0,13.5-.3,4.5-2.4,8-3.8,12.1Z" fill="#e2e1dc"/>
        <path d="M945.3,268c-1.1-.2-2.2-.3-3.7-.5-4.2,6.2-8.5,12.7-12.8,19.2-3,4.5-6,9.1-9.1,13.6-.3.4-1,.5-1.5.8,7.5-11.4,15.1-22.8,22.6-34.2.2-.3.6-.4,1.1-.8,1.1.7,2.2,1.3,3.4,2Z" fill="#e1dfd6"/>
        <path d="M859.8,472.8c0,.9.2,1.9-.2,2.6-6.7,11.3-13.4,22.5-20.2,33.7-.2.3-.9.3-1.3.5,6.8-11.4,13.5-22.8,20.3-34.2.5-.9,1-1.7,1.5-2.6Z" fill="#e1dfd6"/>
        <path d="M771.3,535c6,1.8,9.9,9.4,12.3,14.8,3,6.9,4.9,14.3,7.1,21.4-.5.2-.9.4-1.4.6-2.6-11.9-5.9-23.4-14-33-1.2-1.4-2.7-2.6-4.1-3.8Z" fill="#e0dfd7"/>
        <path d="M637.8,531.2c-1.6,9-3.1,17.9-4,27,.3.1.5.3.8.4,3.6-3.4,7.2-6.7,10.8-10.1-3.7,4.7-7.7,8.7-11.9,12.9-.8-10.9,1.6-20.6,4.3-30.2Z" fill="#ddddda"/>
        <path d="M1048.8,297.2c.3,3.6.7,7.1,1.1,11.8,4.8,2.4,9.6,4.7,14.4,7,2.2,1,4.4,2.4,6.9,2.8,2.5.4,4.5-.7,6.8.1-3.8,1.1-7.5,1.3-11.2-.6-6.4-3.2-12.9-6.2-19.6-9.4,1.7-4,2.1-7.8.8-11.7h.3s.3,0,.3,0Z" fill="#e2e1dc"/>
        <path d="M865.8,231.3c-.3,6.8-4,13.1-4.2,20.2-.2,7.4.9,15.1,1.2,22.5-1.4-7-2.2-14-2.2-21.2,0-7.8,2.3-14.3,5.2-21.5Z" fill="#e3e2dc"/>
        <path d="M1009.8,594.2c-5.2-3.7-8.9-8.7-13-13.6-3.6-4.2-9.8-9.4-11-14.9,8,9.5,16,19,24,28.5Z" fill="#e3e2dd"/>
        <path d="M793.7,580c0-.9-.1-1.9.2-2.6,5.9-10,11.9-20,18-30,.2-.3.9-.3,1.3-.5-6,10.1-12,20.3-18.1,30.4-.5.9-1,1.7-1.5,2.6Z" fill="#e1e0d7"/>
        <path d="M961,506.5c-3.8,5-8.2,8.7-13,12.7,3.1,3.8,6.2,7.5,9.3,11.3-.2.2-.5.5-.7.7-3.2-3.9-6.5-7.8-10.1-12.1,5-4.3,9.8-8.5,14.6-12.6Z" fill="#e3e3de"/>
        <path d="M898.8,477.3c-.7,5.7-5.3,11.1-8.2,16-1.7,2.8-5.9,12.9-9.1,13.2,2.8-4.6,5.6-9.3,8.3-13.9,3-5.1,6-10.2,9-15.3Z" fill="#e3e2dc"/>
        <path d="M847.8,349c.2.8.7,1.7.5,2.3-2.8,9.4-2.5,19-2.9,28.6-.1,3-1.4,5.9-2.2,8.8,2.8-10,.5-20.3,2.3-30.4.6-3.2,1.5-6.3,2.2-9.4Z" fill="#e0dfd7"/>
        <path d="M692.5,369.3c0-.3,0-.5,0-.8,2.5,6.1,5.1,12.1,7.5,18.3,2.2,5.5,3.9,9.8,9,13.3-.3,0-.5,0-.8,0-5.3-1.4-6.9-7.3-8.7-11.8-2.3-5.7-6.5-12.8-7-18.9Z" fill="#e3e2dd"/>
        <path d="M875.5,516.3c.3,4.8-5.5,11.4-8,15.5-1.7,2.9-6.1,13.4-9.3,13.7,5.8-9.7,11.5-19.5,17.3-29.2Z" fill="#e2e2dd"/>
        <path d="M863.5,377.5c.3-4.1,6.9-10.2,9.7-12.9,3.3-3.2,8.1-9,12.8-9.6-4.2,3.5-9,6.9-12.7,10.9-3.4,3.7-6.4,7.8-9.8,11.6Z" fill="#e3e1d6"/>
        <path d="M1139.5,277.8c-1-1-2-2-3-3.1,6.2,4.5,13,5.2,20.4,4,4.8-.8,9.9-.1,14.9-.1-.2.8-.5,1.5-.7,2.3-3.4-3-11.3-1.2-15.8-.9-5.4.3-10.9.6-15.8-2.1Z" fill="#e2e2db"/>
        <path d="M841.7,268c-1.2.1-2.5.3-4.1.5-.3,1-1.1,2.4-1,3.8.4,9-1.8,18.2,2.1,26.9.1.3,0,.7,0,1.1-1-2.6-2.7-5.2-2.9-7.9-.4-8.1-.1-16.2,0-24.3,0-.4.3-.9.5-1.6,1.9.5,3.7,1,5.4,1.5Z" fill="#e1e1db"/>
        <path d="M634,564.2c-2.3,6.7-2.8,13.5-.9,20.4,1.1,4.1,2.9,7.6,6.1,10.3-.3,0-.5,0-.8,0-7.8-5.2-11-23.5-4.5-30.8Z" fill="#e4e3de"/>
        <path d="M739,355c-4.1-3.5-6.2-9.7-8.6-14.5-2.6-5-5.1-9.9-7.9-14.8.3,0,.5,0,.8,0,.7,1,1.6,1.9,2.1,2.9,4.6,8.8,9.1,17.6,13.6,26.3Z" fill="#e3e2dd"/>
        <path d="M916.8,606.3c-.4-1.7,2.8-4,3.8-5.4,1.9-2.5,3.5-5.2,5-7.9,1.6-3,4.9-13.4,8.5-13.7-2.8,5.3-5.3,10.7-8.4,15.7-2.5,4-5.9,7.5-8.9,11.3Z" fill="#e2e2dd"/>
        <path d="M948.2,560.5c1-5.5,4-10,4.2-15.9.2-5.7-.7-11.5-1.2-17.1,2.6,3.3,1.8,7.4,2.1,11.1.6,7.7-.3,15.4-5.1,21.9Z" fill="#e4e3de"/>
        <path d="M836.5,250c.2.2.5.5.7.7-.8,4.1-1.7,8.1-2.6,12.7-7.2-2.9-14.5-5.5-21.4-8.9.3,0,.5,0,.8,0,6.5,2.4,13,4.9,20,7.5.9-4.1,1.7-8.1,2.5-12Z" fill="#e2e2dc"/>
        <path d="M1048.8,297.2h-.3s-.3,0-.3,0c-1.3-3.2-2.6-6.4-3.9-9.5-1.7-4.1-1-7.9,1.6-11.4l-.9,4.6c-.2,0-.4,0-.6,0v4.3c1.3,1.5,2.6,3.1,4.5,5.3.9-1.5,1.5-2.5,2.1-3.5.2.2.5.4.7.6-.6,1-1.3,1.9-2.1,3.2-1.3-.5-2.5-.9-4.1-1.5,1.2,2.8,2.3,5.4,3.3,8.1Z" fill="#e1e0d9"/>
        <path d="M838.7,592c-.8-3.5,8.2-32.7,9.8-32.2-3.2,10.1-6.4,20.2-9.6,30.4-.2.6-.2,1.2-.3,1.8Z" fill="#e0ded6"/>
        <path d="M913.7,250c0-.3,0-.5,0-.8,8.4,4,16.7,8.1,25.1,12.1,1.2.6,2.3,1.4,3.4,2.1-.5,0-1.1,0-1.5-.1-9-4.4-18-8.9-27-13.3Z" fill="#e3e2dc"/>
        <path d="M862.7,274c5.5,2,10.9,4,16.9,6.3,1.9-3,3.5-6.3,6.4-8.5-1.9,3.3-3.8,6.6-5.8,10-5.8-2.3-11.2-4.4-16.6-6.6-.4-.2-.6-.7-.9-1.1Z" fill="#e3e2dd"/>
        <path d="M928,496.8c0-.3,0-.5,0-.8,3.4,3.2,5.6,7,7.3,11.3.6,1.6,2.1,3,3.2,4.4,1.8,2.2,3.5,4.5,5.3,6.7-.7-.3-1.5-.4-1.9-.8-2.2-2.4-4.2-4.9-6.3-7.4-2.5-4.5-5-9-7.5-13.5Z" fill="#e4e4de"/>
        <path d="M789.3,421h-.8c-9.3-2.3-20.6-1-29.2-6,.2-.2.5-.5.7-.7,5.9,2.1,11.9,4.1,18.4,3.8,3.7-.1,7.6.6,10.9,2.9Z" fill="#e4e3dd"/>
        <path d="M807.3,444.3c2.5-4.1,5-8.2,7.6-12.2,2.4-3.6,4.5-7.8,8.1-10.3-4.4,6.6-8.9,13.2-13.3,19.8-.7,1-1.6,1.8-2.5,2.7Z" fill="#e3e2dd"/>
        <path d="M733,338.5c2,1,13.3,24.2,12.7,24.8-4.2-8-8.5-16-12.7-24,0-.3,0-.5,0-.8Z" fill="#e3e2dd"/>
        <path d="M760,414.3c-.2.2-.5.5-.7.7-6.4-1.8-12.8-3.5-19.2-5.3-2.8-.8-5.7-1.5-8.5-2.3,0-.2,0-.5,0-.7,4.8,1.2,9.5,2.4,14.3,3.7,4.8,1.3,9.5,2.6,14.2,3.9Z" fill="#e2e2dc"/>
        <path d="M723.3,325.7c-.3,0-.5,0-.8,0-1.7-3.3-3.4-6.7-5.3-10.5-4.3,1.8-8.5,3.5-12.7,5.2-.2-.2-.5-.5-.7-.7,4.5-1.8,9-3.7,14.1-5.8,2,4.2,3.7,8,5.5,11.7Z" fill="#e2e2dc"/>
        <path d="M956.5,531.2c.2-.2.5-.5.7-.7,4.7,5,9.4,10.1,14,15.2.7.7,2.6,1.3,1,2.9-5.2-5.8-10.5-11.5-15.7-17.3Z" fill="#e3e3dd"/>
        <path d="M675.2,628.8c3.5,2.2,7.6,5.9,12.1,4.6,2.4-.7,6.9-6.8,8.9-5.3-2.8,2.2-6.1,6.2-9.8,6.7-4.3.6-7.9-3-11.2-5.1,0-.3,0-.5,0-.8Z" fill="#e4e3dd"/>
        <path d="M1045,310c-.3,0-.5,0-.8,0-3.8-1.8-7.6-3.7-11.5-5.3-3.9-1.6-7.8-3-11.8-4.4.3-.3.5-.5.8-.8,3,1,6.2,1.8,9.1,3.2,4.8,2.3,9.5,4.9,14.2,7.3Z" fill="#e3e2de"/>
        <path d="M1041.3,280c3.9-6.7,8.4-12.4,15-16.5-2.1,2.3-4.3,4.5-6.4,6.8-2.9,3.2-5.7,6.5-8.6,9.7Z" fill="#e3e2dd"/>
        <path d="M1045.7,305.5c.4-4.4-.7-8.4-2.7-12.5-2-4-3.8-8.3-1.8-13-.3,4.2.2,8.4,2.3,11.9,2.7,4.5,3.3,9.3,2.9,14.3-.2-.2-.5-.5-.7-.7Z" fill="#e1e0da"/>
        <path d="M703.7,319.7c.2.2.5.5.7.7-6.9,2.6-13.8,5.2-20.7,7.8-.6.2-1.2.3-1.8.5-.3,0-.5,0-.8,0,5.3-2.2,10.6-4.5,15.9-6.7,2.2-.9,4.4-1.6,6.6-2.3Z" fill="#e2e2dc"/>
        <path d="M1037.5,686.5c-.5-.5-1-1-1.5-1.6,5.7.9,11.4,1.7,17.1,2.6,2.3.4,4.6.8,6.9,1.2-7.5,1.2-15-3.4-22.5-2.3Z" fill="#e1ded3"/>
        <path d="M942.2,263.5c4.7,2.1,9.4,4.2,14.1,6.3,2.3,1.1,4.6,2.3,6.9,3.4-.3,0-.5,0-.8,0-6.8-2.3-14.7-5.2-20.2-9.8Z" fill="#e3e2dd"/>
        <path d="M731.5,406.7c0,.2,0,.5,0,.7-6.3-1.9-12.6-3.7-18.9-5.7-1.5-.5-2.9-1.2-4.4-1.8.3,0,.5,0,.8,0,7.5,2.2,15,4.5,22.5,6.7Z" fill="#e2e2dc"/>
        <path d="M647.5,549.2c0,.6.3,1.5,0,1.8-4.5,4.5-9,8.8-13.5,13.3.5-.8.8-1.8,1.4-2.5,4-4.2,8-8.4,12.1-12.6Z" fill="#e3e2dc"/>
        <path d="M1111.8,259.7c2.7-.5,6.1,3.1,8.7,4.3,3,1.4,7.4,1.4,9.3,4-6.7-1.2-12.7-4.1-18-8.3Z" fill="#e3e3de"/>
        <path d="M962.5,273.3c.3,0,.5,0,.8,0,6.3,1.9,12.2,5.7,18.2,8.5-.2.3-.6.5-.9.5-6-3-12-6-18-9Z" fill="#e2e1db"/>
        <path d="M949,562c.4,2.4-8.9,15.4-11.3,15l11.3-15Z" fill="#e3e2dd"/>
        <path d="M667.8,480.3c-2.4,1.4-2.6-2-4.9-1.9-1.8,2.6-3.5,6.6-6.4,7.9,2.1-3.3,4.2-6.5,6.5-10,1.9,1.6,3.4,2.8,4.8,4Z" fill="#e3e2dd"/>
        <path d="M650.5,605.5c4.2,4,8.5,8,12.7,12-.3,0-.5,0-.8,0-1.5-1.2-3.2-2.2-4.5-3.6-2.6-2.5-5-5.1-7.4-7.7,0-.3,0-.5,0-.8Z" fill="#e3e2dd"/>
        <path d="M1045.7,305.5c.2.2.5.5.7.7-.4.5-.7.9-1.1,1.5-5-2.3-9.8-4.5-14.6-6.8.2-.2.5-.5.7-.7,3.5,1.6,6.9,3.3,10.5,4.8,1.1.5,2.5.3,3.8.4Z" fill="#e3e2dc"/>
        <path d="M662.5,617.5c.3,0,.5,0,.8,0l12,11.3c0,.3,0,.5,0,.8-4.3-4-8.5-8-12.8-12Z" fill="#e3e2dd"/>
        <path d="M650.5,605.5c0,.3,0,.5,0,.8-1.7-1.4-3.5-2.6-5.1-4.1-2.4-2.3-4.6-4.8-6.9-7.2.3,0,.5,0,.8,0,3.8,3.5,7.5,7,11.3,10.5Z" fill="#e3e2dd"/>
        <path d="M933.3,583.8c.8.6-5.7,12.1-6.5,13.8,0,0-.2-.2-.3-.3,2.3-4.5,4.5-9,6.8-13.5Z" fill="#e2e1dc"/>
        <path d="M652.8,491.5c0,2.9-4.4,11.7-7.6,12,2.5-4,5-8,7.6-12Z" fill="#e2e2dc"/>
        <path d="M733,338.5c0,.3,0,.5,0,.8-2.3-4.5-4.5-9-6.8-13.5,0-.3,0-.5,0-.8l6.8,13.5Z" fill="#e3e2dd"/>
        <path d="M1056.3,263.5c3.5-3.3,7-6.5,10.5-9.8-3.5,3.3-7,6.5-10.5,9.8Z" fill="#e3e2dd"/>
        <path d="M640.8,520.7c-.8,2.3-1.6,4.5-2.3,6.8.8-5.4,1.2-10.9,3.9-15.8-.5,3-1,6-1.5,9h0Z" fill="#ddddda"/>
        <path d="M843.2,388.7c-.2,1.4-.4,2.9-.6,4.6.3.4.8.9,1.3,1.4-1.2,1-2.4,2-3.6,2.9-.2-.1-.4-.2-.5-.3,1.1-2.9,2.3-5.7,3.4-8.6Z" fill="#e0dfd7"/>
        <path d="M982,286.8c-5.9,6.8-12,13.5-17.7,20.4-3.4,4.2-6.2,8.8-9.3,13.2-2.2,3.1-4.5,6.2-6.6,9.4-7.6,11.4-15.1,22.8-22.6,34.2-4.5,7-9,14-13.5,21-5,8.5-10,17-15.1,25.5-1.6,2.3-3.2,4.6-4.8,6.8-.3-.2-.6-.3-.8-.5.5-1,.8-2.2,1.4-3.1,9-14.9,18.1-29.9,27.2-44.8.2-.3.2-.7.3-1.1,3.2-4.7,6.6-9.3,9.7-14,7.6-11.3,15-22.7,22.5-34.1,8.4-12.4,18.7-23.2,28.5-34.5.2.5.5,1,.7,1.5Z" fill="#fcfcfc"/>
        <path d="M1077.3,242.5c-2.8,2.7-5.5,5.5-8.3,8.2-4.1-4.3-9.4-6.8-14.7-10.4,1.7-2.6,3.8-5.8,6.1-9.3,6,3.6,11.7,7.1,16.9,11.5Z" fill="#f5f0d8"/>
        <path d="M983.6,259.4c-1.1,1.1-1.7,1.7-2.6,2.6-2.7-2-5.2-3.8-8-5.9,2.9-4,5.3-7.5,8-11.2,1.4,1.1,2.2,1.7,3.3,2.5-1.8,2.9-3.5,5.5-5.2,8.2,1.5,1.3,2.8,2.5,4.5,3.9Z" fill="#d6d6d5"/>
        <path d="M965.6,264.6c1.4-1.7,2.5-3.1,3.8-4.6,1.6,1.3,2.8,2.1,4,3.1-1.1,1.5-2.1,3-3.4,4.8-1.1-.8-2.3-1.7-4.4-3.2Z" fill="#e2decf"/>
        <path d="M1003,232.4c1.2.8,1.9,1.3,3,2-.7,1.1-1.2,1.9-1.9,3.1-1-.9-1.7-1.5-2.5-2.2.5-.9.9-1.7,1.5-2.9Z" fill="#d6d6d2"/>
        <path d="M842.1,250.5c2.9,1,5.3,1.8,8.1,2.8-.5,2.2-1,4.2-1.5,6.6-3.2-1-5.8-1.8-8.7-2.7.7-2.4,1.3-4.4,2.1-6.7Z" fill="#d7d7d5"/>
        <path d="M1029.6,676.9c-4.7-.7-8.9-1.4-13.4-2-1.2-5.8,1.1-10.8,1.9-16.2,5,1,9.5,1.8,14.1,2.7-.9,5.3-1.7,10-2.6,15.6Z" fill="#e5e2d3"/>
        <path d="M1045.3,633.2c1.7.1,3,.2,4.8.3,0,5.5-1,10.4-2.5,15.7-1.7-.4-3.1-.8-4.8-1.2.8-4.9,1.6-9.5,2.5-14.7Z" fill="#d6d6d5"/>
        <path d="M1022.2,626.4c.5-2.9.8-5.2,1.3-8.1,2.7.3,5.4.7,8.8,1.1-.5,3-.9,5.8-1.4,8.7-3.1-.6-5.6-1.1-8.7-1.7Z" fill="#d7d7d6"/>
        <path d="M1061.6,657.7c-.6,2.3-1,3.7-1.4,5.4-2.8-.5-5.4-1-8.5-1.5.4-1.8.7-3.3,1.1-5.4,3,.5,5.7.9,8.8,1.5Z" fill="#d7d7d5"/>
        <path d="M1023.5,635.7c2.2.4,3.8.8,5.7,1.1-.6,2.9-1.1,5.3-1.6,8-1.8-.2-3.2-.4-5.3-.6.4-2.8.7-5.4,1.2-8.5Z" fill="#d6d6d5"/>
        <path d="M1076.1,684.5c-1.8-.2-3.4-.3-5.2-.5v-6.1h6.4c-.4,2.5-.8,4.5-1.2,6.6Z" fill="#d6d6d5"/>
        <path d="M1082.5,660.8c.4-2.2.7-3.7,1.2-5.9,2,.4,4,.7,6.2,1.1-.3,1.9-.6,3.5-.9,5.8-2.1-.3-4.1-.7-6.5-1Z" fill="#d6d6d5"/>
        <path d="M1071.8,658.1c2.1.4,3.6.7,5.6,1.1-.2,2.2-.4,4.2-.6,6.6-2.5-.7-4.2-1.2-6.1-1.7.4-2.1.7-3.8,1.2-6Z" fill="#d7d6d5"/>
        <path d="M1080.7,653.8c-2.1-.5-3.8-.8-5.9-1.3.4-2,.8-3.7,1.2-5.7,2,.1,3.6.2,5.8.4-.4,2.3-.7,4.1-1.1,6.7Z" fill="#d6d6d5"/>
        <path d="M1064.5,654c-14.5-1.5-28.8-5.7-43.6-4.4,14.9-2,29.2,1.5,43.6,4.4Z" fill="#e6e5d9"/>
        <path d="M1052.8,676.5c1.4.4,2.2.6,3.4.9-.6,2.3-1.3,2.3-3.6,3.1-.2-.3-.4-.6-.6-.9.2-.9.5-1.7.8-3.1Z" fill="#d6d6d2"/>
        <path d="M1034.5,694c-7.7,0-16.4-.6-23.7-3.4v-6.2c8.6,0,16.5,2.5,24.4,3.3.7,1.3,1.1,2.3,1.6,3.3-.3,1.5-.5,3-.8,4.5v-3.4c-.7.9-1.1,1.4-1.5,1.9v-5.1c-7.5-1.3-14.6-2.5-22.2-3.9-.4,1.7-.7,3.2-1,4.9,8.1,1.4,15.7,2.7,23.2,4.1Z" fill="#e1ded3"/>
        <path d="M1045.6,697.1c.6-2.8,1-4.6,1.6-6.9,4.7.9,9.2,1.7,14.3,2.6-.2,2.1-.3,4.1-.5,6.6-5.4-.8-10.1-1.6-15.3-2.4ZM1047.5,691.6v4.4c4.1.7,8.1,1.5,12.3,2.3.3-1.7.5-3,.8-4.6-4.4-.7-8.6-1.4-13.1-2.1Z" fill="#e1ded1"/>
        <path d="M940.7,731c.5-2.6.8-4.3,1.1-6.1.6-.4,1.3-.8,2.2-1.4-.9-.2-1.7-.3-2.5-.5,0-.3,0-.6.1-.9,8,1.3,16,2.5,24.6,3.9-.9.7-1.2,1-1.5,1.3.7.5,1.5,1,2.3,1.6-.5,2.1-.9,4.1-1.5,6.3-8.5-1.4-16.5-2.8-24.9-4.3ZM965.2,728.9c-7.5-1.2-14.6-2.4-21.6-3.5-1,1.8-1.1,2.7-1.2,4.7,7.5,1.2,15,2.5,22.8,3.8v-4.9Z" fill="#e5e3d6"/>
        <path d="M1016.9,707.8c-.5,3.7-1,6.9-1.5,10.1-3.1,1.8-5.9.2-9.1-.4-.4-4,.3-7.6,1.9-11.5,3,.6,5.7,1.2,8.7,1.7Z" fill="#e3dfd0"/>
        <path d="M994.9,759.9c-.6,2.3-1,3.9-1.5,6.1-3.7-.6-7.2-1.2-11.1-1.8v-6.1c4.4-.7,8.2.7,12.6,1.7Z" fill="#e5d4e4"/>
        <path d="M919.3,716.9v-7.2c8.5.9,16.5,2.6,25.3,4.2-.5,2.4-.8,4.6-1.3,7-8.2-1.4-15.9-2.6-24-4ZM920.8,711c-.5,1.7-.8,2.9-1.3,4.6,7.9,1.8,15.5,3,23.3,3.9.1-1.8.1-3.2-.2-4.9-7.2-1.2-14.3-2.3-21.8-3.6Z" fill="#e0ddd0"/>
        <path d="M964,746.7c-.5,2.6-.8,4.2-1.3,6.5-8.4-.9-16.5-2.3-25-4.2.5-2.2.8-3.9,1.3-6.2,8.6.1,16.5,2.3,25,3.9ZM939.2,748.4c7.7,1.3,14.9,2.5,22.5,3.8.3-1.6.6-3,.9-4.9-7.7-1.3-15-2.6-22.9-4-.2,1.8-.4,3.3-.6,5Z" fill="#e0ddd0"/>
        <path d="M1004.9,723.4c2.6.6,4.7,1,6.9,1.5-1.4,8.4-2.6,16.2-4,24.7-2.4-.4-4.5-.7-7.1-1.2,1.4-8.5,2.8-16.5,4.2-25ZM1005.6,724.6c-.9,8.2-3.1,15.5-3.2,23.3h4.4c1.3-7.3,2.6-14.6,3.9-22.2-2-.4-3.4-.7-5.2-1Z" fill="#e0ddd0"/>
        <path d="M1013,698h5.7c-.2,2.5-.3,4.7-.5,6.8-1.5.6-2.6.9-3.6,1.3-1.6-.3-3.2-.7-5.1-1.1.9-.3,1.5-.6,2.1-.8.4-2,.9-4,1.4-6.2Z" fill="#dfdbcd"/>
        <path d="M1023.3,735.3c-2.1-.6-3.4-.9-5-1.3.3-1.1.5-2,.9-3.3,1.6.4,3.1.7,4.9,1.2-.3,1.2-.5,2.2-.8,3.5Z" fill="#d5d5d2"/>
        <path d="M916.5,725c.6-1,1-1.8,1.4-2.6,1.7.4,3.1.8,4.9,1.2-.4,1-.7,1.7-1.1,2.6-1.8-.5-3.3-.8-5.2-1.3Z" fill="#d5d5d1"/>
        <path d="M865.7,669.5c0,1.2,0,2.1-.2,3.5-8.5-.5-16.7-2.4-25-3.9v-3.7c8.5.6,16.6,2.3,25.2,4.1Z" fill="#dbe2f3"/>
        <path d="M1027.7,703c1.7.2,2.9.3,4.9.5-1.2,7.6-2.4,14.8-3.6,22.4-1.5.1-2.9.3-5.2.4,1.4-8,2.6-15.5,4-23.3Z" fill="#fefdee"/>
        <path d="M896,422c1.7-2.7,3-4.8,4.5-7.2,3.4,2.2,6.5,4.1,10,6.3-1.3,2.4-2.5,4.5-4.1,7.2-3.5-2.1-6.8-4.1-10.4-6.2Z" fill="#e4e0d1"/>
        <path d="M952.8,319.8c-7.5,11.4-15,22.8-22.5,34.1-3.1,4.7-6.5,9.3-9.7,14,.5-1.1.8-2.4,1.4-3.4,9.7-14.6,19.4-29.1,29.1-43.6.3-.5,1.1-.8,1.7-1.1Z" fill="#e1e0d6"/>
        <path d="M925.7,364c7.5-11.4,15-22.8,22.6-34.2,2.1-3.2,4.4-6.3,6.6-9.4-.5,1.1-.8,2.4-1.4,3.4-8.7,13.1-17.4,26.1-26.1,39.1-.3.5-1.1.8-1.7,1.1Z" fill="#e1dfd6"/>
        <path d="M879.3,418.8c-3.5-2.5.8-6.9,2.3-9.3,1.5.7,2.9,1.4,5,2.4-1.5,2.7-2.8,5.1-4.1,7.5-1.3-.3-2.3-.5-3.2-.7h0Z" fill="#e3e0d4"/>
        <path d="M897.2,410.5c5-8.5,10-17,15.1-25.5-.4,4.9-4.4,9.7-6.9,13.8-1.9,3.1-4.7,10.6-8.1,11.7Z" fill="#e1dfd6"/>
        <path d="M980.2,314.1c2.1,1.4,2.4,2.8.3,4.5-.7-.2-1.7-.4-2.6-.7-.9.5-1.9,1-3,1.6-.6-.5-1.1-1-1.8-1.7.4-1,.9-2,1.4-3.1,1.1.5,1.9.9,2.9,1.4.9-.7,1.8-1.3,2.9-2Z" fill="#e5e1cf"/>
        <path d="M933.7,447.9c-1.5,2.4-2.6,4.3-3.8,6.3-2.9-1.7-5.4-3.2-8.1-4.8,1.2-2.2,2.2-4,3.5-6.2,2.9,1.6,5.5,3,8.5,4.7Z" fill="#ded4d9"/>
        <path d="M948.7,434.3c-1.4,2.4-2.5,4.3-3.8,6.4-2.3-1.5-4.4-2.7-6.6-4.2,1.4-2.2,2.5-4,3.8-6.2,2.3,1.4,4.2,2.5,6.6,3.9Z" fill="#ddcddd"/>
        <path d="M1033.5,322.1c-1,1.2-1.6,1.9-2.2,2.7-.3,0-.7,0-1,0-.2-1.2-.5-2.5-.7-3.7.3-.1.6-.3.9-.4.8.4,1.6.8,2.9,1.5Z" fill="#e9e1cb"/>
        <path d="M949.4,552.5c-2.2,2.7-4.2,5.1-6.5,7.8-1.7-1.5-3.1-2.6-4.8-4.1,2-2.7,3.9-5.2,6-7.9,1.8,1.4,3.2,2.6,5.3,4.2Z" fill="#d7d7d6"/>
        <path d="M910.9,567.4c2,1.5,3.2,2.5,4.9,3.7-1.5,1.7-2.8,3.1-4.3,4.9-1.7-1.4-3-2.5-5-4.2,1.6-1.6,3-2.9,4.5-4.4Z" fill="#d7d6d5"/>
        <path d="M925.4,580c-1.9,1.6-3.2,2.8-4.7,4.1-1.2-1-2.5-2-4.2-3.3,1.4-1.7,2.6-3.3,4.1-5.2,1.8,1.6,3.1,2.8,4.8,4.4Z" fill="#d6d6d5"/>
        <path d="M896.7,601c1.5.1,2.6.3,4.2.4-.6,3.3-1.1,6.1-1.7,9.4-1.2-.3-2.2-.6-3.6-1,.4-2.8.7-5.5,1.1-8.8Z" fill="#d6d6d4"/>
        <path d="M912.6,503c-1.5,2.3-2.7,2.5-4.2.4.5-.8,1-1.7,1.7-3,1,1,1.7,1.7,2.5,2.6Z" fill="#dad8d2"/>
        <path d="M813.6,419.8c2.1-4.7,4-8.8,6.1-13.4,1.9.7,3.6,1.3,5.9,2.2-2.3,4.8-4.4,9.3-6.7,14.1-1.9-1-3.4-1.8-5.3-2.9Z" fill="#d7d7d6"/>
        <path d="M689.4,626.8c-1.2-1.3-2.2-2.3-3.6-3.9,3-2.4,5.6-4.5,8.4-6.8,1.2,1.6,1.9,2.6,2.9,3.9-2.6,2.2-5.1,4.4-7.8,6.8Z" fill="#e2decf"/>
        <path d="M1011.2,610.7c-2.8,16.8-5.6,33.7-8.5,51.3-5.4-.8-10.5-1.5-15.8-2.3v-3.6c-1.2-.2-2.2-.4-3.4-.6-.5,1-.8,1.9-1.4,3.2-3.1-.6-6.4-1.2-10-1.8.9-6.2,1.8-12,2.6-17.8-.3,0-.5,0-.8-.1-1,5.6-1.9,11.1-2.9,17-5.1.7-9.8-.7-14.5-1.9,2.9-16.9,6-33.8,8.6-50.7,15.4,2.5,30.7,4.9,46.1,7.2ZM973.7,607.5c-1.8,1-3.2,1.8-5,2.7.1,4.5-2.2,8.8-1.3,13.8,2.9.3,5.4.6,8.1.8.8-5,1.4-9.3,2.1-13.7l-.9.3c-1-1.3-1.9-2.5-3.1-4ZM985.6,627c3.5.4,6.1.7,8.9,1,.8-5.1,1.4-9.4,2-13.6-1.5-1.2-2.5-2.1-3.7-3-1.4.5-2.8.9-4.6,1.5-.8,4.5-1.7,9-2.6,14.1ZM1001.9,640.1c.5-3.5,1-6.5,1.5-9.8-1.3-.3-2.4-.6-3.8-.9-.5,3.5-1,6.5-1.5,9.8,1.3.3,2.4.6,3.8.9ZM970.5,651.3c.8-4.4,1.6-8.5,2.5-13-3-.5-5.7-.9-8.8-1.4-.7,4.5-1.3,8.5-1.9,12.8,2.9.6,5.1,1,8.3,1.6ZM992,640.5c-3.4-.4-6.4-.8-9.5-1.2-.5,2.3-.9,3.8-1.4,6.1,3.2.5,6.2.9,9.3,1.4.6-2.2.9-3.8,1.6-6.3Z" fill="#f0eee0"/>
        <path d="M971.1,587.2c-.6,3.2-1,5.7-1.5,8.6-3.4-.6-6.2-1-9.5-1.6.5-2.9.9-5.2,1.4-8.2,3.1.4,5.9.7,9.6,1.2Z" fill="#d7d7d6"/>
        <path d="M919.3,624.5c-.4,1.5-.7,2.4-1.1,3.7-3-.5-5.8-.9-9.1-1.5.5-1.6.8-2.7,1.2-4,3,.6,5.7,1.1,9,1.7Z" fill="#d6d6d4"/>
        <path d="M931.4,593.1c1.1-1.2,2.2-2.4,3.4-3.7,1.5,1,2.9,1.9,4.8,3.1-1.3,1.7-2.5,3.3-3.9,5.2-1.6-1.7-2.8-3-4.3-4.6Z" fill="#d6d6d4"/>
        <path d="M640.7,520.8c1.4-1.7,2.8-3.4,4.4-5.3,1.7,1.1,3.4,2.3,5.5,3.7-1.2,2.1-2.3,4-3.6,6.2-2.7-1-5.3-1.6-6.3-4.6,0,0,0,0,0,0Z" fill="#ddddda"/>
        <path d="M951.5,673.3c-.8,4.3-1.6,8.6-2.5,13.3-2.8-.4-5-.7-7.8-1.2-.4-5,1.1-9.7,2-14.5,1.8-.4,3.3-.8,4.9-1.2,1,1.2,1.8,2.3,2.7,3.4.3,0,.5,0,.8.1Z" fill="#d7d7d6"/>
        <path d="M913.7,694.7c-.2-.3-.5-.5-.7-.8-4.8-1.3-9.6-2.6-15-4,0-1.6.2-3.5.3-6.1,5.6,1,10.5,1.8,15.4,2.7.2,1.5.5,3,.7,4.5-.2,1.2-.5,2.5-.7,3.7Z" fill="#d7d7d6"/>
        <path d="M922.4,658.5c2.4.6,3.8.9,6,1.5-1.5,9.4-3,18.7-4.6,28.8-2.2-.4-4.2-.7-6.4-1.1,1.7-9.8,3.3-19.3,5-29.2ZM918.7,686.5c1.6.7,2.4.7,4.2.6,1.5-8.8,2.9-17.5,4.4-26.5h-4.3c-1.5,8.8-2.9,17.3-4.4,25.9Z" fill="#e1ded1"/>
        <path d="M978.8,675.6c.5-3.1.9-5.9,1.4-9.4,2.2.3,4.1.6,6.6.9-.6,3.5-1.1,6.5-1.7,9.7-2.4-.5-4-.8-6.3-1.3Z" fill="#d6d6d5"/>
        <path d="M967.4,673.9c-2.7-.4-5.1-.7-8.1-1.1.4-3.2.7-6,1-8.8,3.3-1.7,5.8-.2,8.8.6-.6,3-1.1,5.9-1.7,9.2ZM961.5,664.2c-.5,2.7-.9,5.1-1.3,7.7,2.5.4,4.4.7,6.6,1.1.4-2.8.7-5.3,1.1-7.9-2.3-.3-4-.6-6.4-.9Z" fill="#dfdccf"/>
        <path d="M965.3,690.7v4.7c-3.2,1.8-5.9.2-9.5-.4.2-1.8.4-3.5.6-5.7,3.3.5,6,1,8.8,1.4ZM963.4,695.6c.5-1.2.8-2.2,1.3-3.6-2.5-.6-4.7-1.1-7.2-1.6-.2,1.4-.4,2.6-.7,3.9,2.2.5,4.1.9,6.5,1.4Z" fill="#e0ddd0"/>
        <path d="M1047.3,282.9c1.3-2,2.7-4,4.2-6.2,1.1.6,2,1.1,2.9,1.6,0,.2-.1.4-.2.6-.7,0-1.4-.1-2.4-.2-1.2,1.5-2.5,3.1-3.9,4.7-.2-.1-.4-.3-.6-.4Z" fill="#e2dfd2"/>
        <path d="M913.7,686.5c-4.9-.8-9.9-1.7-15.4-2.7-.1,2.7-.2,4.5-.3,6.1,5.3,1.4,10.2,2.7,15,4v4.1c-1.2.2-2.1.3-3,.4-5.6-1.1-11.2-2.2-16.7-3.5-4.4-16.2-8.8-32.3-13.4-49.4,13.9,2.3,27.1,4.5,40.4,6.7-.9,6-1.9,11.9-2.8,17.9-.9,5.4-1,11.6-3.6,16.3Z" fill="#f9f7e8"/>
        <path d="M988.4,741.7c-.2,1.8-.4,3.1-.7,5-7.7-1.3-15.2-2.6-23.3-3.9.6-1.9,1-3.1,1.5-4.7,7.5,1.2,14.8,2.4,22.5,3.7Z" fill="#fdfcee"/>
        <path d="M967.6,723.8c.3-2,.5-3.4.7-5,7.8,1.3,15,2.5,22.7,3.8-.2,1.8-.4,3.3-.6,5-7.8-1.3-15.1-2.5-22.9-3.8Z" fill="#fdfcee"/>
        <path d="M1034.5,694c-7.6-1.3-15.1-2.6-23.2-4.1.4-1.7.7-3.2,1-4.9,7.6,1.3,14.7,2.6,22.2,3.9v5.1h0Z" fill="#fefcee"/>
        <path d="M1047.5,691.6c4.5.7,8.6,1.4,13.1,2.1-.3,1.6-.5,2.9-.8,4.6-4.2-.8-8.2-1.5-12.3-2.3v-4.4Z" fill="#fdfced"/>
        <path d="M965.2,728.9v4.9c-7.8-1.3-15.3-2.5-22.8-3.8,0-2,.2-3,1.2-4.7,7,1.2,14.1,2.3,21.6,3.5Z" fill="#fefdee"/>
        <path d="M920.8,711c7.5,1.2,14.5,2.4,21.8,3.6.4,1.8.3,3.1.2,4.9-7.8-.9-15.4-2.1-23.3-3.9.5-1.7.8-2.8,1.3-4.6Z" fill="#fdfcee"/>
        <path d="M939.2,748.4c.2-1.7.4-3.1.6-5,7.9,1.4,15.2,2.6,22.9,4-.4,1.9-.6,3.2-.9,4.9-7.6-1.3-14.8-2.5-22.5-3.8Z" fill="#fdfcee"/>
        <path d="M1005.6,724.6c1.8.4,3.2.6,5.2,1-1.3,7.6-2.6,14.9-3.9,22.2h-4.4c0-7.8,2.2-15.1,3.2-23.3Z" fill="#fefdee"/>
        <path d="M973.7,607.5c1.1,1.5,2.1,2.8,3.1,4l.9-.3c-.7,4.3-1.3,8.7-2.1,13.7-2.6-.3-5.2-.5-8.1-.8-.9-5,1.4-9.3,1.3-13.8,1.8-1,3.2-1.7,5-2.7ZM974.4,623.8c.8-4.4,1.5-8.2,2.2-12-1.1-.9-2.2-1.8-3.2-2.6-1.2.5-2.2.8-3.3,1.3-.7,4-1.4,7.9-2.2,12.2,2.2.4,3.9.7,6.5,1.2Z" fill="#e0ddd0"/>
        <path d="M985.6,627c.9-5.1,1.8-9.6,2.6-14.1,1.8-.6,3.2-1,4.6-1.5,1.2,1,2.2,1.8,3.7,3-.6,4.1-1.3,8.5-2,13.6-2.8-.3-5.3-.6-8.9-1ZM995.3,615.7c-1.1-1.2-2-2.2-2.9-3.2-1.2.6-2.3,1.2-3.7,2-.5,3.7-1.1,7.6-1.6,11.6,2.5.4,4.3.7,6.4,1,.6-4,1.2-7.7,1.8-11.3Z" fill="#dfdcd0"/>
        <path d="M1001.9,640.1c-1.4-.3-2.5-.6-3.8-.9.5-3.3,1-6.4,1.5-9.8,1.4.3,2.5.6,3.8.9-.5,3.3-1,6.4-1.5,9.8Z" fill="#fdfced"/>
        <path d="M970.5,651.3c-3.2-.6-5.5-1.1-8.3-1.6.7-4.4,1.3-8.3,1.9-12.8,3.1.5,5.8.9,8.8,1.4-.9,4.6-1.6,8.6-2.5,13ZM971.7,639c-2.4-.4-4.4-.7-6.6-1.1-.6,3.7-1.2,7.1-1.8,10.9,2.4.4,4.3.8,6.5,1.2.7-3.9,1.3-7.3,1.9-10.9Z" fill="#dfdccf"/>
        <path d="M992,640.5c-.6,2.5-1,4-1.6,6.3-3.1-.4-6.1-.9-9.3-1.4.5-2.3.9-3.8,1.4-6.1,3,.4,6,.8,9.5,1.2ZM990.3,641.5c-2.8-.3-5-.5-7.5-.8.1,1.6.2,2.6.2,3.7,2.3.4,4.4.8,6.9,1.3.1-1.5.3-2.5.4-4.2Z" fill="#e1dfd1"/>
        <path d="M918.7,686.5c1.4-8.5,2.9-17,4.4-25.9h4.3c-1.5,8.9-3,17.7-4.4,26.5-1.8,0-2.6,0-4.2-.6Z" fill="#fefcee"/>
        <path d="M961.5,664.2c2.4.3,4.1.6,6.4.9-.4,2.6-.7,5.1-1.1,7.9-2.2-.4-4.1-.7-6.6-1.1.4-2.6.8-5,1.3-7.7Z" fill="#fdfced"/>
        <path d="M963.4,695.6c-2.4-.5-4.3-.9-6.5-1.4.2-1.3.4-2.5.7-3.9,2.5.6,4.7,1.1,7.2,1.6-.5,1.4-.9,2.4-1.3,3.6Z" fill="#fcfbec"/>
        <path d="M974.4,623.8c-2.6-.5-4.4-.8-6.5-1.2.8-4.2,1.5-8.1,2.2-12.2,1.1-.4,2.2-.8,3.3-1.3,1,.8,2,1.7,3.2,2.6-.7,3.8-1.4,7.6-2.2,12Z" fill="#fdfcee"/>
        <path d="M995.3,615.7c-.6,3.6-1.2,7.4-1.8,11.3-2.1-.3-3.9-.6-6.4-1,.6-4,1.1-7.8,1.6-11.6,1.4-.7,2.5-1.4,3.7-2,.9,1.1,1.8,2,2.9,3.2Z" fill="#fefdee"/>
        <path d="M971.7,639c-.6,3.6-1.2,7-1.9,10.9-2.2-.4-4.2-.7-6.5-1.2.6-3.7,1.2-7.2,1.8-10.9,2.3.4,4.3.7,6.6,1.1Z" fill="#fdfced"/>
        <path d="M990.3,641.5c-.2,1.7-.3,2.8-.4,4.2-2.4-.5-4.6-.9-6.9-1.3,0-1.2-.1-2.1-.2-3.7,2.5.3,4.8.5,7.5.8Z" fill="#fdfced"/>
      </g>
    </g>
  </g>
</svg>