<?xml version="1.0" encoding="UTF-8"?>
<svg xmlns="http://www.w3.org/2000/svg" version="1.1" viewBox="0 0 1920 1080">
  <!-- Generator: Adobe Illustrator 28.7.8, SVG Export Plug-In . SVG Version: 1.2.0 Build 200)  -->
  <g>
    <g id="_Слой_1" data-name="Слой_1">
      <g>
        <path d="M1140,706h-88.5c-3.3-5.6-6.5-11.2-9.9-16.7-.4-.6-1.4-.9-2.1-1.3-6.1-6.5-15-6.2-23.2-6.4-9.1-.3-18.2-.5-27.2-.7-4.3-.1-8.6-.2-12.9-.3-3.2,0-6.9.2-9.7-1.7-5.3-3.7-5.5-14.7-6.8-20.4,1.7-1.8,3.3-3.5,5.3-4.9,1.9-1.4,4.6-2.3,5.4-4.6,1-.7,2-1.5,3-2.2,1.9.7,12.6-6.3,12-7.5,1-.7,2-1.5,3-2.2.5.1,1.2.5,1.5.3,3-2,6-4.2,9-6.3,2.5-1.8,5-3.5,7.5-5.3,4.6-.8,7.8-3.9,11.3-6.7,2.5-1.8,5-3.5,7.5-5.3,4.6-.8,7.9-3.9,11.2-6.8,0-.4.2-.9.2-1.3-.2-.2-.4-.5-.6-.7l-7.1,4.3c-3.5,2.3-7,4.5-10.5,6.8-2.7,1.7-5.5,3.5-8.2,5.2-3.5,2.3-7,4.5-10.5,6.8-3.5,2.5-7,5-10.5,7.5-1.9-.7-12.6,6.3-12,7.5-.8.7-1.5,1.5-2.3,2.2-.3,0-.5,0-.8,0-.5-.1-1.2-.5-1.5-.3-3.8,2.5-7.5,5.2-11.2,7.8h0c-.7-.2-1.4-.3-2-.4-3.5-17.9-7.1-35.6-6.1-53.9,16.7-2.7,33.6-4.7,50.2-7.8,15.4-2.9,31.4-4.8,46.5-9.1,14.5-4.1,26.7-11.3,38.9-20,12.9-9.3,25.9-18.3,39.2-27,3.9,8.6,7.8,17.1,11.6,25.7,3.6,8,6.4,18.5,13,24.3,0,0,0,0,0,0,5.7,5.3,11.3,10.7,16.5,15.5,8.6.8,18.5,3.5,26.5-.3,3.7-1.7,6.8-4.6,10.7-5.9,4-1.4,8.3-1.1,12.5-.9,1,.8,1.9,1.4,2.8,2.1,1.5,5,3,10,4.5,15-5.2,9-13.6,17.4-20.7,25-7.5,8.2-15.8,15.6-24,23.1-15.7,14.3-31.1,29.1-41.5,47.9ZM1047,593.5c1.7-3-.3-5.5-.8-8.4-3.3.7-6.1,1.3-9.1,2,.5,2.9,1,5.3,1.6,8.4,3-.7,5.7-1.4,8.3-2h0ZM1110.1,551.5c-.8-.6-1.6-1.1-2.6-1.8-2.2,3.6-4.1,6.8-6.4,10.4,7,4.6,13.5,9,20.5,13.6.8-1.3,1.4-2.3,2-3.3,2-2.3,4.2-4.4,4.5-7.6-5.9-3.9-11.9-7.6-17.9-11.2Z" fill="#f8f7e9"/>
        <path d="M1071,373c62.5,0,125,0,187.5,0,.3.9.6,1.9,1,2.7,5.1,9.1,10.3,18.2,15.4,27.3.7,8.2-2.3,15.3-7.1,21.6-3.7,4.9-7.7,9.6-11.6,14.4-4.2,4.2-8.4,8.6-12.8,12.7-2.8,2.7-6,5-9,7.5-1.1.5-2.2.9-3.5,1.5-.9-1.2-1.8-2.4-2.7-3.6-2.4-3.5-5.6-4.1-9.3-2.1-8.6,4.7-17.2,9.4-25.8,14-12.3,6.5-24.7,10.8-38.3,13.7-14.6,3.1-29.3,2.9-44.1,3.7-4-2.8-7.6-5.4-11.4-8,.3-.8.6-1.3.8-1.9,2.5-1.4,5.1-2.6,5.3-6-1.4-1.3-4.5,2.1-5.8,2.9-2.8,1.7-5.3,2.4-8.5,3.1-7.3,1.6-14.7,3.1-22,4.5-2.9.6-6.1,1.6-9.1,1.2-3.2-.4-6.2-2.4-9.1-3.8-6.1-2.9-12.1-5.9-18.1-9-24.5-12.6-47-27.8-70-42.8,7.4-4.3,16.3-6.7,24.4-9.6,8.9-3.2,17.6-6.7,26.2-10.8,17.4-8.3,33.6-18.9,50-28.7,1-.5,2.1-1,3.1-1.7,1.5-.9,2.9-1.9,4.4-2.9ZM1110.7,464.5c.1.4.3.7.7,1.8,2-3.7,3.6-6.9,5.3-10,3.4-4.1,6.5-8.8,7.2-14.3.8-5.6-1.1-11.5-2.1-16.9-1.1-6.1-2.3-12.4-2.5-18.6-.2-5.9,1-11.5.9-17.3-.3,0-.6-.1-1-.2-.4.4-.8.8-1.1,1.2-1.8,6.1-2.4,12.4-2.2,18.8,1.2,6.9,2.3,13.9,3.6,20.8,1.3,7,2.2,14-2.1,20.4-3.7,6-7.5,12-11.2,18,.3.2.6.4.9.6,1.2-1.4,2.4-2.9,3.6-4.3ZM1174.5,456.3c-.2-1.3-.5-2.5-.7-3.8-.5-11.7-4.5-23.9-7.1-35.3-4.6,1-8.5,1.9-12.5,2.8,2.2,10.6,4.5,21.2,6.9,31.8,0,.2,0,.5,0,.7.2,1.5.5,3,.7,4.5.3,1,.6,2,.9,3.4,3.9-.8,9.6-.6,11.8-4.1ZM1078.5,460c-2.2.3-4.3.6-7,1,.5,3.1,1,5.7,1.5,8.5,3.4-.5,6.3-.9,9.2-1.3.5-.2,1.1-.5,1.6-.7,1.7-.4,3.4-.9,5.5-1.4-.8-3.1-1.5-5.6-2.2-8-3,.4-5.4.8-7.8,1.2-.3.2-.5.5-.8.7Z" fill="#f8f7e9"/>
        <path d="M1050,706h-430.5c0-27.3,0-54.5,0-81.7,8.7-3.6,17-7.5,25.9-10.4,9.8-3.2,19.7-6.4,29.6-9.6,19.5-6.3,39-12.8,58.5-19.2-4.2,9.7-16.2,27-2.3,34,.1,6.9,2.6,14.4,4,21.3,1.4,6.9,2.8,13.7,4.1,20.6,22.8-4.4,45.6-8.8,68.4-13.3,3,3,6,6,9,9,4.5,5,9,10,13.5,15,3.8,4.2,7.5,8.5,11.3,12.7h0c6.7,8.4,13.1,15.1,23.7,18.2,11.9,3.5,20.9.2,31.1-5.9,20.3-12,40.5-24.1,60.6-36.4,1.3,6.3,1.7,15.8,6.8,20.5,5.4,5,15.9,3.7,22.7,3.9,9.4.3,18.9.6,28.3.9,4.8.1,9.8-.3,14.5.6,4,.7,7.2,3.2,11.1,4.1,3.3,5.3,6.5,10.5,9.8,15.8Z" fill="#f8f7e9"/>
        <path d="M1263.8,373c12.2,0,24.4,0,36.7,0v60.8c-.2.2-.5.3-.5.5-4.2,14.3-12.1,26.7-19.9,39.2-8.5,13.5-15.1,27.8-19.5,43.1-4.5,15.9-8.3,32-12.7,47.9-3.8,13.7-9.5,26.7-17.2,38.8-1.4-3.7-2.8-7.3-4.3-11.1-2.3-1.5-4.7-3.1-6.8-4.5h-12c-4.4,2.4-8.8,5-13.3,7.2-3.9,1.9-7.3,1.6-11.7,1.4-4-.2-8.7.1-12.2-2.1-3.5-2.2-6.8-5.8-9.8-8.6-6.7-6.1-9.8-12.8-13.5-21-4.1-9.2-8.2-18.3-12.2-27.5,5.1,1.2,8.6,4.6,14,4.7,4.5,0,9.5-1.3,12.8-4.5,5.5-3.5,11-7,16.5-10.5,3.8-2.3,7.5-4.5,11.3-6.8,4-1.8,7.1-4.4,6.9-8.8,1.7-1,3-1.7,4.3-2.4,9.1-5.7,18.2-11.3,27.3-17.1,2.3-1.4,4.3-3.1,6.5-4.7,5.2-.8,7.4-3.9,6-8.2,1.8-1,3.5-2.1,5.7-3.3-1.9-2.9-3.4-5.3-5-7.8-2.1,1-4,1.9-5.9,2.8-.7-1.5-1.5-3-2.2-4.5,6.2-4.7,12.5-9.5,18.7-14.2.7-.5,1.1-1.5,1.6-2.3,2.2-2.7,4.5-5.4,6.7-8.1,3.3-4,6.5-8.1,9.8-12.1,0,0,0,0,0,0,6.2-6.3,11.9-17.1,10.1-26.3-1.1-5.5-4.4-10.2-7.3-15-3-5-5.9-10-8.9-14.9ZM1163.1,552.4c-1.3-1.9-2.2-3.3-3.3-5-1.9,1.1-3.4,2.1-5.1,3.1,1.3,1.8,2.3,3.2,3.4,4.7,1.6-.9,3-1.7,4.9-2.8ZM1190.8,532.1c-1.2-1.8-2.1-3.3-3.2-4.9-1.9,1.2-3.3,2.1-5.1,3.3,1.3,1.7,2.3,3.1,3.5,4.6,1.7-1,3.1-1.8,4.8-2.9Z" fill="#f8f7e9"/>
        <path d="M1260,441.3l-6.7,8.1c-2.9,2.1-5.8,4.1-8.6,6.2-4,3.1-7.8,6.3-11.7,9.5-.5.5-1,1-1.4,1.6-2.8-3.1-5.7-6.2-8.7-9.2-12.7,6.8-25.8,13.2-37.9,21.1-.7,1.2-1.5,2.4-2.1,3.7-2.1,5-4.1,10-6.1,15.1-.5.5-1,1-1.5,1.5-2.9,4-6.3,7.5-10.4,10.2-3,2-5.5,4.6-8.3,7-1.3,1-2.5,2-3.8,3-7.6,2-14.7,7.9-21.2,12.2.9.7,1.3,1,1.7,1.2,0,.3,0,.5,0,.8,3.5,12.6,9.8,24.2,15,36.1,2.2,4.9,4.2,10,8.1,13.9,4.5,4.5,9.8,8.5,14.7,12.6,8.1.8,17.4,2.8,25.1-1.1,7.8-4,13.7-8,23-6.5,2.9,1.9,6,3.3,7.5,6.6,1.4,3.2,2.2,7.1,3.3,10.5.4,1.4.8,2.9,1.2,4.3,1.8,6.2,3.2,12.4,7.5,17.7,8.5,10.3,15.3,21.8,19.5,34.6.6,1.8,1.9,3.5,3.2,4.9,7.8,8,15.8,15.9,23.6,24,4.8,4.9,9.4,10,14,15h-4.5c-11.1-11.5-22.1-23-33.4-34.3-3.6-3.6-6.2-7.6-8.1-12.3-2.4-6.2-4.4-12.7-8.7-18.1-3.1-3.9-5.7-8.2-8.9-12-4.6-5.4-6.2-11.8-7.7-18.4-1.3-4.9-2.5-9.8-4-14.7-.2-.8-1.3-1.3-2-1.9-1.4-1.1-2.8-2.2-4.2-3.4-4.2,1.3-8.6.9-12.7,2.6-4.7,1.9-9.2,4.9-13.7,7.3-7.3-.5-14.1-.9-20.8-1.4-5.8-5.2-11.6-10.1-17.7-14.9h0c-5.3-7.7-8.5-16.8-12.3-25.3-3.8-8.6-7.7-17.2-11.6-25.8-7.3,3.1-14.1,9.2-20.7,13.7-6.8,4.7-13.6,9.4-20.4,14.1-12.5,8.8-25.1,15.9-40,19.7-31.1,8.1-63.5,11.3-95.1,16.7,0,9.3-.3,18.4,1,27.6,1.4,9.8,3.6,19.4,5.6,29.1.2.5.5.9.7,1.4-1.6,3.6.3,8.2,1.2,12.1.8,3.2,1.4,8.4,3.6,10.8,4.5,4.9,15.6,3.3,21.4,3.4,9.2.2,18.4.3,27.6.6,8.3.2,15.6.2,22.7,4.7-4.1-1.3-7.7-2.7-12-3-4.5-.3-9-.4-13.4-.5-8.7-.2-17.5-.4-26.2-.6-6.7-.2-17.3,1.3-22-4.8-3.9-5.2-4.2-13.8-5.5-20-20.4,13.1-41.7,24.8-62.2,37.7-9.8,6.2-19.9,8.6-31.3,5.1-10-3.1-14.7-11-22.5-16.9h0c-.5-.8-.8-1.8-1.4-2.5-3-3.5-6.1-6.8-9.2-10.2-4.7-5.2-9.5-10.5-14.2-15.7-3.3-3.7-6.6-7.4-9.9-11.1-1.6-1.7-3.4-3.2-5.1-4.7-2-2.2-4-4.5-6-6.7-3-3.5-6-7-9-10.6h0c-1.9-4.2-3.9-8.5-5.8-12.7-7.8,0-15.9,2.8-23.6,4.2-8.2,1.6-16.4,2.7-24.6,3.9-6.2-3.2-8.7-6.6-6.5-13.5,2.3-7.2,7.7-14.3,8.5-21.8-19.1,8-39.3,13.3-58.9,19.9-18.8,6.3-39.1,10.8-56.4,20.7v-3.7c4-.9,8-3.7,11.8-5.3,3.6-1.4,7.2-2.6,10.8-3.8,7.7-2.5,15.5-4.9,23.2-7.4,15.7-5.1,32-9.5,47.3-15.8-3.8-5.5-7.7-11-11.9-16.2-5-6.1-11.9-10.1-18.2-14.5h0c-1-1-2.1-2.1-3.1-3-4.2-3.7-8.4-7.5-12.6-11.2-3.6-5.3-5.8-11.1-6.3-17.7-.6-8.1-1.7-16.2-2.6-24.4.6-1.3,1.2-2.6,1.9-3.9,1.4-2.7,2.7-5.4,4.1-8.1,3.3-1.1,6-4.4,9.5-5.8,3.7-1.4,7.6-2.4,11.4-3.5-4.5-2.6-10.3-3.5-15.3-5.1-5.5-1.7-11-3.3-16.6-5-11.1-3.3-22.1-5.6-33.4-7.8,0-1.2,0-2.5,0-3.7,5.5,1.5,11.2,2.1,16.7,3.7,6.1,1.8,12.3,3.6,18.4,5.4,11.4,3.4,22.9,7.9,34.6,10.4,11.9,2.5,23.7-1.9,35.1-5.1,11.5-3.2,22.9-6.5,34.2-10.1-2.5-10-6.5-19.7-9.6-29.5-2.8-9.2-7.2-16.4-14.6-22.7-.7-1.1-1.4-2.3-2.3-3.3-2.7-3.2-5.5-6.3-8.3-9.4-6.6-6.1-5.8-14.2-5.1-22.4-15.6,0-31.5,2.1-47,3.5-17.4,1.5-34.7,2.4-52.1.2v-3c12.5,1.1,25.1.5,37.7.2,11.6-.2,22.8-.9,34.3-2.5,12.5,0,25,0,37.5,0-2.4.4-4.7.8-7.5,1.3,0,7.7-.9,14.1,4,20.7,4.8,6.5,11.1,12,16.4,18.1,11.2,13,13.4,32.2,19.8,47.7,23.9-4.5,47.2-9.4,71.5-10.2,11.6-.4,23.5-1.9,35-.6,11.8,1.4,23.5,3.8,35.4,3.2,1.2.4,2.3.9,3.5,1.3,0,.2.1.5.2.7-1,.3-1.9.7-2.9,1-17.1.6-33.8-3.6-50.8-3.6-17.5,0-35.2,2.4-52.7,3.6-5,1-10,2-15,2.9-7.7,1.6-15.5,3.2-23.4,4.9,1,21.4-2,42.1-4.5,63.6,10.4-7.4,20.5-11,33.1-13.1,13.6-2.4,27.1-5,40.7-7.4,13.7-2.4,27.3-5.1,41.1-7.3,12.8-2.1,25.5-2.4,38.5-2.4,1.8-4.4,1.1-10.5,1.5-15.3.4-5.6.8-11.3,1.1-16.9.7-11.5,1.4-23,.9-34.5-4.2-7.7-8.5-15.4-12.7-23.2-1.6-2.9-2.9-6.6-5.6-8.6-3-2.3-7.6-3.4-11-4.8-14.8-6.2-28.9-14.3-45.4-13.7-8.9.4-17.8.5-26.7.7-8.1.2-16.1,1.3-24.3.8-16.5-1.1-32.8-5.5-48.9-8.9,5.5,0,11,0,16.5,0,13.3,3.3,27,6.7,40.8,6,13.5-.6,27-1.5,40.5-1.6,6.6,0,13.6-.1,19.9,2.1,7,2.5,13.8,5.6,20.6,8.5,12.5,5.3,25.1,10.6,37.6,15.8.3-4.5-3-9.9-4.6-14.2-2-5.5-3.8-11.1-5.6-16.7.3,0,.5,0,.7,0,2,5.4,3.9,10.9,5.9,16.3,1.7,4.6,3.5,9.1,5.3,13.7,5.4,4.8,12.5,6.9,19,10,7,3.3,13.6,7.3,20.3,11.1,19.7-7.8,39.6-14.8,59-23.3,6.8-3.9,13.6-7.7,20.4-11.7,9-5.3,17.9-10.7,26.9-16,2.5,0,5,0,7.5,0-1.5,1-2.9,2-4.4,2.9-1,.6-2.1,1.1-3.1,1.7-4.4.6-8.6,4-12.4,6.2-3.9,2.3-7.8,4.6-11.7,7-8.1,5-16.3,9.8-24.9,13.9-17.4,8.4-36,14.4-54.1,21.4,22.1,16.1,45.6,30.6,69.9,43,6.4,3.3,12.8,6.5,19.2,9.7,3,1.5,6.2,3.7,9.5,4.4,3.3.6,6.7-.4,9.9-1,6.6-1.3,13-3,19.6-4.1,3-.5,6.1-.6,8.9-1.8,3-1.3,5.6-3.7,8.2-5.7-.1,3.4-2.8,4.6-5.3,6-1,.4-1.9.7-3.6,1.4,5,3.4,9.3,6.3,13.6,9.3,7.9-.2,15.9-.5,23.8-.7,7.5-.2,14.6-1.6,21.9-3,13.5-2.5,26.3-6.3,38.1-13.7,8.6-4.7,17.2-9.3,25.9-14,3-1.7,5.3-1.2,7.4,1.7,1.2,1.7,2.4,3.4,3.7,5.2,1.4-1,2.5-1.8,3.6-2.6,4.4-3.3,9.1-6.4,13.2-10.1,3.2-2.9,5.7-6.7,8.6-10,3.9-4.5,7.9-8.9,11.6-13.6,5.5-7,9.3-14.6,7.8-23.9-1.3-2.7-2.4-5.5-3.9-8.1-4.1-7.1-8.4-14.1-12.6-21.2,1.3,0,2.5,0,3.7,0,3.9,10.3,12.9,18.5,15.8,29.3,2.7,10-4.8,18.8-9,27,0,0,0,0,0,0-2.5,2.8-5.1,5.5-7.5,8.4-.9,1.1-1.5,2.4-2.2,3.7ZM836.3,640c1.2-4.3,2.5-8.5,3.7-12.8,2-4,4.2-7.9,5.3-12.8-18.2,2.9-35.7,5.7-53.2,8.5-.1.3-.3.6-.4,1,15.9,17.5,31.7,35.1,47.6,52.6.4-.2.7-.4,1.1-.6-1.1-4.5-2.3-9-3.4-13.5l-.7-3.7c0-6.2,0-12.5,0-18.7ZM895.5,557.5c-.4-1.7-.7-3.3-1.2-5.4-8.1.9-16.2,2.5-24.3,3.9-1-.3-1.9-.5-3.3-.9.9-1,1.3-1.6,1.8-2.1,3.4-.5,6.8-.9,10.1-1.5,4.6-.9,9.3-1.9,13.9-2.9,1.7-3.2,0-8.2-.4-11.7-.5-4.2-.5-8.4,0-12.7,1.3-8.5,5.4-15.8,9-23.5-24.6-1.2-50.1,6.1-74.1,10.4-12.8,2.3-25.7,4.6-38.5,7-10.4,2-21,4.7-28.8,12.4-.7.8-2,1.9-1.8,2.5.9,3.9-.8,8.2,1.8,11.7,2.8,9.8,6.2,19,10.1,28.4,6.2,0,13-2.6,19-3.9,6.5-1.5,12.9-2.9,19.4-4.4,13.1-3,26.2-5.9,39.3-8.9,2.7-.3,5.3-.5,8-.8.1.3.3.7.4,1l-1.6,2c-4,.8-8,1.5-12,2.3-1.7.5-3.5,1-5.2,1.5-22.1,3-44.5,8.7-66,14.6,5.8,14.5,11.6,28.9,18,43.1,19.2-2.4,38.3-5.7,57.4-8.6,19-2.9,38.4-4.9,57.1-9.3-1.2-7.3-2.7-14.6-4.3-21.8-.2-1.3-.3-2.7-.5-4-1.1-6.2-2.2-12.3-3.3-18.5ZM924.7,601.8c-5.8,1-11.5,2-17.5,3.1.4,12.4-.6,25.5,3.3,37.4.9,6,3.6,11.7,5.7,17.4,2,5.5,3.6,11.7,6.9,16.6,11.1-6.8,22.1-13.5,33.2-20.3-1.1-4.4-2-8.4-2.9-12.3-1.1-7.9-2.3-15.7-2.7-23.8-.4-7.1,0-14.8-1.4-21.8-8.1.5-16.3,2.4-24.4,3.6ZM918,454c-2.3,6.4-1.3,15.1-1.7,21.9-.4,7.4-1.7,15.2-.9,22.6,8.7,2,17.5,4.1,26.2,6,8.6,1.9,16.5.2,25.1-1,.5.2.9.4,1.6.7-.6.9-1.1,1.6-1.6,2.3-6.5.8-12.5,2.8-19.2,2.2-5.9-.5-12.1-2.5-17.9-3.7,3.4,6.3,7.3,12.6,9.5,19.5,2.4,7.6,4,15.4,5.9,23.2,1.9,8,4.1,16,5.8,24.1.8,3.8,1.5,7.7,1.7,11.6.3,3.9-.8,7.8,1.4,11,34.2-5.4,69.8-8.2,102.7-19.2-3.1-17.9-6.7-35.7-10.5-53.5-3.4-9.7-6.7-19.4-10.1-29.4-10.2,1.6-20.2,4-30.3,6.1-.5-.2-.9-.4-1.5-.7.6-.9,1.1-1.6,1.5-2.3,9.4-2.1,18.8-4.1,28.4-6.2-1.6-4.9-2.9-10.1-5-14.7-2-4.4-6.5-6.1-10.5-8.2-4-2.1-8.4-5-12.9-5.8-5.1-.9-10.6-.5-15.8-.5-21.8,0-43.5,1.7-65.2,1.7-.5-.2-.9-.4-1.6-.8.7-.9,1.2-1.6,1.6-2.3,25-.9,50-2.2,75-2.2,0-.2.1-.4.2-.7-5.1-3.3-10.1-6.6-15.2-9.9-1-.7-2-1.5-3-2.2-5.5-3.5-11-7-16.5-10.6-1-.7-2-1.5-3-2.2-19.2-11.7-38.5-21.2-59.5-29.2,4,8.6,8.9,16.8,13.3,25.2,4.3,8.5,2.4,18,2,27.2ZM1109.3,490.7h0c-3.1-2.3-6.2-4.6-9.3-6.9-3.2-2.3-5-3.4-8.9-3.4-.7,5.5,15,55.3,21,59.9,5.2-3.4,10.4-6.8,15.6-10.2-.7-7.2-1-15-3.3-21.9-2.5-7.5-9.5-12.3-15.1-17.5ZM1142.2,521.4c8.3-5.7,16.5-11.5,24.8-17.2.5-.5,1-1,1.5-1.5,6.5-6,9.4-13.9,11.9-22.9-21.6,8.2-43.5,10.5-65.8,10.3-.2.5-.4,1-.6,1.5,5.4,4,10,8.2,12.5,14.7,2.6,6.9,3.1,14.8,4.3,22.1,4.2-2.5,7.8-4.7,11.4-6.9ZM740.2,580.7c-3.2,7.3-6.5,14.5-9.7,21.8-.8,2.4-1.6,4.9-2.5,7.4,1,1.7,1.8,3.3,2.7,4.8,16.5,0,32.9-4.8,49-8.1-7.6-19-15-37.6-22.6-56.6-2.6,5.7-5.2,11.5-7.8,17.2-2.4,5.3-6.2,8.7-9.2,13.5ZM936,547c-12.8.8-25.5,2.7-38.5,4.5,3.2,17.1,6.3,33.5,9.4,50.1,14.4-2.3,28.4-4.5,42.9-6.9-.5-10.8-1.8-20.7-4-31.3-1.4-5.7-2.8-11.4-4.3-17.6-1.9.4-3.7.7-5.5,1ZM887.3,697c5.8-2.2,11.2-6.2,16.5-9.4,5.4-3.3,10.8-6.5,16.2-9.8-4.3-11.1-7.9-22.2-12.6-32.8-22.1,6.8-44,12.7-66.5,17.9,1.2,6.5,2.7,12.8,4.4,19.1,1.3,1.5,2.5,3,3.8,4.4,5.4,5.7,9.8,10.7,17.8,12.5,6.7,1.5,14.4,1.7,20.5-1.9ZM1106.3,544c1.4-.7,2.8-1.5,4.5-2.4-11-19-15.4-40.1-22.2-60.5-6.9,1.4-13.7,2.8-20.6,4.2,2.5,12,4.5,23.6,9.2,34.5,2,4.8,3.9,9.7,5.9,14.5-8.6-15.5-12.5-31.6-16.3-48.8-10.1,2.1-19.7,4.1-30,6.3,11.2,26.9,17.2,54.5,21,83.1,14.3-4.9,25.2-13.8,36.6-21.8-.3-1.2-.6-2.2-.8-3.1.3,0,.5,0,.8,0,.3.8.6,1.6,1.1,2.7,4.4-3.5,7.7-6.1,11-8.7ZM696.8,563.5c7.2,7.4,13.2,15.4,19.5,23.6,8.6-3.6,20.7-6.3,26.7-13.9,3-3.8,4.7-8.8,6.6-13.2,2.1-4.7,4.2-9.4,6.2-14.1-.5-6.4-1.4-12.5-.9-18.9.6-6.7,1.6-13.4,2.4-20,1.5-13.9,2.9-27.8,1.8-41.8-14,4-28,8.1-42,12-6.7,1.9-13.6,3.5-20.5,4.3-7.2.8-14.2,1.4-21.1,3.7-5.8,1.9-10.5,5.6-12.8,11.4-2.4,6-.7,13.8,0,20.1,1.2,12.8,3.1,24.4,14.7,31.9,1.3,1,2.5,2,3.8,3,4,3,8,6,12,9l3.7,3ZM903.9,605.5c-8.9,0-18.2,2.4-26.9,3.8-4.5.7-9,1.5-13.5,2.3-3.7.6-9.1.6-12.6,2.2-2.8,1.2-3.6,4.8-4.9,7.4-1.9,3.9-3.5,7.9-4.6,12-2.5,8.8-2.6,17.3-1.1,26.2,22.9-3.6,44.5-9.9,65.3-17.3-.6-12.5-1.1-24.4-1.7-36.6ZM940.3,543c-1.4-14.7-7.5-27.3-14.7-39-7.3-1.6-14-3.9-21.1-2.3-10.1,14.4-11.8,30-7.4,46.6,14.6-1.8,28.8-3.5,43.1-5.3ZM1033.5,474.1c-.3.3-.6.6-.9.9,1.5,4.5,3,9,4.6,13.7,6-1.3,11.4-2.5,16.9-3.6,0-.3,0-.6,0-.9-6.9-3.4-13.8-6.7-20.7-10.1Z" fill="#fefefe"/>
        <path d="M619.5,457v-77.2c32.8,1.2,64.9-2.5,97.6-4.4-.4,8.4-.4,16.3,5.9,22.3,3.8,4.2,7.5,8.5,11.3,12.7,2.4,3.3,5.6,5.8,7.9,9.2,2.4,3.5,4.1,7.3,5.4,11.3,3.3,10,6.5,20,9.8,30-11,4.6-23.4,7.1-34.9,10.2-10,2.7-22.3,7.8-32.6,4.9-23.4-6.5-46.4-15.9-70.5-19.3Z" fill="#f8f7e9"/>
        <path d="M1299,706c-4.7-5-9.3-10.1-14-15-7.8-8-15.8-15.9-23.6-24-1.4-1.4-2.6-3.1-3.2-4.9-4.2-12.8-11-24.3-19.5-34.6-4.3-5.3-5.8-11.5-7.5-17.7-.4-1.4-.8-2.9-1.2-4.3.3-.8.5-1.5.8-2.3,7.7-12.1,13.4-25.1,17.2-38.8,4.4-15.9,8.2-32,12.7-47.9,4.4-15.3,11-29.6,19.5-43.1,7.8-12.5,15.7-24.9,19.9-39.2,0-.2.3-.3.5-.5v272.2h-1.5Z" fill="#bcdd87"/>
        <path d="M619.5,619c0-52.2,0-104.5,0-156.7,21.1,3.1,41.7,10.5,62.1,16.7-8.6,2.8-10.8,2.4-18.6,9.5-1,1.3-2.3,2.6-2.9,4.1-1.2,2.6-2,5.3-3,7.9-.5,8.8,1.8,17.2,2.6,25.9.6,6.3,2.9,11.7,6.4,16.9,4.5,5.7,10.3,9.9,16.5,13.5,0,0,0,0,0,0,4.7,4.7,10.5,8.1,15.2,12.8,5.1,5.2,9.1,11.6,13.5,17.4-15.4,5.7-31.2,10.4-46.8,15.5-15,5-31.1,8.6-44.9,16.6Z" fill="#f8f7e9"/>
        <path d="M1227.7,610.8c1.5,6.6,3.2,13,7.7,18.4,3.2,3.8,5.8,8.1,8.9,12,4.3,5.4,6.3,11.9,8.7,18.1,1.9,4.7,4.4,8.7,8.1,12.3,11.3,11.3,22.3,22.9,33.4,34.3h-154.5c10.4-18.8,25.9-33.5,41.5-47.9,8.2-7.5,16.5-14.9,24-23.1,7-7.6,15.5-16,20.7-25,.5.3,1,.5,1.4.8Z" fill="#bbdb87"/>
        <path d="M908.3,373c51,0,102,0,153,0-15.3,9-30.5,18-45.8,27-19.1,7.8-38.3,15.5-57.6,22.7-7-2.7-13.4-7.2-20.1-10.6-5.8-2.9-15-4.9-19-9.9-2.5-6.5-5-12.9-7.3-19.4-1.2-3.2-2.1-6.6-3.1-9.8Z" fill="#f8f7e9"/>
        <path d="M762,373c47.5,0,95,0,142.5,0,3.5,9.5,6.9,19,10.5,29-12.8-3.8-25.3-10.3-37.6-15.6-12.7-5.4-23.9-10.7-38-10.3-13.6.4-27.7,0-41.3,1.4-12.5,1.2-24-1.7-36.2-4.5Z" fill="#f8f7e9"/>
        <path d="M903.7,453.3c-11.9.5-23.6-1.8-35.4-3.2-11.6-1.4-23.4.2-35,.6-24.4.8-47.7,5.7-71.5,10.2-6.5-15.5-8.7-34.7-19.8-47.7-5.3-6.1-11.6-11.7-16.4-18.1-4.9-6.6-4-12.9-4-20.7,2.8-.5,5.1-.9,7.5-1.3,3.7,0,7.5,0,11.2,0,16.1,3.4,32.4,7.9,48.9,8.9,8.2.5,16.1-.6,24.3-.8,8.9-.2,17.8-.3,26.7-.7,16.5-.7,30.6,7.4,45.4,13.7,3.4,1.4,8.1,2.6,11,4.8,2.7,2.1,4.1,5.7,5.6,8.6,4.2,7.7,8.5,15.4,12.7,23.2-.2.2-.5.5-.7.7-2.8-3-4.5-7.7-6.4-11.3-2.2-4.1-4.4-8.2-6.6-12.2-1.9-3.4-3.2-6.8-6.7-8.8-4-2.3-8.8-3.9-13.1-5.7-8.1-3.5-16.2-7.5-24.6-10.2-8.4-2.7-16.4-1.5-25.1-1.2-18.2.8-36.6,1.8-54.7-.6-18.6-2.4-35.7-9-54.8-6.6,0,4-.4,8.1.3,12,.7,3.7,2.6,5.8,5,8.6,5.3,6.3,11.1,12.1,16.4,18.3,5.3,6.3,7.6,13.5,10.1,21.2,2.8,8.4,5.4,16.8,8.5,25,12-2.1,23.7-5.6,35.7-7.5,12.1-1.9,24.2-2.7,36.4-3.2,12.3-.5,24.5-1,36.8.3,6.1.6,12,2,18.1,2.6,5.4.5,10.9.3,16.3.3,0,.2,0,.5,0,.7h-2.2Z" fill="#e0dfda"/>
        <path d="M762,373c12.2,2.8,23.6,5.7,36.2,4.5,13.5-1.3,27.7-1,41.3-1.4,14-.4,25.3,4.9,38,10.3,12.3,5.2,24.8,11.8,37.6,15.6-3.6-9.9-7.1-19.5-10.5-29,.5,0,1,0,1.5,0,1.8,5.6,3.6,11.1,5.6,16.7,1.6,4.2,4.9,9.7,4.6,14.2-12.6-5.2-25.1-10.5-37.6-15.8-6.8-2.9-13.7-6-20.6-8.5-6.3-2.3-13.3-2.1-19.9-2.1-13.6,0-27,1-40.5,1.6-13.8.7-27.5-2.7-40.8-6,1.7,0,3.5,0,5.2,0Z" fill="#e0e0db"/>
        <path d="M619.5,457c24.1,3.3,47.1,12.8,70.5,19.3,10.3,2.9,22.6-2.2,32.6-4.9,11.5-3.1,23.9-5.6,34.9-10.2-3.3-10-6.6-20-9.8-30-1.3-4-3.1-7.8-5.4-11.3-2.3-3.4-5.5-6-7.9-9.2,0-.3,0-.5,0-.8,7.4,6.3,11.8,13.5,14.6,22.7,3.1,9.9,7.1,19.5,9.6,29.5-11.3,3.6-22.8,6.9-34.2,10.1-11.4,3.2-23.1,7.6-35.1,5.1-11.7-2.5-23.2-7-34.6-10.4-6.1-1.8-12.3-3.6-18.4-5.4-5.5-1.6-11.2-2.2-16.7-3.7,0-.3,0-.5,0-.7Z" fill="#dfdfd9"/>
        <path d="M619.5,623.5c17.4-9.9,37.6-14.4,56.4-20.7,19.6-6.5,39.8-11.9,58.9-19.9-.8,7.5-6.2,14.6-8.5,21.8-2.2,6.9.3,10.3,6.5,13.5-.5.2-1,.5-1.5.7h0c-13.9-6.9-1.9-24.2,2.3-33.9-19.5,6.4-39,12.9-58.5,19.2-9.9,3.2-19.7,6.4-29.6,9.6-9,2.9-17.2,6.8-25.9,10.4,0-.3,0-.5,0-.7Z" fill="#dfded9"/>
        <path d="M619.5,619c13.8-8,29.8-11.6,44.9-16.6,15.6-5.2,31.4-9.8,46.8-15.5-4.4-5.8-8.3-12.1-13.5-17.4-4.7-4.7-10.4-8.1-15.2-12.8,6.3,4.5,13.3,8.5,18.2,14.5,4.2,5.1,8.1,10.7,11.9,16.2-15.3,6.3-31.5,10.7-47.3,15.8-7.7,2.5-15.5,4.9-23.2,7.4-3.6,1.2-7.3,2.4-10.8,3.8-3.8,1.5-7.9,4.3-11.8,5.3v-.7Z" fill="#dfdfda"/>
        <path d="M723,397.7c-6.3-6.1-6.4-13.9-5.9-22.3-32.7,1.9-64.7,5.5-97.6,4.4v-1.5c17.4,2.1,34.7,1.3,52.1-.2,15.6-1.3,31.4-3.5,47-3.5-.8,8.3-1.5,16.3,5.1,22.4-.2.2-.5.5-.7.7Z" fill="#e1e0db"/>
        <path d="M619.5,374.5v-1.5c20.2,0,40.5,0,60.7,0-.4.2-.8.6-1.3.7-9.1.5-18.3,1.4-27.5,1.5-10.7.1-21.4-.4-32-.7Z" fill="#f8f7e9"/>
        <path d="M663,488.5c7.7-7.2,10-6.7,18.6-9.5-20.4-6.2-41-13.6-62.1-16.7,0-.3,0-.5,0-.7,11.3,2.2,22.4,4.5,33.4,7.8,5.5,1.6,11,3.3,16.6,5,5,1.5,10.8,2.4,15.3,5.1-3.8,1.1-7.7,2-11.4,3.5-3.5,1.4-6.2,4.7-9.5,5.8-.3,0-.5,0-.8,0Z" fill="#dfdfda"/>
        <path d="M619.5,374.5c10.7.2,21.4.8,32,.7,9.2-.1,18.3-.9,27.5-1.5.4,0,.8-.4,1.3-.7,3.7,0,7.5,0,11.2,0-11.5,1.6-22.7,2.3-34.3,2.5-12.6.2-25.2.9-37.7-.2v-.7Z" fill="#dfdfda"/>
        <path d="M1269.7,429.3c4.2-8.2,11.7-16.9,9-27-2.9-10.8-11.8-19-15.8-29.3.2,0,.5,0,.7,0,3,5,5.9,10,8.9,14.9,2.8,4.8,6.2,9.5,7.3,15,1.7,9.2-3.9,20-10.1,26.3Z" fill="#dfdfda"/>
        <path d="M1015.5,400c15.3-9,30.5-18,45.8-27,.7,0,1.5,0,2.2,0-9,5.3-17.9,10.7-26.9,16-6.8,4-13.6,7.8-20.4,11.7-.2-.2-.5-.5-.7-.7Z" fill="#e0dfdb"/>
        <path d="M1259.3,373c4.2,7.1,8.5,14.1,12.6,21.2,1.5,2.6,2.6,5.4,3.9,8.1-.2.2-.5.5-.7.7-5.2-9.1-10.3-18.2-15.4-27.3-.5-.8-.7-1.8-1-2.7.2,0,.5,0,.7,0Z" fill="#e0dfda"/>
        <path d="M908.3,373c1,3.3,2,6.6,3.1,9.8,2.4,6.5,4.9,12.9,7.3,19.4-.2.3-.5.5-.7.8-1.8-4.6-3.6-9.1-5.3-13.7-2-5.4-4-10.9-5.9-16.3.5,0,1,0,1.5,0Z" fill="#e2e1dc"/>
        <path d="M1050,706c-3.3-5.3-6.5-10.5-9.8-15.8-.2-.5-.5-1-.7-1.5v-.8c.7.4,1.7.7,2.1,1.3,3.4,5.5,6.6,11.1,9.9,16.7h-1.5Z" fill="#e2e2dd"/>
        <path d="M959.2,654.3c-2-9.7-4.2-19.3-5.6-29.1-1.3-9.2-1-18.3-1-27.6,31.6-5.4,64-8.7,95.1-16.7,14.9-3.8,27.5-11,40-19.7,6.8-4.8,13.6-9.5,20.4-14.1,6.6-4.5,13.3-10.5,20.7-13.7,3.9,8.6,7.8,17.2,11.6,25.8,3.8,8.5,7,17.6,12.3,25.3-6.5-5.8-9.4-16.4-13-24.3-3.8-8.6-7.7-17.1-11.6-25.7-13.3,8.7-26.3,17.7-39.2,27-12.1,8.8-24.3,15.9-38.9,20-15.1,4.3-31.1,6.1-46.5,9.1-16.6,3.1-33.5,5.2-50.2,7.8-1.1,18.3,2.5,36,6.1,53.9.6.1,1.3.3,2,.4-.8.5-1.5,1-2.3,1.5Z" fill="#e0dfda"/>
        <path d="M1039.5,688v.8c-1-.5-2-1-2.9-1.5-7.1-4.5-14.4-4.5-22.7-4.7-9.2-.2-18.4-.4-27.6-.6-5.9-.1-17,1.4-21.4-3.4-2.3-2.5-2.8-7.6-3.6-10.8-.9-3.8-2.9-8.4-1.2-12.1,3.5-2.2,7-4.5,10.5-6.7-.8,2.3-3.4,3.2-5.4,4.6-2,1.5-3.6,3.2-5.3,4.9,1.2,5.7,1.5,16.7,6.8,20.4,2.8,1.9,6.5,1.6,9.7,1.7,4.3.1,8.6.2,12.9.3,9.1.2,18.2.4,27.2.7,8.2.3,17.1,0,23.2,6.4Z" fill="#e3e2dd"/>
        <path d="M1025.3,613.7c-2.5,1.8-5,3.5-7.5,5.3-3.8,2.2-7.5,4.5-11.3,6.7-2.5,1.8-5,3.5-7.5,5.3-3.5,2-7,4-10.5,6-1,.7-2,1.5-3,2.2-3.5,2-7,4-10.5,6,0,0,0,0,0,0l2.3-2.2c4-2.5,8-5,12-7.5,3.5-2.5,7-5,10.5-7.5,3.5-2.3,7-4.5,10.5-6.8,2.7-1.7,5.5-3.5,8.2-5.2,3.5-2.3,7-4.5,10.5-6.8l7.1-4.3c.2.2.4.5.6.7,0,.4-.2.9-.2,1.3-3.7,2.3-7.5,4.5-11.2,6.8Z" fill="#f7f7f6"/>
        <path d="M1152.8,584.5c6.1,4.8,11.9,9.7,17.7,14.9,6.7.4,13.5.9,20.8,1.4,4.5-2.4,8.9-5.4,13.7-7.3,4.1-1.7,8.5-1.2,12.7-2.6,1.4,1.1,2.8,2.2,4.2,3.4,0,.3,0,.5,0,.8-.9-.7-1.8-1.3-2.8-2.1-4.2-.2-8.5-.5-12.5.9-3.8,1.3-7,4.2-10.7,5.9-8.1,3.8-17.9,1.1-26.5.3-5.2-4.9-10.8-10.2-16.5-15.5Z" fill="#dfdfda"/>
        <path d="M1123.5,570.3c-.6,1-1.2,2-2,3.3-6.9-4.6-13.5-8.9-20.5-13.6,2.2-3.6,4.1-6.8,6.4-10.4,1,.7,1.8,1.3,2.6,1.8-.3,0-.6,0-.8,0-3.5,1.7-4.1,5.4-6.5,8.4,6.4,4.1,12.4,8,18.3,11.8,1-.6,1.7-1.1,2.4-1.5h0Z" fill="#d4d0c1"/>
        <path d="M1047,593.5c-2.6.6-5.3,1.3-8.3,2-.6-3.2-1-5.5-1.6-8.4,3-.6,5.8-1.3,9.1-2,.6,3,2.5,5.4.8,8.4-.4-2.2-.8-4.3-1.3-6.8-2.3.3-4.4.7-7.1,1.1.4,2.2.8,4.1,1.1,6.2,2.6-.2,5-.4,7.3-.6Z" fill="#d5d1c2"/>
        <path d="M1109.2,551.5c.3,0,.6,0,.8,0,6.1,3.6,12,7.3,17.9,11.2-.3,3.2-2.5,5.3-4.5,7.6h0c1.1-2.2,2.2-4.4,3.4-6.9-5.8-3.9-11.7-7.9-17.7-11.8Z" fill="#d7d3c3"/>
        <path d="M970.5,649c-3.5,2.2-7,4.5-10.5,6.7-.2-.5-.5-.9-.7-1.4.8-.5,1.5-1,2.3-1.5h0c1.2-.6,2.5-1,3.6-1.7,3.1-1.9,6.1-3.8,9.1-5.8.3,0,.5,0,.8,0,0,0,0,0,0,0l-1.5,1.5c-1,.7-2,1.5-3,2.2Z" fill="#f7f7f6"/>
        <path d="M1221.8,595c0-.3,0-.5,0-.8.7.6,1.7,1.2,2,1.9,1.4,4.9,2.7,9.8,4,14.7-.5-.3-1-.5-1.4-.8-1.5-5-3-10-4.5-15Z" fill="#ddded8"/>
        <path d="M973.5,646.8c.5-.5,1-1,1.5-1.5,3.5-2,7-4,10.5-6,.6,1.2-10.1,8.3-12,7.5Z" fill="#e2e2dc"/>
        <path d="M974.2,645.2c-3,1.9-6,3.9-9.1,5.8-1.1.7-2.4,1.2-3.6,1.7,3.7-2.6,7.4-5.2,11.2-7.8.3-.2,1,.2,1.5.3Z" fill="#e2e2dd"/>
        <path d="M989.2,635.5c-4,2.5-8,5-12,7.5-.6-1.2,10.1-8.3,12-7.5Z" fill="#e2e2dd"/>
        <path d="M1006.5,625.7c3.8-2.2,7.5-4.5,11.3-6.7-3.4,2.8-6.6,5.9-11.3,6.7Z" fill="#e2e2dd"/>
        <path d="M1025.3,613.7c3.7-2.3,7.5-4.5,11.2-6.8-3.4,2.9-6.6,6-11.2,6.8Z" fill="#e2e2dd"/>
        <path d="M1029,609.2c-3.5,2.3-7,4.5-10.5,6.8,3.5-2.3,7-4.5,10.5-6.8Z" fill="#e2e2dd"/>
        <path d="M1010.3,621.2c-3.5,2.3-7,4.5-10.5,6.8,3.5-2.3,7-4.5,10.5-6.8Z" fill="#e2e2dd"/>
        <path d="M988.5,637c3.5-2,7-4,10.5-6-3,2.1-5.9,4.3-9,6.3-.3.2-1-.2-1.5-.3Z" fill="#e2e2dd"/>
        <path d="M1161,452.5c0-.2,0-.5,0-.7,1-5.2-.8-10.4-1.9-15.6-1.1-5.2-2-10.5-3-15.8,3.7-.7,6.7-1.3,10-1.9,2.4,11.4,4.6,22.3,6.8,33.2-2.9-.7-5.9-1.4-8.7-2.1-1.2,1.1-2.3,2-3.3,2.9Z" fill="#dbe2f3"/>
        <path d="M1105.5,470.5c-2.6,2-5.2,4.4-8.2,5.7-2.8,1.2-5.9,1.3-8.9,1.8-6.6,1.1-13.1,2.8-19.6,4.1-3.2.6-6.6,1.7-9.9,1-3.3-.7-6.5-2.9-9.5-4.4-6.4-3.2-12.8-6.4-19.2-9.7-24.3-12.5-47.8-26.9-69.9-43,18.1-6.9,36.6-12.9,54.1-21.4,8.6-4.2,16.8-8.9,24.9-13.9,3.9-2.4,7.8-4.7,11.7-7,3.9-2.2,8-5.6,12.4-6.2-16.5,9.8-32.7,20.5-50,28.7-8.6,4.1-17.3,7.6-26.2,10.8-8.1,2.9-17,5.2-24.4,9.6,23,15.1,45.6,30.2,70,42.8,6,3.1,12,6.1,18.1,9,2.8,1.4,5.9,3.4,9.1,3.8,3,.4,6.2-.7,9.1-1.2,7.4-1.4,14.7-2.9,22-4.5,3.2-.7,5.7-1.4,8.5-3.1,1.3-.8,4.5-4.2,5.8-2.9Z" fill="#dfdfda"/>
        <path d="M1194,469.8c-11.8,7.4-24.5,11.2-38.1,13.7-7.4,1.4-14.5,2.8-21.9,3-7.9.2-15.9.5-23.8.7-4.3-2.9-8.6-5.9-13.6-9.3,1.7-.7,2.7-1,3.6-1.4-.2.6-.5,1.1-.8,1.9,3.7,2.6,7.4,5.2,11.4,8,14.8-.8,29.5-.5,44.1-3.7,13.7-2.9,26-7.2,38.3-13.7.2.2.5.5.7.7Z" fill="#e0e0db"/>
        <path d="M1173,451.7c-2.2-10.9-4.5-21.8-6.8-33.2-3.3.6-6.3,1.2-10,1.9.9,5.3,1.9,10.5,3,15.8,1.1,5.2,2.9,10.3,1.9,15.6-2.4-10.6-4.7-21.2-6.9-31.8,4.1-.9,7.9-1.8,12.5-2.8,2.7,11.4,6.6,23.6,7.1,35.3-.2,0-.4.2-.6.3,0-.3-.1-.7-.2-1Z" fill="#ced4df"/>
        <path d="M1083.8,467.5c-.5.2-1.1.5-1.6.7-2.5-.2-5-.4-8.1-.7-.2-1.5-.5-3.5-.8-5,2.2-1.1,3.7-1.8,5.2-2.5.3-.2.5-.5.8-.7,2.1,1.7,4.7.5,7.2,0,.4,2.1.8,4.1,1.1,5.9-1.6,1-2.7,1.7-3.8,2.4Z" fill="#ebe9da"/>
        <path d="M1173,451.7c0,.3.1.7.2,1,.2-.1.4-.2.6-.3.2,1.3.5,2.5.7,3.8-4,1.5-7.9,3.9-12.1.5-.1,0-.4.1-.7.2-.2-1.5-.5-3-.7-4.5,1-.9,2.1-1.8,3.3-2.9,2.8.7,5.7,1.4,8.7,2.1Z" fill="#e7e8ec"/>
        <path d="M1118.2,390.2c.4-.4.8-.8,1.1-1.2.3,0,.6.1,1,.2.1,5.8-1.1,11.5-.9,17.3.2,6.2,1.4,12.5,2.5,18.6,1,5.5,2.8,11.4,2.1,16.9-.7,5.4-3.8,10.2-7.2,14.3,0-.3,0-.5,0-.8,0-.5,0-1,0-1.5,8.4-8.4,6-18.5,4.1-29.1-2.1-11.6-2.2-22.6-1.1-34.3-.8.2-1.2.3-1.5.4,0-.3,0-.5,0-.8Z" fill="#e3e2dd"/>
        <path d="M1194,469.8c-.2-.2-.5-.5-.7-.7,8.6-4.7,17.2-9.3,25.8-14,3.7-2,6.9-1.3,9.3,2.1.8,1.2,1.7,2.4,2.7,3.6,1.3-.6,2.4-1,3.5-1.5,0,.2,0,.5,0,.7-1.1.8-2.2,1.6-3.6,2.6-1.3-1.8-2.5-3.5-3.7-5.2-2-2.9-4.3-3.3-7.4-1.7-8.6,4.7-17.2,9.4-25.9,14Z" fill="#dfdfda"/>
        <path d="M1275,403c.2-.2.5-.5.7-.7,1.4,9.3-2.3,17-7.8,23.9-3.7,4.7-7.7,9.1-11.6,13.6,0-.3,0-.5,0-.8,3.9-4.8,7.9-9.4,11.6-14.4,4.8-6.4,7.8-13.4,7.1-21.6Z" fill="#dfdfda"/>
        <path d="M1117.5,450.2c4.2-6.4,3.4-13.4,2.1-20.4-1.3-6.9-2.4-13.9-3.6-20.8.2-.3.5-.5.7-.8,2.9,6.7,2.9,16,3.9,23.2,1.1,7.2,2,13.7-3.2,19.6,0-.3,0-.5,0-.8Z" fill="#e2e1dc"/>
        <path d="M1117.5,450.2c0,.3,0,.5,0,.8-.3,1-.5,2-.8,2.9,0,.5,0,1,0,1.5-2,3-4,6-6,9-1.2,1.4-2.4,2.9-3.6,4.3-.3-.2-.6-.4-.9-.6,3.7-6,7.5-12,11.2-18Z" fill="#e2e1dd"/>
        <path d="M1256.3,439c0,.3,0,.5,0,.8-2.8,3.4-5.3,7.1-8.6,10-4.1,3.7-8.8,6.8-13.2,10.1,0-.2,0-.5,0-.7,3-2.5,6.2-4.9,9-7.5,4.4-4.1,8.5-8.5,12.8-12.7Z" fill="#e0dfda"/>
        <path d="M1078.5,460c-1.5.7-3,1.4-5.2,2.5.2,1.5.6,3.6.8,5,3.2.3,5.7.5,8.1.7-2.9.4-5.8.8-9.2,1.3-.5-2.8-.9-5.4-1.5-8.5,2.7-.4,4.8-.7,7-1Z" fill="#d6d2c3"/>
        <path d="M1083.8,467.5c1.1-.7,2.3-1.4,3.8-2.4-.3-1.8-.7-3.7-1.1-5.9-2.6.5-5.1,1.8-7.2,0,2.4-.4,4.8-.7,7.8-1.2.7,2.4,1.3,4.9,2.2,8-2.1.5-3.8,1-5.5,1.4Z" fill="#d6d2c3"/>
        <path d="M1161.7,457c.2,0,.6-.3.7-.2,4.2,3.4,8.1,1,12.1-.5-2.2,3.5-7.9,3.3-11.8,4.1-.4-1.4-.7-2.4-.9-3.4Z" fill="#cbd1de"/>
        <path d="M1116.8,408.2c-.2.3-.5.5-.7.8-.2-6.4.4-12.6,2.2-18.8,0,.3,0,.5,0,.8-.5,5.7-1,11.5-1.5,17.2Z" fill="#e1e0da"/>
        <path d="M1110.7,464.5c2-3,4-6,6-9,0,.3,0,.5,0,.8-1.7,3.1-3.3,6.3-5.3,10-.4-1-.6-1.4-.7-1.8Z" fill="#e2e1dd"/>
        <path d="M795.8,633.3c2,2.2,4,4.5,6,6.7.6,1,1.1,2.1,1.9,3,1.3,1.6,2.7,3,4.1,4.6-22.8,4.5-45.6,9-68.4,13.3-1.3-6.9-2.7-13.7-4.1-20.6-1.4-6.8-3.9-14.3-4-21.3h0c8,.8,16.1-1.8,23.9-3.2,8.4-1.5,16.8-3.4,25.2-5,1.7,4.2,4.1,8,6.4,12h0c1.9,4.5,5.4,7.5,9,10.5ZM766.8,643.9c-5.6,1.1-10.6,2.2-16.2,3.3.5,3,.9,5.5,1.4,8.8,5.9-1.2,11.3-2.3,16.9-3.5-.7-3.2-1.3-5.7-2-8.6Z" fill="#f5f0d8"/>
        <path d="M1036.6,687.3c1,.5,2,1,2.9,1.5.2.5.5,1,.7,1.5-3.9-.9-7-3.4-11.1-4.1-4.7-.9-9.7-.5-14.5-.6-9.4-.3-18.9-.6-28.3-.9-6.8-.2-17.3,1.1-22.7-3.9-5.1-4.7-5.5-14.2-6.8-20.5-20.1,12.3-40.3,24.4-60.6,36.4-10.2,6-19.2,9.4-31.1,5.9-10.6-3.1-17.1-9.8-23.7-18.2,7.8,5.9,12.5,13.9,22.5,16.9,11.4,3.5,21.5,1,31.3-5.1,20.5-12.9,41.8-24.6,62.2-37.7,1.3,6.1,1.5,14.8,5.5,20,4.7,6.1,15.3,4.6,22,4.8,8.7.2,17.5.4,26.2.6,4.5.1,9,.2,13.4.5,4.4.3,7.9,1.8,12,3Z" fill="#e0e0db"/>
        <path d="M807.7,647.5c-1.4-1.5-2.8-3-4.1-4.6-.7-.9-1.2-2-1.9-3,1.7,1.6,3.5,3.1,5.1,4.7,3.4,3.6,6.6,7.4,9.9,11.1,0,.2,0,.5,0,.7-3-3-6-6-9-9Z" fill="#e0dfd8"/>
        <path d="M816.7,656.5c0-.2,0-.5,0-.7,4.7,5.2,9.5,10.5,14.2,15.7-.2,0-.5,0-.7,0-4.5-5-9-10-13.5-15Z" fill="#e0e0db"/>
        <path d="M830.2,671.5c.2,0,.5,0,.7,0,3.1,3.4,6.1,6.8,9.2,10.2.6.7.9,1.7,1.4,2.5-3.8-4.2-7.5-8.5-11.3-12.7Z" fill="#e0e0da"/>
        <path d="M1175.3,499c.5-.5,1-1,1.5-1.5,3.7,2.5,7.5,5,11.2,7.5,1.4.8,2.7,1.8,4.2,2.2,3.3,1,6.7,1.9,9.3-1.5,2.7-1.7,5.5-3.5,8.2-5.2,4.8-3,9.5-6,14.3-9,2-1.2,4-2.4,6-3.7,3.6-1.4,6.8-3.3,9.1-6.2-.4-1.4-.6-2.5-.9-3.6-2-3-4-6-6-9-.3-.7-.5-1.5-.8-2.2.5-.5,1-1,1.4-1.6,0,.3,0,.5,0,.8.7,1.5,1.5,3,2.2,4.5,1.5,2.5,3,5,4.5,7.5.2,1.2.4,2.4.7,4.2-1.8,1.5-3.9,3.1-5.9,4.8-2.2,1.6-4.2,3.3-6.5,4.7-9.1,5.7-18.2,11.4-27.3,17.1-1.7.4-3.3.8-5.1,1.2.1,5.4-3.6,6.8-6.9,10.1-3.5,2.3-7,4.5-10.5,6.8-5.5,3.5-11,7-16.5,10.5-5.8,2.5-11.8,3.8-18.6,2.7-3-2-6.5-4.2-9.9-6.4,0-.3,0-.5,0-.8,1,.5,2,1,3,1.5,1.5,1,3,2,4.5,3,4.3,2.5,8.9,1.7,13.4,1.1,3.1-.4,6.3-1.2,8.4-4.1,0,0,0,0,0,0,3.5-2.3,7-4.5,10.5-6.8,0,0,0,0,0,0,5.5-3.5,11-7,16.5-10.5,0,0,0,0,0,0,4.4-1.5,5.1-2.8,4-8-1.6-.6-3.2-1.2-4.8-1.8,0,0,0,0,0,0-3.5-2.3-7-4.5-10.5-6.8,0,0,0,0,0,0-1-.5-2-1-3-1.5Z" fill="#f8f8f8"/>
        <path d="M1133.2,533.5c3.4,2.2,6.9,4.4,9.9,6.4,6.8,1.1,12.8-.2,18.6-2.7-3.3,3.2-8.3,4.5-12.8,4.5-5.4,0-9-3.5-14-4.7,4,9.2,8.1,18.4,12.2,27.5,3.7,8.2,6.8,14.9,13.5,21,3,2.8,6.3,6.4,9.8,8.6,3.5,2.2,8.2,1.9,12.2,2.1,4.3.2,7.7.5,11.7-1.4,4.5-2.2,8.9-4.8,13.3-7.2h12c2.2,1.4,4.6,3,6.8,4.5,1.5,3.8,2.9,7.4,4.3,11.1-.3.8-.5,1.5-.8,2.3-1.1-3.3-1.9-7.3-3.3-10.5-1.5-3.2-4.6-4.7-7.5-6.6-9.3-1.4-15.2,2.5-23,6.5-7.7,3.9-16.9,1.8-25.1,1.1-4.8-4.2-10.1-8.1-14.7-12.6-3.9-3.9-5.9-8.9-8.1-13.9-5.2-11.9-11.5-23.6-15-36.1Z" fill="#e0e0db"/>
        <path d="M1239.7,478c-1.5-2.5-3-5-4.5-7.5,1.9-.9,3.7-1.8,5.9-2.8,1.6,2.5,3.2,4.9,5,7.8-2.1,1.2-3.9,2.3-5.7,3.3-.3-.3-.5-.5-.8-.8Z" fill="#cfcfce"/>
        <path d="M1163.1,552.4c-1.9,1.1-3.3,1.9-4.9,2.8-1.1-1.5-2.1-2.9-3.4-4.7,1.7-1,3.2-2,5.1-3.1,1.1,1.6,2,3,3.3,5Z" fill="#cdcdcc"/>
        <path d="M1190.8,532.1c-1.8,1.1-3.1,1.9-4.8,2.9-1.2-1.5-2.2-2.9-3.5-4.6,1.8-1.2,3.2-2.1,5.1-3.3,1.1,1.7,2,3.1,3.2,4.9Z" fill="#cececc"/>
        <path d="M1233,466c0-.3,0-.5,0-.8,3.9-3.2,7.8-6.4,11.7-9.5,2.8-2.2,5.7-4.2,8.6-6.2-.5.8-.9,1.7-1.6,2.3-6.2,4.8-12.4,9.5-18.7,14.2Z" fill="#e0e0db"/>
        <path d="M1188.7,520c3.3-3.2,7-4.6,6.9-10.1,1.8-.4,3.5-.8,5.1-1.2-1.3.7-2.6,1.5-4.3,2.4.2,4.4-2.9,7-6.9,8.8-.3,0-.5,0-.8,0Z" fill="#e0e0db"/>
        <path d="M1260,441.3c.7-1.2,1.3-2.6,2.2-3.7,2.4-2.9,5-5.6,7.5-8.4-3.3,4-6.5,8.1-9.8,12.1Z" fill="#dfdfda"/>
        <path d="M1188.7,520h.8c-3.8,2.3-7.5,4.5-11.3,6.8,3.5-2.3,7-4.5,10.5-6.8Z" fill="#e2e2dd"/>
        <path d="M1239.7,478c.3.3.5.5.8.8,1.4,4.3-.8,7.4-6,8.2,2-1.6,4-3.3,5.9-4.8-.3-1.9-.5-3-.7-4.2Z" fill="#e1e0db"/>
        <path d="M924.8,458.5c-.5.7-1,1.3-1.6,2.3.7.3,1.2.5,1.6.8l-2.3,1.2c10.5.6,21.6-1.1,32.1-1.5,10.6-.4,21.3-.7,31.9-.7,11,0,20.1.3,30,5.5,3.5,1.8,9,3.8,11.1,7.2,2.6,4.1,3.6,10.2,5.1,14.8-9,2.7-18.4,3.3-27,7.1-.4.7-.9,1.4-1.5,2.3.6.3,1,.5,1.5.7-.3.4-.6.8-.8,1.2,10.1-2.1,20.2-4.3,30.4-6.4,3.2,9.5,5.8,19.4,10.1,28.4,4.5,17.2,7.3,35,9.9,52.6-8.4,3.8-17.4,5-26.4,6.5-8.1,1.4-16.1,3-24.1,4.7-17,3.6-34.3,5.4-51.6,7.4-.1-5.5.5-11.1-.5-16.4-2.1-11.1-5.2-22-7.7-33-2.7-11.9-5.4-23.8-11.9-34.4-.4-.6-.5-1.3-1-3,11.8,4.4,23.2,4.5,34.6,1.3.3,1,.5,2,.8,3,.4,6.4,1.7,12.6,3.4,19.2,11.5-2,22.4-3.9,33.7-5.8-1.4-7.8-2.8-15.1-4.1-22.4-.1-1.4-.3-2.8-.5-4.8-6.2,1.9-12.5,3.8-18.7,5.8-5.1,1.6-8.9,4.1-14.5,4.3h0c.5-.8.9-1.4,1.6-2.4-.6-.3-1.1-.5-1.6-.7.8-.4,1.5-.8,2.3-1.2-8.7.3-16.8,3.5-25.6,1.7-9-1.9-18.2-3.7-27-6.5,0-14.4,1.1-29,2.2-43.4.6-8.3,2.6-18.8-1.2-26.6-4.1-8.3-9.3-15.9-13.2-24.3,9.5,4,19.1,7.7,28.4,12,5.3,2.4,10.3,5.3,15.3,8.4,4.5,2.7,9,6.3,14.2,7.3,1,.7,2,1.5,3,2.2.2,2.3,5.3,4.6,7.2,5.9,2.9,1.9,5.7,4.7,9.3,4.7,1,.7,2,1.5,3,2.2,2.5,4,8.2,6.6,12.1,9.2-12.4.6-24.7,1.2-37.1,1.7-11.7.5-23.5-.4-35,1.9ZM1014.7,542.5c-.2-1.3-.5-2.5-.7-3.8-2.3-2-5.5-1.8-9,.7.5,2.5,1.1,5,1.7,7.7,2.8-.5,5.1-.8,7.5-1.2.2-1.2.4-2.3.6-3.3ZM952.5,523c-.3-1.2-.6-2.3-.9-3.5-2.7.3-4.9.8-7.5,1.8.3,1.5.6,2.7.9,3.9.3,1,.5,1.9.8,2.9h4.6c1.4-1.2,2.6-2.2,4.5-3.8-1.2-.7-1.8-1-2.4-1.3ZM1032,512.5c-.4-2-.9-3.9-1.4-6.2-3.4.9-6.2,1.7-9.3,2.5,1.5,5.8,2.8,11.1,4.3,16.9,3.1-.7,5.8-1.3,8.8-2-.4-2.8-.7-5.1-1-7.4-.5-1.3-1-2.5-1.4-3.8ZM961.9,497.8c-.7-3.3-1.4-6.3-2-9.3-3.4.6-6.1,1.1-8.8,1.7-.7-.9-1.2-1.7-1.9-2.6-2.9.7-5.8,1.3-8.8,2,.9,4.1,1.7,7.8,2.6,12.1,6.2-1.2,12.1-2.4,18.9-3.8ZM1005.1,483.6c6.1-1.3,11.6-2.4,17.6-3.6-.8-3.3-1.5-6-2.3-9.2-5.9,1.2-11.4,2.3-17.2,3.5.7,3.3,1.2,5.9,1.9,9.3ZM974.7,552.5c5.5-.9,10.6-1.8,16.3-2.8-.6-3.3-1.1-5.9-1.6-8.6-5.6,1-10.6,1.8-15.9,2.7.4,2.8.7,5.2,1.2,8.7ZM1040.9,532.3c-5.7,1-10.7,1.8-16,2.7.5,3.2.9,5.6,1.4,8.3,5.7-.7,11-.9,16.1-3.1-.5-2.7-.9-5-1.5-8ZM936.2,456c5.1-.3,9.7-.6,14.4-.8v-8.8c-5,.4-9.6.7-14.4,1v8.6ZM990.4,491.8c-.9-3.7-1.6-6.8-2.4-10-4.7,1-8.6,1.9-13.2,2.9.6,3.4,1.2,6.6,1.8,10.1,4.8-1,8.9-1.9,13.8-3Z" fill="#f8f7e9"/>
        <path d="M868.5,553c-.4.5-.9,1.1-1.8,2.1,1.4.4,2.3.6,3.3.9,7.3,1.4,16-1.8,23.4-3,.6,1.9,1,3.2,1.3,4.5.2,1.3.3,2.7.5,4,1.1,6.2,2.2,12.3,3.3,18.5,1.5,7.1,3,14.1,3.8,21.4-37.5,5.8-74.9,12.3-112.5,17.6-6.9-13.3-11.7-27.8-17.3-41.7,10.3-3.4,21.3-5.2,31.9-7.6,10.9-2.5,21.8-4.9,32.6-7.7,1.7-.5,3.5-1,5.2-1.5,4.3-.5,8.5-1,12.8-1.6,0-.2,0-.4,0-.5-.2,0-.5-.1-.7-.2l1.6-2c-.1-.3-.3-.7-.4-1-2.7.3-5.3.5-8,.8-6.4-.8-13.3,1.6-19.5,3-6.1,1.4-12.3,2.8-18.4,4.3-13,3-26,6-39,9-4.2-9.1-7.3-18.9-10.8-28.2-.2-1.1-.5-2.2-.4-3.3,0-3.2.3-6.3.4-9.5,19-14.1,44.5-14.8,67.1-19,24-4.5,48.3-10.1,72.8-10.1-3.9,6.7-7,13.9-8.4,21.5-1.5,8,.3,16.1,1.2,24.1-8.4,2.6-17.6,3.3-26.2,4.8,0,.2,0,.3,0,.5h2.2ZM892.8,565.7c-.7-3.1-1.3-5.5-1.9-8.5-5.4,1-10.3,1.8-15.8,2.8.5,3,.9,5.7,1.4,8.7,5.7-1.1,10.8-2,16.3-3.1ZM852.1,573.1c-.7-3.3-1.2-5.9-1.7-8.6-5.3.9-10.3,1.7-15.7,2.6.3,3,.6,5.6.9,8.8,5.8-1,11-1.8,16.6-2.7ZM872.4,546.5c5.4-1,10.3-1.9,15.9-2.9-.5-3-1-5.8-1.6-8.7-5.8,1.1-10.9,2-16.1,3,.7,3.2,1.2,5.7,1.8,8.6ZM895.3,579.9c-5.4,1-10.2,2-15.7,3,.4,2.8.7,5.4,1.1,8.8,5.7-1.1,10.9-2,16.3-3-.6-3.3-1.1-5.8-1.7-8.7ZM882.3,511.8c-5.5,1.1-10.4,2.1-15.7,3.2.5,3,.9,5.4,1.4,8.5,5.6-1,10.8-2,16.3-3-.8-3.3-1.3-5.7-2-8.6ZM778.8,560.8c3.3-.8,5.9-1.4,9.1-2.1-.6-3-1.2-5.6-1.8-8.4-2.9.6-5.4,1.1-8.5,1.8.4,2.8.7,5.3,1.2,8.7Z" fill="#f5f0d8"/>
        <path d="M903.7,453.3h2.2c0-.3,0-.6,0-.8-5.4,0-10.9.2-16.3-.3-6.1-.6-12-2-18.1-2.6-12.3-1.3-24.5-.8-36.8-.3-12.2.5-24.4,1.4-36.4,3.2-12.1,1.9-23.8,5.4-35.7,7.5-3.2-8.2-5.7-16.7-8.5-25-2.6-7.7-4.8-14.9-10.1-21.2-5.3-6.2-11.1-12-16.4-18.3-2.4-2.8-4.3-4.9-5-8.6-.7-3.9-.3-8.1-.3-12,19.1-2.4,36.2,4.2,54.8,6.6,18.1,2.3,36.5,1.3,54.7.6,8.6-.4,16.6-1.6,25.1,1.2,8.4,2.7,16.5,6.7,24.6,10.2,4.3,1.8,9.1,3.4,13.1,5.7,3.5,2,4.9,5.4,6.7,8.8,2.2,4.1,4.4,8.1,6.6,12.2,1.9,3.6,3.6,8.3,6.4,11.3.1,1.7.5,3.4.4,5.1-.3,6.5-.7,13.1-1.1,19.6-2.2.3-4.5.5-6.7.8-.8-.2-1.5-.5-2.3-.7,1-.3,1.9-.7,2.9-1,0-.2-.1-.5-.2-.7-1.2-.4-2.3-.9-3.5-1.3ZM796,440.9c6.8,2,12.5,4.9,19.3,5.8,1.3-4,2.4-7.7,3.6-11.6-2-.5-3.5-.9-4.9-1.2-1,1.1-1.8,2-2.6,2.9-4.4-1.4-8.6-2.7-13-4.1-.8,3-1.5,5.3-2.4,8.2ZM832.7,409.3h9.9v-9.8h-9.9v9.8Z" fill="#f8f7e9"/>
        <path d="M681,551.5c-1.3-1-2.5-2-3.8-3-.4-.8-.6-1.6-1.2-2.2-2.3-2.6-4.7-5-7.1-7.5,14.1-1.3,28.2-2.6,42.4-3.8,13.8-1.2,28.9-.5,42.4-3.7.3,4.6.6,9.1,1,14.6-2.3,5.1-4.5,10.1-6.8,15.2-1.8,4-3.4,8.8-6.5,12-6.5,6.9-16.4,9.9-25.2,12.3-3-4-6-7.9-9.2-11.7-3-3.6-5.8-8.8-10.4-10.2l-3.7-3c-.6-2.6-9.5-10-12-9ZM731,543.5c.4,3.3.8,6,1.2,9,3.4-.3,6-.6,9.1-.9-.3-3.2-.6-5.7-.9-8.1h-9.4Z" fill="#f5f0d8"/>
        <path d="M849,686.5c-1.3-1.5-2.5-3-3.8-4.4-1-6.1-2-12.1-3.1-18.8,22.3-3.3,43.5-10.2,65-17.2,1.2,4,2.3,7.6,3.4,11.2-2.3.9-4.5,1.7-7.3,2.8,1.4,3.7,2.7,7.1,4.1,10.6,2.6-1.1,4.8-2,6.9-3,1.5,3.1,3.1,6.2,4.7,9.4-10.4,6.6-21.1,12.8-31.7,19.1-8,1.8-14.9,4-22.9,1-3.1-1.2-6.1-2.7-8.7-4.6-2.3-1.7-4.1-5.1-6.6-6.1Z" fill="#f8f7e9"/>
        <path d="M1168.5,502.7c-.5.5-1,1-1.5,1.5-1,.3-2.2.3-3,.8-7.5,5.2-15,10.4-22.5,15.7-3.3,1.9-6.5,3.9-10.3,6.1-.7-13.7-2.8-26.5-14.5-35.7,21.4.4,41.8-2.5,62.1-9.7-2.3,7.3-4.2,13.8-9.6,18.7-.6.5-.6,1.7-.8,2.6Z" fill="#f8f7e9"/>
        <path d="M1152.7,519.3c1.3-1,2.5-2,3.8-3,7.2-4.5,14.2-9.3,19.4-16.1.9.1,1.7.3,2.4.4,0,0,0,0,0,0,3.5,2.3,7,4.5,10.5,6.8,0,0,0,0,0,0,1.4,1.1,2.9,2.1,4.3,3.2,1,3.3-2,4.6-3.6,6.6,0,0,0,0,0,0-5.5,3.5-11,7-16.5,10.5,0,0,0,0,0,0-3.5,2.3-7,4.5-10.5,6.8,0,0,0,0,0,0-1.1.5-2.2,1-3.4,1.5-3.2,1.3-6.4,3.3-10.1,1.6,2-1.3,4-2.5,6.1-3.8,1.9-1.3,3.8-2.7,6-4.2-.6-1-1-1.8-1.5-2.6-1.4-2.5-2.8-4.9-4.1-7.3-1.3.3-2,.4-2.7.6,0-.3,0-.5,0-.8ZM1188,515c-2.2-3.4-3.9-6-5.9-9.2-5.9,3.3-11.3,6.7-16.6,10.6,2,3.2,3.8,6,5.9,9.3,5.7-3.6,10.9-7,16.7-10.7Z" fill="#f8f7e9"/>
        <path d="M836.3,658.8l.7,3.7c.5,3.6,1,7.1,1.6,11.5-8.5-9.2-16.8-18.4-24.8-28,4.8-.9,9.7-1.9,14.6-2.7,2.4-.4,4.8-.2,7.2-.3,0,2.3,0,4.7,0,7,.2,2.9.5,5.8.7,8.7Z" fill="#f8f7e9"/>
        <path d="M669,538.7c2.4,2.5,4.8,5,7.1,7.5.5.6.8,1.5,1.2,2.2-11.6-7.5-13.5-19.1-14.7-31.9-.6-6.3-2.3-14,0-20.1,2.3-5.8,7-9.5,12.8-11.4,6.9-2.3,13.9-2.9,21.1-3.7,7-.8,13.8-2.4,20.5-4.3,14-3.9,28-8,42-12,1.2,14-.3,27.8-1.8,41.8-.7,6.7-1.8,13.3-2.4,20-.6,6.4.3,12.5.9,18.9-2.1,4.7-4.1,9.5-6.2,14.1-2,4.3-3.7,9.4-6.6,13.2-6,7.6-18.1,10.3-26.7,13.9-6.2-8.2-12.3-16.2-19.5-23.6,4.5,1.4,7.4,6.6,10.4,10.2,3.1,3.9,6.2,7.8,9.2,11.7,8.8-2.5,18.7-5.5,25.2-12.3,3.1-3.3,4.6-8,6.5-12,2.3-5.1,4.6-10.1,6.8-15.2-.4-5.5-.7-10-1-14.6,1-11,2.4-21.9,3.6-32.9,1.2-10.5.9-20.9.9-31.5-6.5.8-13,3.3-19.2,5-6.6,1.9-13.2,3.8-19.8,5.7-5.9,1.7-11.8,3.2-17.9,4.1-6.4,1-12.9,1-19.2,2.5-10.1,2.3-19.5,7.4-19.7,18.8-.1,6.4,1.1,12.8,1.9,19,.7,5.9.9,11.8,4.7,16.7Z" fill="#dfded8"/>
        <path d="M913.5,456.3c.4-6.5.8-13.1,1.1-19.6,0-1.7-.2-3.4-.4-5.1.2-.2.5-.5.7-.7.5,11.5-.2,23-.9,34.5-.3,5.6-.7,11.3-1.1,16.9-.3,4.8.3,10.8-1.5,15.3-13,0-25.6.3-38.5,2.4-13.7,2.2-27.4,4.9-41.1,7.3-13.6,2.4-27.1,5.1-40.7,7.4-12.6,2.2-22.7,5.7-33.1,13.1,2.6-21.5,5.5-42.3,4.5-63.6,7.9-1.7,15.7-3.3,23.4-4.9,0,.3,0,.5,0,.8-7.3,1.6-14.7,3.3-22.8,5.1,1.6,20.1-1.5,39.8-3.8,60.2,9-6.6,18.9-9.1,29.6-11.2,11.5-2.2,23-4.1,34.5-6.1,7-2.3,14.9-3,22.2-4.2,7.2-1.3,14.5-2.5,21.6-3.9,14.4-2.9,29-3,43.7-3,.9-13.5,1.8-27,2.5-40.5Z" fill="#dfded7"/>
        <path d="M1093.5,549.9c.2,1,.5,1.9.8,3.1-11.4,8-22.3,16.9-36.6,21.8-3.8-28.6-9.7-56.2-21-83.1,10.3-2.2,19.9-4.2,30-6.3,3.8,17.2,7.7,33.3,16.3,48.8,3.5,5.2,6.9,10.4,10.4,15.7ZM1058.4,573.7c13.3-5.4,24-13.2,34.8-21.5-6.7-10.3-14.2-19.6-17.8-31.1-3.5-11.2-6.7-22.5-10.2-34.3-8.5,1.8-17.4,3.7-27.3,5.7,11.3,26.1,16.9,53,20.5,81.1Z" fill="#e1e1dc"/>
        <path d="M903.9,605.5c.6,12.2,1.1,24.1,1.7,36.6-20.8,7.5-42.4,13.7-65.3,17.3-1.5-8.9-1.4-17.4,1.1-26.2,1.2-4.1,2.7-8.2,4.6-12,1.3-2.6,2.1-6.2,4.9-7.4,3.4-1.5,8.9-1.5,12.6-2.2,4.5-.8,9-1.5,13.5-2.3,8.7-1.4,18.1-3.8,26.9-3.8ZM903.7,631c-.2-8.1-.5-16.3-.7-24.7-17.9,2.9-35.1,5.6-52.7,8.4-3.9,8.4-8.7,16.5-9.6,26-1.2,5.7-1.4,11.4.4,17.4,22.3-3.1,43.2-9.8,63.9-16.8-.5-3.7-.9-7-1.4-10.3Z" fill="#dfded8"/>
        <path d="M892.5,547.7c-.9-8-2.7-16.1-1.2-24.1,1.4-7.6,4.5-14.9,8.4-21.5-24.4,0-48.8,5.6-72.8,10.1-22.6,4.2-48.1,4.9-67.1,19,0-.2,0-.5,0-.7,7.7-7.7,18.4-10.4,28.8-12.4,12.8-2.4,25.7-4.7,38.5-7,24.1-4.3,49.5-11.6,74.1-10.4-3.6,7.7-7.7,14.9-9,23.5-.6,4.2-.5,8.4,0,12.7.4,3.5,2.2,8.5.4,11.7,0-.3,0-.5,0-.8Z" fill="#dedcd3"/>
        <path d="M1093.5,549.9c-3.5-5.2-6.9-10.4-10.4-15.7-1.9-4.8-3.8-9.7-5.9-14.5-4.6-10.9-6.7-22.5-9.2-34.5,7-1.4,13.7-2.8,20.6-4.2,6.8,20.4,11.1,41.5,22.2,60.5-1.8.9-3.1,1.7-4.5,2.4-.3,0-.5,0-.8,0,1.2-1,2.4-2,3.8-3.1-10.7-18.3-14.7-38.9-21.4-58.5-6.3,1.3-12.1,2.4-18.3,3.7,3.1,23.5,11.1,44.6,25.4,63.2-.2.2-.5.5-.7.7-.3,0-.5,0-.8,0Z" fill="#e1e1dc"/>
        <path d="M910.5,657.3c-1.1-3.6-2.1-7.2-3.4-11.2-21.5,7-42.7,13.8-65,17.2,1.1,6.7,2.1,12.8,3.1,18.8-1.7-6.4-3.3-12.6-4.4-19.1,22.5-5.2,44.4-11.1,66.5-17.9,4.7,10.7,8.3,21.7,12.6,32.8-5.4,3.3-10.8,6.5-16.2,9.8-5.3,3.2-10.6,7.2-16.5,9.4,0-.3,0-.5,0-.8,10.6-6.3,21.3-12.5,31.7-19.1-1.6-3.2-3.1-6.3-4.7-9.4-1.3-3.5-2.5-7-3.8-10.5Z" fill="#dfdfda"/>
        <path d="M1005.8,495.3c8.6-3.8,18-4.5,27-7.1-1.5-4.6-2.5-10.7-5.1-14.8-2.2-3.4-7.7-5.4-11.1-7.2-9.9-5.2-19-5.5-30-5.5-10.6,0-21.3.3-31.9.7-10.5.4-21.6,2-32.1,1.5.8-.4,1.5-.8,2.3-1.2,21.8,0,43.5-1.7,65.2-1.7,5.1,0,10.7-.4,15.8.5,4.5.8,8.8,3.7,12.9,5.8,4.1,2.1,8.6,3.9,10.5,8.2,2.1,4.7,3.4,9.9,5,14.7-9.5,2.1-18.9,4.1-28.4,6.2Z" fill="#e1e1db"/>
        <path d="M953.3,592.7c17.2-2.1,34.6-3.9,51.6-7.4,8-1.7,16-3.3,24.1-4.7,9-1.5,18-2.7,26.4-6.5-2.5-17.6-5.3-35.4-9.9-52.6.2,0,.5,0,.7,0,3.7,17.8,7.3,35.6,10.5,53.5-32.9,11-68.5,13.8-102.7,19.2-.2-.5-.5-1-.7-1.5Z" fill="#e0e0db"/>
        <path d="M813.7,646c8,9.6,16.4,18.8,24.8,28-.6-4.4-1.1-8-1.6-11.5,1.1,4.5,2.3,9,3.4,13.5-.4.2-.7.4-1.1.6-15.9-17.5-31.7-35.1-47.6-52.6.1-.3.3-.6.4-1,17.5-2.8,35-5.6,53.2-8.5-1.1,4.9-3.3,8.8-5.3,12.8,0-.3,0-.5,0-.8,1.2-3.3,2.4-6.7,3.9-10.7-17.1,2.7-33.6,5.3-50.8,8,6.7,7.6,13.7,14.9,20.7,22.2Z" fill="#dfded8"/>
        <path d="M945.7,563.5c2.3,10.6,3.5,20.5,4,31.3-14.5,2.3-28.5,4.6-42.9,6.9-3.1-16.6-6.2-33-9.4-50.1,13.1-1.8,25.7-3.7,38.5-4.5.5,0,1,0,1.5,0-2.2,1.6-7.5,1.4-10.2,1.7-3.1.4-6.2.7-9.3,1.1-6.5.8-12.9,1.6-19.4,2.5,3.1,16.3,6,32.1,9.1,48.2,14.1-2.2,27.5-4.4,41.4-6.6-.7-10.4-1.9-20.2-4-30.4h.7Z" fill="#dddcd2"/>
        <path d="M740.2,580.7c3-4.8,6.8-8.1,9.2-13.5,2.6-5.8,5.2-11.5,7.8-17.2,7.6,19.1,15,37.6,22.6,56.6-16.1,3.3-32.5,8.1-49,8.1-.9-1.6-1.8-3.1-2.7-4.8.8-2.5,1.7-4.9,2.5-7.4,0,.3,0,.5,0,.8-.6,3.1-2.3,8.7,1.5,10.4,7,.3,35.7-4.7,46.4-8-7-17.4-14-34.8-21.2-52.9-2.6,5.3-4.9,10.8-7.5,16.1-2.5,5.1-6.1,8.3-9.5,12.6,0-.3,0-.6,0-.8Z" fill="#dedcd3"/>
        <path d="M940.3,543c-14.4,1.8-28.6,3.5-43.1,5.3-4.4-16.6-2.7-32.3,7.4-46.6,7.1-1.6,13.7.7,21.1,2.3,7.2,11.7,13.2,24.3,14.7,39ZM905.5,502.3c-9.6,13.6-11.8,28.4-7.5,44.9,13.7-1.7,27.5-3.4,41.6-5.1-2.4-10.1-5-18.9-9.7-28.2-2.6-5.2-3.5-8.5-9.4-10.1-4.9-1.3-9.9-2.3-15-1.5Z" fill="#dfdfda"/>
        <path d="M1168.5,502.7c.3-.9.2-2.1.8-2.6,5.3-4.9,7.3-11.4,9.6-18.7-20.3,7.2-40.7,10.1-62.1,9.7,11.6,9.2,13.7,21.9,14.5,35.7,3.7-2.2,7-4.2,10.3-6.1.2.2.5.5.7.7-3.6,2.2-7.2,4.4-11.4,6.9-1.2-7.3-1.8-15.2-4.3-22.1-2.4-6.5-7.1-10.7-12.5-14.7.2-.5.4-1,.6-1.5,22.3.2,44.2-2,65.8-10.3-2.6,9-5.4,16.9-11.9,22.9Z" fill="#dfdfda"/>
        <path d="M1109.3,490.7c5.6,5.2,12.5,10,15.1,17.5,2.3,6.9,2.6,14.7,3.3,21.9-5.2,3.4-10.5,6.8-15.6,10.2-6-4.6-21.6-54.4-21-59.9,3.9,0,5.6,1.1,8.9,3.4,3.1,2.3,6.2,4.6,9.3,6.9-3.5-1.5-14.9-12.5-17.9-8.4,6.1,19.1,10.4,38.7,20.4,56.8,5.2-3.3,9.9-6.4,14.9-9.6-1-7.3-1.2-15.3-4-22.1-2.7-6.7-8.6-11.6-13.5-16.7Z" fill="#e1e0db"/>
        <path d="M789.8,619c37.6-5.3,75-11.8,112.5-17.6-.8-7.3-2.3-14.4-3.8-21.4.3,0,.5,0,.8,0,1.6,7.3,3.1,14.5,4.3,21.8-18.7,4.4-38.1,6.4-57.1,9.3-19.2,2.9-38.2,6.2-57.4,8.6.2-.2.5-.5.7-.7Z" fill="#dddbd2"/>
        <path d="M962.2,430.8c-5.2-1-9.6-4.6-14.2-7.3-5-3-10-5.9-15.3-8.4-9.3-4.3-19-8-28.4-12,3.9,8.4,9.1,16,13.2,24.3,3.8,7.8,1.9,18.3,1.2,26.6-.3,0-.5,0-.8,0,.4-9.2,2.4-18.7-2-27.2-4.3-8.5-9.2-16.6-13.3-25.2,21,8,40.3,17.5,59.5,29.2Z" fill="#dfdfda"/>
        <path d="M953.3,592.7c.2.5.5,1,.7,1.5-2.2-3.2-1.1-7.1-1.4-11-.3-3.9-.9-7.8-1.7-11.6-1.7-8.1-3.9-16.1-5.8-24.1-1.8-7.7-3.5-15.6-5.9-23.2-2.2-6.8-6-13.2-9.5-19.5,5.9,1.2,12,3.2,17.9,3.7,6.7.6,12.7-1.5,19.2-2.2,0,0,0,.1,0,.1,0,.3,0,.5,0,.8-11.4,3.2-22.7,3.1-34.6-1.3.5,1.7.6,2.4,1,3,6.6,10.6,9.2,22.5,11.9,34.4,2.5,11,5.6,21.9,7.7,33,1,5.3.4,10.9.5,16.4Z" fill="#deded9"/>
        <path d="M789.8,619c-.2.2-.5.5-.7.7-6.4-14.2-12.2-28.6-18-43.1,21.5-5.9,43.9-11.6,66-14.6-10.8,2.8-21.7,5.3-32.6,7.7-10.6,2.4-21.6,4.2-31.9,7.6,5.5,13.9,10.4,28.4,17.3,41.7Z" fill="#dfddd4"/>
        <path d="M759.8,544c3.5,9.4,6.6,19.1,10.8,28.2,13-3,26-6,39-9,6.1-1.4,12.3-2.9,18.4-4.3,6.2-1.4,13.2-3.9,19.5-3-13.1,3-26.2,5.9-39.3,8.9-6.5,1.5-12.9,2.9-19.4,4.4-6,1.4-12.8,3.9-19,3.9-3.9-9.4-7.3-18.6-10.1-28.4,0-.3,0-.5,0-.8Z" fill="#deddd3"/>
        <path d="M918,403c.2-.3.5-.5.7-.8,4.1,5,13.2,6.9,19,9.9,6.7,3.4,13.1,7.9,20.1,10.6,19.4-7.2,38.5-14.9,57.6-22.7.2.2.5.5.7.7-19.4,8.6-39.3,15.6-59,23.3-6.7-3.8-13.3-7.8-20.3-11.1-6.5-3.1-13.6-5.2-19-10Z" fill="#dfdfda"/>
        <path d="M918,454c.3,0,.5,0,.8,0-1.1,14.4-2.2,29-2.2,43.4,8.7,2.8,18,4.7,27,6.5,8.8,1.8,16.9-1.4,25.6-1.7-.8.4-1.5.8-2.3,1.2-8.6,1.2-16.5,3-25.1,1-8.8-2-17.5-4-26.2-6-.8-7.4.4-15.2.9-22.6.4-6.8-.6-15.5,1.7-21.9Z" fill="#e1e1dc"/>
        <path d="M904.5,456.3c.8.2,1.5.5,2.3.7-3.3,1.1-7,.2-10.5,0-4-.2-8-.3-12.1-.7-8.2-.9-16.2-2.2-24.4-2.2-8.4,0-16.8.4-25.1.7-3.9.1-7.9.3-11.8.4-3.4.1-7.3-.3-10.5,1.1-3.7.3-7.5.5-11.2.8,0-.2,0-.5,0-.7,17.4-1.2,35.2-3.6,52.7-3.6,17,0,33.7,4.2,50.8,3.6Z" fill="#dedcd3"/>
        <path d="M924.8,458.5c11.5-2.3,23.3-1.4,35-1.9,12.4-.5,24.7-1.1,37.1-1.7-3.9-2.7-9.6-5.2-12.1-9.2,5.1,3.3,10.1,6.6,15.2,9.9,0,.2-.1.4-.2.7-25,0-50,1.4-75,2.2Z" fill="#e1e1dc"/>
        <path d="M953.3,643.7c.9,3.9,1.9,7.8,2.9,12.3-11.1,6.8-22,13.5-33.2,20.3-3.2-4.9-4.8-11.1-6.9-16.6-2.1-5.7-4.8-11.4-5.7-17.4h0c4.3,10.9,8.5,21.8,12.7,32.7,10.9-6.6,21.2-13,31.9-19.5-.9-4.1-1.7-7.9-2.6-11.8.3,0,.5,0,.8,0Z" fill="#dfdfda"/>
        <path d="M1046.2,521.5c-.2,0-.5,0-.7,0-4.3-9.1-6.9-18.9-10.1-28.4-10.3,2.2-20.3,4.3-30.4,6.4.3-.4.5-.8.8-1.2,10.1-2.1,20.1-4.5,30.3-6.1,3.4,10,6.8,19.7,10.1,29.4Z" fill="#e1e1db"/>
        <path d="M953.3,643.7c-.3,0-.5,0-.8,0-1-6.5-2-13-3-19.5-.3-8.3-.6-16.6-.9-24.9-7.9,1-15.9,2.1-23.8,3.2,0-.2,0-.5,0-.7,8-1.2,16.2-3.1,24.4-3.6,1.5,7,1,14.7,1.4,21.8.5,8,1.6,15.8,2.7,23.8Z" fill="#dcdbd4"/>
        <path d="M786.8,622.7c-2.3-3.9-4.7-7.8-6.4-12-8.4,1.7-16.8,3.5-25.2,5-7.8,1.4-15.9,4-23.9,3.2.5-.2,1-.5,1.5-.7,8.2-1.3,16.4-2.4,24.6-3.9,7.7-1.5,15.8-4.2,23.6-4.2,1.9,4.2,3.8,8.4,5.8,12.7Z" fill="#dddcd2"/>
        <path d="M1231.5,466.8c.3.7.5,1.5.8,2.2-3.2-3.3-6.2-6.4-8.9-10.1-13.3,5.3-25.9,13.6-38.3,20.6,0-.3,0-.5,0-.8,12-8,25.2-14.3,37.9-21.1,2.9,3,5.8,6.1,8.7,9.2Z" fill="#e0dfda"/>
        <path d="M1033.5,474.1c6.9,3.4,13.8,6.7,20.7,10.1,0,.3,0,.6,0,.9-5.4,1.2-10.9,2.4-16.9,3.6-1.6-4.7-3.1-9.2-4.6-13.7.3-.3.6-.6.9-.9ZM1051,484.6c0-.3,0-.6,0-1-5.5-2.5-10.9-5-17.2-7.9,1.5,4.4,2.7,7.8,4,11.6,4.5-.9,8.8-1.8,13.1-2.7Z" fill="#e0e0db"/>
        <path d="M924.7,601.8c0,.2,0,.5,0,.7-5.5,1.1-10.9,2.2-16.7,3.4.3,8.4.6,16.4.9,24.4.5,4,1,8,1.5,12h0c-3.8-11.8-2.8-25-3.3-37.4,6-1.1,11.8-2.1,17.5-3.1Z" fill="#dddbd2"/>
        <path d="M887.3,696.3c0,.3,0,.5,0,.8-6.1,3.6-13.8,3.5-20.5,1.9-8-1.8-12.4-6.8-17.8-12.5,2.5,1.1,4.3,4.4,6.6,6.1,2.6,1.9,5.7,3.4,8.7,4.6,8,3,14.9.8,22.9-1Z" fill="#e0e0db"/>
        <path d="M666,543.2c-3.4-5.1-5.8-10.6-6.4-16.9-.8-8.6-3.1-17.1-2.6-25.9h.8c.9,8.1,2,16.2,2.6,24.4.5,6.5,2.6,12.3,6.3,17.7-.2.2-.5.5-.7.7Z" fill="#deddd8"/>
        <path d="M1185,478.7c0,.3,0,.5,0,.8-2.1,5.9-4.3,11.8-6.4,17.7,3.1,2.3,6.3,4.7,9.4,7,0,.2,0,.5,0,.7-3.7-2.5-7.5-5-11.2-7.5,2-5,4-10.1,6.1-15.1.5-1.3,1.4-2.5,2.1-3.7Z" fill="#e0dfda"/>
        <path d="M1152.7,519.3c0,.3,0,.5,0,.8-1.2.7-2.5,1.5-3.7,2.2-5.2,3-10.4,5.9-15.3,8.8,1,1.3,1.8,2.3,2.6,3.3-1-.5-2-1-3-1.5-.4-.3-.8-.6-1.7-1.2,6.5-4.4,13.6-10.2,21.2-12.2Z" fill="#e0e0db"/>
        <path d="M1142.2,521.4c-.2-.2-.5-.5-.7-.7,7.5-5.2,14.9-10.5,22.5-15.7.8-.6,2-.6,3-.8-8.3,5.7-16.5,11.5-24.8,17.2Z" fill="#e0dfdb"/>
        <path d="M894.7,557.5c-.4-1.3-.8-2.5-1.3-4.5-7.3,1.2-16.1,4.3-23.4,3,8.1-1.4,16.1-3,24.3-3.9.4,2,.8,3.7,1.2,5.4-.2,0-.5,0-.7,0Z" fill="#dfddd3"/>
        <path d="M1178.3,500.5c-.7-.1-1.4-.2-2.4-.4-5.2,6.8-12.2,11.6-19.4,16.1,2.7-2.3,5.3-5,8.3-7,4.2-2.8,7.5-6.3,10.4-10.2,1,.5,2,1,3,1.5Z" fill="#e0dfda"/>
        <path d="M892.5,547.7c0,.3,0,.5,0,.8-4.6,1-9.2,2-13.9,2.9-3.4.6-6.8,1-10.1,1.5h-2.2c0-.2,0-.3,0-.5,8.6-1.5,17.8-2.2,26.2-4.8Z" fill="#e1dfd7"/>
        <path d="M740.2,580.7c0,.3,0,.6,0,.8-.8,1.9-1.4,3.9-2.3,5.8-2.4,5.3-5,10.6-7.4,16,0-.3,0-.5,0-.8,3.2-7.3,6.5-14.5,9.7-21.8Z" fill="#dddcd3"/>
        <path d="M666,543.2c.2-.2.5-.5.7-.7,4.2,3.7,8.4,7.4,12.6,11.2,1.1,1,2.1,2,3.1,3-6.2-3.6-12-7.8-16.5-13.5Z" fill="#e0dfda"/>
        <path d="M981.8,443.5c-3.6,0-6.4-2.7-9.3-4.7-1.9-1.2-7-3.5-7.2-5.9,5.5,3.5,11,7,16.5,10.6Z" fill="#e0dfda"/>
        <path d="M937.5,547c-.5,0-1,0-1.5,0,1.8-.3,3.5-.7,5.5-1,1.5,6.2,2.9,11.9,4.3,17.6h-.7c-1.4-5.3-2.8-10.6-4.3-16.2-1-.1-2.1-.2-3.2-.3Z" fill="#dddbd3"/>
        <path d="M894.7,557.5c.2,0,.5,0,.7,0,1.1,6.2,2.2,12.3,3.3,18.5.2,1.3.3,2.7.5,4-.3,0-.5,0-.8,0-1.1-6.2-2.2-12.3-3.3-18.5-.2-1.3-.3-2.7-.5-4Z" fill="#dddbd2"/>
        <path d="M723,397.7c.2-.2.5-.5.7-.7,2.8,3.1,5.6,6.2,8.3,9.4.9,1,1.5,2.2,2.3,3.3,0,.3,0,.5,0,.8-3.8-4.2-7.5-8.5-11.3-12.7Z" fill="#e0e0db"/>
        <path d="M801,456.3c0,.2,0,.5,0,.7-5,1-10,2-15,3,0-.3,0-.5,0-.8,5-1,10-2,15-2.9Z" fill="#dfdeda"/>
        <path d="M681,551.5c2.5-.9,11.4,6.4,12,9-4-3-8-6-12-9Z" fill="#dfddd4"/>
        <path d="M1094.3,550c.2-.2.5-.5.7-.7.3.4.6.8,1,1.3,3.2-2.2,6.4-4.4,9.5-6.6.3,0,.5,0,.8,0-3.3,2.6-6.6,5.2-11,8.7-.4-1.1-.7-1.9-1.1-2.7Z" fill="#dfdfda"/>
        <path d="M836.3,658.8c-.3-2.9-.6-5.8-.7-8.7-.1-2.3,0-4.7,0-7,.3-1,.5-2,.8-3h0c0,6.3,0,12.5,0,18.8Z" fill="#d9d9d6"/>
        <path d="M795.8,633.3c-3.6-3-7.1-6.1-9-10.6,3,3.5,6,7,9,10.6Z" fill="#deddd4"/>
        <path d="M657.8,500.5h-.8c1-2.7,1.8-5.4,3-7.9.7-1.5,1.9-2.7,2.9-4.1.3,0,.5,0,.8,0-1.4,2.7-2.8,5.4-4.1,8.1-.7,1.3-1.3,2.6-1.9,3.9Z" fill="#dfdfd9"/>
        <path d="M759.8,544c0,.3,0,.5,0,.8-2.7-3.6-.9-7.9-1.8-11.7-.2-.7,1.2-1.7,1.8-2.5,0,.2,0,.5,0,.7-.2,3.2-.4,6.3-.4,9.5,0,1.1.3,2.2.4,3.3Z" fill="#dedcd4"/>
        <path d="M840,626.5c0,.3,0,.5,0,.8-1.2,4.3-2.5,8.5-3.7,12.8h0c.6-4.7.6-9.5,3.7-13.5Z" fill="#dcdbd3"/>
        <path d="M854.2,558.2c.2,0,.5.1.7.2,0,.2,0,.4,0,.5-4.3.5-8.5,1-12.8,1.6,4-.8,8-1.5,12-2.3Z" fill="#dfddd4"/>
        <path d="M1109.2,551.5c5.9,4,11.9,7.9,17.7,11.8-1.3,2.5-2.3,4.7-3.4,6.9-.7.5-1.4.9-2.4,1.5-5.9-3.8-11.9-7.7-18.3-11.8,2.4-3,3-6.7,6.5-8.4Z" fill="#e6e2d4"/>
        <path d="M1047,593.5c-2.3.2-4.6.4-7.3.6-.4-2.1-.7-4-1.1-6.2,2.7-.4,4.8-.7,7.1-1.1.5,2.4.9,4.6,1.3,6.8h0Z" fill="#e6e2d4"/>
        <path d="M1116.8,408.2c.5-5.7,1-11.5,1.5-17.2.3,0,.7-.2,1.5-.4-1.1,11.7-1,22.7,1.1,34.3,1.9,10.6,4.3,20.7-4.1,29.1.3-1,.5-2,.8-2.9,5.2-5.9,4.3-12.4,3.2-19.6-1.1-7.2-1-16.5-3.9-23.2Z" fill="#fefefe"/>
        <path d="M766.8,643.9c.7,3,1.3,5.5,2,8.6-5.6,1.1-11,2.3-16.9,3.5-.5-3.2-.9-5.8-1.4-8.8,5.6-1.1,10.6-2.2,16.2-3.3ZM765.8,645.6c-5.2,1-9.6,1.9-14.2,2.8.6,2.4,1,4.2,1.5,6.3,4.6-.8,8.8-1.6,13.5-2.5-.3-2.1-.5-4-.8-6.6Z" fill="#e3dbc4"/>
        <path d="M1188,504.2c-3.1-2.3-6.3-4.7-9.4-7,2.2-5.9,4.3-11.8,6.4-17.7,12.5-7,25-15.3,38.3-20.6,2.7,3.7,5.8,6.8,8.9,10.1,2,3,4,6,6,9-.2,1.2-.4,2.4-.6,3.9-2.4,1.9-5,3.9-7.6,5.9-2,1.2-4,2.4-6,3.7-4.8,3-9.5,6-14.3,9-2.7,1.7-5.5,3.5-8.2,5.2-4.3,2.2-8.3,1.8-12.1-1.1-.4-.3-.9-.3-1.4-.4ZM1222.5,466.7c-.5-1.2-1-2.4-1.6-3.7-4.4-.1-6.6,3.1-10,4.8,4,6.5,7.9,12.7,12.2,19.7,1-.8,1.7-1.5,2.4-2.1,1-.7,2-1.5,3-2.2,2.1,1.3,2.7-.5,4.2-1.8-3.4-5-6.8-9.8-10.2-14.7ZM1198.1,503.6c-4-6.1-7.9-12.3-11.8-18.5,2.6-1.6,4.9-3.1,7.4-4.6-2.2-.6-4.4.6-9.2,4.9,3.9,6.2,7.8,12.5,11.8,18.9,1-.4,1.7-.7,1.7-.7Z" fill="#f8f7e9"/>
        <path d="M1136.3,534.3c-.8-1-1.5-2-2.6-3.3,5-2.9,10.2-5.8,15.3-8.8-2.3,1.8-4.5,3.7-7.1,5.8,2.2,3.2,4.3,6.2,6.4,9.2-1.6,0-3.2.1-4.9.1-.9,0-1.7-.1-2.6-.2-1.5-1-3-2-4.5-3Z" fill="#f7f6e8"/>
        <path d="M1140.8,537.2c.9,0,1.7.2,2.6.2,1.6,0,3.2,0,4.9-.1.3,0,.5,0,.8,0,3.7,1.7,6.9-.3,10.1-1.6,1.1-.5,2.2-1,3.4-1.5-2.1,2.9-5.3,3.7-8.4,4.1-4.5.6-9.1,1.4-13.4-1.1Z" fill="#e1e1db"/>
        <path d="M1173,527.5c5.5-3.5,11-7,16.5-10.5-5.5,3.5-11,7-16.5,10.5Z" fill="#e2e1dd"/>
        <path d="M1209.8,500.5c4.8-3,9.5-6,14.3-9-4.8,3-9.5,6-14.3,9Z" fill="#e2e2dd"/>
        <path d="M1230,487.8c2.6-2,5.2-4.1,7.6-5.9.2-1.4.4-2.6.6-3.9.3,1.1.5,2.1.9,3.6-2.4,3-5.6,4.9-9.1,6.2Z" fill="#e2e2dd"/>
        <path d="M1188,504.2c.5.1,1,.1,1.4.4,3.8,2.9,7.8,3.3,12.1,1.1-2.6,3.4-6.1,2.5-9.3,1.5-1.5-.5-2.8-1.5-4.2-2.2,0-.2,0-.5,0-.7Z" fill="#e0e0dc"/>
        <path d="M1189.5,517c1.6-2,4.6-3.3,3.6-6.6-1.5-1.1-2.9-2.1-4.3-3.2,1.6.6,3.2,1.2,4.8,1.8,1,5.1.3,6.5-4,8Z" fill="#e0e0dc"/>
        <path d="M1162.5,534.3c3.5-2.3,7-4.5,10.5-6.8-3.5,2.3-7,4.5-10.5,6.8Z" fill="#e2e2dd"/>
        <path d="M1188.8,507.3c-3.5-2.3-7-4.5-10.5-6.8,3.5,2.3,7,4.5,10.5,6.8Z" fill="#e2e2dd"/>
        <path d="M1000.5,501.3c1.3,7.3,2.7,14.5,4.1,22.4-11.4,2-22.3,3.8-33.7,5.8-1.7-6.6-2.9-12.8-3.4-19.2.7-1.9,4.8-.8,6.7-.7,1.1-.9,2-1.5,2.9-2.2,4.1-.4,8.3-.9,12.3-2.2,4-1.3,7-3.2,11.2-3.9Z" fill="#d1eaab"/>
        <path d="M1000.5,501.3c-4.2.7-7.2,2.7-11.2,3.9-4,1.3-8.1,1.8-12.3,2.2-.9.7-1.8,1.4-2.9,2.2-1.9,0-6-1.2-6.7.7-.3-1-.5-2-.8-3v-.8c5.6-.2,9.4-2.7,14.5-4.3,6.2-1.9,12.5-3.8,18.7-5.8.2,2,.4,3.4.5,4.8Z" fill="#d6e9ba"/>
        <path d="M961.9,497.8c-6.8,1.4-12.7,2.5-18.9,3.8-.9-4.3-1.7-8-2.6-12.1,3.1-.7,5.9-1.3,8.8-2,.7,1,1.3,1.7,1.9,2.6,2.7-.5,5.4-1,8.8-1.7.6,3,1.3,6,2,9.3ZM959.1,489.8c-3.2.6-5.9,1.1-8.6,1.7-.8-.8-1.6-1.5-2.7-2.5-1.8.4-3.8.9-5.9,1.4.8,3.7,1.4,6.7,2.1,10,5.8-1.3,11.2-2.5,16.8-3.8-.6-2.6-1.1-4.5-1.6-6.8Z" fill="#c9c9c8"/>
        <path d="M1032,512.5c.5,1.3,1,2.5,1.4,3.8-.5,0-1,0-1.5,0h0c-2.3,0-4.6,0-7.5,0-.4-1.7-1-4-1.6-7,2.6-.5,4.9-.8,7.1-1.2,0,.3-.1.7-.2,1,.8,1.2,1.5,2.3,2.3,3.5Z" fill="#eae6d6"/>
        <path d="M1032,516.2c.5,0,1,0,1.5,0,.3,2.3.6,4.6,1,7.4-3,.7-5.7,1.3-8.8,2-1.5-5.8-2.8-11.1-4.3-16.9,3.1-.8,5.9-1.6,9.3-2.5.5,2.3,1,4.3,1.4,6.2-.8-1.2-1.5-2.3-2.3-3.5,0-.3.1-.7.2-1-2.2.4-4.5.8-7.1,1.2.7,3,1.2,5.3,1.6,7h7.5c-2.2.6-4.4,1.3-7,2,.6,2.2,1.1,4.1,1.7,6.3,2.5-.7,4.6-1.3,6.8-1.9-.6-2.3-1.1-4.4-1.5-6.4Z" fill="#d5d1c1"/>
        <path d="M1005.1,483.6c-.7-3.4-1.2-6-1.9-9.3,5.8-1.2,11.3-2.3,17.2-3.5.8,3.2,1.5,5.9,2.3,9.2-5.9,1.2-11.4,2.4-17.6,3.6ZM1006,482.4c5.2-1.1,10.2-2.1,15.4-3.2-.6-2.4-1.1-4.7-1.7-7.2-5.2,1.1-9.9,2.1-14.9,3.2.5,2.7.8,4.8,1.2,7.2Z" fill="#d4d1c1"/>
        <path d="M974.7,552.5c-.5-3.5-.8-5.9-1.2-8.7,5.3-.9,10.3-1.8,15.9-2.7.5,2.7,1,5.3,1.6,8.6-5.6,1-10.8,1.8-16.3,2.8ZM975.8,551.4c4.7-.8,8.9-1.6,13.7-2.4-.5-2.4-.9-4.4-1.3-6.7-4.9,1-9,1.8-13.5,2.7.4,2.4.7,4.2,1.1,6.4Z" fill="#d7cad7"/>
        <path d="M1040.9,532.3c.6,3,1,5.3,1.5,8-5.1,2.2-10.5,2.4-16.1,3.1-.5-2.8-.9-5.2-1.4-8.3,5.4-.9,10.4-1.8,16-2.7ZM1027.2,542.6c5.1-.9,9.4-1.7,14.1-2.6-.5-2.4-.8-4.3-1.2-6.4-4.6.8-8.9,1.6-13.4,2.4.2,2.3.4,4.3.6,6.5Z" fill="#e3dbc6"/>
        <path d="M952.5,523c.6.3,1.2.7,2.4,1.3-1.9,1.6-3.1,2.6-4.5,3.8h-4.6c-.3-.9-.5-1.9-.8-2.9.5-1.2.9-2.4,1.4-3.5,1.4-.2,2.7-.5,4-.7.7.7,1.5,1.3,2.2,2Z" fill="#edebdd"/>
        <path d="M936.2,456v-8.6c4.7-.3,9.3-.7,14.4-1v8.8c-4.7.3-9.3.5-14.4.8ZM936.5,448.2c.4,2.5.7,4.4,1.1,6.9,4.3-.4,8-.8,12-1.2-.1-2.3-.2-3.9-.3-5.7h-12.7Z" fill="#c9c9c8"/>
        <path d="M990.4,491.8c-5,1.1-9,1.9-13.8,3-.6-3.5-1.2-6.6-1.8-10.1,4.6-1,8.6-1.9,13.2-2.9.8,3.2,1.5,6.3,2.4,10ZM989,491.1c-.6-2.8-1.1-5.3-1.7-8-4.1.9-7.7,1.7-11.6,2.5.7,2.8,1.2,5,1.8,7.6,3.8-.7,7.3-1.3,11.4-2.1Z" fill="#d5d1c1"/>
        <path d="M1014.7,542.5c-.2,1.1-.4,2.1-.6,3.3-2.4.4-4.6.8-7.5,1.2-.6-2.7-1.2-5.2-1.7-7.7,3.5-2.5,6.7-2.7,9-.7-2.3.1-4.6.2-7.1.3.2,2.3.4,4.2.6,6.7,1.9-.5,3.4-.9,4.9-1.3v-4.4c.8,1,1.5,1.7,2.2,2.5Z" fill="#d8d4ca"/>
        <path d="M1014.7,542.5c-.7-.8-1.4-1.6-2.2-2.5v4.4c-1.5.4-3,.8-4.9,1.3-.2-2.5-.4-4.4-.6-6.7,2.5-.1,4.8-.2,7.1-.3.2,1.3.5,2.5.7,3.8Z" fill="#ede7e1"/>
        <path d="M952.5,523c-.7-.6-1.4-1.3-2.2-2-1.3.2-2.6.5-4,.7-.4,1.2-.9,2.3-1.4,3.5-.3-1.2-.5-2.4-.9-3.9,2.6-1,4.8-1.5,7.5-1.8.3,1.1.6,2.3.9,3.5Z" fill="#d7d4c4"/>
        <path d="M892.8,565.7c-5.5,1-10.6,2-16.3,3.1-.5-3-.9-5.7-1.4-8.7,5.5-1,10.4-1.9,15.8-2.8.7,2.9,1.2,5.4,1.9,8.5ZM891.4,565c-.7-2.5-1.1-4.2-1.7-6.3-4.7.8-9.2,1.6-13.8,2.4.5,2.4.8,4.1,1.3,6.4,4.6-.8,9.1-1.6,14.1-2.5Z" fill="#e1d9c2"/>
        <path d="M852.1,573.1c-5.6.9-10.8,1.8-16.6,2.7-.3-3.2-.6-5.8-.9-8.8,5.5-.9,10.4-1.7,15.7-2.6.6,2.8,1.1,5.4,1.7,8.6ZM850.5,572.3c-.5-2.5-.8-4.4-1.3-6.6-4.7.9-9.1,1.7-13.8,2.6.4,2.3.8,4.2,1.2,6.4,4.6-.8,9.1-1.6,13.9-2.4Z" fill="#e1d9c3"/>
        <path d="M872.4,546.5c-.6-2.9-1.1-5.4-1.8-8.6,5.2-1,10.3-1.9,16.1-3,.5,3,1,5.7,1.6,8.7-5.6,1-10.5,1.9-15.9,2.9ZM886.9,542.8c-.3-2.3-.6-4.1-.9-6.5-4.8.9-9.3,1.6-14.1,2.5.5,2.6.9,4.5,1.3,6.5,4.7-.9,9.1-1.7,13.7-2.5Z" fill="#e2dac3"/>
        <path d="M895.3,579.9c.6,3,1.1,5.5,1.7,8.7-5.4,1-10.6,2-16.3,3-.4-3.3-.8-5.9-1.1-8.8,5.5-1,10.3-2,15.7-3ZM894.4,581.3c-4.9,1-9.4,1.9-14.1,2.8.6,2.6.9,4.3,1.4,6.5,4.6-.9,9-1.8,13.8-2.7-.3-2.1-.6-3.9-1.1-6.6Z" fill="#e1d9c3"/>
        <path d="M882.3,511.8c.7,2.9,1.3,5.4,2,8.6-5.5,1-10.7,2-16.3,3-.5-3.1-.9-5.5-1.4-8.5,5.2-1.1,10.1-2,15.7-3.2ZM882.9,519.6c-.5-2.3-.8-4.2-1.3-6.5-4.7.9-9.2,1.8-14.1,2.7.5,2.4,1,4.4,1.4,6.4,4.8-.9,9.1-1.7,14-2.6Z" fill="#e1d9c2"/>
        <path d="M778.8,560.8c-.5-3.5-.8-5.9-1.2-8.7,3.1-.6,5.5-1.2,8.5-1.8.6,2.8,1.1,5.4,1.8,8.4-3.2.7-5.8,1.3-9.1,2.1ZM779.9,559.2c2.2-.5,4.1-.9,6.3-1.3-.5-2.4-.9-4.3-1.4-6.5-2.3.7-4.3,1.3-6.4,2,.5,2,.9,3.5,1.5,5.9Z" fill="#e1d9c2"/>
        <path d="M812.2,456.2c3.2-1.4,7.1-.9,10.5-1.1,3.9-.2,7.9-.3,11.8-.4,8.4-.3,16.8-.7,25.1-.7,8.2,0,16.3,1.3,24.4,2.2,4,.4,8,.5,12.1.7,3.5.2,7.2,1.1,10.5,0l6.7-.8c-.7,13.5-1.6,27-2.5,40.5-14.7,0-29.3.1-43.7,3-7.2,1.5-14.4,2.7-21.6,3.9-7.3,1.3-15.2,1.9-22.2,4.2-1.5-9.7-3.2-19.4-4.9-29.1-.6-3.3-1.8-23.1-6.4-22.7ZM876.6,480.6c-5.5,1-10.5,1.9-15.9,2.9.5,3.2,1,5.8,1.5,8.7,5.7-1.1,10.9-2,16.2-3-.6-3-1.1-5.4-1.8-8.5ZM835.9,483c-3,.5-5.7.8-8.9,1.3.6,3.1,1.1,5.9,1.7,8.8,3.2-.7,5.7-1.2,8.5-1.8-.4-2.9-.8-5.3-1.2-8.4Z" fill="#f5f0d8"/>
        <path d="M796,440.9c.8-2.9,1.5-5.3,2.4-8.2,4.5,1.4,8.7,2.7,13,4.1.8-.9,1.6-1.8,2.6-2.9,1.5.4,3,.7,4.9,1.2-1.2,3.9-2.3,7.5-3.6,11.6-6.8-.9-12.6-3.7-19.3-5.8ZM797.1,440c5.8,1.9,11.3,3.8,17.1,5.7,1.1-3.4,2.1-6.5,3.1-9.5-2.6-2.2-3.5.4-5.5,1.6-3.9-1.2-8.2-2.5-12.6-3.9-.7,2.1-1.3,3.8-2.1,6.2Z" fill="#d4d1c1"/>
        <path d="M832.7,409.3v-9.8h9.9v9.8h-9.9ZM833.5,407.9h7.7v-7.6h-7.7v7.6Z" fill="#d3cfc0"/>
        <path d="M669,538.7c-3.8-4.9-4-10.8-4.7-16.7-.8-6.3-2-12.7-1.9-19,.2-11.5,9.6-16.5,19.7-18.8,6.3-1.5,12.8-1.5,19.2-2.5,6.1-.9,12-2.4,17.9-4.1,6.6-1.9,13.2-3.8,19.8-5.7,6.3-1.8,12.8-4.3,19.2-5,0,10.5.3,21-.9,31.5-1.2,11-2.6,21.9-3.6,32.9-13.5,3.2-28.5,2.5-42.4,3.7-14.1,1.2-28.2,2.5-42.4,3.8ZM683.8,516c-3.3.4-6,.7-9.2,1.1.5,3.1.9,5.6,1.3,8.5,3.2-.5,5.9-.8,9-1.3-.4-2.8-.7-5.2-1.1-8.3Z" fill="#f8f7e9"/>
        <path d="M731,543.5h9.4c.2,2.4.5,4.8.9,8.1-3.1.3-5.7.6-9.1.9-.4-3-.8-5.7-1.2-9ZM732.3,545c.3,2.2.5,4.2.8,6.4,2.2-.3,4.1-.6,6.4-1-.4-2.1-.7-4.1-1.1-6.3-2.2.3-4.1.6-6.1.9Z" fill="#e3dbc5"/>
        <path d="M910.5,657.3c1.3,3.5,2.5,7,3.8,10.5-2.1.9-4.3,1.8-6.9,3-1.4-3.6-2.7-6.9-4.1-10.6,2.8-1.1,5-1.9,7.3-2.8Z" fill="#d0d0d0"/>
        <path d="M1159.6,526.7c.5.8,1,1.6,1.5,2.6-2.2,1.5-4.1,2.8-6,4.2-2,.9-4,1.8-6.1,2.7-1.8-2.8-3.6-5.4-5.4-8.3,3.9-2.5,7.4-4.7,11.1-7,1.8,2.2,3.4,4,4.9,5.9Z" fill="#e6e2d4"/>
        <path d="M1188,515c-5.8,3.7-11,7.1-16.7,10.7-2-3.2-3.8-6-5.9-9.3,5.4-3.9,10.8-7.3,16.6-10.6,2.1,3.2,3.7,5.8,5.9,9.2ZM1181.8,507.3c-4.9,3.2-9.5,6.1-14.4,9.2,1.6,2.7,2.9,4.9,4.5,7.5,5-3.2,9.7-6.2,14.7-9.4-1.7-2.6-3.1-4.8-4.8-7.4Z" fill="#d5d2c2"/>
        <path d="M1159.6,526.7c-1.6-1.9-3.1-3.7-4.9-5.9-3.6,2.3-7.2,4.6-11.1,7,1.9,2.9,3.6,5.5,5.4,8.3,2.1-.9,4.1-1.8,6.1-2.7-2,1.3-4,2.5-6.1,3.8-.3,0-.5,0-.8,0-2.1-3-4.1-6-6.4-9.2,2.6-2.2,4.9-4,7.1-5.8,1.2-.7,2.5-1.5,3.7-2.2.7-.1,1.4-.3,2.7-.6,1.3,2.3,2.7,4.8,4.1,7.3Z" fill="#d5d1c2"/>
        <path d="M840,626.5c-3.2,4-3.1,8.8-3.7,13.5-.3,1-.5,2-.8,3-2.4,0-4.8,0-7.2.3-4.9.8-9.7,1.8-14.6,2.7-7-7.3-14-14.6-20.7-22.2,17.2-2.7,33.7-5.3,50.8-8-1.5,4.1-2.7,7.4-3.9,10.7ZM832.5,629.1c-.4-3-.8-5.5-1.2-8.8-5.5.9-10.8,1.7-16.5,2.6.6,3.4,1.1,6,1.7,8.8,5.7-.9,10.5-1.7,16.1-2.6Z" fill="#f5f0d8"/>
        <path d="M812.2,456.2c4.5-.4,5.8,19.4,6.4,22.7,1.7,9.7,3.4,19.4,4.9,29.1-11.5,2-23,3.9-34.5,6.1-10.7,2.1-20.7,4.6-29.6,11.2,2.3-20.4,5.5-40,3.8-60.2,8.1-1.8,15.4-3.4,22.8-5.1,5-1,10-2,15-3,3.7-.3,7.5-.5,11.2-.8ZM766.5,480.2c9-.6,17.4-1.2,26.4-1.9-.4-4.7-.7-9.1-1.1-14.1-9,.6-17.7,1.3-27,1.9,1,4.9-1.3,9.6,1.7,14.1Z" fill="#f8f7e9"/>
        <path d="M1058.4,573.7c-3.6-28.1-9.1-55-20.5-81.1,9.8-2.1,18.8-4,27.3-5.7,3.5,11.8,6.7,23.1,10.2,34.3,3.6,11.4,11.1,20.7,17.8,31.1-10.8,8.3-21.5,16.1-34.8,21.5ZM1067.3,508.7h0c-.5-5.4-1-10.8-1.6-16.8-4.5.6-8.5,1-12.7,1.6,1.4,10.3,2.6,19.8,4,29.8,4.4-.9,8.7-.3,12.6-2.3-.8-4.3-1.6-8.3-2.3-12.2Z" fill="#f8f7e9"/>
        <path d="M840.8,640.8c.9-9.6,5.7-17.6,9.6-26,17.5-2.8,34.7-5.5,52.7-8.4.2,8.4.5,16.5.7,24.7-21,3.3-41.9,6.8-62.9,9.8ZM884.7,611.7c.4,3.2.7,5.9,1.1,8.9,5.7-1,10.8-1.9,16.2-2.8-.5-3-.9-5.8-1.4-8.7-5.4.9-10.2,1.7-15.9,2.6Z" fill="#f5f0d8"/>
        <path d="M840.8,640.8c21-3,42-6.5,62.9-9.8.4,3.3.9,6.6,1.4,10.3-20.8,7.1-41.7,13.7-63.9,16.8-1.8-5.9-1.5-11.6-.4-17.4Z" fill="#f8f7e9"/>
        <path d="M1105.5,544c-3.1,2.2-6.3,4.3-9.5,6.6-.4-.5-.7-.9-1-1.3-14.3-18.6-22.3-39.8-25.4-63.2,6.2-1.3,12-2.4,18.3-3.7,6.8,19.7,10.8,40.3,21.4,58.5-1.4,1.1-2.6,2.1-3.8,3.1ZM1077.7,487.6c4.3,14.6,8.4,28.6,12.8,43.3,3-.8,5.7-1.6,8.7-2.4-4.6-14.7-8.2-29-13.1-43.3-3.1.9-5.6,1.6-8.4,2.4Z" fill="#f8f7e9"/>
        <path d="M937.5,547c1.1.1,2.1.2,3.2.3,1.5,5.6,2.9,10.9,4.3,16.2,2.2,10.2,3.4,20,4,30.4-13.9,2.2-27.3,4.4-41.4,6.6-3-16.1-6-31.9-9.1-48.2,6.5-.9,12.9-1.8,19.4-2.5,3.1-.4,6.2-.7,9.3-1.1,2.7-.3,8,0,10.2-1.7ZM926.3,552.4c.2,3.3-1,6.2,1.3,8.6,2.5-.3,4.9-.6,7.8-1-.3-3-.5-5.7-.8-8.9-3.2.5-5.6.8-8.3,1.2Z" fill="#f5f0d8"/>
        <path d="M730.5,603.3c2.5-5.3,5-10.6,7.4-16,.9-1.9,1.5-3.9,2.3-5.8,3.4-4.3,7.1-7.5,9.5-12.6,2.6-5.3,4.8-10.8,7.5-16.1,7.2,18,14.2,35.4,21.2,52.9-10.7,3.3-39.4,8.2-46.4,8-3.8-1.7-2.2-7.3-1.5-10.4ZM747.6,610.9c5.8-1.2,10.9-2.3,16.4-3.4-.6-3-1.2-5.6-1.8-8.5-5.6,1.1-10.7,2.1-16.4,3.1.6,3.2,1.1,5.9,1.7,8.8Z" fill="#f5f0d8"/>
        <path d="M905.5,502.3c5.1-.8,10.1.2,15,1.5,5.9,1.5,6.8,4.9,9.4,10.1,4.7,9.4,7.3,18.2,9.7,28.2-14.1,1.7-27.9,3.4-41.6,5.1-4.3-16.6-2.1-31.3,7.5-44.9ZM933.4,523.9c-9.2-.5-17.6,2.2-26.9,2.4.4,4.5.8,8.3,1.2,12.9,9.2-1.1,17.9-2.1,26.9-3.2-.5-4.3-.8-7.8-1.3-12Z" fill="#f8f7e9"/>
        <path d="M1109.3,490.7c4.9,5.1,10.8,10,13.5,16.7,2.8,6.9,3,14.9,4,22.1-5,3.2-9.8,6.3-14.9,9.6-10-18.1-14.4-37.7-20.4-56.8,2.9-4.1,14.4,6.9,17.9,8.4,0,0,0,0,0,0Z" fill="#f8f7e9"/>
        <path d="M910.5,642.2c-.5-4-1-8-1.5-12,7.3-1.2,14.5-2.5,21.8-3.6,6.2-.9,12.4-1.6,18.7-2.4,1,6.5,2,13,3,19.5.8,3.8,1.7,7.6,2.6,11.8-10.7,6.5-21,12.8-31.9,19.5-4.2-10.9-8.4-21.8-12.7-32.8Z" fill="#f8f7e9"/>
        <path d="M949.5,624.2c-6.2.8-12.5,1.5-18.7,2.4-7.3,1.1-14.5,2.4-21.8,3.6-.3-8-.6-16-.9-24.4,5.8-1.2,11.2-2.3,16.7-3.4,7.9-1.1,15.9-2.1,23.8-3.2.4,8.3.6,16.6.9,24.9ZM933.7,603.8c.7,3.3,1.3,5.9,1.9,8.8,3-.5,5.5-1,8.4-1.4-.6-3.1-1.1-5.8-1.6-8.7-3.1.5-5.7.9-8.8,1.3Z" fill="#f5f0d8"/>
        <path d="M1051,484.6c-4.3.9-8.6,1.8-13.1,2.7-1.3-3.8-2.5-7.2-4-11.6,6.2,2.9,11.7,5.4,17.2,7.9,0,.3,0,.6,0,1Z" fill="#f8f7e9"/>
        <path d="M765.8,645.6c.3,2.7.5,4.5.8,6.6-4.7.9-9,1.6-13.5,2.5-.5-2-.9-3.9-1.5-6.3,4.6-.9,9-1.8,14.2-2.8Z" fill="#fef7e0"/>
        <path d="M1228.5,483.2c-1,.7-2,1.5-3,2.2-5.6-3.5-8.8-11.7-12.2-17.3,2.4-1.6,4.5-2.9,6.7-4.4.7,1.3,1.2,2.1,1.7,3,3.1,4.9,6.2,9.8,9.4,14.9-1.3.8-2,1.2-2.7,1.6Z" fill="#fdfcee"/>
        <path d="M1221.8,466.7c-.5-.8-1-1.7-1.7-3-2.2,1.5-4.3,2.8-6.7,4.4,3.4,5.6,6.6,13.8,12.2,17.3-.7.6-1.4,1.2-2.4,2.1-4.3-6.9-8.1-13.1-12.2-19.7,3.5-1.7,5.6-5,10-4.8.5,1.3,1.1,2.5,1.6,3.7-.2,0-.5,0-.7,0Z" fill="#e7e3d4"/>
        <path d="M1198.1,503.6c0,0-.7.3-1.7.7-4-6.4-8-12.7-11.8-18.9,4.8-4.3,7-5.5,9.2-4.9-2.5,1.6-4.8,3-7.4,4.6,3.8,6.2,7.7,12.4,11.8,18.5Z" fill="#e7e3d4"/>
        <path d="M1221.8,466.7c.2,0,.5,0,.7,0,3.4,4.9,6.7,9.7,10.2,14.7-1.5,1.3-2.1,3.2-4.2,1.8.7-.4,1.4-.9,2.7-1.6-3.2-5-6.3-10-9.4-14.9Z" fill="#ece9d9"/>
        <path d="M959.1,489.8c.6,2.4,1,4.3,1.6,6.8-5.6,1.2-11,2.5-16.8,3.8-.7-3.3-1.3-6.4-2.1-10,2.1-.5,4.1-1,5.9-1.4,1.1,1,1.9,1.8,2.7,2.5,2.7-.5,5.4-1,8.6-1.7Z" fill="#d4d4d4"/>
        <path d="M1032,516.2c.5,2,1,4,1.5,6.4-2.2.6-4.3,1.2-6.8,1.9-.6-2.2-1.1-4.1-1.7-6.3,2.6-.7,4.8-1.4,7-2,0,0,0,0,0,0Z" fill="#eae6d6"/>
        <path d="M1006,482.4c-.4-2.4-.8-4.5-1.2-7.2,5-1.1,9.7-2.1,14.9-3.2.6,2.4,1.1,4.7,1.7,7.2-5.3,1.1-10.2,2.1-15.4,3.2Z" fill="#e6e2d4"/>
        <path d="M975.8,551.4c-.4-2.2-.7-4-1.1-6.4,4.5-.9,8.6-1.8,13.5-2.7.5,2.3.9,4.3,1.3,6.7-4.8.9-9,1.6-13.7,2.4Z" fill="#ebd9ec"/>
        <path d="M1027.2,542.6c-.2-2.2-.4-4.2-.6-6.5,4.6-.8,8.8-1.6,13.4-2.4.4,2,.8,3.9,1.2,6.4-4.7.9-9,1.7-14.1,2.6Z" fill="#fef7e0"/>
        <path d="M936.5,448.2h12.7c0,1.8.2,3.4.3,5.7-3.9.4-7.7.8-12,1.2-.4-2.5-.7-4.4-1.1-6.9Z" fill="#d4d4d4"/>
        <path d="M989,491.1c-4.1.8-7.6,1.4-11.4,2.1-.6-2.6-1.1-4.8-1.8-7.6,3.8-.8,7.5-1.6,11.6-2.5.6,2.8,1.1,5.2,1.7,8Z" fill="#e6e2d4"/>
        <path d="M891.4,565c-5,.9-9.5,1.7-14.1,2.5-.5-2.3-.8-4-1.3-6.4,4.6-.8,9.1-1.6,13.8-2.4.6,2.1,1,3.8,1.7,6.3Z" fill="#fef7e0"/>
        <path d="M850.5,572.3c-4.8.8-9.2,1.6-13.9,2.4-.4-2.2-.8-4.1-1.2-6.4,4.7-.9,9.2-1.7,13.8-2.6.4,2.2.8,4.1,1.3,6.6Z" fill="#fef7e0"/>
        <path d="M886.9,542.8c-4.7.9-9,1.7-13.7,2.5-.4-2-.8-3.9-1.3-6.5,4.8-.9,9.3-1.6,14.1-2.5.3,2.4.6,4.2.9,6.5Z" fill="#fef7e0"/>
        <path d="M894.4,581.3c.4,2.6.7,4.5,1.1,6.6-4.8.9-9.2,1.8-13.8,2.7-.5-2.1-.8-3.9-1.4-6.5,4.7-.9,9.2-1.8,14.1-2.8Z" fill="#fef7e0"/>
        <path d="M882.9,519.6c-4.8.9-9.2,1.7-14,2.6-.5-2.1-.9-4-1.4-6.4,4.9-.9,9.4-1.8,14.1-2.7.5,2.3.8,4.2,1.3,6.5Z" fill="#fef7e0"/>
        <path d="M779.9,559.2c-.6-2.4-1-3.9-1.5-5.9,2.1-.6,4.1-1.3,6.4-2,.5,2.2.9,4.1,1.4,6.5-2.2.5-4.1.9-6.3,1.3Z" fill="#fdf6df"/>
        <path d="M876.6,480.6c.6,3.1,1.1,5.5,1.8,8.5-5.4,1-10.5,2-16.2,3-.5-2.9-.9-5.5-1.5-8.7,5.4-1,10.4-1.9,15.9-2.9ZM876.9,488.2c-.5-2.4-.9-4.3-1.3-6.4-4.7.9-9.2,1.7-14,2.5.5,2.4.9,4.3,1.3,6.5,4.6-.9,9-1.7,13.9-2.6Z" fill="#e1d9c2"/>
        <path d="M835.9,483c.5,3.1.8,5.5,1.2,8.4-2.8.6-5.3,1.1-8.5,1.8-.6-3-1.1-5.7-1.7-8.8,3.3-.5,5.9-.9,8.9-1.3ZM835.9,490.5c-.6-2.6-1.1-4.6-1.6-6.5-2.4.4-4.2.8-6.1,1.1.4,2.1.7,4.1,1.1,6.5,2.1-.4,4-.7,6.6-1.1Z" fill="#e0d8c2"/>
        <path d="M797.1,440c.8-2.3,1.4-4.1,2.1-6.2,4.4,1.4,8.7,2.7,12.6,3.9,2-1.1,2.9-3.8,5.5-1.6-1,3-2,6.1-3.1,9.5-5.7-1.9-11.2-3.7-17.1-5.7Z" fill="#e6e2d4"/>
        <path d="M833.5,407.9v-7.6h7.7v7.6h-7.7Z" fill="#e8e6d8"/>
        <path d="M683.8,516c.4,3.2.7,5.6,1.1,8.3-3.1.4-5.8.8-9,1.3-.4-2.9-.8-5.4-1.3-8.5,3.2-.4,5.9-.7,9.2-1.1ZM676.8,524.6c2.2-.4,4.2-.8,6.3-1.2-.4-2.2-.7-4.1-1.1-6.4-2.2.4-4.2.8-6.5,1.2.4,2.2.8,4.1,1.3,6.4Z" fill="#e0d8c3"/>
        <path d="M732.3,545c2.1-.3,4-.6,6.1-.9.4,2.2.7,4.1,1.1,6.3-2.3.4-4.2.7-6.4,1-.3-2.2-.5-4.2-.8-6.4Z" fill="#fef7e0"/>
        <path d="M1181.8,507.3c1.7,2.6,3.1,4.8,4.8,7.4-4.9,3.2-9.7,6.2-14.7,9.4-1.6-2.6-2.9-4.8-4.5-7.5,4.8-3.1,9.5-6.1,14.4-9.2Z" fill="#e6e2d4"/>
        <path d="M832.5,629.1c-5.6.9-10.4,1.7-16.1,2.6-.5-2.7-1-5.4-1.7-8.8,5.8-.9,11-1.7,16.5-2.6.5,3.3.8,5.8,1.2,8.8ZM829.9,621.9c-4.6.7-9,1.4-14,2.1.4,2.3.8,4.1,1.2,6.5,4.8-.7,9.2-1.4,14-2.1-.4-2.3-.8-4.2-1.2-6.5Z" fill="#e2dac3"/>
        <path d="M766.5,480.2c-3-4.5-.7-9.2-1.7-14.1,9.3-.7,18-1.3,27-1.9.4,5,.7,9.4,1.1,14.1-9,.6-17.4,1.2-26.4,1.9ZM791.4,477.2c-.4-4.2-.8-7.8-1.2-11.8-8.2.6-16.1,1.1-24.7,1.7.4,3.9.7,7.6,1.2,11.9,8.2-.6,16.1-1.2,24.7-1.8Z" fill="#d4d1c1"/>
        <path d="M1067.3,508.7c.8,4,1.5,7.9,2.3,12.2-4,2-8.2,1.4-12.6,2.3-1.3-10-2.6-19.5-4-29.8,4.2-.5,8.2-1,12.7-1.6.6,6,1.1,11.4,1.6,16.8-1.6-5-1.9-10.5-2.6-15.7-3.5.6-6.8,1.1-10.1,1.6,1.3,9.4,2.5,18.4,3.7,27.4,3.5-.5,6.5-.9,9.8-1.4-.3-4.3-.5-8.1-.8-11.9Z" fill="#c9c9c7"/>
        <path d="M884.7,611.7c5.6-.9,10.5-1.7,15.9-2.6.5,3,.9,5.7,1.4,8.7-5.4.9-10.5,1.8-16.2,2.8-.4-3-.7-5.7-1.1-8.9ZM899.6,610.7c-4.6.7-8.9,1.4-13.9,2.1.4,2.2.7,4.1,1.1,6.5,4.9-.8,9.4-1.4,13.9-2.1-.4-2.2-.6-4.1-1-6.5Z" fill="#e2dac3"/>
        <path d="M1077.7,487.6c2.9-.8,5.3-1.5,8.4-2.4,4.9,14.3,8.5,28.7,13.1,43.3-3.1.8-5.7,1.6-8.7,2.4-4.3-14.7-8.5-28.7-12.8-43.3ZM1085.9,486.8c-2.3.5-4.3.9-6.5,1.4,4.2,14.2,8.3,27.9,12.4,41.7,2.3-.8,4.1-1.4,6.3-2.1-4-13.5-7.9-26.8-12.1-41Z" fill="#e8e4d5"/>
        <path d="M926.3,552.4c2.7-.4,5.1-.8,8.3-1.2.3,3.2.5,5.9.8,8.9-2.9.4-5.3.7-7.8,1-2.3-2.4-1.1-5.3-1.3-8.6ZM933.5,553.3h-6.6c.4,2.4.8,4.3,1.2,6.5,2.3-.2,4.2-.4,6.2-.5-.3-2.4-.6-4.1-.8-6Z" fill="#e2dac3"/>
        <path d="M747.6,610.9c-.6-3-1.1-5.7-1.7-8.8,5.6-1.1,10.8-2.1,16.4-3.1.6,2.9,1.1,5.5,1.8,8.5-5.5,1.2-10.6,2.2-16.4,3.4ZM761,600.4c-4.8,1-9.3,2-13.9,2.9.5,2.3.8,3.9,1.3,6.2,4.7-.8,9.1-1.6,13.8-2.5-.5-2.5-.8-4.4-1.2-6.6Z" fill="#e1d9c2"/>
        <path d="M933.4,523.9c.4,4.2.8,7.7,1.3,12-9.1,1.1-17.8,2.1-26.9,3.2-.4-4.5-.8-8.4-1.2-12.9,9.3-.2,17.7-2.8,26.9-2.4ZM908.7,538c8.4-1.1,16.3-2.1,24.7-3.1-.5-3.9-.9-7.1-1.3-10.3-8.4,1.1-16.4,2.1-24.6,3.1.4,3.5.8,6.5,1.2,10.3Z" fill="#e8e5d5"/>
        <path d="M933.7,603.8c3-.5,5.6-.9,8.8-1.3.5,2.9,1,5.6,1.6,8.7-2.8.5-5.3.9-8.4,1.4-.6-2.9-1.2-5.5-1.9-8.8ZM935.1,605.1c.4,2.2.8,4.1,1.2,6.5,2.3-.5,4.3-.9,6.4-1.3-.4-2.2-.8-4.2-1.2-6.3-2.1.4-4,.7-6.4,1.2Z" fill="#e1d9c2"/>
        <path d="M876.9,488.2c-4.9.9-9.3,1.8-13.9,2.6-.5-2.3-.8-4.1-1.3-6.5,4.8-.9,9.3-1.7,14-2.5.4,2.2.8,4.1,1.3,6.4Z" fill="#fef7e0"/>
        <path d="M835.9,490.5c-2.6.5-4.5.8-6.6,1.1-.4-2.4-.7-4.4-1.1-6.5,2-.4,3.8-.7,6.1-1.1.5,1.9,1,3.9,1.6,6.5Z" fill="#fdf6df"/>
        <path d="M676.8,524.6c-.4-2.3-.8-4.2-1.3-6.4,2.3-.4,4.3-.8,6.5-1.2.4,2.3.7,4.2,1.1,6.4-2.1.4-4.1.8-6.3,1.2Z" fill="#fdf6df"/>
        <path d="M829.9,621.9c.4,2.4.8,4.3,1.2,6.5-4.8.7-9.2,1.4-14,2.1-.4-2.4-.8-4.2-1.2-6.5,4.9-.7,9.4-1.4,14-2.1Z" fill="#fef7e0"/>
        <path d="M791.4,477.2c-8.6.6-16.5,1.2-24.7,1.8-.4-4.3-.8-8-1.2-11.9,8.6-.6,16.5-1.2,24.7-1.7.4,4,.8,7.6,1.2,11.8Z" fill="#e6e2d4"/>
        <path d="M1067.3,508.7c.2,3.8.5,7.6.8,11.9-3.3.5-6.3.9-9.8,1.4-1.2-9.1-2.4-18-3.7-27.4,3.3-.5,6.6-1,10.1-1.6.7,5.2,1,10.7,2.6,15.7,0,0,0,0,0,0Z" fill="#d4d4d4"/>
        <path d="M899.6,610.7c.4,2.5.7,4.3,1,6.5-4.5.7-9,1.4-13.9,2.1-.4-2.4-.7-4.3-1.1-6.5,5-.8,9.3-1.4,13.9-2.1Z" fill="#fef7e0"/>
        <path d="M1085.9,486.8c4.2,14.3,8.1,27.6,12.1,41-2.1.7-4,1.3-6.3,2.1-4.1-13.9-8.1-27.5-12.4-41.7,2.3-.5,4.3-.9,6.5-1.4Z" fill="#fdfcee"/>
        <path d="M933.5,553.3c.3,1.8.5,3.6.8,6-2.1.2-3.9.3-6.2.5-.4-2.2-.8-4.1-1.2-6.5h6.6Z" fill="#fdf6df"/>
        <path d="M761,600.4c.4,2.2.8,4.1,1.2,6.6-4.8.9-9.1,1.7-13.8,2.5-.5-2.3-.8-4-1.3-6.2,4.6-1,9.1-1.9,13.9-2.9Z" fill="#fef7e0"/>
        <path d="M908.7,538c-.4-3.9-.8-6.9-1.2-10.3,8.2-1,16.2-2,24.6-3.1.4,3.2.8,6.4,1.3,10.3-8.3,1.1-16.3,2.1-24.7,3.1Z" fill="#fdfcee"/>
        <path d="M935.1,605.1c2.4-.4,4.3-.8,6.4-1.2.4,2.2.7,4.1,1.2,6.3-2.1.4-4.1.8-6.4,1.3-.4-2.3-.8-4.3-1.2-6.5Z" fill="#fdf6df"/>
      </g>
    </g>
  </g>
</svg>