<?xml version="1.0" encoding="UTF-8"?>
<svg xmlns="http://www.w3.org/2000/svg" version="1.1" viewBox="0 0 1920 1080">
  <!-- Generator: Adobe Illustrator 28.7.8, SVG Export Plug-In . SVG Version: 1.2.0 Build 200)  -->
  <g>
    <g id="_Слой_1" data-name="Слой_1">
      <g id="_Слой_1-2" data-name="_Слой_1">
        <g>
          <path d="M1295.8,1079.8H.5v-264.4c2-2.9,6.2-2.6,9.7-2.6,23.1-.7,46.3-1.2,69.7-1.5,13.9-.2,27.9-1,41.5-2.7,7-.9,14.2-.7,21.1-.9,14.4-.5,25.9-5.6,38.1-9.6,21.9-7.2,43.3-14.9,64.9-22.2,9.2-3.1,19.2-3.8,28.9-4.8,32.3-3.8,64.9-6.5,97.3-9.9,11.9-1.4,23.6,0,35.1,1,14.9,1.5,30.1,1.7,44.8,3.4,15.9,1.9,32.1,1.5,48,2.7,28.4,2.1,56.7,1.9,84.8,3.9,21.1,1.5,39.3,8.9,58.7,14,14.9,3.9,29.4,8.9,44.5,12.8,9,2.4,17.4,5.6,24.9,9.8,16.2,8.6,32.6,17.1,49.8,24.6,16.9,7.4,28.6,18.5,40.3,29.1,24.6,21.9,55.7,37.8,88.6,53.1,45.3,20.9,90.1,42.3,135.3,63.3,13.9,6.5,29.9,10.1,44.8,15.2,10.4,3.6,21.4,7,31.8,10.6,24.6,8.7,51.5,13.3,77.6,19,20.4,4.3,40.8,8.6,61.2,13,13.9,3.1,28.1,5.5,42.3,7.5,8.2,1.2,15.9,2.7,16.7,9.9,0,.9-.2,1.7-.7,2.4-.7,1.2-1.5,2.2-.2,3.6.5.7,1,1.4,1.2,2.2,0,.9,0,1.5-.7,2.2-1.5.7-3.5-.3-4.5,1.2-.7,1.2-.7,2.4-.5,3.6,0,.5.2,1,.5,1.5.2.7.5,1.5.7,2.2.2.7.5,1.5.5,2.2-.5,1.4,1.2,3.1-.7,4.4l-.5-.2Z" fill="#96d1f8"/>
          <path d="M1445.1.3h231.1c21.4,6.2,40.5,15.2,60.9,22.8,7.2,2.6,13.9,5.5,20.9,8.2s7.5,2.4,8.2,5.6c-3.2,5.8-11.2,7-18.4,8.4-10.4,1.9-20.6,3.6-31.1,5.3-19.9-.9-39.6.9-59.5,1.5-16.4.5-32.6,4.6-48,9.1-12.7,3.6-25.4,6.7-38.1,9.9,14.9-3.8,29.4-7.9,44.3-11.5,15.4-3.8,30.8-7.9,47.5-7.9s31.8-2.1,47.3-1.2c3,2.9,2,5.3,1,7.5-3.7,9.2-5.2,18.8-10,27.9-7,14-5,28.7-7.7,43-.5,2.7,0,5.6-3.2,7.7.5,2.1,3.5,3.8,3,6-2.7,11,.5,22.1-4.7,33-18.4,38.5-37.6,76.8-53,116-1,2.6-2,5-5.5,6.5-7-.9-4.5-4.4-3.5-6.8,3.5-9.8,7.7-19.3,11.4-28.9,3.7-9.2,7.2-18.5,11.2-27.7,2-4.6,1.7-8.6-3.2-12.3-3.2-2.4-6-5.5-7-8.9-.5-2.7,3.2-4.4,4-7-1.2-2.7-5-3.9-8.2-5.1-5.2.7-7.7,2.7-7.5,6.2-7.2,1.9-11.9-.2-14.7-4.8-6.2-10.4-19.4-15.9-31.8-22.8-7.5,4.3-13.9,8.4-20.9,12.2-3.2,1.7-7,5-11.4,1,1-5.5,9.5-7,13.2-12.3,0,.2,0,1.4,0,.5,0-16.1,19.7-19.7,34.6-25.8,11.9-5,16.9-13.3,24.9-20.4,1.5-1.4,2.5-2.9,3.5-4.6-10.9,19.7-36.8,28.1-60.5,38.3.7,9.2-5.2,15.4-13.9,21-12.2,8.2-22.6,17.6-35.1,25.5-2,1.4-3.7,2.9-4,5-2.5,4.1-7.5,6.8-12.2,9.4-4.5,2.4-8.5,5-12.2,7.9-3.5,2.7-4.5,5.8-1.5,8.9,5,5,6.2,10.6,8.2,16.3,1.5,3.9,3.2,7.9,7,11.1,12.7,10.8,25.4,21.6,38.3,32.2,1.5,1.4,3,2.7,6,3.1,5.5-.5,8.2-5.1,15.2-5,5.2,1.7,10,4.1,10.2,9.1-4,3.4-11.4,4.3-13.4,9.1,3.5,1.8,9.7,0,18.7-5.3,6.2,1,9,4.6,12.2,8-7,7-15.7,12.8-24.9,18.5-2.7,1.7-5.7,3.1-8.2,4.8,25.9-15.2,47.8-33.5,74.4-47.1,5,1.2,6,3.1,6.2,5,1,10.6,3.7,21.2,4,31.8,0,6.8-3.7,11.5-11.4,15.7-20.2,11-41.3,20.9-61.9,31.1,23.1-11.3,46.3-22.9,70.7-35.3,5,11.8-.5,22.8,4.7,34.4-81.6,46.5-164.7,92.8-248.5,138.1,83.6-44.7,165.2-91,248-137.2,10.4,6.2,18.2,13.2,24.6,20.7-17.4,11-37.6,19.5-56,29.6-4.5,2.4-9,4.6-12.9,7.4-12.2,8.2-27.4,13.9-40.5,21.2-29.4,16.3-59.2,32.2-88.8,48.3,36.3-19.9,72.4-39.7,109.2-59,27.9-14.5,54.7-29.9,83.3-43.8,2-1,3.7-2.4,5.5-3.4,6.7.3,7,5,10,7.5,6,5.1,14.9,9.4,14.4,16.9-.7,1.5-2,2.6-3.5,3.3-20.4,8.9-39.1,19.3-59,28.7-12.7,6-22.9,14.4-34.8,20.9-22.9,12.5-46.3,24.6-69.7,37-11.9,6.3-23.4,13.2-36.6,18.5-5.2-.7-6.7-4.1-9.7-6.5-2.5-1.9-4.5-4.1-8.7-5.1-5.7.5-10.4,2.6-14.4,5.8,1.2,3.6,5,6,8,8.9,1.2-2.6-.7-5.6,3.7-7.5,7.5,3.8,3,10.1,7,14.9,7.7-1.5,13.2-4.3,15.2-9.8,26.6-14.7,54.2-28.9,81.3-43.1,17.7-9.1,33.8-19.2,50.5-29.1,19.7-11.5,41.5-20.7,62.2-31.3,3.5-1.7,7.2-3.3,10.9-6.2,9.7,5.5,16.4,12.3,22.6,18.8-.5,3.9-3.7,5.5-7,7.2-35.6,19.3-72.4,37.8-108,57.3-20.6,11.1-39.8,23.6-59.7,35.4-7.7,4.6-14.7,9.8-22.6,14,61.7-40.4,131.1-74.3,197.5-110.5.7-.3,1.7-.3,3.2-.2,3,.9,5,2.9,6.7,4.8,5,5.1,11.9,9.2,16.2,15.2-5,6-13.7,8.9-21.1,13-33.8,18.3-67.7,36.5-101.2,54.9-8.5,4.6-15.4,10.4-22.9,15.9-8,6.2-16.7,11.6-24.4,18.1-13.2,11.1-28.6,21.2-42.5,32.2-.7.7-2,.9-5.5,1.2-14.7-9.8-23.6-23.6-37.1-34.9-3.7-5.5,5.5-5.6,8-9.4-2.2-3.8-3.7-8.2-11.9-8.2s-1,.9-.7.9c3.2-.5,5,.7,5.2,2.9-2.7,7.4-17.2,6.7-21.4,13.9,7,2.4,10.4-2.4,16.9-1.9,2,.2,3.2,2.1,5,3.4,12.7,11,22.6,23.3,35.6,34.7-4.2,5.8-11.2,9.9-16.9,14.4-6,4.8-13.4,8.7-20.2,13.2-17.7,11.6-36.6,22.6-49,37.5-1.7,2.2-4,4.4-7.2,6.7-13.4,1.7-27.4,4.8-42.5,4.3-12.4-8.2-25.6-16.1-34.3-26.7-6-7.2-12.4-14.2-22.9-19-8.5-3.8-11.9-10.1-15.7-16.3-5.7-10.3-11.7-20.7-17.7-31,6.7,12.3,13.9,24.6,21.1,36.8,3,5,8.2,8.7,14.2,11.6,7,3.4,12.4,7.7,16.4,12.8,9.5,12.2,23.4,22.1,38.1,31,14.4,3.4,28.9-5.3,43.5-1,5-8.7,13.4-17.5,24.1-25,12.2-8.7,24.6-17.5,38.1-25.3,15.4-9.2,28.4-20.2,41.8-30.8,6.5-5.1,13.7-10.1,20.6-14.7,13.4-8.9,22.1-20.7,37.6-28.1,4.5-2.2,7-6,10.9-8.7,15.9-11.8,35.1-20.9,53.2-30.8,26.9-14.5,53.7-29.4,80.8-43.6,1.7-.9,3.2-1.9,3.7-4.3-6.2-6.7-14.4-13.2-22.1-19.7-25.1-21.6-49.3-43.6-74.6-65.2-3-2.6-5.2-5.5-5.5-8.7-.2-8.7-.2-17.5,0-25.8,4.7-3.8,12.2-4.8,13.7-9.9.7-.9,2-1.4,3.2-1.7,14.4,4.3,29.1,8.7,38.6,18,11.7,11.5,23.9,22.8,34.3,35.1,6.7,8,17.7,14.4,28.4,20.2,15.7,8.7,24.9,20.5,34.1,32.3,2.5,3.3,4.5,6.5,7.7,9.2,8.5,13.5,6.5,27.6,6.7,41.6,0,9.4-2.7,18-11.2,25.8-8,7.4-15.4,14.9-23.6,22.2-2.2,2.1-4,4.4-8.7,4.1-2.7-2.6-.5-5,.7-7.2,3.2-5.6,8-10.6,13.7-15.2,10-8,17.9-16.9,19.7-27.7.5-2.6.7-5.1-1-7.5-3.2-5.1-9-6.3-15.9-3.4-4.2,1.9-8,4.3-10.2,7.4-6,8.4-15.9,14.7-22.9,22.4-14.9,16.8-32.3,32.7-43.5,51.5,6.5,3.1,13.2,2.4,19.9,1.9,4.2-.3,9-1.2,10.2,3.3-6,6.3-16.4,8.7-24.4,13.3-20.2,11.1-42.3,19.7-67.9,24-15.4,2.6-28.1,9.8-42.8,13.5-3.5,0-6.5.9-8.2,3.1-15.9,8.6-34.1,14.7-51.5,21.6-14.4,5.6-27.1,12.7-39.1,20.4-10,6.3-13.4,15.7-20.4,23.4-3,3.4-5.5,7.2-8,10.8-6.7,9.6-15.4,18.7-15.2,29.8,0,1.9-.5,3.8-2.5,5.5-4.2,1-4.2-1.7-5.5-3.1-2-2.2-3-4.6-6-6.5,6.7,6.3,8.2,14.2,12.4,21.4,2.5,15.4,11.9,28.9,21.6,42.4,3,4.1,6.7,7.7,12.2,10.3.5.2,1,.5,1.5.9,18.7,14.7,41,25.7,67.4,32.7,3,.9,6.5,2.1,6.2,5-3.2,5.6-9.7,9.9-15.2,14.4-5,4.1-7.5,8.7-8.5,13.9-8.5,49.5-16.7,98.7-25.9,148.2-1.7,8.9-1,18-6.5,26.4-17.7,2.7-35.6,3.3-53.2,5.5-8.5,1-17.2,1.9-25.9,2.6-23.9,1.9-47.5.5-71.4-.5-13.7-.7-27.4,0-40.3-3.8-3.5-.9-7.5-1-10-3.3-4.5-6.8.2-13.5.7-20.2,0-3.4,1-6.8,1-10.3,0-26.9.2-53.9,0-80.8,0-17.6,4.5-34.9,6.7-52.2,2.2-17.6,5.5-35.1,8.5-52.7,3.5-20.5,6.5-41.1,9.7-61.6.5-3.3,2.7-5.8,7-7.2,16.2-5.3,30.6-13,45.8-18.1-6.5,1.2-11.4,5.8-19.4,6.7-7.7-1.5-10.9-6.3-14.7-10.3-9.2-9.2-19.9-16.8-35.3-21.2-8.7-2.6-17.7-4.3-26.9-4.6-11.7-.3-18.7-4.1-23.4-12-16.2-27.6-31.3-55.3-48-82.7-7.7-12.5-8.5-25.7-11.9-38.7-.5-1.9-1-3.8-1.5-5.6-1.2-5.1.5-9.2,8.2-11.5,9-2.7,16.4-7.5,23.9-8.9-10,1-17.9,9.2-31.3,9.9-5.7-5.8-6.5-12.2-7-18.5-1-16.6,2.2-32.5,12.2-48.1,16.4-25.2,23.9-52.5,37.6-78.4,16.7-31.8,30.3-64.2,41.8-97,2.7-7.7,8.5-14.7,9.5-22.8.5-4.3,0-8-2.2-11.8-2.7-4.8-5.7-9.4-8.2-14.2-6-11-8.5-21.9,0-32.9.5-.5.7-1.2,1.5-1.7,18.2-11,13.4-25.2,11.9-38.8-.5-4.3-1-8.6-1.2-12.8,0-2.6.5-5.1-2.7-7.2-.7-.9-1-1.7,0-2.2,22.9-11.1,34.3-27.6,45-44.5,16.9-26.9,35.1-53.4,52.7-79.9,11.9-17.8,29.9-33.4,44.8-50.1,1-1.2,2.7-1.7,4.2-2.4l.7-.3Z" fill="#f7f5f4"/>
          <path d="M1506.5,1045.1c2.7-16.3,5.5-32.3,8.2-48.6,2.2-12.7,4.5-25.2,6.7-37.8,2.7-15.9,5.5-32,8.2-47.9,2-11.8,6-23.4,6.2-35.3.2-10.3,6.2-17.8,15.4-25,4-3.1,7.5-6.3,11.2-9.4,4.2-2.1,7.7,0,11.2,1,39.1,11,79.1,18.7,121.4,20.2,38.8,1.4,77.4-1.5,116.2-2.6,24.6-.7,49-.3,73.4,1.4,7.2.5,13.4,3.4,20.2,5.1,3.2.9,5.7,2.6,10,2.1,1.7-4.3,1.2-8.7,0-12.8-3.2-3.1-7.7-3.4-11.9-3.8-37.6-3.4-75.4-5.3-112.9-7.7-34.1-2.2-68.2-3.3-102-5.5-22.6-1.5-44.8-5.6-66.4-10.1-39.1-8-77.6-16.9-112.4-32-3-1.2-5.7-2.6-7.7-4.6-13.7-13.2-22.9-27.4-23.1-43.8,1-4.8,2.7-9.6,4-14.4,2.2-9.2,12.2-14.7,21.9-19.9,17.7-9.4,38.6-13.3,60-16.6,7.5-1.2,14.9-3.1,22.9-2.7,5.5,0,9,2.4,12.2,5.1,7,6.3,12.9,13,19.4,19.5,2,2.1,3.7,4.4,6.5,5.5,3.2.7,5.7,0,8-.7,17.4-5.3,34.8-10.4,52-15.7,5.7-1.7,10.2-5,14.2-8.2,19.4-15.9,44-26.5,71.1-35.3,15.4-5,30.8-10.1,45.5-16.1,7.7-3.1,13.9-7,17.7-12.7,4.7-7.4,13.2-11.6,23.9-14,8.5-1.9,17.2-4.1,25.9-5.3,16.4-2.2,22.6-11,26.4-20.2,4-9.4,4.5-19.5.5-29.1-6-14.5-5.5-29.6-7-44.5-2.2-21.2-4.5-42.6-6.2-63.8-2-25.3-18.4-47.1-35.1-68.8-11.7-15.4-24.1-30.5-37.1-45.2-7-7.9-5.5-16.6-7.2-24.8-1.5-8,.2-16.3-1.7-24.3-.5-2.2.5-4.3,2.5-6,4.7-3.3,10.9-3.8,16.9-5,23.1-4.1,46.5-7.4,69.4-11.6,3.7-.7,8.2-.7,10.2-4.1-3.5-1.7-6.7-.3-9.5.3-24.6,4.4-49.5,8-74.1,12.3-4.2.7-8.5,1.9-12.7.5-5.7-5.1-5-11.1-5.5-17.1-1.5-23.8-3-47.7-5.5-71.5,0-1.7-.2-3.4-1.5-5.1-2.5-2.6-7-2.9-11.2-3.8-17.2-3.9-34.6-6.8-50.7-12.2-3-1.9-1.7-3.9,0-5.8,18.2-19.2,31.6-40.2,52-58.5,6.7-6,14.2-11.1,23.9-14.9,16.4-6.3,30.3-14.4,39.8-26.2,8.7-11,20.6-20.7,26.1-33,3.2-7,4-14.2,5.7-21.4,1-4.1.5-8.6,4.2-12.3h24.1v1073.7c0,1.9-1.2,3.8-1.7,5.8-2-1.5-2.7-3.4-2.7-5.3,0-12.7-.5-25.2,0-38-4.2,4.3-10.7,4.6-17.2,4.1-21.4-1.9-42.8-1.2-64.2-1-22.6.3-44.8-.7-66.2-5.5-30.3-6.7-61.4-5-92-2.9-46.5,3.3-92.3,11-138.6,16.1-5.2.5-10.4,1-15.7,1-5.5-.7-11.7.7-15.4-3.3l.2-.2Z" fill="#fcfbfb"/>
          <path d="M.5,27.4V.5h1062.5c.7,4.3-4.7,5.1-8.5,6.7-60.7,25.2-121.6,50-182.1,75.5-92,39-185.6,76.3-277.9,115-45.5,19.2-91.5,38-137.3,56.8-12.9,5.3-18.7,4.6-29.9-1.9-13.7-8-27.1-16.1-41.5-23.6-10-5.1-18.2-12.2-27.6-17.8-5-2.9-10-5.6-14.9-8.7-4.5-2.9-7.7-6-8-10.4,0-4.8-4-7-10.9-6.2-7,1-11.4-1.2-13.9-5.5-2.5-3.9-6.7-6.7-11.9-8.7-21.9-9.1-42.3-19.7-64.2-28.6-19.4-7.9-36.1-18.1-52.5-28.6-2.2-1.4-4.2-3.3-8-4.1-5.2.9-10.9,3.4-17.4,1.9-2.7-.5-5.2-1.4-6.5-3.4-1.5-4.6,5.5-5.6,8-8.4,0-1.2,0-2.1-1-2.6-21.6-13.5-41.8-28.1-63.7-41.4-9-5.5-20.9-7.4-31.6-10.4-17.9-5.1-35.3-11.1-54-15.1-3-.7-5.7-1.7-7.7-3.3l.5-.3Z" fill="#fcfbfb"/>
          <path d="M1113.2.3h307.5c2.7,5.3-1.5,9.4-5.7,13.3-17.2,15.6-31.6,32.2-43.3,50-1,1.5-2,3.1-1.2,5,1.2,2.7,6,3.1,7.7,5.8-.7,5.1-4.7,9.9-8,14.5-12.9,19.2-25.6,38.5-38.1,57.8-5.2,8-12.7,14.7-21.1,20.9-5,3.4-10.7,5.8-17.4,7.2-20.6,4.1-41,8.6-61.9,11.8-15.7,2.6-29.9,7.2-43.8,12.5-8,3.1-13.2,8.4-18.9,13-22.4,17.8-45.5,35.1-77.1,45.3-13.7,4.4-28.4,6-43,8.2-37.1,6-74.4,8.9-112.7,8.4-60.9-.9-121.6-1.5-182.6-1.9-36.6-.2-73.1-.7-109.5-5.5-17.2-2.4-34.6.5-52,1.4-30.8,1.4-61.7,5-92.8,4.6-8.5,0-17.2-.3-24.9-3.3,1.7-4.6,6.7-5.6,10.9-7.4,74.9-31,149.8-61.6,224.4-92.9,108-45.2,216.7-89.5,325.1-134.5,21.6-8.9,43-18,64.7-26.9,5-2.1,9.7-4.4,13.7-7.7v.2Z" fill="#fcfbfb"/>
          <path d="M.5,811.5v-65.4c9-26.4,23.1-51.7,34.1-77.5,1.2-2.7,3.2-5.1,6.2-7,27.6-18.7,53-38.8,81.1-57.2,1.2-.9,2.7-1.7,4.2-2.4,3.5-1.5,9-.7,11.2-3.8.7-2.6-2.7-4.3-2.7-6.7.2-5.5,2.5-10.6,4-15.7,8.5-29.4,16.9-58.7,25.6-88.1,1-3.6,1.5-7.4,6.5-10.4,12.7-.9,25.9,1.2,39.1,1.9,25.1,1.2,50,2.4,75.1,3.3,10.4.3,20.9,1,31.3,2.4,4,4.4-2,6.2-5.2,8-9.5,5.8-19.2,11.5-28.6,17.5-3.7,2.4-6.2,5.1-7.5,8.7-7.2,21.2-16.9,41.9-19.4,63.8-.2,2.4-1.2,4.6.7,7,2.7,2.4,7.2,3.1,11.2,4.1,7.5,1.9,14.9,4.4,22.6,6,15.9,3.3,28.6,8.9,34.1,20.5,1,2.2,3.5,4.3,7,4.8,11.9,1.9,24.1,3.3,35.8,4.1,5.5-3.4,4-8.4,8.5-11.6,5.2-2.6,10.9-1,16.4.3,15.2,3.9,30.3,7.4,45.8,10.8,3.2.7,6.5,1.9,10.7,1.2,6.7-6.2,6.7-14.7,12.9-21.7,9.2-1.9,18.7-1.2,28.4-.7,3.2.2,4.7,1.7,5.5,3.9.2,7.9-4,15.4-6,22.9-2,7.2-4.7,14.4-3.2,21.9-.5,3.1,3.2,3.9,6.2,5,79.9,26.2,157.5,55.1,239.8,77.4,42.5,11.5,84.3,24.6,126.9,36.8,17.4,5,32.3,12,37.3,25.5,2.5,6.5,10,9.9,17.4,13.3,5,16.3,6.7,32.9,10.7,49.3,2,8.4,2.5,16.9,6,25.3,21.4,9.9,43.5,19.2,65.2,28.6,25.1,11,50.3,21.9,75.4,33,21.4,9.4,44.3,16.4,66.9,24,23.9,7.7,47.5,15.9,71.1,23.6,22.6,7.4,46.8,11.1,70.4,16.6,6.7,1.5,13.9-.9,21.1-1,3,0,6.2-.9,8.5,1.4,0,10.6-1.5,21-5.5,31.1-9.2,2.1-17.4-1.7-25.9-2.9-36.8-5.5-71.9-15.4-108.5-21.9-49-8.9-92.8-25.7-137.8-40.9-20.6-7-38.8-17.5-58-26.5-44.3-20.9-88.8-41.8-133.3-62.8-6.2-2.9-10-7.2-14.4-10.8-14.9-12-30.8-23.3-44.8-35.8-8.2-7.2-19.7-11.8-30.3-16.8-13.2-6.3-26.4-12.7-39.1-19.7-14.9-8.2-33.1-11.5-49.8-16.6-19.2-6-38.6-11.5-58.2-16.8-3.2-.9-6.2-1.5-9.7-1.9-32.6-2.6-65.2-3.9-98-5.6-25.9-1.4-52-2.6-77.6-5-27.1-2.6-53.5-.7-79.9,2.1-26.6,2.6-53,5.6-79.4,8.6-4.2.5-8.5,1.2-12.4,2.6-25.9,8.6-51.5,17.8-77.4,26.5-9,3.1-17.9,4.3-27.6,4.8-19.7,1-39.1,4.4-58.7,4.6-25.1.3-50,.7-75.1,1.4-2.5,0-5,0-7-1.4h0Z" fill="#f8f6f5"/>
          <path d="M127.1,602.4c-3.2,2.4-6.2,4.8-9.5,7-25.1,17.8-50.3,35.3-75.1,53.2-4,2.9-6.2,7.2-8.2,11.1-10.9,23.1-21.4,46.2-31.8,69.5-.5,1-1.5,1.9-2.2,2.7v-127c4-2.2,8.5-.5,12.7-.5,8.2-.2,16.7,1,26.1-1.4,3-10.6,1.2-23.8,17.7-25.5-15.2,8-35.8,1.9-56.5-.7v-133.5c2.5-3.3,7.2-4.6,11.4-6.3,30.6-12.5,61.2-25.3,91.5-38,62.9-26.2,125.4-52.9,188.6-78.7,47-19.2,93-39.2,140.6-58,4.5-1.7,8.7-3.4,13.9-2.7,20.9,2.9,41.8,6.8,63.2,5.8,25.9-1.2,51.7-2.9,77.6-4.6,15.9-1,32.1-1.5,48-2.7,2.2,0,4.2,0,6.5.5,17.2,3.6,34.6,3.9,52.2,4.4,3,0,6.2,0,8.7,1.5,1.2,1.2,1.2,2.4-.5,3.4-1.5.9-3,1.5-5,1.7-27.1,2.6-46,14.9-65.9,26-12.4,6.8-21.4,15.6-26.9,26.4-8.5,16.9-16.4,34.1-28.6,50-4.7,6-5,13-3.7,19.9.5,2.6,1,5.1,0,7.7-1.7,12.8-11.9,23.4-18.2,35.3-4.7,9.2-10.4,18.1-16.4,27-2.2,3.6-5.5,6.7-10.9,7.9-3.5,0-4.5-1.5-5.5-3.1-4.2-9.1-6.2-18.7-10.7-27-5.2-1.5-9.2-.3-13.2,0-41.3,5.3-82.1,11.8-123.4,16.4-1,0-1.7.3-2.7.3-19.9-1.7-34.3,5-47.3,14.4-2.2.9-4.5,1.7-7.2.9-48.5-2.2-97.3-4.3-147.8-6.5-10.9,37.5-21.9,75.8-33.1,114.1-.7.3-1.7.7-2.5.5-9.2-1.7-18.2-2.1-24.4,2.7-6,.5-8.2-3.8-13.2-2.4,3,3.6,11.4,6.2,19.9,6.2s8-.3,10.9,2.2l.7-.2Z" fill="#fcfbfb"/>
          <path d="M.5,449.6v-216.8c9.7-4.1,19.4-.5,28.9,0,30.1,2.1,60.2,4.8,90.3,7.2,27.9,2.4,56,4.6,83.8,7,22.4,2.1,44.8,3.8,67.2,5.5,23.9,1.9,47.8,4.8,71.6,7.2,22.4,2.4,44.5,5,66.9,7,4.7.5,9.2,1,13.2,2.7,5,3.8,1.5,6.2-3.2,8.2-12.7,5.5-25.4,10.6-38.3,15.9-60.2,24.6-120.2,49.8-180.1,74.8-63.4,26.5-126.9,52.9-190.6,79.1-3,1.2-6,3.4-10.2,2.2h.5Z" fill="#fcfbfb"/>
          <path d="M.5,225V45.3c2.5-.7,4.5.5,5.5,1.7,4.2,5,10.7,6,18.4,5.6,7.7-.3,14.9.7,21.4,3.6,1,.5,2.2.9,3.2,1.2,33.3,5.6,53.5,23.8,76.9,38.8.7.5,1.5.9,1.7,1.5,4.5,11.5,19.4,16.6,30.6,23.8,11.2,7.4,23.9,13.5,37.1,19.2,34.3,14.5,66.9,30.8,97,49.5,19.2,11.8,38.8,23.3,58.7,34.4,16.7,9.4,32.6,19.7,48.8,29.8,2.5,1.5,5,3.3,5.2,5.8-2.2,2.6-5.7,1.7-9,1.4-21.1-2.2-42.3-4.3-63.4-6.5-23.9-2.6-47.5-5.1-71.6-6.5-20.4-1.2-41-3.8-61.4-5-20.9-1.2-41.3-3.9-61.9-5.1-21.4-1.2-43-2.6-64.2-5.6-5.5-.9-10.4-.5-14.2,0-14.7-2.6-28.4-4.3-42.3-4.4-6.2,0-11.7-.9-16.2-3.6l-.2.2Z" fill="#fcfbfb"/>
          <path d="M1521.7,1046.5c24.6-2.7,49-5.5,73.6-8.2,36.3-4.1,72.4-8.6,109.5-10.4,31.8-1.5,60.7,5,90.8,8.6,4,.5,8,1,11.9,1h74.4c9.2,0,18.4,1,27.9,1.5,2.7-2.4,5-4.6,8.7-7.7v48.6h-613.2c-2.2-1.5-2.5-3.6-2.5-5.6v-6.3c0-.7,0-1.4-1.2-1.5h-1c-.7,0-1.2-.3-1.7-.7,0-.5,0-.9.5-1.2v-2.4c.7-1.2,2.7-1.5,3.7-2.4,1.2-1,.7-2.4.5-3.6v-1.7c.7-1.9,1.2-3.6,3.7-4.8,2.5-.9,4.7-.7,7.2,0,22.6,5.5,46.5,3.4,69.7,5,39.8,2.6,78.1-4.8,116.9-7.7,6.7-.5,13.4,1.7,20.2-.2l.5-.2Z" fill="#96d1f8"/>
          <path d="M1896.1.3c-2,20.9-6.2,41.2-25.6,58.7-5.5,4.8-8.5,11.1-14.4,15.4-10,7-20.4,14.2-32.6,19.3-12.4,5.3-22.4,11.8-29.9,20.2-16.9,19-33.6,38.2-50.3,57.2,0,4.4-4.2,7.5-7.5,10.8-22.4,21.4-35.8,45.2-41.8,71.2-2,8.9-6,17.5-7.5,26.4-5.7,30.1,5.7,57.3,29.1,82.8,12.9,14.2,30.3,25.3,47,37,10.7,7.5,20.9,15.2,31.1,22.9,5.7,4.3,9,9.2,11.4,14.5,7.2,15.7,14.9,31.3,17.7,47.7,1.7,9.9-2,19.5-3.2,29.3-1.2,11.8-6.5,22.9-11.2,34.2-3,7.2-9,12.7-16.9,17.3-28.6,16.1-57.2,32.2-85.8,48.1-7.2,4.1-16.7,5.8-24.9,8.6-21.9,7.5-45.5,12.7-66.4,21.7-.7.3-1.7.3-2.7.3-8.5-3.9-11.9-10.3-16.4-16.3-.7-1.2-.5-2.4,1-3.4,22.1-9.6,47-14.7,71.1-21.2,15.4-4.1,28.9-12,42.8-18.5,7.5-3.4,14.7-7,21.9-10.6,11.4-7.7,19.4-17.3,30.1-25.3,38.6-26.2,53.5-56.6,34.6-92.8-2-2.2-4.5-4.3-6-6.7-9-13.2-18.7-25.7-36.1-34.9-20.2-10.8-32.8-25.8-46.5-40.2-5.7-6-10.4-13-17.9-17.6-10.2-6.3-22.6-10.8-34.3-16.1-7.2-1.7-7.7-6.3-9.5-10.3-3.7-9.1-1.5-18.1.5-27.4,5.2-24,16.7-46.9,26.1-70,10.7-26.4,29.9-49.6,50.5-72.4,20.2-22.2,39.1-45.2,60.7-66.9,9.5-9.4,22.4-15.9,34.1-23.3,5-3.3,10.2-6.2,15.4-9.1,25.6-13.9,32.8-33.5,37.8-54.1.5-2.2,0-4.8,2.2-6.7h22.4-.2Z" fill="#96d1f8"/>
          <path d="M.5,225c3.7.7,7.7,1.4,11.4,2.1v-.9c15.2,1.4,30.3,2.7,43.8,3.9,12.4.9,23.4,1.7,34.3,2.6v.3c15.4,1.2,30.6,2.4,46,3.6h0c15.4,1.2,30.8,2.6,46.5,3.9h0c15.9,1.2,31.6,2.6,47.5,3.9v-.9c57.7,5.6,115.2,11.3,175.6,17.1-10.2-6.3-18.7-11.8-27.1-17.1-9-5.6-17.7-11.6-27.1-17.1-14.2-8.4-28.9-16.4-43.3-24.6-13.7-7.9-27.1-16.1-41.3-23.6-16.4-8.9-33.6-17.5-50.5-25.8-21.6-10.8-43.8-21.4-65.4-32.3-3.7-1.9-6.2-4.6-10.2-7.7-7-.9-10-4.6-13.2-9.9-3.2-5.6-10.7-10.3-17.2-14.7-10.2-7-21.1-13.7-32.1-20.2-4-2.2-9.2-3.3-13.9-4.6-8-2.4-15.7-4.8-23.9-7-3.5-.9-7.2-2.1-10.7-1.7-12.9,1.2-22.9-1.2-29.6-9.1v-18c23.1,6.3,46,13.2,69.4,18.7,27.6,6.3,43.5,22.4,64.7,34.2,5.2,2.9,9.2,7.2,14.2,11.1,4.5,2.2,9.7,5,14.7,7.7-5.2,3.8-8.7,6.5-12.2,9.1-2.7,1.4-.5,1.9,1,2.6,48.3,25.8,100,48.1,151.5,70.7,3.7,1.7,7.5,3.6,12.7,5.6-43.3-19.2-85.3-37.8-126.9-57.3-10.4-5-20.9-9.9-30.1-16.1-1.2-.9-3.2-1.4-2.5-3.1h9.2c2.2-1.2,4.5-2.4,7.2-3.8,7.2,4.3,14.2,8.7,21.6,12.7,13.9,7.7,27.9,15.6,42.5,22.6,20.4,9.6,41.5,18.3,62.2,27.9,5.2,2.4,8.7,6.7,12.9,10.3,1.7,1.4,3.5,2.9,5.2,4.4,4-.7,7.2-1.2,11.4-1.9,2.2,1.2,5.2,2.6,8.2,4.1v9.4c34.6,20.9,67.9,43.3,105.7,61.6,38.1-15.6,74.6-30.5,111-45.5,61.2-25.3,122.6-50.7,183.8-76,40.5-16.8,81.3-33.4,121.9-50.3,65.4-27.2,130.9-54.4,196-81.6,2.5-1,4.5-2.7,6.7-4.1h18.7c2.5,4.4-3.7,5-6.7,6.2-24.1,10.4-49.3,20-73.6,30.3-70.7,29.9-142,58.7-212.9,88.3-64.9,27.2-130.6,53.7-195.5,80.8-46,19.2-92.5,37.6-138.1,57.2-7,3.1-13.7,3.6-20.4,1.7-4,.2-5.5,2.6-8.5,3.4-2.7.9-5.5.3-8.2.3-60.5-6.3-120.9-13.7-181.6-18.1-44.5-3.4-89.1-7.4-133.6-11.1-31.6-2.7-63.2-5.1-94.8-7.9-2.5-.2-5,0-7-1.4v-5.1l.2.3Z" fill="#fcfbfb"/>
          <path d="M1113.2.3c-2.2,2.2-3.7,5.5-7,6.7-72.1,30.1-144.5,60.2-216.9,90.2-36.6,15.1-73.4,29.9-110.2,45.2-57.7,24-115.4,47.9-173.1,72-42,17.5-84.3,34.9-126.4,52.4-1,.3-2,1-4.7,2.4,8.2.9,14.7,2.2,20.9,2.1,25.4-.9,50.5-2.6,75.6-3.4,33.3-1.2,66.9-5.6,100.5.7,10.7,2.1,22.6,1.5,34.1,1.7,53.2.5,106.5.9,159.7,1.4,26.4.3,52.7.3,78.9,1.4,38.3,1.5,74.9-4.3,111.9-9.4,23.6-3.3,44.8-9.8,63.7-19.3,8.5-4.4,15.7-9.9,23.1-15.4,13.4-9.8,24.9-20.9,40.1-28.9,15.2-8.2,34.1-12.3,53.2-15.6,19.9-3.3,39.3-7.4,59-11.5,14.2-2.9,22.6-11.1,28.6-19.2,18.7-26,35.6-52.5,53-78.9-11.4-2.9-12.7-5.1-6.7-12.3,13.2-15.6,26.4-31.1,39.6-46.7,4-5,7.5-10.1,10.9-15.1h9.2c2.5,2.7-.7,4.3-2.2,6.2-10,12.8-23.1,24.1-33.3,36.8-5.5,6.7-10.2,13.5-13.7,17.6,13.4-19.7,34.8-39.4,53.2-60.6h11.2c-11.4,12.7-23.6,25-34.1,38-12.2,15.4-23.4,31.5-34.3,47.4-12.2,18-24.6,35.8-35.6,54.1-7.7,13.3-19.7,24.5-33.3,34.9-2.5,1.9-6.7,2.7-10,3.9-1.5,2.9-5.5,3.3-9,3.9-21.4,4.4-42.8,8.7-64.4,12.7-21.1,3.9-37.1,12.3-51.5,23.8-22.4,18-45.8,35.6-78.6,45.2-19.4,5.6-39.8,7.9-60.2,10.8-25.9,3.6-51.7,7.9-78.1,6.8-41.3-1.9-82.6.2-123.9-1.4-37.3-1.4-74.6.2-111.7-1.4-26.1-1.2-52.7-1.2-78.4-6-10.4-2.1-20.9.3-31.3.9-25.1,1.2-50,2.4-74.9,4.4-26.1,2.2-52,1.4-77.4-2.9-2.5-.7-5.2-1.5-7.2-3.3.2-4.1,5.5-5.6,9.7-7.5,57.7-24.6,116.7-47.9,174.6-72.2,58.5-24.6,117.7-48.4,176.1-73.1,64.9-27.2,130.4-53.7,195.5-80.8,30.8-12.8,61.4-25.7,92.5-38.2h12.9l.2-.5Z" fill="#fcfbfb"/>
          <path d="M1100.3.3c-2.5,1.7-4.7,3.9-7.7,5.1-49,20.4-98,40.6-147,60.9-54.5,22.4-109,44.8-163.2,67.3-65.4,27-130.9,54.4-196.3,81.5-41.5,17.3-83.3,34.4-124.9,51.5-3,1.2-5.7,2.9-9,4.6,2.2,1,3.7,1.7,5.2,2.6-6,3.8-10.4-2.2-15.9-1.2,1.7.5,3.7.7,3,2.4-12.4,4.6-25.4,8.7-37.3,13.7-57.7,23.6-115.2,47.6-172.6,71.4-43.3,18.1-86.6,36.5-129.9,54.6-34.3,14.4-69.2,28.4-103.7,42.6v-7.7c33.6-13.9,67.4-27.7,101-41.8,37.1-15.4,74.1-30.8,111.2-46.2,53.7-22.2,107.5-44.7,161.2-66.9,15.4-6.3,30.8-12.7,46-19.2,2-.9,2.7-2.9,4-4.4.5-2.1-4.7-1.5-3.7-3.9,3.7-1.2,7.7-2.4,13.7-4.3,14.2,7.2,24.6-3.6,36.1-8.2,71.1-28.7,141.8-58.2,212.7-87.6,67.4-27.9,134.3-56.1,201.8-84,61.4-25.5,123.4-50.7,184.8-76.2,4.5-1.9,8.5-4.6,12.7-6.8h18.7l-.7.3Z" fill="#f8f6f5"/>
          <path d="M.5,811.5c22.4-.3,44.5-.3,66.9-1.4,21.4-1,42.8-2.9,63.9-4.4,3.5-.2,7,0,10.2-.7,8.7-1.2,17.9-1.9,25.9-4.3,18.7-5.8,37.3-11.8,55-19,21.4-8.7,44.8-11.6,68.9-14,28.6-2.7,57.2-6.3,86.1-8.6,12.9-1,26.6.5,39.8,1.2,16.9,1,33.8,2.4,50.5,3.4,27.4,1.7,54.7,3.4,82.1,5,13.7.9,28.1,0,41,2.2,17.9,3.1,34.8,8.4,52.2,13.2,16.2,4.4,32.6,8.4,47.8,14,17.2,6.5,33.1,14.7,49.5,22.2,9,4.1,18.4,8,26.1,13.2,14.9,9.9,29.1,20.2,42.8,31,15.4,12,30.1,24.6,50,33.7,55.2,25.5,109.2,52.4,165.4,76.8,28.1,12.3,58.7,22.6,89.8,30.6,48.3,12.5,98,22.6,147.3,33.2,13.2,2.9,26.9,4.6,40.3,7,4,2.9,4.5,5.8.7,8.9-1,.5-1.7.3-2.5-.3-1.5-2.4-3-4.6-3.7-6-35.3-7.2-69.4-14.2-103.5-21.2-23.9-5-48.3-9.8-71.6-15.6-14.7-3.6-28.1-9.2-42.3-13.9-16.7-5.5-33.6-10.3-49.5-16.4-11.7-4.4-22.1-10.3-33.3-15.6-19.9-9.2-40.1-18.5-60-27.9-18.9-8.9-37.3-18-56-26.9-13.4-6.5-27.1-12.5-40.1-19.3-6.7-3.6-11.9-8.2-17.7-12.7-15.9-12.3-30.6-25.5-47.8-37-12.7-8.4-29.1-14.2-42.3-22.2-29.1-17.6-65.2-25.5-99.8-35.6-15.4-4.4-31.6-8.4-47.8-10.8-12.2-1.9-25.4-1.2-38.1-1.7-18.4-.9-37.1-1.7-55.5-2.9-16.4-1-32.6-2.6-49-3.8-5.5-.3-10.9,0-16.7-.3-10.9-.9-22.1-1.7-33.1-2.6-4.7-.3-9.7-.9-14.4-.5-31.8,3.3-63.4,8-95.3,9.6-32.3,1.5-57.5,14-85.3,22.4-13.4,4.1-26.4,9.4-39.8,13.3-6.5,1.9-13.9,2.2-20.9,2.6-22.9,1.4-46,2.6-69.2,3.4-20.2.7-40.3.5-60.2.9-2,0-4,.7-6.2,1v-3.8l-1,.3Z" fill="#f1f0f0"/>
          <path d="M1873.7.3c2.7,14.2-7,26.2-12.9,39-7.2,14.9-25.1,22.4-41,31.7-3.5-3.6,2.5-6.8.5-11.3-6.2-3.9-14.7-6.3-22.9-9.4-6.5-2.6-12.9-5.1-19.4-7.5s-7-2.2-7.2-5.3c3.5-3.1,8.2-5.6,10.9-9.8,20.2,5.8,38.3,12.7,57.7,19.9-18.9-7.7-38.1-13.3-57.2-20.7,7.7-8.4,5.5-19,15.2-26.5h76.4Z" fill="#fcfbfb"/>
          <path d="M1765.8,36.3c-26.1-10.3-52-20.5-78.1-30.8-4-1.5-7.7-3.4-11.4-5.1h117.4c0,8-4,15.2-8.5,22.4-1.7,3.1-4,6.3-6.7,9.1-3,2.9-6.2,6-12.7,4.4h0Z" fill="#fcfbfb"/>
          <path d="M.5,590.7c15.2.9,30.6,1.7,45.8,2.6,6.2-2.7,12.4-5.3,18.7-7.9.7.3,1.5.7,2.2,1-2.7,3.1-5.5,6-7.7,8.7-4,.3-6.7.7-11.4,1.2-1.7,6.3-3.7,13-6.5,21.9-11.7,4.3-26.6,1.5-41,.7v-28.2h0Z" fill="#96d1f8"/>
          <path d="M419.9,267.3c2,.9,4.2,1.7,7,2.7-1.5.5-2.5.7-3.2,1-16.7-2.1-33.1-4.4-50-6.3-25.9-2.9-51.7-5.6-77.6-8.2-22.9-2.2-45.8-4.1-68.7-6-29.6-2.6-59.2-5-89.1-7.5-22.4-1.9-44.8-3.6-66.9-5.3-19.2-1.5-38.6-3.3-57.7-4.8-4.2-.3-8.7-.2-12.9-.3v-2.6c18.2,1.4,36.3,2.6,54.2,4.1,23.9,1.9,47.8,4.1,71.6,6.2,29.4,2.6,58.7,5,88.1,7.4,22.4,1.9,44.8,3.4,67.2,5.5,23.1,2.2,46.3,4.8,69.7,7.2,22.9,2.4,45.8,4.6,68.7,7h-.2Z" fill="#e0dad6"/>
          <path d="M1765.8,36.3c14.4-2.1,15.7-11.3,20.4-18.1,3.7-5.5,5-11.8,7.5-17.8h3.7c-3.7,8.7-7.7,17.3-11.7,26.5,18.2,6.5,37.1,13.3,56.2,20.2-.2.5-.7,1-1,1.5-19.2-6.5-38.1-13-56-19.2-5,3.1-9.2,5.6-13.2,8.2-1,1.9-3,3.3-5.5,4.3-14.7,6.2-30.8,9.4-48.3,9.1-.7-.5-1-1.2-.2-1.9,9.7-1.7,19.7-2.9,29.1-5.3,7-1.7,12.9-5,19.4-7.5h-.5Z" fill="#ded8d4"/>
          <path d="M1433.9.3c-6,7.4-11.9,14.7-18.2,22.1-11.4,13.5-23.1,27-34.8,40.7-1.5,1.7-2.7,3.4-4.2,5.1-.7-.3-1.7-.7-2.5-1,6.2-7.9,11.9-16.1,18.7-23.8,10.4-11.8,21.4-23.4,32.1-35.1,2.2-2.6,3.5-5.3,5.5-8h3.7-.2Z" fill="#ddd7d3"/>
          <path d="M1305.3,1073.3v6.3h-7.5c.7-1.5-1-3.6,1.2-5,.5-.3,1.2-.9,2-1.2s1.5-.5,2.2-.9c.7,0,1.5,0,2.2.5l-.2.2Z" fill="#c8dae6"/>
          <path d="M1301.6,1074.7c-.2.9-.7,1.7-1,2.6.7.2,1.2.3,2,.5-1.5.7-3.2,1.4-4.7,2.1h-1.7l-1.2-5.1c.7-.5,1.7-.9,2.7-1,1.7,0,3.2,0,4.2,1h-.2Z" fill="#6c6c6c"/>
          <path d="M1301.6,1074.7c-1.2,0-2.2,0-3.5-.2-1.5-.5-3.2-.3-4.2-1.5v-1.9h0c0-2.4.5-4.6.5-7,2.2,0,3.5,1,4,2.2-.2.3-.5.7,0,1,1.2-.3,2.5-1,3.2-1.9h0c1-.7,2.2-.7,3.5-.2v8h-1.5c-.7.5-1.5.9-2.2,1.4h.2Z" fill="#c3c7cb"/>
          <path d="M1297.6,1066.8c-1-1-2.2-1.9-3.2-2.9,0-.5.5-1,.7-1.7,1.7.7,3.2,1.4,4.5,2.1v1.2c.5,1.2,0,1.7-2,1.2v.2Z" fill="#878788"/>
          <path d="M1299.8,1055h1.7c1.5-.5,2.7-.3,3.7.7v1c-.2.2-.5.3-.7.7-2,.7-3.7.7-5.7,0-.2-.2-.5-.3-.7-.5.7-.5,1.2-1.2,2-1.7l-.2-.2Z" fill="#434343"/>
          <path d="M1305.3,1060.5c-1.7.5-3.7,1-5.5,1.5-.5-.5-1.2-1-1.7-1.5.2-.2.5-.3.7-.5,2-.7,3.7-.7,5.7,0,.2.2.5.3.7.7v-.2Z" fill="#434343"/>
          <path d="M1297.8,1060.5v-3.8h0c1.5,1.4,1.5,2.6,0,3.9h0v-.2Z" fill="#444"/>
          <path d="M1293.8,1073c1.5.5,2.7,1,4.2,1.5-1.2,0-2.2,0-3.5.2-.2-.5-.5-1.2-.7-1.7h0Z" fill="#898b8c"/>
          <path d="M1444.9,802.6c2.2,21,4.2,40.9,6.2,62.1,1.5.7,4.5,1.9,7,2.9-11.9,19.3,1,38.3-2.7,57.3-16.2,1.7-31.8,3.6-48.5,5.3v63.5h-79.4c0-3.9-.2-8.9,0-13.5,1-10.8,2.7-21.6,3.5-32.3,1-12.8,1.2-25.5,2-38.3,1.7-27,3.7-53.9,5.7-80.9.5-6.7,1.7-13.5,2.7-20.7,34.1-1.7,67.9-3.6,103.2-5.5l.2.2Z" fill="#f5f3f3"/>
          <path d="M1480.4,747.3c1,16.4,9.2,31.3,24.1,43.6,6.2,5.1,17.2,8,26.4,11.3,41.8,15.2,86.6,24.5,132.6,30.8,20.4,2.7,41.3,3.8,62.2,5.3,26.1,1.9,52,3.4,78.1,5,15.7,1,31.3,1.7,47,2.7,18.9,1.2,38.1,2.6,57,4.1,3.5.3,7,1.7,10.7,2.7v19.7c-6.2-2.1-11.7-3.6-17.2-5.6-13.9-5.5-29.4-5-44-5.1-27.1-.5-54.5.3-81.6,1-17.4.5-35.1,2.4-52.5,2.4-42.3-.3-84.1-4.1-124.1-14.4-11.9-3.1-23.9-6.3-36.1-9.6-11.2-3.6-22.4-7-33.1-11.1-6.5-2.4-12.7-5.3-18.2-8.6-9.7-5.8-19.4-11.8-28.4-18.3-4.2-2.9-7.5-6.7-10.2-10.4-9.5-13.2-19.9-26.4-20.2-41.6-.2-3.9-4.5-7.7,0-11.6,1.2-10.1,3-20,10.9-29.1,9.5-11.1,16.7-23.3,26.4-34.2,10.9-12.5,28.4-20.2,46-27.6,17.7-7.4,35.3-14.5,53-21.9,1.7-.5,3.2,0,4,.7,5,5.8,11.9,11.1,13.4,18.3-8,6.5-19.2,10.3-29.4,14-28.6,10.8-48.3,27.6-65.9,45.5-3,2.9-5.7,6.2-8.7,9.1-10.7,6.5-19.2,13.9-21.6,23.8-.7,3.1-2.5,6.2,0,9.2l-.7-.2Z" fill="#96d1f8"/>
          <path d="M1586.6,325l-11.2-7.7c-4.2.3-6-1-5.5-3.8-3-2.9-6-5.8-9.5-9.2-5.7,2.9-10.7,5.3-16.7,8.2-12.2-10.3-23.1-20.7-35.8-29.9-11.4-8.4-16.4-18.1-20.2-28.9-1.2-3.9-5-7.5-8.5-12.5,10.2-7,20.6-14.2,31.1-21.2,1-2.9,4.7-4.3,7.5-6.3,7.5-5.5,15.9-10.4,22.4-16.6,2-1.9,4.2-4.8,9.5-4.1,3.2-.9,7.2-1,10-2.6,7.2-3.9,13.9-8.2,21.9-13,12.4,8.6,29.4,13.9,35.3,27.9,3,.5,7.2,1,11.2,1.7,6.2-.5,8,4.3,12.9,5.1,4.2,5,8.5,9.8,13.9,16.1-6,15.1-12.7,31.8-19.4,48.6-2.2,5.3-4.5,10.6-6.2,15.9-.5,1.7.2,3.6.5,5.3,1,1.4,0,2.6-1.2,3.4-12.9,7.2-24.4,15.7-37.1,23.1-1.2.7-2.7,1-4.2.5h-.7Z" fill="#f0eff5"/>
          <path d="M1717.3,50.5c18.9-2.4,38.1-4.4,54-12.8,13.4,5.5,26.9,11,40.3,16.4,4.2,1.7,8.5,3.4,12.9,5.3-1.7,4.1-3.2,7.9-4.7,11.8-3.7,2.2-7.2,4.6-10.9,6.7-24.1,13.2-37.3,32-53,49.5-21.1,23.4-41.8,47.2-61.7,71.2-6.5,7.9-10.2,16.8-13.9,25.5-10.2,23.8-20.4,47.6-28.9,71.7-3.5,10.1-3.2,20.9-2.7,31.3,0,4.4,4.7,8.9,7.2,13.5-.7.5-1.2.9-2,1.4-4.2.9-8.2,2.1-12.4,1.4-3.2-1.7-2.2-3.9-2.2-6,0-12-3-23.8-5-35.6-1.2-7.5,3.7-14.2,6.5-21,13.7-34.7,30.6-69,47-103,5-10.4,3.2-21,5.2-31.7,1.5-7.7,2-15.9,1.5-23.6-1.2-18.3,7.5-35.3,12.7-52.7,1.5-4.6,3.2-9.1,4.7-13.7.7-2.4,1.7-4.6,5.5-5.5h0Z" fill="#f7f5f4"/>
          <path d="M1717.3,50.5c-5,12.7-9.7,25.5-14.9,38-4.5,10.8-5.2,21.7-6,32.9-1.2,18.8-1.7,37.8-7.7,56.1-6.7,20.9-18.9,40.9-28.1,61.4-8.2,17.8-16.7,35.8-22.6,53.9-2.7,8.6.2,18,1,27,.5,7.2,1.7,14.4,2.5,21.4,4,0,8,.2,12.2.3,0,1.7-.5,3.3-.5,5-4.2,1.7-8,3.1-12.4,5,0,8.6-1.5,17.5.5,25.8,1.5,5.5,7.7,10.4,12.9,15.1,28.1,24.8,56.7,49.5,85.1,74.3,1.7,1.5,2.7,3.3,5,5.8-8,4.4-15.7,9.1-23.6,13.3-33.6,18.1-67.2,36.1-100.8,54.4-6.7,3.8-12.7,8.2-18.4,12.7-33.6,25.2-67.2,50.7-101,75.6-11.2,8.2-24.4,15.2-35.6,23.4-10.2,7.7-19.4,16.1-28.4,24.5-2.7,2.6-3.2,6.3-5,9.4-.7,1.2-2,2.2-4.2,4.8v-8.6c-13.9,1.4-27.1,2.9-42.3,4.4-11.7-10.1-23.1-20-34.8-29.8-6.5-5.3-13.2-10.4-19.7-15.9-5.5-4.8-11.9-9.4-15.4-14.9-8.5-12.8-15.4-26.2-23.1-39.4,1-.3,2.2-.7,3.2-.9,4.7,8,9.5,16.3,14.4,24.1,5.7,9.1,7.5,19.9,19.9,26.4,11.9,6.3,19.2,14.7,27.6,22.9,9,8.6,19.7,16.3,30.1,24.6,14.9-1.7,28.4-3.1,42.8-4.8,21.1-28.9,62.9-44.8,90.8-70.3-11.4-11.5-23.4-23.1-35.1-34.7-1.2-1.5-1.2-2.6,1.7-2.6,11.9,11.5,23.9,23.1,36.6,35.1,9-6.5,17.7-12.2,25.4-18.5,32.1-26,65.7-50.8,106-71,27.6-13.7,53.7-28.7,80.4-43.3,1.2-.7,2-1.5,3.2-2.6-7.5-6.5-14.7-12.7-21.9-19-35.6,18.5-71.4,36.3-105.7,55.4-33.8,18.8-65.9,38.8-99.8,57.5,62.2-42.4,133.1-77.7,202.5-115.3-7.5-6.7-14.4-12.8-21.1-18.8-16.7,8.2-33.1,15.9-49,24.5-18.2,9.6-35.1,20.2-53.2,29.8-32.8,17.6-66.2,35.1-99.3,52.5-1.2.7-2.7,1-4.2,1.5-1.7.3-2.2,0-1.7-1.2,18.4-9.9,37.1-19.7,55.5-29.8,26.6-14.7,52.5-29.8,79.1-44.2,21.6-11.6,44.3-22.4,67.2-33.9-2.7-9.9-15.9-15.9-22.9-24.3h0c-7.7-6.3-15.2-12.8-23.1-19.5-84.6,46.9-168.7,93.4-252.5,140-.7-.7-1.7-1.4-2.5-2.1,84.3-46.9,168.7-93.6,250.3-139v-34.4c-26.4,13.5-50.3,26.4-75.4,38-.7-.9-1.7-1.7-2.5-2.6,9-4.3,17.9-8.6,26.9-13,13.9-7,28.1-14,42-21,6-3.1,9.7-7,9-12.7-1.5-12.2-2.7-24.5-4.2-36.6-1-.3-2-.9-3-1.2-26.4,16.9-52.7,34.1-79.4,51-.7-.7-1.7-1.2-2.5-1.9,12.9-8.6,25.6-17.3,38.6-25.8,14.2-9.1,28.6-18,42.8-27,5.2-11.5,10.7-23.1,15.9-34.6,8.7-18.7,17.2-37.3,25.9-56,5.5-11.8,12.2-23.4,16.2-35.4,3.2-10.1,2.7-20.7,4-31.1-2.2-1.4-4.5-2.7-7.7-4.8,3-.5,4.7-.7,8-1.2-2.2-28.1,9.5-55.1,19.2-82-53.5-4.6-101,8.6-148.8,21.4,48.5-18.1,100-27,155.2-25.2v1.4l.7-.2Z" fill="#d2d6df"/>
          <path d="M1305.3,1055.5l-3.7-.7v-8.6c1.7-10.6,3.7-21.4,5.5-32-.7-.7-1.2-1.4-1.7-2.2-1.5-8.9-.5-18-.7-26.9v-60.2c0-16.3,4.5-32.2,6.7-48.3,1.5-10.1,2.7-20.4,5.2-30.5,2.7-13.7,4.7-27.4,6.7-41.2.5-3.4,1-6.7,2-10.1-.5-8,2.5-16.1,2.5-24-3-1.5-5,0-7,.7-10.7,4.3-22.1,7.9-32.3,12.7-9.5,4.4-19.4,6.5-30.6,5.6-21.9-1.7-43.8-1.2-65.7-3.1-3.7-1-7.7-.5-11.7-1-3.2-.3-7.5-.7-4.2-4.3,5-2.4,10.7-1.7,16.2-1.4,25.4,1.5,50.7,1.9,76.1,2.7,3,0,5.5-.5,8-1.4,25.6-9.6,50.5-20,76.6-29.1,1.5-.5,2.5-1.2,3.5-2.9-13.7-18.7-34.1-31.7-66.2-34.1-3.7-.3-7.5-.5-10.9-1-7.2-1.2-11.7-3.9-14.4-8.9-18.4-31.1-36.1-62.3-54.5-93.4-4.5-14.2-7.2-28.6-10-43-2.2-11.6-6.7-22.9-5.5-34.9,1.2-11.8,2.7-23.3,10.2-34.2,9.2-13.5,15.4-27.9,20.9-42.4,5.7-15.1,13.4-29.8,20.9-44.5,15.7-30.3,25.9-61.6,40.3-91.9,8.7-18.3,10-34.6-3-51.5-7-9.2-5-19-1-28.7,1.7-2.6,3.7-5.1,6.7-6.8,9.7-6,10.9-13.5,10-21.6-1.2-8.6-3-16.9-2-25.5,0-1,.2-2.1,0-3.3-25.4,5.1-51,10.1-76.4,15.1-15.9,3.1-29.4,9.4-40.1,18.7-14.4,12.5-31.8,23.3-48.5,34.2-11.4,7.5-26.9,11.1-40.3,16.8-2.7.9-5.2,2.4-8.5,2.7-29.1,4.3-58.2,9.2-87.6,12-16.4,1.5-33.1,3.6-49.8,1.2-5.5-.7-11.2-.3-16.7-.2-47.3.7-94.3-.3-141.3-1.5-24.9-.7-49.8-.5-74.4-.9-3.5-.3-7.2,0-10-2.1-11.4-.9-23.1-1.7-34.6-2.6-5.2-.3-10.7-.3-15.4-1.4-15.2-3.6-30.3-1.2-45.8-.3-16.7,1-33.1,2.1-49.8,3.1-14.9.9-30.1,2.9-45,2.2-22.9-1-45.8-3.9-68.4-6.2-3.2-.7-6.2-1.4-11.9-2.6,5.5-.9,9-1.4,10.7-1.7,6,1.2,10.2,2.1,14.4,2.9,26.1,4.3,52,6,78.9,2.9,16.9-1.9,34.3-2.1,51.7-2.9,11.9-.7,23.9-1.7,35.8-2.2,7-.3,14.2.2,21.1.7,18.4,1.4,36.8,3.6,55.2,3.9,38.1,1,76.1,1,114.4,1.5,40.1.5,80.1-.5,119.9,1.7,51.5,2.7,100.3-5,148.5-14.4,18.4-3.6,35.8-11.8,50.5-20.5,18.7-11,33.3-25.3,51.5-36.8,10-6.2,23.6-10.3,36.3-13.3,25.1-6,51-10.4,76.4-15.6,2,1.4,5.2,2.7,5.5,4.3,1.7,10.8,3.5,21.6,3.5,32.3s-1.7,13.3-7.2,17.3c-17.4,12.8-15.7,26.4-7.5,40.7,1.7,3.3,3.5,6.5,5.7,9.4,6.2,8,5.2,16.3,1.7,24.6-7,16.8-13.7,33.7-21.1,50.3-14.7,32.2-29.6,64.2-44.8,96.2-8.7,18.7-18.9,37-27.4,55.6-7.7,17.1-8,34.7-1,52.7,14.9-1.9,25.1-13.2,41.5-9.9-13.2,4.3-26.4,8.7-41.3,13.5,1.7,8.9,4,17.5,5.2,26,4.2,24.8,22.6,46.2,34.6,69.3,7.5,14.2,16.4,28.1,24.1,42.3,3.5,6.3,10.4,7.4,18.4,7.7,27.6,1.2,48.8,9.9,64.2,25.5,3.7,3.8,8,7.5,12.2,11.6,10.4-3.8,20.2-7.2,29.9-10.6.5.5.7,1,1.2,1.7-9.2,3.9-18.4,8-27.9,11.8-8.7,3.6-17.9,6.7-26.4,10.6-3,1.4-5.7,4.1-6,6.5-3,17.8-5,35.4-8,53.2-2.7,17.1-6.5,34.1-9,51.2-3.7,27.9-9.5,55.8-8,84,1,19,.7,38,0,57.2-.2,10.4-2.2,20.7-3.7,31.1,0,1.7,2,3.6,0,5.3-.7,1.7-1.2,3.4-2,5.1l-.7.5Z" fill="#d1d6df"/>
          <path d="M1762,548.5c-8,9.6-15.4,19.5-30.1,25.3-2.5-.5-5.2-1.4-7.7-1.5-8-.3-15.9-.5-26.1-.7,6-8.4,9.7-15.2,15.2-21,17.9-19.5,36.6-38.7,55.2-57.8,5-5.1,11.4-9.1,21.1-8.7,13.9,5.6,11.2,14.4,6.7,22.1s-12.2,14.5-18.2,22.1c-5.5,6.8-10.7,13.7-15.9,20.7l-.2-.3Z" fill="#eaf2e0"/>
          <path d="M1313.3,495.2c5.5,5.1,9.7,9.2,14.9,14,5.2-1.5,10.4-2.2,14.7-4.3,14.7-7.2,31.6-2.4,32.8,9.9,0,1.2,1.2,2.2,2.2,3.6-12.7,8.4-24.6,17.6-38.6,24.8-21.6,11.3-47,6.7-55.5-12.3,4.2-4.4,10-10.3,15.4-16.3,3.5-3.8,6.2-7.7,9.2-11.6,1.5-2.2,2.7-4.4,4.7-7.7v-.2Z" fill="#cdebb2"/>
          <path d="M1424,208.6c13.4,9.6,31.8,18.5,37.1,34.1-8.5,5.8-16.9,12.2-25.6,18-5.5,3.8-11.4,7-17.9,11-14.4-10.4-28.6-20.5-42.5-30.6,16.4-10.8,32.6-21.4,49-32.3Z" fill="#f0eff5"/>
          <path d="M1502.8,380.6c-9.2,6.5-18.2,13-27.9,19.2-13.2,8.4-27.1,16.1-40.5,24.5-21.4,13.2-42.8,26.5-63.7,40.2-6.5,4.1-11.7,9.2-17.9,14.5,6.7,6.2,12.9,11.8,20.2,18.3,55.5-27.9,102-62.1,152.5-93.3-46.5,34.1-94.8,66.7-149.3,95.5,4.2,5.5,8.5,10.8,13.2,16.6-10.9-3.8-54.5-51.7-60-66.2,4-3.6,8.5-8.6,14.2-12.5,25.6-17.6,51.7-35.1,77.9-52.5,1.7-1,3.5-1.9,5.5-2.9.5.3,1.2.9,1.7,1.2-2,1.5-4,3.3-6.2,4.8-26.4,17.8-52.7,35.6-79.1,53.4-9.5,6.3-10.2,12.3-3.5,20,4,4.8,7.7,9.8,10.4,13.3,50-31.7,100.5-63.5,150.8-95.3.7.5,1.5,1,2.2,1.5l-.5-.3Z" fill="#d1d5df"/>
          <path d="M1432.2,308.4c-7.7-7.2-15.2-14.4-22.9-21.4-6-5.5-12.2-10.6-18.4-15.9-1.7-.5-3-1.4-3.7-2.6-13.7-11.1-27.4-22.2-43-34.9.7-1.7,1.7-5.5,4-8.7,12.4-17.6,25.6-35.1,37.8-52.7,11.2-15.9,21.6-32.2,32.3-48.3,4.2-6.3,9.5-12.7,12.9-19.2,6-11.1,18.2-18.8,30.1-26.5,10.4-6.7,21.1-13,31.8-19.5,1.2-.7,2.7-1,5.7-.5-2.2,1.5-4.2,3.3-6.5,4.8-13.4,8.6-27.9,16.4-40.1,25.7-7.7,5.8-13.9,13-18.9,20.2-18.2,26-35.3,52.2-53.5,78.2-9.7,14-20.4,27.7-30.6,41.6-1.2,1.5-1.2,3.6.5,4.6,22.4,18.7,44.5,37.3,66.9,55.8,3.5.9,4.5,3.1,5.7,5.1,10.2,11.3,24.6,20.4,40.1,27.7,10.4,5,23.4,7.5,36.3,11.5,10.9-6.8,21.9-13.7,32.8-20.5.7.7,1.7,1.4,2.5,1.9-11.4,7.4-22.6,14.7-32.8,21.2-27.6-4.4-48-14.9-67.7-26.4-.7-.2-1.5-.7-1.7-1.2h.2Z" fill="#d2d6df"/>
          <path d="M1445.8,135.2c30.3-19,59.5-37.1,88.6-55.3-.5-.9-1-1.7-1.5-2.6,1.5,1.5,3,3.1,6,6-26.1,19.7-52.7,39.9-80.1,60.4-3.2-2.2-6.5-4.4-12.7-8.7l-.2.2Z" fill="#ebe4e0"/>
          <path d="M1307.3,1050.4v-5.3c13.9,1.7,27.6,3.6,41.5,5.1,10.7,1,21.4,2.2,32.1,2.1,21.4-.3,42.8-1.2,63.9-2.7,18.4-1.2,36.3-3.8,54.7-5.5,2.2-.2,4.7.7,7.2,1,5,.5,10,.9,15.2,1.4-10,1-19.7,2.1-29.6,3.1-23.4,2.2-46.8,4.8-70.2,6.5-9.7.7-19.4.2-29.1,0-21.4-.5-43-1-64.4-2.2-7.2-.3-14.2-2.2-21.1-3.4h-.2Z" fill="#f5f3f3"/>
          <path d="M1665,405.9c-6,3.9-11.4,8-17.7,11.5-19.7,11-39.8,21.6-59.7,32.3-39.3,21-78.4,41.9-117.7,63-2.5,1.4-5.2,2.4-8,3.6-.5-.5-1.2-1-1.7-1.5,6.7-3.8,13.2-7.5,19.9-11.3,31.3-16.9,62.7-33.9,94-50.8,27.4-14.5,54.7-29.1,82.1-43.5,2.7-1.4,6-2.2,9-3.3h-.2Z" fill="#d2d6df"/>
          <path d="M1486.1,538.2c.5.3,1.2.9,1.7,1.2.7,5.3-4.7,9.2-18.7,12.7-1.2-5.6-2.5-11.1-3.7-16.4h-1.5c0,3.1-.5,6-.7,10.8-5.5-5.3-10-9.4-14.7-14.2,6.7-2.9,12.7-5.5,19.9-8.6,6,5,11.9,9.8,17.9,14.5h-.2Z" fill="#def0cb"/>
          <path d="M1438.9,567.6c-7.5-7.7-14.2-14.7-22.4-23.1,18.2,2.2,34.1,4.3,50,6.3,0,.9.2,1.5.5,2.4-9,4.6-18.2,9.1-28.4,14.4h.2Z" fill="#dcf1c8"/>
          <path d="M1387.4,268.5l3.7,2.6c-13.9,9.9-27.6,19.9-42,30.1-2.2-1.9-4.7-3.9-7-6-.7-.5-1.5-1.2-2.2-1.7,14.7-8,29.4-16.1,44-24.1-1.2-.9-2.5-1.9-3.7-2.7,2.5.5,5,1.2,7.5,1.7l-.2.2Z" fill="#ecebeb"/>
          <path d="M1416.2,630.6c-3.2-2.9-5.5-5-8-7.4,15.2-7.7,30.1-15.4,46-23.4,2.5,1.9,5,3.9,8.5,6.7-15.7,8-30.6,15.9-46.3,24.1h-.2Z" fill="#ebe4e0"/>
          <path d="M1239.6,500.2c-8.5,7.7-24.1,12.7-22.6,25.7-5.2-1-8.5-1.5-11.7-2.2,2.2-12.7,6.7-24,22.4-32.9,3.7,2.9,7.5,6,11.9,9.4h0Z" fill="#e5e5e5"/>
          <path d="M1549.3,192.9c-10.2,7.4-20.6,14.5-30.8,21.9-2.5,1.9-5.5,3.4-8.2,5.1,1-1.9,1.5-4.1,3.5-5.5,15.2-11.3,30.8-22.2,46.3-33.5,1-3.9,2-7.9,3.5-13.2,11.9-5.1,26.1-9.9,37.3-16.9,10.7-6.7,17.9-15.6,26.6-23.6,1,.5,2,1,3,1.5-8.7,8.2-16.2,17.3-26.6,24.1-10.7,6.8-24.6,11.1-37.6,16.9,3,10.8-8.2,16.4-16.7,23.1h-.2Z" fill="#d2d7e0"/>
          <path d="M1524.5,127c-3.7-2.4-7-4.3-10.2-6.3,12.7-10.1,24.9-20,38.3-30.8,2.2,2.2,4.5,4.1,7.2,6.7-11.2,9.8-22.9,19.7-35.3,30.3v.2Z" fill="#ebe4e0"/>
          <path d="M1619,116.2c-3.5-2.1-6.2-3.4-9-5.1,14.4-10.8,28.6-21.2,43.5-32.5,2.7,1.9,5.2,3.6,8.2,5.6-14.7,11-28.4,21.2-42.8,32h0Z" fill="#ebe4e0"/>
          <path d="M1425.2,565.2c2,2.1,3.7,3.8,6.2,6.3-15.7,7.5-30.6,14.9-46.8,22.6-2.7-2.6-5-4.4-7.5-6.8,16.2-7.5,31.6-14.5,48-22.2v.2Z" fill="#ebe4e0"/>
          <path d="M1424.7,352c10.4-6.3,20.2-12.3,30.8-18.7,3.7,2.4,7,4.6,10.9,7.2-10.4,6.5-19.9,12.7-30.6,19.5-3.5-2.6-7-5-10.9-8h-.2Z" fill="#ebe4e0"/>
          <path d="M1446.1,591.1c-16.4,7-31.6,13.3-47,19.9-2-2.1-3.7-3.8-6.5-6.5,15.7-6.7,31.1-13.3,47.8-20.4,1.7,2.2,3.5,4.3,6,7h-.2Z" fill="#ebe4e0"/>
          <path d="M1422.7,294.2c-2-1.7-3.7-3.4-5.7-5.1.7-2.7,1.5-5.3,2.2-8-.7-.2-1.5-.3-2-.5,7-3.8,13.9-7.7,21.6-12,4,3.4,7.7,6.5,12.7,10.6-10,5.1-19.4,9.9-28.9,14.9v.2Z" fill="#ebe4e0"/>
          <path d="M1359.8,569.3c16.7-7.5,32.1-14.4,48.3-21.6,1.5,1.9,3,3.8,5.2,6.7-15.9,7.2-31.6,14.2-48,21.6-2-2.6-3.7-4.6-5.5-6.7Z" fill="#ebe4e0"/>
          <path d="M1432.2,308.4c.5.3,1.2.9,1.7,1.2-15.4,8.7-30.6,17.8-46.8,25.8-4.7,2.4-13.2,1-19.2,1.4-16.4-7.9-34.1-14.2-30.6-30.5-5.5-3.4-10.7-6.7-15.7-9.6,10.4-2.4,19.9,7.2,21.4,23.3,7.5,4.3,15.9,9.1,22.9,13,14.9,3.6,24.1-1.5,33.6-6.7,10.9-6,21.6-11.8,32.6-17.8v-.2Z" fill="#d2d7e0"/>
          <path d="M1551.1,387.6c-2.5-1.7-6.7-4.6-12.4-8.4,10.9-5,20.6-9.1,31.1-13.9,3,2.9,5.5,5.3,8,7.7-8.5,4.6-15.9,8.7-26.6,14.5Z" fill="#e6e5ed"/>
          <path d="M1487.9,571.4c-.5.9-1.2,1.7-1.7,2.6-1.5-1-2.7-2.1-4.2-3.3-4.7,1.7-9.2,3.4-13.9,5.3-2-1.9-3.7-3.6-6-6,8.2-3.8,16.4-7.5,26.6-12.2-5-1.2-7.5-1.7-10.4-2.6,2.7-1.5,5.2-2.9,8.5-4.6,4.2,4.1,8.2,7.7,12.9,12.2-3,1.5-6,2.7-8.5,4.4s-2.2,2.7-3.2,4.1h0Z" fill="#e7e2dd"/>
          <path d="M1460.3,548.5c-14.9-2.4-27.4-4.4-42.8-7,9.7-4.6,17.2-8.2,25.1-12,5.7,6.2,11.2,12,17.7,18.8v.2Z" fill="#dcf1c9"/>
          <path d="M1379.7,785.8c-7.2,2.4-12.9,4.4-19.4,6.7-2.5-3.9-4.7-7.5-7-11.3,5-3.8,10-7.4,16.4-12.2,4,6.7,6.7,11.5,10,16.8h0Z" fill="#ebe4e0"/>
          <path d="M1620.2,588.5c2.5,2.4,4.7,4.6,8.5,8.2-10.2,2.7-19.7,5.5-30.6,8.4-1-1-2.7-3.1-4.7-5.3,7.5-5.6,13.7-11.5,26.9-11.5v.2Z" fill="#e5e5e5"/>
          <path d="M1483.2,650.6c9-4.3,16.9-8.2,25.6-12.5,1.7,2.2,3.5,4.4,5.5,7-7.5,4.1-14.7,8-22.4,12.3-2.7-2.1-5.2-3.9-9-6.8h.2Z" fill="#ebe4e0"/>
          <path d="M1266,468c3.5,2.2,5.7,3.6,8.5,5.3-7.7,6-14.4,11.5-22.4,17.8-2.7-2.1-5-3.6-7.7-5.6,7.5-6,14.2-11.3,21.6-17.3v-.2Z" fill="#ebe4e0"/>
          <path d="M1509.3,433.1c3.5,2.9,6.5,5.3,10,8.4-4.7,2.6-9.2,5.3-14.7,8.4-3.5-3.4-7-6.5-10.9-10.3,5.5-2.2,10.4-4.4,15.7-6.5Z" fill="#ebe4e0"/>
          <path d="M1463.3,493.7c3.7,3.3,6.5,5.6,10,8.7-4.7,2.7-9.2,5.5-14.7,8.7-3.5-3.1-6.7-6-10.2-9.1,5.2-2.9,9.5-5.3,14.9-8.4h0Z" fill="#ebe4e0"/>
          <path d="M1617,323.8c3.2,1.5,5.7,2.7,8.7,3.9-5.5,6.2-10.7,11.6-16.2,17.8-3-1.4-5.2-2.4-8.7-3.9,5.2-5.8,10.4-11.5,16.2-17.8Z" fill="#ebe4e0"/>
          <path d="M1401.8,495.1c3,2.9,5.5,5.5,8.2,8.4-5,2.7-9.5,5.3-14.9,8.4-3.5-2.6-6.7-5-10.7-8,6-3.1,11.2-5.6,17.4-8.7h0Z" fill="#ebe4e0"/>
          <path d="M1490.6,457.9c-2.5,1.5-4.7,2.9-7.2,4.6-5-3.6-9.2-6.7-14.4-10.4,4.2-3.1,8-5.8,13.7-9.9,2.7,5.6,5.2,10.1,8,15.7h0Z" fill="#ebe4e0"/>
          <path d="M1505.1,541.1c3-1.9,5.7-3.6,9.2-5.8,4.5,3.8,8.7,7.5,13.4,11.5-2.7,1.5-6.2,3.8-10.9,6.3-4-3.9-7.7-7.9-11.9-12h.2Z" fill="#ebe4e0"/>
          <path d="M1552.1,554.3c-2,0-5.2.3-10.7.9,5.5-3.6,9.5-6,14.7-9.2,4.5,3.9,9.2,8,14.4,12.5-2.5,2.1-4.5,3.6-7.5,5.8-4-3.6-7.2-6.5-10.9-9.9Z" fill="#e6e5e5"/>
          <path d="M1568.2,524.7c-2.5,1.7-4,2.9-6.5,4.6-4.2-3.4-8-6.2-11.9-9.4-1.7-.3-4.2-.7-9-1.4,5.2-3.1,9-5.3,13.4-7.9,5,5,9,9.1,13.9,14h0Z" fill="#ebe4e0"/>
          <path d="M1422,338.7c-5,3.3-8.7,6-13.4,9.1-2.7-2.2-5.7-4.6-9.2-7.5,4.2-2.6,9.5-5.5,15.2-8.9,3,2.9,5.2,5.3,7.5,7.2v.2Z" fill="#ebe4e0"/>
          <path d="M1275.9,507.1c-2-2.1-3.7-3.8-6.2-6.2,6.5-3.3,13.2-6.5,20.4-10.3,2,2.7,3.5,5,5.5,7.4-6.7,3.1-12.9,6-19.7,8.9v.2Z" fill="#ebe4e0"/>
          <path d="M1388.1,309.2c3,1.9,4.7,3.3,7.5,5-7.2,4.4-13.7,8.2-20.6,12.5-.7-.3-3-1.4-6.2-2.7,6.5-4.8,12.4-9.4,19.4-14.7h0Z" fill="#ebe4e0"/>
          <path d="M1446.8,466.5c3.7-1.9,6.7-3.6,10.4-5.5,4.2,4.3,8,8.2,12.2,12.7-4.5,1.5-8.2,2.9-12.2,4.4-3.5-3.9-6.5-7.2-10.2-11.5l-.2-.2Z" fill="#ebe4e0"/>
          <path d="M1423,373.6c-3.5,3.3-6.7,6-10.2,9.1-4.5-2.6-8.5-4.6-13.2-7.2,4.2-3.3,7.7-6,11.9-9.2,4.5,2.9,7.7,5,11.2,7.4h.2Z" fill="#ebe4e0"/>
          <path d="M1595.6,415.2c2.5,5.1,4.2,9.2,6.7,14.2-1.2.7-3.5,2.1-6.7,3.9-4.5-3.6-8.7-6.8-13.7-10.8,4.5-2.4,8-4.3,13.7-7.4Z" fill="#ebe4e0"/>
          <path d="M1523,341.6c7.5-4.4,13.4-8.2,20.2-12.3,2.2,1.5,4.2,3.1,6.5,4.8-7,4.4-13.4,8.4-20.6,13-2-1.9-4-3.6-6-5.5h0Z" fill="#ebe4e0"/>
          <path d="M1540.4,496.4c2.2-.5,4-1,6-1.5.5.3,1,.7,1.2,1-4.2,3.1-8.5,6.2-13.2,9.9-4.2-3.8-8.2-7.2-12.2-10.8,2.5-1.7,4.7-3.4,7.7-5.6,3.5,2.4,6.7,4.4,10.7,6.8l-.2.2Z" fill="#ebe4e0"/>
          <path d="M1654.8,416.9c3.5-1.4,6-2.4,8.7-3.4,5.5,4.3,10.4,8.4,15.9,12.7-2.5,1.7-5,3.4-8,5.5-5.7-5-10.7-9.2-16.9-14.7h.2Z" fill="#ebe4e0"/>
          <path d="M1436.4,472.1c3.7,3.9,6.7,7.2,10.2,10.6-3.5,1.7-6.7,3.3-10.4,5.1-4-3.4-7.5-6.5-11.9-10.1,4-1.9,7.7-3.4,12.2-5.6h0Z" fill="#ebe4e0"/>
          <path d="M1481.4,478.6c2,2.2,3.5,3.6,5,5.3,1.7-.5,3.5-1,5.5-1.5,2,2.1,3.5,3.8,5.7,6.2-3.2,1.2-6.5,2.4-10.2,3.8-2.2-2.1-4.2-3.8-6.2-5.6-2,.7-4.5,1.5-7.5,2.6-1.2-1.5-2.5-2.7-4-4.6,3.7-1.9,7.2-3.6,11.7-5.8v-.2Z" fill="#ebe4e0"/>
          <path d="M1640.9,212c-8,2.6-7.7-4.6-12.9-5.1-.7-.9-1.7-1.7-2.7-2.9,2.7-1.7,5.7-3.6,9-5.6,4.5,2.4,9.2,4.8,13.9,7.5-2.7,2.4-5,4.3-7.2,6.3v-.2Z" fill="#e8efe0"/>
          <path d="M1589.4,471.8c-2.7,2.1-4.7,3.4-7.2,5.3-5.7-3.1-10.4-5.5-16.2-8.6,4.5-2.1,8.2-3.8,12.7-5.8,2.5,2.1,6.2,5.3,10.9,9.2l-.2-.2Z" fill="#ebe4e0"/>
          <path d="M1580.2,391.4c4-1.9,6.7-3.3,10-5,4,3.4,7.7,6.5,11.9,10.1-3.7,2.1-6.5,3.8-10.2,6-4-3.8-7.5-7-11.7-11.1h0Z" fill="#ebe4e0"/>
          <path d="M1653.1,110.4c3.7,1.9,6.5,3.1,9.7,4.8-5.5,3.9-10.4,7.5-16.7,12-2.2-1.7-4.5-3.6-7-5.5,4.7-3.8,9-7.4,13.7-11.3h.2Z" fill="#ebe4e0"/>
          <path d="M1541.6,464.4c-3.7,1.9-6.7,3.4-10.4,5.5-3.7-3.3-7.7-6.3-12.2-10.3,3.2-1.9,6.2-3.4,10-5.5,4.5,3.6,8.2,6.8,12.7,10.3Z" fill="#ebe4e0"/>
          <path d="M1612.8,498.2c-4,1.9-7,3.4-10.4,5.1-4.2-3.8-8-7-11.9-10.6,3-2.2,5.2-3.9,7.7-5.8,5.2,3.9,9.5,7.4,14.7,11.3Z" fill="#ebe4e0"/>
          <path d="M1361,411.2c-4.2,2.2-7.2,3.8-11.4,6-3.5-1.7-7.7-3.9-13.4-6.7,4.2-2.4,7.5-4.1,11.9-6.7,3.2,1.9,7.2,4.3,12.9,7.5v-.2Z" fill="#ebe4e0"/>
          <path d="M1570,313.5c1.7,1.2,3.7,2.6,5.5,3.8-4.5,3.4-9,7-14.7,11.3-3.7-2.2-6.7-3.9-11.2-6.7,8.5-3.6,14.4-6,20.2-8.4h.2Z" fill="#ebe4e0"/>
          <path d="M1527.9,636.6c-1.7-2.4-3.2-4.4-5.2-7,5.5-2.6,10.4-5.1,16.4-8,2.5,2.2,4.5,4.3,7,6.7-6.5,2.9-12.2,5.6-18.4,8.6l.2-.2Z" fill="#e5e5e5"/>
          <path d="M1563.8,452.8c-3,1.9-5.5,3.8-9,6-4-3.8-8-7.4-12.4-11.6,3.2-1.5,6-2.7,9.5-4.4,4.2,3.6,8,6.7,11.9,10.1h0Z" fill="#ebe4e0"/>
          <path d="M1487.9,512.2c2.7,1.7,5,3.1,6,3.8v10.8c-.2.2-1.7,1.2-4.2,2.6-4-3.9-7.5-7.5-11.2-11.5,3.2-1.9,5.7-3.4,9.5-5.6h0Z" fill="#ebe4e0"/>
          <path d="M1537.4,433.3c-3.7,1.5-6.5,2.6-10,3.9-4.5-2.9-8.5-5.5-12.7-8.4,3.2-2.1,6-3.8,9.7-6.2,4,3.3,7.7,6.5,12.9,10.6Z" fill="#ebe4e0"/>
          <path d="M1482.7,421c-5.7,3.6-10.2,6.3-15.2,9.6-2.7-1.7-5-3.3-8.5-5.5,5.5-3.1,10.4-6,15.9-9.1,2.7,1.7,5,3.3,7.7,5Z" fill="#ebe4e0"/>
          <path d="M1658.5,455c3.2-1.9,5.7-3.4,9.5-5.6,3.7,3.6,6.7,6.5,10.4,10.1-3.2,1.9-6,3.6-9.7,5.8-3.5-3.4-6.7-6.7-10.2-10.3Z" fill="#ebe4e0"/>
          <path d="M1682.7,475.9c3.5-1.4,6.2-2.4,9.5-3.8,4.2,4.1,8,7.9,12.4,12.3-3,1.4-5.2,2.4-8,3.6-4.7-4.1-9-7.9-13.9-12.2h0Z" fill="#ebe4e0"/>
          <path d="M1242.9,533.4c6-2.6,10.4-4.6,15.2-6.7l7.5,5.1c-4.2,2.7-8.2,5.3-12.9,8.4l-10-6.8h.2Z" fill="#ebe4e0"/>
          <path d="M1636.4,485c-3.5,1.7-5.5,2.7-8.2,4.1-4.5-3.4-8.7-6.5-13.4-10.1,2.5-1.9,4.5-3.4,7.5-5.6,4.7,3.9,9.2,7.5,14.2,11.6h0Z" fill="#ebe4e0"/>
          <path d="M1719.7,402.2c-3,2.4-5.5,4.3-8.7,6.7-3.5-2.9-6.7-5.6-10.7-8.9,3.7-1.9,6.7-3.4,10.7-5.5,3.2,2.7,6.2,5.3,8.7,7.5v.2Z" fill="#ebe4e0"/>
          <path d="M1313.5,366.6c-2.5-1.7-4.7-3.3-7.7-5.1,6.2-3.6,10.9-6.5,16.2-9.6,1,1,2.7,2.7,5,4.6-4.2,3.1-8.2,6.2-13.4,10.1Z" fill="#ebe4e0"/>
          <path d="M1605.3,645.8c-5.5-6.3-10.9-12.7-16.7-19.2l7.5-2.6c5,6.3,10,12.8,14.9,19.2,0,2.9-2.5,3.3-5.7,2.6Z" fill="#e2e2e3"/>
          <path d="M1639.4,517.5c-2.7,2.2-4.2,3.6-6.2,5.1-4.5-3.9-8.2-7.2-12.2-10.6,1.7-1.9,3.5-3.8,6.2-6.7,4.5,4.4,8.2,8.4,11.9,12.2h.2Z" fill="#ebe4e0"/>
          <path d="M1725.7,471.8c-2,1.5-3.7,2.7-6.5,4.8-5.2-5-9-8.7-13.2-12.8,2.7-1.4,5-2.4,7.7-3.9,3.7,3.8,7.2,7.4,11.9,12.2v-.2Z" fill="#ebe4e0"/>
          <path d="M1640.6,500c2.7-1.4,4.7-2.2,7.7-3.8,4,4.1,7.7,7.7,11.7,11.8-2.7,1.5-4.7,2.7-7.5,4.3-4-4.1-7.5-7.9-11.9-12.3h0Z" fill="#ebe4e0"/>
          <path d="M1611.8,407.5c5,2.9,9,5.5,14.4,8.7-4,2.2-6.5,3.6-9.7,5.3-3.7-3.1-7.2-5.8-11.4-9.2,2.2-1.7,4.2-3.3,6.5-5l.2.2Z" fill="#ebe4e0"/>
          <path d="M1452.3,739.6v7.5c1.7,1.5,3.5,2.9,6.2,5.1-3-.3-4.5-.7-6-.9-3-5-5.7-10.1-9.2-15.1-1.7-2.7-4.7-5.1-6.5-9.2,3,1.2,6.7,1.9,8.5,3.6,3,2.7,4.5,6,6.7,9.1l.2-.2Z" fill="#f5f3f3"/>
          <path d="M1609,438.6c5.5.7,8.2,1.2,11.4,1.5,2,4.1,10.7,6.8,7,14-9-4.4-14.2-9.2-18.4-15.6Z" fill="#ebe5e1"/>
          <path d="M1681.7,442.4c4-1.7,6.5-2.9,9.7-4.4,3,3.3,6,6.5,9.2,10.1-1.7,1.4-3.5,2.7-6,4.6-4.5-3.6-8.5-6.8-12.9-10.4v.2Z" fill="#ebe4e0"/>
          <path d="M1518,512.4c-2.7,1.4-5,2.6-8.2,4.3-3.5-3.3-6.7-6.3-11.2-10.4,2.7-1.4,5.2-2.6,8.2-4.1,3.7,3.4,7.2,6.7,11.2,10.3Z" fill="#ebe4e0"/>
          <path d="M1445.6,692.7c3.5,1.7,5.5,2.7,8,3.9-1.7,3.4-3.7,6.7-5.7,10.4-3.5-1.2-6.7-2.4-10.9-3.9,3-3.6,5.7-6.7,8.7-10.4h0Z" fill="#ebe4e0"/>
          <path d="M1605.3,645.8c2-.9,3.7-1.7,5.7-2.6,18.7-6.5,37.1-13.7,56.5-19.2,24.4-6.8,45.5-16.8,65.4-28.2,16.9-9.6,33.3-19.5,51-28.4,15.2-7.7,23.1-18,26.4-30.1,4.2-15.7,9-31.7,10.7-47.6,1-8.4-3.5-17.1-6.7-25.5-4.7-11.8-10-23.6-16.9-34.9-3.7-6-11.2-11-17.9-15.9-10.4-7.7-21.6-15.2-32.6-22.6-24.4-16.3-42.8-34.9-54.2-57-11.9-23.1-13.2-46.2-4.7-70,3.7-10.4,7.7-20.9,10.2-31.7,3.7-16.4,16.4-30.1,28.4-44,5.2-6,11.2-11.6,16.7-17.5,22.1,5,44.3,9.8,66.4,14.7,1,5.6,2.2,11.1,2.7,16.6,1,13.3,1,26.9,2,40.2,1,12.2,2.5,24.1,3.7,36.3,0,1,1.2,1.9,2,2.7-.5,3.8-5.2,3.6-9,4.4-34.3,8.2-67.2,18.7-99.8,29.6-2.7.9-6,1.5-6.7,3.9.7,1.5,2.5,1.2,4,.9,13.4-3.9,27.4-7.9,40.5-12,14.9-4.6,30.1-9.8,45-14.5,7.7-2.4,15.9-5.8,25.6-3.6v12.5c.5,10.4-.5,21,2.5,31.1,2,7.2,8.2,14,13.7,20.7,23.1,27.2,45.8,54.8,59.7,84.9,3,6.5,3.2,13.9,4,20.7,1.5,15.7,1.7,31.5,4.2,47.1,3.2,21.2,2.2,42.8,10,63.8,5,13.5,1,27.6-11.2,39.5-2.5,2.6-7.5,4.4-11.9,5.6-11.2,2.9-23.4,4.4-34.3,7.9-7.2,2.2-15.4,5.8-18.7,10.4-6.5,9.1-16.7,14.5-29.1,18.8-20.2,7.2-40.1,14.7-60.5,21.2-13.2,4.3-25.1,9.6-33.8,17.5-16.2,14.2-38.8,21.4-62.2,27.9-9,2.6-17.7,5.1-27.6,8-6.2-6.2-12.2-12.2-18.2-18.3-3.5-3.4-6.7-7.2-10.7-10.4-2.2-1.7-6-2.4-9-3.6-.2-1,.2-1.7,1.7-1.9,10.4-.9,17.2-5.3,22.9-12,6,7,14.2,11.8,22.4,15.6,21.1,4.8,36.1-.5,48-12,2.5-2.6,6-4.3,9.5-6,18.2-8.6,35.6-17.8,52-27.9,18.7-11.5,27.4-26.5,33.8-42.6,3.2-8.2,6-16.6,4.7-24.8,1.5,20.9-9.7,40-25.4,57.7-9,9.9-23.9,16.6-37.6,23.6-10,5.1-19.4,10.6-30.1,15.1-3.7,1.5-6,4.3-8.7,6.5-9.2,7.9-19.9,13-35.6,11.8-13.7-1-22.6-6.7-29.1-14-7.7-8.7-9.2-18.5-4.2-28.4,1-1.9,1.2-3.9,1.2-4.6-3.7,8.6-6.7,18.5-.7,28.2-4.2,7.5-11.2,11.8-22.4,13.3-11.4,1.5-23.1,3.4-34.6,5.3-16.9,2.9-33.3,6.7-47.8,13.9-1.7.9-3.5,1.7-6,1,10.9-10.6,21.6-21.6,32.8-32,13.9-13.2,35.6-19.9,54.5-28.7,5.5-2.6,11.4-5,17.2-7.4v.7Z" fill="#f7f5f4"/>
          <path d="M1819.7,290.2c-22.9,5.6-45.8,11.5-68.4,17.1.2,2.7.5,3.9.5,5.6-2-1-3.7-1.7-5.5-2.6-15.9,2.4-28.9,10.3-44.5,12.8-.7-.9-1.7-1.7-2.5-2.6,2.2-1.7,4-4.3,6.7-5.3,13.7-4.8,27.6-9.4,42-13.5,22.6-6.5,45.8-12.7,68.7-19,1-.3,2-1,3-1.5,32.3-5.3,64.9-10.6,98-16.1v7.2c-17.7,2.9-35.3,5.8-53,8.9-15.2,2.7-30.3,5.8-45.3,8.7l.2.2Z" fill="#ccd2dc"/>
          <path d="M1500.8,714c27.1-13.2,59.5-16.4,90.6-21.7,13.9-2.4,17.4-7.4,16.7-17.1-.7-9.1,1.7-18.1,2.7-27.2,1.2,0,2.2,0,3.5.2-.7,3.3-1,6.5-2.2,9.6-6,15.1,0,27.2,16.9,36.3,15.7,8.4,36.8,4.3,48.5-5.6,5-4.3,11.2-7.9,17.4-11.3,14.7-8,30.1-15.6,44.8-23.8,24.1-13.7,33.1-33,39.3-53.1,1.7-6,2-12.2,3-19.5,2.7,11.6-.5,21.6-4.2,31.7-9,24-30.6,41.2-59.2,55.4-16.2,8-33.1,15.6-45.8,26.7-4.2,3.6-12.7,5-17.9,6.7-7.5-.5-13.2-1-21.1-1.7-6.7-4.3-14.7-9.4-22.9-14.7-3.7,6.8-13.9,8.9-23.9,11.3-29.6,3.3-59,7.4-83.6,20-11.9,6.2-19.2,14.2-20.6,24.5-.2,2.2-1.2,4.4-2,6.8-1-2.7-3.7-5.6-2.7-8,3.7-9.9,10.2-19.2,23.1-25.3h-.2Z" fill="#dcd6d2"/>
          <path d="M157,110.7c45,21.2,90.1,42.6,135.1,63.8,10,4.8,20.2,9.4,29.4,15.1-60.7-25.3-121.2-50.8-176.1-82.3,2,.3,4,.5,6,.9,2,.9,3.7,1.7,5.7,2.6h0Z" fill="#d4d8e1"/>
          <path d="M186.6,787c-46-1.9-91-3.8-137.3-5.8,11.9-42.6,23.9-85.1,36.3-128.9,8.7.9,17.7,1.7,26.4,2.7,17.4,2.1,34.6,4.1,52,6.2,2,.3,4.5.5,6.2,1.4,8.7,4.6,17.4,9.6,26.4,14.7-3.2,36.8-6.7,73.4-10,109.7h0Z" fill="#f1f0f0"/>
          <path d="M317.4,485.5c1.7-.5,3.7-.9,5.5-1.4,4,3.8.5,6.5-3,8.9-8.2,5.8-17.4,11-26.4,16.1-7,3.9-11.7,8.6-13.7,14.7-6.2,18.5-14.7,36.6-16.7,55.8,0,2.1-1,4.3.2,6.3,2.5,2.7,7,3.1,10.9,4.3,10.9,3.1,21.9,6,32.8,9.1,7.7,2.2,13.4,5.8,17.2,11.1,7.2,10.3,19.7,14,37.3,11.8,1.2-.7,1.5-1.7,1.7-2.9,1.2-8.9,8.5-12,21.1-8.9,15.7,3.9,31.6,7.9,47.5,11.5,3.5.7,7,2.1,11.2,1.2,4.5-2.9,5-7,6.7-11,4-8.6,7.7-10.4,20.6-10.8,4,0,8.2.5,11.7-1,2.5-1.4,3-3.4,3.7-5.1,11.2-29.4,21.6-58.9,31.6-88.3,2.2-6.3,2.2-12.7,0-19-1.7-5.3,0-7.2,6.5-7.9.5.7.7,1.5,1.2,2.2l2.7.9c3.7-4.6,8.2-8.9,11.2-13.9,9.7-15.9,19.2-31.8,28.4-47.7,1.5-2.6,2-5.5,3.2-8.2,7.7,3.1,4.2,7.7,2.5,11.6-4,8.6-8.7,16.9-13.7,25.2-16.9,29.4-27.9,60.2-38.3,91-7.5,21.9-17.4,43.3-24.1,65.2-.5,1.9,0,4.6-4.7,4.6-2-.9-4.2-2.4-6.2-2.4-7.7-.3-15.4,0-23.9,0-4,8-8,16.1-12.2,24.6-24.6-5.6-48.8-11.1-73.4-16.8-2.5,6-4.5,10.4-6.5,15.2-15.4-1.9-30.1-3.6-44.5-5.3-7.7-19-30.3-24.3-53.2-29.4-6.7-1.5-13.2-3.4-21.1-5.6,1.7-10.3,2.7-20.4,5.5-30.3,4.5-14.7,10.4-29.3,15.7-44,2.5-7.2,11.4-10.3,18.2-14.7,8.7-5.8,17.7-11.3,26.4-16.9l.2.2Z" fill="#f0f0f0"/>
          <path d="M912,814.1c-12.4-1.5-16.7-8.6-19.9-15.2-4.2-9.2-12.9-15.2-25.4-19-35.8-10.6-71.4-21.6-107.5-31.7-76.1-21.2-150.8-44.7-223.9-70.7-15.7-5.6-31.8-10.6-47.8-15.9-2-.7-3-2.6-4.5-3.9.7-.3,1.5-.7,2.5-.7,4.2,0,7.7,1.7,11.2,3.1,25.9,9.2,52.7,17.1,78.6,26.4,2.2.9,4.2,1.7,8.7,1.4,4.2-6.3,9.7-12.8,15.7-19.3,5.5-6.2,10.9-12.3,17.7-18,8.2-6.8,12.9-14.9,17.2-23.3,7-13.3,10.4-27.7,22.9-39.7,6.7-6.3,14.2-11.6,24.9-14.9,1.5.3,2.5.9,3,1.9,0,2.7-2.7,4.3-5.5,5.6-14.9,7.9-23.1,18.7-28.4,30.8-6,13.2-10.2,27.2-22.1,38.5-10.2,9.6-19.2,19.3-28.4,29.3-3.7,3.9-7.2,7.9-7.7,13.2,8.5,4.3,18.2,6.7,27.1,9.8,37.6,13.7,77.6,23.8,116.7,35.3,42,12.5,84.6,24.6,126.6,37.1,7.2,2.1,13.9,4.6,20.2,8,1.7.7,3.5,1.4,5,2.4,6.2,5,8.7,11.3,12.7,17.1,3,4.4,7.2,7,14.4,7.9,49,5.1,98.3,10.4,147.3,15.6,4.7.5,9.2,0,13.7-1.2,8.2-1.9,16.4-3.9,24.4-6.3,4-1.2,7.7-1.9,9.5,1.9,0,1.7-1.2,2.9-2.7,3.3-16.4,4.6-32.1,10.8-51.5,8.4-46-5.6-92.8-9.6-139.1-14.9-1.7-.2-3.2-1.2-5-1.4l-.5-.7Z" fill="#d1d6df"/>
          <path d="M485.3,657.5h-2.2c-3-13.3,5-25.8,8-38.7.5-2.6,1-5,1.5-7.5,5.5-15.1,10.9-29.9,16.7-45,13.4-34.6,26.9-69.1,41.3-103.4,5.5-12.8,13.7-25.2,19.9-37.8,1.7-3.4.2-7.7.2-11.5,0-5.8-1-11.8,0-17.6,1-5.5,4-11,7-16.3,8.5-15.4,17.7-30.5,25.6-45.9,5.5-11,15.9-19,28.1-26.4,7.7-4.6,16.4-8.4,23.9-13.2,10.7-6.8,24.6-8.4,37.6-11.6,3.5-.9,6.7-1.7,10.2-2.6h9.5c.5,1.7-1.5,2.2-3,2.7-2.5.9-5.2,1.7-8,1.9-29.1,3.1-50.3,15.9-71.4,28.4-8.7,5.1-16.4,11.5-20.6,19.5-9.7,18.5-17.7,37.5-31.1,54.8-1.5,1.9-1.7,4.1-2.5,6.2-2.7,8.4,1,16.4,2.2,24.6.2,5.3-3.5,9.9-6.2,14.7-15.7,28.7-30.6,57.8-40.5,87.8-12.9,38.3-29.4,76-40.1,114.7-1.5,5.5-3.7,10.8-3.7,16.4s0,3.9-2.5,5.3l.2.3Z" fill="#ddd7d3"/>
          <path d="M912,814.1c.2-.3.5-.5,1-.9.5.3.7.7,1.2.9,4.2,1.4,3.7,4.1,4.2,6.7,4,19.5,8,38.8,11.7,58.4,1,5.8,4.7,9.4,12.2,12.7,47.5,20.7,94.3,41.9,142.5,61.9,28.4,11.8,59.2,20.5,89.3,30.3,21.4,6.8,41.5,15.4,64.4,19.9,11.7,2.2,23.1,4.6,34.6,7.5,5.7,1.4,11.4,1.7,17.4.9,4.2-.5,8.5-1,12.9-.7,1.5.2,2.7.7,4,1.4v1.5c-23.9,5.5-45.5-1.5-67.2-6.5-17.2-4.1-34.1-9.1-50.5-14.4-21.4-6.7-42.3-14.4-63.7-21-38.8-12.2-74.1-28.2-110-44-29.1-12.8-58.5-25.5-89.3-39-4.7-24.5-9.7-49.8-14.4-75.3l-.5-.2Z" fill="#dcd6d2"/>
          <path d="M127.1,602.4c-11.7-1.4-23.4-2.6-36.1-4.1,1.5-3.4,2-5.1,2.7-6.8,3.7.3,6.7.5,9.5.7,1.2,1.4,2.5,2.4,4,4.3,8.5-7.9,18.7-6.3,29.1-3.4,1.7,1.4,3.5,2.7,5.5,4.4-2.5,1.7-4.5,3.3-6.2,4.6-3.2,0-6,.2-8.7.3h.2Z" fill="#96d1f8"/>
          <path d="M174.1,643.4c-.5,2.9-1,4.4-1.2,6.2-7.7-.7-14.9-1.4-22.9-2.2.7-2.4,1.2-3.9,2-6,7.2.7,13.9,1.2,22.1,1.9v.2Z" fill="#e5e5e5"/>
          <path d="M524.2,480.4c-1.7,1.7-5.2,4.1-4.7,5.3,8,15.4-2.2,29.4-6.7,43.6-8,24.6-17.4,49.1-26.4,73.6-10,.5-19.4,1-29.4,1.5-3.7,7.7-7.2,14.5-11.2,22.6-13.7-3.1-26.6-6.7-40.1-8.9-12.7-2.2-24.1-10.6-40.1-4.3v12.2c-12.2-1.5-23.1-2.6-33.8-4.3-2.2-.3-4.5-2.6-5.2-4.1-5.2-12-18.9-17.1-34.8-20.7-10.7-2.4-21.1-5.6-33.1-8.9,2.2-11,3.7-21.7,6.7-32.2,3.2-11.3,8.7-22.2,11.9-33.4,2-6.5,7.2-10.6,13.9-14.5,9-5.3,17.9-10.4,26.4-16.1,2.7-1.9,3.5-5.1,5-7.7,11.4-9.4,23.9-15.6,43.5-15.9,21.1-.3,42.5-4.4,63.7-7.4,26.9-3.6,53.7-7.5,82.6-11.6,4,10.3,7.7,20.7,11.4,31l.2.2Z" fill="#f0f0f0"/>
          <path d="M1297.6,1066.8c.7-.3,1.2-.9,2-1.2h2c0,.7.2,1.2.5,2.4-2.2,0-4.5,0-7,.2,0-.2,0-.5-.2-.7,1-.2,1.7-.3,2.7-.7h0Z" fill="#4a4a4a"/>
          <path d="M1305.3,1056.6v3.9h0c-1.5-1.4-1.5-2.7,0-3.9h0Z" fill="#5e5f5f"/>
          <path d="M1305,1065.5c-1.2,0-2.5,0-3.5.2.5-.7,1-1.4,2.2-2.7.7,1.4,1,2.1,1.2,2.6Z" fill="#878788"/>
          <path d="M1301.6,1074.7c.7-.5,1.5-.9,2.2-1.4-.7.5-1.5.9-2.2,1.4Z" fill="#333"/>
          <path d="M1293.8,1070.9c.2-.3.5-.7-.2.3,1.2-.7.7-.3.2-.2h0v-.2Z" fill="#898b8c"/>
          <path d="M1305.3,1056.6v3.9h-7.5v-3.9h7.5Z" fill="#d4d5d8"/>
          <path d="M1421.2,865.9c.7,7.2,1.2,13.7,2,20.7-10,.7-18.4,1.4-26.6,1.9-2.7-6.5-6-12.2-7-18-1.2-5.6-.2-11.3-.2-17.6h19.2c2.7,4.6-1.2,12.5,12.7,12.8v.2Z" fill="#e5e6e6"/>
          <path d="M1595.4,257.4c-16.7,11.1-32.3,21.7-49.3,33-10.2-7.7-19.4-14.5-27.6-20.9,16.4-11.3,32.1-22.1,48.5-33.5,8.7,6.5,18.4,13.9,28.4,21.2v.2Z" fill="#e2ebdd"/>
          <path d="M1609.3,229.5c7.5,5,14.4,9.4,21.4,14-3.2,2.6-6.5,4.8-10,7.5-7.2-5.6-13.7-10.8-20.6-16.1,3.2-2.1,6.2-3.9,9-5.6l.2.2Z" fill="#e2ebdd"/>
          <path d="M1576.9,236.7c-5-3.3-8.7-5.8-13.2-8.7,3.5-3.3,6.7-6.2,10.2-9.4,3.2,1.9,5.5,3.3,8.2,4.8,2.7.2,5.7.3,10,.7-5.2,4.4-10,8.2-15.2,12.7h0Z" fill="#e4e3ed"/>
          <path d="M1501.8,231.7c4.2,2.6,7.7,5,12.2,7.7-3.2,2.7-6.5,5.3-10,8.4-5.5-3.4-9.7-5.8-14.7-8.9,4-2.4,8-4.6,12.4-7.2h0Z" fill="#eae4e1"/>
          <path d="M619.4,702.3c-9.7-3.1-19.7-6.2-31.8-10.1,7-8.7,13.2-16.9,20.2-24.6s16.4-14.5,22.1-22.8c7.5-10.3,13.2-21.2,17.9-32.2,6.2-14.2,15.2-27,33.3-35.8,1.5-.7,2.2-1.9,3.5-2.9,4.2-5.5,7-11.3,9.2-17.3,2.5-6.3,7.2-11.6,14.4-16.1,12.4-7.9,25.6-14.9,41.5-19,2.7-.7,5-1.5,7-3.1,9-7.7,18.2-15.2,27.4-22.6,8-6.3,10.2-14.5,13.7-22.2,4.2-9.1,8.2-18,19.2-24.5,8.2-4.8,17.2-8.2,27.9-7.5,31.8,1.9,56.5-9.4,80.6-21.2,25.1-12.2,48-26.4,70.2-40.9,23.1-15.1,45.8-31,61.9-50.1,8-9.4,10.9-20.4,16.2-30.6,4.2-8.4,8.2-17.1,12.4-25.5,1-2.2,1.7-4.6,5-6,6.5-2.6,12.9-5.1,19.4-7.5,27.9-10.3,47-26.9,67.4-42.6,13.2-10.3,28.4-17.3,47.5-20.7,24.4-4.4,48.8-9.4,73.9-14.4,0,1.5.5,3.1.5,4.4-3.5,10.4-14.9,13.9-28.6,15.4-9,1-17.4,2.9-26.4,4.1-11.7,1.5-20.6,5.6-27.4,12.2-23.9,22.6-46.8,45.2-59.7,72.6-32.1,68.1-67.7,135.4-101,203.3-25.6,52.2-51.7,104.4-77.6,156.6-22.6,45.5-44.8,91-67.9,136.6-1.2,2.4-1.7,5-5.5,6.5-5.5-.7-6.5-4.3-8.7-6.8-7.7-9.8-11.7-20.7-20.2-30.3-19.4-21.4-37.1-43.5-53-66.2-12.7-18.1-24.6-36.3-37.3-54.4-9-13.2-20.4-25-40.3-31.7-5.2-1.9-10-4.3-14.9-6.7-2.7-1.4-5.7-2.6-10-1.4-4.2,4.1-3.2,8.2,2.5,11.5,4.5,2.7,9.5,5.1,14.7,6.8,14.9,5,23.9,13.5,30.6,23.3,11.7,17.6,25.1,34.7,36.3,52.7,9.2,14.9,21.6,28.4,32.8,42.4,7.7,9.6,14.9,19.2,22.6,28.7,1.2,1.4,2.2,3.1.7,4.8-2,1-4.2.7-6.2.2-16.2-4.1-32.6-7.5-48.3-13-11.4-4.1-23.1-9.4-37.1-8.2-11.9-7.2-83.6-27.7-96-27.6-5.5-6.3-15.7-7.2-24.6-9.9-4.7-1.4-10.2-2.2-11.7-6.5,2.5-2.6,6-1.5,9.2-1.2,3,.3,6,1.4,10-1-8.2-3.4-16.7-4.6-24.1-6-4.5,1.2-4.5,3.6-6,5.5-1.7,2.1-4,3.4-7.5,3.6Z" fill="#f7f5f4"/>
          <path d="M1284.6,241.6c-5.5,12.5-3,24.5,5.7,35.8,9.7,12.5,8.7,24.1,1.7,37.1-8.2,15.1-11.9,31.3-18.9,46.7-13.4,29.4-27.4,58.9-41.3,88.1-10.2,21.4-22.1,42.4-30.6,64.2-6,15.2-5.7,31-.7,46.7,4.7,14.4,6.7,29.3,9.7,44,.5,2.7,1.2,5.5,2,8.2,3.2,19.3-.2,38.2-8,56.8-14.4,34.4-20.4,69.8-30.1,104.7-.7,2.9.5,5.5,2.7,7.9,1,.9,1.5,2.2,2.7,2.4,4,.7,8.2.9,12.2,1.4-1.7,1.7-5,1.2-7.7,2.1-.7,2.4-1.2,5.3-6.2,5.5-3.2,0-5.5-1.7-8.7-2.1-3.2,0-5,2.2-8,2.7-7.2,2.2-13.7,5.1-21.6,6-5.5.5-11.4,1.2-13.9-3.8-13.2,4.4-25.4,9.6-33.3,18.7-3.5,3.9-8.7,5-15.2,4.3-51.7-5-103.2-10.6-154.7-15.4-4.2-.3-8.7-.3-12.2-2.6-2-2.9,0-5.5,1.2-8,40.3-80.3,79.4-160.7,119.7-241,11.2-22.4,22.4-44.8,33.3-67.4,34.1-69.6,70.2-139,104.2-208.6,3.7-7.5,8.7-14.5,15.4-21,13.4-13.2,26.6-26.4,39.8-39.5,3.7-3.8,8.2-6.3,14.4-7.5,15.4-2.6,30.6-5.3,46-7.9,3.2-.5,6.7-1.2,11.2,1.2-1.5,13.3-5.7,26.9-10.4,40.6l-.5-.2Z" fill="#f0f0f0"/>
          <path d="M1176.7,792.3c1.7-1.5,3.7-3.1,5.5-4.6-.7-.7-1.2-1.2-2-1.9h11.4c20.4.9,40.8,1,60.9,2.7,17.9,1.5,31.3-4.4,45.5-10.1,10.4-4.1,20.9-8,32.8-12.7-1.2,10.6-2.2,19.7-3.2,28.9-.5.5-1.2,1.5-1.7,1.4-14.9-4.4-30.6-2.1-45.8-2.7-23.1-1.2-46.3-1.9-70.4-1.9-35.8,46.7-71.4,93.1-107.5,140.5,38.8,13.9,76.9,27.2,114.7,40.9,1,.2,1.7.3,2.7.5,4,.3,5-2.1,6.7-3.8,10.2-10.1,20.9-20.2,30.3-30.8,4.7-5.3,10.4-7.9,19.9-6.5,6.2,1,12.7,1.2,19.2,1,4.7-4.6,4-9.8,4.7-14.5,3.7-22.8,8-45.3,11.7-68.1.5-2.9.5-6.2,5.5-7.4,2,.9,1.7,1.7.7,2.7-2.2,14.2-4.7,28.6-6.7,42.8-1.7,11.8-3,23.6-4.5,35.4-1.7,2.2-.7,4.6-.7,6.8v74.6c0,2.4,1.5,5.3-2.7,6.8-32.1,4.4-60.5-5.6-88.3-13.3-37.6-10.4-74.1-23.1-109.7-36.5-31.8-11.8-62.4-25.3-93.3-38.5-27.6-11.8-54.7-24.1-82.8-36.5-3.2-16.1-6.5-32.5-10-48.8-1.7-8.4-3.7-16.8-5.5-25.2,19.9,1.9,39.6,3.6,59.5,5.6,30.1,3.1,60.2,6.7,90.6,9.4,6.5.5,13.4-.9,19.9-2.4,8.7-1.9,17.2-4.6,25.9-7,0-.7-.5-1.2-.7-1.9-1.5,0-3.2-.5-4.5-.3-10.4,2.6-20.4,6.8-31.1,7.9-11.4,1-23.6-.5-35.6-1.7-27.4-2.6-54.7-5.6-82.1-8.6-16.7-1.7-33.3-3.8-51.2-5.6-6-8-12.2-16.6-18.4-25.2-16.4-28.9-42.8-54.2-62.7-82-15.2-21-29.6-42.3-44-63.5-8.5-12.7-19.7-23.4-38.1-30.3-4.2-1.5-8.5-3.6-13.7-6.3.2,0,.5,1.5.7.9,0,0,.5,0,.7.2,2,1.4,4.5,2.4,7,3.3,22.4,7.9,35.6,20.9,45.8,36.5,24.6,38,52,75.1,82.1,111.2,6,7.2,13.2,13.9,16.7,22.1,1,2.2,4.2,4.4,1.2,7.2-16.2-5.5-32.3-11.5-49-16.4-51-15.2-102.5-29.8-153.5-45-20.4-6-40.3-12.8-60.5-19.3,1.7-1.4,3.7-2.6,5.5-3.9,5.2-1,9.5-.3,12.9,2.6,10.7,3.9,21.4,7.9,32.3,11.8.2-.3.7-.7,1-1l3.2,5c0-.5.5-1,.7-1.5,7,1.4,14.2,2.2,21.1,4.1,17.2,4.8,34.3,9.8,51.5,15.1,8,2.4,15.7,5.6,22.6,8.9,5,.7,10.2.9,14.7,2.2,11.9,3.6,23.1,8.4,35.3,11.6,12.7,3.4,26.1,5.8,40.8,9.1-4.7-6.2-9.2-11.8-13.4-17.5-18.2-24-36.1-48.1-54-72-12.9-17.3-25.1-34.7-39.6-51.3-5-5.6-16.2-8.7-24.6-13-4.5-2.2-8.7-4.4-12.7-6.5v-11c3.5-.7,6.7-1.5,9.2-2.1,9.7,4.3,17.9,8.2,26.9,11.8,19.4,7.7,29.1,20.4,38.1,33.5,8.5,12.7,16.9,25.2,25.9,37.5,10.4,14.7,21.4,29.3,32.6,43.6,11.2,14.2,23.4,28.1,34.6,42.3,5.5,6.8,9.2,14.4,13.7,21.4,2,3.3,4.5,6.3,7.7,11,11.4-23.1,22.1-44.7,32.6-66.1,28.6-58,57.2-115.9,85.8-173.9,17.7-35.6,35.1-71,52.7-106.6,23.4-46.7,47-93.4,70.4-140.3,7.2-14.4,14.2-28.7,22.4-42.8,3.7-6.3,10-12.2,15.7-18,10.7-10.6,21.9-21.2,32.8-31.7,6.2-6,15.2-9.1,25.4-10.8,15.9-2.6,31.8-5.3,45.5-7.5,4.5-4.3,7.7-7.4,10.9-10.4.7,10.8,1.5,21.6,2.2,32.2.5,6.8-3,12.3-10.7,16.8-2.7,1.5-4.2,4.1-6.5,6.2,1.5-8,3-16.1,4.5-24.1,1-5.5,2.5-10.8,4-17.3-11.9,2.1-22.4,4.4-33.1,5.3-21.6,1.7-36.1,9.4-47,22.4-10.2,12.2-23.1,23.1-34.3,34.9-3.7,3.8-5.5,8.6-7.7,12.8-15.7,31.5-31.3,63-47,94.5-21.6,43.3-43.3,86.8-64.9,130.1-17.4,35.1-34.8,70.2-52.2,105.4-27.9,56.5-56,112.9-83.8,169.6-4.2,8.4-8.7,16.8-13.2,25.7,59.2,6,116.9,11.6,175.9,17.6,9.7-12.7,25.6-20.4,45.3-25.7-.7,1-1.2,1.5-1.7,2.1-.7.7-1.2,1.4-1.5,3.9,6.2-.7,12.4-.9,18.7-2.1,5.2-1,10.2-2.9,15.4-4.4,1.7,3.8-2.7,5.8-5,8.4-3,3.9-7.2,7.4-9.5,11.3,1,2.7,3.7,3.4,7.7,4.4,8.2-7.7,15.2-15.7,21.6-24.1v.5Z" fill="#f7f5f4"/>
          <path d="M1217.7,974.6c-23.1-7.9-46-15.7-68.9-23.8-16.4-5.8-32.8-11.8-50.3-18.1,36.3-47.6,72.4-95,109.5-143.2,11.4.5,23.4,1.4,35.3,1.7,24.4.5,49,.9,73.4,1.4,3.7,0,7.2,1.5,10.7,2.4-2.5,16.3-5,32.3-7.5,48.6,0,1-1.2,1.9-1.7,2.7-1.2.7-3.5,1.2-3.5,1.9-1.5,8-2.7,16.1-4,24-3.2,19.3-6.2,38.8-9.5,58.2-.2,1.9-1.7,3.6-3,5.8-11.2-.9-22.1-1.7-33.1-2.6-14.4,14.5-28.4,28.7-42.8,43.3-1.7-.9-3.2-1.5-4.5-2.1,12.9-13.3,27.1-25.5,37.6-38.7-2.2-3.3-5-4.6-9.7-5.8-12.7,11.8-25.1,23.6-35.3,35.6,1.5,4.3,8.5,4.8,7.5,8.9l-.2-.2Z" fill="#f1f1f1"/>
          <path d="M1176.7,782.1c-2.2-.3-4.5-.7-7.2-1.2,6.5-25.2,12.4-49.8,19.4-74.3,4.2-14.5,10.4-28.7,15.2-43.1s8.2-28.7,6.5-43.5c-.2-2.4,1.2-4.8,1.7-7.2,8,13.2,16.2,26.4,23.9,39.5,10.9,18.7,21.4,37.3,32.3,55.8,3.2,5.5,11.2,5.6,18.2,6,27.4,1.4,49,9.6,63.9,25.8,3.2,3.6,7.2,6.8,11.7,11.1-30.1,11.6-60,23.1-89.6,34.4-32.1-1-63.7-2.2-95.5-3.3l-.5-.2Z" fill="#f7f5f4"/>
          <path d="M574.7,393.1c.5-1.9.5-3.9,1.5-5.6,10.2-18.1,21.1-36.3,31.1-54.6,6.2-11.5,18.9-19,31.6-26.7,19.2-11.8,41-20,66.4-23.6,2.5-.3,5-1.5,7.5-2.2,38.1.3,76.4.9,114.4,1.2,30.3.3,60.7.7,91,1.2,11.9.2,24.1,1.5,36.1,1.2,16.7-.5,33.3-1.4,49.5-3.3,24.6-2.9,48.8-7,73.4-10.4,2.7-.3,5.5,0,8.5,0,2.2,3.8-1,5.6-5.2,7-33.1,6.8-67.2,9.9-101.5,11.6-83.1-1.9-166.2-1.2-249.3-1-18.2,0-34.3,6.2-48.8,12.8-10.7,5-21.6,9.9-32.3,14.9-2.2,1.5-4.7,2.9-7.5,3.8-12.4,3.1-17.9,10.4-21.9,18-10.9,20.7-23.6,40.7-36.1,61.1-1.5,2.6-2.5,5.8-8,7-1.5-4.1-1.5-7.9,0-11.8l-.5-.5Z" fill="#fbfafa"/>
          <path d="M1079.7,275.2c2-1.7,3.7-3.6,5.7-5.3,1.7-.9,3.7-1.7,5.5-2.6-7.5,15.7-15.9,31.5-22.4,47.4-6.5,16.3-21.1,28.9-36.6,40.9-33.6,26.2-71.6,49.6-113.2,69.8-21.1,10.3-44.3,19.5-72.9,17.8-17.9-1-33.1,6.7-39.6,18.5-2.7,4.8-5.5,9.6-7,14.5-3.7,11.6-12.9,21-24.4,29.6-5.7,4.4-10.9,9.2-16.7,13.7-2,1.5-5,2.4-7.5,3.4-12.9,5.8-26.1,11.1-38.6,17.3-10.9,5.3-15.2,13.7-18.7,22.2-1.7,4.1-6,7.7-9,11.5l-2-1.4c7.7-25,29.4-42.1,63.2-52.2,10.7-3.1,15.2-10.4,23.1-15.4,17.9-11.3,23.9-26.5,30.8-41.6,2.7-4.3,5-8.7,9.5-12.2,3.7-3.3,7.5-6.3,12.9-8.2,7.5-2.7,15.4-3.1,23.4-2.7,15.7.5,29.4-2.9,43.5-7.4,32.1-10.1,56.5-26.9,82.8-41.9,13.4-7.7,25.1-16.4,37.8-24.6,16.2-10.4,29.4-22.4,42-34.9,1.5-1.5,3.2-3.1,4.2-5,7.2-13.2,14.2-26.4,19.2-40,2-3.6,1.7-7.7,4.2-11.3h.2Z" fill="#ddd7d2"/>
          <path d="M1303.6,1012.9c.5-2.7,1.7-5.3,1.7-8v-73.6c0-2.2,1-4.4,1.7-6.7v88.5h-3.7l.2-.2Z" fill="#f1f1f1"/>
          <path d="M1887.2,596.6c-1.7,4.1-3.2,7.4-5,10.8-31.1-2.6-61.2-5.1-92-7.7,2.2-8.6,4.5-16.4,6.7-24.6,4.5.2,8.2.3,13.4.7-.5,4.1-.7,7.7-1.2,12.5,25.4,2.7,51,5.5,78.1,8.4Z" fill="#ecebeb"/>
          <path d="M1863.3,502.3c-6-1.5-11.2-2.9-17.7-4.6,9.5-19,18.9-38,28.6-57.3,6.5,1,11.7,2.1,18.4,3.1-10,19.9-19.4,39-29.4,58.9Z" fill="#e5e5e5"/>
          <path d="M1830.2,496.4c6.7-12.3,1.5-26.7,12.4-39.5,9-10.3,15.9-21.6,16.4-34.2.5-9.4-3.2-17.3-13.7-22.4-24.1-12.2-37.6-28.9-50.3-46.7-4.7-6.7-13.4-11.8-20.6-17.8-1.7-1.4-3.5-2.7-4.7-4.4,16.2,7.9,27.9,18,35.6,30.6,8.7,14.5,22.1,26.4,40.5,35.9,21.4,11.1,19.4,28.2,8.7,46.7-3.5,6.2-10,11.6-12.2,18-4.2,11.1-6.5,22.6-9.7,34.4,12.2,6.5,24.1,13,38.6,20.5-2,4.3-4,8.9-6.5,13.3-1.7,3.4-5.2,6.3-6.2,9.8-2.2,7.7-8.2,12.7-19.7,14-9.7,1.2-19.4,2.4-29.6,2.2,13.2-2.1,26.6-4.1,39.8-6,6.2-9.6,11.9-18.5,18.7-29.3-5-11.5-26.1-14-37.8-25.2h.2Z" fill="#ddd7d2"/>
          <path d="M1652.3,693.2c-4-3.4-7.7-6.5-12.4-10.6,13.9-8,27.4-15.7,41.5-24,4,3.4,7.7,6.7,12.4,10.6-13.7,8-27.1,15.7-41.3,24h-.2Z" fill="#e5e5e5"/>
          <path d="M1718.7,322.4c5.2-.9,9.5-1.5,14.2-2.2,1,3.1,1.7,5.8,3,9.2-4.5.9-9,1.7-13.9,2.7-1-3.1-2-5.8-3.2-9.8h0Z" fill="#e5e5e5"/>
          <path d="M138.8,730.2h-34.8c-.7-2.1-1.5-4.3-2.5-6.8h34.1c1,1.9,2,4.1,3.2,6.8Z" fill="#e4e4e4"/>
          <path d="M103,714.8c.5-2.2,1-3.8,1.5-5.5,10.4-.5,20.2-1,31.3-1.7,1,2.4,2,5.1,3.2,8.4-12.7-.5-23.6-.9-36.1-1.4v.2Z" fill="#e4e4e4"/>
          <path d="M802,463.6c-1.7,3.8-4.2,7.5-5.2,11.5-3.7,13.5-17.4,22.4-28.1,33.2-12.7,12.7-34.1,16.3-50,25.5-13.4,7.9-23.9,16.4-28.4,28.4-1.2,3.8-5,7-7.7,10.6-19.2,8.9-31.1,21.2-37.6,36.6-5.2,12-11.4,24-19.7,35.1-7.2,9.8-17.9,18.3-26.6,27.7-5.2,5.6-9.7,11.8-15.2,18.5-32.6-11-65.4-22.1-98.5-33.2,3-13.2,5-26.5,9.5-39.5,12.9-38,25.6-76.2,40.8-113.8,10.9-27,25.9-53.2,39.1-79.9,1-1.7,1.5-3.6,2-5.5,4-1.9,8-.5,11.7.2,67.9,13.5,135.8,27,203.7,40.7,3.7.7,8.2.9,10,3.9h.2Z" fill="#f7f5f4"/>
          <path d="M882.1,783.3c-2.5-12.5-14.2-22.1-22.4-32.7-20.2-26.9-40.3-53.9-60.2-80.8-9-12.2-16.7-24.8-26.1-36.8-6.7-8.7-15.2-16.4-28.4-21.4-7.5-2.7-14.2-6.5-21.1-9.9,15.4,1.9,42.8,17.6,51.2,29.8,13.9,19.9,26.6,40,40.8,59.7,12.4,17.1,26.9,33.7,39.6,50.7,10.7,14,26.1,26.7,30.1,43-1.2-.3-2.7-.9-4-1.2l.5-.3Z" fill="#dcd6d1"/>
          <path d="M802,463.6c-32.8-6.7-65.7-13.2-98.5-19.9-42.3-8.4-84.6-16.8-127.1-25.2-.7-8.6-1.2-17.1-2-25.7v10.3c.7,0,1.2.3,2,.5,16.7-27.7,33.3-55.4,50.3-83.2.5.2,1.2.5,1.7.7,5.7-2.2,11.2-4.3,16.9-6.5,22.9-9.4,46.8-17.5,70.9-25.3,5-1.5,10-2.2,15.2-2.2h119.2c8.2,0,12.9,2.1,16.9,7,6,7.4,10.2,14.7,10.4,23.4.2,9.4,3,18.7,2.7,28.1-5,13.3-3,27.6-12.7,40.2-7.2,9.4-15.4,16.9-30.8,20.7-14.7,3.6-23.1,12.8-29.9,21.7-5,6.5-6.7,14-6.5,20.9,3.2,2.9,7.7.9,10.2,2.7-3.2,3.8-6.2,7.7-9.5,11.5l.5.2Z" fill="#f0f0f0"/>
          <path d="M317.9,559.4c-4.2,5.1-7.2,8.7-10.9,13.2-10.2-3.4-19.2-6.3-30.3-9.9,2.5-4.6,4.7-8.9,8.2-15.1,11.4,4.1,21.4,7.5,32.8,11.6l.2.2Z" fill="#96d1f8"/>
          <path d="M698.8,694.4c.5-2.4,1-4.4,1.5-7.9,11.9.9,23.6,1.9,36.3,2.7,0,2.9-.2,4.8-.5,7.9-12.7-1-24.4-1.9-37.1-2.9l-.2.2Z" fill="#ebe4e0"/>
          <path d="M638.1,701.1c-4.2-.9-8.7-1.7-12.9-2.6,1-2.4,2.2-4.8,3.7-8.2,10.9,2.6,21.1,4.8,32.1,7.4-2,2.4-3,4.1-4.2,5.6-6.7-.7-12.7-1.4-18.4-2.1l-.2-.2Z" fill="#ebe4e0"/>
          <path d="M686.9,668.1c-1.5,7.4-3,13.5-4.5,20.7-4.5-1-7.7-1.7-10.9-2.4,1.5-6.7,2.7-12.8,4-19.7,3.7.5,7,.9,11.4,1.5v-.2Z" fill="#ebe4e0"/>
          <path d="M667.4,633.9h-16.4c.5-4.6,1-9.1,1.5-13.5h14.9v13.5Z" fill="#ebe4e0"/>
          <path d="M656,655.8h-14.4c2.2-6.2,4.2-11.8,6.2-17.8,4.2.9,7,1.5,10.7,2.4-.7,5.1-1.7,10.1-2.5,15.6v-.2Z" fill="#ebe4e0"/>
          <path d="M686.6,620v-19.7h11.2c-1,7.2-1.7,13.9-2.7,21-4-.7-6.5-1-8.5-1.4Z" fill="#ebe4e0"/>
          <path d="M688.8,652.9c-4.2-.3-7.2-.5-10.9-.9,1-5.6,1.7-11.3,2.7-17.3,3.7.7,6.2,1.2,8.2,1.5v16.8-.2Z" fill="#ebe4e0"/>
          <path d="M1176.7,792.3c-.7,2.2-.5,4.6-2,6.3-5.7,6.7-12.2,13.2-18.7,20.4-4.2-1.9-8.5-3.4-12.9-5.5,6.5-7.4,12.7-14.4,18.9-21.4,1.7-1.2,3.5-2.2,6-3.8,2.7,1.2,6,2.4,9,3.8l-.2.2Z" fill="#e5e5e5"/>
          <path d="M1139.9,827.8c7.5,2.2,13.7,4.1,20.6,6.3-4,4.6-7.5,8.7-11.7,13.7-6-2.7-11.2-5-17.4-7.7,2.7-3.9,5.5-7.7,8.5-12.2v-.2Z" fill="#e5e5e5"/>
          <path d="M1253.3,830.8c3.2-2.9,5.2-5,8-7.5,10,3.9,19.9,7.9,30.1,12-8.7,9.9-17.2,19.7-26.1,30.1-10.4-4.1-20.2-7.9-30.6-12,5.2-6.2,10-11.8,15.2-18-9.2-3.9-18.2-7.9-26.9-11.6-14.9,5.6-17.9,17.5-28.1,25.8-1.7-.9-3.5-1.5-5.7-2.4,6.5-7.7,12.7-15.1,18.9-22.6-1.7-1.2-3.2-2.4-5.5-3.9,2.7-3.3,5.5-6.5,9-10.6,13.9,6.8,27.4,13.7,41.8,20.7h0Z" fill="#e4e4e4"/>
          <path d="M1217.7,974.4c-3.2-2.4-6.5-5-11.2-8.4,12.4-12.5,25.4-25.7,38.8-39.4,5.2,2.9,9.5,5.3,14.4,8.2-13.2,13.2-25.6,25.8-38.1,38.3-.7.7-2.7.9-4,1.2Z" fill="#e4e4e4"/>
          <path d="M1271.5,909.7c-3.7,4.4-7,8.4-11.2,13.3-8-3.3-15.7-6.5-23.9-9.8,3.2-3.9,6.2-7.7,10-12.2-6-2.7-11.7-5.3-18.4-8.2,4.2-5.1,8.7-10.3,13.9-16.1,6.2,2.6,11.7,4.6,17.7,7.2-4,6-7.7,11.3-11.7,17.3,7.5,2.7,14.9,5.3,23.4,8.4h.2Z" fill="#e4e4e4"/>
          <path d="M811.2,452.1c-3.7.5-7.7.9-13.2,1.5,1.7-12.7,1.5-24.5,14.4-33.9,7.5-5.3,14.2-12.3,23.4-14.5,12.2-3.1,20.9-7.9,26.1-14.9,6.2-8.6,14.2-17.1,11.9-28.1-1-4.8,3-10.3,4.5-15.4,1.2-7.5,6.5-13.2,15.4-18,8.7-4.6,14.9-11.3,20.6-18,4.7-5.5,10.2-10.6,16.7-15.2,6.7-5,14.9-7.4,24.4-7.9,8-.3,15.9-.3,23.9-1.2,34.1-1.7,67.7-5,100.5-11.5-.5,3.8-1.2,7.5-1.7,11.3-4,6.2-7.5,12.7-10.4,19.2-10.9,24-32.3,42.3-60.5,57.7-9,5-17.7,10.1-24.6,16.4-22.6,20.5-53.5,33.2-85.6,45.2-19.9,7.5-40.8,12.2-62.4,15.7-4.2.7-8,2.2-11.7,3.8l-11.2,7.7h-.5Z" fill="#ccebb1"/>
          <path d="M979.2,286.6c-5.7.9-11.2,1.5-16.9,2.4-8.7,1.2-17.2,2.4-25.6,3.6-11.9,11.5-23.4,22.4-34.6,33.2-1.2,1.2-2.7,2.6-4.5,3.3-10,4.3-15.7,10.4-19.2,18-1.2-13-1.2-26-4.5-38.7-1.5-6.5-8.7-12.5-13.4-19.2h-45.8c-27.1,0-54-.2-81.1,0-6.5,0-13.4,1.4-19.4,3.3-21.4,6.8-42.5,14-63.7,21-1.7.5-3.5.9-5.2,1.2,3.5-1.7,6.7-3.4,10.4-5.1,18.7-8.9,37.1-18.5,59.5-22.8,3.7-.7,7.7-1.5,11.7-1.5h206c15.4,0,30.8.9,46.3,1.2v.2Z" fill="#f7f5f4"/>
          <path d="M822.4,444.4c12.2-3.4,24.1-6.8,36.3-10.1,6.5-1.7,13.7-2.6,19.9-4.8,18.2-6.5,36.6-12.5,53.2-20.5,15.2-7.4,28.4-16.8,42-25.5,10.9-7,20.4-15.4,32.1-21.9,27.1-14.7,47-32.5,59-54.9,3.7-6.8,8.7-13.5,12.9-20.4-8.5,22.6-17.4,45.2-41.5,62.5-22.4,16.3-45.8,31.7-69.4,46.9-14.9,9.6-30.1,19.2-47,26.7-23.6,10.4-47.8,21.6-78.6,19.3-6-.5-12.4,1.5-18.9,2.4v.3Z" fill="#f7f5f4"/>
          <path d="M803.3,385.4c-1.7,11.8-8.7,21.6-18.7,30.3-1.5,1.2-3.5,2.6-5.7,2.9-24.1,3.6-51,2.9-57.2-21.2,2-3.1,4.5-6.8,6.7-10.6,11.4,1.5,19.2-4.6,20.6-16.1,13.9-8,25.1-.3,38.6,2.9-10.7,4.3-25.9,2.7-30.1,14,15.9,0,30.1-6.8,45.8-2.2h0Z" fill="#ccebb2"/>
          <path d="M820.7,376c-18.9-3.9-24.1-20.2-8.5-30.1,12.2-7.7,26.4-13.9,40.3-21,2.2.7,4.7,1.5,9,2.7-2,3.9-3.7,7.5-5.7,11.3-3,5.8-6.2,11.5-9,17.1-4.5,9.4-11.4,16.9-26.1,20h0Z" fill="#ccebb1"/>
          <path d="M843.1,400.8c-5-1.7-8.2-2.7-12.9-4.4,7-9.4,13.7-18.7,20.9-28.6,3.5,1.4,7,2.6,10.9,3.9-6.5,9.9-12.7,19.3-19.2,28.9l.2.2Z" fill="#e5e5e5"/>
        </g>
      </g>
    </g>
  </g>
</svg>