<?xml version="1.0" encoding="UTF-8"?>
<svg xmlns="http://www.w3.org/2000/svg" version="1.1" viewBox="0 0 1920 1080">
  <!-- Generator: Adobe Illustrator 28.7.8, SVG Export Plug-In . SVG Version: 1.2.0 Build 200)  -->
  <g>
    <g id="_Слой_1" data-name="Слой_1">
      <g>
        <path d="M1469.5,572.3v249.8h-701.2c28.1-26.7,56.7-52.8,85.5-78.7,10.7-9.7,21.9-18.9,37.3-16.7,8,1.1,16,3.8,23.9,5.6,8.2,1.9,16.5,3.9,24.7,5.9,16.8,4.1,33.5,8.7,50.3,12.6,8.2,1.9,16.5,3.1,24.8,4.2,7.7,1,15.4,2.7,23.2,2.8,6.2,0,12.1-3.2,14.9-8.9,2.7-5.5,1.6-11.9,1.1-17.8-.7-7.7.1-13.5,4.7-19.9,4.4-6.1,9-10.9,15.4-14.9,13.4-8.4,29.6-13.4,44.1-19.8,6-2.7,12.6-4.9,17-10.2,4.1-5.1,4.5-11.4,5.4-17.6,2.4,1.5,4.4,2.6,6.4,3.8-.5,3.6-1.1,7.2-1.6,11.3,13.9,1.2,27.1,2.4,41.1,3.6.1-2.6.2-5,.3-7.4.4-.4.9-.7,1.6-1.3,4.9,6.5,9,15.1,18.4,14.9,10.2-.2,20.2-6.6,30.1-8.9,8.6-2,18.4-3.5,27.2-2.3,8.8,1.2,14.1,9.5,19.8,15.5,3,3.2,6.5,5.9,9.3,9.2,2.6,3,4.6,6.5,7.4,9.4,6.3,6.5,14.6,11,22.2,15.7,16.8,10.3,33.8,19,52.2,25.9,8.5,3.2,16.6,6.7,24.2,11.7,3.9,2.6,7.7,5.4,11.6,8.1,2.4,1.6,7.3,3.4,7.6,6.3-.5,3.3-1,6.6-1.5,10.2,10.5,1,20.1,1.8,29.9,2.7.4-3.5.2-7.2,2.4-9.9.8-.5,1.7-1,2.5-1.5,0-.4,0-.8,0-1.2-6.5-2.9-13.8-2.3-20.8-3.3-6.6-.9-11.6-3.3-17-7-11.1-7.6-22.1-14.5-34.7-19.4-23.6-9.1-45.4-21-66.6-34.7-4.5-2.9-8.8-6.1-11.8-10.6-3.2-4.8-6.2-8-10.6-11.9-8.4-7.4-13.2-17.5-25-19.5-13.3-2.2-27.4,1.4-39.9,5.7-8.4,2.9-18.7,8.8-26.4,1.4-3.6-3.5-5-8.5-9.2-11.5-4.2-3-10.3-2.6-15.2-3.1-6.6-.7-13.2-1.2-19.7-2.1-5-.6-9.8-1.7-13.3-5.7,2.6-48.6,8.4-96.9,15.7-145,7,.3,13.4,0,19.7,3.2-1.9,1.5-3.7,3-5.1,4.2.6,2.4,1,4,1.6,6.2,7.9,2.6,15.9,6.6,24.8,8.7,1.3-3.7,2.4-6.8,3.5-10,6.7,0,14.7,5,20.8,7.8,6.8,3.1,13.5,6.3,20.2,9.5,7,3.4,14,6.8,21,10.3,5.6,2.8,13.7,8.9,19.9,8.4,1.1.5,2.3,1,3.4,1.5,8.9,3.7,17.7,7.5,26.6,11.2-.9,1.2,15.4,3,17.3,3.1,7.3.6,14.5,1.4,21.7,2.3,2.9,6.3,7.1,19.6,16.5,17.1,2.3,1,4.5,2,6.8,3-.8,1,4.1,2.2,5.1,2.5,3.4,1.2,3.9,1,7.1-.2-5.6-4.7-12.7-6.3-19.5-8.7-6.4-2.3-8.2-6.2-10.7-12.2-3-7-7.9-6.2-14.9-6.7-7.7-.6-15.6-.7-23.1-2.6-31-8.3-58.2-25.7-87.3-38.8-8.3-3.5-16.5-7.3-25-10.5-10.9-4.2-21.9-8-32.8-12h0c-19.5-12.2-32-31.6-47.1-48.5-14.7-16.5-36.9-32.2-59.1-35.7-.9-11.5-2-22.9-3.6-34.4-.7-5.5-1.2-11-2.4-16.4-1-4.7-2.3-9.1-.9-13.9,1.5-5.3,4-9.7,4.5-15.4.5-5.5-.4-10.9-1.7-16.2-1.4-5.5-3.1-10.9-5.2-16.1-1.9-4.5-4.9-8.6-5.2-13.5,8.3,5.2,9.1,17.4,11.2,26.1,2.6,11,5.1,22,7.6,33.1,2.4,10.6,4.8,21.1,7,31.8,2.1,10.6,8.9,18.6,15.6,26.8,12.7,15.4,25.2,31.4,38.8,46,6.5,6.9,15.2,9.6,23.5,13.7,8.7,4.3,17.1,6.7,26.9,5.9,9.8-.9,19.6-3.8,29.1-6.2,9.2-2.3,16.6-4.7,25.6-.8,7,3,13.5,6.6,18.2,12.7,5.4,7,8.8,15.9,12.2,24,6.3,14.8,16.5,23.6,31.8,28.3,19.5,6,39,12.1,58.5,18.1,9.6,3,19.2,6.1,29.1,7.7,9.2,1.5,18.8.3,27.9,2.1,9,1.9,18.1,4,27,6.7,9.1,2.8,16.9,7.2,25.4,11.3ZM1303.5,654.8c24,2.2,47.5,4.8,71,6.8.7-4.5,1.1-8.6,1.1-13.1-10.6-1.5-20.7-1.7-30.5-3.3.4-4.4.8-8.1,1.2-12.5-4.1-.4-8.1-.9-12.4-1.3-.2,2.9-.3,4.9-.5,7,.9.6,1.7,1.1,2.7,1.7-.5,1.5-.9,2.9-1.4,4.3-12.2-.7-24-3-36.1-3-.6,5.6-1.1,10.6-1.6,16.1,2,.1,3.6.3,5.3.4.4-1.1.7-1.9,1.1-2.9ZM1150.9,616.9c21.8,2.3,43.6,4.6,65.8,6.9.5-4,.9-7.2,1.3-10.4-3.3-1.8-62.7-7.7-66.3-6.5-.3,2.9-.5,6-.9,10ZM1153,595.8c22.1,2.3,43.8,4.6,66,6.9.5-3.9.9-7.1,1.3-10.2-2.9-1.9-60.4-7.9-66-7-.4,3.1-.8,6.3-1.4,10.3ZM1195.3,677.9c-17.2-1.7-33.6-4.1-50.6-5.3-.3,4.1-.5,7.4-.8,10.8,9.1,1.2,17.4,2.3,25.6,3.5,0,0,.1.2.3.4v3.1h6.3c.5-.8,1-1.7,1.6-2.8,3.4.4,6.7.8,10,1.1.4,1.6.7,2.7,1,4h4.6c.6-4.8,1.2-9.4,1.9-14.7ZM1329.5,794.1c-11-2.6-43.2-5.5-46.4-4.2-.3,3.1-.5,6.2-.9,10,15.4,1.7,30.6,3.3,46.4,5,.3-3.8.6-7.2.9-10.8ZM1328.2,564.2h-13.7c-.9,4.4-1.7,8.6-.5,13,8.2.3,16,.7,24,1,.3-3.4.5-6.3.8-9.5-3.7-.2-6.9-.3-10.1-.5-.2-1.4-.3-2.5-.5-4.1ZM1424.1,711.4c-.3,3.4-.5,6.6-.9,10.5,8,.9,15.9,1.7,24.3,2.6.4-5.3.7-9.9,1.1-14.7h-7.4c-.5.9-1,1.8-1.6,2.9-4.9-.4-9.8-.8-15.4-1.2ZM1372.8,585.3h-33.6v7.3c10.9,1.4,21.7.4,33,.7.2-2.7.3-5.1.5-8ZM1219.7,475.9c3.5.7,6.5,1.3,10.1,2,.1-1.9.2-3.3.4-5.1-3.5-.4-6.5-.8-9.8-1.2-.2,1.6-.4,2.7-.6,4.3ZM1076.7,397.9h6.9v-6h-6.9v6Z" fill="#f8f7e9"/>
        <path d="M762.3,822h-311.2c0-11.8,0-23.5,0-35.2,18.6-15.5,36.1-32.2,53.9-48.6,9.3-8.6,18.6-17.3,27.9-26,4.4-4.2,8.9-8.3,13.3-12.5,3.8-3.5,7.8-8.8,12.4-11.1-.3.4-.6.8-.9,1.2,5.3,4.2,10.6,8.5,14.8,12-3.6-4-8.1-8.9-13-14.3,14.7-13.5,29.2-26.8,43.9-40.4,6.7,5.8,13.5,11.7,20.2,17.5,3.7,4.7,8.4,8.8,12.3,13.5,3.7,4.4,7.3,8.9,10.8,13.4,3.1,4.1,5.9,8.4,9.3,12.2,3.6,4,8.3,6.4,11.9,10.3v7.6c3.5-5.9-.8-10.5-5.4-14-5.3-3.9-8.8-9.1-12.8-14.3-7.7-10-15.4-22.3-26.1-29.4-5.6-6.6-13.1-11.3-18.7-17.9,6-5.6,11.8-11,17.7-16.6,6.1.1,10.4,1,15.5,4.5,5.1,3.5,10.2,7,15.2,10.5,9.2,6.4,19,16.2,30.7,16.7-2.1-2-5.7-2.1-8.3-3.3-2.7-1.2-5-2.9-7.3-4.7-4.8-3.7-9.6-7.2-14.7-10.6-4.5-3-8.8-6.4-13.4-9.2-4.9-2.9-10-3.6-14.9-5.8,7.9-8.4,17.1-15.9,25.5-23.8,8.5-8,16.9-16,25.7-23.5,1.9.5,3.7.9,5.5,1.3v-.7c-1.3-.6-2.7-1.3-4.3-2,4-4.4,8.6-8.3,13-12.3,4.5-4.2,10-8.2,13.1-13.5-.1-.7-.2-1.3-.3-2-.8,0-1.3-.1-1.9-.2.1-.4.2-.8.3-1.4-3,.8-6.3,5.1-8.6,7.2-2.5,2.3-5.1,4.6-7.6,7-5.6,5.1-11.1,10.2-16.6,15.4-10.6,9.9-21.2,20-32.1,29.6-1.8-1.6-3.5-3.1-5.5-5-8.9,6.7-16.5,14.7-24.6,21.8-6.7-4.8-14.2-7.2-21.7-10.7-8-3.7-15.9-7.7-23.2-12.6,5.3-6.4,10.6-12.8,15.9-19.2,2.8-3.4,5.6-6.8,8.4-10.2,1.2-1.5,5.7-5.3,3.6-6.9-.5-.3-1-.5-1.5-.8,1.2-1.5,2.5-3,3.7-4.5.5-.3,1-.5,1.5-.8l.7,2.2c4.6-1.2,5.2-7.2,6.3-11,13.8-.7,27.1-1.3,40.6-2v-20.4c21.4-1.4,42.9-1.1,64.3-3,6.6-6.2,13.3-12.3,20.1-18.3.7,1.1,1.4,2.3,2.3,3.3,1.9,2.2,4,4.3,6,6.4,0,.5,0,1,0,1.5-3.8,3.5-7.6,7.1-11.5,10.6-1.3,1.1-2.5,2.2-2.5,4.9,5.2-4.7,9.8-8.9,14.4-13,0,0,.2-.1.3-.2l2.3,1.5c-.4.6-.7,1.2-1.1,1.8.2.2.4.4.6.6,5.8-5.3,11.6-10.5,17.4-15.8,8.6,7.9,14.9,17,18.8,28.1,2.1,6,1.3,13.2.9,19.5-.4,7.1-.9,14.2-1.4,21.3-.3,8.8-.6,17.5-.9,26.9-7.4-.2-21.5,2.6-25.3-5.9-.2-7.1-2.2-13.2-9.7-16.6-7.2.8-14.2,2.5-21.3,4.3-7.5,1.9-12.9,1.6-20.3-.4,0,.4-.2.7-.3,1.1,7.3,3.3,13.2,2.5,20.7.7,7.1-1.7,14.3-3.1,21.5-4.5,2.6,2.7,4.6,4.7,6.6,6.7.9,2.9,1.8,5.9,2.7,8.8,0,3.2,2.1,4.9,4.3,6.6,7,.4,13.9.7,20.5,1,1.7-1.6,3-2.7,4.4-4,11.6,2.5,23.2,5,34.9,7.5,5.9,1.3,11.9,2.6,17.8,4,4.8,1.1,8.8,3.4,13.4,5.1-3.9-4.3-8.2-5.4-13.7-6.3-5.7-.9-11.3-2.6-16.9-3.9-11.7-2.8-23.5-5.3-35.2-7.8,0-6.5.8-13.1,1.4-19.5.6-12,1-24,1.7-36,5.4,4.7,11,5.9,18,6.1,8.2.3,16.4.4,24.6.6h25.4v-.7c-.7,0-1.4,0-2.1-.1.5-.2,1.1-.7,1.6-.7,6.2-.3,12.4-.5,18.6-.8,4.2,1.9,10.8.7,15.5.7,3,0,12.6,1.4,14.5-.8,1.5-.5,3-1,4.5-1.5,2.3,1.3,5.9.5,8.5.4,3.4-.2,6.9-.3,10.3-.6,7-.5,13.9-1.3,20.9-1.9,0,12.1-1.2,24.1-1.8,36.2-.3,6.3-.5,12.4-2.2,18.5-1.5,5.7-3.7,11.1-5.4,16.7-3.7-5.4-7.5-10.6-10.3-16.6-2.3-5-3-10.4-5.2-15.4-4.9-11.4-3.2-22.6-3.2-34.6-.4,2.4-.8,4.4-1.2,6.4v-6.7c-1.1.3-1.7.5-2.3.7-1.8,5.9-1.1,11.6-1.9,17.7-.7,5.8,1.2,10.4,3.4,15.7,3.6,8.8,4.5,21.6,12.8,27.4,3.4,4.4,6.5,8.9,8.2,14.3v5.8c-1.8-.7-3.5-1.5-5.2-2.2,0,.2-.2.4-.3.6,1.9,1,3.9,2.1,5.7,3.1,2.1,4.2,1,8.6,1.3,12.9h0c-6.1,15.4-13.3,30.1-18.8,45.7-4.8,13.4-8.9,29.4-26,29.3-17.5,0-29.7,13.2-42,24.1-28,24.8-55.3,50.2-82,76.4ZM639.6,668c3.3-2.8,6.5-5.5,10-8.5-4.4-4.1-7.5-8.5-11.9-11-3.8,3.7-6.9,6.8-10.2,10.1.4.7.8,1.5,1.2,2.3-.5.9-.9,1.6-1.8,3.1,3.8,3.2,7.7,6.4,11.6,9.7,0,.3-.1.7-.2,1,1.2-.9,2.3-1.7,3.5-2.6-.7-1.3-1.2-2.2-2.2-4ZM787.5,562.9c.8,4.1,1.5,7.5,2.3,11.2,8.4,2,16.8,1,25.4,1.2v-7.9c-7.4-2.3-14.9-.2-22.1-1.4-.6-1.2-1.1-2.2-1.7-3.3-1,0-1.9.1-3.9.3ZM747.5,537.6c-2.8,2.6-5.4,4.8-8.1,7.3-2.1-1.8-3.9-3.5-6.3-5.6-1.8,2.2-3.4,4.2-5.2,6.3,1.7,1.4,3.5,2.8,5,4.1-1.5,4.3,1.7,5.3,3.2,7.3,1,0,1.9-.2,2.8-.2,2.6,2.8,5.1,5.6,8.1,8.8,2.4-2.1,4.4-3.9,7.3-6.6-3.8-3.1-7.2-5.9-10.7-8.7,3-3.2,5.3-5.7,7.9-8.4-1.4-1.5-2.5-2.6-4-4.3ZM727.7,517.6c-2.1-2.2-3.7-4-5.6-5.9-4.6,4.8-10,7.8-13.4,13.4,1.7,1.5,3.2,2.9,5.2,4.8,4.4-3.9,8.8-7.8,13.9-12.3ZM709.7,555.1c-4.1,3.6-7.3,6.5-10.8,9.5,1.9,2,3.6,3.8,5.4,5.7,3.8-3.4,7.1-6.5,10.5-9.5-2-2.5-3-5.4-5.1-5.6ZM933.3,577.2v-24.8c-1.1,0-2.6-.1-4.3-.2-.3,8.6-.6,16.7-.9,25h5.2ZM601.7,616.2c2.2,2.1,3.7,3.5,5.5,5.1,6.5-5.9,12.6-11.6,18.7-17.2-2.1-2.2-3.7-3.9-5.5-5.8-6.1,6.1-12.9,11.1-18.7,17.9ZM769.4,599.3c1.8-2.7,1.3-5.2.4-8.4-6.9-.3-13.8-.6-21.4-.9-.5,2.4-1,4.4-1.6,7.1,7.6,3.1,15.3,0,22.6,2.2ZM893.8,614.8v-6.9h-6.7v6.9h6.7ZM902.7,620.2c-7.8-1.9-15.3-3.4-23.3-4.5-6.1-.8-12.9-1.7-18.3,2.1,14.2-3.5,27.7.9,41.6,2.3ZM637.7,726.5c-1.4,3.6-2.6,6.7-3.9,10,1.6.7,2.8,1.1,4.1,1.7,1.3-3.6,2.5-6.8,3.8-10.5-1.5-.4-2.5-.7-4.1-1.2ZM843.1,560.2c.2,2.4.3,4,.5,5.7h6.7v-6.5c-2.6.3-4.7.5-7.2.8ZM674.9,721c2.1.8,3.9,1.5,6.2,2.3.9-2.2,1.7-4.1,2.5-6.2-2.2-.9-4-1.6-6.2-2.5-.9,2.2-1.6,4.1-2.5,6.4ZM731.6,607.4c-2.6.2-4.5.3-6.5.4v6c2,.4,3.6.8,6,1.3.1-2.6.3-4.8.4-7.7ZM692.8,668.9v-7.4c-2,0-3.9.2-5.9.3v6.1c2,.3,3.5.6,5.9,1ZM675,735.7c-2.2-.9-3.7-1.5-5.7-2.4-.9,1.9-1.7,3.7-2.7,5.8,2.2,1.1,3.9,1.9,6,3,.9-2.3,1.6-4.2,2.4-6.4ZM763.2,630.1c2.3-.1,4.2-.3,6.2-.4v-6h-6.2v6.4ZM674.6,552.1c-2.4-.3-4.2-.6-6.4-.9v5h6c.2-1.4.3-2.4.5-4.1ZM840,599.4c-1.1,1.8-2,3.1-3,4.7,1.6,1,2.8,1.8,4.3,2.8,1-1.7,1.9-3.1,3-4.9-1.5-.9-2.6-1.5-4.4-2.6ZM617.4,779.5c-2.2-5.8-4.9-7.7-7.2-5.5q3.9,5.9,7.2,5.5ZM782.4,555.7c-.2-.3-.5-.6-.7-.9-3.1,2.1-2.6,3.2-2.8,7,1.7-.4,2.6-.7,3.5-.9v-5.3ZM889,587.7c.3,1.3.5,2.2.6,2.9,4.7.7,4.9.6,4.9-2.9h-5.5Z" fill="#f8f7e9"/>
        <path d="M1469.5,572.3c-8.5-4.1-16.4-8.4-25.4-11.3-8.8-2.8-17.9-4.8-27-6.7-9.1-1.9-18.6-.6-27.9-2.1-10-1.7-19.5-4.7-29.1-7.7-19.5-6-39-12.1-58.5-18.1-15.3-4.7-25.5-13.5-31.8-28.3-3.4-8.1-6.8-17-12.2-24-4.7-6.1-11.2-9.7-18.2-12.7-9.1-3.9-16.4-1.5-25.6.8-9.5,2.4-19.3,5.3-29.1,6.2-9.8.9-18.2-1.5-26.9-5.9-8.3-4.1-17-6.8-23.5-13.7-13.6-14.6-26.1-30.6-38.8-46-6.7-8.1-13.5-16.2-15.6-26.8-2.2-10.6-4.6-21.2-7-31.8-2.5-11-4.9-22.1-7.6-33.1-2.1-8.6-2.9-20.9-11.2-26.1-1.2-1-2.4-2.1-3.7-3.1-1.8-4-4.7-6.8-9-8.2-2,0-4,0-6.1.1-.7-.3-1.5-.6-2.2-.8-5.8-3.9-13-6.2-19.3-9.1-6.6-3.1-12.3-6.3-19.8-4.4-6.9,1.7-13.5,5-20.7,4.8-6.4-.1-12.4-2.7-17.6-6.2,138.5,0,277,0,415.5,0,12.7,19.9,25.4,40.7,40.7,58.7,14.4,17,35.6,26.9,57.6,19.3v236.2Z" fill="#bddc87"/>
        <path d="M451,779.3c0-165,0-330,0-495,5.9,1.3,11.1,4.2,15.8,8,5.5,4.5,12,6.9,18.7,8.6,1,.5,1.9.9,2.8,1.3,4.3,7.8,7.9,15.8,11.4,24,1.8,4.2,3.5,8.4,5.3,12.6,1.7,3.7,4.2,6.3,7,9.3,12.3,13,24.7,25.7,36.2,39.4,28.3,6.4,56.2,16.9,83.5,26.6.8,3.9,2.1,7.8,2,11.8-.1,4.4-.2,8.4,0,12.9.5,7.6-3,15.6,3.2,21.8-1.8,0-3.6.2-6,.3v29.7c-8.6,1.7-17.3,3.2-25.8,5.3-16.6,4-33.2,7.9-46.2,20.2-8.1-3.6-16.8-17.1-26.6-11.4-5.1,2.9-9.4,8.7-13.6,12.8-4.4,4.3-8.8,8.6-13.1,12.9-17.1,16.8-34.3,33.5-51.3,50.3,2.2,1,3.6,1.6,4.9,2.2,11.6,10.2,22.8,20.7,34.9,30.3,5.9,4.7,11.9,9.4,17.8,14.1,4.6,3.6,12,11.9,17.8,11.9,4.9-2.2,9.7-4.3,14.2-6.3,7,3.3,13.4,8.2,19.8,12.3,6,3.9,14.1,7.6,17.9,13.9-43.8,39.8-86,81.5-130.7,120.3ZM545.7,415.5c2.1.3,3.9.6,6.1.9.5-2.3.9-4.1,1.3-5.6-2.5-2.1-4.7-2.6-7.4-1v5.8ZM562.9,439.2c2.4-.2,4.8.3,6.1-.7,1.2-.9,1.1-3.4,1.7-5.6-2.7-.4-4.6-.6-6.8-.9-.4,2.5-.6,4.3-1.1,7.2Z" fill="#f8f7e9"/>
        <path d="M955.8,258c5.2,3.5,11.2,6.1,17.6,6.2,7.2.1,13.8-3.1,20.7-4.8,7.5-1.9,13.2,1.4,19.8,4.4,6.3,2.9,13.5,5.3,19.3,9.1-.2.6-.1,1.5-.5,1.7-4.8,2.7-9.6,5.3-15.3,5.8-7.9-2.3-15.9-1-24-1.7-7.4-.6-14.5,0-21,3.9-21.1-1.1-42.4-4.4-63.5-4.4-1.6,2.7-1.2,6.4-1.5,9.5-.3,3.4-.6,6.8-.9,10.2-.6,7.5-1.2,15-1.7,22.5-.9,14.4-2.3,28.8-3.7,43.2-6-.3-12.1-.3-17.9-1.7-5.2-1.2-9.4-1.7-14.7-1.5-11.1.6-21-5.9-32.3-4-2.7,7.4-3,17.2-.4,24.7-.3-6.5,0-20.5,1.1-23.3,7.3-.6,13.3,1.3,20.4,2.9,3.8.9,7.7,1.3,11.6,1.1,3.5-.2,6.9-.8,10.3.1,3.7,1,6.6,2.3,10.6,2.5,3.9.2,7.7.3,11.6.4,6.7.2,13.5-.3,20.1.7-2.6,16.2-5.1,32.2-7.7,48.7-18.9.5-37.3,1-56,1.6-.8-10.7-2.1-20.8-.6-31.1,10.5.1,19.2-1.1,20.9-2.8-10.3-2.1-24.9-1.8-27.2.8,1.5.9,3,1.7,4.1,2.4.3,10.3.6,20.4.8,30.4-5.9,1.6-12.1,0-17.7,2.8.8.5,1.5,1.2,2.3,1.5,1.2.4,2.4.5,3.7.8h-4.6c-1.5,4-5.6,4.5-8.2,7.6-.9-2.1-1.6-3.5-2.3-5.2-.7-.4-1.8-.9-3.5-1.8.7,1.2,1.1,1.8,1.4,2.4-1.2,0-2.5,0-3.7,0,0-.3,0-.5,0-.8-1.2-2.9-3.8-3.4-6.5-4,1-.3,2-.6,2.7-.8-1.7-10.3.4-21.5-2.1-31.6-27.8,1.8-55.6,3.2-83.4,4.1-13.5.4-27,.8-40.5,1.5-6.7.3-13.2.4-19.7-1.3-6-1.6-11.7-3.5-17.8-4.9-3.1,9.5-6,18.3-8.9,27.2-31.8-10.2-63.1-22.3-95.6-30.4-6.1-5.7-11.2-12.2-16.8-18.4-5.9-6.5-12.5-12.2-18.6-18.6-10.9-11.4-15.9-29.3-21.8-43.7,6.1,0,12.4.5,18.4-.8,28.3-4.7,56.1-13.5,84.9-6.9,23,5.3,40.5,22.3,62.8,29.6,24.7,8.1,48.7,5.2,73.6-.3,12-2.7,24.2-5.3,35.9-9.1,12.1-4,22.7-9.9,33.5-16.4,22.2-13.3,44.6-26.3,66.3-40.4,28.7,0,57.5,0,86.2,0ZM846.4,359.6h-8.3c0,5.4-.4,11,0,16.4.4,4.8,3.9,5.1,8.2,4.9,10.8-.3,21.5-1.4,32.3-1.4-.5-5.8.8-11.1-1.2-16.1h-7.4c-.3,1.9-.6,3.5-.9,5.1h-22.7v-8.9ZM539.2,328.6c1.2-2.8-1.7-2.8-3-3.8-.3-1-.6-2-1-3.1-6-1-12-1.9-17.9-2.8-.8,1-1.5,1.9-2,2.6-1.3.3-2.4.5-3.4.8v2.2c1.5,1.7,2.7,3.1,4.2,4.6,5.8.9,11.9,1.8,18,2.7,0-.2,0-.5-.1-.7,1.7-.8,3.4-1.6,5.3-2.5ZM876.6,335.2c-.3,2.6-.5,5-.8,7.9h6.9v-7.5c-2.1-.1-3.9-.2-6.1-.3ZM1001.6,278.6c2.5-.5,4.6-1,6.4-1.3v-6.9h-6.4v8.3ZM876,356v-5.7c-1.9.1-3.6.2-5.6.3.1,2,.2,3.6.3,5.4h5.4Z" fill="#f8f7e9"/>
        <path d="M869.5,258c-21.7,14-44.1,27.1-66.3,40.4-10.8,6.5-21.5,12.4-33.5,16.4-11.7,3.8-23.9,6.4-35.9,9.1-24.8,5.6-48.9,8.4-73.6.3-22.3-7.3-39.7-24.3-62.8-29.6-28.8-6.7-56.6,2.2-84.9,6.9-6.7,0-13.5,0-20.2,0-1.5-2.8-2.7-5.7-4.4-8.3-7.7-11.8-15.6-23.4-23.4-35.2,135,0,270,0,405,0Z" fill="#bedd88"/>
        <path d="M844,420.7c-1.2-.2-2.5-.4-3.7-.8-.8-.3-1.6-1-2.3-1.5,25.4-1.1,51.3-.5,76.5-3.4,1.7-11.3,3.5-22.5,5.4-33.8,1.8-10.8,2.5-22.6,7.3-32.5,3.5-3.7,8.7-5.8,12.8-8.8,3.7-2.7,7.2-5.8,9.9-9.6,6.5-9.2,11.6-20.1,16.8-30,2.3-4.5,2.7-9.9,5.1-14.2,2.4-4.2,7.9-5.9,12.4-6.4,5.5-.6,11.2,0,16.7.1,5.2,0,10.6-.6,15.4,1.4-5.2,3.3-14.9,1.3-21,1-5.9-.3-15.4-1.6-20.1,2.9-2.1,2.1-2.3,5.1-3.1,7.8-1,3.4-2.8,6.5-4.5,9.7-3.7,6.9-7.4,13.7-11.1,20.5-2.3,3.7-4.3,7.6-7,10.9-2.7,3.2-6.2,5.7-9.4,8.6h35.9c2.5,2.9-6.6,2.7-7.8,2.7-4.5.3-9,0-13.6-.2-9.1-.5-18.2-.2-26.1,5-6.1,20.8-7.4,43-11.8,65.2,5.9,0,11.8-.4,17.8-.6,6.3-.2,12.8.4,19-.9l67.5-1.6c13.6-2.5,28.9-1.7,42.7-.5,1.1-6.6,0-13-.7-19.7-.8-6.6-1.5-13.2-2.3-19.8-1.2-9.6-1.1-21.9-12.7-24.4-5.8-.5-11.6-1.3-17.3-1.5-8.2-.3-16.4,0-24.6,0-.1-.6-.3-1.3-.4-2,14.1-.7,27.7-1.3,41.7,1.2,6.4.1,11.4-.6,13.7-7.3,2.6-7.6,1.9-17-.3-24.5-2.4-8.3-6.4-16.2-10-24.1-1.5-3.4-2.9-8.3-5.5-11-2.2-2.2-5.6-2.7-8.3-3.7,0-.3.1-.7.2-1,1.4-.1,2.8-.2,4.2-.3,4.2,1.4,7.1,4.2,9,8.2,4.5,10.5,9.7,21,12.6,32,2.8,10.9,1.3,19.7-2.2,30.1-2.1,6.1-.8,10.1.6,16.1,1.2,5.2,1.3,10.9,1.9,16.1,1.3,11.5,4.5,23.4,3.2,35,22.3,5.4,41.8,16.8,57.6,33.6,8.5,9,16.6,18.6,24.8,28,7,8,14.7,20.3,26,22.1h0c.7.5,1.2,1.2,2,1.5,5.3,2,10.8,3.8,16.1,6,13,5.2,26,10.5,39,15.8,14.1,6.8,27.8,14.5,41.9,21.3,6.9,3.3,14.1,6.1,21.2,9,7,2.9,13.7,6.1,21.1,8,7.5,1.9,14.8,2,22.5,2.6,5.7.4,15-.4,17.8,5.6,2.4,5.3,3.7,10.9,9.6,13.3,6.5,2.6,13.8,4,19.7,7.9-.2.4-.3.8-.5,1.2-3.1-.9-6.1-1.8-9.2-2.7-2.3-1-4.5-2-6.8-3-10.2-1.4-12.4-9.8-15.6-17.6-6.1-1.9-12.9-1.8-19.3-2.6-6.9-.8-13.8-1.6-20.6-2.3-8.9-3.7-17.7-7.5-26.6-11.2-1.1-.5-2.3-1-3.4-1.5-21-9.7-41.2-21.1-62.4-30.3-11.4-4.9-23-9.2-34.6-13.4-9.8-3.6-19.9-7.5-30.4-4.6-2.7,11.6-3.5,23.9-5.1,35.8-1.5,11.8-3.1,23.6-4.6,35.5-3.2,24.7-4.9,49.6-6.3,74.4,3.6,5,9.6,5.3,15.2,6,6.9.8,13.8,1.5,20.7,2,5.9.4,11,1.2,15.2,5.7,3.5,3.7,5,9.5,9.9,11.8,10.1,4.5,23.8-4.4,33.5-7,10.1-2.7,23.4-5.6,33.6-1.9,5.6,2,8.6,5.9,12.4,10.2,3.7,4.2,8.3,7.5,12,11.7,4,4.6,7.3,9.9,11.9,13.9,3.7,3.3,8.1,5.8,12.3,8.4,11.1,6.7,21.8,14.2,33.5,19.8,10.7,5.2,22,9.2,32.9,14,11,4.9,20.8,10.6,30.6,17.5,5.9,4.1,9.9,5.6,17.1,6.4,6.3.7,12.5,1.3,18.8,2-.3,1.2-.5,1.8-.7,2.5-5.2-.5-10.5-1-15.7-1.5-3.5-.4-7-1-10.5-1.5-9.1-5.5-17.9-11.4-27-17-9.2-5.6-19.1-8.9-29-13-18-7.3-34.2-16.8-50.6-27.1-7.5-4.7-14.1-10.1-19.9-16.9-5.6-6.6-11.9-12.4-17.5-18.9-6-6.9-12.7-10-22-9.8-9.5.2-19.6,2-28.6,5-7.7,2.6-17.3,8.5-25.8,5.8-6.7-2.2-10.6-10.4-15.1-15.4-1.6-.5-3.2-1.3-4.9-1.5-10.3-1.1-20.7-2-31.1-3-3.8-1.5-7.7-3-11.9-4.7-1.2,6.7-1.3,14.9-6.5,19.9-5.9,5.7-15.8,8.5-23.2,11.8-14.8,6.5-32.4,11.4-44.6,22.4-4.8,4.4-9.6,10.2-11.8,16.4-2.4,6.8-.5,15.2-.4,22.3.2,6.4-2.2,12.6-8.6,15.1-6.3,2.5-14.7.5-21.2-.4-8.4-1.1-17-1.8-25.3-3.5-7.8-1.6-15.4-4-23.1-6.1-16.5-4.5-33.2-8.2-49.8-12.1-8.5-2-17-4-25.4-6-7.3-1.8-14.3-2.9-21.7-1.1-7.9,1.9-13.4,6.6-19.5,11.7-6.1,5.1-12,10.4-18,15.7-25.2,22.3-49.9,45.2-73.9,68.8h-3c26.9-26,54.3-51.5,82.2-76.5,11.8-10.6,23.2-22.6,40.1-22.6,17.6,0,22-16.2,26.9-30,1.7-8,6.4-15.9,9.6-23.5,3.3-7.6,6-15.1,8.4-23h0c.3-1,.7-2,.7-3.1.4-5.9-.7-11.5-2.2-17.1-1.7-5.4-4.8-9.9-8.2-14.3-2.2-4.2-5.1-7.5-6.6-12.2-1.7-5.1-3-10.2-4.8-15.2-2-5.4-3.7-10.4-3.5-16.3.1-5.7.5-11.4.8-17.1.6-.2,1.2-.4,2.3-.7v6.7c0,6-.8,12.5.2,18.4.9,5.5,3.7,10.3,5,15.6,2.7,11.2,8.8,19.5,15,28.9,3.4-12.2,7.4-23.6,8.5-36.3,1-12.8,1.2-25.7,1.2-38.5-13.5.8-27,1.8-40.4,2.9-1.5.5-3,1-4.5,1.5-10,0-20,0-30,0-6.2.2-12.4.5-18.6.8-.6,0-1.1.5-1.6.7-7.7,0-15.5,0-23.2,0-8.3-.2-16.5-.5-24.8-.7-7.5-.2-12.7-2.5-18.4-7.2-.9,12.6-1.4,25.2-1.9,37.9-1.3,6.4.4,14.9-2.4,20.7-.3,0-.6,0-.9-.1-.8-8,0-16.2.3-24.3,1.1-6.7.9-13.4,1.4-20.2.5-6.8,1.7-13.7-.6-20.3-4.1-11.6-10.3-21.8-20-29.6-5.9,4.5-11.3,9.6-16.8,14.6-.8-.5-1.5-1-2.3-1.5,9.2-8.7,18.1-17.6,26.7-26.9-12.6-8.8-26.8-4.3-40.8-2.9-15.5,1.6-31.1,1.3-46.7,1.3,0-.7,0-1.5,0-2.2,16.7-.3,33.7.4,50.2-1.9,7.3-1,14.5-2.4,21.8-1.8,3.4.3,6.7.9,9.8,2.1,3,1.1,5.7,3.4,8.9,3.9,20.9-19.2,41.1-39.1,62-58.3,1-4.4-1.6-6.4-3.4-9.9,1.2,0,2.5,0,3.7,0,1.3,2.1,2.5,4.1,3.9,6.3,4.4-3.1,8.8-6.3,13.4-9.2ZM907.8,712.5c-3.5,3.8-7,7.5-10.6,11.4,2.9,1.9,7.5,2.1,10.9,2.9,4.7,1.1,9.4,2.2,14.1,3.3,9.4,2.3,18.8,4.7,28.2,7.2,18.1,4.7,36.2,9.6,54.7,12.8,8.6,1.5,17.3,2.6,25.9,3.7,6.7.8,14.3,1.6,18.5-5.1,3.8-6.2.6-16.5.6-23.4,0-8.7,5.2-14.9,9.7-21.8v-7.8c-1.9-4.4-6-6.8-9.9-9.3-4.9-3.1-10-6-14.7-9.4-4.3-3-8.2-6.5-12.9-8.9-4.6-2.3-9.6-2.9-14.3-4.7-22.4-8.5-43.4-22.5-68-22.8-1.6,1.9-3.5,4-5.3,6.1-.4.5-.8.9-1,1.5-3.4,7.8-6.8,15.5-10.2,23.3-5.1,10.3-8.2,21.3-11.7,32.1-1,3.2-2.7,6.1-4.1,9.1ZM949,417c-17.4,1.2-34.9,1.5-52.4,1.8-15.9.3-33.9-1.6-48.8,4.5-14.9,6.2-25.9,18.8-37.3,29.7-12.3,11.7-25.4,22.8-37,35,.1.3.2.6.3.9,26.4,2.8,52.8,1.2,79.2-.8.5.5.9,1.1,1.4,1.7-2,.5-3.6.9-5.2,1.3-7.4.5-14.8,1.3-22.2,1.4-15.6.2-31.1,0-46.7,0-2.8-.6-5.7-1.3-8.9-2-1.2,12.3-3.5,25,.4,37,1.6,4.9,4.2,10.2,7.6,14.1,3.7,4.3,8.3,5.3,13.6,6.4,19.7,0,39.4,0,59.2,0,9.4-.8,18.8-.7,28.2-.7,8.8,0,17.1-1.3,25.8-2.2,18.3-1.9,36.6-3,54.9-4.6,6.9-5.3,6.9-13,5.6-20.9-1.4-9.1-3.1-18.2-4.6-27.2-12.7-4.5-27.7-3.6-41-3.2-13.9.4-27.8,1.4-41.7.3v-1.3c10.9-2.2,22.4.5,33.4-1.5,6.6,0,13.2,0,19.8,0,8.4,0,16.9-.4,25.2,1.5.9.4,1.8.7,3,1.2,0-11.8,0-22.9,0-34.1,0-.8-.4-1.6-.7-2.4v-36c-4.1,0-7.7,0-11.3,0ZM967.7,537.7c-.4.7-.7,1.3-1.2,2.2,15.7.8,43.5.4,46.3-.9-3.7-2.5-7.1-4.9-10.6-7.2-1.4-.7-2.8-1.5-4.2-2.2-6.4-3.2-12.7-6.5-19.1-9.7-3.4-2.4-6.7-4.7-9.7-6.9v21.9c-.5,1-1,1.9-1.5,2.9ZM963.2,425.3v60.1c7.7-.3,14.7-.6,21.7-.9,3.8-.2,7.5-.5,11.3-.7,5.5-1.9,15.1-6.4,20.4-3.1-4.2,1.5-8.4,1.5-12.6,3.2-4.1,1.6-8.2,2.4-12.6,2.7-9.1.7-18.5-.1-27.3,2.1v2.6c.2.8.5,1.7.7,2.5,1,4.7,2,9.4,3,14.1,6.5,8,15.8,12.6,24.9,17,9.7,4.7,18.3,10.5,27.3,16.3,8.3,5.3,11.8,13.7,12.2,23.3.5,11.3-.9,22.9-1.1,34.2-.3,10.5-.5,21-.8,31.6-.3,10.6-1.7,21.3-1.6,32,0,9.9,8,13.7,15.6,18.2,8,4.7,17.4,11.8,27.1,11.3,9.4-.5,19.3-7,27.8-10.6,9.3-3.9,19.2-7.4,28-12.4,9.1-5.3,9.6-14,10.6-23.6,1-10.2,1.9-20.5,2.7-30.8,1.8-21.2,3.6-42.3,6.3-63.4,1.4-10.9,2.9-21.8,4.5-32.7,1.3-9.7,4.7-21,3.3-30.8-1.3-9.1-9.8-15.9-15.3-22.7-6.3-7.7-12.9-15.2-20.1-22.1-7.4-7.1-15.9-12.9-24.7-18.2-8.2-4.9-17-10-26.8-9.8-1.3-.2-2.5-.5-3.8-.7-9,0-18,0-26.9,0-24.7,2.4-49.8.2-74.5,2.6.3,3.1.6,5.8.9,8.6ZM1018,543c-10-2.1-21.6-.9-31.8-.3-9.9.6-19.8.1-29.7,1-4.6.3-9.1.6-14.2.9-2,14.8.4,30.2-2.2,44.9-1.4,7.8-3.9,15.6-6.1,23.2-2,7-3.2,14,.1,20.8,5.6,5.9,16.4,4.8,23.8,6.7,8.7,2.2,16.9,6.3,25.2,10,8.7,3.8,17.4,8.2,26.4,11.1,5.8,1.9,13.7,2.6,16.3-4.4,1.7-21,2.5-41.8,3-62.8.1-5.4.2-10.9.3-16.3,0-4.7,1-9.5.7-14.2-.5-7.8-3.4-18.3-11.9-20.7ZM755.2,505.2c4.1,4.4,7.9,8.5,11.6,12.5.5-8,1.1-15.8,1.6-23.5-.2-.1-.5-.2-.7-.4-4.1,3.7-8.1,7.4-12.5,11.4ZM1166.7,494c-3.7-3-6.8-5.4-10.4-8.3v9.2c3.4-.3,6.4-.6,10.4-.9ZM1062.9,700.4c2.6-2.1,4.8-3.8,7.6-6-3.9-.8-6.6-1.4-9.7-2.1.7,2.8,1.3,5,2.1,8.1ZM1026.9,667.5c-.5-2.6-.8-4.5-1.3-7-1.9,1.7-3.2,2.9-4.7,4.3,2.1,1,3.7,1.7,6,2.8ZM935,641.9c1.4-1.1,2.5-1.9,4-3.1-2-.9-3.3-1.4-5.1-2.2.4,2.1.7,3.4,1.1,5.3Z" fill="#fdfdfc"/>
        <path d="M1469.5,336c-22,7.6-43.2-2.3-57.6-19.3-15.3-18-28-38.8-40.7-58.7,11,0,22,0,33,0,9,14,18.1,27.7,28.6,40.6,4.4,5.4,8.6,10.6,15.7,12.2,7,1.6,14.7-.1,21-3.4v28.5Z" fill="#95d3f1"/>
        <path d="M1469.5,307.5c-6.3,3.2-14,4.9-21,3.4-7.1-1.6-11.3-6.9-15.7-12.2-10.5-12.9-19.6-26.6-28.6-40.6,21.8,0,43.5,0,65.2,0v49.5Z" fill="#bddc87"/>
        <path d="M701.5,550.5c.6,0,1.1.1,1.9.2.1.7.2,1.4.3,2-18.6,17.1-37.2,34.2-55.8,51.3-33.1,30.4-66.4,60.6-99.3,91.2-32.4,30.1-64.2,61.1-97.7,90,0-1.3,0-2.5,0-3.8,22.6-20.5,45-41.1,67.4-61.8,11.2-10.3,22.2-20.7,33.3-31.1,10.8-10.1,22.3-19.6,32.4-30.3-7.5-6.6-16.1-11.8-24.4-17.2-6.9-4.5-16.1-8.3-15.7-17.8.3-.3.5-.5.8-.8,1.4,3.5,2.2,7,5.1,9.6,3.3,3.1,7.8,5.3,11.6,7.6,8.5,5.2,17,10.5,24.4,17.1,19.8-17.4,38.8-35.7,58.3-53.4,19.3-17.5,38.6-35,57.3-53Z" fill="#fdfdfd"/>
        <path d="M464.5,258c7.8,11.7,15.7,23.4,23.4,35.2,1.7,2.6,2.9,5.5,4.4,8.3,3.5,11.3,9.7,22.2,14.5,33,4.9,11.1,14.4,18.5,22.9,26.8,6.7,6.6,11.8,15.2,19.1,21.1,3.8,3.1,8.2,3.6,12.9,4.7,4.9,1.2,9.7,2.8,14.5,4.3,21.4,7,42.7,14.3,64.1,21.5,10.6,3.6,21.1,7.6,32.2,9.5,10.7,1.8,21.4,1.3,32.2.9,11.1-.4,22.2-.9,33.4-1.2,10.6-.3,21.9-1.8,32.4-.8,0,.4,0,.9,0,1.3-2.5.4-5,.8-7.5,1.2-22.3.9-44.6,2.1-66.8,2.2-11.2,0-22.2-.7-33.1-3.6-9.6-2.5-18.7-6.3-28.4-8.6,3.3,8.5,2.2,16.9,2.3,25.8,0,6.3-2.9,14.5,3.4,18.7,5.9,3.9,12.6,5.1,15.5,12.3,2.7,6.6,3.8,12.3,10.5,16.3-.5.6-1.1,1.2-1.5,1.7.5,1.7.9,3.1,1.6,5.2-1.2-.5-1.8-.7-2.3-.9-.5-2.1-1.1-4.2-1.7-6.7-6.4-4.2-5.8-11.3-9.5-17-3.8-5.9-12.2-6.3-16.6-11.4-2.5-2.9-2.1-5.9-1.6-9.4.6-3.9.8-7.6.7-11.6-.1-8.2-1.6-15.5-3.6-23.4-5.8-3.4-12.4-5-18.8-7.1-7.1-2.4-14.2-4.8-21.3-7.2-14.3-4.9-28.7-9.3-43.3-13.4-11.4-13.5-24.6-25.3-36-38.7-5.8-6.8-9-15.3-12.6-23.4-3.5-8-7.3-15.7-11.5-23.4-.6-1.1-1.1-2.2-1.8-3.2-8.6-12.9-17.2-25.9-25.9-38.8,1.3,0,2.5,0,3.8,0Z" fill="#fdfdfd"/>
        <path d="M460.8,258c8.6,12.9,17.3,25.9,25.9,38.8.7,1,1.2,2.1,1.8,3.2-.9.2-1.9.5-2.8.7-6.8-1.7-13.2-4.1-18.7-8.6-4.7-3.8-9.8-6.6-15.8-8v-26.2c3.3,0,6.5,0,9.8,0Z" fill="#bede89"/>
        <path d="M766.8,822c24-23.6,48.7-46.6,73.9-68.8,6-5.3,11.9-10.6,18-15.7,6.1-5.1,11.6-9.8,19.5-11.7,7.4-1.8,14.4-.7,21.7,1.1,8.5,2.1,17,4,25.4,6,16.6,3.9,33.3,7.6,49.8,12.1,7.7,2.1,15.3,4.6,23.1,6.1,8.3,1.7,16.9,2.4,25.3,3.5,6.5.8,14.9,2.8,21.2.4,6.4-2.5,8.8-8.8,8.6-15.1-.2-7-2-15.5.4-22.3,2.2-6.2,6.9-12,11.8-16.4,12.2-11.1,29.8-15.9,44.6-22.4,7.4-3.2,17.4-6,23.2-11.8,5.2-5.1,5.3-13.2,6.5-19.9,4.3,1.7,8.1,3.2,11.9,4.7-1.5.2-3,.5-4.5.7-2-1.2-3.9-2.3-6.4-3.8-.9,6.2-1.3,12.6-5.4,17.6-4.3,5.3-10.9,7.5-17,10.2-14.5,6.4-30.6,11.3-44.1,19.8-6.4,4-11.1,8.8-15.4,14.9-4.6,6.4-5.4,12.1-4.7,19.9.5,5.8,1.7,12.3-1.1,17.8-2.8,5.6-8.7,8.9-14.9,8.9-7.8,0-15.5-1.8-23.2-2.8-8.4-1.1-16.6-2.2-24.8-4.2-16.8-3.9-33.5-8.5-50.3-12.6-8.2-2-16.4-4-24.7-5.9-7.9-1.8-15.9-4.5-23.9-5.6-15.4-2.1-26.6,7.1-37.3,16.7-28.8,25.9-57.4,52-85.5,78.7h-1.5Z" fill="#e8e8e1"/>
        <path d="M451,785.3c33.4-29,65.3-59.9,97.7-90,32.9-30.6,66.2-60.7,99.3-91.2,18.6-17.1,37.2-34.2,55.8-51.3-3.1,5.3-8.6,9.3-13.1,13.5-4.3,4.1-8.9,8-13,12.3,1.6.7,3,1.4,4.4,2v.7c-1.9-.4-3.7-.8-5.6-1.3-8.8,7.6-17.2,15.6-25.7,23.5-8.4,7.9-17.6,15.3-25.5,23.8,5,2.2,10.1,2.9,14.9,5.8,4.7,2.8,8.9,6.2,13.4,9.2,5,3.4,9.8,6.9,14.7,10.6,2.3,1.8,4.6,3.5,7.3,4.7,2.6,1.2,6.2,1.3,8.3,3.3-11.7-.5-21.5-10.3-30.7-16.7-5.1-3.5-10.1-7-15.2-10.5-5-3.4-9.4-4.4-15.5-4.5-5.9,5.5-11.7,11-17.7,16.6,5.6,6.6,13.1,11.3,18.7,17.9,0,.3,0,.5,0,.8-6.7-5.8-13.5-11.6-20.2-17.5-14.7,13.5-29.2,26.9-43.9,40.4,4.9,5.4,9.4,10.3,13,14.3-4.3-3.5-9.6-7.7-14.8-12,.3-.4.6-.8.9-1.2-4.6,2.4-8.6,7.6-12.4,11.1-4.4,4.2-8.9,8.3-13.3,12.5-9.3,8.7-18.5,17.4-27.9,26-17.8,16.4-35.3,33.1-53.9,48.6,0-.5,0-1,0-1.5Z" fill="#e6e6df"/>
        <path d="M544,623.3c-.4,9.6,8.8,13.4,15.7,17.8,8.4,5.5,16.9,10.6,24.4,17.2-10.2,10.6-21.7,20.2-32.4,30.3-11.1,10.4-22.1,20.8-33.3,31.1-22.4,20.7-44.8,41.3-67.4,61.8,0-.8,0-1.5,0-2.2,44.7-38.8,86.9-80.5,130.7-120.3-3.8-6.3-11.9-10-17.9-13.9-6.5-4.2-12.9-9-19.8-12.3-4.5,2-9.3,4.2-14.2,6.3,1.2-4.4,10.6-6.1,14.1-7.3-.5-3.2-.9-6.2-1.4-9.2.5.3,1,.5,1.5.8Z" fill="#e6e5e0"/>
        <path d="M913,693c-5,13.8-9.4,30-26.9,30-16.9,0-28.3,12-40.1,22.6-27.8,25-55.3,50.4-82.2,76.5h-1.5c26.7-26.2,54-51.6,82-76.4,12.3-10.9,24.5-24.2,42-24.1,17.2,0,21.2-15.8,26-29.3.2.2.5.5.7.7Z" fill="#e6e6e0"/>
        <path d="M1303.5,654.8c-.4,1-.7,1.8-1.1,2.9-1.7-.1-3.3-.2-5.3-.4.5-5.4,1-10.5,1.6-16.1,12,0,23.8,2.3,36.1,3,.5-1.5.9-2.8,1.4-4.3-1-.6-1.8-1.1-2.7-1.7.1-2,.3-4.1.5-7,4.2.5,8.3.9,12.4,1.3-.4,4.5-.8,8.1-1.2,12.5,9.8,1.6,19.9,1.8,30.5,3.3,0,4.5-.4,8.7-1.1,13.1-23.5-1.9-47.1-4.5-71-6.8Z" fill="#d7d7d7"/>
        <path d="M1449.2,766.5c.2-.7.4-1.4.7-2.5-6.3-.7-12.5-1.3-18.8-2-7.2-.8-11.2-2.3-17.1-6.4-9.8-6.8-19.6-12.6-30.6-17.5-10.9-4.8-22.1-8.9-32.9-14-11.7-5.6-22.4-13.2-33.5-19.8-4.3-2.6-8.6-5.1-12.3-8.4-4.6-4.1-7.9-9.3-11.9-13.9-3.7-4.2-8.3-7.5-12-11.7-3.8-4.3-6.8-8.2-12.4-10.2-10.2-3.7-23.5-.7-33.6,1.9-9.7,2.6-23.4,11.5-33.5,7-5-2.2-6.4-8-9.9-11.8-4.2-4.5-9.3-5.3-15.2-5.7-6.9-.5-13.8-1.1-20.7-2-5.6-.7-11.6-1-15.2-6,1.4-24.8,3.1-49.8,6.3-74.4,1.5-11.8,3-23.6,4.6-35.5,1.6-11.8,2.4-24.1,5.1-35.8,10.5-3,20.6,1,30.4,4.6,11.6,4.2,23.2,8.6,34.6,13.4,21.3,9.1,41.4,20.6,62.4,30.3-6.2.4-14.3-5.7-19.9-8.4-7-3.5-13.9-6.9-21-10.3-6.7-3.2-13.4-6.4-20.2-9.5-6-2.8-14.1-7.8-20.8-7.8-8.2-3-16.5-6-24.7-9-6.3-3.2-12.6-2.8-19.7-3.2-7.3,48.1-13.1,96.4-15.7,145,3.4,4,8.3,5.1,13.3,5.7,6.6.8,13.2,1.4,19.7,2.1,4.9.5,11,0,15.2,3.1,4.1,3,5.6,8,9.2,11.5,7.7,7.5,18,1.5,26.4-1.4,12.5-4.3,26.6-7.9,39.9-5.7,11.8,2,16.7,12.1,25,19.5,4.4,3.9,7.4,7.1,10.6,11.9,3,4.5,7.4,7.7,11.8,10.6,21.2,13.7,42.9,25.7,66.6,34.7,12.6,4.8,23.6,11.7,34.7,19.4,5.4,3.7,10.4,6.1,17,7,7,1,14.3.4,20.8,3.3,0,.4,0,.8,0,1.2-.8.5-1.7,1-2.5,1.5,0-.2,0-.5,0-.7Z" fill="#e7e6e0"/>
        <path d="M1150.9,616.9c.4-4.1.6-7.1.9-10,3.5-1.2,62.9,4.7,66.3,6.5-.4,3.2-.8,6.4-1.3,10.4-22.3-2.3-44-4.6-65.8-6.9Z" fill="#d7d7d7"/>
        <path d="M1153,595.8c.5-4,1-7.3,1.4-10.3,5.5-.9,63.1,5.2,66,7-.4,3.1-.8,6.3-1.3,10.2-22.2-2.3-43.9-4.6-66-6.9Z" fill="#d7d7d7"/>
        <path d="M1195.3,677.9c-.7,5.4-1.3,9.9-1.9,14.7h-4.6c-.3-1.2-.6-2.4-1-4-3.3-.4-6.6-.8-10-1.1-.7,1.2-1.1,2-1.6,2.8h-6.3v-3.1c-.1-.2-.2-.4-.3-.4-8.3-1.1-16.6-2.3-25.6-3.5.2-3.4.5-6.7.8-10.8,17,1.2,33.4,3.6,50.6,5.3Z" fill="#d7d7d7"/>
        <path d="M1329.5,794.1c-.3,3.6-.6,6.9-.9,10.8-15.9-1.7-31-3.3-46.4-5,.3-3.7.6-6.9.9-10,3.2-1.3,35.5,1.6,46.4,4.2Z" fill="#d7d7d6"/>
        <path d="M1147,652.5c1.5-.2,3-.5,4.5-.7,10.4,1,20.7,1.9,31.1,3,1.7.2,3.3,1,4.9,1.5-.2,1.2-.5,2.5-.7,3.7-.1,2.4-.2,4.8-.3,7.4-14-1.2-27.2-2.4-41.1-3.6.6-4.1,1.1-7.7,1.6-11.3Z" fill="#d7d7d7"/>
        <path d="M1174.8,495c-11.3-1.8-19-14.1-26-22.1-8.2-9.4-16.2-19-24.8-28-15.8-16.8-35.2-28.2-57.6-33.6,1.3-11.6-1.8-23.5-3.2-35-.6-5.3-.7-11-1.9-16.1-1.4-6-2.6-10-.6-16.1,3.5-10.4,5-19.2,2.2-30.1-2.9-11.1-8.1-21.6-12.6-32,1.2,1,2.4,2.1,3.7,3.1.4,4.9,3.4,8.9,5.2,13.5,2.2,5.2,3.9,10.6,5.2,16.1,1.3,5.3,2.2,10.7,1.7,16.2-.5,5.6-3,10.1-4.5,15.4-1.4,4.8-.1,9.2.9,13.9,1.2,5.4,1.6,10.9,2.4,16.4,1.6,11.5,2.7,22.9,3.6,34.4,22.2,3.5,44.4,19.2,59.1,35.7,15.1,16.9,27.7,36.3,47.1,48.5Z" fill="#e7e7e1"/>
        <path d="M1186.8,660c.2-1.2.5-2.5.7-3.7,4.4,5,8.4,13.2,15.1,15.4,8.4,2.7,18-3.2,25.8-5.8,9-3,19.1-4.8,28.6-5,9.3-.2,16,2.9,22,9.8,5.7,6.5,12,12.3,17.5,18.9,5.7,6.8,12.4,12.2,19.9,16.9,16.4,10.3,32.6,19.8,50.6,27.1,9.9,4,19.9,7.3,29,13,9.1,5.6,17.9,11.4,27,17-1.5.3-3,.5-4.5.8-.3-2.9-5.2-4.7-7.6-6.3-3.9-2.7-7.7-5.5-11.6-8.1-7.6-5.1-15.7-8.5-24.2-11.7-18.5-7-35.4-15.6-52.2-25.9-7.6-4.7-15.9-9.2-22.2-15.7-2.8-2.9-4.8-6.4-7.4-9.4-2.8-3.3-6.3-6.1-9.3-9.2-5.7-6-11.1-14.3-19.8-15.5-8.8-1.2-18.6.3-27.2,2.3-9.9,2.3-19.9,8.7-30.1,8.9-9.4.2-13.5-8.4-18.4-14.9-.7.6-1.1,1-1.6,1.3Z" fill="#e7e7e1"/>
        <path d="M1418.5,764.3c1.5-.3,3-.5,4.5-.8,3.5.5,7,1.1,10.5,1.5,5.2.6,10.5,1,15.7,1.5,0,.2,0,.5,0,.7-2.3,2.8-2,6.5-2.4,9.9-9.8-.9-19.4-1.8-29.9-2.7.5-3.6,1-6.9,1.5-10.2Z" fill="#d7d7d7"/>
        <path d="M1177,501c8.2,3,16.5,6,24.7,9-1.1,3.2-2.2,6.3-3.5,10-8.9-2.1-16.9-6.1-24.8-8.7-.6-2.1-1-3.7-1.6-6.2,1.4-1.1,3.3-2.7,5.1-4.2Z" fill="#d6d6d6"/>
        <path d="M1328.2,564.2c.2,1.5.4,2.6.5,4.1,3.2.2,6.3.3,10.1.5-.3,3.2-.5,6.1-.8,9.5-8-.3-15.8-.7-24-1-1.2-4.4-.4-8.6.5-13h13.7Z" fill="#d5d5d5"/>
        <path d="M1424.1,711.4c5.6.4,10.5.8,15.4,1.2.6-1.1,1.1-2,1.6-2.9h7.4c-.4,4.9-.7,9.4-1.1,14.7-8.3-.9-16.3-1.7-24.3-2.6.3-3.9.6-7.1.9-10.5Z" fill="#d7d7d7"/>
        <path d="M1372.8,585.3c-.2,2.9-.4,5.2-.5,8-11.4-.3-22.1.7-33-.7v-7.3h33.6Z" fill="#d7d7d6"/>
        <path d="M1375.8,584.2c3.1.9,6.1,1.8,9.2,2.7.2-.4.3-.8.5-1.2-5.9-3.9-13.2-5.3-19.7-7.9-5.9-2.4-7.2-8-9.6-13.3-2.8-6-12.1-5.2-17.8-5.6-7.6-.5-15-.7-22.5-2.6-7.3-1.9-14.1-5.1-21.1-8-7.1-2.9-14.3-5.7-21.2-9-14.1-6.8-27.8-14.4-41.9-21.3.2-.2.5-.5.7-.7,29,13,56.2,30.5,87.3,38.8,7.5,2,15.4,2.1,23.1,2.6,7,.5,11.9-.3,14.9,6.7,2.6,6,4.3,9.9,10.7,12.2,6.8,2.4,13.9,4,19.5,8.7-3.2,1.3-3.8,1.4-7.1.2-1-.3-5.9-1.5-5.1-2.5Z" fill="#e4e3de"/>
        <path d="M1313.5,558.7c6.9.8,13.8,1.6,20.6,2.3,6.4.7,13.1.6,19.3,2.6,3.2,7.8,5.4,16.3,15.6,17.6-9.4,2.5-13.7-10.8-16.5-17.1-7.2-.9-14.4-1.7-21.7-2.3-1.9-.1-18.1-2-17.3-3.1Z" fill="#e4e4df"/>
        <path d="M1232.5,517.5c-.2.2-.5.5-.7.7-13-5.3-26-10.6-39-15.8-5.3-2.1-10.7-3.9-16.1-6-.7-.3-1.3-1-2-1.5,10.9,4,22,7.8,32.8,12,8.4,3.3,16.6,7,25,10.5Z" fill="#e4e3de"/>
        <path d="M1219.7,475.9c.2-1.7.4-2.7.6-4.3,3.3.4,6.3.8,9.8,1.2-.1,1.8-.2,3.2-.4,5.1-3.6-.7-6.5-1.3-10.1-2Z" fill="#d6d6d4"/>
        <path d="M1076.7,397.9v-6h6.9v6h-6.9Z" fill="#f1ead4"/>
        <path d="M664,492.7c.5.2,1.1.4,2.3.9-.6-2-1-3.5-1.6-5.2.4-.5,1-1.1,1.5-1.7.5.2,1.1.4,2,.8-1.4-2.5-4.3-3.8-6.2-6.1-2.1-2.6-3.3-5.7-4.4-8.8-2.7-8.4-8-10.3-15.2-14.6-7-4.2-4.2-10.5-4.1-17.5.2-8.7-.2-16.7-1.9-25.3,11.1,3.6,22,7.9,33.5,10,11.6,2.2,23.4,1.7,35.2,1.4,12.3-.3,24.5-1,36.7-1.4,3.1-.1,33-.9,33-1.3-.2,0-.5-.1-.7-.2-.4-1.1-.7-2.3-1.2-3.7-4.9-1.1-10.2-.2-15.2.1-5.5.3-11.1.6-16.6.8-10.8.4-21.6.8-32.4,1.1-21,.7-42.6-.3-62.1-8.9,2.9-8.9,5.8-17.7,8.9-27.2,6,1.3,11.8,3.3,17.8,4.9,6.5,1.7,13.1,1.6,19.7,1.3,13.5-.7,27-1,40.5-1.5,27.8-.9,55.6-2.3,83.4-4.1,2.5,10.1.4,21.3,2.1,31.6-.8.2-1.8.5-2.7.8,2.8.6,5.3,1.1,6.5,4-1.1.2-2.2.3-3.3.5,3.6,2.6,6.5,5,5.2,10.3-7.4,5.7-13.5,13.4-21.1,19.3-1.4-1.1-2.3-1.7-3.2-2.4-2.2-2.2-4.5-4.5-6.9-6.9-8.7,7.6-17.1,15-25.8,22.6-4.2-4.7-8.3-9.4-12.6-14.2-6.7,1.9-13.2,3.8-20,5.8v27.2c-.6,0-1.3,0-1.9,0-9.9,2.6-20,2.9-30.2,3-9.2,0-18.3.5-27.5.8-.7,0-1.3.5-2,.7,0,.7,0,1.5,0,2.2,1.5.6,2.9,1.1,4.4,1.7,0-.3,0-.6,0-.9,10.7,0,21.4.5,32-.1,10.7-.7,21.2-2.5,31.8-3.8-1.3,3.8-5.5,6.5-8.3,9.1-3.1,2.9-6,5.5-8.3,9.1-6.8,6-13.5,12.1-20.1,18.3-21.4,1.9-42.9,1.6-64.3,3v20.4c-13.4.7-26.8,1.3-40.6,2-1.1,3.8-1.7,9.8-6.3,11,2.6-3.7,5.5-7.5,4.2-12.3-1.2-4.5-6-6.6-9.7-9-9.9-6.4-19.1-13.4-28.4-20.7,5.7-6.3,11.2-9.3,18.9-12.6,4.7.6,10.1-2.7,14.7-4.1,5.1-1.6,10.3-2.8,15.5-3.8,10.9-2,21.9-3.8,32.8-5.7,3.6-.7,7.2-1.5,10.9-2.2,0-.3,0-.7,0-1-1.1-.2-2.2-.3-3.4-.5-2-.2-4-.7-6-.5-4.2.3-8.5.9-12.7,1.3v-29.7c2.4-.1,4.2-.2,6-.3,6.2,3.1,12.8,5.3,15.9,12,3.2,7.1,5.8,14.4,11.1,20.2Z" fill="#f5f0d8"/>
        <path d="M542.5,622.5c.5,3,.9,6,1.4,9.2-3.6,1.3-13,2.9-14.1,7.3-5.8,0-13.3-8.3-17.8-11.9-6-4.7-11.9-9.3-17.8-14.1-12-9.6-23.3-20.1-34.9-30.3,12.1-13.7,26.1-26,39.1-38.8,12.8-12.6,24.9-26.4,39.1-37.4,11.2,7.4,21.3,16.5,32,24.5,5.3,3.9,10.8,7.5,16.3,11.1,3.3,2.2,9.5,4.7,10,9.2-.9,3.3-2.1,5.9-3.8,8.9-1.2,1.5-2.5,3-3.7,4.5-14.3,17.5-28.5,35-42.8,52.5-1,.7-2,1.4-3,2.2v3.1Z" fill="#f5f0d8"/>
        <path d="M649.7,489.7c1.1.2,2.2.3,3.4.5,0,.3,0,.7,0,1-3.6.7-7.2,1.5-10.9,2.2-21.7,1.4-42.6,6-63,13.6-7.7,3.4-13.2,6.4-18.9,12.6,9.3,7.3,18.4,14.3,28.4,20.7,3.6,2.4,8.5,4.5,9.7,9,1.3,4.8-1.7,8.6-4.2,12.3-.2-.7-.5-1.5-.7-2.2.3-.7.5-1.4.9-2,3.5-4.8,2.8-9-2.1-12.3-7.1-4.8-14.4-9.4-21.4-14.3-3.3-2.3-6.1-5.1-9.2-7.5-6-4.8-12.2-9.4-18.2-14.3-4.3-3.6-7.6-3.8-11.8.2-7.4,7.1-14.8,14.2-22.1,21.3-8.2,8.1-16.2,16.3-24.4,24.4-8.4,8.3-17,16.5-25.5,24.8-.6.6-1.4,1-2.1,1.5-.3-.2-.5-.5-.8-.7.7-.9,1.2-2,2-2.7,2.3-2.2,4.9-4.3,7.2-6.5,21.3-21,42.5-41.9,63.7-62.9.3-.3.5-.5.8-.8,5.2-4.7,9.1-4.4,14.5.1,3.9,3.4,8.3,6.2,12.5,9.3,2,2.1,5.3-2.6,6.6-3.9,2.9-2.6,6.3-4,9.9-5.5,7.8-3.4,15.8-7,24.1-9.2,16.9-4.3,34.4-6,51.6-8.5Z" fill="#fcfcfb"/>
        <path d="M701.5,550.5c-18.8,18-38,35.5-57.3,53-19.5,17.7-38.6,36-58.3,53.4-7.4-6.6-16-11.9-24.4-17.1-3.8-2.4-8.3-4.5-11.6-7.6-2.9-2.7-3.7-6.1-5.1-9.6.2-.4.3-.8.8-2.1,1.1,2.9,1.7,6.2,3.5,8.8,2.2,3.1,5.9,4.9,9,6.9,7.2,4.7,14.4,9.4,21.8,13.7,8.8-8.1,17.2-15.9,26.2-24.2-6.9-4.5-15-6.6-22.4-10.3-7.8-3.9-15.5-8-23.2-12.1-4.2,5.6-8,11-13.5,15.5,6.9-9.1,13.9-17.9,21.2-26.7,7.1-8.5,15.9-17,21.5-26.5,2.1,1.6-2.4,5.4-3.6,6.9-2.8,3.4-5.6,6.8-8.4,10.2-5.3,6.4-10.6,12.8-15.9,19.2,7.3,4.9,15.2,8.9,23.2,12.6,7.5,3.5,15,5.9,21.7,10.7,8.1-7.1,15.7-15.1,24.6-21.8,2.1,1.9,3.7,3.4,5.5,5,10.9-9.6,21.5-19.7,32.1-29.6,5.5-5.2,11.1-10.3,16.6-15.4,2.5-2.3,5.1-4.6,7.6-7,2.3-2.1,5.6-6.5,8.6-7.2-.1.6-.2,1-.3,1.4ZM585.7,655.3c8.3-7.7,16.6-15.3,25-23-1.6-1.6-3-3.1-4.6-4.9-8.6,7.8-16.9,15.4-25.2,23,1.7,1.8,3.2,3.3,4.9,4.9ZM631.6,604.5c-8.7,7-16.1,14.5-24.1,21.6,1.7,2,3,3.6,4.4,5.2,8-7.3,15.7-14.5,23.6-21.7-1.3-1.7-2.3-3-3.9-5.1Z" fill="#e7e7e0"/>
        <path d="M557.5,516.8c-4.2-3.1-8.6-5.9-12.5-9.3-5.3-4.5-9.2-4.8-14.5-.1-.3.2-.5.5-.8.8-21.2,21-42.5,42-63.7,62.9-2.3,2.3-4.8,4.3-7.2,6.5-.8.8-1.3,1.8-2,2.7.3.2.5.5.8.7.7-.5,1.5-.9,2.1-1.5,8.5-8.2,17.1-16.5,25.5-24.8,8.2-8.1,16.2-16.3,24.4-24.4,7.3-7.2,14.7-14.3,22.1-21.3,4.1-4,7.5-3.7,11.8-.2,5.9,4.9,12.1,9.5,18.2,14.3,3.1,2.5,6,5.3,9.2,7.5,7,4.9,14.3,9.5,21.4,14.3,4.9,3.3,5.6,7.5,2.1,12.3-.4.6-.6,1.3-.9,2-.5.3-1,.5-1.5.8,1.7-3,2.8-5.6,3.8-8.9-.5-4.5-6.7-7.1-10-9.2-5.5-3.6-11-7.1-16.3-11.1-10.8-8.1-20.8-17.2-32-24.5-14.3,11-26.3,24.8-39.1,37.4-13,12.8-27,25.1-39.1,38.8-1.3-.6-2.7-1.2-4.9-2.2,17-16.8,34.2-33.5,51.3-50.3,4.4-4.3,8.8-8.6,13.1-12.9,4.2-4.1,8.5-9.9,13.6-12.8,9.8-5.7,18.5,7.8,26.6,11.4-.5.3-1,.5-1.5.8Z" fill="#e6e4dc"/>
        <path d="M639.6,668c1,1.9,1.5,2.7,2.2,4-1.2.9-2.4,1.8-3.5,2.6,0-.3.1-.7.2-1-3.9-3.2-7.8-6.5-11.6-9.7.8-1.5,1.2-2.2,1.8-3.1-.4-.7-.8-1.6-1.2-2.3,3.3-3.3,6.5-6.4,10.2-10.1,4.4,2.5,7.5,7,11.9,11-3.5,3-6.7,5.7-10,8.5Z" fill="#e6e2d4"/>
        <path d="M725.5,507c2.3-3.5,5.2-6.2,8.3-9.1,2.8-2.6,7-5.3,8.3-9.1-10.6,1.3-21.1,3.1-31.8,3.8-10.7.7-21.4.1-32,.1,0,.3,0,.6,0,.9-1.5-.6-2.9-1.1-4.4-1.7,15.6,0,31.1.4,46.7-1.3,14-1.5,28.2-5.9,40.8,2.9-8.6,9.3-17.5,18.2-26.7,26.9-.1,0-.2,0-.3.2-4.6,4.2-9.2,8.3-14.4,13,0-2.7,1.2-3.7,2.5-4.9,3.9-3.4,7.7-7,11.5-10.6,5-2.2,9.2-7.6,13.2-11.3,4.4-4.1,9.2-8,13-12.6-3.4-3.2-12.4-5.6-14.6-4.4,1.8,1.4,3.7,3,6.4,5.1-5.7,6-11.3,11.3-17.8,16.5-1.9-1.8-3.5-3.4-5.3-5.2,1.9-2.2,3.3-3.8,5.1-5.8-2.7,2.2-4.8,4-7.2,6,3.1,3.6,5.7,6.8,8.5,10.1-.5.1-.8.2-1.2.3-2-2.1-4.1-4.2-6-6.4-.9-1-1.5-2.2-2.3-3.3ZM746,491.6c-5.5,5.1-10.3,9.6-15.3,14.3,1.5,1.4,2.6,2.4,3.8,3.5,5.2-4.8,10-9.4,14.8-13.8-1.2-1.4-2.1-2.6-3.2-3.9Z" fill="#e7e5da"/>
        <path d="M787.5,562.9c1.9-.1,2.9-.2,3.9-.3.6,1.1,1.1,2.1,1.7,3.3,7.2,1.2,14.7-.8,22.1,1.4v7.9c-8.7-.2-17,.8-25.4-1.2-.7-3.7-1.5-7.1-2.3-11.2Z" fill="#e8d7e9"/>
        <path d="M733.8,516.7c.3,0,.7-.2,1.2-.3-2.8-3.3-5.5-6.5-8.5-10.1,2.4-2,4.6-3.8,7.2-6-1.8,2-3.2,3.6-5.1,5.8,1.8,1.8,3.5,3.4,5.3,5.2,6.6-5.2,12.2-10.5,17.8-16.5-2.6-2.1-4.6-3.7-6.4-5.1,2.1-1.2,11.2,1.2,14.6,4.4-3.8,4.6-8.6,8.5-13,12.6-4,3.7-8.2,9.1-13.2,11.3,0-.5,0-1,0-1.5Z" fill="#f1f0e3"/>
        <path d="M772.7,577.5c-.3,8-1.1,16.3-.3,24.3.3,0,.6,0,.9.1,2.9-5.8,1.1-14.3,2.4-20.7.3,0,.5,0,.8,0-.6,6.5-1.4,13-1.4,19.5,11.8,2.5,23.5,5.1,35.2,7.8,5.6,1.3,11.2,3,16.9,3.9,5.5.9,9.8,2,13.7,6.3-4.6-1.7-8.6-4-13.4-5.1-5.9-1.4-11.8-2.7-17.8-4-11.6-2.5-23.2-5-34.9-7.5-1.4,1.3-2.7,2.4-4.4,4-6.6-.3-13.5-.7-20.5-1-2.2-1.7-4.3-3.4-4.3-6.6h0c3.9,8.5,17.9,5.7,25.3,5.9.3-9.4.6-18.1.9-26.9h.4s.4,0,.4,0Z" fill="#e7e5da"/>
        <path d="M898.8,548.3c13.5-1,26.9-2.1,40.4-2.9,0,12.8-.2,25.7-1.2,38.5-1,12.7-5,24.1-8.5,36.3-6.3-9.4-12.3-17.7-15-28.9-1.3-5.4-4.1-10.1-5-15.6-1-6-.2-12.4-.2-18.4.4-2,.7-4,1.2-6.4,0,12-1.7,23.2,3.2,34.6,2.1,5,2.9,10.4,5.2,15.4,2.8,6,6.6,11.2,10.3,16.6,1.7-5.6,3.9-11.1,5.4-16.7,1.6-6.1,1.9-12.2,2.2-18.5.7-12,1.8-24.1,1.8-36.2-7,.7-13.9,1.4-20.9,1.9-3.4.2-6.9.4-10.3.6-2.6.1-6.2.9-8.5-.4Z" fill="#e3e3dd"/>
        <path d="M747.5,537.6c1.6,1.7,2.6,2.8,4,4.3-2.5,2.7-4.9,5.2-7.9,8.4,3.5,2.9,6.9,5.6,10.7,8.7-3,2.6-5,4.4-7.3,6.6-3-3.2-5.4-6-8.1-8.8-.9,0-1.8.2-2.8.2-1.5-2-4.7-3-3.2-7.3-1.5-1.2-3.3-2.7-5-4.1,1.8-2.2,3.4-4.2,5.2-6.3,2.4,2.2,4.2,3.8,6.3,5.6,2.7-2.5,5.3-4.8,8.1-7.3ZM751,559.6c-6-6-11.7-11.8-17.7-17.9-1.2,1-2.7,2.1-3.7,3,6.2,6.2,12.2,12.1,18.4,18.4.9-1,2.1-2.4,3.1-3.4Z" fill="#d2d7e4"/>
        <path d="M727.7,517.6c-5,4.5-9.4,8.3-13.9,12.3-2-1.9-3.5-3.3-5.2-4.8,3.5-5.6,8.9-8.6,13.4-13.4,1.9,2,3.5,3.7,5.6,5.9Z" fill="#e5e1d3"/>
        <path d="M589.8,565.5c-5.6,9.6-14.4,18-21.5,26.5-7.3,8.8-14.3,17.6-21.2,26.7-.5-.5-1-1-1.5-1.5,14.3-17.5,28.5-35,42.8-52.5.5.3,1,.5,1.5.8Z" fill="#fbfbfb"/>
        <path d="M709.7,555.1c2.1.2,3.2,3.1,5.1,5.6-3.4,3.1-6.7,6.1-10.5,9.5-1.8-1.9-3.5-3.7-5.4-5.7,3.4-3,6.7-5.9,10.8-9.5Z" fill="#d7d7d6"/>
        <path d="M933.3,577.2h-5.2c.3-8.3.6-16.4.9-25,1.7,0,3.2.1,4.3.2v24.8Z" fill="#d6d6d5"/>
        <path d="M772.7,577.5h-.4s-.4,0-.4,0c.5-7.1,1-14.2,1.4-21.3.3-6.3,1.2-13.5-.9-19.5-3.9-11.1-10.2-20.2-18.8-28.1-5.8,5.3-11.6,10.5-17.4,15.8-.2-.2-.4-.4-.6-.6.4-.6.7-1.2,1.1-1.8,5.5-5,10.9-10.1,16.8-14.6,9.7,7.8,15.9,18,20,29.6,2.4,6.7,1.1,13.5.6,20.3-.5,6.8-.3,13.5-1.4,20.2Z" fill="#e6e5e0"/>
        <path d="M623.5,664.5c0-.3,0-.5,0-.8,10.7,7.1,18.4,19.4,26.1,29.4,4,5.2,7.6,10.4,12.8,14.3,4.6,3.4,8.9,8,5.4,14v-7.6c-3.6-3.8-8.3-6.3-11.9-10.3-3.4-3.8-6.2-8.1-9.3-12.2-3.5-4.6-7.1-9-10.8-13.4-3.9-4.7-8.6-8.7-12.3-13.5Z" fill="#ebeadf"/>
        <path d="M601.7,616.2c5.8-6.8,12.6-11.8,18.7-17.9,1.8,1.9,3.4,3.6,5.5,5.8-6.1,5.6-12.3,11.3-18.7,17.2-1.7-1.6-3.2-3-5.5-5.1ZM607,619.7c5.7-5.4,11.2-10.5,16.8-15.7-1.2-1.5-2-2.5-3.1-3.9-6,5.5-11.6,10.5-17.3,15.8,1.5,1.5,2.4,2.6,3.6,3.8Z" fill="#e5e2d4"/>
        <path d="M745.7,598.5c-.9-2.9-1.8-5.8-2.7-8.8-1.9-2-4-4-6.6-6.7-7.2,1.4-14.3,2.8-21.5,4.5-7.5,1.8-13.5,2.5-20.7-.7,0-.4.2-.7.3-1.1,7.4,2,12.8,2.3,20.3.4,7-1.8,14.1-3.5,21.3-4.3,7.4,3.4,9.5,9.5,9.7,16.6h0Z" fill="#e9e8dd"/>
        <path d="M769.4,599.3c-7.3-2.2-15,.9-22.6-2.2.6-2.7,1.1-4.7,1.6-7.1,7.6.3,14.5.6,21.4.9.9,3.2,1.4,5.7-.4,8.4ZM768.8,592.8c-6.7-.7-13.2-1-19.9-1v4.4c6.6,1.6,13.2.5,19.9.8v-4.2Z" fill="#e7e5da"/>
        <path d="M907,551.2c-.2,5.7-.6,11.4-.8,17.1-.1,5.9,1.5,10.9,3.5,16.3,1.9,5,3.2,10.2,4.8,15.2,1.5,4.6,4.4,8,6.6,12.2-8.3-5.7-9.1-18.5-12.8-27.4-2.1-5.3-4-9.9-3.4-15.7.7-6.1,0-11.8,1.9-17.7Z" fill="#e7e6e0"/>
        <path d="M776.5,581.2c-.3,0-.5,0-.8,0,.5-12.7,1-25.3,1.9-37.9,5.7,4.7,10.9,7,18.4,7.2,8.3.2,16.5.5,24.8.7,0,.2,0,.5,0,.7-8.2-.2-16.4-.3-24.6-.6-6.9-.3-12.6-1.4-18-6.1-.7,12-1.2,24-1.7,36Z" fill="#e2e2df"/>
        <path d="M893.8,614.8h-6.7v-6.9h6.7v6.9Z" fill="#d6d6d5"/>
        <path d="M902.7,620.2c-13.9-1.4-27.4-5.8-41.6-2.3,5.4-3.8,12.2-3,18.3-2.1,7.9,1.1,15.5,2.5,23.3,4.5Z" fill="#e6e5db"/>
        <path d="M913,693c-.2-.2-.5-.5-.7-.7,5.5-15.7,12.6-30.4,18.8-45.7-2.4,7.9-5.2,15.4-8.4,23-3.2,7.5-7.9,15.5-9.6,23.5Z" fill="#e3e3dd"/>
        <path d="M637.7,726.5c1.6.5,2.6.8,4.1,1.2-1.3,3.7-2.5,6.9-3.8,10.5-1.3-.5-2.5-1-4.1-1.7,1.3-3.3,2.5-6.3,3.9-10Z" fill="#d7d7d5"/>
        <path d="M843.1,560.2c2.5-.3,4.6-.5,7.2-.8v6.5h-6.7c-.1-1.8-.3-3.3-.5-5.7Z" fill="#f1ead5"/>
        <path d="M674.9,721c.9-2.3,1.7-4.2,2.5-6.4,2.2.9,4,1.6,6.2,2.5-.9,2.1-1.6,4-2.5,6.2-2.3-.8-4.1-1.5-6.2-2.3Z" fill="#f1ead4"/>
        <path d="M731.6,607.4c-.2,2.9-.3,5.1-.4,7.7-2.4-.5-4.1-.9-6-1.3v-6c1.9-.1,3.8-.3,6.5-.4Z" fill="#f1ead4"/>
        <path d="M692.8,668.9c-2.3-.4-3.9-.7-5.9-1v-6.1c2,0,3.9-.2,5.9-.3v7.4Z" fill="#f0e9d4"/>
        <path d="M675,735.7c-.8,2.2-1.5,4.1-2.4,6.4-2.1-1.1-3.8-1.9-6-3,1-2.1,1.9-3.9,2.7-5.8,2,.8,3.5,1.5,5.7,2.4Z" fill="#f1ead4"/>
        <path d="M763.2,630.1v-6.4h6.2v6c-2,.1-3.9.2-6.2.4Z" fill="#f0e9d4"/>
        <path d="M674.6,552.1c-.2,1.7-.3,2.7-.5,4.1h-6v-5c2.2.3,4.1.5,6.4.9Z" fill="#d8d8d5"/>
        <path d="M840,599.4c1.7,1,2.9,1.7,4.4,2.6-1.1,1.8-2,3.2-3,4.9-1.5-1-2.7-1.8-4.3-2.8,1-1.5,1.8-2.9,3-4.7Z" fill="#d7d6d4"/>
        <path d="M617.4,779.5q-3.3.4-7.2-5.5c2.3-2.3,5-.4,7.2,5.5Z" fill="#d7d7d4"/>
        <path d="M929.5,626.3c1.6,5.6,2.6,11.3,2.2,17.1,0,1-.5,2.1-.7,3.1-.3-4.3.8-8.7-1.3-12.9-1.9-1-3.8-2-5.7-3.1,0-.2.2-.4.3-.6,1.7.7,3.4,1.4,5.2,2.2v-5.8Z" fill="#e3e2db"/>
        <path d="M782.4,555.7v5.3c-.9.2-1.9.5-3.5.9.2-3.8-.3-4.9,2.8-7,.2.3.5.6.7.9Z" fill="#d7d7d4"/>
        <path d="M864.3,549.8c10,0,20,0,30,0-1.9,2.2-11.5.8-14.5.8-4.7,0-11.2,1.2-15.5-.7Z" fill="#e0dfdb"/>
        <path d="M889,587.7h5.5c0,3.5-.2,3.6-4.9,2.9-.2-.7-.3-1.6-.6-2.9Z" fill="#d9d8d5"/>
        <path d="M820.8,552c0-.2,0-.5,0-.7,7.7,0,15.5,0,23.2,0,.7,0,1.4,0,2.1.1v.7h-25.4Z" fill="#e0e0da"/>
        <path d="M1047.3,345.7c-14-2.5-27.5-2-41.7-1.2.1.7.3,1.4.4,2,0,1.6,17,.7,19.4.7,7.6,0,15.1.2,22.6,1.6,11.3,3.3,10.7,16.9,11.9,26.4,1.5,12,3,23.7,3,35.8-7-.6-13.9-.5-20.9-.4-6.3.2-15-1.1-20.9,1.2-9.7.2-19.4.5-29.1.7-13.2.3-26.4.5-39.6.8,0,0-.2.3-.3.6.5,0,1,0,1.5.1-6.2,1.3-12.7.7-19,.9-5.9.2-11.8.6-17.8.6,4.4-22.2,5.7-44.4,11.8-65.2,7.9-5.2,17-5.5,26.1-5,4.5.2,9,.5,13.6.2,1.3,0,10.3.2,7.8-2.7-10.1-2.2-21.5-.8-31.9-.8,0-.3-.2-.6-.3-.9,6.1-4.8,10.6-10.7,13.5-17.8,5.2-5.3,8.2-13.7,11.7-20.2,1.6-2.9,3.1-5.8,4.1-8.9.8-2.7.5-5.9,3-7.8,6-4.5,16.9-2.7,23.8-2.5,4.4.2,16,3,17.4-3.3,5.6-.5,10.5-3.1,15.3-5.8.4-.2.3-1.1.5-1.7.7.3,1.5.6,2.2.8.5,3.5,4.7,2.8,7.1,4.1,2.9,1.6,4.2,4.7,5.6,7.6,3.6,7.2,6.9,14.5,9.5,22,2.7,7.8,5.1,16.6,3.9,25-.5,3.2-1.3,7.3-3.6,9.8-2.5,2.6-7.1,2.7-10.4,3.4ZM931,379c2.8.6,5,2.3,7.6.5-.4-.8-.7-1.4-.7-1.4.7-2.5,1.4-4.5,1.9-6.4-2.6-2.2-4.2-2.4-7.7-.9-.3,2.6-.7,5.2-1.1,8.3Z" fill="#f5f0d8"/>
        <path d="M1047.3,345.7c3.3-.7,7.9-.8,10.4-3.4,2.3-2.4,3.1-6.6,3.6-9.8,1.2-8.3-1.2-17.1-3.9-25-2.6-7.6-6-14.9-9.5-22-1.4-2.9-2.6-5.9-5.6-7.6-2.4-1.3-6.6-.6-7.1-4.1h6.1c-1.4,0-2.8.1-4.2.2,0,.3-.1.7-.2,1,2.8,1.1,6.2,1.5,8.3,3.7,2.6,2.7,4,7.7,5.5,11,3.5,7.8,7.6,15.8,10,24.1,2.2,7.6,2.9,17,.3,24.5-2.3,6.7-7.2,7.4-13.7,7.3Z" fill="#e3e1d7"/>
        <path d="M485.5,300.8c.9-.2,1.9-.5,2.8-.7,4.2,7.7,8,15.3,11.5,23.4,3.5,8.1,6.7,16.6,12.6,23.4,11.4,13.4,24.7,25.2,36,38.7,14.6,4.1,29,8.5,43.3,13.4,7.1,2.4,14.2,4.9,21.3,7.2,6.3,2.1,13,3.7,18.8,7.1,0,.3,0,.5,0,.8-27.3-9.8-55.1-20.3-83.5-26.6-11.5-13.7-23.9-26.4-36.2-39.4-2.8-3-5.4-5.6-7-9.3-1.8-4.2-3.6-8.4-5.3-12.6-3.5-8.2-7.1-16.2-11.4-24-.8-.4-1.8-.8-2.8-1.3Z" fill="#e7e6e0"/>
        <path d="M631.7,414c0-.3,0-.5,0-.8,2,7.9,3.5,15.2,3.6,23.4,0,3.9-.2,7.7-.7,11.6-.5,3.5-.9,6.5,1.6,9.4,4.4,5.2,12.8,5.6,16.6,11.4,3.7,5.8,3.2,12.8,9.5,17,.6,2.5,1.2,4.6,1.7,6.7-5.3-5.9-7.9-13.2-11.1-20.2-3.1-6.7-9.7-8.9-15.9-12-6.1-6.2-2.7-14.2-3.2-21.8-.3-4.4-.2-8.4,0-12.9.1-4-1.2-7.9-2-11.8Z" fill="#e7e5dd"/>
        <path d="M557.5,516.8c.5-.3,1-.5,1.5-.8,13-12.3,29.6-16.2,46.2-20.2,8.5-2.1,17.2-3.6,25.8-5.3,4.2-.5,8.5-1,12.7-1.3,2-.1,4,.3,6,.5-17.2,2.5-34.8,4.2-51.6,8.5-8.3,2.1-16.3,5.7-24.1,9.2-3.5,1.6-7,2.9-9.9,5.5-1.3,1.2-4.7,6-6.6,3.9Z" fill="#e4e3df"/>
        <path d="M545.7,415.5v-5.8c2.6-1.6,4.8-1,7.4,1-.4,1.6-.8,3.3-1.3,5.6-2.2-.3-4-.6-6.1-.9Z" fill="#f1ead5"/>
        <path d="M562.9,439.2c.4-2.9.7-4.7,1.1-7.2,2.1.3,4,.5,6.8.9-.6,2.3-.6,4.8-1.7,5.6-1.3,1-3.7.5-6.1.7Z" fill="#f1ead5"/>
        <path d="M901,363.7c1.3-14.4,2.7-28.8,3.7-43.2.5-7.5,1.1-15,1.7-22.5.3-3.4.6-6.8.9-10.2.3-3.1,0-6.8,1.5-9.5,21.2,0,42.4,3.3,63.5,4.4-2.4,6.2-4.3,12.7-7.2,18.7-2.9,5.9-6.4,11.5-9.6,17.3-2.7,4.9-5.4,9.9-9.2,14.1-4.3,4.8-10,8.4-15.1,12.2-.3-.2-.7-.4-1-.6.8-3.9,1.6-7.7,2.4-11.6-3.5,4.3-1.9,11-6,15.1-1.8,5.3-3.6,10.7-5.4,15.7h-20.1Z" fill="#f5f0d8"/>
        <path d="M846.4,359.6v8.9h22.7c.3-1.6.5-3.2.9-5.1h7.4c2.1,5,.8,10.4,1.2,16.1-10.8,0-21.5,1.1-32.3,1.4-4.3.1-7.7,0-8.2-4.9-.5-5.4,0-11,0-16.4h8.3Z" fill="#e6e2d4"/>
        <path d="M646.7,413.2c19.5,8.6,41.1,9.5,62.1,8.9,10.8-.3,21.6-.7,32.4-1.1,5.5-.2,11.1-.5,16.6-.8,5-.3,10.3-1.2,15.2-.1.4,1.4.8,2.5,1.2,3.7-3.8,0-7.5,0-11.3,0,2.5-.4,5-.8,7.5-1.2,0-.4,0-.9,0-1.3-10.5-1-21.8.6-32.4.8-11.1.3-22.2.8-33.4,1.2-10.8.4-21.5,1-32.2-.9-11.1-1.9-21.6-5.9-32.2-9.5-21.4-7.2-42.7-14.5-64.1-21.5-4.8-1.6-9.6-3.1-14.5-4.3-4.6-1.1-9.1-1.6-12.9-4.7-7.3-5.9-12.4-14.6-19.1-21.1-8.5-8.3-18-15.7-22.9-26.8-4.8-10.8-11-21.7-14.5-33,6.7,0,13.5,0,20.2,0-6,1.3-12.3.8-18.4.8,5.9,14.3,10.9,32.2,21.8,43.7,6,6.3,12.7,12.1,18.6,18.6,5.6,6.2,10.7,12.7,16.8,18.4,32.4,8.1,63.8,20.1,95.6,30.4Z" fill="#e8e7e0"/>
        <path d="M901,363.7h20.1c1.7-5.1,3.6-10.4,5.4-15.7.2.2.5.5.7.7-4.9,9.9-5.6,21.8-7.3,32.5-1.8,11.3-3.6,22.5-5.4,33.8-25.2,2.9-51.1,2.3-76.5,3.4,5.6-2.7,11.8-1.2,17.7-2.8-.3-10-.6-20.1-.8-30.4-1.1-.7-2.6-1.5-4.1-2.4,2.3-2.6,16.9-2.8,27.2-.8-1.7,1.8-10.4,3-20.9,2.8-1.4,10.2-.2,20.4.6,31.1,18.6-.5,37.1-1,56-1.6,2.6-16.6,5.2-32.5,7.7-48.7-6.6-1-13.5-.5-20.1-.7-3.9-.1-7.7-.3-11.6-.4-4-.2-6.8-1.5-10.6-2.5-3.5-.9-6.8-.3-10.3-.1-3.9.2-7.8-.3-11.6-1.1-7.1-1.6-13.1-3.5-20.4-2.9-1.2,2.8-1.4,16.8-1.1,23.3-2.5-7.5-2.3-17.3.4-24.7,11.2-1.9,21.1,4.5,32.3,4,5.3-.3,9.6.2,14.7,1.5,5.9,1.4,11.9,1.4,17.9,1.7Z" fill="#e8e7dd"/>
        <path d="M927.2,348.7c-.2-.2-.5-.5-.7-.7,4.1-4.1,2.5-10.7,6-15.1-.8,3.9-1.6,7.7-2.4,11.6.3.2.7.4,1,.6,5.1-3.8,10.8-7.4,15.1-12.2,3.8-4.2,6.5-9.2,9.2-14.1,3.2-5.8,6.7-11.4,9.6-17.3,2.9-6,4.9-12.5,7.2-18.7,6.5-3.9,13.6-4.6,21-3.9,8.1.7,16.2-.6,24,1.7-1.4,6.3-13,3.5-17.4,3.3-6.9-.2-17.8-2.1-23.8,2.5-2.5,1.9-2.1,5.1-3,7.8-1,3.1-2.5,6-4.1,8.9-3.5,6.5-6.6,14.9-11.7,20.2-.2,0-.5,0-.7,0,3.7-6.8,7.5-13.6,11.1-20.5,1.7-3.2,3.5-6.3,4.5-9.7.8-2.7,1-5.8,3.1-7.8,4.7-4.6,14.2-3.2,20.1-2.9,6.1.3,15.7,2.2,21-1-4.8-2-10.2-1.3-15.4-1.4-5.5,0-11.3-.8-16.7-.1-4.5.5-10,2.2-12.4,6.4-2.4,4.3-2.8,9.7-5.1,14.2-5.2,10-10.3,20.9-16.8,30-2.7,3.8-6.2,6.9-9.9,9.6-4.1,3-9.3,5.1-12.8,8.8Z" fill="#e6e4db"/>
        <path d="M539.2,328.6c-1.9.9-3.6,1.7-5.3,2.5,0,.2,0,.5.1.7-6.1-.9-12.2-1.8-18-2.7-1.4-1.6-2.6-2.9-4.2-4.6v-2.2c1-.2,2.1-.5,3.4-.8.5-.7,1.2-1.5,2-2.6,5.9.9,11.9,1.9,17.9,2.8.4,1.1.7,2.1,1,3.1,1.3,1,4.3,1,3,3.8Z" fill="#d6d6d6"/>
        <path d="M800.5,450.7c.9.7,1.8,1.3,3.2,2.4,7.6-5.9,13.8-13.7,21.1-19.3,1.3-5.3-1.6-7.7-5.2-10.3,1.1-.2,2.2-.3,3.3-.5,0,.3,0,.5,0,.8,1.8,3.5,4.4,5.6,3.4,9.9-20.9,19.2-41.1,39.1-62,58.3-3.2-.4-5.9-2.7-8.9-3.9-3.2-1.2-6.5-1.8-9.8-2.1-7.4-.6-14.6.7-21.8,1.8-16.5,2.3-33.5,1.6-50.2,1.9.7-.3,1.3-.7,2-.7,9.2-.3,18.3-.7,27.5-.8,10.2,0,20.3-.4,30.2-3,.6-.2,1.2,0,1.9,0,10.3-2.2,19.5,1.8,28.8,5.5,4.4-4.1,8.9-8.5,13.8-13.1-2-2.2-3.5-4-5.1-5.8l.5-.5c1.9,1.7,3.7,3.4,5.9,5.3,7.9-7.5,15.7-14.9,23.3-22.1-.7-1.5-1.4-2.6-2-3.8Z" fill="#e4e3dc"/>
        <path d="M876.6,335.2c2.2.1,4,.2,6.1.3v7.5h-6.9c.3-2.9.6-5.3.8-7.9Z" fill="#d7d7d6"/>
        <path d="M1001.6,278.6v-8.3h6.4v6.9c-1.8.4-3.8.8-6.4,1.3Z" fill="#d5d5d4"/>
        <path d="M844,420.7c-4.5,3-8.9,6.1-13.4,9.2-1.3-2.1-2.6-4.2-3.9-6.3-.4-.6-.7-1.2-1.4-2.4,1.7.8,2.8,1.4,3.5,1.8.8,1.7,1.4,3.1,2.3,5.2,2.6-3.1,6.7-3.6,8.2-7.6h4.6Z" fill="#e7e6e1"/>
        <path d="M876,356h-5.4c0-1.8-.2-3.4-.3-5.4,2.1-.1,3.7-.2,5.6-.3v5.7Z" fill="#d8d8d5"/>
        <path d="M1063.7,414c1.3.2,2.5.5,3.8.7-.8.1-1.6.2-2.3.3,5.5,1.2,10.3,2.2,15.6,4.4,5,2,9.9,4.3,14.6,7,8.5,4.8,16.3,10.8,23.3,17.5,7.9,7.5,14.6,16.2,21.6,24.5,7.3,8.7,13.9,15.2,12.4,27.2-9.7.9-18.1-2.6-26.8-4.7,8.3,3.4,16.7,6.3,26.2,5.7,0,11.6-2.8,23.6-4.3,35.2-1.6,12.5-3.3,24.9-4.7,37.4-2.5,22.2-4.4,44.5-6.4,66.8-.8,9.5.1,22.8-7.5,29.9-3.5,3.3-8.7,4.6-13,6.5-4.8,2.1-9.6,4.2-14.4,6.2-5.4,2.3-10.8,4.5-16.1,6.9-4.6,2.1-9.2,4.9-14.3,5.3-9.4.6-20-7.8-27.8-12.3-3.9-2.3-8.7-4.4-11.4-8.1-2.5-3.6-2.3-7.6-2.2-11.8.3-10.5.8-21,1.8-31.5,9.3,0,19.2,1.1,28.5-.7,5.9-1.1,14.6-3.9,18-9.4-6.6,4.2-13.5,8.1-21.5,8.9-8.2.8-17,1.2-25-.8.6-14.6,1.1-29.1,1.2-43.7,0-11,2.4-25-4.8-34.3-3.4-4.4-8.2-6.9-12.6-10-5.1-3.6-10-7.3-15.6-10.1-5.7-2.8-11.6-5-17.1-8.3-5.4-3.2-10.1-7.5-15.3-10.9-1-4.7-2-9.4-3-14.1-.2-.8-.5-1.7-.7-2.5.5-.7.9-1.4,1.7-2.4,9.4-.4,18.9-.4,28.3-1.5,4.2-.5,7.7-1.8,11.6-3.1,3.8-1.3,7.8-1.5,11.6-2.6,6.7-.8,13.3-1.6,20-1.8,5.7-.2,12.3.6,17.7-1,1-4.5-.1-9.7-.5-14.3-.4-5.5-.7-11-1-16.5-.5-11-.7-22.1-1.1-33.1,3.7-.3,7.5-.5,11.2-.8ZM1093.3,493.4c16.2,5.7,31.8,11.2,47.6,16.7,1.4-3.8,2.5-7,3.8-10.7-15.9-5.6-31.5-11.1-47.6-16.7-1.2,3.5-2.4,6.7-3.8,10.7ZM1069,610.7c6.9,1.1,13.9,2.1,20.8,3,.3-3,.6-5.4.9-8.1-7.3-1.2-13.8-2.9-20.7-3.1-.4,3-.7,5.5-1,8.2ZM1091.8,607.3c-.7,4.1-1.2,7.3-1.8,10.9,2.4.4,4.5.7,7.3,1.2.7-3.7,1.3-7.1,2-11-2.8-.4-5-.8-7.5-1.1ZM1106.7,611c-1.5-.4-2.6-.8-4.4-1.3-.6,2.9-1.2,5.5-1.9,8.5,1.9.2,3.4.4,5.1.6.4-2.8.8-5.2,1.2-7.8ZM1098.2,631c-.1-1.6-.2-2.9-.3-4.8-2.4.3-4.3.6-6.6.9.4,2.1.6,3.5.9,5.1,2.2-.4,3.8-.7,6.1-1.2Z" fill="#f8f7e9"/>
        <path d="M849.2,491.2c1.6-.4,3.2-.8,5.2-1.3-.5-.6-1-1.2-1.4-1.7-4.8-.4-9.3-.2-14.1.1-.6-5.8-.8-11.6-1.2-17.4-.4-6.4-2.5-11.6-4.6-17.5.9-1.4,1.8-2.9,2.9-4.5-2.7-3.5-5.2-6.8-8.1-10.6,8.2-6.7,15.7-13,26.1-15.9,9.5-2.7,19.4-2.3,29.2-2.6,22-.7,43.9-1.4,65.9-2.1h10.6v41.9c.2,0,.4,0,.7,0v-6.7c.2.8.7,1.6.7,2.4,0,11.2,0,22.3,0,34.1-1.2-.5-2.1-.8-3-1.2.6-.8-7.8-2-9-2.1-3.9-.3-7.9-.2-11.9-.2-8.4,0-17.3-.8-25.6.2,0,.1,0,.3,0,.4.5,0,1,0,1.5.1-11,2-22.6-.7-33.6,1.5v1.3c14.1,1.1,27.9.1,41.8-.3,13.3-.4,28.2-1.3,41,3.2,1.6,9.1,3.2,18.1,4.6,27.2,1.2,7.9,1.2,15.6-5.6,20.9-18.3,1.6-36.7,2.7-54.9,4.6-8.7.9-17,2.2-25.8,2.2-9.4,0-18.8-.1-28.2.7-9.3-2.1-20.1-.7-29.6-.7-9.5,0-20.3-1.4-29.6.7-5.3-1.1-9.9-2.2-13.6-6.4-3.4-3.9-6-9.2-7.6-14.1-4-12-1.7-24.7-.4-37,3.2.7,6,1.4,8.9,2l-.8.4c23.5.9,47.7,1.3,71.1-1.5-.8-.2-1-.3-1.3-.4ZM785.6,508.5c1.1-.1,2.5-.3,4-.4v-6.4c-2.2.1-4.1.3-5.9.4-.8,2.8-1,4.9,1.9,6.5Z" fill="#f5f0d8"/>
        <path d="M923.5,671.3c3.4-7.8,6.8-15.5,10.2-23.3.2-.5.7-1,1-1.5,2.6-1.4,4.6-3.2,6.9-5.2,5.9,1.5,12.1,1.8,18.1,3.3,5.5,1.4,10.2,3.7,15.3,6.2,11.5,5.6,24.1,9.8,36.1,14.1,4.9,1.8,10.5,3.2,14.9,6.1,4.1,2.7,7.2,6.4,11.5,9,6.6,4,23.4,10.9,21.5,20.6-1.1,5.6-6.5,10.2-8.6,15.5-1.9,4.8-1.7,9.6-1.5,14.6.3,5.3,2,13.1-1.3,17.7-2.5,3.4-6.5,4.9-10.7,4.6-23.5-1.7-46.2-7.2-68.8-13.2-22.4-6-45.2-10.7-67.7-16.1,2.8-3.6,5.4-7,8-10.4,2.9-7.1,5.7-13.9,8-21.2,2.1-6.6,6.8-14,7-20.8Z" fill="#f8f7e9"/>
        <path d="M956.5,543.7c10-.9,19.8-.4,29.7-1,10.2-.6,21.7-1.8,31.8.3-.7.8,2.8,2.5,3.6,3.1,1.6,1.3,2.9,2.9,3.9,4.7,2.2,3.8,2.8,8,2.9,12.3.3,12-.3,24-.7,36-.4,12.2-1.2,24.4-1.7,36.5-.4,9.4,1.8,20.5-7.3,26.3-15.3-2.9-29.2-9.9-43.4-16.3-7.3-3.3-14.6-6-22.5-7.4-6.7-1.2-13.6-1.4-18.8-6.3-.8-5-1.7-9-.5-14.1,1.1-4.5,3-8.8,4.2-13.3,1.3-4.6,2.3-9.3,2.9-14.1.6-4.6.3-9.4,1.3-13.9,4.7-1.6,10.1-.7,14.1-5.3-1.3.2-1.9.3-2.3.4v-16.2h-11.8c.4-3.1.8-6.4,1.3-9.8,4.2-.4,9.2-.1,13.1-1.9ZM952.5,613.2v-16.7h-7.1c-.3,5.7-1.8,11-.4,16.7h7.5Z" fill="#f8f7e9"/>
        <path d="M1052.5,414.8c.3,11,.6,22.1,1.1,33.1.2,5.5.6,11,1,16.5.3,4.6,1.5,9.8.5,14.3-5.4,1.6-12.1.8-17.7,1-6.8.2-13.3,1-20,1.8-.3-1.2-.6-2.3-.8-3.4,2.7-1.7,1.5-3.9,1.2-6.1h-6.1c-.2,2.2-.3,4.1-.5,6.1-5.1,1.1-10,3.7-14.7,5.6-3.8.2-7.5.5-11.3.7-7.1-.3-13.9-.3-21,.2v-62.3c-.3,0-.5,0-.8,0v2.9c-.3-2.7-.6-5.5-.9-8.6,24.7-2.5,49.8-.2,74.5-2.6,1.2.2,2.3.7,3.5.7,4.1,0,8.2,0,12.2,0Z" fill="#f5f0d8"/>
        <path d="M967.7,507.8c5.2,3.5,9.9,7.7,15.3,10.9,5.5,3.3,11.4,5.4,17.1,8.3,5.6,2.8,10.5,6.5,15.6,10.1,4.4,3.1,9.2,5.6,12.6,10,7.2,9.3,4.9,23.3,4.8,34.3,0,14.6-.7,29.2-1.2,43.7,8.1,2,16.8,1.6,25,.8,7.9-.8,14.8-4.7,21.5-8.9-3.4,5.5-12.1,8.3-18,9.4-9.2,1.8-19.1.7-28.5.7-1,10.5-1.5,20.9-1.8,31.5-.1,4.2-.4,8.2,2.2,11.8,2.6,3.8,7.5,5.9,11.4,8.1,7.8,4.6,18.4,13,27.8,12.3,5.1-.3,9.7-3.2,14.3-5.3,5.3-2.4,10.7-4.7,16.1-6.9,4.8-2,9.6-4.1,14.4-6.2,4.3-1.9,9.5-3.2,13-6.5,7.6-7.1,6.6-20.4,7.5-29.9,2-22.3,3.9-44.6,6.4-66.8,1.4-12.5,3.1-24.9,4.7-37.4,1.5-11.5,4.3-23.5,4.3-35.2-9.4.6-17.8-2.3-26.2-5.7,8.6,2.1,17,5.6,26.8,4.7,1.5-12.1-5.1-18.6-12.4-27.2-7-8.3-13.8-16.9-21.6-24.5-7-6.7-14.8-12.7-23.3-17.5-4.7-2.7-9.6-4.9-14.6-7-5.3-2.1-10.1-3.2-15.6-4.4.8-.1,1.6-.2,2.3-.3,9.8-.2,18.6,4.9,26.8,9.8,8.8,5.2,17.3,11,24.7,18.2,7.2,6.9,13.8,14.4,20.1,22.1,5.5,6.8,14,13.6,15.3,22.7,1.4,9.7-1.9,21.1-3.3,30.8-1.5,10.9-3,21.8-4.5,32.7-2.8,21.1-4.6,42.2-6.3,63.4-.8,10.3-1.7,20.5-2.7,30.8-.9,9.5-1.5,18.3-10.6,23.6-8.7,5-18.7,8.5-28,12.4-8.6,3.6-18.4,10.1-27.8,10.6-9.7.5-19.1-6.6-27.1-11.3-7.6-4.5-15.5-8.3-15.6-18.2,0-10.6,1.3-21.3,1.6-32,.3-10.5.6-21,.8-31.6.3-11.3,1.6-23,1.1-34.2-.4-9.6-3.9-18-12.2-23.3-9.1-5.8-17.6-11.6-27.3-16.3-9.1-4.4-18.4-9-24.9-17Z" fill="#e8e8e1"/>
        <path d="M956.5,543.7c-3.9,1.8-8.9,1.5-13.1,1.9-.5,3.5-.9,6.7-1.3,9.8h11.8v16.2c.4,0,1-.2,2.3-.4-4,4.6-9.4,3.7-14.1,5.3-1,4.5-.7,9.3-1.3,13.9-.6,4.8-1.6,9.4-2.9,14.1-1.3,4.5-3.1,8.8-4.2,13.3-1.3,5.1-.4,9.1.5,14.1,5.2,4.9,12.1,5.1,18.8,6.3,7.9,1.4,15.2,4.1,22.5,7.4,14.2,6.4,28.1,13.4,43.4,16.3,9.1-5.8,6.8-17,7.3-26.3.5-12.2,1.3-24.4,1.7-36.5.3-12,.9-24,.7-36,0-4.3-.6-8.5-2.9-12.3-1-1.8-2.4-3.4-3.9-4.7-.8-.7-4.3-2.3-3.6-3.1,8.5,2.4,11.4,12.9,11.9,20.7.3,4.7-.6,9.5-.7,14.2-.1,5.4-.2,10.9-.3,16.3-.4,21-1.3,41.9-3,62.8-2.6,7-10.5,6.4-16.3,4.4-9-3-17.7-7.3-26.4-11.1-8.2-3.6-16.4-7.8-25.2-10-7.3-1.8-18.2-.8-23.8-6.7-3.4-6.8-2.1-13.8-.1-20.8,2.2-7.6,4.7-15.4,6.1-23.2,2.6-14.7.2-30.1,2.2-44.9,5-.3,9.6-.6,14.2-.9Z" fill="#e5e4da"/>
        <path d="M979,519.8c6.4,3.2,12.7,6.5,19.1,9.7,1.4.7,2.8,1.5,4.2,2.2,1.9,2.9,5.2,4.8,7.9,6.9-7.4.4-14.8.5-22.1.6-6.1,0-15.2,1.7-20.3-1.5.5-1,1-1.9,1.5-2.9,1.9-6.8,1.1-13.1.6-20.2,2.6,1.9,5.8,5.2,9.1,5.1Z" fill="#f8f7e9"/>
        <path d="M949,417.7c-22,.6-43.9,1.4-65.9,2.1-9.8.3-19.7-.1-29.2,2.6-10.4,2.9-17.9,9.3-26.1,15.9,2.9,3.8,5.4,7.1,8.1,10.6-1,1.7-2,3.1-2.9,4.5,2.1,5.9,4.2,11.1,4.6,17.5.3,5.8.5,11.6,1.2,17.4,4.8-.4,9.3-.5,14.1-.1-26.4,2.1-52.8,3.7-79.2.8-.1-.3-.2-.6-.3-.9,11.6-12.3,24.7-23.4,37-35,11.5-10.9,22.4-23.5,37.3-29.7,14.9-6.2,33-4.2,48.8-4.5,17.5-.3,35-.6,52.4-1.8,0,.2,0,.5,0,.7ZM819.2,458.2c-2.4,2.4-4.7,4.7-7.5,7.5-2.3-2.5-4-4.4-6.1-6.6-1,1.4-1.9,2.7-2.6,4.2-.2-.2-.4-.4-.6-.6-9,8-17.9,16.2-26.7,25.4,10.1,2.1,20.4,1.5,30.7,1.4,9.8-.2,21.4,1.2,30.7-1.6-1.5-11.3,1.6-23-5.6-32.9-6.5,3.9-11,10.5-18.2,13.3-2.2-.9-4.3-1.7-6.3-2.6v-.4c2.7.5,5.3,1,7.8,1.5,6.5-5.4,12.7-10.5,18.6-15.2v-4.2c-2.2-2.4-4.3-4.9-6.4-7.2-4.5,4.6-8.6,8.9-12.6,13.1-.1,0-.2-.2-.4-.3,3.7-3,7.4-5.9,11.5-9.2,1.6,2.1,3.1,4,4.8,6.2-3.1,2.7-5.9,4.8-9.6,6.8,2.5-2.5,5-4.9,7.8-7.6-1.3-1.2-2.4-2.2-3.6-3.3-5.8,4.8-11.3,9.4-16.9,14.1,1.3,1.4,2.2,2.5,3.1,3.5,3-1.9,5.6-3.5,8.2-5.1Z" fill="#e5e3d7"/>
        <path d="M908.5,713.2c-2.6,3.4-5.3,6.8-8,10.4,22.6,5.4,45.3,10.2,67.7,16.1,22.6,6,45.4,11.6,68.8,13.2,4.1.3,8.1-1.2,10.7-4.6,3.4-4.5,1.6-12.4,1.3-17.7-.3-5-.5-9.8,1.5-14.6,2.1-5.3,7.5-9.9,8.6-15.5,1.8-9.7-14.9-16.6-21.5-20.6-4.3-2.6-7.4-6.3-11.5-9-4.4-2.9-9.9-4.3-14.9-6.1-12.1-4.3-24.6-8.5-36.1-14.1-5.1-2.4-9.8-4.8-15.3-6.2-6-1.5-12.1-1.8-18.1-3.3-2.2,2-4.3,3.7-6.9,5.2,1.8-2.1,3.7-4.2,5.3-6.1,24.7.3,45.6,14.3,68,22.8,4.7,1.8,9.7,2.4,14.3,4.7,4.7,2.4,8.7,5.9,12.9,8.9,4.7,3.4,9.8,6.3,14.7,9.4,3.9,2.4,7.9,4.8,9.9,9.3v7.8c-4.5,7-9.8,13.2-9.7,21.8,0,6.9,3.2,17.2-.6,23.4-4.2,6.7-11.8,6-18.5,5.1-8.7-1.1-17.3-2.2-25.9-3.7-18.5-3.1-36.6-8-54.7-12.8-9.4-2.5-18.8-4.9-28.2-7.2-4.7-1.1-9.4-2.2-14.1-3.3-3.4-.8-8-1-10.9-2.9,3.6-3.8,7.1-7.6,10.6-11.4.2.2.5.5.7.7Z" fill="#e7e7e1"/>
        <path d="M1021,411.8c5.9-2.2,14.6-1,20.9-1.2,7-.2,13.9-.3,20.9.4,0-12.1-1.5-23.8-3-35.8-1.2-9.5-.6-23-11.9-26.4,0-.2,0-.5,0-.7,11.6,2.5,11.5,14.8,12.7,24.4.8,6.6,1.5,13.2,2.3,19.8.8,6.6,1.9,13.1.7,19.7-13.7-1.2-29.1-2-42.7.5,0-.2,0-.5,0-.7Z" fill="#e4e2d7"/>
        <path d="M996.3,483.7c4.8-1.9,9.7-4.5,14.7-5.6.1-2,.3-3.9.5-6.1h6.1c.4,2.2,1.5,4.4-1.2,6.1.3,1.1.6,2.3.8,3.4-3.9,1.2-7.8,1.3-11.6,2.6-4,1.3-7.4,2.6-11.6,3.1-9.3,1.1-18.9,1.1-28.3,1.5-.7,1.1-1.2,1.8-1.7,2.4v-2.6c8.9-2.2,18.3-1.4,27.3-2.1,4.4-.3,8.5-1.1,12.6-2.7,4.2-1.7,8.4-1.7,12.6-3.2-5.3-3.3-14.9,1.2-20.4,3.1Z" fill="#e6e4d8"/>
        <path d="M963.2,425.3v-2.9c.3,0,.5,0,.8,0v62.3c7.1-.5,13.9-.4,21-.2-7,.3-14.1.6-21.7.9v-60.1Z" fill="#e0dfd8"/>
        <path d="M956.5,323.3c.2,0,.5,0,.7,0-2.8,7.1-7.3,13.1-13.5,17.8,0,.3.2.6.3.9,10.4,0,21.8-1.4,31.9.8h-35.9c3.2-2.9,6.7-5.4,9.4-8.6,2.8-3.3,4.7-7.2,7-10.9Z" fill="#e3e1d9"/>
        <path d="M755.2,505.2c4.3-4,8.4-7.7,12.5-11.4.2.1.5.2.7.4-.5,7.8-1.1,15.5-1.6,23.5-3.7-3.9-7.5-8.1-11.6-12.5ZM767.5,495.7c-3.8,3.5-7.2,6.6-11.3,10.3,3.6,2.8,6.9,5.3,9.7,7.5.4-5,1-11.1,1.6-17.8Z" fill="#e5e4de"/>
        <path d="M849.2,491.2c.2,0,.5.1,1.3.4-23.4,2.7-47.5,2.4-71.1,1.5l.8-.4c15.6,0,31.1.2,46.7,0,7.4-.1,14.8-.9,22.2-1.4Z" fill="#e1e0d8"/>
        <path d="M1021,411.8c0,.2,0,.5,0,.7l-67.5,1.6c-.5,0-1,0-1.5-.1.1-.2.2-.6.3-.6,13.2-.3,26.4-.5,39.6-.8,9.7-.2,19.4-.5,29.1-.7Z" fill="#e2e0d9"/>
        <path d="M1166.7,494c-4,.4-7.1.6-10.4.9v-9.2c3.6,2.9,6.7,5.3,10.4,8.3Z" fill="#edece4"/>
        <path d="M967.7,537.7c5.2,3.2,14.3,1.5,20.3,1.5,7.4,0,14.8-.2,22.1-.6-2.8-2.1-6.1-3.9-7.9-6.9,3.5,2.4,6.9,4.7,10.6,7.2-2.8,1.3-30.6,1.8-46.3.9.5-.8.8-1.5,1.2-2.2Z" fill="#e0e0db"/>
        <path d="M793,548.2c9.2-2.1,20.1-.7,29.6-.7,9.5,0,20.3-1.4,29.6.7h-59.2Z" fill="#dddbd0"/>
        <path d="M908.5,713.2c-.2-.2-.5-.5-.7-.7,1.4-3,3.1-6,4.1-9.1,3.5-10.9,6.6-21.8,11.7-32.1-.3,6.8-5,14.2-7,20.8-2.3,7.3-5,14.2-8,21.2Z" fill="#e4e3de"/>
        <path d="M949,417.7c0-.2,0-.5,0-.7h11.3v42.6c-.2,0-.4,0-.7,0v-41.9h-10.6Z" fill="#dcdacf"/>
        <path d="M1062.9,700.4c-.8-3.1-1.4-5.3-2.1-8.1,3,.7,5.8,1.3,9.7,2.1-2.8,2.2-5,4-7.6,6Z" fill="#eae9e2"/>
        <path d="M913,486.8h-1.5c0-.3,0-.4,0-.6,8.3-1,17.2-.3,25.6-.2,3.9,0,8-.1,11.9.2,1.2.1,9.5,1.3,9,2.1-8.3-1.9-16.8-1.5-25.2-1.5-6.6,0-13.2,0-19.8,0Z" fill="#deddd5"/>
        <path d="M1048,348c0,.2,0,.5,0,.7-7.4-1.4-15-1.6-22.6-1.6-2.4,0-19.4.9-19.4-.7,8.2,0,16.4-.2,24.6,0,5.8.2,11.6,1,17.3,1.5Z" fill="#deddd4"/>
        <path d="M979,519.8c-3.3,0-6.5-3.3-9.1-5.1.4,7,1.2,13.3-.6,20.2v-21.9c3,2.1,6.4,4.5,9.7,6.9Z" fill="#e0e0db"/>
        <path d="M1026.9,667.5c-2.2-1-3.9-1.8-6-2.8,1.5-1.4,2.8-2.6,4.7-4.3.5,2.5.8,4.4,1.3,7Z" fill="#e7e7e2"/>
        <path d="M1052.5,414.8c-4.1,0-8.2,0-12.2,0-1.2,0-2.3-.4-3.5-.7,9,0,18,0,26.9,0-3.7.3-7.5.5-11.2.8Z" fill="#dddcd5"/>
        <path d="M935,641.9c-.4-1.9-.7-3.2-1.1-5.3,1.8.8,3.1,1.3,5.1,2.2-1.5,1.2-2.5,2-4,3.1Z" fill="#e4e4de"/>
        <path d="M545.5,617.2c.5.5,1,1,1.5,1.5,5.4-4.4,9.2-9.9,13.5-15.5,7.7,4,15.4,8.2,23.2,12.1,7.4,3.7,15.4,5.8,22.4,10.3-9,8.3-17.4,16-26.2,24.2-7.4-4.4-14.6-9-21.8-13.7-3.1-2-6.8-3.8-9-6.9-1.8-2.5-2.4-5.9-3.5-8.8-.5,1.3-.7,1.7-.8,2.1-.3.3-.5.5-.8.8-.5-.3-1-.5-1.5-.8v-3.1c1-.7,2-1.5,3-2.2ZM584.5,632.2c-2.9,2.2-5.8,4.3-8.8,6.6,2,2.4,3.5,4.2,5.3,6.3,6.7-6.1,12.8-11.7,19.7-17.9-2.2-2-3.9-3.5-6-5.2-2.9,2.6-5.5,5-8.2,7.4.2.3.5.5.7.8,2.5-2.2,4.9-4.4,7.7-6.9,1.3,1.6,2.4,2.8,3.5,4.2-2.5,2.2-4.6,4-6.8,5.8-.3-.9-.5-1.4-.5-1.6-.6,1-1.4,2.2-2.1,3.3-1.3-1.3-1.8-3.7-4.5-3Z" fill="#f8f7e9"/>
        <path d="M763,423.7c3.8,0,7.5,0,11.3,0,.2,0,.5.1.7.2,0,.4-29.9,1.2-33,1.3-12.2.4-24.5,1-36.7,1.4-11.8.3-23.6.8-35.2-1.4-11.5-2.1-22.4-6.4-33.5-10,1.7,8.5,2.1,16.5,1.9,25.3-.1,7-3,13.3,4.1,17.5,7.2,4.3,12.5,6.1,15.2,14.6,1,3.2,2.3,6.2,4.4,8.8,1.8,2.3,4.8,3.6,6.2,6.1-1-.4-1.5-.6-2-.8-6.7-3.9-7.8-9.7-10.5-16.3-2.9-7.2-9.6-8.3-15.5-12.3-6.3-4.2-3.3-12.3-3.4-18.7-.1-8.9,1-17.3-2.3-25.8,9.6,2.3,18.8,6.1,28.4,8.6,10.9,2.9,21.9,3.6,33.1,3.6,22.3,0,44.6-1.3,66.8-2.2Z" fill="#e6e3d8"/>
        <path d="M800.5,450.7c.6,1.2,1.2,2.3,2,3.8-7.6,7.2-15.4,14.6-23.3,22.1-2.1-1.9-4-3.6-5.9-5.3l-.5.5c1.6,1.8,3.1,3.6,5.1,5.8-4.8,4.6-9.4,8.9-13.8,13.1-9.3-3.6-18.6-7.6-28.8-5.5v-27.2c6.8-2,13.3-3.9,20-5.8,4.3,4.8,8.5,9.5,12.6,14.2,8.7-7.6,17.1-15,25.8-22.6,2.4,2.4,4.6,4.7,6.9,6.9ZM781.2,468.6c6.2-5.5,11.7-10.4,17.8-15.8-1.4-1.9-2.7-3.6-4.3-5.8-7.1,4.5-12.4,10.2-18.4,15.6,1.7,2.1,3.2,3.9,5,6ZM751.9,455.5c5.1,5.6,9.7,10.8,14.6,16.3-1.9,1.3-3,2.1-4.5,3.1-1.8-1.8-3.4-3.6-5.1-5.3-.3.3-.5.6-.8.9,2,2,4.1,4,6.3,6.2,2-1.7,3.8-3.2,5.7-4.9-5.6-6.2-10.7-11.9-15.7-17.5-2.3,1.8-4,3.3-6,4.9,3,3.4,5.3,6,7.6,8.6.2-.2.5-.4.7-.7-2.1-2.6-4.2-5.1-6.4-7.8,1.2-1.2,2.1-2.2,3.5-3.7Z" fill="#f1f0e3"/>
        <path d="M579.3,507c20.3-7.6,41.3-12.2,63-13.6-10.9,1.9-21.9,3.7-32.8,5.7-5.2,1-10.4,2.2-15.5,3.8-4.6,1.4-10,4.7-14.7,4.1Z" fill="#e2e0d6"/>
        <path d="M585.7,655.3c-1.6-1.7-3.1-3.2-4.9-4.9,8.4-7.6,16.7-15.2,25.2-23,1.7,1.7,3.1,3.2,4.6,4.9-8.4,7.7-16.7,15.4-25,23Z" fill="#f8f7e9"/>
        <path d="M631.6,604.5c1.6,2.1,2.6,3.4,3.9,5.1-7.9,7.2-15.6,14.4-23.6,21.7-1.4-1.7-2.7-3.2-4.4-5.2,8-7,15.4-14.6,24.1-21.6Z" fill="#f8f7e9"/>
        <path d="M746,491.6c1.1,1.4,2.1,2.5,3.2,3.9-4.8,4.5-9.6,9-14.8,13.8-1.2-1.1-2.3-2.1-3.8-3.5,5-4.7,9.9-9.2,15.3-14.3Z" fill="#fcfbed"/>
        <path d="M751,559.6c-.9,1-2.1,2.4-3.1,3.4-6.2-6.2-12.1-12.1-18.4-18.4,1-.8,2.5-2,3.7-3,6,6,11.7,11.8,17.7,17.9Z" fill="#dbe2f3"/>
        <path d="M607,619.7c-1.2-1.3-2.2-2.3-3.6-3.8,5.8-5.3,11.3-10.3,17.3-15.8,1.1,1.4,1.9,2.4,3.1,3.9-5.6,5.2-11,10.3-16.8,15.7Z" fill="#fcfbed"/>
        <path d="M768.8,592.8v4.2c-6.7-.3-13.3.8-19.9-.8v-4.4c6.7,0,13.2.3,19.9,1Z" fill="#fcfbee"/>
        <path d="M931,379c.4-3.1.7-5.7,1.1-8.3,3.5-1.5,5.1-1.3,7.7.9-.6,1.9-1.2,3.9-1.9,6.4,0,0,.4.7.7,1.4-2.6,1.8-4.8.1-7.6-.5Z" fill="#e6e1cf"/>
        <path d="M1093.3,493.4c1.4-4,2.5-7.2,3.8-10.7,16.1,5.7,31.8,11.2,47.6,16.7-1.3,3.6-2.4,6.9-3.8,10.7-15.8-5.6-31.5-11.1-47.6-16.7Z" fill="#d7d7d7"/>
        <path d="M1069,610.7c.3-2.7.7-5.2,1-8.2,6.9.2,13.4,1.9,20.7,3.1-.3,2.6-.6,5.1-.9,8.1-7-.8-13.9-1.8-20.8-3Z" fill="#d7d7d7"/>
        <path d="M1091.8,607.3c2.5.4,4.7.7,7.5,1.1-.7,3.9-1.3,7.3-2,11-2.7-.4-4.8-.8-7.3-1.2.6-3.6,1.1-6.9,1.8-10.9Z" fill="#d7d7d6"/>
        <path d="M1106.7,611c-.4,2.6-.8,5-1.2,7.8-1.7-.2-3.2-.4-5.1-.6.7-3.1,1.2-5.6,1.9-8.5,1.8.5,2.9.9,4.4,1.3Z" fill="#d8d8d5"/>
        <path d="M1098.2,631c-2.2.4-3.9.7-6.1,1.2-.3-1.6-.5-3-.9-5.1,2.3-.3,4.3-.6,6.6-.9.1,1.9.2,3.2.3,4.8Z" fill="#d7d7d5"/>
        <path d="M785.6,508.5c-2.9-1.6-2.7-3.7-1.9-6.5,1.8-.1,3.7-.2,5.9-.4v6.4c-1.6.2-3,.3-4,.4Z" fill="#e2dece"/>
        <path d="M952.5,613.2h-7.5c-1.4-5.7,0-11,.4-16.7h7.1v16.7Z" fill="#d6d6d5"/>
        <path d="M820.7,456.7c3.6-2.1,6.5-4.1,9.6-6.8-1.7-2.2-3.1-4.1-4.8-6.2-4.1,3.3-7.8,6.2-11.5,9.2.1,0,.2.2.4.3,4.1-4.2,8.1-8.4,12.6-13.1,2,2.3,4.2,4.7,6.4,7.2v4.2c-5.8,4.8-12,9.9-18.6,15.2-2.5-.5-5.1-1-7.7-1.5v.4c1.9.8,3.9,1.7,6.2,2.6,7.2-2.8,11.8-9.4,18.2-13.3,7.2,10,4.1,21.6,5.6,32.9-9.4,2.9-21,1.4-30.7,1.6-10.2.2-20.6.8-30.7-1.4,8.8-9.2,17.7-17.4,26.7-25.4.2.2.4.4.6.6.8-1.5,1.6-2.9,2.6-4.2,2.1,2.2,3.8,4.2,6.1,6.6,2.8-2.8,5.1-5.1,7.5-7.5l1.5-1.5Z" fill="#f5f0d8"/>
        <path d="M820.7,456.7c-.5.5-1,1-1.5,1.5-2.6,1.6-5.2,3.2-8.2,5.1-.9-1-1.8-2-3.1-3.5,5.6-4.7,11.1-9.3,16.9-14.1,1.2,1.1,2.3,2.1,3.6,3.3-2.7,2.7-5.2,5.1-7.8,7.6Z" fill="#fcfbee"/>
        <path d="M767.5,495.7c-.6,6.7-1.1,12.8-1.6,17.8-2.8-2.2-6.1-4.7-9.7-7.5,4.1-3.8,7.5-6.8,11.3-10.3Z" fill="#f7f6e9"/>
        <path d="M589,635.2c.7-1.2,1.5-2.3,2.1-3.3,0,.1.2.7.5,1.6,2.2-1.9,4.3-3.7,6.8-5.8-1.1-1.3-2.2-2.6-3.5-4.2-2.8,2.5-5.3,4.7-7.7,6.9-.2-.3-.5-.5-.7-.8,2.7-2.4,5.3-4.8,8.2-7.4,2,1.8,3.7,3.3,6,5.2-6.8,6.2-12.9,11.8-19.7,17.9-1.8-2.2-3.3-3.9-5.3-6.3,3-2.3,5.9-4.4,8.8-6.6-2.2,2.4-4.3,4.7-6.6,7.3,1.2,1.2,2.4,2.3,3.8,3.6,2.6-2.8,5-5.4,7.3-7.9Z" fill="#e4e1d3"/>
        <path d="M589,635.2c-2.3,2.5-4.7,5.1-7.3,7.9-1.4-1.3-2.5-2.4-3.8-3.6,2.3-2.5,4.5-4.9,6.6-7.3,2.7-.8,3.2,1.7,4.5,3Z" fill="#fcfbed"/>
        <path d="M781.2,468.6c-1.8-2.2-3.2-3.9-5-6,6.1-5.4,11.4-11.1,18.4-15.6,1.6,2.2,2.9,3.9,4.3,5.8-6.1,5.4-11.6,10.3-17.8,15.8ZM793.6,448.8c-5.1,4.5-10.4,9.1-16,14,1.4,1.4,2.5,2.5,3.9,3.8,5.5-4.8,10.8-9.5,16.6-14.5-1.6-1.1-2.7-2-4.5-3.3Z" fill="#e1ddd0"/>
        <path d="M751.9,455.5c-1.5,1.5-2.4,2.5-3.5,3.7,2.2,2.7,4.3,5.3,6.4,7.8-.2.2-.5.4-.7.7-2.3-2.6-4.6-5.3-7.6-8.6,2-1.6,3.8-3,6-4.9,5.1,5.7,10.1,11.3,15.7,17.5-2,1.7-3.7,3.1-5.7,4.9-2.2-2.1-4.2-4.2-6.3-6.2.3-.3.5-.6.8-.9,1.7,1.7,3.3,3.5,5.1,5.3,1.4-1,2.6-1.8,4.5-3.1-4.9-5.4-9.6-10.6-14.6-16.3Z" fill="#e2dfd1"/>
        <path d="M793.6,448.8c1.7,1.3,2.9,2.2,4.5,3.3-5.8,5.1-11,9.7-16.6,14.5-1.4-1.3-2.5-2.4-3.9-3.8,5.6-4.9,10.9-9.5,16-14Z" fill="#fcfbed"/>
      </g>
    </g>
  </g>
</svg>