<?xml version="1.0" encoding="UTF-8"?>
<svg xmlns="http://www.w3.org/2000/svg" version="1.1" viewBox="0 0 1920 1080">
  <!-- Generator: Adobe Illustrator 28.7.8, SVG Export Plug-In . SVG Version: 1.2.0 Build 200)  -->
  <g>
    <g id="_Слой_1" data-name="Слой_1">
      <g id="_Слой_1-2" data-name="_Слой_1">
        <g>
          <path d="M532.4,838.1V8.2c11.3,8,22.6,16.2,33.9,24.3,7.8,5.8,15.6,11.5,23.3,17.1.5.2,2-.6,3-.9,3,2.8,6.3,5.4,9.3,8.2,0,1.3-.8,3-.3,4.1,8.8,16.5,17.8,32.9,26.6,49.6,6.8,19.7,13.5,39.6,20.1,59.3,3.3,10,6.5,19.9,10,29.9,1,13,7.5,24.3,14.1,35.5,7.3,13,12,26.4,14.3,40.7,2,8.2,4,16.5,6.3,25.5-10.5-1.7-19.6-2.6-26.8,3.5-13,5.2-18.8,15.6-24.3,26l-11.3,39c-10.3,14.3-31.1,9.1-45.9,16.9-12.5,6.5-18.3,18.8-18.6,31.2-.3,16.2,13,32.7,22.6,46.1,10.3,14.7,23.3,27.9,38.1,39.2,3,3,6.5,5.6,9.3,8.9,5.8,6.7,11.5,13.4,17.1,20.4,10,13,20.1,26,30.1,39h0c6,11.7,13.8,22.1,24.6,30.7h0c8.3,9.1,16.3,18.4,24.6,27.5h0c6.3,7.1,12.5,14.1,18.8,21.2l22.6,17.8c4,6.9,17.3,10.4,24.3,15.6,5,3.9,13.8,18.2,19.1,18.6,1.8,3.9,3.8,7.6,5.5,11.5-1.8,10.4,3.8,22.1,6.3,32.3,3,11.3,6,22.3,8.8,33.6,3,11.9,5.5,23.6,5,35.7-.3,7.4-5,18,4.5,21.9l15.1,9.7c-2.5,2.6,34.9,12.8,39.4,13.9,16.8,3.9,34.1,6.5,51.4,5.6,1.3,3,2.3,5.6,3.3,8.2,7.5,15.4,14.8,30.5,21.8,46.1,15.1-4.8,28.6-9.1,42.4-13.4-.8-4.8-1.5-8-2-11.5,5.8.9,11.5,1.5,17.3,2.6,8.8,1.7,17.3,3.7,26.1,5.4h0c24.1,9.1,47.9,18.6,74.3,24.3,2.5,8.2,3.5,24.5,10.5,31,6.8,6.3,23.1,3.2,31.9,3.2h0c12,4.3,23.8,8.7,35.9,13,16.1,1.5,29.9-6.1,45.9-8.2,1.5,4.1,2.5,8,4,11.7,5.8,16,8.8,32.3,5,49.1-1.3,5.4,1,11.5,1.5,17.1,1,.4,1.8.9,2.5,1.1,1-3.9,2-7.4,3-10.8,0,2.2.5,4.3.5,6.5,6.3-28.1-.5-53.9-8-81.2,17.8-5.2,35.9-10.2,54.2-15.4-1.5-5-2.3-8.7-3.5-12.1-44.9-116.5-89.6-233.2-134.5-349.7-17.3-44.8-34.4-89.4-51.4-134.2,11.5-1.5,23.3-2.6,34.9-4.5,11-1.7,21.6-4.5,32.6-6.7,15.8,19.9,0,43.1,7.3,64.7,7,20.4,26.8,42.4,24.8,63.7-7.8-.6-13.8-1.3-20.8-1.9,4.8,45.7,30.6,90.3,49.9,132.5,20.6,44.6,42.9,88.6,63,133.4,17.8,39.4,34.6,79.7,45.7,120.8,8.5,31.4,18.1,76.6-20.6,96.4-40.6,20.8-91.1,0-130.2-12.3-21.6-6.9-43.9-13.2-63-24.3-19.6-11-40.4-19.5-61.5-28.1-44.4-18.2-90.1-34.2-135.7-50-45.2-15.6-89.8-32-136-45.3-94.3-27.1-192.2-39.6-290.6-49.8l-1.3-.2ZM1323.6,1038c.8-5.2,1.3-9.3,2-13.9-4-.6-7.5-1.3-11.5-2.2v13.4c2.8.6,5.3,1.5,9.8,2.6h-.3ZM1297.2,1019.2c-.3,6.1-.5,10.2-.8,14.7,4.8.9,8.5,1.3,12.5,1.9-.8-4.8-1.5-8.7-2-13-2.5-.9-4.8-1.9-9.5-3.9l-.3.2ZM949.5,900.5c1.3,3.2,2.3,6.3,3.8,9.7,4-1.3,7-2.2,11-3.5-2-3.9-3.5-6.9-5.3-10.6-3.5,1.7-6.3,2.8-9.5,4.3h0Z" fill="#f9f7e8"/>
          <path d="M532.4,838.1c98.4,10.2,196.2,22.7,290.6,49.8,46.2,13.2,90.8,29.7,136,45.3,45.7,15.8,91.1,31.8,135.7,50,21.1,8.7,42.2,17.1,61.5,28.1,19.3,11,41.7,17.3,63,24.3,39.1,12.6,89.6,33.3,130.2,12.3,38.6-19.7,29.1-65,20.6-96.4-11.3-41.1-27.9-81.4-45.7-120.8-20.3-44.6-42.4-88.8-63-133.4-19.3-42.2-45.2-86.8-49.9-132.5,7,.6,13,1.3,20.8,1.9,2-21.2-18.1-43.3-24.8-63.7-7.3-21.7,8.8-44.8-7.3-64.7.8-1.1,1.5-2.2,2.3-3.2l157.8-39c4.3,16,4.8,32.9,6.8,49.1,2.3,17.3,4.8,34.9,7,52.2,4.8,34.9,7.3,70.2,14.3,104.8v480.7h-856.1v-86.2c29.1,1.7,57.2,2.6,86.1-1.5,15.1-2.2,55.7-6.1,57-23.8.8-9.3-10.3-13.6-18.3-17.1-12.5-5.2-25.1-9.1-38.4-11.9-28.6-5.8-57.5-10.4-86.3-15.4v-89.2l.3.2ZM1248.3,623.4c-.5,13,6.3,25.5,18.1,33.6,7.8,5.4,33.1,15.2,31.6-1.1-.8-7.8-7-17.5-10-24.7-3.5-7.8-6.5-16-12.8-22.5-4-4.1-9.8-9.3-16.8-6.7-8.5,3-8.5,15.4-10,21.7v-.2Z" fill="#95d3f1"/>
          <path d="M536.2,3.5h634.1c6.3,56.1,17.6,111.5,23.8,167.6,3.3,28.8,5,57.8,7.8,86.6,1.5,14.1,2.8,27.9,4.8,42,2,13.6,3.3,29.4,10.5,41.8h3.3c7.5-22.5,10.5-48.5,31.9-64.5,13,10.2,7.5,28.4,5.5,41.4-2.3,15.4-4.8,31-10,45.7-4.3,11.7-12.5,29.2-28.6,31.8-14.6,2.4-30.4-8.2-44.2,1.1,3,12.6,8.3,21.2,15.8,32-12,10-37.9,11.5-53.9,12.8-19.8,1.7-39.1,3-58.5,6.7-2.3-4.1-4.3-7.8-6-11.3-1-3.2-1.8-6.7-3-10-3.3-9.7-6.8-19.3-10.3-29-3.5-8.9-7.8-17.8-10.5-26.8-10.5-33.3-20.6-66.9-30.9-100.5-3.3-10.4-7-20.6-17.1-28.4-2.3-1.7-2.5-5.2-3.8-7.8,0-.4-.8-.4-1-.9-.8,1.1-1.8,2.2-1.3,1.5-13.3-2.8-25.1-5.4-37.1-8-20.8-5-41.9-9.7-62.7-14.7-16.3-3.9-33.4-5.8-48.4-11.9-31.6-12.6-62-27.7-88.8-47.6-1-.9-3.5-.4-5.3-.4-9.3-6.5-18.8-13-28.1-19.5-.5-1.3-.5-3-1.5-3.7-6.3-4.3-12.8-8.4-19.1-12.8-9.5-5.8-18.8-11.9-28.4-17.8h0c-8.3-5.8-16.3-11.9-24.6-17.5-.8-.4-2.5,0-3.5-.2-5-3.7-10-7.6-15.1-11.3-6.3-7.8-17.3-13.2-25.8-19.1-8.5-5.8-18.1-14.9-28.6-16.7-2-1.7-3.8-3.5-5.8-5-4.3-2.8-8.8-5.4-13-8-.8-1.3-1-3.2-2.3-4.1-6.5-4.8-13.5-9.3-20.3-13.9v.2ZM997.1,133.8c.3,16.7,2.5,32.5,6,48.5,5.5-.4,9.3-.6,14.6-1.1-2-16.2-4-31.8-6.3-47.4h-14.6.3ZM1052.8,331.9c7.8-4.8,12.8,7.1,21.1.6v-7.4c-.8,0-1.5.4-2,.6-3.8-6.7-7.5-13.4-11.8-20.8-4.8,1.5-9,2.8-14.1,4.3,2.5,7.8,4.5,14.7,7,22.5h-.3ZM995.9,91.2c7.8,3.5,11.3-1.5,16.8-4.5-1-7.6-1.8-15.2-2.8-23-6-.6-11-1.3-17.3-2.2,1.3,11,2.3,20.4,3.3,29.4v.2ZM1071.2,243.8c-1-7.4-2-13.2-3-19.7-4,.4-7,.9-10,1.3v18c4,0,7.3.4,12.8.6l.3-.2ZM1050.6,259.4c-5,1.5-9,2.6-14.3,4.1,4.3,11.3,8.3,21.4,12.5,32.5,5.3-1.7,9-3,13.3-4.5-4-10.8-7.5-21-11.5-32ZM1105.3,419.8c-1.3-3.9-2.5-7.1-3.8-10.8-4,.9-6.8,1.3-10.8,2.2,1.3,4.3,2.3,7.8,3.5,12.1,4-1.3,7-2.2,10.8-3.2l.3-.2ZM1075.9,360.1c-4,1.3-7.8,2.4-12.3,3.7,2,3.7,3.3,6.1,5,9.3,4.3-1.5,7.5-2.6,11.3-3.9-1.5-3.5-2.5-5.6-4-9.1ZM1025.5,128.8h-2.5v53.7c4-17.8,1.5-35.5,2.5-53.5v-.2ZM1076.4,395.6c4-1.5,6.5-2.4,10-3.7-1.8-3.2-3.3-5.6-5-8.7-3,1.3-5.5,2.2-8.5,3.2,1,2.8,1.8,5.2,3.3,9.1h.3Z" fill="#f9f7e8"/>
          <path d="M1191.1,428.9c-7.5-11-12.8-19.7-15.8-32,13.8-9.3,29.6,1.3,44.2-1.1,16.1-2.6,24.3-19.9,28.6-31.8,5.5-14.7,7.8-30.5,10-45.7,1.8-13,7.3-31.2-5.5-41.4-21.3,16-24.3,42-31.9,64.5h-3.3c-7-12.3-8.5-28.1-10.5-41.8-2-13.9-3.5-27.9-4.8-42-3-28.8-4.8-57.8-7.8-86.6-6.3-56.1-17.6-111.7-23.8-167.6h73.3c.8,12.8,5,25.8,18.3,32.9,7,3.9,14.6,5.4,20.3,11,5.8,5.6,9.3,14.1,12.5,21,15.6,32,22.6,68.2,29.6,102.2,14.8,72.8,24.3,146.2,35.9,219.3-.8.4-1.3,1.1-2,1.5-3.5.9-7.3,1.5-10.8,2.4-50.9,12.8-101.9,25.5-152.8,38.3l-3.8-3.2h0Z" fill="#93d2f1"/>
          <path d="M1194.9,432.2c50.9-12.8,101.9-25.5,152.8-38.3,3.5-.9,7.3-1.5,10.8-2.4,6.5-1.3,13-2.6,21.6-4.3-3.3-13.6-9-25.5-14.1-38.8-4.8-12.1-5.5-24.9-7.5-37.5-4.3-28.4-9-56.9-15.1-85.1-1.3-8-2.5-16.2-3.8-24.3-3.5-32.5-10-64.7-13.5-97.4-3.5-33.6-1.8-67.3-1.5-100.9h3.8c4.8,33.1.5,67.3,2.3,100.7,1.8,31.6,9.3,63.2,14.3,94.4,5,31.6,10,63.2,15.3,94.6,2.8,15.6,4.3,31.4,8,46.8,3.5,14.5,10.8,28.8,16.3,42.9-1.8,4.1-2.8,6.3-3.8,8.7-6.8,1.7-13.8,3.2-20.6,5l-157.8,39c-20.6,4.5-40.9,11-62.2,11.9-21.6.9-41.4,3.7-62.5,7.4,1.5,12.1,6,24,9.8,35.7,1.3,3.2,2.5,6.5,4,9.7,3.5,8.2,7.3,16.2,10.8,24.5,1,3.7,1.5,7.4,2.8,11,4.8,13.2,9.5,26.2,14.3,39.2,1.3,2.2,2.3,4.3,3.5,6.5,5.8,23.2,17.1,45.9,26.3,68.2h0c2.3,6.9,4,14.1,6.5,20.8,6.5,18,13.3,35.7,19.8,53.7,1.3,2.2,2.3,4.3,3.5,6.5,1,3,1.8,6.3,2.8,9.3,6,16.5,12,32.7,18.1,49.1,2.5,5.4,4.8,10.8,7.3,16.5,1,3,1.8,6.3,2.8,9.3,6.5,18,13.3,35.9,20.1,53.9l5.5,11.5c7.5,20.1,15.1,40.1,22.8,60,.3.6,1.3,1.3,1.8,1.7l5.5,19.3c2.3,12.3,7.3,24,9.8,36.4,2.8,12.8.8,25.3-.5,38.3-1,3.5-1.8,6.9-3,10.8-.8-.4-1.8-.6-2.5-1.1,0-13.4.8-26.8.5-40.3-.3-14.1-4.8-26.2-9-39.6-17.1,3-32.4,5.8-47.9,8.4-4.8-1.7-9.3-3.7-14.1-5.2-7-2.2-14.3-4.1-21.6-6.1h0c-8-.6-24.1.6-30.1-4.8-7.3-6.7-8-22.7-10.5-31.2-26.1-5.2-50.7-15.2-76-22.3h0c-9.5-5.6-20.6-7.1-31.9-8-13.5-1.3-24.6-5.2-30.1-17.1-6-12.8-13-25.1-20.1-38.3-2.5,1.3-4.5,2.4-6.5,3.5h0c-7.8,0-12.3,4.5-16.6,9.1-.5,3.5-.8,6.5-1.3,9.3-12.5,4.3-24.6,1.7-36.4,0-19.6-3.2-38.6-8-57-15.2-5-3.2-10-6.5-15.1-9.7-5.5-7.1-4-14.9-3-22.7.8-5.4,1.8-11,.5-16-7-28.4-14.8-56.5-22.1-84.7-1.8-3.9-3.8-7.6-5.5-11.5-1.8-2.8-3.5-5.6-5.3-8.4-8.8-13-23.6-19.1-38.1-25.8l-22.6-17.8c-6.3-7.1-12.5-14.1-18.8-21.2h0c-8.3-9.3-16.3-18.4-24.6-27.7h0c-8.3-10.2-16.3-20.6-24.6-31h0c-5-7.4-9.8-14.7-15.3-21.9-4.5-6.1-10-11.5-15.1-17.1-5.8-6.7-11.3-13.6-17.1-20.4-2.8-3.2-6-5.8-9.3-8.9-10.3-14.1-24.8-25.5-35.1-39.6-9.3-12.8-23.1-29.2-23.3-44.8,0-12.8,8-26.6,21.8-32,11.5-4.5,37.1-.6,40.6-14.9,4.5-13.6,8.8-27.1,13.3-40.7,6-10.2,13.5-19.3,24.6-26,4.8-1.1,9.5-2.2,14.1-3,4,.9,7.5,1.9,11.3,2.8.8-.4,1.5-.9,2.3-1.5-2.3-9.1-4.5-18.4-7-27.5-.5-2.8-.3-6.1-1.3-8.7-9.5-23.2-19.1-46.1-28.9-69.3-1-14.9-7.5-30.7-12.3-45-4.8-15.2-11.5-29.7-17.8-44.4-.5-1.7-.5-3.7-1.5-5.4-8.3-15.6-16.6-31-24.8-46.6l-9.3-8.2c-8.8-5.4-17.6-10.8-26.3-16.2-11.3-8-22.6-16.2-33.9-24.3v-3.2c8.8,5.4,17.6,10.8,26.3,16.2,4.3,2.6,8.8,5.2,13,8,2,1.3,3.8,3.2,5.8,5,12.5,8.4,24.8,16.9,37.4,25.1,5.5,3.7,11.5,7.1,17.1,10.6,5,3.7,10,7.6,15.1,11.3,9.3,5.8,18.8,11.9,28.1,17.8h0c8.8,5.8,17.6,11.9,26.3,18,7.5,5.4,15.1,10.8,22.6,16.2,9.3,6.5,18.8,13,28.1,19.5,28.9,19.1,60.2,38.8,94.1,50.9,17.3,6.3,37.1,8.9,55.2,13,18.6,4.1,37.4,8.2,56,12.3,16.1,3.5,32.1,5.6,43.7,16.9,11.8,11.5,14.8,28.1,19.3,42.7,11.5,36.8,23.6,73.2,36.6,109.6,1,3.7,1.5,7.4,2.8,10.8,3.5,10,7,19.7,10.5,29.7,1.8,4.1,3.5,8.4,5.5,13,39.4-8.9,80-7.1,118.4-19.3l1.5.6ZM956,679c8-1.7,15.8-3.5,24.8-5.6-1.8-2.6-3-4.1-4.3-5.8h0c-3.5-8.4-6.8-17.1-10.3-25.5-1.5-3.9-3.3-7.8-4.8-11.9h0c0-7.1,0-14.3-5.3-20.6-8,1.5-15.6,3-23.1,4.5-9,4.1-19.3,6.3-25.1,15.8,2.5,5.8,5.3,11.9,8,18.2,5,10.8,10.3,21.7,15.3,32.5,2.5,2.6,5,5.2,7.8,7.8,6-3.5,11.3-6.5,16.6-9.5h0l.3.2ZM1097,651.5h0c3.3,9.7,6.3,19.5,9.5,29.2,6.8,17.3,13.8,34.6,20.6,52.2,4.8,14.1,9.5,27.9,14.6,42.9,16.1-3.5,30.4-6.5,45.9-10-2.8-6.3-5.3-11.7-7.8-16.9-1-3.7-1.5-7.4-2.8-11-7.8-20.8-15.8-41.4-23.6-62.1-7-18.8-14.3-37.7-21.6-57.6-10.8,2.6-20.8,5-30.9,7.4-2.5,1.1-5,2.2-7.8,3-1.5.6-3,1.1-5.5,1.9,3.3,7.1,6.3,14.1,9.3,20.8v.2ZM1151.5,833.2h0c-12.3,2.6-24.3,1.7-35.9-3.2-4.3-5.8-8.8-11.9-13-17.8-1.5-7.4-3-14.7-4.8-23.4-22.3,5.2-43.9,10.2-65,16.9-6,1.3-3.3,4.8-2.3,7.6,5.8,18,11.5,36.2,17.6,54.1,5.8,10,4,22.5,14.6,31.2,3.3-1.9,5.5-3.7,8-5.2,14.8-8,29.4-17.1,45.9-22.3,16.8-5.2,35.1-7.4,52.4-10.6-2-3.5-3-5.6-4.3-7.8-2.3-7.6-4.5-14.9-7.3-23.8-3,2.4-4.5,3.5-6,4.5v-.2ZM965.5,807.2c2,2.6,4,5.2,7,9.1,8.8-1.5,17.8-2.8,26.8-4.3,3.8-1.5,7.5-3,11.3-4.8,3.8-1.1,7.3-1.9,12.5-3.5-5-14.3-9.8-27.3-14.6-40.5h0c-3.3-9.7-6.3-19.5-9.5-29.4-1-2.6-1.8-5.4-2.8-8h-12.3c-17.3,0-34.4,1.7-51.7,3.2,4.5,10.2,8.3,18.8,12,27.7,3,7.1,6,14.1,9.3,21.2l11.8,29.2h0ZM1013.9,758.7c.3,2.2.5,4.3,1,6.3,2.8,9.3,5.8,18.6,8.5,27.7,1.3,3.2,2.5,6.3,4,9.7,23.6-6.1,46.4-12.1,70.3-18.2-1-7.6-2-14.1-2.8-20.8,1-10-1.3-19.7-5.3-29-3-6.9-5.3-14.3-8-21.2-6.3-11.9-12.5-23.8-18.8-35.7-4.8-7.4-12.3-10.8-21.6-9.7-13,1.5-25.8,4.1-38.6,6.3-4.8.9-9.5,1.5-14.3,2.4,0,2.2-.3,4.1-.5,5.8l5.5,13.2c3.8,11.5,7.5,22.7,11.3,34.2h0c3,9.7,6.3,19.5,9.3,29.2v-.2ZM929.6,565.3h9.8c-2.3-9.5-4.3-17.8-6-25.8-.8-5-1.5-10-2.5-15.2,5.5-4.3,10.5-8.2,16.1-12.6,1,1.7,1.8,3,2.8,4.8-8.5,4.8-15.1,5.4-14.3,15.4.8,10.2,5.8,21.2,8.5,31.2,9.8,1.5,14.8-4.3,21.3-7.6,13.8-4.3,27.6-8.7,41.4-13.2,14.3-1.1,27.9-3.2,41.9-5.6-5.8-25.5-17.3-50.9-26.1-76-8.8-25.3-18.3-50.4-30.4-74.7-12.5-24.9-22.8-50.7-33.4-76.4-10.8-26.6-15.8-52.4-18.8-80.3-14.1-5.4-30.4-7.6-45.4-10.8-15.8-3.5-31.6-6.5-47.7-9.3l-20.6-9.7c-14.3-10.2-32.1-16.9-47.9-25.3,11.8,43.5,35.6,82.3,41.7,127.1,3,22.5,3.3,45.3,7.5,67.6,4.5,23.2,9.3,46.1,14.1,69.1,17.8-7.6,34.1-14.5,54.7-12.1,4.5,7.8,8.8,15.8,12.8,23.8,12.5,14.7,25.1,29.2,37.6,44-1.3.4-2.5,1.1-3.8,1.5-8.3-9.1-16.3-18.4-24.6-27.5-1.8-1.7-3.5-3.2-5.3-5-5-10.6-11.5-24.3-20.8-32.5h0c-13.8-5.2-38.4,5.6-49.4,12.6,3.8,20.8,10.5,40.3,17.6,60.4,1.3,2.2,2.5,4.3,3.5,6.5,5,13.2,10,26.6,15.3,39.8,1,2.2,3.5,3.9,5.5,5.8,15.1,3.2,30.1,6.5,45.2,9.7l-.3.4ZM965.3,721.2c9.8-.6,19.6-1.1,29.9-1.7-1.5-5.2-2.5-9.1-3.8-13-3.3-9.5-6.3-19.3-9.8-29.4-9.3,2.4-17.6,4.5-25.8,6.7-9,3-15.3,8.4-17.6,16.9-.5,1.9-2,3.9-3,5.8-1.5,5.6-3,11-4.5,16.7l2.3,1.9c10.8-1.3,21.6-2.6,32.6-3.9h-.3ZM905,731c-16.1,3.5-31.6,9.3-48.9,6.3-6.8-3.7-13.8-7.6-20.6-11.3-1.5-1.3-3-2.8-4.5-4.1-.5.2-1.3.6-1.8.9,6,23,12.8,45.5,19.3,68.2h0v43.3c3.5,2.6,6.5,4.8,9.5,7.1l18.8,8c23.6,5.4,46.9,12.6,72.5,11.3,2-11.9,12.8-16.9,23.6-22.5,3.8-1.5,2.5-3.7,1.3-5.8-6.8-12.6-13.5-25.3-20.1-38.1-2.8-7.1-5-14.3-8-21.4-4-9.3-8.3-18.2-12.5-27.3-1.8-5.2-3.5-10.6-5.5-16.7-8.3.9-15.6,1.5-22.8,2.2h-.3ZM805.2,338c-10.8,9.7-21.3,19.5-32.1,29.2l-7.5,6.5c-23.1,7.8-31.6,25.5-38.9,43.7-1,2.2,0,5.4,1.3,7.8,9.5,17.8,18.3,35.9,29.1,53.3,7.3,11.7,17.1,22.3,25.6,33.6,7.5,9.7,15.1,19.5,22.6,29.2h0c9.5,8,17.1,11.7,30.6,13,12.5,1.3,25.1,1.5,37.9,1.5.8-6.5-1.3-12.3-6.3-21-2-5.4-3.8-10.8-5.8-16-6.8-16.9-13.5-33.8-20.6-50.7-.5-3.2-1.3-6.5-1.8-9.7-1-28.6-10.5-58-17.1-86-1.5-14.7-3.3-29.4-5-45.5-4.5,4.3-8.3,7.8-12,11.3v-.2ZM914.6,617.3h0c13.5-4.3,27.1-8.7,41.4-13.2-3-6.9-6.3-13.9-9.3-21-1.5-4.1-3-8.4-4.5-12.3-6.5-.9-12.3-1.5-18.1-2.4-12.8-4.5-26.1-7.8-42.2-8,3.5,11,6.8,21,10,31,.5,1.5,1.3,3,1.8,4.8,4.3,8.9,8.3,17.5,13.3,27.7,3.5-3,5.5-4.8,7.5-6.5ZM1033,347.7h0c-3.8-13.4-7.5-27.1-11.5-40.5-4-13.2-8.5-26.2-12.3-39.6-3-10.8-9.3-19.1-19.6-25.5-3.8-1.5-7.5-3.2-11.3-4.8-10.3-1.9-20.6-4.1-32.9-6.5,1,11.7,2,22.1,3,32.3,10.5,40.7,28.4,80.1,46.9,118.7h0c1,3,2,6.1,3.5,8.9,3.3,6.7,6.5,13.6,10,20.4,8,21.7,16.1,43.5,24.1,65.2,2.8,8,5.3,16,7.8,24,1.3,2.2,2.3,4.3,3.5,6.7,3.3,8.7,6.5,17.3,10.3,26.8,14.1-3.7,27.1-7.1,40.4-10.8-4.5-12.1-8.8-23.2-12.8-34-3.8-12.3-7.5-24.9-11.3-37.2-9.5-25.3-18.8-50.9-28.4-76.2-3-9.3-6.3-18.4-9.3-27.7h-.3ZM1191.1,914.4c-2-2.8-3.8-5.6-5.5-8.2-15.1,6.9-29.1,13.4-43.9,20.1,1.3,3.5,2.8,7.1,4.3,10.8,1.5,6.1,3,12.1,4.8,18.8,3.3.2,5.8.4,8.5.6h21.8c5.8-11,12-23.4,18.6-35.9-3.3-2.6-5.8-4.3-8.3-6.3h-.3ZM677.2,524.6c-5.5,2.6-11,5.2-17.8,8.2,6.5,7.8,12.3,14.3,17.8,21,11,24,33.9,45.3,52.7,65,10.8,14.7,22.6,28.8,37.6,40.7,8,8.2,18.8,12.3,29.9,16,10.3,9.5,18.3,18.8,25.8,30.1,8,11.9,18.3,18.6,30.9,26.6,6.3.4,12.5,2.2,18.3,1.3,17.6-3,34.9-6.9,52.4-10.6.8-3.7,1.8-7.8,2.5-11.7h0c3.3-6.1,6.3-12.1,9.5-18.4-2.8-3.2-5.3-6.3-7.8-9.3-1.8-2.8-3.8-5.4-5.5-8.2-4.5-9.3-8.8-18.8-13.3-28.1-3.3-6.9-6.3-13.6-9.5-20.6h0c-3.3-11.3-9.3-20.8-13.8-31.8-4.5-11.3-6.8-23-10.5-34.2-17.8-1.3-35.4-2.6-53.2-3.9-10.5-1.5-18.8-6.5-26.1-12.8v-1.5c-4.5-6.1-8.8-12.1-13.3-18.2-.5-1.3-.8-2.6-1.5-3.7-8.3-10.6-16.6-21.2-24.8-31.8-12-21.4-24.1-42.9-36.4-65.2-9.5,3.2-18.6,6.5-27.6,9.7-1.3.4-2.5,1.1-3.8,1.5-17.1,1.9-27.1,14.1-22.6,27.7,6.8,12.8,14.3,25.3,20.3,38.5,5.5,11.9-.5,16-11,23.2l.8.4ZM1004.9,813.9c-10,2.4-19.8,4.8-31.1,7.6,3.8,5.6,7,10.4,10.3,15.2,2.5,5.8,5,11.9,7.5,17.8,5,9.5,9.8,19.1,14.8,28.6,2.5,4.8,7.3,7.1,13.5,7.1,11,1.9,21.8,3.9,34.1,6.1-3.5-9.3-6.5-17.5-9.5-25.8-6.5-20.6-13.3-41.1-20.1-62.6-7.3,2.2-13.3,4.1-19.6,5.8v.2ZM1179.8,903.1c6.3-10.2-5.3-27.1-9.3-37.7-12.8,1.7-25.3,3.5-37.6,5.2-24.3,5-44.9,15.8-65,30.5,10.3,3.7,18.8,6.7,27.4,10,13.8,4.5,29.9,12.3,44.9,9.7,14.8-2.6,28.4-9.7,39.9-17.8h-.3ZM954.2,589.6c2.5,4.8,5,9.5,7.5,14.5,20.8-5,41.4-10.6,62-16h1.8c12.8-2.8,25.6-5.8,39.1-8.9-4.8-13.2-9.3-25.5-13.8-38.5-6.5,1.3-12.3,2.6-17.8,3.9-7.5.6-15.1,1.1-22.3,1.7-19.8,3-38.4,8.9-54.7,19.3-3,1.3-6,2.8-9.3,4.3,2.5,6.9,5,13.4,7.5,20.1v-.4ZM1256.8,950.3c-13.5-13.2-35.9-19.5-54.2-27.3-3.5,8.2-6.5,15.4-9.8,22.3-2.8,4.3-5.5,8.7-8,12.8,19.1,13.9,49.2,14.5,74.3,1.9-.8-3-1.5-6.3-2.3-9.7h0ZM1151.7,826.9c5.3-5.8-.8-14.5-3.3-21.2-3.3-8.9-6.5-17.8-10-26.6-12.3,2.8-23.8,5.6-35.4,8.2,1,4.5,2,9.1,3.5,13.6,2,6.5,3.8,13,5.8,19.3,9.5,11,23.3,13.4,39.4,6.7ZM1238,901.6c-1.5-5-3-9.7-4.8-14.7-7.3-19.5-14.6-39-21.6-58.2-7.5-19.5-15.3-39-23.1-58.9-15.6,3.5-29.9,6.7-45.2,10,1.3,3.9,2.3,6.7,3.3,9.3,4.8,13,9.5,26.2,14.6,39.2,10,26.2,19.8,52.6,30.6,78.8,1.5,3.7,7,6.3,10.5,9.3,7.5,6.3,16.6,9.5,26.1,13.6,7.5,3.2,15.8,8.7,24.3,8.7-5-12.8-9.8-24.9-14.8-36.8v-.2ZM645.6,341.2c-1.5,5.4-2.5,11-4.3,16.5-2.5,7.1-6,13.9-9,20.8-18.3,15.4-57.7,5.4-59.7,35.7-.8,14.1,10.3,28.8,17.8,40.7,7,11.3,14.3,23.4,26.8,30.7,4.3,4.3,8.8,8.7,13,13,9.3,10.2,18.6,20.4,28.1,30.7,14.3-7.1,33.4-11.9,25.8-28.6-7.8-16.7-29.6-39-18.1-57.4,14.1-12.8,33.9-16,52.2-22.7.8-10.2-3.5-18.8-7-27.7-2.8-27.5-11.5-55.4-17.6-82.7-27.4-12.3-40.1,13.4-48.2,30.7v.2ZM982.1,664.5c1.3,2.6,2.5,5.2,4,7.8,17.3-3.2,37.6-10.2,55.5-9.3,9.8.4,17.6,5,26.8,6.9,9.5,1.9,19.3,1.3,28.9.2-4.3-13.6-9.8-26.6-15.3-40.1-5-15.6-10-31.4-15.6-47.6-35.4,8.7-69.3,17.1-103.9,25.8,2.3,9.7,4.5,18.4,6.5,26.8,2.3,6.9,4.5,13.9,7.3,20.6,1.3,3,3.8,5.8,5.8,8.7v.2ZM752.7,364c-8.8-8-17.6-16.2-26.6-24-.5-.6-2.5,0-3.5,0-5-4.3-10-8.7-15.1-13-1.3-1.9-2.8-3.9-4-5.8-.8.4-1.8.6-2.5,1.1,5.8,30.1,11.8,60.2,22.1,91.2,5.3-9.5,8.5-18.2,14.6-25.1,6-6.7,14.8-11.7,23.1-18-3.3-2.4-5.8-4.3-8.3-6.3h.3ZM669.7,213.1c5,15.4,14.6,29.4,19.6,45,4.8,14.7,7.3,29.4,9.5,44.4,2.8,16.5,16.8,25.8,30.9,35.7,13.3,9.5,23.3,21.7,37.4,30.3,17.1-16.2,33.1-31.4,49.7-47-2.3-22.7-2.8-46.8-13.8-68-5-17.1-13-33.6-19.8-50.2-5.5-13.4-8.5-32.3-23.3-40.7-9.3-5.8-18.8-11.9-28.1-17.8-8.8-6.1-17.8-11.9-26.6-18-28.9-19.5-57.5-39-86.3-58.5l-7.8-6.3c-.5.4-1,.9-1.5,1.3.5,1.1.8,1.9,1.3,2.8,22.1,35.1,36.6,72.5,46.7,111.3,3,11.9,7.8,23.6,11.8,35.5h.5ZM1061.1,552.3h0c2.5,8.2,5,16.5,7.8,25.5,15.3-4.3,28.9-8,42.9-11.9-5.3-13.4-10-25.8-15.1-38.5-14.8,4.1-28.1,7.6-42.2,11.5,2.5,5.2,4.5,9.5,6.5,13.6v-.2ZM1108.3,701.7c-.8-9.3-5-17.5-9.8-26.2h-31.9c20.6,33.6,35.1,68.6,36.4,107.4,12-3,22.6-5.6,34.1-8.4-3.5-8-6.8-15.4-10-22.5h0c-5.3-15.2-10.3-30.3-15.3-45.5h-12.8c-1-.4-1.8-.6-4-1.7,5.5-1.3,9.5-2.4,13.5-3.2l-.3.2ZM1113.6,569.7c-15.3,4.3-29.1,8.2-42.9,12.3,5.5,15.4,10.8,29.2,16.1,44,14.8-4.1,28.4-8,43.2-12.1-5.5-14.9-10.5-28.8-16.3-44v-.2Z" fill="#fdfdfd"/>
          <path d="M1360.5,396.4c6.8-1.7,13.8-3.2,20.6-5,14.8-7.6-1.8-29.2-5.8-38.8-6.5-15.4-7.8-32-10.5-48.3-5.5-32.7-10.5-65.4-16.1-98.1-5.5-33.6-10.5-67.1-14.6-100.7-4-34-2-68.4-2-102.6h56.5v599.3c-7.3-34.6-9.5-69.9-14.3-104.8-2.5-17.3-5-34.9-7-52.2-2-16.2-2.5-33.1-6.8-49.1v.2Z" fill="#f9f7e8"/>
          <path d="M532.4,927.6c28.9,5.2,57.7,9.5,86.3,15.4,13.5,2.8,26.1,6.9,38.4,11.9,8,3.2,19.1,7.8,18.3,17.1-1.5,18-41.9,21.7-57,23.8-28.9,4.1-57.2,3.2-86.1,1.5v-69.7Z" fill="#f9f7e8"/>
          <path d="M1339.9,201.6c1.3,8,2.5,16.2,3.8,24.3,3.3,27.7,7,55.2,12,82.5,2.3,12.8,3,26,7.3,38.5,4.3,13,11,25.1,15.1,38.1-6.8,1.9-12,3.2-17.3,4.8-11.5-73.2-21.1-146.6-35.9-219.3-7-34.2-14.1-70.2-29.6-102.2-3.3-6.9-6.8-15.2-12.5-21s-13.3-7.1-20.3-11c-13.3-7.1-17.6-20.1-18.3-32.9h79c0,32.5-3,66.3.3,98.7,3.5,33.3,9.3,66.7,16.6,99.6h0Z" fill="#f9f7e8"/>
          <path d="M1332.4,3.5c0,34-2,68.6,2,102.6,4,33.6,8.8,67.1,14.6,100.7,5.5,32.7,10.5,65.4,16.1,98.1,2.8,16.2,4,32.7,10.5,48.3,4,9.5,20.3,31.2,5.8,38.8,1-2.4,2-4.5,3.8-8.7-5.5-14.1-12.5-28.4-16.3-42.9-3.8-15.4-5.5-31.2-8-46.8-5.3-31.6-10.3-63.2-15.3-94.6-5-31.2-12.5-63-14.3-94.4-1.8-33.3,2.8-67.6-2.3-100.7h3.8l-.3-.4Z" fill="#e3e2dc"/>
          <path d="M1339.9,201.6c-7.3-32.9-13-66-16.6-99.6-3.3-32.3-.3-66-.3-98.7h1.8c0,33.6-1.8,67.3,1.5,100.9,3.3,32.5,10,64.7,13.5,97.4Z" fill="#e1e0db"/>
          <path d="M558.8,21.4l-26.3-16.2c1.3-.4,2.5-1.1,3.8-1.5,6.8,4.5,13.5,9.1,20.3,13.9,1.3.9,1.5,2.8,2.3,4.1v-.2Z" fill="#e3e2dd"/>
          <path d="M1123.3,581.6c-1.3-2.2-2.3-4.3-3.5-6.5,0-15.8-8.5-36.2-17.1-50.2-3.8-8.2-7.3-16.2-10.8-24.5-1.5-3.2-2.5-6.5-4-9.7,0-11.5-4.3-22.1-7.8-33.1,17.6-5.8,35.1-7.4,52.7-7.4,17.1,44.8,34.4,89.6,51.4,134.2,44.9,116.5,89.8,233.2,134.5,349.7,1.3,3.5,2.3,7.1,3.5,12.1-18.3,5.2-36.1,10.4-54.2,15.4-.3-.2-.8-.6-1-.9-.3.4-.8.6-1,.9l-5.5-19.3c0-6.7-21.6-62.4-24.6-61.9l-5.5-11.5c.8-11.7-5.8-23.2-10-34.2-3.3-8.2-5.5-23-12.8-29-2.5-5.4-4.8-10.8-7.3-16.5.5-11-5-21.4-9-31.8-3-7.8-5-20.8-11.8-26.4-1.3-2.2-2.3-4.3-3.5-6.5.8-12.1-6-24.5-10.5-35.9-5-13-10.5-25.8-15.8-38.8h0c-1-12.3-8-24.9-12.5-36.6-2-5.4-7.8-30.3-14.1-31.6h.3ZM1159.7,596.5c-1.5-3.7-2.8-6.7-4.5-10.8-6.8,1.7-12.5,3.2-19.6,5,2,4.8,3.8,8.2,5.3,11.9,6.8-2.2,12.3-3.9,18.8-6.1h0ZM1179.3,692.2c1.8,3.7,3,6.3,4.5,10,4.3-1.7,7.8-3,11.5-4.5-1.5-3.5-2.8-6.1-4.3-9.5-4.3,1.5-7.8,2.6-12,4.1h.3ZM1158.5,637.7c1.5,3.7,2.5,6.1,4,9.1,4-1.1,7.8-1.9,12.3-2.8-1.5-3.9-2.8-6.7-4-10.2-4.3,1.3-7.8,2.6-12,3.9h-.3ZM1194.9,731.4c4.8-1.7,8-2.8,11.3-4.1-1.3-3.7-2.3-6.5-3.5-10.2-4.3,1.5-7.8,2.8-11.8,4.1,1.5,3.5,2.5,6.3,4,10v.2ZM1297,946.2c-1.5-3.5-2.5-6.3-3.8-9.7-4.3,1.1-8,1.9-12.3,3,1.5,3.5,2.5,6.3,3.8,9.7,4.3-1.1,8-1.9,12.3-3ZM1169.3,664.1c1.8,3.7,3,6.9,4.5,10.4,4-1.3,6.5-1.9,10.3-3-1.3-3.7-2.3-6.9-3.5-10.6-4,1.1-6.5,1.9-11.3,3.2h0ZM1226.5,814.1c1.8,3.9,3.3,6.7,4.8,9.7,4.3-1.5,7.5-2.8,11-4.1-1.8-3.7-3.3-6.5-5-10-4,1.5-6.8,2.6-11,4.1l.3.2ZM1211.2,774.1c1.5,3.7,2.5,6.3,4.3,10,4.3-1.5,7.8-2.8,11.3-3.9-1.5-3.2-2.3-5.6-3.8-8.7-4,.9-7.5,1.7-11.8,2.6ZM1281.4,906.1c-3.8.6-7.5,1.1-12,1.7,1.5,4.1,2.5,6.7,4,10.4,4-1.3,7.5-2.4,11.5-3.7-1.3-3-2-5.2-3.3-8.4h-.3ZM1257.6,840.7c-4.3,1.3-7.5,2.4-11.5,3.7,1.5,3.2,2.5,5.6,4,8.9,4.3-1.3,7.5-2.2,11.3-3.5-1.3-3.2-2-5.4-3.5-9.3l-.3.2ZM1124.6,514.2c-4.8,1.5-7.8,2.6-11.5,3.9,1.5,3.5,2.8,6.3,4.3,9.5,3.8-1.1,6.5-1.7,10-2.8-1-3.5-1.8-6.3-2.8-10.4v-.2ZM1110.6,478.7c-4,1.3-7.3,2.4-11,3.7,1.3,3,2,5.2,3.5,8.7,4-1.1,7.5-1.9,11.8-3-1.8-3.7-2.8-6.1-4.3-9.3ZM1211.4,739.4c-5.3,2.2-8.3,3.2-12,4.8,1.8,3.2,3,5.6,4.3,8.2,3.3-.4,6-.9,10-1.3-.8-3.7-1.3-6.7-2.3-11.7h0Z" fill="#f5f0d8"/>
          <path d="M1018,896.6c.5,3.5,1.3,6.7,2,11.5-13.8,4.3-27.4,8.7-42.4,13.4-7-15.4-14.3-30.7-21.8-46.1.5-4.3,1-8.9,1.8-14.1,3,2.4,4.8,3.9,7,5.4,3-1.5,5.5-2.8,9-4.3-2-3-3.8-5.6-5.5-8.4-3.8,1.1-6.5,1.7-9.3,2.6-.5-.4-.8-1.1-1.3-1.5,5-3.5,10.3-6.9,15.3-10.4h0c10.5-1.1,16.8,20.6,20.1,26.6,5.8,11.3,9.8,22.3,25.1,25.3h0ZM993.4,894.4c-4.5,1.9-7.8,3.5-12,5.2,2,3.2,3.8,5.8,5.8,9.1,3.8-1.7,6.8-2.8,10-4.3-1.3-3.2-2.5-6.1-4-10.2l.3.2Z" fill="#f5f0d8"/>
          <path d="M630.3,372.2c-3.5,14.3-29.1,10.4-40.6,14.9-13.8,5.4-21.8,19.5-21.8,32s14.1,32,23.3,44.8c10.5,14.3,25.1,25.5,35.1,39.6-15.1-11.3-27.9-24.5-38.1-39.2-9.3-13.4-22.8-29.9-22.6-46.1,0-12.3,6-24.5,18.6-31.2,14.8-7.8,35.6-2.4,45.9-16.9v1.7l.3.2Z" fill="#e3e2dd"/>
          <path d="M972.8,844.6c-5,3.5-10.3,6.9-15.3,10.4.5.4.8,1.1,1.3,1.5,2.8-.9,5.5-1.5,9.3-2.6,1.8,2.8,3.5,5.4,5.5,8.4-3.5,1.7-6,3-9,4.3-2-1.7-4-3.2-7-5.4-.5,5.2-1,9.5-1.8,14.1-1-2.6-2.3-5.4-3.3-8.2-17.3.9-34.6-1.7-51.4-5.6-4.5-1.1-41.9-11.3-39.4-13.9,18.3,7.1,37.4,11.7,57,15.2,11.8,1.9,23.8,4.5,36.4,0,.3-2.8.8-6.1,1.3-9.3,4.3-4.5,8.5-9.1,16.6-9.1v.2Z" fill="#e3e1d8"/>
          <path d="M1132.9,450.1c-17.8,0-35.1,1.5-52.7,7.4,3.5,11,7.8,21.7,7.8,33.1-3.8-11.9-8.3-23.6-9.8-35.7,21.1-3.7,40.9-6.5,62.5-7.4,21.3-.9,41.7-7.4,62.2-11.9-.8,1.1-1.5,2.2-2.3,3.2-10.8,2.4-21.6,5-32.6,6.7-11.5,1.9-23.3,3-34.9,4.5h-.3Z" fill="#e2e1da"/>
          <path d="M1061.1,904.6c25.3,7.1,49.9,17.1,76,22.3,2.5,8.4,3.5,24.7,10.5,31.2,6,5.6,22.1,4.1,30.1,5-8.8,0-25.3,3-31.9-3.2-7-6.5-8-22.5-10.5-31-26.1-5.6-50.2-15.2-74.3-24.3h0Z" fill="#e2e1dc"/>
          <path d="M822.2,714.7c7.5,28.1,15.1,56.3,22.1,84.7,1.3,5,0,10.6-.5,16-1,7.8-2.3,15.6,3,22.7-9.5-3.9-4.8-14.5-4.5-21.9.5-12.1-2-23.8-5-35.7-2.8-11.3-5.8-22.3-8.8-33.6-2.8-10.2-8.3-21.9-6.3-32.3Z" fill="#e2e1dc"/>
          <path d="M1213.7,974.6c15.3-2.8,30.9-5.4,47.9-8.4,4.3,13.4,8.8,25.5,9,39.6.3,13.4-.3,26.8-.5,40.3-.5-5.8-2.8-11.7-1.5-17.1,3.8-16.9,1-33.1-5-49.1-1.3-3.7-2.5-7.6-4-11.7-16.1,2.2-29.9,10-45.9,8.2v-1.7h0Z" fill="#e2e1db"/>
          <path d="M1018,896.6c-15.3-3-19.3-14.1-25.1-25.3-3.3-6.3-9.5-27.7-20.1-26.6,2-1.1,4-2.2,6.5-3.5,7,13.2,14.1,25.5,20.1,38.3,5.8,11.9,16.8,15.8,30.1,17.1,11,1.1,22.1,2.6,31.9,8-8.8-1.9-17.3-3.9-26.1-5.4-5.8-1.1-11.5-1.7-17.3-2.6h0Z" fill="#e2e0d9"/>
          <path d="M628.5,108.9c6.3,14.7,13,29.2,17.8,44.4,4.5,14.5,11.3,30.1,12.3,45v1.7c-3.3-10-6.5-19.9-10-29.9-6.8-19.7-13.5-39.6-20.1-59.3v-1.9Z" fill="#e2e1dc"/>
          <path d="M658.4,200.1v-1.7c9.5,23.2,19.3,46.1,28.9,69.3,1,2.6,1,5.8,1.3,8.7h-2c-2.3-14.3-6.8-27.7-14.3-40.7-6.5-11.3-13-22.7-14.1-35.5h.3Z" fill="#e3e2dd"/>
          <path d="M1266.4,961.6c.3-.2.8-.6,1-.9.3.4.8.6,1,.9,7.5,27.3,14.3,53,8,81.2,0-2.2-.5-4.3-.5-6.5,1.3-12.8,3.3-25.5.5-38.3-2.8-12.3-7.5-24-9.8-36.4h-.3Z" fill="#e1e0da"/>
          <path d="M1323.6,1038c-4.3-1.1-7-1.9-9.8-2.6v-13.4c4,.6,7.5,1.3,11.5,2.2-.8,4.5-1.3,8.7-2,13.9h.3Z" fill="#d6d6d5"/>
          <path d="M1297.2,1019.2c4.8,1.9,7.3,2.8,9.5,3.9.8,4.3,1.3,8.2,2,13-4-.6-7.8-1.3-12.5-1.9.3-4.5.5-8.7.8-14.7l.3-.2Z" fill="#d7d7d5"/>
          <path d="M628.5,108.9v1.7c-9-16.5-17.8-32.9-26.6-49.6-.5-1.1,0-2.8.3-4.1,8.3,15.6,16.8,31,24.8,46.6.8,1.7,1,3.7,1.5,5.4Z" fill="#e3e2dd"/>
          <path d="M773.3,669.3c14.6,6.7,29.4,12.8,38.1,25.8,1.8,2.8,3.5,5.6,5.3,8.4-5-.4-13.8-14.7-19.1-18.6-7-5.2-20.3-8.7-24.3-15.6h0Z" fill="#e3e2dd"/>
          <path d="M949.5,900.5c3.5-1.5,6-2.8,9.5-4.3,1.8,3.7,3.3,6.7,5.3,10.6-4,1.3-7,2.2-11,3.5-1.5-3.7-2.5-6.5-3.8-9.7h0Z" fill="#d6d6d4"/>
          <path d="M686.7,276.3h2c2.3,9.1,4.5,18.4,7,27.5-.8.4-1.5.9-2.3,1.5-3.8-.9-7.3-1.7-11.3-2.8-4.5,1.1-9.3,2.2-14.1,3h-2c7.3-6.3,16.3-5.4,26.8-3.5-2.3-9.1-4.3-17.3-6.3-25.5v-.2Z" fill="#e3e2dd"/>
          <path d="M652.9,532.9c5,5.6,10.3,11.3,15.1,17.1,5.5,7.1,10,14.5,15.3,21.9-10-13-20.1-26-30.1-39h-.3Z" fill="#e3e2dd"/>
          <path d="M630.3,372.2v-1.7l11.3-39h2c-4.5,13.6-8.8,27.1-13.3,40.7Z" fill="#e1e1db"/>
          <path d="M683,571.8c8.3,10.4,16.3,20.6,24.6,31-10.8-8.7-18.6-19.3-24.6-31Z" fill="#e3e2dd"/>
          <path d="M643.6,331.5h-2c5.5-10.4,11.3-20.8,24.3-26h2c-10.8,6.7-18.6,15.8-24.6,26h.3Z" fill="#e2e2dd"/>
          <path d="M707.6,602.6c8.3,9.3,16.3,18.4,24.6,27.7-8.3-9.3-16.3-18.4-24.6-27.7Z" fill="#e3e2dd"/>
          <path d="M1213.7,974.6v1.7c-12-4.3-23.8-8.7-35.9-13,7.3,1.9,14.6,3.9,21.6,6.1,4.8,1.5,9.5,3.5,14.1,5.2h.3Z" fill="#e2e1dc"/>
          <path d="M566.3,32.7c8.8,5.4,17.6,10.8,26.3,16.2-1,.4-2.5,1.3-3,.9-7.8-5.6-15.6-11.5-23.3-17.1Z" fill="#e3e2dd"/>
          <path d="M731.9,630.3c6.3,7.1,12.5,14.1,18.8,21.2-6.3-7.1-12.5-14.1-18.8-21.2Z" fill="#e3e2dd"/>
          <path d="M1248.3,623.4c1.5-6.3,1.5-18.6,10-21.7,7-2.4,12.8,2.6,16.8,6.7,6.3,6.5,9.3,14.7,12.8,22.5,3.3,7.1,9.5,16.9,10,24.7,1.5,16.5-23.8,6.5-31.6,1.1-11.8-8-18.6-20.6-18.1-33.6v.2Z" fill="#f9f7e8"/>
          <path d="M997.1,133.8h14.6c2,15.6,4,31.2,6.3,47.4-5.3.4-9,.6-14.6,1.1-3.5-16.2-5.8-31.8-6-48.5h-.3Z" fill="#d7d7d6"/>
          <path d="M1057.4,398.2c-13.3-36.4-25.1-72.8-36.6-109.6-4.5-14.5-7.3-31.2-19.3-42.7-11.5-11-27.6-13.4-43.7-16.9v-1.5c12,2.6,23.8,5.2,37.1,8-.5.4.5-.4,1.3-1.5.3.2.8.4,1,.9,1.3,2.6,1.5,6.1,3.8,7.8,9.8,7.8,13.8,18,17.1,28.4,10.3,33.3,20.3,66.9,30.9,100.5,2.8,9.1,7,17.8,10.5,26.8h-2v-.2Z" fill="#e2e2dc"/>
          <path d="M1052.8,331.9c-2.5-7.8-4.5-14.7-7-22.5,5-1.5,9.5-3,14.1-4.3,4.3,7.4,8,14.1,11.8,20.8.8,0,1.5-.4,2-.6v7.4c-8.3,6.5-13.3-5.4-21.1-.6h.3Z" fill="#e2decf"/>
          <path d="M995.9,91.2c-1-9.3-2-18.4-3.3-29.4,6.3.9,11.3,1.3,17.3,2.2,1,7.8,2,15.4,2.8,23-5.5,3-9.3,8-16.8,4.5v-.2Z" fill="#d7d7d6"/>
          <path d="M957.7,227.6v1.5c-18.6-4.1-37.4-8.2-56-12.3-18.1-4.1-37.9-6.7-55.2-13-33.9-12.3-65.2-31.8-94.1-50.9,1.8,0,4.3-.2,5.3.4,26.6,19.9,57,35.1,88.8,47.6,15.1,6.1,32.1,8,48.4,11.9,20.8,5,41.9,9.7,62.7,14.7Z" fill="#e3e2dd"/>
          <path d="M1194.9,432.2c-38.6,12.1-79.3,10.4-118.4,19.3-2-4.5-3.8-8.7-5.5-13l1.8-1.5c2,3.5,3.8,7.1,6,11.3,19.6-3.7,38.6-5,58.5-6.7,16.1-1.3,41.9-2.6,53.9-12.8l3.8,3.2v.2Z" fill="#e3e3dd"/>
          <path d="M1071.2,243.8c-5.5-.2-8.8-.4-12.8-.6v-18c3-.4,6-.6,10-1.3,1,6.7,1.8,12.6,3,19.7l-.3.2Z" fill="#d7d7d5"/>
          <path d="M1050.6,259.4c4,11,7.5,21.2,11.5,32-4.5,1.5-8,2.8-13.3,4.5-4.3-11-8.3-21.2-12.5-32.5,5.3-1.5,9.5-2.8,14.3-4.1ZM1059.1,290.1c-3.5-9.5-7-18.6-10.5-28.1-3.3,1.1-5.5,1.7-8.8,2.8,3.5,9.3,7,18.4,10.5,27.7,3.3-.9,5.3-1.5,8.8-2.4h0Z" fill="#e2dfd2"/>
          <path d="M632.3,70.2c-5.8-3.5-11.5-6.9-17.1-10.6-12.5-8.2-24.8-16.7-37.4-25.1,10.8,1.7,20.1,10.8,28.6,16.7s19.6,11.5,25.8,19.1Z" fill="#e3e2dd"/>
          <path d="M1105.3,419.8c-3.8,1.1-6.8,2.2-10.8,3.2-1.3-4.3-2.3-7.8-3.5-12.1,4-.9,6.8-1.3,10.8-2.2,1.3,3.7,2.3,6.9,3.8,10.8l-.3.2Z" fill="#d6d6d4"/>
          <path d="M1075.9,360.1c1.5,3.5,2.5,5.6,4,9.1-3.5,1.3-7,2.6-11.3,3.9-1.8-3.2-3-5.6-5-9.3,4.5-1.3,8-2.4,12.3-3.7Z" fill="#e7dfc9"/>
          <path d="M1025.5,128.8c-1,17.8,1.5,35.7-2.5,53.5v-53.7h2.5v.2Z" fill="#e0dfd5"/>
          <path d="M1076.4,395.6c-1.5-3.9-2.3-6.3-3.3-9.1,3-1.1,5.3-1.9,8.5-3.2,1.8,3,3,5.4,5,8.7-3.5,1.3-6,2.2-10,3.7h-.3Z" fill="#d7d7d3"/>
          <path d="M1072.7,436.9l-1.8,1.5c-3.5-10-7.3-19.7-10.5-29.7-1.3-3.5-1.8-7.1-2.8-10.8h2c3.5,9.7,6.8,19.3,10.3,29,1.3,3.2,2,6.7,3,10h-.3Z" fill="#e2e1dc"/>
          <path d="M701.8,117.1c-8.8-6.1-17.6-11.9-26.3-18,9.5,5.8,18.8,11.9,28.4,17.8h-2v.2Z" fill="#e3e2dd"/>
          <path d="M675.5,99.4c-9.3-5.8-18.8-11.9-28.1-17.8,1.3,0,2.8-.2,3.5.2,8.3,5.8,16.3,11.7,24.6,17.5Z" fill="#e3e2dd"/>
          <path d="M701.8,117.1h2c6.5,4.1,12.8,8.2,19.1,12.8,1,.6,1,2.4,1.5,3.7-7.5-5.4-15.1-10.8-22.6-16.2v-.2Z" fill="#e3e2dd"/>
          <path d="M1360.5,390c5.3-1.5,10.5-2.8,17.3-4.8-4-13.2-10.8-25.1-15.1-38.1-4-12.3-5-25.8-7.3-38.5-5-27.5-8.8-55-12-82.5,6.3,28.1,10.8,56.7,15.1,85.1,2,12.6,2.8,25.3,7.5,37.5,5,13.2,10.8,25.1,14.1,38.8-8.5,1.7-15.1,3-21.6,4.3.8-.4,1.3-1.1,2-1.5v-.2Z" fill="#e2e2dd"/>
          <path d="M826,199.8l20.6,9.7c5.5,3.9,17.3,4.8,24.3,6.3,7.3,1.5,14.8,3.2,22.1,4.8,15.3,3.2,30.6,6.9,45.9,10.6-2.5,37.9,14.8,74.5,29.9,109.1,15.1,35.3,31.4,70.4,46.9,105.7-.5,0-1,.4-1.8.6-1.3,1.5-2.5,3.2-3.5,4.8-11.5,1.7-22.8,3.5-33.9,5.2-2.5-4.3-4.3-7.4-5.5-10-16.8,5.6-33.1,11-50.9,12.8l-11.3-11.5c-4.8-13-6-25.1-24.6-26-10.8,3-25.6,6.9-41.4,11.3-7.8-42.4-15.6-83.8-19.1-126.7-3.5-42.7-25.8-85.1-41.4-125.4,6.8-.9,14.6,4.8,20.1,7.4,7.8,3.7,15.8,7.4,23.6,10.8v.4ZM944.4,381.7c-4-7.8-8-15.8-12-23.6-4.3,1.9-7.5,3.2-10.5,4.8,2.5,8,4.8,14.9,7.5,23.8-5.8-.2-10-.4-14.6-.6-1.3,1.1-2.5,2.6-4,3.9-3.3,1.1-6.3,2.2-9.5,3-2.5-4.8-5-9.5-8-14.7-4,1.5-7.3,2.6-11.5,4.1,2.3,5.6,4.3,10.8,6.3,15.8l3.8,3.2c.8,1.5,1.3,2.8,2.5,5.4,23.1-6.1,45.7-12.1,69.5-18.4-2-5-3.8-9.1-5.5-13.4-5.3,2.6-9.5,4.8-13.8,6.7h0ZM900,315.9c-.3.6-.8,1.3-1,1.7,2.3,1.5,4.8,2.8,7.8,4.8.5,1.3,1.3,3.7,2.3,6.3-4.3,4.3-6.8,9.1.5,13.4,5.3-1.3,10.3-2.6,14.8-3.7,3.8-6.5-.8-10.4-4-13.9-.8-4.8,3-10-4.8-12.6-5,1.3-10.3,2.6-15.8,3.7l.3.2ZM849.3,345.6c-4,2.2-6,3.5-8.3,4.5,3.3,8.7,6.3,16.7,9.5,25.5,3-1.5,5.3-2.6,8-3.9-3-8.7-6-16.7-9.5-26.4l.3.2ZM935.2,283.6c-4.8,1.1-8,1.9-11,2.6,1.3,6.3,2,11.5,3,17.5,3.5-.4,6.3-.6,10.5-1.1-.8-6.5-1.5-12.1-2.5-19.1h0ZM863.6,412.9c4-1.3,6.5-1.9,9.8-3-2-5-3.8-9.7-5.8-14.7-3.5,1.1-6,1.9-9,2.8,1.8,5,3.3,9.5,5,14.9h0ZM945.2,444.1c-1-3.7-2-6.7-3-10-4,.9-7.3,1.5-12,2.6,2,3.7,3.5,6.9,5.3,10.2,3.5-1.1,5.8-1.7,9.8-2.8h0Z" fill="#f9f7e8"/>
          <path d="M732.2,144.6c9.3,5.8,18.8,11.9,28.1,17.8,2.5,6.5,9,11.7,11.8,18.6,3.3,7.8,6.3,15.6,9.5,23.2,7,16.9,13.5,33.8,19.8,50.7,9.8,21,11.3,43.3,13.3,65.2-16.6,15.6-32.4,30.7-48.9,46.3-12.5-12.1-27.1-22.3-40.4-33.8-11.3-9.7-22.8-18-23.8-31.8-2.3-30.3-15.3-63-32.1-89.4-3.3-10.8-6.3-21.9-9.5-32.7-7.3-24.3-12.8-48.7-24.3-71.9-5.5-11-11.8-22.1-17.6-33.1-.8-1.5-5.3-4.1.8-5.2,28.9,19.5,57.5,39,86.3,58.5,8.8,6.1,17.8,11.9,26.6,18l.5-.2Z" fill="#f9f7e8"/>
          <path d="M797.9,544.1c7.3,6.5,15.6,11.3,26.1,12.8,7,1.1,13.8,2.4,20.8,3.5,2.5,3.2,5.8,6.3,7.3,9.7,7.3,18.8,14.1,37.9,21.1,56.7-33.6,10.4-67.2,20.8-100.9,31.2-1.3.4-3-.2-4.5-.4-12.5-13.6-25.1-27.1-37.6-40.7-17.6-21.7-35.1-43.3-52.7-65-4.3-6.1-8.8-12.1-13.3-18.4,5.3-3.2,10.3-6.3,15.1-9.3,9.8-1.3,12.5-7.8,15.8-16.5-8-14.9-16.6-31-25.3-47-.5-2.4-1.3-4.5-1.8-6.5,6.5-11.7,9.8-14.3,22.3-17.8,1.5,10.6,10,21.7,15.6,31.4,6,11,12.3,21.9,19.1,32.5,13.3,20.1,28.1,39.4,42.9,58.7,9.8-5.4,19.8-10.4,29.9-15.4l.3.4Z" fill="#f9f7e8"/>
          <path d="M630.3,498.6l-13-13c-.3-1.1-.3-2.4-1-3-13.3-10.6-20.8-24.9-29.9-37.9-6.8-9.7-12-19.9-10.5-32,1.3-9.7,11-19.5,22.1-21.2,8.3-1.3,16.6-2.8,24.3-5,3.8-1.1,6.8-4.1,10-6.1,1.8-1.5,4.5-2.8,5-4.5,3.5-10.8,6.8-21.9,10-32.9,6.3-14.3,21.8-44.8,44.7-29.9,5.5,27.3,11.3,54.6,17.6,81.8,2.8,7.8,5.3,15.6,8,24-16.6,5.4-40.6,9.5-51.4,23-10,10.2-6.8,18-.8,29,7,12.8,13.3,25.8,20.1,38.5-6.3,9.7-17.6,12.1-25.6,16-10.5-9.5-20.1-18.2-29.6-26.8h0Z" fill="#f9f7e8"/>
          <path d="M765.8,373.7l7.5-6.5c10-1.7,29.1-18.8,32.1-27.5,3.5-2.4,6.8-5,10-7.1,1.8,13.6,3.3,26.6,5,39.6,5,13,6.3,27.7,8.8,41.1,3,15.4,5.5,31,8,46.6-6.8,4.5-13,6.5-21.1,8.9,5.5,28.1,19.1,56.3,28.6,83.6-14.6,0-28.4-2.6-39.6-11.3h0c-1-1.7-1.5-3.5-2.8-5-6-8.2-12-16.2-18.1-24.3-23.6-28.4-40.9-59.5-56.2-91.6,7-18,14.8-35.7,37.1-44.2.5,0,0-1.5.3-2.4h.3Z" fill="#f9f7e8"/>
          <path d="M835.5,726.2c6.8,3.7,13.8,7.6,20.6,11.3-2.3,2.6,16.6,2.8,18.3,2.6,10.3-1.5,20.3-4.8,30.6-7.4,6.8-.6,13.8-1.1,21.1-1.7,2,5.6,3.8,10.2,5.5,14.7,6.3,14.7,12.3,29.2,18.6,44,.8,1.7,2.8,3.2,4,4.8,6.8,12.8,13.3,25.3,20.1,38.1,1.3,2.4,2.5,4.5-1.3,5.8-14.3,1.5-22.1,9.5-26.3,21-23.6,0-46.7-10.8-69.8-9.7l-18.8-8c-2.3-3.2-4.3-6.3-6.5-9.5-.8-6.5.5-13.2.3-19.7-.3-7.1-2.3-14.1-3.3-21h0c-2.3-21-16.8-44-13-65v-.2ZM923.1,799.2c2.3,3.9,4,6.7,5.8,10,4-1.5,7-2.8,10.8-4.3-1.5-3.5-2.8-6.1-4-9.3-4,1.3-7.5,2.2-12.5,3.7ZM900.8,748.3c3.5-1.1,6.3-1.7,10.3-2.8-1.3-3.7-2.3-6.7-3.3-10.4-4.3,1.3-7.3,2.4-11,3.5,1.5,3.5,2.8,6.3,4,9.5v.2ZM916.8,761.5c-3.5.9-6.5,1.7-10,2.8.5,3,.8,5.4,1.3,9.5,4.8-1.1,8.5-1.9,12.5-2.8-1.5-3.7-2.5-6.1-4-9.3l.3-.2Z" fill="#f5f0d8"/>
          <path d="M1044.3,506.9c-1.3-2.2-2.3-4.3-3.5-6.7,0-15.2-7.8-30.7-13-45.3-5.3-14.7-11.3-29.2-17.1-44-2.8-7.1-5.8-14.5-8.8-21.9,1.3-1.3,2.5-3,5.3-5.8-3.5,1.3-5.3,1.9-7.3,2.6-1.5-1.3-2.8-2.6-4.3-4.1h0c-5.8-18-13.8-35.5-21.3-53,1.8-.6,3.8-1.5,5.8-2.2-.3-.4-.5-.6-.8-1.1-1.8,0-3.5,0-7,.4-7.3-21-14.6-41.8-21.6-62.8-.8-9.5-1.5-19.1-2.5-29.9,10.3,2.2,19.8,5,30.6,3.9,3.8,1.5,7.5,3.2,11.3,4.8,4.5,9.3,13.8,15.6,17.3,26.2,4.5,12.8,8.3,26,12.8,39-.3,1.5-.8,3-1.3,5-5.8-1.9-12,5.2-17.3-2.8,0,2.8-.5,5-.5,7.4,7-1.3,13.3-2.4,19.8-3.5,4,11.5,8.3,23,12.5,34.4h0c1.8,7.8,3.5,15.6,5.3,23.4-3.3,1.3-6.3,2.2-9.3,3.2v.9c3.5-.4,6.8-.9,9.8-1.3,1.5,1.1,2.5,2.2,3.8,3,.3,2.2,0,4.3,1,6.3,8.3,22.3,16.8,44.8,25.3,67.1,0,.4,1.3.9,2,1.1,3.8,12.3,7.5,24.9,11.3,37.2-6,.6-12.5.2-18.1,2.2-8.8,2.8-18.1,6.3-19.6,16l-.8.2ZM982.1,295.8c-2,5.8-.8,10.6,5.5,14.7,2.8-1.5,5.3-2.8,9.5-5-2.8-4.1-5-7.8-7.5-11.5-1.5-1.1-3-2.2-5.5-4.1-.8,2.6-1.3,4.1-1.8,5.6l-.3.2ZM982.1,276.3c-.8-5.6-1.3-11.5-2-17.8-5,.2-8.3.4-12.5.6,0,8.2,2,14.7,8.3,20.8,2.5-1.3,4.3-2.6,6.3-3.7h0ZM1032.5,439.1c6.5,17.1,12.8,33.3,19.3,50.2,4.8-1.5,7.8-2.6,11.5-3.9-6.3-17.1-12.5-33.6-18.8-50.7-4.8,1.7-8,2.8-12,4.3h0Z" fill="#f0eee0"/>
          <path d="M993.4,695.2l-5.5-13.2c1.3-1.7,2.8-3.2,4.5-5.4,4.3,3.9,8,7.6,12,11.3-7.3,15.2,11,23.2,13,37.9,5.8-5.6,12.8,2.4,16.8-4.5-6.5-15.8-13-31.4-19.1-45.7-5-.9-8.8-1.3-12.5-1.9,12.8-2.2,25.6-4.8,38.6-6.3,9.3-1.1,16.8,2.4,21.6,9.7,0,1.1-1,2.6-.8,3.5,5.8,10.8,11.8,21.7,17.6,32.3,2.5,9.3,6.5,18.2,9.5,27.3,2.8,8,1,19.5,5.5,26.2v16.2c-22.3,5.6-43.9,11.3-65.7,16.9-1.5-2.8-2.8-5-4-6.9-.5-2.8-1-5.8-1.8-8.7-2.5-8.4-5-17.1-7.5-25.5-1.3-3-2.5-6.1-3.5-9.1-2.5-6.7-5-13.4-7.8-20.1h0c-3.3-11.5-6.5-23-9.8-34.4,0,0-1,0-1.5.2l.3.4ZM1034.3,777.7c4.3-1.1,7.8-1.7,12.3-2.8-1.8-3.9-3.3-6.7-5.3-10.4-4,1.7-7,2.8-10.3,4.1,1,3,2,5.6,3,9.1h.3ZM1076.4,722.1c-2-3.9-3.3-6.5-4.8-9.5-4,1.3-7,2.2-11,3.2,1.3,3.2,2.3,5.8,3.8,9.3,4-1.1,7.3-1.9,12-3.2v.2Z" fill="#f5f0d8"/>
          <path d="M767.8,657.8c1.5,0,3.3.9,4.5.4,33.6-10.4,67.2-20.8,100.9-31.2,2.8,6.3,5.3,12.3,8,18.6,11,25.8,22.3,51.5,33.4,77.1-20.1,3-38.9,12.6-60.2,8-9-7.6-20.6-13-27.4-22.5-4-5.8-6.3-12.6-11.3-18-5-5.8-11.8-9.7-18.3-14.5-11-3.9-22.1-8-29.9-16v-1.7l.3-.2ZM882,711.5c2,4.1,3.3,6.9,5.3,10.6,4.3-1.9,7.5-3.7,11.3-5.4-2-3.5-3.8-5.8-5.3-8.4-3.8,1.1-7,2.2-11.3,3.5v-.2ZM836.8,661.9c-4.5,1.9-7.5,3.2-11,4.8,1.8,3.5,3,6.3,4.5,9.5,4.3-1.5,7.5-2.6,11-3.9-1.5-3.5-2.8-6.3-4.5-10.2v-.2ZM855.6,649.6c2.8,3.9,4.5,6.3,6.5,9.3,3.8-1.5,6.3-2.6,9.3-3.9-1.3-3.2-2.3-5.6-3.8-8.9-3.8,1.1-7,1.9-12,3.5Z" fill="#f5f0d8"/>
          <path d="M912.8,462.9c1.8,1.7,3.5,3.2,5.3,5,0,1.5,0,3.5.8,4.5,7.3,8.2,14.6,16.5,22.1,24.7-.5,5.4-1,10.8-1.5,16.2-4,4.8-8.3,9.7-12,14.1,1.8,5,3,8.4,4.3,12.1,1.5,7.8,3.3,15.6,4.8,24-2.5,0-4.5.2-6.8.4-1.8-.6-3.3-1.3-5-1.7-12-2.8-24.1-5.4-36.4-8-11.3,1.1-17.8-37-24.6-44-1.3-2.2-2.5-4.3-3.5-6.5,1.3-8.9-4.5-17.3-7.3-25.8-3.5-10.8-5.8-22.1-8.5-32.9,15.1-9.7,31.4-12.3,47.7-14.3h0c1.3,3.2,2.5,6.5,3.8,9.7,3,9.1,9,16.5,17.3,22.7l-.3-.4ZM913.6,497.8c4.3-1.3,7.8-2.6,11.8-3.9-1.8-3.7-3-6.7-4.8-10.4-3.8,1.3-7,2.2-10.8,3.5,1.3,3.7,2.3,6.5,3.5,10.8h.3ZM886.7,447.1c-4.3,1.1-8,1.9-12.5,3.2,1.5,3.9,2.8,6.7,4.3,10.4,4.5-1.7,8-3.2,11.5-4.5-1-3.2-2-5.4-3.3-9.1h0Z" fill="#f5f0d8"/>
          <path d="M1102.8,812.2c4.3,5.8,8.8,11.9,13,17.8,9.3,8,22.3,9.3,35.9,3.2h0c2,.9,5,1.5,5.5,2.8,2.3,5.4,4,11,5.8,16.7.5,2.2,1,4.3,1.8,6.9-17.6,3.5-35.4,5-52.4,10.8-13,4.5-34.4,11.9-41.7,23-2.5,1.5-4.8,3-8,5.2-10.5-8.7-8.8-21.2-14.6-31.2.3-19.3-10.5-40.1-16.6-58.7,1.3-1.1,2.3-2.2,3.3-3,20.8-3.7,40.9-9.3,61.5-14.5,1.5,7.6,2.5,13.9,6.5,21ZM1062.6,866.5c4.3-1.3,7.5-2.4,11.3-3.7-1-3.2-1.8-5.6-2.8-9.1-4.3.9-8,1.5-12.3,2.4,1.5,3.9,2.5,6.5,3.8,10.2v.2ZM1046.1,811.3c.8,4.3,1.3,7.4,2,11.3,4.8-1.3,7.8-2.2,11.8-3.2-1.3-3-2-5.8-3.3-8.7-3.3.2-6,.4-10.8.6h.3Z" fill="#f5f0d8"/>
          <path d="M931.4,539.4c-1.3-3.5-2.5-6.9-4.3-12.1,3.8-4.3,8-9.3,12-14.1.5-5.2,1-10.6,1.5-16.2l2-1.7c1.3-.4,2.5-1.1,3.8-1.5,2.5,1.7,5,3.2,7.5,5,3,.9,6.3,3.7,7.5-1.7,3.8-9.3-5.8-24.7-9-34-3.8,0-7,.4-12.3.6,2.8,9.3,5,17.3,7.5,25.5l-1.8.9-25.6-30.5c17.6-1.7,33.9-7.4,50.9-12.8,1.5,2.6,3.3,5.6,5.5,10,11-1.7,22.3-3.5,33.9-5.2h0c-10.8,4.1-22.1,6.1-33.6,8.2,7.3,17.8,14.1,34.2,21.1,50.9,5-3.7,9.8-7.1,14.6-10.4,7.3,0,13.8-.9,20.8-1.7,4.5,12.8,8.8,24,13.3,37-13.3,1.9-26.6,3.9-39.9,5.4-3.5.2-7,.4-10.5.6v-25.1c-.3,0-.5,0-.8-.2-1.5,5.6-3,11.5-4.5,17.3-2.5-1.5-4.8-2.6-7-3.7l-.5.6c3.5,3.9,6.8,7.8,10.5,11.9-9,3.2-23.1,5.8-28.6,13.2-6.5,3-11.8,9.1-21.3,7.6-2.8-10-8-21-8.5-31.2-.8-10,6-10.6,14.3-15.4-1-1.7-1.8-3-2.8-4.8-5.5,4.3-10.5,8.2-16.1,12.6.8,5.2,1.5,10.2,2.5,15.2h-1.8l-.5-.2ZM1035.5,531.1c-3.5-9.7-6.8-18.2-10-27.5-6.5,1.5-12.3,3-19.1,4.8.8,3.7,1.3,6.7,1.8,10,3.8-.4,6.5-.6,9.8-.9.8,2.2,1.3,4.1,1.8,5.8-2.8,1.5-5,2.8-8.3,4.5,1.3,3,2.5,5.8,3.8,8.9,7-1.9,12.8-3.5,20.1-5.4l.3-.2Z" fill="#f0eee0"/>
          <path d="M1010.4,807.4c-3.8,1.5-7.5,3-11.3,4.8-8.3-1.1-16.3.9-24.6,1.9-3.3-3-5.3-4.8-7.5-6.7-2.5-6.3-4.8-12.6-7.5-18.6-1.5-3.7-3.8-6.9-5.8-10.6-3-7.1-6-14.1-9.3-21.2,0-8.7-5-17.1-8.3-25.3,15.8-1.9,31.9-3.9,47.7-5.6h12.3c1,2.6,1.8,5.4,2.8,8,3.3,9.7,6.3,19.5,9.5,29.4h0c3.5,12.8,7,25.8,10.3,38.5-3,1.7-5.8,3.7-8.5,5.4h.3ZM981.3,769.1c1.5,3.7,2.5,6.3,4,9.5,4-1.3,7-2.2,10.8-3.5-1.5-3.5-2.5-6.1-4-9.3-3.8,1.1-6.5,1.9-11,3l.3.2Z" fill="#f5f0d8"/>
          <path d="M797.9,544.1c-10,5-20.1,10-29.9,15.4-14.8-19.3-29.9-38.5-42.9-58.7-7-10.6-13-21.4-19.1-32.5-5.3-9.7-14.1-20.8-15.6-31.4v-1.7c1.3-.4,2.5-1.1,3.8-1.5,9-2.2,17.8-4.3,27.1-6.5,10.3,18.8,20.3,37.2,30.1,55.6-3.5,1.9-6.8,3.9-11,6.3,2.3,3.2,4,5.6,6,8.7,3.8-1.5,6.5-2.6,9.3-3.9-.3-2.2-.5-3.9-.8-5.8,1.5.4,2.3.6,3.3.9,8.3,10.6,16.6,21.2,24.8,31.8.8,1.1,1,2.6,1.5,3.7.5,2.4,1.3,4.5,1.8,6.9-2.5,1.9-5,3.9-7.5,6.1,2.3,2.4,4,4.5,5.3,6.1,5-.4,9.3-.6,13.5-1.1v1.5l.3.2ZM755.8,513.8c2.5,3.5,4.5,6.1,6.8,9.1,3.3-1.5,6.3-2.8,9.8-4.5-2.3-3.2-4-5.8-6-8.9-3.8,1.5-6.3,2.6-10.5,4.3h0Z" fill="#f5f0d8"/>
          <path d="M1093.2,628.6c2.5-1.1,5-2.2,7.8-3,10.5.4,18.8-2.4,28.9-5.2,7.5,19.1,14.8,37.2,21.8,55.4,5.5,15.2,10.8,30.5,16.3,45.9-1,.9-2,1.9-3,2.8-9,2.2-18.1,4.5-27.4,6.3-3.3.6-6.8,0-10.3,0-6.3-16.7-12.5-33.6-18.8-50.2l-11.3-29.2h0c-1.3-4.5-2.8-9.1-3.5-13.9-.5-3,0-6.1,0-9.1l-.5.2ZM1136.4,719.3c5-1.9,8.3-3.2,12-4.8-6.5-16.5-12.5-31.8-19.1-48.1-4.5,2.4-7,3.7-10.5,5.4,5.8,15.4,11.3,30.3,17.6,47.4ZM1127.1,655.2c-2.8-3.7-4.5-6.1-6.8-9.1-3.3.9-6.5,1.7-10.8,2.8,1.8,3.9,3,7.1,4.8,10.8,5-1.7,9-3.2,12.8-4.5Z" fill="#f0eee0"/>
          <path d="M1095.2,911.1c-8.5-3-17.1-6.3-27.4-10,20.1-14.7,40.6-25.5,65-30.5,12.5,1.1,23.6-1.3,35.9-3.5,3.3,8.7,15.1,27.5,11,35.9h0c-12.5,5-26.3,14.3-40.1,16-14.6,1.7-29.9-6.5-44.4-8h0ZM1160.5,894.4c4.3-1.5,7.8-2.6,11.8-3.9-2-3.7-3.3-6.1-4.8-9.1-4,1.3-7,2.2-10.8,3.5,1,3,2,5.4,3.5,9.5h.3Z" fill="#f5f0d8"/>
          <path d="M1044.3,870.6c3,8.2,6,16.5,9.5,25.8-12.3-2.2-23.1-4.1-34.1-6.1,2-2.2-4-2.4-5.5-3.2-3.5-1.9-5.5-4.8-7.5-7.8-5.3-8.4-8.8-16.7-15.1-24.7-2.5-5.8-5-11.9-7.5-17.8-1.8-4.5-3.5-8.9-5.3-13.4,9-2.6,17.6-5.2,26.1-7.8,5.8-1.5,11.8-2.8,18.1-4.5,6.5,19.7,11,41.4,21.6,59.5h-.3ZM1030.3,880.8c-2-3.9-3.5-6.9-5-10.2-3.5,1.1-6,1.7-9.8,2.8,1,3.7,1.8,6.9,2.8,10.6,4.5-1.3,7.5-2.2,12-3.5v.2ZM998.4,821.3c1.3,3.9,2.3,6.9,3.5,10.8,4.3-1.3,7.3-2.2,11-3.2-1.3-3.7-2-6.7-3-10-3.8.9-6.8,1.3-11.5,2.4h0Z" fill="#f5f0d8"/>
          <path d="M914.6,722.7c-11-25.8-22.3-51.5-33.4-77.1-2.8-6.3-5.3-12.3-8-18.6-7-18.8-13.8-37.9-21.1-56.7-1.3-3.5-4.8-6.5-7.3-9.7,10,.9,20.3,1.7,31.1,2.6,3,11.3,5.8,22.3,8.8,33.1-3.8,1.5-6.5,2.6-9.5,3.7,2.3,6.1,4.5,11.5,6.8,17.8,2-.9,3.3-1.5,4.5-1.9,1.3-.6,2.5-1.1,3.8-1.7,1.8.4,3.5,1.1,4.3,1.3,2.5,4.3,4.8,8,7,11.9h0v4.1c-1.5-.2-2.5-.4-3.5-.6h0c-4.8-6.9-7.3-.6-11.3.9,2.3,5.8,4.5,11.3,7,17.8,5-1.5,9-2.8,13.8-4.5,1.8,5.2,3.5,10.2,5.5,15.2-5.5-3-9.3-.6-13.5,3.2,2.8,5.4,5.3,10.8,8.5,17.3,3.8-1.9,6.3-3.2,8.8-4.5-1.8-3.7-3.8-7.6-5.5-11.3.5-1.5,1.3-3.2,1.8-4.8,2,3.2,3.8,6.5,5.8,9.5,1.5,2.4,3.8,4.3,5.5,6.7,1.8,2.8,3.8,5.4,5.5,8.2,1,2.8,2,5.8,3.8,10.4,0,.6-1.3,2.6-2.5,5.8-3.5-7.1-6.5-13.2-9.8-20.4-4,1.9-7,3.5-10.8,5.2,3.8,8.2,7.3,15.6,10.5,23h6.8c0,1.5,0,2.6.3,3.5h0c-1.8,3.5-3.8,6.9-5.8,10.8-2,.9-5.3.4-7.5.4l-.3-.4Z" fill="#f0eee0"/>
          <path d="M916.3,648.3c-2.8-6.3-5.5-12.3-8-18.2,5.8-9.5,16.3-11.7,25.1-15.8,8,.4,14.8-.6,22.6-1.7,2,6.9,3.8,12.3,5.5,18h0c3.5,11,7,22.3,11,33.3.5,1.5,2.8,2.6,4,4.1h0c.5,4.1-2.5,5.4-6.5,6.5-4.8,1.3-9.5,3.2-14.3,5h0c-5.3,1.7-10.8,3.5-16.6,5.4-1.5-1.1-3.8-2.4-6-3.9-5.3-11-10.3-21.9-15.6-32.9,0,0-1,.2-1.5.4l.3-.2ZM961.3,665.8c-1.3-3.7-2-6.3-3.3-9.7-4.3.9-7.8,1.7-12.3,2.6,1.5,3.7,2.5,6.3,3.8,9.5,4-.9,7-1.5,11.8-2.4h0ZM934.2,622.3c2,4.3,3,6.9,4.5,10.2,3.8-1.3,6.8-2.2,10-3.2-.5-3-1-5.2-1.5-8.7-4.3.6-7.8,1.1-13,1.7Z" fill="#f5f0d8"/>
          <path d="M955.7,565.3c16.3-10.4,34.9-16.2,54.7-19.3,2,.9,3.8,1.7,5.8,2.6-3.5,1.3-6.5,2.4-11.3,4.1,5,11.5,10,22.7,14.8,33.8-2,.9-4.3,1.7-6.5,2.6-1.5-2.4-2.5-4.3-4.8-7.8.3,4.3.5,6.5.8,8.9-15.6,3.9-30.6,7.6-46.2,11.3-2.5-5-4.8-9.3-7.3-13.4-2-5.6-3.8-11-5.5-15.6,2.3-3,3.8-5.2,5.3-7.1h.3ZM972,567.5c1.8,3.9,2.8,6.5,4.3,9.7,3.8-1.1,7.3-1.9,11-3-1-3.7-1.8-6.1-2.8-9.3-4.3.9-7.8,1.7-12.5,2.8v-.2Z" fill="#f0eee0"/>
          <path d="M893.8,596.1c-.5-1.5-1.3-3-1.8-4.8-1.8-8.9-3.5-18-5.5-28.1,12,1.1,23.8,3,35.9,5.2,5.5,1.5,11.3,3,17.8,4.8,1.8,3,4.3,7.4,6.5,11.5,1.8,6.1,3.5,12.1,5.5,18.8-13.3,3.2-25.1,8.7-37.6,13.9h0c-2,.4-4.3.6-6.3,1.1-4.8-7.6-9.8-14.9-14.6-22.3h0ZM935.7,588.5c-.8-3.7-1.5-6.7-2.5-10.8-4.8,1.3-8,2.4-12.3,3.7,2,3.9,3.8,6.9,5.3,10,3.3-.9,5.5-1.5,9.5-2.8h0Z" fill="#f5f0d8"/>
          <path d="M707.6,326.7c5,4.3,10,8.7,15.1,13,3.5,2.6,6.8,5.2,10,8,6.8,5.4,13.3,10.8,20.1,16.5h0c1.3,2.4,2.3,4.8,3.8,8-17.1,6.7-26.1,19.1-31.6,34.2-1-.2-2-.4-2.8-.9-6-26.2-12.3-52.6-18.6-79.7,2.3.6,3.3.9,4,1.1v-.2Z" fill="#f9f7e8"/>
          <path d="M935.2,706.7c1-1.9,2.5-3.7,3-5.8,2.3-8.4,8.5-13.9,17.6-16.9,8.3-.9,16.3-1.9,24.3-3.2,3.5,9.7,6.5,18,9.5,26,.5,3.5,1,6.9,1.8,10.6-10.8,1.5-20.3,2.8-29.9,4.1-9,.4-18.3.6-28.6,1.1,1.5-5.6,2.8-10,2.5-15.8h-.3ZM968.8,689.6c-4.8,1.3-7.8,2.2-11.8,3.5,1.3,3.2,2.3,5.8,3.5,9.1,3.5-.4,6.5-.9,10.5-1.3-.8-3.7-1.3-6.7-2.3-11v-.2Z" fill="#f5f0d8"/>
          <path d="M844.8,552.3c-9.5-27.3-23.1-55.4-28.6-83.6,8-2.4,14.3-4.3,21.1-8.9l2-1.7c.5,3.2,1.3,6.5,1.8,9.7-3.8,2.2-7.5,4.1-11.5,6.5,5.8,15.6,11.3,30.7,17.1,47,4.3-.6,8.3-1.3,12.8-1.9,2,5.4,4,10.8,6,16.5,2.5,5.6,5,11.3,7.8,17.3-10.5-.4-19.6-.9-28.4-1.1v.2Z" fill="#f0eee0"/>
          <path d="M1044.3,506.9c1.8-9.7,11-13,19.6-16,5.5-1.9,12-1.5,18.1-2.2,4.3,11,8.3,22.1,12.8,34-13.5,3.7-26.3,7.1-40.4,10.8-3.5-9.5-7-18.2-10.3-26.8l.3.2Z" fill="#bedc89"/>
          <path d="M1006.7,540.9c13.3-1.5,26.6-3.5,39.9-5.4-4.8-13-8.8-24.3-13.3-37-7,1.1-13.5,1.7-20.8,1.7,6-1.5,11.8-2.8,19.6-4.8-5.3-14.9-10.5-29.9-15.8-44.6-2.8.4-4.3.4-5.8.6h0c1.3-1.5,2.5-3.2,3.5-4.8.5,0,1-.4,1.8-.6-15.6-35.3-31.6-70.4-46.9-105.7-14.8-34.9-32.4-71.5-29.9-109.1-15.3-3.7-30.6-7.4-45.9-10.6-7.3-1.5-14.8-3.2-22.1-4.8-7-1.5-18.6-2.4-24.3-6.3,16.1,2.8,31.9,5.8,47.7,9.3,14.8,3.2,31.4,5.4,45.4,10.8,3,27.9,8,53.7,18.8,80.3,10.5,25.8,20.8,51.5,33.4,76.4,12.3,24.3,21.6,49.4,30.4,74.7,8.8,24.9,20.3,50.4,26.1,76-14.1,2.4-27.6,4.3-41.9,5.6v-1.5l.3-.4Z" fill="#e2e1dc"/>
          <path d="M1127.1,752c3.3,7.1,6.5,14.3,10,22.5-11.5,2.8-22.1,5.4-34.1,8.4-1-39-15.8-73.8-36.4-107.4h31.9c4.5,8.9,9,16.9,9.8,26.2-2.5,0-5-.2-9.5-.4,3.3-1.1,4.8-1.5,6.5-1.9-2.3-7.1-2.5-14.9-10.8-19.7,0,3.2,6,17.1.5,17.3-1.8-5.2-3.3-10.4-5.3-16.2-3,1.5-4.5,2.4-6.3,3.2,1.8,5,3.3,9.5,5,14.3,2.3,0,4.3.2,6.5.4,2.3,2.4-6.5,2.8-7.8,3-2.5-6.3-4.8-11.9-6.8-17.3,1-2.2,1.8-3.9,3-6.3h-11.8c6.5,12.8,12.8,24.9,18.6,35.9,1.8-.2,3.3-.4,4.8-.6,2.3,11.5,3.5,12.6,11.3,11.7-1.8-4.5-3.8-8.9-5.5-13.4-.5-1.5-1.3-3.2-1.8-4.8h12.8c5,14.9,10.3,30.3,15.3,45.5-2-4.3-3.8-8.7-5.8-13-7.8-7.8-7.8-21.7-14.3-30.7l-2.5.9c1.3,5.8,2.8,11.5,4.3,18.4-5.5.2-9.3.4-13.8.6,1.3,3.7,2.5,7.8,3.8,11,3.3,1.3,5.3,2.2,7.5,3-1.8.2-3.5.6-5.3.9,1.5,12.3,3,24,4.5,36.8,9.3-2.2,17.8-4.3,27.1-6.5-2-7.1-3.8-14.3-5.5-21.4v-.4Z" fill="#e2e0d9"/>
          <path d="M826,199.8c-7.8-3.7-15.8-7.4-23.6-10.8-5.8-2.6-13.3-8.2-20.1-7.4,15.6,40.3,37.9,82.7,41.4,125.4,3.5,42.9,11.3,84.2,19.1,126.7,15.8-4.3,30.6-8.4,41.4-11.3,18.6.9,19.8,13,24.6,26v1.5c-4.3-8-8.3-16-12.8-23.8-20.6-2.4-36.9,4.8-54.7,12.1-4.8-23-9.5-46.1-14.1-69.1-4.3-22.3-4.5-45-7.5-67.6-6-44.8-29.9-83.8-41.7-127.1,15.6,8.4,33.6,15.4,47.9,25.3Z" fill="#e3e2dc"/>
          <path d="M1061.1,552.3c-2-4.1-4-8.2-6.5-13.6,14.1-3.9,27.4-7.4,42.2-11.5,5,12.8,9.8,25.1,15.1,38.5-14.1,3.9-27.6,7.8-42.9,11.9-2.8-9.1-5.3-17.3-7.8-25.5,3.5,7.4,6.8,14.7,10.5,22.7,12.5-3.5,24.6-6.9,37.1-10.6-4.8-12.1-9-23-13.3-34.4-4.5,1.3-8.3,2.2-11,3,2.8,6.3,5.3,12.6,8,19.3-6.3,1.7-11,3-15.1,4.3-3.5-2.4-6.5-4.3-9.8-6.3-1-3.9-1.8-8-2.8-12.6-2,1.5-3.8,2.8-5.3,3.7.8,4.3,1.3,7.6,1.8,11h-.3Z" fill="#e0ded4"/>
          <path d="M669.9,211.3c16.8,26.6,29.6,59.1,32.1,89.4,1,14.1,12.5,22.3,23.8,31.8,13.3,11.5,27.9,21.7,40.4,33.8,16.6-15.6,32.4-30.7,48.9-46.3-2-21.9-3.5-44-13.3-65.2l1.8-1.5c10.8,21.2,11.5,45.3,13.8,68-16.6,15.8-32.6,31-49.7,47-14.1-8.7-24.1-21-37.4-30.3-14.1-10-28.4-19.1-30.9-35.7-2.5-14.9-5-29.9-9.5-44.4-5-15.6-14.6-29.7-19.6-45v-1.7l-.5.2Z" fill="#e3e2dd"/>
          <path d="M1202.4,916.1c-3.5-3-9-5.6-10.5-9.3-10.5-26.2-20.6-52.4-30.6-78.8-5-13-9.8-26.2-14.6-39.2-1-2.8-1.8-5.4-3.3-9.3,15.1-3.2,29.4-6.5,45.2-10,7.8,19.7,15.3,39.4,23.1,58.9-.5.4-1.3,1.1-1.8,1.5-7.5-18.6-14.8-37.5-22.8-57.4-13.3,2.8-25.8,5.4-40.6,8.4,3.5,8.9,6.5,16.5,9.5,24.3h-.5c6.8,18,13.5,35.9,20.3,53.7.8,1.1,1.3,2.2,2,3.2,1.5,4.8,3,9.7,4.5,14.3,5,.2,8.5.4,12.3.9v.9c-3.3.2-6.5.6-10.8.9,4.3,13.4,7.5,26.6,18.6,36.8h0v.2Z" fill="#e2e2dc"/>
          <path d="M969,635.1c-2-8.7-4.3-17.1-6.5-26.8,34.6-8.7,68.5-16.9,103.9-25.8,5.3,16.2,10.3,32,15.6,47.6h0c-7.5-14.3-12-29.9-17.6-45-18.6,4.5-36.4,8.9-54.4,13.4-.8,2.2-1.5,4.1-2.3,6.1-1.3-1.7-2-3.2-3-4.8-2.3.6-4.3,1.1-6.5,1.7,3.8,6.3,8.3,11.7,4.8,18.8-1.5-4.8-3-9.5-4.8-15.2-2.8,1.3-4.5,2.2-6,3,1.3,5,2.3,9.5,3.5,13.9-3-5.8-6-11.5-9-17.8-6.5,1.7-13.8,3.7-20.6,5.4,1.8,9.1,3.5,17.1,5,25.3h-2Z" fill="#e0dfd7"/>
          <path d="M1095.2,696.8c5.5-.4-.5-14.1-.5-17.3,8.3,4.8,8.5,12.6,10.8,19.7-2,.6-3.3,1.1-6.5,1.9,4.5,0,7,.2,9.5.4-4,.9-8,1.9-13.5,3.2,2.3.9,3.3,1.3,4,1.7.5,1.5,1.3,3.2,1.8,4.8-2,.6-3.8,1.1-5.8,1.7-1.5.2-3.3.4-4.8.6-5.8-11.3-12-23.4-18.6-35.9h11.8c-1.3,2.4-2,4.3-3,6.3,2,5.4,4.3,11,6.8,17.3,1.3-.2,10-.4,7.8-3v-1.7l.3.2Z" fill="#efede0"/>
          <path d="M865.7,536.1c-2-5.6-4-11.3-6-16.5-4.5.6-8.5,1.3-12.8,1.9-6-16.2-11.5-31.6-17.1-47,4.3-2.4,8-4.5,11.5-6.5,6.8,16.9,13.8,33.8,20.6,50.7,2,5.4,4,10.6,5.8,16l-1.8,1.5-.3-.2ZM832.3,474.8c5.5,15.2,11,30.1,16.8,45.5,3.3-1.5,4.8-2.4,6.5-3.2-5.5-14.7-10.8-29.2-16.3-44.2-2.8.9-4.5,1.3-7,1.9Z" fill="#dedbd1"/>
          <path d="M765.8,373.7c0,.9,0,2.4-.3,2.4-22.3,8.4-30.1,26-37.1,44.2,15.3,32,32.6,63.2,56.2,91.6h-2c-8.5-11-18.3-21.7-25.6-33.6-10.5-17.3-19.6-35.3-29.1-53.3-1.3-2.4-2-5.4-1.3-7.8,7.5-18.2,15.8-35.9,38.9-43.7l.3.2Z" fill="#e3e2dc"/>
          <path d="M669.9,211.3v1.7c-4-11.9-8.8-23.4-11.8-35.5-10-38.8-24.6-76.2-46.7-111.3-.5-.9-.8-1.9-1.3-2.8.5-.4,1-.9,1.5-1.3l7.8,6.3c-6,1.1-1.5,3.7-.8,5.2,5.8,11,12,21.9,17.6,33.1,11.5,23.2,17.3,47.6,24.3,71.9,3.3,10.8,6.3,21.9,9.5,32.7h-.3Z" fill="#e2e2dc"/>
          <path d="M1113.6,569.7c5.5,15.2,10.8,29.2,16.3,44-14.8,4.1-28.4,8-43.2,12.1-5.3-14.5-10.5-28.6-16.1-44,13.8-3.9,27.6-8,42.9-12.3v.2ZM1126.6,612.5c-4.8-13.2-9.3-25.8-14.6-40.3-13,3.7-25.3,7.1-38.4,10.8,5,13.9,9.5,26.4,14.6,39.8,13.5-3.7,25.6-6.9,38.4-10.4h0Z" fill="#dfded9"/>
          <path d="M886.2,615.8c-1.3.6-2.5,1.1-4.5,1.9-2.5-6.1-4.5-11.7-6.8-17.8,3.3-1.3,5.8-2.2,9.5-3.7-2.8-10.8-5.8-21.9-8.8-33.1-10.8-.9-20.8-1.7-31.1-2.6-7-1.1-13.8-2.4-20.8-3.5,17.6,1.3,35.1,2.6,53.2,3.9,3.8,11.5,6,23.2,10.5,34.2,4.5,11,10.3,20.6,13.8,31.8-2.3-3.7-4.5-7.6-7-11.9-.8-.2-2.5-.6-4.3-1.3-1.5-4.8-3-9.5-4.8-14.9-2.8,1.1-4.5,1.9-7.5,3.2,3,4.8,5.8,9.1,8.5,13.4v.2Z" fill="#e0ded7"/>
          <path d="M1002.9,673.8c3.8.6,7.5,1.1,12.5,1.9,6,14.3,12.5,29.9,19.1,45.7-4,6.9-11-1.1-16.8,4.5-2.3-14.7-20.3-23-13-37.9-4-3.9-7.8-7.4-12-11.3-1.8,2.2-3,3.9-4.5,5.4,0-1.7,0-3.5.5-5.8,5-.9,9.8-1.5,14.3-2.4v-.2ZM1032.3,722.5c-5-15.2-12.5-29.2-17.8-44.4h-14.8c-.3.6-.5,1.1-.8,1.7,2.3,1.3,4.5,2.6,6.8,4.1,1.3,2.4,2.5,4.8,3.8,7.1-1.5.9-3,1.7-5.3,3,5.3,9.1,10.5,18,15.6,26.6,3.8.4,7,.9,12.8,1.7h-.3Z" fill="#dbcdd7"/>
          <path d="M707.6,326.7c-.8-.2-1.8-.4-4-1.1,6.3,27.1,12.5,53.3,18.6,79.7,1,.2,2,.4,2.8.9,5.5-14.9,14.6-27.5,31.6-34.2-1.5-3.2-2.5-5.6-3.8-8,2.5,1.9,5,3.9,8.3,6.3-8.3,6.3-17.1,11-23.1,18-6,6.9-9.3,15.6-14.6,25.1-10.5-31-16.3-61.1-22.1-91.2.8-.4,1.8-.6,2.5-1.1,1.3,1.9,2.8,3.9,4,5.8l-.3-.2Z" fill="#e2e2dc"/>
          <path d="M632.3,380.2c-3.3,2.2-6.3,5.2-10,6.1-8,2.2-16.3,3.7-24.3,5-11.3,1.9-20.8,11.7-22.1,21.2-1.5,12.1,3.8,22.3,10.5,32,9.3,13,16.6,27.3,29.9,37.9.8.6.8,1.9,1,3-12.8-7.4-19.8-19.5-26.8-30.7-7.5-11.9-18.6-26.6-17.8-40.7,1.8-30.3,41.4-20.4,59.7-35.7v1.9Z" fill="#e3e2dc"/>
          <path d="M758.3,489.1c-1-.2-1.8-.4-3.3-.9.3,1.9.5,3.7.8,5.8-3,1.3-5.5,2.4-9.3,3.9-2-3-4-5.6-6-8.7,4-2.4,7.3-4.1,11-6.3-9.8-18.2-19.8-36.8-30.1-55.6-9.3,2.2-18.1,4.3-27.1,6.5,9-3.2,18.1-6.5,27.6-9.7,12.5,22.3,24.6,43.7,36.4,65.2v-.2Z" fill="#e3e0d4"/>
          <path d="M1159.2,956.8c-2.5,0-5.3-.4-8.5-.6-1.8-6.7-3.3-12.8-4.8-18.8,1.3-.4,2.5-1.1,4-1.5,3.8-.6,7.8-1.3,12.3-1.9,2,6.1,7.5,14.5,3,19.9-2,1.1-3.8,2.2-5.8,3.2l-.3-.2Z" fill="#d7d7d6"/>
          <path d="M630.3,498.6c9.5,8.7,19.3,17.3,29.6,26.8,7.8-3.9,19.1-6.3,25.6-16-6.8-12.8-13.3-25.8-20.1-38.5-6-11-9.3-18.6.8-29v1.7c-11.8,18.4,10.3,40.7,18.1,57.4,7.5,16.5-11.5,21.2-25.8,28.6-9.5-10.4-18.8-20.6-28.1-30.7v-.2Z" fill="#e3e2dd"/>
          <path d="M908.8,449.9v-1.5l11.3,11.5,25.6,30.5,1.8-.9c-2.3-8.2-4.8-16.2-7.5-25.5,5.3-.2,8.5-.4,12.3-.6,3.5,9.3,12.8,24.7,9,34-3.8-10.6-7.5-21.4-11.5-32.7-2.8,1.1-4.5,1.7-6.3,2.4,3.5,10.8,7,21.4,10.5,31.8-2.5-1.7-5-3.2-7.5-5-12.5-14.7-25.1-29.2-37.6-44h0Z" fill="#e2e0d7"/>
          <path d="M1081.9,630.3c5.5,13.2,11,26.4,15.3,40.1-9.5,1.1-19.6,1.5-28.9-.2-9.3-1.9-17.1-6.3-26.8-6.9-17.8-.9-38.1,5.8-55.5,9.3-1.3-2.6-2.8-5.2-4-7.8h0c2,1.5,4,3,6.8,5.2,15.3-3,31.1-5.8,47.2-9.1v-4.1c18.3,8,36.4,15.4,58.2,12.3-4.5-12.8-8.5-25.5-12.5-38.3h0l.3-.4Z" fill="#dfded8"/>
          <path d="M709.3,394.7c-6.3-27.3-12-54.6-17.6-81.8-22.8-14.7-38.4,15.6-44.7,29.9l-1.8-1.5c8.3-17.3,20.8-43.1,48.2-30.7,6,27.3,14.8,55,17.6,82.7l-1.8,1.7v-.2Z" fill="#e2e2dc"/>
          <path d="M950.2,263.3c7,21,14.3,41.8,21.6,62.8,3.8,0,5.3-.2,7-.4.3.4.5.6.8,1.1-2,.9-4,1.5-5.8,2.2,7.5,17.5,15.6,34.9,21.3,53-18.6-38.5-36.4-77.7-46.9-118.7h2Z" fill="#dfded9"/>
          <path d="M1127.1,731c3.5,0,7,.6,10.3,0,9.3-1.9,18.3-4.1,27.4-6.3h0c-11.3,3.7-22.3,7.4-35.1,11.5,4.8,12.6,9.3,24.7,14.1,37.2,13.8-3,26.6-5.8,39.6-8.7-1.3-5.8-2.3-10.8-3.5-15.8h0c2.5,5.4,4.8,10.6,7.8,16.9-15.6,3.5-29.9,6.5-45.9,10-5-14.9-9.8-29-14.6-42.9v-1.9Z" fill="#e2e0d4"/>
          <path d="M897.5,630.3c1,.2,2,.4,3.5.6v-4.1c3.3,6.9,6.3,13.6,9.5,20.6,4.3,9.3,8.8,18.8,13.3,28.1-1.8-2.2-4-4.3-5.5-6.7-2.3-3-4-6.3-5.8-9.5h0c-1.8-5-3.5-10-5.5-15.2-4.8,1.5-9,2.8-13.8,4.5-2.5-6.3-4.8-11.7-7-17.8,4-1.5,6.5-7.8,11.3-.9-2.3,0-4.8.4-8,.6,2,5.4,4,10.2,6,15.4,2.8-1.5,4.3-2.4,5.5-3.2-1.3-4.8-2.5-8.9-3.5-13v.4Z" fill="#e1e0d6"/>
          <path d="M1209.9,829.9c.5-.4,1.3-1.1,1.8-1.5,7.3,19.5,14.6,39,21.6,58.2,1.8,4.8,3.3,9.7,4.8,14.7v1.7c-1-1.1-2.3-2.4-3.5-3.7-.3,5.2-3,6.5-8.8,3.9-.8-2.2-1.3-4.5-2-7.1,3.3-1.7,5.8-3,8.8-4.5-7.8-20.6-15.3-41.1-22.8-61.5l.3-.2Z" fill="#e0dfda"/>
          <path d="M1019.7,586.6c-4.8-11-9.8-22.3-14.8-33.8,5-1.7,8-2.8,11.3-4.1-2-.9-3.8-1.7-5.8-2.6,7.5-.6,15.1-1.1,22.3-1.7v1.5c3,8.9,5.8,18,9,27.3-2,.6-3.5,1.3-5.3,1.9,2.5-9.5-3-18.4-6.8-27.5-7.8,1.9-14.6,3.7-21.6,5.6,4.3,11.3,8,21.4,12.5,33.6,4-3.5,6-5.2,8-6.9v4.8l-3.8,3.2h-1.8c-1.3-.4-2.5-1.1-3.8-1.5l.3.2Z" fill="#d8d5c7"/>
          <path d="M1112.3,820.2c-2-6.5-3.8-13-5.8-19.3.5-1.7,1.3-3.2,1.8-5,5-1.3,10-2.6,16.1-4.1,1.8,8.9,7.3,15.8,5.8,24.3-5.3.9-9.5,1.7-14.1,2.6-1.3.4-2.5.9-3.8,1.5h0ZM1123.1,794.8c-5.5,1.5-9,2.4-12.5,3.2,1.5,6.7,3,12.3,4.3,18.4,3.8-.6,7.3-1.5,12.3-2.6-1.3-6.1-2.5-11.9-4.3-19.3l.3.2Z" fill="#ddd9ca"/>
          <path d="M892,430.4c-16.3,1.9-32.6,4.5-47.7,14.3,2.8,11,5,22.1,8.5,32.9,2.8,8.4,8.5,16.9,7.3,25.8-7-20.1-13.8-39.6-17.6-60.4,11-7.1,35.9-17.8,49.4-12.6h0Z" fill="#e2e0d7"/>
          <path d="M803.4,253.5l-1.8,1.5c-6.3-17.1-12.8-34-19.8-50.7-3.3-7.8-6.3-15.6-9.5-23.2-3-6.9-9.3-12.1-11.8-18.6,14.8,8.4,17.8,27.3,23.3,40.7,6.8,16.7,14.8,33.1,19.8,50.2h-.3Z" fill="#e2e2dc"/>
          <path d="M1070.7,893.4c7.3-11,28.6-18.4,41.7-23,17.1-5.8,34.6-7.4,52.4-10.8-.8-2.6-1.3-4.8-1.8-6.9h2c1.3,2.2,2.3,4.3,4.3,7.8-17.3,3.5-35.6,5.4-52.4,10.6-16.6,5.2-31.1,14.1-45.9,22.3h-.3Z" fill="#e2e0d8"/>
          <path d="M927.6,711.5c0-1.1,0-2.2-.3-3.5h-6.8c-3.5-7.6-6.8-14.9-10.5-23,3.8-1.7,6.8-3.2,10.8-5.2,3.3,6.9,6.3,13,9.8,20.4,1.3-3,2.3-5.2,2.5-5.8-1.5-4.5-2.8-7.4-3.8-10.4,2.5,3,5,6.1,7.8,9.3-3.3,6.3-6.5,12.3-9.5,18.4v-.2ZM930.1,703.9c-6-6.7-4.3-16-15.3-21.2,0,9.7,4,16.2,7.8,23.2,2.5-.6,4.3-1.1,7.5-1.9Z" fill="#e0ded3"/>
          <path d="M1108.3,795.9c-.5,1.7-1.3,3.2-1.8,5-1.5-4.5-2.5-9.1-3.5-13.6,11.5-2.8,23.1-5.4,35.4-8.2,3.3,8.9,6.8,17.8,10,26.6,2.5,6.7,8.5,15.4,3.3,21.2v-1.7c-4-14.7-9.3-29-14.6-43.3-10.8,2.4-20.6,4.3-31.4,6.7,1,3.2,1.8,5.4,2.5,7.4Z" fill="#e3e2dd"/>
          <path d="M876.9,849.4c23.3-1.3,46.2,9.7,69.8,9.7,4-11.5,11.8-19.3,26.3-21-10.8,5.6-21.8,10.6-23.6,22.5-25.6,1.3-48.9-5.8-72.5-11.3h0Z" fill="#e1dfd6"/>
          <path d="M1010.4,411c5.8,14.7,11.5,29.2,17.1,44,5.3,14.5,13.3,30.1,13,45.3-2.5-8-5-16-7.8-24-8-21.9-16.1-43.5-24.1-65.2h1.8,0Z" fill="#dfded9"/>
          <path d="M1025.5,588.1l3.8-3.2c10.5-2.4,21.3-4.8,32.4-7.1-4.5-12.3-8.5-23.4-12.3-34.2-6,.9-11,1.7-16.3,2.6v-1.5c5.5-1.3,11.3-2.4,17.8-3.9,4.8,13,9,25.3,13.8,38.5-13.8,3-26.3,6.1-39.1,8.9Z" fill="#e4e1d5"/>
          <path d="M677.5,552.3c17.6,21.7,35.1,43.3,52.7,65v1.7c-18.8-19.7-41.7-40.9-52.7-65v-1.7Z" fill="#e3e2dd"/>
          <path d="M1238,903.1v-1.7c4.8,12.1,9.5,24.3,14.8,36.8-8.5,0-16.8-5.4-24.3-8.7-9.3-4.1-18.6-7.4-26.1-13.6h0c15.1,6.5,30.1,13,46.7,19.9-3.8-11-7.3-21.9-10.8-32.9l-.3.2Z" fill="#e2e1dc"/>
          <path d="M865.7,536.1l1.8-1.5c5.3,8.9,7,14.5,6.3,21-12.5,0-25.3-.4-37.9-1.5-13.5-1.3-21.1-5-30.6-13,11.3,8.9,24.8,11.5,39.6,11.3,9,.4,17.8.6,28.4,1.1-2.8-6.3-5.3-11.9-7.8-17.3h.3Z" fill="#e3e2dc"/>
          <path d="M1256.8,950.3c.8,3.2,1.5,6.7,2.3,9.7-25.1,12.6-55.2,11.9-74.3-1.9,2.5-4.1,5.3-8.4,8-12.8v1.7c-1.5,3.7-3.3,7.4-4.8,11,22.3,12.3,50.2,12.1,68.3,0-.5-2.6-1-5.2-1.5-7.8h2Z" fill="#e2e1dc"/>
          <path d="M1006.7,540.9v1.5c-13.8,4.3-27.6,8.7-41.4,13.2,5.5-7.4,19.6-9.7,28.6-13.2-3.8-4.1-7-8-10.5-11.9l.5-.6c2.3,1.1,4.3,2.4,7,3.7,1.5-6.1,3-11.7,4.5-17.3.3,0,.5,0,.8.2v25.1c3.3-.2,7-.4,10.5-.6Z" fill="#e1e0d7"/>
          <path d="M1151.7,675.8c-7.3-18.2-14.3-36.4-21.8-55.4-10,2.8-18.3,5.6-28.9,5.2,10-2.4,20.1-4.8,30.9-7.4,7.5,19.9,14.6,38.8,21.6,57.6h-1.8Z" fill="#dfded9"/>
          <path d="M1025.5,792.7c1.3,2.2,2.3,4.1,4,6.9,21.8-5.6,43.4-11,65.7-16.9v-19.5c1,6.5,1.8,13,2.8,20.8-23.8,6.1-46.4,12.1-70.3,18.2-1.5-3.5-2.8-6.5-4-9.7h2l-.3.2Z" fill="#e0dfd6"/>
          <path d="M1019.7,586.6c1.3.4,2.5,1.1,3.8,1.5-20.6,5.4-41.2,11-62,16-2.5-5-5-9.7-7.5-14.5l1.8-1.5c2.3,4.3,4.5,8.4,7.3,13.4,15.6-3.9,30.6-7.6,46.2-11.3,0-2.4-.3-4.8-.8-8.9,2,3.7,3.3,5.4,4.8,7.8,2.5-1.1,4.5-1.9,6.5-2.6h0Z" fill="#e4e1d5"/>
          <path d="M797.7,675.8c6.3,4.8,13,8.7,18.3,14.5,4.8,5.6,7,12.1,11.3,18,6.5,9.5,18.3,14.9,27.4,22.5v1.5c-12.5-8-22.8-14.7-30.9-26.6-7.5-11.3-15.6-20.6-25.8-30.1l-.3.2Z" fill="#e2e0d8"/>
          <path d="M709.3,394.7l1.8-1.7c3.5,8.9,8,17.8,7,27.7-18.3,6.7-38.1,10-52.2,22.7v-1.7c10.8-13.4,34.9-17.5,51.4-23-2.8-8.4-5.5-16.2-8-24Z" fill="#e2e2dd"/>
          <path d="M839.3,458.2l-2,1.7c-2.5-15.6-5-31-8-46.6-2.5-13.6-3.8-28.1-8.8-41.1h2c6.5,27.9,16.1,57.6,17.1,86h-.3Z" fill="#e3e2dd"/>
          <path d="M1095.2,911.1c14.6,1.5,29.9,9.7,44.4,8,13.8-1.7,27.6-10.8,40.1-16-11.5,8-25.1,15.2-39.9,17.8-15.1,2.6-31.1-5.2-44.9-9.7h.3Z" fill="#e1dfd7"/>
          <path d="M1193.1,947.1v-1.7c3-7.1,6.3-14.3,9.8-22.3,18.3,7.8,40.6,14.1,54.2,27.3h-1.8c-11.5-11.5-34.9-17.5-50.4-24.3-4.3,7.6-7.8,14.3-11.5,21h-.3Z" fill="#e2e2dd"/>
          <path d="M1044.3,870.6c-10.8-18.4-15.3-39.8-21.6-59.5-6.3,1.5-12,3-18.1,4.5v-1.5c6-1.7,12-3.7,19.6-5.8,7,21.4,13.5,42,20.1,62.6v-.2Z" fill="#e1dfd6"/>
          <path d="M1070.7,451.7c-.8-.4-1.8-.6-2-1.1-8.5-22.3-17.1-44.8-25.3-67.1-.8-1.9-.8-4.1-1-6.3v-1.7c9.5,25.3,18.8,50.9,28.4,76.2h0Z" fill="#dfded8"/>
          <path d="M669.9,461.4c8.5,16,17.3,32,25.3,47-3.3,8.7-6,15.2-15.8,16.5h-2c10.5-7.1,16.6-11.5,11-23.2-6-13-13.5-25.8-20.3-38.5l1.8-1.5v-.2Z" fill="#e3e3dd"/>
          <path d="M1102.8,812.2c-4-6.9-5-13.2-6.5-21-20.3,5.2-40.6,10.8-61.5,14.5h-2c21.1-6.7,42.7-11.7,65-16.9,1.8,8.7,3.3,16,4.8,23.4h.3Z" fill="#e1dfd6"/>
          <path d="M1151.7,675.8h1.8c8,20.8,15.8,41.4,23.6,62.1,1.3,3.5,1.8,7.4,2.8,11h0c-2.8-6.5-5.8-12.8-8.3-19.3-1.3-2.8-2-5.8-6.8-5h0c1-.9,2-1.9,3-2.8-5.5-15.4-10.8-30.5-16.3-45.9l.3-.2Z" fill="#dfded8"/>
          <path d="M1149.7,649.8c5.3,13,10.8,25.8,15.8,38.8,4.5,11.5,11.3,23.6,10.5,35.9-6.5-18-13.3-35.7-19.8-53.7-2.5-6.9-4.5-13.9-6.5-20.8v-.2Z" fill="#e1dfd6"/>
          <path d="M797.9,542.6c-4.3.4-8.5.6-13.5,1.1-1.3-1.5-3.3-3.7-5.3-6.1,2.8-2.2,5-4.1,7.5-6.1-.5-2.4-1.3-4.8-1.8-6.9,4.5,6.1,8.8,12.1,13.3,18.2l-.3-.2Z" fill="#e3decd"/>
          <path d="M835.5,726.2c-3.8,21,11,44,13,65-6.8-22.7-13.3-45.5-19.3-68.2.5-.2,1.3-.6,1.8-.9,1.5,1.3,3,2.8,4.5,4.1Z" fill="#e0ded5"/>
          <path d="M984.1,726c-15.8,1.7-31.9,3.5-47.7,5.6,3.3,8.2,8,16.7,8.3,25.3-3.8-8.7-7.5-17.5-12-27.7,17.3-1.5,34.1-3.2,51.7-3.2h-.3Z" fill="#e2e0d6"/>
          <path d="M1020,307.2c-4.3-13-8-26-12.8-39-3.8-10.4-12.8-16.7-17.3-26.2,10.3,6.3,16.6,14.7,19.6,25.5,3.5,13.2,8,26.4,12.3,39.6h-1.8Z" fill="#dfdfda"/>
          <path d="M1123.3,581.6c6.3,1.3,11.8,26,14.1,31.6,4.5,11.7,11.5,24.3,12.5,36.6-9.3-22.3-20.6-45-26.3-68.2h-.3Z" fill="#e1dfd5"/>
          <path d="M1179.8,903.1c4-8.4-7.8-27.3-11-35.9-12.3,2.2-23.3,4.5-35.9,3.5,12.3-1.7,24.8-3.5,37.6-5.2,4.3,10.6,15.8,27.5,9.3,37.7h0Z" fill="#e1dfd7"/>
          <path d="M854.4,732.5v-1.5c21.3,4.5,40.1-5,60.2-8,2.3,0,5.3.2,7.5-.4,2-3.9,4-7.4,5.8-10.8-.8,3.9-1.8,7.8-2.5,11.7-17.6,3.7-34.9,7.6-52.4,10.6-5.8,1.1-12.3-.6-18.3-1.3l-.3-.2Z" fill="#dfded6"/>
          <path d="M1159.2,956.8c2-1.1,3.8-2.2,5.8-3.2,4.5.6,9.3,1.3,14.1,1.9,6.3-12.1,11.8-23,16.8-32.9-2-3.5-3.3-5.6-4.8-8h0c2.5,1.9,5,3.7,8.3,6.3-6.5,12.6-12.8,24.9-18.6,35.9h-21.8.3Z" fill="#e2e1db"/>
          <path d="M921.9,568.6c-12-2.2-23.6-4.1-35.9-5.2,2,10.2,3.8,19.3,5.5,28.1-3.3-10-6.5-19.9-10-31,16.1.2,29.1,3.5,42.2,8h-2,.3Z" fill="#e1e0d8"/>
          <path d="M1207.9,805.7c7.3,6.1,9.5,20.8,12.8,29,4.3,11,10.5,22.5,10,34.2-6.8-18-13.3-35.9-20.1-53.9-1-3-2-6.3-2.8-9.3Z" fill="#e1dfd6"/>
          <path d="M1149.7,935.6c-1.3.4-2.5,1.1-4,1.5-1.5-3.7-2.8-7.4-4.3-10.8,14.8-6.9,28.9-13.2,43.9-20.1,1.8,2.6,3.5,5.4,5.5,8.2h0c-2.5-1.5-4.8-3-7.3-4.8-13.3,5.8-26.1,11.7-40.1,18,2,2.6,4,5.2,6,7.8l.3.2Z" fill="#e3e2dc"/>
          <path d="M1236.3,880.4c3-.4,24.6,55.2,24.6,61.9-.5-.6-1.5-1.1-1.8-1.7-7.5-19.9-15.1-40.1-22.8-60v-.2Z" fill="#e1dfd6"/>
          <path d="M1033,805.7h2c-1,.9-2,1.9-3.3,3,6,18.4,16.8,39.4,16.6,58.7-5.8-18-11.5-36.2-17.6-54.1-1-2.8-4-6.3,2.3-7.6Z" fill="#e1dfd6"/>
          <path d="M1020,307.2h1.8c3.8,13.4,7.5,27.1,11.5,40.5-4.3-11.5-8.5-23-12.5-34.4-6.5,1.1-12.8,2.2-19.8,3.5,0-2.2.3-4.3.5-7.4,5.3,8,11.5.6,17.3,2.8.5-2.2.8-3.5,1.3-5h0Z" fill="#deddd6"/>
          <path d="M1179.8,731c6.8,5.8,8.8,18.6,11.8,26.4,4,10.4,9.5,20.8,9,31.8-6-16.2-12-32.7-18.1-49.1-1-3-1.8-6.3-2.8-9.3v.2Z" fill="#e1dfd6"/>
          <path d="M729.9,619v-1.7c12.5,13.6,25.1,27.1,37.6,40.7v1.7c-15.1-11.9-26.8-26-37.6-40.7Z" fill="#e4e3dd"/>
          <path d="M914.6,617.3c12.3-5.2,24.3-10.6,37.6-13.9-2-6.5-3.8-12.6-5.5-18.8v-1.7c3,6.9,6.3,13.9,9.3,21-14.3,4.5-27.9,8.9-41.4,13.2v.2Z" fill="#e1dfd8"/>
          <path d="M822.2,372h-2c-1.5-13-3.3-26-5-39.6-3.3,2.4-6.8,4.8-10,7.1v-1.7c3.8-3.5,7.5-7.1,12-11.3,1.8,16,3.3,30.7,5,45.5Z" fill="#e0dfda"/>
          <path d="M954,794.2c-1.3-1.5-3.3-3-4-4.8-6.3-14.5-12.5-29.2-18.6-44h2c4.3,9.1,8.8,18.2,12.5,27.3,3,6.9,5.3,14.3,8,21.4Z" fill="#e1dfd6"/>
          <path d="M1127.1,731v1.7c-6.8-17.3-13.8-34.6-20.6-52.2h1.8c6.3,16.7,12.5,33.6,18.8,50.2v.2Z" fill="#dfded8"/>
          <path d="M805.2,338v1.7c-3,8.9-22.1,25.8-32.1,27.5,10.8-9.7,21.3-19.5,32.1-29.2Z" fill="#e3e2dd"/>
          <path d="M950.2,263.3h-1.8c-1-10.4-2-20.6-3-32.3,12.3,2.4,22.6,4.3,32.9,6.5-10.5.9-20.3-1.9-30.6-3.9.8,10.8,1.5,20.4,2.5,29.9v-.2Z" fill="#dddcd7"/>
          <path d="M1102.5,524.8c8.5,14.1,17.3,34.4,17.1,50.2-4.8-13-9.8-26.2-14.3-39.2-1.3-3.5-2-7.4-2.8-11h0Z" fill="#e1dfd5"/>
          <path d="M863.6,510.1c6.8,6.9,13.3,45,24.6,44-1.3.4-2.5,1.1-3.8,1.5-1.8-1.9-4.5-3.5-5.5-5.8-5.3-13.2-10.3-26.4-15.3-39.8v.2Z" fill="#e1dfd6"/>
          <path d="M1095,763.4v3.2c-4.3-6.7-2.8-18.4-5.5-26.2-3.3-9.3-7.3-18-9.5-27.3h1.8c2.8,7.1,5,14.3,8,21.2,4,9.3,6.3,19.1,5.3,29h0Z" fill="#e0ded6"/>
          <path d="M989.9,706.7c-3-8-6-16.2-9.5-26-8,1.5-16.1,2.6-24.3,3.2,8.3-2.2,16.6-4.3,25.8-6.7,3.3,10.2,6.5,19.7,9.8,29.4h-1.8Z" fill="#e1e0d7"/>
          <path d="M848.6,791.2c1.3,6.9,3,14.1,3.3,21,0,6.7-1.3,13.2-.3,19.7,2.3,3.2,4.3,6.3,6.5,9.5-3-2.4-6-4.5-9.5-7.1v-43.3.2Z" fill="#e0ded5"/>
          <path d="M1010.4,807.4c2.8-1.7,5.5-3.7,8.5-5.4-3.5-12.8-7-25.8-10.3-38.5,4.8,13.2,9.5,26.2,14.6,40.5-5.3,1.5-9,2.4-12.5,3.5h-.3Z" fill="#e0ded6"/>
          <path d="M991.6,854.4c6.5,8,9.8,16.2,15.1,24.7,2,3,4,6.1,7.5,7.8,1.5.9,7.5,1.1,5.5,3.2-6,0-10.8-2.4-13.5-7.1-5-9.5-9.8-19.1-14.8-28.6h.3Z" fill="#e1dfd5"/>
          <path d="M905,732.7c-10,2.4-20.1,5.8-30.6,7.4-1.8.2-20.6,0-18.3-2.6,17.3,3,32.9-3,48.9-6.3v1.5Z" fill="#e3e2d9"/>
          <path d="M1004.9,813.9v1.5c-8.5,2.6-17.1,5.2-26.1,7.8,1.8,4.5,3.5,9.1,5.3,13.4-3.3-4.8-6.5-9.5-10.3-15.2,11.3-2.8,21.1-5.2,31.1-7.6Z" fill="#e3e1d8"/>
          <path d="M677.2,524.6h2c-5,3-9.8,6.1-15.1,9.3,4.5,6.3,8.8,12.3,13.3,18.4v1.7c-5.8-6.7-11.3-13.2-17.8-21,6.8-3,12.3-5.6,17.8-8.2l-.3-.2Z" fill="#e2e2dc"/>
          <path d="M935.2,706.7c.5,5.8-.8,10.2-2.5,15.8,10.3-.4,19.6-.9,28.6-1.1h3.8c-10.8,1.3-21.6,2.6-32.6,3.9l-2.3-1.9c1.5-5.6,3-11,4.5-16.7h.5Z" fill="#e0dfd7"/>
          <path d="M1081.9,713.2h-1.8c-6-10.8-11.8-21.4-17.6-32.3-.5-.9.5-2.2.8-3.5,6.3,11.9,12.5,23.8,18.8,35.7h-.3Z" fill="#e1e0d8"/>
          <path d="M645.6,341.2l1.8,1.5c-3.3,11-6.5,22.1-10,32.9-.5,1.7-3.3,3-5,4.5v-1.7c3-6.9,6.3-13.9,9-20.8,2-5.4,3-10.8,4.3-16.5h0Z" fill="#e2e1dd"/>
          <path d="M669.9,461.4l-1.8,1.5c-4.5-13.4,5.5-25.8,22.6-27.7v1.7c-12.5,3.5-16.1,6.1-22.3,17.8.5,1.9,1,4.1,1.8,6.5l-.3.2Z" fill="#e2e2dc"/>
          <path d="M884.2,555.6c1.3-.4,2.5-1.1,3.8-1.5,12,2.6,24.1,5.2,36.4,8,1.8.4,3.5,1.1,5,1.7v1.5l-45.2-9.7Z" fill="#e1dfd6"/>
          <path d="M1151.7,825.2v1.7c-16.1,6.7-29.9,4.3-39.4-6.7,1.3-.4,2.5-.9,3.8-1.5.5.9.8,2.2,1.5,2.8,10.3,9.1,21.8,8.4,34.1,3.7Z" fill="#eae7da"/>
          <path d="M942.7,495.4l-2,1.7c-7.3-8.2-14.8-16.5-22.1-24.7-1-1.1-.5-3-.8-4.5,8.3,9.1,16.3,18.4,24.6,27.5h.3Z" fill="#e3e1d8"/>
          <path d="M1010.4,411h-1.8c-3.3-6.7-6.8-13.4-10-20.4-1.3-2.8-2.3-5.8-3.5-8.9,1.5,1.3,2.8,2.6,4.3,4.1,2-.6,3.8-1.3,7.3-2.6-2.5,3-4,4.5-5.3,5.8,3,7.6,5.8,14.7,8.8,21.9h.3Z" fill="#dfded8"/>
          <path d="M976.6,667.5c-1.5-1.3-3.5-2.4-4-4.1-3.8-11-7.3-22.3-11-33.3,1.5,3.9,3.3,7.8,4.8,11.9,3.5,8.4,6.8,17.1,10.3,25.5h0Z" fill="#e2e0d8"/>
          <path d="M752.7,364c-6.8-5.4-13.3-11-20.1-16.5-3.3-2.6-6.8-5.2-10-8,1.3,0,3-.4,3.5,0,9,8,17.6,16,26.6,24v.4Z" fill="#e3e2dd"/>
          <path d="M1042.6,375.2v1.7c-1-.9-2.3-1.7-3.8-3-3,.4-6.3.9-9.5,1.3v-.9c2.5-1.1,5.5-2.2,8.8-3.2-1.8-7.8-3.5-15.6-5.3-23.4,3,9.3,6.3,18.4,9.3,27.7l.5-.2Z" fill="#deded8"/>
          <path d="M912.8,462.9c-8-6.3-14.1-13.6-17.3-22.7l-3.8-9.7c9.3,8.2,15.8,21.9,20.8,32.5h.3Z" fill="#e2e0d7"/>
          <path d="M961.5,630.3c-1.8-5.6-3.5-11-5.5-18-7.8,1.1-14.8,2.2-22.6,1.7,7.5-1.5,15.1-3,23.1-4.5,5,6.3,5.3,13.4,5.3,20.6l-.3.2Z" fill="#e1dfd7"/>
          <path d="M965.3,721.2h-3.8c9.5-1.3,19.1-2.6,29.9-4.1-.5-3.5-1-7.1-1.8-10.6h1.8c1,3.9,2.3,7.8,3.8,13-10.5.6-20.1,1.1-29.9,1.7h0Z" fill="#e0ded5"/>
          <path d="M782.6,511.9h2c6,8,12,16.2,18.1,24.3,1,1.5,1.8,3.2,2.8,5l-22.6-29.2h-.3Z" fill="#e3e2dc"/>
          <path d="M916.3,648.3c.5,0,1.5-.4,1.5-.4,5.3,10.8,10.3,21.9,15.6,32.9h-1.8c-5-10.8-10.3-21.7-15.3-32.5Z" fill="#e1dfd5"/>
          <path d="M893.8,596.1c4.8,7.4,9.5,14.7,14.6,22.3,2.3-.4,4.3-.9,6.3-1.1-2,1.7-4.3,3.7-7.5,6.5-4.8-10.2-9-19.1-13.3-27.7Z" fill="#e1e0d8"/>
          <path d="M993.4,695.2c.5,0,1.5-.2,1.5-.2,3.3,11.5,6.5,23,9.8,34.4-3.8-11.5-7.5-22.7-11.3-34.2h0Z" fill="#e1dfd7"/>
          <path d="M1025.5,792.7h-2c-3-9.3-5.8-18.4-8.5-27.7-.5-1.9-.8-4.1-1-6.3h2c2.5,8.4,5.3,16.9,7.5,25.5.8,2.8,1.3,5.6,1.8,8.7l.3-.2Z" fill="#e0dfd6"/>
          <path d="M967.3,807.2c2,1.9,4.3,3.9,7.5,6.7,8.3-1.1,16.3-3,24.6-1.9-9,1.5-17.8,2.8-26.8,4.3-3-3.9-5-6.5-7-9.1h1.8Z" fill="#e1dfd8"/>
          <path d="M905,732.7v-1.5c7.3-.6,14.6-1.5,22.8-2.2,2,6.3,3.8,11.5,5.5,16.7h-2c-1.8-4.5-3.3-9.1-5.5-14.7-7.3.6-14.1,1.3-21.1,1.7h.3Z" fill="#dfddd5"/>
          <path d="M969,635.1h1.8c3.8,9.7,7.5,19.5,11.3,29.2h0c-2-2.8-4.5-5.6-5.8-8.7-2.8-6.7-4.8-13.6-7.3-20.6Z" fill="#dfded8"/>
          <path d="M956,588.1l-1.8,1.5c-2.5-6.5-5-13.2-7.5-20.1,3.3-1.5,6.3-2.8,9.3-4.3-1.5,2.2-3,4.1-5.3,7.1,1.5,4.5,3.5,10,5.5,15.6l-.3.2Z" fill="#dfded8"/>
          <path d="M1151.5,833.2c-13.3,6.1-26.3,4.8-35.9-3.2,11.5,5,23.3,6.1,35.9,3.2Z" fill="#e0ded4"/>
          <path d="M967.3,807.2h-1.5c-4-9.7-7.8-19.5-11.8-29.2,2,3.5,4.3,6.9,5.8,10.6,2.8,6.1,5,12.6,7.5,18.6Z" fill="#e1dfd6"/>
          <path d="M732.2,144.6c-8.8-6.1-17.8-11.9-26.6-18,8.8,6.1,17.8,11.9,26.6,18Z" fill="#e3e2dd"/>
          <path d="M1108.3,680.7h-1.8c-3.3-9.7-6.3-19.5-9.5-29.2l11.3,29.2Z" fill="#deded8"/>
          <path d="M1016,758.7h-2l-9.3-29.2c2.5,6.7,5,13.4,7.8,20.1,1.3,3,2.5,6.1,3.5,9.1Z" fill="#e0dfd6"/>
          <path d="M929.6,565.3v-1.5c2,0,4.3-.2,6.8-.4-1.8-8.2-3.3-16-4.8-24h1.8c2,8.2,3.8,16.5,6,25.8h-9.8v.2Z" fill="#e0ded5"/>
          <path d="M1008.7,763.4c-3.3-9.7-6.3-19.5-9.5-29.4,3.3,9.7,6.3,19.5,9.5,29.4Z" fill="#e1dfd7"/>
          <path d="M946.5,583.1v1.7c-2.5-4.1-4.8-8.2-6.5-11.5-6.5-1.7-12.3-3.2-17.8-4.8h2c5.8.6,11.3,1.5,18.1,2.4,1.5,3.9,3,8,4.5,12.3l-.3-.2Z" fill="#dfddd4"/>
          <path d="M1165,852.7h-2c-1.8-5.6-3.5-11.3-5.8-16.7-.5-1.3-3.5-1.9-5.5-2.8,1.5-1.1,3-2.2,6-4.5,2.8,8.9,5,16.5,7.3,23.8v.2Z" fill="#e1dfd8"/>
          <path d="M931.6,680.7h1.8c2.3,1.5,4.5,2.8,6,3.9,6-1.9,11.3-3.7,16.6-5.4-5.3,3-10.5,6.1-16.6,9.5-2.8-2.6-5.3-5.2-7.8-7.8v-.2Z" fill="#e1dfd6"/>
          <path d="M956,679c4.8-1.7,9.5-3.7,14.3-5,3.8-1.1,7-2.4,6.5-6.5,1.3,1.7,2.5,3.5,4.3,5.8-9,1.9-17.1,3.9-24.8,5.6h-.3Z" fill="#e1dfd7"/>
          <path d="M1093.2,628.6c0,3-.3,6.1,0,9.1.8,4.5,2.3,9.1,3.5,13.9-3-6.7-6-13.6-9.3-20.8,2.3-.9,4-1.5,5.5-1.9l.3-.2Z" fill="#deddd7"/>
          <path d="M1159.7,596.5c-6.8,2.2-12.3,3.9-18.8,6.1-1.8-3.7-3.3-7.1-5.3-11.9,7-1.7,13-3.5,19.6-5,1.8,4.1,3,7.1,4.5,10.8h0Z" fill="#d7d6d4"/>
          <path d="M1179.3,692.2c4.3-1.5,7.8-2.8,12-4.1,1.5,3.5,2.5,6.1,4.3,9.5-3.8,1.5-7.3,2.8-11.5,4.5-1.8-3.7-3-6.3-4.5-10h-.3Z" fill="#e7dfc7"/>
          <path d="M1158.5,637.7c4.3-1.5,7.8-2.6,12-3.9,1.3,3.5,2.5,6.3,4,10.2-4.5,1.1-8.3,1.9-12.3,2.8-1.3-3-2.3-5.6-4-9.1h.3Z" fill="#e7dfc7"/>
          <path d="M1194.9,731.4c-1.5-3.9-2.5-6.5-4-10,4-1.5,7.5-2.6,11.8-4.1,1.3,3.7,2.3,6.5,3.5,10.2-3.3,1.3-6.5,2.4-11.3,4.1v-.2Z" fill="#e7dec7"/>
          <path d="M1297,946.2c-4.5,1.1-8,1.9-12.3,3-1.5-3.5-2.5-6.1-3.8-9.7,4.5-1.1,8-1.9,12.3-3,1.5,3.5,2.5,6.1,3.8,9.7Z" fill="#e7dfc7"/>
          <path d="M1169.3,664.1c4.8-1.3,7.3-2.2,11.3-3.2,1.3,3.7,2.3,6.9,3.5,10.6-3.8,1.1-6.3,1.9-10.3,3-1.5-3.5-3-6.5-4.5-10.4h0Z" fill="#e6dec6"/>
          <path d="M1226.5,814.1c4-1.5,7-2.6,11-4.1,1.8,3.5,3,6.3,5,10-3.8,1.3-6.8,2.6-11,4.1-1.5-3.2-3-6.1-4.8-9.7l-.3-.2Z" fill="#e6dec6"/>
          <path d="M1211.2,774.1c4.3-1.1,7.8-1.7,11.8-2.6,1.3,3.2,2.3,5.4,3.8,8.7-3.8,1.3-7,2.4-11.3,3.9-1.5-3.7-2.5-6.3-4.3-10Z" fill="#e6dec6"/>
          <path d="M1281.4,906.1c1.3,3.2,2,5.4,3.3,8.4-3.8,1.3-7.3,2.4-11.5,3.7-1.3-3.7-2.5-6.3-4-10.4,4.5-.6,8.3-1.1,12-1.7h.3Z" fill="#e5dcc4"/>
          <path d="M1257.6,840.7c1.5,3.9,2.3,6.1,3.5,9.3-3.8,1.1-7,2.2-11.3,3.5-1.5-3.5-2.5-5.8-4-8.9,4-1.3,7.5-2.4,11.5-3.7l.3-.2Z" fill="#e5dcc4"/>
          <path d="M1124.6,514.2c1,4.1,1.8,6.9,2.8,10.4-3.8,1.1-6.5,1.9-10,2.8-1.5-3.2-2.5-6.1-4.3-9.5,3.8-1.3,6.8-2.2,11.5-3.9v.2Z" fill="#e6ddc5"/>
          <path d="M1110.6,478.7c1.5,3.2,2.5,5.6,4.3,9.3-4.3,1.1-7.8,1.9-11.8,3-1.5-3.5-2.3-5.6-3.5-8.7,3.8-1.3,7.3-2.4,11-3.7Z" fill="#e5dcc4"/>
          <path d="M1211.4,739.4c1,5,1.5,8,2.3,11.7-4,.4-6.5.9-10,1.3-1.3-2.6-2.5-5-4.3-8.2,3.8-1.5,6.8-2.8,12-4.8h0Z" fill="#e5dcc4"/>
          <path d="M993.4,894.4c1.5,4.1,2.8,6.7,4,10.2-3.3,1.5-6.3,2.6-10,4.3-2-3.2-3.8-5.8-5.8-9.1,4.3-1.7,7.3-3.2,12-5.2l-.3-.2Z" fill="#e7dec6"/>
          <path d="M1059.1,290.1c-3.5.9-5.5,1.5-8.8,2.4-3.5-9.3-7-18.4-10.5-27.7,3.3-1.1,5.5-1.7,8.8-2.8,3.5,9.5,7,18.6,10.5,28.1h0Z" fill="#fdfced"/>
          <path d="M891.7,401.4l-3.8-3.2c-.5-5.4-1.5-10.2-3-15.4,3-.2,5.3-.4,7.8-.6,1.5,4.1,2.8,7.6,4.3,11.9,1.8.2,3.8.4,5.8.9v-1.1c-.5,0-1.3-.2-1.8-.4,3.3-1.1,6.3-2.2,9.5-3,7.5,1.3,14.3-.6,21.1-4.1-2.5-7.6-4.8-14.7-7-22.5,3-.2,5.3-.4,7.8-.6,2.3,5.8,4.5,21.7,14.1,20.8,3.5-1.3,7.3-2.6,11.5-4.1.5,2.8,1,5,1.5,7.8-20.6,5.6-40.4,10.8-59.2,16-3.5-.6-6-1.3-8.5-1.7v-.4Z" fill="#dbe1f2"/>
          <path d="M900,315.9c5.3-1.3,10.8-2.6,15.8-3.7,7.8,2.6,4,7.8,4.8,12.6,3.3,3.5,7.8,7.4,4,13.9-4.5,1.1-9.5,2.4-14.8,3.7-7.3-4.3-4.8-8.9-.5-13.4-1-2.6-1.8-5-2.3-6.3-3.3-1.9-5.5-3.5-7.8-4.8.3-.6.8-1.3,1-1.7l-.3-.2Z" fill="#dcdacf"/>
          <path d="M849.3,345.6c3.5,9.5,6.3,17.5,9.5,26.4-2.8,1.3-5,2.4-8,3.9-3.3-8.9-6.3-16.9-9.5-25.5,2-1.1,4.3-2.4,8.3-4.5l-.3-.2Z" fill="#d6d6d4"/>
          <path d="M891.7,401.4c2.5.4,5,1.1,8.5,1.7,18.8-5,38.6-10.4,59.2-16-.5-2.8-1-5-1.5-7.8-4.3,1.5-8,2.8-11.5,4.1l-2-1.7c4.3-2.2,8.3-4.1,13.8-6.7,1.8,4.3,3.5,8.2,5.5,13.4-23.6,6.3-46.4,12.3-69.5,18.4-1.3-2.6-1.8-3.9-2.5-5.4h0Z" fill="#d1d5de"/>
          <path d="M935.2,283.6c1,6.7,1.5,12.3,2.5,19.1-4,.4-6.8.6-10.5,1.1-1-6.1-2-11-3-17.5,3-.6,6.3-1.5,11-2.6h0Z" fill="#d7d7d5"/>
          <path d="M944.4,381.7l2,1.7c-9.8.9-11.8-15.2-14.1-20.8-2.5,0-4.8.4-7.8.6,2.5,7.8,4.8,14.9,7,22.5-6.8,3.5-13.3,5.4-21.1,4.1,1.5-1.5,2.8-2.8,4-3.9,4.5.2,8.8.4,14.6.6-2.8-8.7-5-15.8-7.5-23.8,3.3-1.5,6.3-2.8,10.5-4.8,4,7.8,8,15.8,12,23.6h.3Z" fill="#d0d5df"/>
          <path d="M863.6,412.9c-1.8-5.4-3.3-10-5-14.9,3-.9,5.5-1.7,9-2.8,2,5,3.8,9.7,5.8,14.7-3.3,1.1-5.8,1.9-9.8,3h0Z" fill="#d7d7d4"/>
          <path d="M945.2,444.1c-3.8,1.1-6,1.7-9.8,2.8-1.8-3.2-3.3-6.5-5.3-10.2,4.5-1.1,7.8-1.7,12-2.6,1,3.2,1.8,6.3,3,10h0Z" fill="#e8e0ca"/>
          <path d="M901.3,393.2c.5,0,1.3.2,1.8.4v1.1c-2-.2-4-.6-5.8-.9-1.5-4.1-2.8-7.8-4.3-11.9-2.5.2-4.8.4-7.8.6,1.8,5.2,2.5,10,3,15.4-2-5-4-10-6.3-15.8,4.3-1.5,7.5-2.6,11.5-4.1,2.8,5.4,5.5,10.2,8,14.7l-.3.4Z" fill="#d1d5df"/>
          <path d="M923.1,799.2c5-1.5,8.3-2.4,12.5-3.7,1.3,3,2.5,5.6,4,9.3-3.8,1.5-6.8,2.8-10.8,4.3-1.8-3.2-3.5-5.8-5.8-10Z" fill="#e7dec6"/>
          <path d="M900.8,748.3c-1.3-3.2-2.5-6.1-4-9.5,3.8-1.3,6.8-2.2,11-3.5,1.3,3.7,2.3,6.7,3.3,10.4-4,1.1-6.8,1.9-10.3,2.8v-.2Z" fill="#e5dcc4"/>
          <path d="M916.8,761.5c1.3,3.2,2.3,5.6,4,9.3-4.3.9-7.8,1.7-12.5,2.8-.5-3.9-1-6.5-1.3-9.5,3.5-1.1,6.5-1.7,10-2.8l-.3.2Z" fill="#e4dbc4"/>
          <path d="M1032.5,439.1c4-1.5,7.3-2.6,12-4.3,6.3,17.1,12.5,33.6,18.8,50.7-3.8,1.3-6.8,2.2-11.5,3.9-6.5-16.7-12.8-33.1-19.3-50.2ZM1059.9,483.1c-5.8-15.6-11.3-29.9-17.3-45.7-2.8,2.2-4.5,3.5-6,4.5,5.5,14.9,10.8,29.2,16.3,44.4,2.8-1.3,4.5-2.2,6.8-3.2h.3Z" fill="#e0ddd0"/>
          <path d="M982.1,276.3c-2,1.1-4,2.2-6.3,3.7-6.3-6.1-8.5-12.6-8.3-20.8,4,0,7.3-.4,12.5-.6.8,6.5,1.5,12.1,2,17.8-2-5.2-4-10.6-6-16.5-2.8,1.1-4.3,1.7-6.3,2.4,1.5,4.5,3,8.9,4.5,13.4,3,0,5.3.4,7.8.4v.2Z" fill="#e0ddd0"/>
          <path d="M982.1,295.8c.5-1.5,1-3.2,1.8-5.6,2.5,1.9,4,3,5.5,4.1,1.3,3.5,2.3,6.9,3.8,11-2.3.6-4,1.3-6.8,2.2-1.5-4.3-3-8-4.5-11.7h.3Z" fill="#fcfbed"/>
          <path d="M982.1,295.8c1.5,3.7,2.8,7.4,4.5,11.7,2.8-.9,4.5-1.5,6.8-2.2-1.3-3.9-2.5-7.6-3.8-11,2.3,3.7,4.8,7.4,7.5,11.5-4.3,2.2-6.8,3.5-9.5,5-6.3-4.1-7.5-8.9-5.5-14.7v-.2Z" fill="#e0ddd0"/>
          <path d="M1034.3,777.7c-1.3-3.5-2-6.1-3-9.1,3.3-1.3,6.3-2.6,10.3-4.1,1.8,3.7,3.3,6.7,5.3,10.4-4.5,1.1-8,1.9-12.3,2.8h-.3Z" fill="#e7dec7"/>
          <path d="M1076.4,722.1c-4.5,1.3-8,2.2-12,3.2-1.5-3.5-2.5-6.1-3.8-9.3,3.8-1.1,6.8-2.2,11-3.2,1.5,3,2.8,5.4,4.8,9.5v-.2Z" fill="#e6dec6"/>
          <path d="M882,711.5c4.3-1.3,7.3-2.2,11.3-3.5,1.8,2.8,3.3,5.2,5.3,8.4-4,1.9-7,3.5-11.3,5.4-1.8-3.7-3.3-6.5-5.3-10.6v.2Z" fill="#e7dfc7"/>
          <path d="M836.8,661.9c1.8,4.1,3,6.7,4.5,10.2-3.5,1.3-6.8,2.4-11,3.9-1.5-3.2-3-6.1-4.5-9.5,3.5-1.5,6.8-2.8,11-4.8v.2Z" fill="#e6dec6"/>
          <path d="M855.6,649.6c5-1.3,8.3-2.4,12-3.5,1.3,3.2,2.3,5.6,3.8,8.9-3,1.3-5.5,2.4-9.3,3.9-2.3-3-4-5.6-6.5-9.3Z" fill="#e5dcc4"/>
          <path d="M913.6,497.8c-1.5-4.3-2.5-7.1-3.5-10.8,3.8-1.1,7-2.2,10.8-3.5,1.8,3.7,3,6.7,4.8,10.4-4,1.3-7.5,2.4-11.8,3.9h-.3Z" fill="#e7dec7"/>
          <path d="M886.7,447.1c1.3,3.7,2,5.8,3.3,9.1-3.5,1.3-7,2.8-11.5,4.5-1.5-3.7-2.8-6.7-4.3-10.4,4.5-1.1,8.3-2.2,12.5-3.2h0Z" fill="#e7dfc7"/>
          <path d="M1062.6,866.5c-1.5-3.7-2.3-6.3-3.8-10.2,4.3-.9,8-1.5,12.3-2.4,1,3.5,1.8,5.8,2.8,9.1-3.8,1.1-7,2.2-11.3,3.7v-.2Z" fill="#e6dec6"/>
          <path d="M1046.1,811.3c4.8-.2,7.3-.4,10.8-.6,1,3,2,5.6,3.3,8.7-4,1.1-7.3,1.9-11.8,3.2-.8-4.1-1.3-7.1-2-11.3h-.3Z" fill="#e6dec6"/>
          <path d="M1010.4,451.7c1.5,0,3-.4,5.8-.6,5.3,14.7,10.5,29.7,15.8,44.6-7.8,1.9-13.5,3.2-19.6,4.8-4.8,3.5-9.3,6.7-14.6,10.4-6.8-16.7-13.8-33.1-21.1-50.9,11.5-2.4,22.6-4.1,33.6-8.2ZM1000.1,471.6c1.5,3.7,2.5,6.3,3.8,9.7,3.8-1.1,6.8-1.9,10.5-3-.5-3-1-5.6-1.5-9.3-4.5.9-8,1.5-12.8,2.4v.2Z" fill="#f9f7e8"/>
          <path d="M954,498.9c-3.5-10.6-7-21-10.5-31.8,2-.6,3.5-1.3,6.3-2.4,4,11.3,7.8,21.9,11.5,32.7-1,5.4-4.5,2.6-7.5,1.7l.3-.2Z" fill="#fdfbed"/>
          <path d="M1035.5,531.1c-7.3,1.9-13,3.5-20.1,5.4-1.3-3-2.5-5.8-3.8-8.9,3-1.7,5.3-3,8.3-4.5-.5-1.7-1-3.7-1.8-5.8-3.3.4-6,.6-9.8.9-.5-3.2-1.3-6.1-1.8-10,6.8-1.7,12.5-3,19.1-4.8,3.5,9.3,6.5,17.8,10,27.5l-.3.2ZM1014.7,528.1c4.8,5.8,5.5,5.8,17.3,0-2.8-6.9-5.5-14.3-8-21.4-10,1.6-14.6,4.4-13.5,8.4h9.8c1.3,3,2.3,5.8,3.5,8.9-3.3,1.3-5.8,2.4-9,3.7v.4Z" fill="#dad6c6"/>
          <path d="M981.3,769.1c4.3-1.3,7.3-1.9,11-3,1.3,3.2,2.5,5.8,4,9.3-3.8,1.3-6.8,2.2-10.8,3.5-1.5-3.2-2.5-5.8-4-9.5l-.3-.2Z" fill="#e5dcc4"/>
          <path d="M755.8,513.8c4.3-1.7,7-2.8,10.5-4.3,2,3,3.8,5.6,6,8.9-3.8,1.7-6.5,3-9.8,4.5-2.3-3-4.3-5.6-6.8-9.1h0Z" fill="#e6ddc5"/>
          <path d="M1136.4,719.3c-6.3-16.9-11.8-31.8-17.6-47.4,3.5-1.7,6-3,10.5-5.4,6.5,16.2,12.5,31.6,19.1,48.1-3.8,1.5-7,2.8-12,4.8h0ZM1121.3,672.9c5.8,14.9,11.3,29,16.8,43.1h3c4.8-13.9-7.8-32.7-13-45.9-2.8,1.1-4.5,1.7-6.8,2.8Z" fill="#e0ddd0"/>
          <path d="M1127.1,655.2c-3.8,1.3-7.8,2.8-12.8,4.5-1.8-3.7-3-6.9-4.8-10.8,4-1.1,7.5-1.9,10.8-2.8,2.3,3,4,5.2,6.8,9.1Z" fill="#e1ded1"/>
          <path d="M1160.5,894.4c-1.5-4.1-2.5-6.5-3.5-9.5,3.5-1.1,6.5-2.2,10.8-3.5,1.5,3,2.8,5.4,4.8,9.1-4,1.3-7.5,2.4-11.8,3.9h-.3Z" fill="#e5ddc5"/>
          <path d="M1030.3,880.8c-4.5,1.3-7.5,2.2-12,3.5-1-3.9-1.8-7.1-2.8-10.6,3.8-1.1,6.3-1.7,9.8-2.8,1.8,3.2,3.3,6.3,5,10.2v-.2Z" fill="#e7dec6"/>
          <path d="M998.4,821.3c4.8-1.1,7.8-1.5,11.5-2.4,1,3.2,2,6.3,3,10-3.8,1.1-6.8,2.2-11,3.2-1.3-3.9-2.3-6.9-3.5-10.8h0Z" fill="#e7dfc7"/>
          <path d="M886.2,615.8c-2.8-4.3-5.5-8.7-8.5-13.4,3-1.3,4.8-1.9,7.5-3.2,1.8,5.4,3.3,10.2,4.8,14.9-1.3.6-2.5,1.1-3.8,1.7Z" fill="#fdfced"/>
          <path d="M910.8,664.3c1.8,3.7,3.8,7.6,5.5,11.3-2.5.2-5.3.4-8.3.9-2-5-3.8-9.5-5.5-14.1.8-.4,1.8-1.1,2.5-1.5,1.8,1.1,3.8,2.4,5.5,3.5h.3Z" fill="#fcfbed"/>
          <path d="M910.8,664.3c-1.8-1.1-3.8-2.4-5.5-3.5-.8.4-1.8,1.1-2.5,1.5,1.8,4.5,3.5,9.1,5.5,14.1,3-.2,5.5-.4,8.3-.9-2.5,1.3-5,2.6-8.8,4.5-3.3-6.5-6-11.9-8.5-17.3,4.3-4.1,8.3-6.3,13.5-3.2h0c-.5,1.5-1.3,3.2-1.8,4.8h-.3Z" fill="#e0ddd0"/>
          <path d="M961.3,665.8c-4.5.9-7.8,1.5-11.8,2.4-1.3-3.2-2.3-5.8-3.8-9.5,4.5-1.1,8-1.7,12.3-2.6,1.3,3.5,2,6.1,3.3,9.7h0Z" fill="#e6dec6"/>
          <path d="M934.2,622.3c5-.6,8.8-1.3,13-1.7.5,3.5,1,5.6,1.5,8.7-3.3,1.1-6.3,1.9-10,3.2-1.5-3.2-2.5-5.8-4.5-10.2Z" fill="#e5dcc4"/>
          <path d="M972,567.5c4.8-1.1,8.3-1.7,12.5-2.8,1,3.2,1.8,5.8,2.8,9.3-3.8,1.1-7.3,1.9-11,3-1.5-3.5-2.5-5.8-4.3-9.7v.2Z" fill="#e5dec8"/>
          <path d="M935.7,588.5c-4,1.1-6.3,1.7-9.5,2.8-1.8-3-3.3-6.1-5.3-10,4.5-1.3,7.8-2.2,12.3-3.7,1,4.1,1.8,7.1,2.5,10.8h0Z" fill="#e7dec7"/>
          <path d="M968.8,689.6c1,4.5,1.5,7.4,2.3,11-4,.4-6.8.9-10.5,1.3-1.3-3-2.3-5.6-3.5-9.1,4-1.1,7-1.9,11.8-3.5v.2Z" fill="#e5dcc4"/>
          <path d="M1127.1,752c1.8,7.1,3.8,14.3,5.5,21.4-9.3,2.2-17.8,4.3-27.1,6.5-1.5-12.8-3-24.5-4.5-36.8,1.8-.4,3.5-.6,5.3-.9,5-1.1,10-2.2,15.1-3.2,2,4.3,3.8,8.7,5.8,13h0Z" fill="#f9f7e8"/>
          <path d="M1121.3,739.2l-15.1,3.2c-2.3-.9-4.3-1.7-7.5-3-1-3.2-2.5-7.4-3.8-11,4.3,0,8.3-.4,13.8-.6-1.8-6.9-3-12.6-4.3-18.4l2.5-.9c6.5,9.1,6.5,23.2,14.3,30.7Z" fill="#efeddf"/>
          <path d="M1095.2,696.8v1.7c-2,0-4.3-.2-6.5-.4-1.8-4.8-3.3-9.3-5-14.3,1.8-.9,3.3-1.7,6.3-3.2,2,5.8,3.5,11,5.3,16.2Z" fill="#fdfced"/>
          <path d="M1095,713.2c2-.6,3.8-1.1,5.8-1.7,1.8,4.3,3.8,8.9,5.5,13.4-7.8.9-8.8-.2-11.3-11.7Z" fill="#fcfbec"/>
          <path d="M1061.1,552.3c-.5-3.5-1-6.9-1.8-11,1.3-.9,3-2.2,5.3-3.7,1,4.5,2,8.7,2.8,12.6,3.3,2.2,6.3,4.1,9.8,6.3,4.3-1.3,8.8-2.6,15.1-4.3-2.8-6.7-5.3-13-8-19.3,2.8-.6,6.5-1.7,11-3,4.5,11.3,8.5,22.1,13.3,34.4-12.5,3.5-24.6,6.9-37.1,10.6-3.8-7.8-7-15.2-10.5-22.7h0l.3.2Z" fill="#f0eee0"/>
          <path d="M1238,903.1c3.5,11,7,22.1,10.8,32.9-16.6-7.1-31.6-13.6-46.7-20.1-11.3-10.2-14.6-23.4-18.6-36.8,4.3-.4,7.5-.6,10.8-.9v-.9c-3.8-.2-7.3-.4-12.3-.9-1.5-4.5-3-9.3-4.5-14.3,9.3-3.9,20.6-4.1,28.6-11.3-4.8-12.3-9.3-24.3-14.1-36.6-1.5,1.7-2.3,2.8-3,3.9-5.5-3.2-8.8.4-13.3,2.4,2,6.5,3.8,12.6,5.8,18.6,2.8,5.4,5.5,11,8.5,17.1-4,.6-9.3,1.5-14.3,2.4-6.8-18-13.5-35.7-20.3-53.7h.5c-3-7.8-6-15.6-9.5-24.5,14.8-3,27.4-5.8,40.6-8.4,8,19.9,15.3,38.8,22.8,57.4,7.5,20.6,15.1,41.1,22.8,61.5-3,1.5-5.5,2.8-8.8,4.5.8,2.6,1.5,5,2,7.1,5.8,2.4,8.5,1.3,8.8-3.9,1.3,1.3,2.3,2.6,3.5,3.7l-.3.6ZM1201.9,903.5c1.5,3.5,3,7.4,4.8,11.7,4.5-1.3,7.5-2.4,11.5-3.5-1.8-5-3.3-9.3-4.5-13.4-3.8,1.7-7,3.2-11.5,5.2h-.3ZM1199.4,897c.5,0,1,0,1.5-.2-.5-3.2-1-6.7-1.8-10.4,1.8-.9,3.5-1.7,5.3-2.6,1.8,2.6,3,4.5,4.3,6.7.5,0,.8-.4,1.3-.4-1-2.6-2-5.2-3.8-9.1-4.3,1.5-8,3-11.8,4.3,2,4.8,3.3,8.2,4.8,11.7h.3Z" fill="#f9f7e8"/>
          <path d="M1189.3,818.7c.8-1.1,1.8-2.2,3-3.9,4.8,12.3,9.3,24.3,14.1,36.6-8,7.1-19.3,7.4-28.6,11.3-.8-1.1-1.3-2.2-2-3.2,5-.9,10-1.7,14.3-2.4-3-6.3-5.8-11.7-8.5-17.1h2c2.3,3.7,4.8,7.1,7.3,11.3,2-.4,4.3-.6,7-1.3-1.3-4.5-2.3-8.2-3.5-12.3-1.3,1.5-2.3,2.4-4.3,4.5-1.5-5-2.8-8.9-4-12.8h2c.3-1.3.5-2.6,1-4.1v-6.5h.3Z" fill="#eceade"/>
          <path d="M982.3,664.3c-3.8-9.7-7.5-19.5-11.3-29.2-1.8-8-3.3-16.2-5-25.3,6.8-1.7,14.1-3.7,20.6-5.4,3.3,6.3,6.3,11.9,9,17.8,2.5-.4,5-1.1,7.5-1.5,3.5-7.1-.8-12.8-4.8-18.8,2-.4,4-1.1,6.5-1.7,1,1.5,1.8,2.8,3,4.8.8-1.9,1.5-3.9,2.3-6.1,17.8-4.3,35.6-8.9,54.4-13.4,5.5,14.9,10,30.5,17.6,45,4,12.8,8,25.5,12.5,38.3-21.8,3-39.9-4.1-58.2-12.3v4.1c-16.1,3-31.9,6.1-47.2,9.1-2.5-1.9-4.8-3.7-6.8-5.2h-.3ZM1016,630.3c-7.8-4.8-17.1,0-25.8,2.4v1.5c1.8.2,3.3.6,5,.9,3.3,6.9,6.8,13.9,10.3,21.2,4-1.5,7.3-2.8,10.8-4.1-2.3-6.5-4.3-12.3-6.3-17.5,2-1.5,3.8-3,5.8-4.5l.3.2ZM1077.2,637.2c-6.3-16.2-12.3-31.8-18.6-48.1-4.3,1.3-7.5,2.2-11.5,3.5,6,16.2,11.8,32,17.8,48.3,4.8-1.3,7.8-2.4,12.3-3.7h0Z" fill="#f0eee0"/>
          <path d="M1002.9,620.5c-2.5.4-5,1.1-7.5,1.5-1-4.5-2.3-8.9-3.5-13.9,1.5-.6,3.3-1.5,6-3,1.8,5.6,3.3,10.4,4.8,15.2l.3.2Z" fill="#fcfbec"/>
          <path d="M832.3,474.8c2.5-.6,4.5-1.3,7-1.9,5.5,14.9,10.8,29.4,16.3,44.2-1.8.9-3.3,1.7-6.5,3.2-5.8-15.4-11.3-30.3-16.8-45.5Z" fill="#fdfced"/>
          <path d="M1126.6,612.5c-12.8,3.5-24.8,6.7-38.4,10.4-5-13.4-9.5-26-14.6-39.8,13-3.7,25.3-7.1,38.4-10.8,5.3,14.5,9.8,27.1,14.6,40.3h0Z" fill="#f0eee0"/>
          <path d="M1032.3,722.5c-5.8-.6-9-1.3-12.8-1.7-5-8.7-10-17.3-15.6-26.6,2.3-1.3,3.8-2.2,5.3-3-1.3-2.4-2.5-4.8-3.8-7.1-2.3-1.3-4.5-2.6-6.8-4.1.3-.6.5-1.1.8-1.7h14.8c5.3,15.2,12.8,29.2,17.8,44.4h.3Z" fill="#eadaea"/>
          <path d="M1149.7,935.6c-2-2.6-4-5.2-6-7.8,14.1-6.3,26.8-12.1,40.1-18,2.5,1.5,4.8,3.2,7.3,4.8,1.3,2.4,2.8,4.5,4.8,8-5,10-10.5,21-16.8,32.9-4.8-.6-9.5-1.3-14.1-1.9,4.5-5.2-1-13.9-3-19.9-4.5.6-8.3,1.3-12.3,1.9h0Z" fill="#f9f7e8"/>
          <path d="M1164.8,724.5c4.8-.6,5.5,2.2,6.8,5,2.8,6.5,5.5,12.8,8.3,19.3,1,5,2.3,10,3.5,15.8-12.8,2.8-25.6,5.6-39.6,8.7-4.8-12.8-9.3-24.9-14.1-37.2,12.5-4.1,23.8-7.8,35.1-11.5ZM1163.5,755.9c-1.5-3.7-2.5-6.7-4-10-4.3,1.1-7.8,1.7-12.3,2.8,2,3.9,3.5,6.9,5,10.2,4-1.1,6.8-1.9,11-3h.3Z" fill="#f5f0d8"/>
          <path d="M897.5,630.3c1.3,4.1,2.3,8.2,3.5,13-1.3.9-3,1.7-5.5,3.2-2-5.4-3.8-10-6-15.4,3.3-.2,5.8-.4,8-.6h0v-.2Z" fill="#fdfced"/>
          <path d="M1033,545.8c5-.9,10.3-1.7,16.3-2.6,4,10.8,8,22.1,12.3,34.2-11,2.6-21.8,4.8-32.4,7.1v-4.8c2.5-1.5,5-3.2,7.5-4.8,1.8-.6,3.3-1.1,5.3-1.9-3-9.3-6-18.4-9-27.3h0Z" fill="#f0eee0"/>
          <path d="M1036.8,575.1c-2.5,1.5-5,3.2-7.5,4.8-2,1.7-4.3,3.5-8,6.9-4.5-12.1-8.5-22.3-12.5-33.6,7-1.9,13.8-3.7,21.6-5.6,3.5,9.1,9.3,18,6.8,27.5h-.3Z" fill="#e4e1d5"/>
          <path d="M1151.7,825.2c-12.3,5-23.8,5.4-34.1-3.7-.8-.6-1-1.9-1.5-2.8,4.5-.9,9-1.7,14.1-2.6,1.5-8.7-3.8-15.4-5.8-24.3-6,1.5-11,2.8-16.1,4.1-.8-2.2-1.5-4.3-2.5-7.4,10.8-2.4,20.3-4.3,31.4-6.7,5.3,14.5,10.5,28.6,14.6,43.3Z" fill="#f9f7e8"/>
          <path d="M1123.1,794.8c1.5,7.4,2.8,13.2,4.3,19.3-5,1.1-8.5,1.7-12.3,2.6-1.5-6.1-2.8-11.7-4.3-18.4,3.3-.9,6.8-1.9,12.5-3.2l-.3-.2Z" fill="#eae7da"/>
          <path d="M930.1,703.9c-3.3.9-5,1.3-7.5,1.9-4-6.7-7.8-13.4-7.8-23.2,11,5,9.5,14.5,15.3,21.2Z" fill="#fdfbec"/>
          <path d="M1193.1,947.1c3.8-6.7,7.3-13.4,11.5-21,15.6,6.7,38.9,12.8,50.4,24.3.5,2.6,1,5.2,1.5,7.8-18.3,12.1-45.9,12.1-68.3,0,1.5-3.7,3-7.4,4.8-11Z" fill="#f9f7e8"/>
          <path d="M1059.9,483.1c-2.3,1.1-4,1.9-6.8,3.2-5.5-14.9-10.8-29.2-16.3-44.4,1.5-1.1,3.3-2.4,6-4.5,6,15.6,11.3,30.1,17.3,45.7h-.3Z" fill="#fdfced"/>
          <path d="M982.1,276.3c-2.5,0-4.8-.2-7.8-.4-1.5-4.5-3-8.9-4.5-13.4,2-.6,3.5-1.3,6.3-2.4,2.3,5.8,4.3,11,6,16.5h0v-.2Z" fill="#fcfbed"/>
          <path d="M1000.1,471.6c4.5-.9,8.3-1.5,12.8-2.4.5,3.7,1,6.3,1.5,9.3-3.8,1.1-6.8,1.9-10.5,3-1.3-3.5-2.3-6.1-3.8-9.7v-.2Z" fill="#e6dec8"/>
          <path d="M1014.7,528.1c3.3-1.3,5.5-2.4,9-3.7-1.3-3-2.3-6.1-3.5-8.9h-9.8c-1-4,3.5-6.9,13.5-8.4,2.8,7.1,5.5,14.5,8,21.4-11.8,5.6-12.5,5.6-17.3,0v-.4Z" fill="#e6e2d3"/>
          <path d="M1121.3,672.9c2.5-.9,4-1.5,6.8-2.8,5.3,13.2,17.8,32,13,45.9h-3c-5.5-14.1-11-28.1-16.8-43.1Z" fill="#fdfced"/>
          <path d="M1201.9,903.5c4.5-2.2,8-3.7,11.5-5.2,1.5,4.1,2.8,8.4,4.5,13.4-3.8,1.1-7,2.2-11.5,3.5-1.8-4.3-3.3-8.2-4.8-11.7h.3Z" fill="#e3e0d3"/>
          <path d="M1183.6,839.9h-2c-1.8-6.1-3.8-12.1-5.8-18.6,4.5-1.9,7.8-5.6,13.3-2.4v6.5c-.8-1.9-1.8-3.9-2.5-5.8-3,.9-5.3,1.7-7.5,2.4,1.5,6.3,3,12.3,4.5,18.2v-.2Z" fill="#e0ddd0"/>
          <path d="M1199.4,897c-1.5-3.5-2.8-6.9-4.8-11.7,3.8-1.5,7.5-2.8,11.8-4.3,1.5,3.9,2.5,6.5,3.8,9.1-.5,0-.8.4-1.3.4-1.3-2.2-2.8-4.1-4.3-6.7-2,.9-3.8,1.7-5.3,2.6.5,3.7,1.3,6.9,1.8,10.4-.5,0-1,0-1.5.2h-.3Z" fill="#e2dfd2"/>
          <path d="M1183.6,839.9c-1.5-5.8-3-11.9-4.5-18.2,2.3-.6,4.5-1.5,7.5-2.4,1,2.2,1.8,3.9,2.5,5.8l-1,4.1h-2c1.3,3.9,2.5,7.8,4,12.8,2-2.2,2.8-3,4.3-4.5,1.3,4.1,2.3,8,3.5,12.3-2.8.4-5,.9-7,1.3-2.8-4.1-5-7.8-7.3-11.3h0Z" fill="#fcfbee"/>
          <path d="M1077.2,637.2c-4.5,1.3-7.5,2.2-12.3,3.7-6-16.2-11.8-31.8-17.8-48.3,4-1.3,7.3-2.2,11.5-3.5,6.3,16.2,12.3,31.8,18.6,48.1h0ZM1050.1,593.7c5.8,14.9,11,29.2,16.8,44.4,2.5-1.3,4-2.2,6.3-3.5-5.3-14.3-10.5-28.4-15.8-42.7-3,.6-4.8,1.1-7.5,1.7h.3Z" fill="#e0ddd0"/>
          <path d="M1016,630.3c-1.8,1.5-3.8,3-5.8,4.5,1.8,5.2,3.8,11,6.3,17.5-3.8,1.3-6.8,2.6-10.8,4.1-3.5-7.4-6.8-14.3-10.3-21.2,6.8-1.7,13.8-3.2,20.6-5h0ZM1001.4,637.9c1.5,5.2,3,10,4.5,15.4,2.5-.4,4.3-.9,5.8-1.1-.5-12.1-2.3-14.5-10.3-14.3Z" fill="#e3e0d4"/>
          <path d="M1016,630.3c-6.8,1.7-13.8,3.2-20.6,5-1.8-.2-3.3-.6-5-.9v-1.5c8.8-2.4,18.1-7.1,25.8-2.4l-.3-.2Z" fill="#fbfaf6"/>
          <path d="M1163.5,755.9c-4.3,1.1-7,1.9-11,3-1.5-3.2-3-6.1-5-10.2,4.5-1.1,7.8-1.7,12.3-2.8,1.3,3.2,2.5,6.1,4,10h-.3Z" fill="#e6ddc5"/>
          <path d="M1050.1,593.7c2.5-.6,4.5-1.1,7.5-1.7,5.3,14.3,10.5,28.4,15.8,42.7-2.3,1.3-4,2.2-6.3,3.5-5.8-15.2-11.3-29.4-16.8-44.4h-.3Z" fill="#fdfced"/>
          <path d="M1001.4,637.9c8-.2,9.8,2.2,10.3,14.3-1.5.2-3.3.6-5.8,1.1-1.5-5.4-3-10.2-4.5-15.4Z" fill="#fdfced"/>
        </g>
      </g>
    </g>
  </g>
</svg>