<?xml version="1.0" encoding="UTF-8"?>
<svg xmlns="http://www.w3.org/2000/svg" version="1.1" viewBox="0 0 1920 1080">
  <!-- Generator: Adobe Illustrator 28.7.8, SVG Export Plug-In . SVG Version: 1.2.0 Build 200)  -->
  <g>
    <g id="_Слой_1" data-name="Слой_1">
      <g>
        <path d="M1115.2,815.2h-473.2V264c46.5,0,92.9,0,139.4,0-1.9,7.5-4.9,14.7-7.4,22.1-22.1,66.4-41.9,133.4-62.7,200.2-10.2,32.8-20.5,65.6-30.7,98.5-10,32.5-19.7,64.9-24.4,98.7-4,29.3-3.6,64.7,16.1,88.8,9.1,11.1,21.7,19.5,34.4,26,14,7.2,29.2,12.1,45.1,11.8,16.6-.3,31.9-7.3,48.2-9.6,6.5-.9,12.3-1.8,17.4-6.3,5.3-4.5,8.8-11.1,11.6-17.3,6.7-14.5,9.4-30.4,15-45.2,5.6-15,12.9-29.3,22-42.5,17.3-25.3,39-51.3,66-66.6,6.2-3.5,12.9-6,20.2-5.4,8.6.8,15.9-1.2,23.9-4.4,14.7-5.9,28.3-14.8,41.5-23.5.3,0,.6,0,.8,0,.7-.7,1.5-1.4,2.2-2.1,9-3.8,17.2-10.6,25.4-16.1,8-5.4,15.8-11,24-15.9,14.8-8.9,31.4-14.9,47.9-20,16.6-5.1,33.6-9.6,50.8-11.9,36.1-4.8,72.3-2.2,108.4,1.6v174c-32,8.3-60.6,23.4-86.4,44-27.2,21.7-51.2,47.5-75.6,72.3Z" fill="#95d2f1"/>
        <path d="M1017.7,589.4c-13.2,8.6-26.8,17.6-41.5,23.5-8,3.2-15.3,5.1-23.9,4.4-7.2-.6-13.9,1.9-20.2,5.4-27,15.3-48.7,41.2-66,66.6-9,13.2-16.3,27.6-22,42.5-5.6,14.9-8.3,30.8-15,45.2-2.9,6.2-6.4,12.8-11.6,17.3-5.2,4.5-10.9,5.3-17.4,6.3-16.3,2.3-31.6,9.3-48.2,9.6-15.9.3-31.1-4.6-45.1-11.8-12.7-6.5-25.3-14.9-34.4-26-19.7-24.1-20.1-59.5-16.1-88.8,4.6-33.8,14.3-66.2,24.4-98.7,10.1-32.9,20.5-65.7,30.7-98.5,20.8-66.8,40.6-133.8,62.7-200.2,2.4-7.4,5.5-14.5,7.4-22.1,67.8,0,135.5,0,203.3,0-.3,8.7-3.3,17.8-5.1,26.3-1.9,8.8-3.7,17.6-5.6,26.4-3.7,17.4-7.4,34.8-11.1,52.3-7.3,34.5-14.7,68.9-21.9,103.4,7.1,1.5,14.1,3,21.1,4.6,2.9-8,4-17,5.7-25.3,1.8-8.6,3.6-17.2,5.4-25.8,3.8-18.2,7.7-36.4,11.6-54.6,7.6-35.7,15.5-71.3,22.3-107.2,12.8,0,25.5,0,38.3,0-1.5,9.7-3,19.3-4.5,29-.9,5.6-2,11.2-3,16.8-5.6-.9-11.1-1.9-17.3-2.9-2.5,16.5-4.9,32.7-7.4,49.4,5.6,1.4,11.4,2.1,17.2,3.1-.8,5.9-1.5,11.9-2.3,17.7-2.1.4-3.6.7-5.2,1.1-3.3,2.1-5,5.2-5.9,8.9,0-.5,0-1-.1-1.4v-5.7h-4.3c-.4,4.2-.7,8.1-1,12.5h4.6c-2.5,9-2.1,18.4-2.9,27.6-.7,8.3-.6,16.6-.9,24.9h-17.6c.3.5.6,1.2.6,1.1-2.9,8.3-3.2,16.2-3.5,25-.3,9-1.1,17.9-2,26.8-3,1.6-5.2,2.8-7.5,4-8.6,8.4-17.1,16.8-25.7,25.3.2.3.5.6.7.8.3-.2.7-.4,1-.6,1.5-1,3-2,4.4-3,.9-.5,2-.9,2.8-1.7,6.4-6.2,12.7-12.4,19-18.6,1.5-.8,2.9-1.6,4.8-2.7.7,2.9,1.3,5.2,1.8,7.4h8.4c.9,9.6,1.7,19,2.6,29,3.3-.3,6.3-.5,9.3-.8,0,1,0,2,0,3,0,.8-.1,1.7-.2,2.6-1.2.4-2.3.7-3.6,1.1.1,1.3.2,2.5.3,3.4,1.7.5,3,.9,4.3,1.2.2,1.3.3,2.7.5,4,.6,4.4,1.2,8.8,1.8,13.2,1,8,2,16,3,23.9ZM676.4,737.3c1.4,4.2,2.7,8.4,4.2,12.6,0,.2.7,0,1.1.1,3.4,2.5,6.6,5.3,10.2,7.4,5,3,10.2,5.6,15.3,8.3,5.2,3.2,10.5,6.5,15.7,9.7,2.9,3.6,7.3,4.3,11.3,6-.4.8,8.1,1.3,9.3,1.4,5.6-1.9,11.2-5.7,16.2-10.3,2.9-.3,5.9-.5,8.8-.9,2.2-.3,4.8-2.2,5.4-3.7,1.3-1.2,2.5-2.5,3.8-3.7,6-4.7,12-9.5,18-14.2,1.7-1.1,3.7-1.9,5.2-3.3,2.5-2.5,4.6-5.3,6.9-7.9.2-.2.5-.5.7-.7.7-.5,1.5-1,2.2-1.5,1.4.8,4.9-3.9,6.1-5.1,1.9-1.9,5.7-4.1,5.2-6.9l5.2-6.7c.2-.2.5-.5.7-.7,2-1.9,4-3.9,6.1-5.8-.2-.2-.4-.4-.5-.5-.4.1-.7.2-1.1.3-13.7-2-26.6-4.1-40.5-3-2-1-4-2-6.1-2.9-.1.2-.2.5-.3.7,1.8,1,3.6,2.1,5.5,3.2-2.6,4.3-5.1,8.8-7.9,13-2.6,3.9-6.6,5.8-9.2,9.3h0c-2.5.6-4.3,2.1-5.3,4.5-.3.3-.5.5-.8.8-.2,0-.5,0-.7,0-1.8-1.4-2.4.6-3.1,1.4-2.1,2.2-4.5,3.4-7.4,3.9-1.4-2.4-2.8-4.8-4.3-7.3.7-.6,1.2-1,1.8-1.4,1.2,1.5,2.3,2.7,3.3,4l.7-.6c-1.2-1.5-2.3-3-3.7-4.8-1.6,1-3,1.9-4.6,2.9-7.5-6.3-13.1-15-18.9-22.8-6-8.1-10.4-16.4-14.7-25.5-.2-1.1-.4-2.1-.7-3.5,4.2-.6,8.2-1.1,12.7-1.7.4,6,.7,11.8,1.1,18.2,5.2,2.8,10.8,5.7,16.7,8.8,1.7-5.8,3.4-11.2,5.1-16.9,1.5,1.1,2.4,1.8,3.3,2.4,0-.2,0-.5,0-.7,1.3-.2,2.5-.5,3.8-.7,4,1.9,8,3.8,11.8,5.5,1.3,1.5,2.5,2.9,3.9,4.6,1.8-1.7,3.1-2.9,4.5-4.1,7.3-8.5,14.7-17,21.6-26-14.2-13-28-25.5-41.6-38-4.9,2.2-9.3,4.3-13.7,6.3-3.1-5.5-6.2-11.1-9.3-16.6-3.9,1.8-7.3,3.3-10.5,4.8-1.4-1.1-2.4-1.8-3.4-2.5-.7-.4-1.5-.9-2.2-1.3,0-7.7-.2-15.3-.7-22.9-.2-3.7-.4-7.5.6-11.1.8-3.1,2.2-5,2.3-8.2.7-1.5,1.5-3,2.2-4.5,1,.2,5.8-21.2,4.6-23.5-4.1,0-4.5,12.2-5.1,15-.8,3.7-1.6,7.5-3,11.1-1,2.6-3,5.2-3.2,7.9h0c-4.5,6-1.8,17-1.3,23.9.2,3.2,1.4,7.9.2,11-1,2.6-3.9,3.7-5.7,5.6-2.2,2.2-4.5,4.5-6.7,6.7-2.8,1.2-3,3.6-3,6.1,0,9.7,0,19.5,0,29.2-.4,1.6-.8,3.3-1.2,4.8-3.1.4-5.8.8-8.5,1.2-5.6,1-5.2,10.6-5.7,14.7-1.3.7-3,1.6-4.8,2.5,0-2-.8-2.7-2.7-1.8-.9,2.6,1,3.2,2.7,4,0,0,0,0,0,0-.5.7-1,1.5-1.5,2.2-.7.7-1.5,1.5-2.2,2.3-.4,0-1,0-1.1.1-3.5,5.6-4.5,11.6-1.9,17.9h0c.3,3.3.4,6.6,1,9.9.4,2.7,1.3,5.4,2,8.1ZM849,683.3c2-6.2,4-12.4,5.9-18.7.1-.4-.4-1.1-.7-1.6.3-.8.6-1.6.9-2.4,1.7-5.2,3.4-10.4,5.1-15.6.3.3,7.7-12,6.8-14.2l1.5-2.3c3-.9,8.2-12,7.5-15,1.7-3,3.5-6,5.5-9.6-1.4.7-2,1-2.7,1.3-2-1.8-3.9-3.5-5.8-5.2l-5.8-9.6c-.4.3-.7.5-1.1.8,2.3,2.9,4.6,5.9,6.9,8.8,0,.3,0,.5,0,.8.6,2.7,2,4,3.9,6-2.1,4.7-4.1,9.1-6.1,13.5,0,0,0,0,0,0-4.3,2.8-7,11-7.5,15.8-7.5,13.7-10.9,30.1-15.7,45-.8-.6-3.5,7.7-4,9.2-.8,2.2-4,8.3-2.8,10.2.7-.5,1.5-1,2.2-1.5.5-.1,1.3-.2,1.3-.5,1.6-5.1,3.1-10.2,4.7-15.3ZM913.5,571.5v-1.5c-5,1.4-8.9,6.8-12.7,10.4-4.1,3.9-8.5,7.8-12.1,12.2.3.3.7.6,1,.8,2.2-2.1,4.3-4.1,6.5-6.2.1.4.3.9.5,1.4,3.6-1.5,6.8-6.1,9.7-8.9,1.9-1.9,7-5.5,7.1-8.2ZM836.2,537c-1,2.6-2.2,5.2-2.9,7.9-.8,3.3-.1,5.6,1.4,7.1,6.7,8.5,9.7,19.1,18,26.3.6-3.1-6.8-14.1-9.8-15-.7-1.5-1.5-3-2.2-4.4-1.8-4.8-5.1-9-5.2-14.3.5-1,1-2,1.4-3,1.2.9,2.8-11.6,2.5-13.3-.9-5.7-3.4-11-6.2-16-.7-.2-1.3-.3-2.9-.7,2.9,8.9,7.4,16.6,5.9,25.5ZM951,574.5c-1.4,1.1-2.8,2.3-4.6,3.6,1.1,2.1,2.2,4.3,3.2,6.5.8,0,1.5.2,2.2.2,1,1.7,1.9,3.2,3,5,2.6-1.5,4.9-2.9,7.3-4.3-.9-1.8-1.7-3.4-2.5-4.9h-2.4c-1.2-1.9-2.4-3.9-3.7-6-.8,0-1.7,0-2.5-.1,1.2-.7,2.5-1.4,4.1-2.3-2.4-5.9-4.7-11.7-7.2-17.6-1.9.8-3.2,1.2-4.7,1.8,1.1,3.2,2,6,2.9,8.8-1.9.9-3.4,1.6-5.2,2.5.7,1.3,1.2,2.2,1.7,3.1,1.9-.5,3.5-.9,4.9-1.3,1.3,1.9,2.4,3.5,3.5,5ZM976.7,599.1c6.3-3.1,11.9-5.9,17.7-8.8-3.4-7.2-6.5-13.9-9.8-20.9,3.6-1.9,7-3.7,10.6-5.5-1-1.9-1.8-3.5-3-5.8-6.4,3.2-12.6,6.2-19.4,9.6,2.4,3.5,4.5,6.4,6.8,9.7-3.8,1.9-7.1,3.6-10.6,5.4,2.6,5.5,5,10.6,7.8,16.3ZM902.3,626.4c-6.9-5.5-13.5-10.8-20.5-16.4-1.8,2.3-3.2,4.2-5,6.6,6.9,5.5,13.5,10.8,20.3,16.2,1.9-2.3,3.4-4.1,5.3-6.4ZM936,582.7c4.9,10.7,9.6,20.9,14.4,31.3,2.1-1.1,3.6-1.8,5.3-2.6-4.8-10.5-9.5-20.6-14.2-30.9-1.8.7-3.3,1.3-5.6,2.2ZM958.9,553.6c1.3,2.4,2.3,4.2,3.4,6.2,8.8-4.3,17.2-8.5,25.9-12.7-1.1-2.2-2-3.9-3.1-6-8.8,4.2-17.3,8.2-26.2,12.5ZM981.2,514c3.9,8.5,7.6,16.4,11.4,24.6,2.3-1.1,4.2-2,6.5-3.1-3.9-8.3-7.5-16.1-11.4-24.4-2.2.9-4.1,1.8-6.5,2.8ZM692.9,658.4c1.1-.5,2-.9,3.2-1.3-.5-3.5-1-7-1.5-10.4-2.8.4-5,.7-7.7,1,.8,6.5.8,12.9,2.5,19.3,1.7-.3,2.8-.6,3.8-.8-.1-2.9-.3-5.4-.4-7.8ZM812.4,743.5c-6.5,6.5-12.5,12.5-19.2,19.2.4.4,1.2,1.3,2.1,2.1,6.9-6.6,13.1-12.4,19.6-18.6-1.2-1.3-2.1-2.2-2.5-2.7ZM714.6,554v8.3c.2,0,.3,0,.5,0-.1,1.4-.3,2.9-.5,4.5,1.5.3,2.7.5,4.1.7-.1-4.5,5.6-6.7,3.8-11.8-.6-.7-1.4-1.6-2.6-3-1.6.4-3.3.8-5.4,1.4ZM765.5,711.2c-.1.1-.2.2-.3.3-1.8-1.5-3.5-3.1-5.5-4.9-1.3,1.1-2.5,2.2-4.1,3.6,2.3,2.1,4.3,3.8,6.4,5.7-.6,1-1,1.9-1.6,2.9,1,1,2,1.8,3.2,3,1.9-2.3,3.5-4.2,5.1-6.2-1.2-1.6-2.2-3-3.2-4.4ZM788.9,775.3c3.7,3,7.1,5.7,10.7,8.5,1.2-1.5,2.2-2.8,3.5-4.4-3.5-2.8-6.9-5.6-10.7-8.6-1.2,1.5-2.2,2.9-3.5,4.5ZM1004,558.4c1.4,4.9,2.6,9.3,3.9,13.9,1.7-.5,2.9-.9,4.8-1.6-1.3-4.8-2.6-9.3-3.9-14.1-1.8.7-3.1,1.2-4.8,1.8ZM974.6,600.1c-2.2-4-4.1-7.7-6.3-11.6-1.4.5-2.6.9-4.4,1.6,1.5,3.1,2.9,5.9,3.9,7.9.2,2.1.3,3.5.4,5.4,2.6-1.3,4.3-2.2,6.4-3.2ZM884.4,629.1c-1.5,1.9-2.7,3.3-4.2,5.1,3.1,2.4,5.8,4.4,8.6,6.5,1.5-1.7,2.7-2.9,4.2-4.6-2.9-2.4-5.5-4.5-8.6-7ZM751.1,694.1c-1.3,5.4-3.6,10.3-3.3,16.1,1.3,0,2.3-.2,3.3-.2,1.2-5.1,2.3-10,3.4-15-1.4-.4-2.3-.6-3.5-.9ZM1000.8,583.1c-1.1-4.5-2-8.8-3.1-13.3-1.8.7-2.9,1.1-4.2,1.6,1,4.3,1.9,8.3,2.9,12.6,1.4-.3,2.5-.5,4.4-.8ZM901.9,618.2c2.6,2,4.8,3.6,7.2,5.4,1-1.2,1.7-2.1,2.3-3-1-1.4-1.8-2.5-2.5-3.5.5-1.2,1-2.1,1.6-3.4-1.2-.6-2.3-1.2-3.5-1.8-1.7,2.1-3.2,4.1-5,6.3ZM808.4,758.9c-2.3,3.6-4.5,6.9-6.8,10.4,1.4.9,2.4,1.6,3.9,2.5,2.3-3.7,4.3-7,6.4-10.4-1.3-.9-2.1-1.5-3.5-2.6ZM773.1,781c-1.2,1.8-2.1,3-3.2,4.6,2.5,1.5,4.6,2.7,7.1,4.2.9-1.8,1.6-3.1,2.4-4.6-2.2-1.5-4-2.7-6.3-4.2ZM784.9,775.2c2.8-2.2,4.9-4,8.1-6.5-1.2-1.2-2.1-2-3.4-3.2-2.9,2.5-5.1,4.4-7.3,6.3,1,1.2,1.7,2.1,2.6,3.4ZM781.8,778.7c2.6,2,4.8,3.7,7.3,5.5,1.2-1.7,2.1-3,3.3-4.7-2.9-1-5.4-1.9-8.3-2.9-.4.4-1.1,1-2.2,2.1ZM955.7,572.1c1.5,2.7,2.9,5.1,4.4,7.8,1.4-1,2.4-1.8,3.5-2.6-1.5-2.6-2.8-4.8-4.3-7.4-1.1.7-2.2,1.3-3.6,2.1ZM803.3,792.6c2.2-1.7,4.1-3.2,6.2-4.9-1-1.4-1.6-2.4-2.5-3.6-2.2,1.8-4.1,3.3-6.1,5,.8,1.2,1.4,2,2.4,3.5ZM798.9,788.2c-2.8.7-4.9,1.2-7.2,1.8.4,1.7.7,2.9,1,4.3,2.6-.6,4.6-1.2,6.9-1.7-.3-1.6-.4-2.8-.7-4.4ZM823,695.2c-2,1.8-3.7,3.3-5.5,4.9,1,1,1.9,1.8,2.6,2.4,1.9-1.5,3.6-2.9,5.5-4.3-1.2-1.4-1.9-2.2-2.7-3ZM819.2,766.8c.9-1.2,1.5-2.1,2.4-3.4-1.7-1.2-3.1-2.1-4.8-3.3-1,1.2-1.8,2.2-2.9,3.6,1.9,1.1,3.4,2,5.3,3.1ZM676.7,674.2c1-.1,1.7-.2,2.5-.3v-6.4c-1.4,0-2.5.1-4.6.2.8,2.5,1.4,4.4,2.1,6.4ZM788.3,696.9c-.6.9-1.2,1.7-2.2,2.9,1.7,1.2,3.2,2.2,4.9,3.4,1-1.1,1.7-2,2.7-3-2-1.2-3.6-2.2-5.4-3.3ZM767.9,777.7c-1.9-1-3.8-1.9-6.1-3.1-.9,2.1-1.6,3.8-2.4,5.6,2.3,1.2,4.1,2,6.1,3,.8-1.9,1.5-3.4,2.5-5.5ZM876.6,641.9c-2.2-1.6-3.7-2.7-5.7-4.1-.7,1-1.3,1.7-2.2,2.9,2.8.4,4.2,4.1,7.9,1.2ZM902.8,612.1c-2.1-1.3-3.7-2.2-5.3-3.2-1.6,3.2-1.2,3.8,3.3,5.3.5-.5,1-1.1,2-2.2ZM809.6,778.4c1,.9,1.8,1.7,2.8,2.6.9-1.1,1.6-1.9,2.5-3-1.1-1-2.1-1.9-3.2-2.9-.8,1.3-1.3,2.1-2.1,3.3ZM880,631.8c1-1.5,1.8-2.5,2.7-3.8-1-.7-1.7-1.2-2.6-1.9-.9,1.3-1.7,2.4-2.5,3.5.8.7,1.4,1.3,2.5,2.2ZM792.7,693.5c-.3.4-.7.8-1,1.3,1.8,2.1,1.9,2.5,4.7,1.7,0-.4,0-.8,0-1.1-1.3-.6-2.5-1.2-3.8-1.8ZM1001.6,539.2c.8,1.6,1.4,2.6,1.9,3.6,2.3-1.6,2.7-2.9,1.3-4.3-.7.1-1.6.3-3.2.7ZM862.2,587.3c.2-.2.5-.5.7-.7l-8.7-6.7c-.2.2-.4.5-.6.7l8.6,6.7ZM940.2,545.3s0,0,.1,0c-2.3,2.3-4.5,4.7-6.8,7,.1.1.2.2.3.3l6.4-7.4ZM952.7,548.4c-.4,2.2-.6,3.9,2.4,3.3v-3.3h-2.4ZM924.7,560.8c0,0-.1-.2-.2-.2,2.1-2.5,4.3-4.9,6.4-7.4.2.2.4.4.6.6-2.3,2.3-4.5,4.7-6.8,7Z" fill="#faf8e8"/>
        <path d="M1048.5,264c76.2,0,152.4,0,228.8,0v177.7c-8,.9-15.5,2.5-23.6,1.3-7.6-1.1-15.2-1.9-22.9-2.8-6.3-1.9-14-1.2-20.6-1.4-6.6-.3-13.1-.5-19.6-1.1-13.5-1.2-26.8-2.9-40.1-5.2-.4-7.7-.8-15.4-1-23-.2-5.4,1.6-16.9-3.5-20.2-.6-.9-1-1.9-1.7-2.6-.5-.5-1.3-.8-2-1.1.5,2.9,1.5,4.8,3,7.3-1.3.4-2.1.6-3,.9,0,0,0,0,0,0-1.6,5.2-.5,10.5-.6,16.1,1.4,0,2.3.1,3.7.2v-11.8c.1,0,.2,0,.3,0v12.2c-1.9.5-3.4.9-4.9,1.2-2.5-.6-1.4-2.6-1.5-4-.3-19.8-.5-39.6-.8-59.5,0-.7-.2-1.4-.3-2.5h-25.9c-2.7,0-5.5,0-8.2,0,.2-9.3.5-18.6.8-27.9,0-.7.2-1.5.4-2.2,1.1-6.1-.4-11.2-8.2-10.5-4,.4-8,.3-11.3-2.6-.2-.1-.8.3-1.2.4-1-.5-2-1-3-1.5-3.2-2.7-6.5-5.5-9.7-8.2-1-1.5-2-3-3-4.5-.3-4.5-19.6-1.6-23.3-1.6.7-7.8,1.9-15.5,3.1-23.2Z" fill="#faf8e8"/>
        <path d="M1277.2,525c-36-3.8-72.3-6.4-108.4-1.6-17.3,2.3-34.2,6.8-50.8,11.9-16.5,5.1-33.1,11.1-47.9,20-8.3,4.9-16.1,10.6-24,15.9-8.2,5.5-16.3,12.3-25.4,16.1-.4-1-.8-2-1.3-3,.2,0,.4,0,.5,0-.3-1.9-.7-3.9-1-5.8,0,0,0,0,.1,0-.3-3.3-.5-6.7-.8-9.9-.5-1.3-.9-2.5-1.3-3.8.4-1.6.8-3.3,1.2-5.1,3.8-1,7.7-2.1,11.5-3.2,2.5-.7,5-1.5,7.5-2.2.8,1.2,1.5,2.4,2.5,4,3.9-1.3,7.7-2.6,11.8-4-.3-1.9-.5-3.3-.7-4.5,1-1.1,1.9-2.1,2.8-3.1,1-2,2-4,3-6,1.2.7-.6-15.4-.9-17.3-1.1-6.5-1.9-12.9-1.9-19.5,2.7-.8,5-1.5,7.3-2.2h0c3.1.5,1.5,13.3,1.5,15.8,1.8,0,3-.1,4-.2v-16.8c.3.5.7.9,1,1.4,1.2-2.1,2.4-4.2,3.3-5.7,2.2-.5,3.8-.8,5.5-1.1,0-.2,0-.3,0-.5-2,.1-4,.2-6.1.3,1.5-10.5,1.1-21.5,1.4-32.1.7-1,1.5-2,2.2-3,1.1,0,2.1-.2,3.4-.3.1-2.8.2-5.1.4-7.7-1.3-.1-2.2-.2-3-.3.3-.2.5-.5.8-.7,1.2,0,2.4.2,3.8.3-.3,12.4-.7,24.4-1,36.5,1.9-7.3-.7-15.2,2.9-22.5-1.5-1.3-2-7.9-.6-14.2h15.1c0-.3,0-.6,0-.9h-11.1v-12.6h6.3c0-.4,0-.8,0-1.2h-6.1c0-.9-.1-1.8-.2-2.6,4.1.4,8.2.7,12.3,1.1.2-.4.4-.8.5-1.3-3.3-3.1-7.7-2.5-12.1-2.8-.3-1.3-.7-2.6-.7-3.9,0-11.5,0-22.9,0-34.4,4.9.3,9.8.6,14.6,1v11.8c2.9,0,9.4-1.1,10.9,2.3,0,13.5.7,27.1-1.2,40.5,2.6,13.2-.4,28.6,6.4,40.4,3.4,7,5.2,9.6,13.3,10.8,1.4,2,2.7,3.9,4,5.7-2.1.5-4.2.9-6.5,1.4-.1,1.9-.2,3.6-.3,5.3-1.4.2-2.6.3-4,.5v9.8c2.2-.8,3.7-1.3,5.2-1.8,0-.1,0-.3-.1-.4h7.3v-12.5h10.9c.4,1.6.8,3.4,1.2,4.9,4.7.5,61.1-9.4,63.9-11.3-1.7-9.8-3.4-19.9-5.3-30.7-7.8,1.4-15.3,2.7-22.8,4-11.3-.3-22.4,1.9-33.6,3-11,1.1-22,2.2-33,2.9-1.2-13.8-2.9-27.2-2.2-41,10-2.3,19.7-4.3,30-3.8,10.7.4,21.3,2.8,31.8,4.2,10.8,1.5,21.5,2.2,32.4,2.6,9.5.3,20.3-.5,29.5,2.4,0,11.1,1.1,21.8,1.9,32.9.8,10.8.3,21.8.3,32.7.3,0,.6,0,.9,0v-13.2h7.1c.8,4.6-.4,9.1,1.4,13.2.4-1.2.8-2.5,1.1-3.7,3.8,1.1,7.9.2,11.9-.1.2-1.3.5-3.1.8-5-4.2-2-8.2-1.8-12.7,0v4.4c-2.6-1.8-1.3-4.1-1.2-6.2,4.7-1.7,10,1.5,14.2-2.5-.8-1.9.9-4.5-2.4-5.5-.5.7-1,1.3-1.5,2-.6-.3-1.2-.5-1.9-.9.4,1.9.7,3.6,1.1,5.4h-9.6v-6.2c1-.2,1.9-.4,3.3-.7-1.4-.3-2.4-.5-3.6-.8v-13.1c-.3,0-.6,0-.8,0v18.5h-7.1v-20.8c1.1-.4,2-.7,2-.7-1.9-9.7-1.5-19.3-2.4-29.3,12.6,1.1,25,2.4,37.6,2.4v78ZM1128,475.5c2.8,1.4,5.7.7,8.1.4,2.1-2.8-.9-3.5-1.4-5.2.2-.6.5-1.3.8-2h10.1v-7.7c-3.8.7-7,1.3-10.3,2-.5-2.2-1-4.6-1.6-7.3.5-.4,1.3-1,2-1.5-.1-2.3-.2-4.1-.4-6.1h-5c.1,1.9,2,8.9-.7,9.4-.4,1.9-.8,3.7-1.3,5.8-2.9.2-5.8.3-8.9.5v5.7h9.8c-.9,2.2-1.2,3.5-1.1,6ZM1089.7,537c-.9-2.6-1.8-5.2-2.8-8.1-1.5.5-2.6.8-4.3,1.4.8,3.2,1.5,6,2.4,9.8,2.1-1.4,3.4-2.3,4.7-3.2,1.2-.2,2.4-.5,3.8-.8-.7-2.2-1.3-3.6-3.8-2.4,0,1,0,2.1,0,3.2ZM1061.5,549.2c7-2.1,13.4-4,20.2-6.1-.8-2.1-1.5-3.7-2.3-5.8-4.6,1.8-9.7,1.6-13.4,5.4-1.7.5-3.4,1.1-5.7,1.8.4,1.7.7,3.1,1.1,4.8ZM1120.1,499.4c-2.9.5-5.2.9-8.1,1.5.9,5.5,1.7,10.7,2.5,16.1,1.8-.3,3-.5,4.6-.7-.5-3.8-1-7.3-1.5-10.7,1-.7,1.9-1.3,3-2-.1-1.2-.2-2.2-.4-4.2ZM1098.4,501.3c-4.7.6-9.1,1.2-13.9,1.8.1,1.8.2,3.4.3,5h13.6v-6.8ZM1102.9,497v-17c-1.4,0-2.6.1-4.2.2-.3,5.7-.6,11.2-.9,16.8h5ZM1080.4,527v-10.9c-2,0-3.6.2-5.6.3.4,3.9.7,7.3,1.1,10.9,1.6,0,2.9-.2,4.6-.2ZM1074.8,530.1c-3.9,1.1-7.2,2.1-11,3.2.7,1.9,1.2,3.2,1.7,4.6,3.8-1.2,7.1-2.3,10.6-3.4-.5-1.7-.9-2.8-1.3-4.4ZM1083.3,461.7c2.2-.7,4-1.3,6.3-2-.1-1.4-.2-2.7-.3-4.1h-8.3v5.2c.9.3,1.8.7,2.3.9ZM1101.9,529q1.7-1.9-.5-3.9c-1.3,2.5-2.6,4.9-3.9,7.4.3,1.1.6,2.3,1,3.8,1.5-.1,2.9-.2,5.2-.4-.6-2.5-1.1-4.4-1.7-6.9ZM1092.2,460.8c-.4,5.7-.7,11-1.1,16.8,1.9-.1,3.1-.2,4.4-.3.3-5.7.7-10.9,1-16.4h-4.3ZM1078.7,511.9c.3-4.6.5-8.7.7-13h-6.2c.7,4.4,1.4,8.6,2.1,13h3.4ZM1102.2,458v-7.3c-1.4.1-2.6.3-3.8.4v6.9h3.8ZM1242.4,487.9v6.8h3.8v-6.8h-3.8ZM1103,440.2v-8.5c-1,0-2-.2-3.2-.3v8.1c.9.2,1.8.3,3.2.6ZM1242.3,509.2c1-.1,1.7-.2,2.5-.2v-8.7c-1.3.2-2.2.4-3.1.5-.8,2.7.2,5.7.6,8.4ZM1251.5,476.9c1.7-1.9,4.8-6.5.7-8.1-2.3,1.7-2.6,3.3-.7,8.1ZM1152.8,468.4c.1,1.1.2,2.1.3,3.6,2.1-.4,3.8-.8,6-1.2-.6-1.6-1-2.6-1.4-3.7-1.9.5-3.3.8-4.9,1.3ZM1262.7,481c.5-2,.8-3.5,1.2-5.4-1.3-.4-2.2-.7-3.6-1.1-.4,2-.8,3.6-1.2,5.4,1.3.4,2.2.6,3.6,1.1ZM1262,490.1v-5.2c-1.2-.1-2.1-.2-3.3-.4v5.7c1.1,0,2-.1,3.3-.2ZM1091.9,443.5h-5.6v3.3h5c.2-1,.3-1.9.6-3.3ZM1235,505.9c.2-2.6.7-4.4-2.6-4.9-.7,3.5-.5,3.4,2.6,4.9ZM1137.5,513.6c.3.4.7.7,1,1.1,1.1-.5,2.1-.9,3.2-1.4,0-.3,0-.7,0-1-2.7-1.5-2.6-1.2-4.2,1.3ZM1101.9,517.3c1,0,1.8-.1,2.7-.2,0-1.2-.1-2.1-.2-3.2-1,0-1.8.1-2.7.2,0,1.2.1,2.1.2,3.2Z" fill="#faf8e8"/>
        <path d="M1115.2,815.2c24.4-24.7,48.4-50.6,75.6-72.3,25.9-20.6,54.4-35.7,86.4-44v116.2h-162Z" fill="#faf8e8"/>
        <path d="M1007.2,264c-6.8,35.9-14.7,71.5-22.3,107.2-3.9,18.2-7.7,36.4-11.6,54.6-1.8,8.6-3.6,17.2-5.4,25.8-1.8,8.3-2.9,17.3-5.7,25.3-7.1-1.5-14-3-21.1-4.6,7.3-34.5,14.6-68.9,21.9-103.4,3.7-17.4,7.4-34.9,11.1-52.3,1.9-8.8,3.7-17.6,5.6-26.4,1.8-8.6,4.8-17.6,5.1-26.3,7.5,0,15,0,22.5,0Z" fill="#fefefe"/>
        <path d="M1017,564.7c.4,1.2.9,2.5,1.3,3.8.3,3.2.5,6.6.8,9.9,0,0,0,0-.1,0,.3,1.9.7,3.9,1,5.8-.2,0-.4,0-.5,0,.4,1,.8,2,1.3,3-.7.7-1.5,1.4-2.2,2.1-.5-5.2-1-10.4-1.7-15.5-.3-2.8-.9-5.6-1.4-8.4.2-6.2-1.2-12.1-3-18-.3-2.5-.5-5-.8-7.5,0-1,0-2,0-3-.4-6.7-.7-13.4-1-20.1-.2-4.9.9-12.3-.9-16.9-4.9.2-9.8.5-14.7.7-3.1.1-8.4-.7-10.4,2.4-.6.2-1.3.3-1.7.7-6.7,6.8-13.4,13.6-20.1,20.4-1.5,1-3,2-4.4,3,1-1.1,1.9-2.3,3-3.3,7.3-7.4,14.5-14.8,21.8-22.2,5.1-2.3,10.4-3,16.1-2.4,2.8.3,5.7-.8,8.6-1.3.7-.1,1.4-.3,2.2-.5.5-11,1-21.8,1.5-32.5,0-.2,0-.5,0-.7,3.4.4.6,16.9.4,19.7-.4,7.4-.3,14.8,0,22.3.6,15,.6,30.4,3.3,45.1.3,2,.7,3.9,1,5.8,11.1-1.4,20.9-4.8,30.6-8.6,7.1-2.7,9.7-7.9,7.5-16.8-1.2-9.5-1-20.1-3.8-29.2-3.4-.7-6.8-1.4-9.7-1.9-1-5.8-2-11.3-3-16.8,0-7.2,0-14.5,0-21.7,1.2-6.7.6-13.5,1.2-20.3.6-6.7,1.4-13.3,1.7-20,.5-13.4.9-27.4-.3-40.8-4-.2-18.1-3.3-19.1,2.4-1.2,5.5-2.4,11-3.7,16.5-2,14.2-2.2,28.5-2.3,42.8-.2,1-.5,2-.7,3,0,.7,0,1.5,0,2.2,0,2,0,4,0,6-2.9-5.8-.7-14.9-.5-21.4.2-6.6.5-13.3.8-19.9.3-6.4,1-12.6,1.9-18.8.8-5.4,1.8-10.9,6-14.8,1.9-.3,3.9-.7,5.8-1,5.8-38.1,11.6-75.9,17.4-113.8.5,0,1,0,1.5,0-1.2,7.8-2.4,15.6-3.7,24.1,7.2-.3,18.2-3.1,24.7.7,1,1.5,2,3,3,4.5-1.8-1.5-3.5-3-5.3-4.5-7.3.3-16.1-.7-22.9,2-1.7,11.3-3.3,22.6-4.9,33.9-3.1,17.8-6.5,35.7-8.2,53.6,3.1.4,5.7.8,8.3,1.1,8.7,0,17.5,0,26.2,0,2.3.2,4.5.5,6.8.7,9.1.6,18.2,1.1,27.4,1.7,2.7-11.6,1.5-24.4,2-36.2.2-6.3.5-12.7.7-19,.2-5.6,2.1-13.6-.9-18.5h0c-1.4-.2-2.8-.7-4.2-.7-3.7,0-7.4.2-10.8-1.6-1.5-1.5-3-3-4.5-4.5,1,.5,2,1,3,1.5,6.4,6,17.1-1.2,20.1,8.5-1.9,11.5-1.4,23.7-1.7,35.4-.3,11.6-.9,23.1-.9,34.7,4.2,1.2,7.9,2.2,11.7,3.3,0,5,0,10,0,15-.5,3.8-1.3,7.5-1.4,11.3-.2,5.5,0,10.9,0,16.4.3,2.9-.8,6.1,1,9.2,2-.6,3.9-1.1,5.7-1.6,4.7-.1,9.2-1.7,13.9-2.1,4.9-.4,9.7,0,14.6-.5,0-8.3-.6-16.5-.7-24.7,0-7.7.3-15.6-4.6-22.1.7.4,1.5.6,2,1.1.7.8,1.2,1.7,1.7,2.6,1.6,7.5,2.4,14.4,2.6,22.1.2,7.3-.1,14.7,1.3,21.9,26.8,5.2,53.6,6.2,80.8,7.7,7.9,1,15.7,1.9,23.6,3,8,1.1,15-.2,22.9-1.5v3.7c-3.3-.2-6.5-.9-9.9-.6-3.2.3-6.1.6-9.2.3-6.4-.6-12.8-1.7-19.1-2.6,0,5.1,0,10.2.4,15.3.2,2.7.1,5.3.5,7.9.3,2.1,1,4.2,0,6.2-.3,0-.6,0-.9,0-.6-9.7-1.3-19.5-1.9-29.4-10-2.3-20.8-2.3-31.1-2.8-10.7-.5-21.3-1.1-32-2.4-11-1.3-22.1-3.6-33.2-4-10.1-.4-19.5,1.9-29.3,4.1.8,13.8.1,28.7,3.2,42.2,13.7,0,27.4-1.8,41-3.5,6.7-.8,13.5-2.3,20.2-2.8,6.7-.5,8,4.9,10.5,10.2.6,2.5,2.4,4.9.8,8.4-1.4-6.6-3.3-12.5-7.3-17.7-1.5.4-2.8.7-4,1.1-20,2.9-40.3,4.5-60.5,6.3,0,.7-.1,1.3-.2,1.9.8,2.1,1.4,4.2,2.4,6.2,1,2,1.3,4.7,4.3,5.1,2.5.8,5,1.5,7.5,2.3,3.5,5.8,6.1,6.7,12.7,6,6.3-.7,10.5-4.5,15.7-7.7.2.4.4.7.6,1.1-3.7,2.2-7.3,4.9-11.2,6.6-4.2,1.8-8.1,1.3-12.5,1.5l-2.2-.8c-1.3-1.8-2.5-3.6-4-5.7-8.1-1.2-9.9-3.8-13.3-10.8-4.3-12.1-4.6-26.6-4.6-39.5,0-13.6.1-27.2.1-40.8,1.2-7.7,1.4-15.1,1.4-22.9-8.9-2.2-17.8-1.9-26.9-1.9-3-.3-6-.5-9-.8-1.3-.3-2.6-.6-4.3-.9-.3,16.3-.6,31.8-1,47.4,0,.6,0,1.2-.2,2.2-.6-.3-1-.5-1.3-.7,0-8,0-16,0-24,1-8.4.7-16.7.7-25.2-4.2,0-8.5-.1-12.7-.2-3,0-7.1-.9-9.8.6-1.7,0-3.4.2-5.3.3v44c-.2.5-.4,1-.7,1.6-.5,11.2-1.1,22.5-1.6,33.7-.2.8-.4,1.5-.7,2.3-.7,12,.6,23.8,2.9,36.2,5.5.2,11.1.6,16.8.4,1.9,0,3.9-1.4,5.8-2.1,0,0,0,0,0,0,1-.6,2-1.2,3.2-1.8.2-10.6.4-20.9.6-31.2.7-1.3,1.5-2.5,2.2-3.8-.7,8-1,15.9-1.2,23.9,0,3.3.8,8.6-.8,11.7-1.3,2.5-5.3,3.7-7.7,4.9h0c-2.7,0-5.3,0-8.7,0,1.4,13,2.8,26,4.2,39-1,2-2,4-3,6-3.9,1.7-7.8,3.4-11.7,5.1-1.6.7-3.2,1.6-4.8,2.4-2.5.7-5,1.5-7.5,2.2-4.4.3-8.7,1-12.7,2.7v5.6Z" fill="#fbfbfb"/>
        <path d="M1186.5,484.5c-2.5-5.2-3.8-10.7-10.5-10.2-6.7.5-13.5,2-20.2,2.8-13.6,1.7-27.3,3.5-41,3.5-3.1-13.5-2.3-28.4-3.2-42.2,9.8-2.3,19.2-4.5,29.3-4.1,11.1.4,22.2,2.7,33.2,4,10.6,1.2,21.3,1.8,32,2.4,10.2.5,21.1.5,31.1,2.8.6,9.9,1.3,19.7,1.9,29.4.3,0,.6,0,.9,0,1.1-2,.4-4.1,0-6.2-.4-2.6-.3-5.3-.5-7.9-.4-5.1-.4-10.1-.4-15.3,6.4.9,12.7,2,19.1,2.6,3.2.3,6.1,0,9.2-.3,3.3-.3,6.5.4,9.9.6v.7c-12.7,0-25-1.3-37.6-2.4,1,10,.5,19.6,2.4,29.3,0,0-1,.4-2,.7v20.8h7.1v-18.5c.3,0,.6,0,.8,0v13.1c1.2.3,2.2.5,3.6.8-1.4.3-2.3.5-3.3.7v6.2h9.6c-.4-1.9-.7-3.5-1.1-5.4.7.3,1.3.6,1.9.9.5-.6,1-1.3,1.5-2,3.3,1,1.6,3.5,2.4,5.5-4.3,4-9.6.8-14.2,2.5,0,2.1-1.4,4.5,1.2,6.2,0,.3,0,.5,0,.8l-1.1,3.7c-1.8-4.1-.6-8.7-1.4-13.2h-7.1v13.2c-.3,0-.6,0-.9,0,0-10.9.6-21.9-.3-32.7-.8-11-1.9-21.8-1.9-32.9-9.1-2.9-19.9-2.1-29.5-2.4-10.9-.4-21.6-1.1-32.4-2.6-10.6-1.5-21.2-3.8-31.8-4.2-10.3-.4-20,1.5-30,3.8-.7,13.8,1,27.1,2.2,41,11-.7,22-1.8,33-2.9,11.2-1.2,22.4-3.3,33.6-3,1.5,3.2,3,6.5,4.5,9.7,0,.3,0,.5,0,.8Z" fill="#e5e4dd"/>
        <path d="M1046.2,264c-5.8,37.8-11.6,75.6-17.4,113.8-2,.3-3.9.7-5.8,1v-.8c1.6-.3,3.1-.6,5.2-1.1.8-5.8,1.5-11.8,2.3-17.7,3.3-16.4,5.2-33,7.5-49.5,1-5.6,2.1-11.2,3-16.8,1.6-9.6,3-19.3,4.5-29,.3,0,.5,0,.8,0Z" fill="#e4e3dc"/>
        <path d="M1068.7,288.8c-6.5-3.8-17.5-1-24.7-.7,1.3-8.5,2.5-16.3,3.7-24.1.3,0,.5,0,.8,0-1.1,7.7-2.4,15.4-3.1,23.2,3.7,0,23.1-2.9,23.3,1.6Z" fill="#e4e3dd"/>
        <path d="M1277.2,442.5c-7.9,1.3-14.9,2.6-22.9,1.5-7.8-1.1-15.7-2-23.6-3v-.7c7.7.9,15.3,1.7,22.9,2.8,8.1,1.2,15.6-.4,23.6-1.3v.7Z" fill="#e4e4de"/>
        <path d="M1015.5,565.5c.5,2.8,1,5.6,1.4,8.4.6,5.2,1.1,10.4,1.7,15.5-.3,0-.6,0-.8,0-1-8-2-16-3-23.9h.7Z" fill="#e4e3dd"/>
        <path d="M744.7,640.5c4.4-2,8.8-4,13.7-6.3,13.6,12.4,27.4,25,41.6,38-6.9,9.1-14.3,17.5-21.6,26-3.6,1.9-9.1-3.3-12-4.9-4-2.3-10.1-3.5-12.7-7.1,7-11.4,17.6-20.8,25.6-31.6-.3-.3-.6-.5-.9-.8-9.4,8.5-17.1,19.8-25.3,29.5-.8.5-1.7.9-2.6,1.4-1.3-.8-2.4-1.5-3.6-2.2-1.5-1-3.1-1.9-4.4-2.8.6-6.5-.2-12.7-.9-19.2-.5-5.2,0-11.8-5.2-14.8,2.8-1.7,5.5-3.5,8.3-5.2Z" fill="#cce98f"/>
        <path d="M678.7,699c.5-.7,1-1.5,1.5-2.2,1.5-1,3-2,4.5-3h2.1c.6-1.1,1.1-2,1.6-3,.3.2.7.3.9.6,6.5,9.1,12.9,18.2,19.4,27.3,11.4,16,22.7,31.9,34.1,47.8,2.2,3.1,4.7,6,7,9-3.5,4.5-8.3,4.1-13.5,3.4.5-4.1,2.5-10.3.6-14.1-1.1-2.2-4.9-6-7.3-5.1-3-2.7-6-5.5-9-8.2,1.9-3-6.5-8.6-8.9-9.3-1.8,1.2-3.9,2.6-6.1,4.1h0c-.8.2-1.7.3-2.1.4-7.3-5.1-.4-10.6-2.3-17.1-1.9-6.1-7.4-9.5-13.6-9.6-4-1.1-7.9-2.1-11.7-3.1-.4-2.1-.7-3.7-1.1-5.2.1,0,.2,0,.4,0,.1-2.2.2-4.5.4-6.7,1-2,2-4,3-6Z" fill="#faf8e8"/>
        <path d="M716.2,686.2c4.3,9.1,8.6,17.4,14.7,25.5,5.9,7.8,11.4,16.5,18.9,22.8,1.6-1,3-1.9,4.6-2.9,1.4,1.8,2.6,3.3,3.7,4.8l-.7.6c-1.1-1.3-2.1-2.6-3.3-4-.5.4-1.1.9-1.8,1.4,1.5,2.5,2.9,4.9,4.3,7.3.6.4,1.2.8,1.5,1.1-.6,1.3-1.1,2.6-1.6,3.6,2.9,2.3,5.2,4.1,7.6,5.9.7,1.2,1.5,2.5,2.2,3.7,2,2.7,4,5.5,6,8.2.5.7,1,1.5,1.5,2.2-4.1,1.5-8.3,2.9-12.6,4.4-11.3-13.7-21.1-28.7-31-43.4-3.5-8-10.4-15.4-15.5-22.5-4.1-5.7-11-12.6-12.1-19.7,3.8-.8,7.4-1.5,11.2-2.3.6,1.5,1,2.2,2.2,3.3Z" fill="#f5f0d8"/>
        <path d="M1008,498c-2.9.5-5.8,1.6-8.6,1.3-5.7-.6-11,.1-16.1,2.4-.3,0-.5,0-.8,0,2.3-1.2,4.5-2.4,7.5-4,.9-9,1.7-17.8,2-26.8.3-8.8.6-16.7,3.5-25,0,0-.3-.5-.6-1.1h17.6c0,3.3,0,6.5,0,9.8-.4,1.1-.9,2.2-1.3,3.3-1.5-.5-2.8-.8-4.6-1.4-.4,2.2-.7,4-1.1,6.4,2.2-.2,3.7-.4,5.3-.5.2.4.5,1.2.9,2,0,.2,0,.5,0,.7-1.3,10.4-1.8,20.7-2.3,31.2-.6.7-1,1.2-1.4,1.8Z" fill="#f5f0d8"/>
        <path d="M1038,309.7c-2.3,16.5-4.2,33.2-7.5,49.5-5.7-.9-11.5-1.7-17.2-3.1,2.5-16.7,4.9-32.9,7.4-49.4,6.2,1,11.7,2,17.3,2.9Z" fill="#f5f0d8"/>
        <path d="M730.4,727.6c9.9,14.7,19.7,29.7,31,43.4,4.3-1.5,8.4-3,12.6-4.4,1.3-.7,2.5-1.5,3.8-2.2-1.3,1.2-2.5,2.5-3.8,3.7-4.3,3-9.3,3.2-14.2,3.8-1.1.8-2.4,1.4-3.4,2.3-6.3,5.6-13.4,8.9-22.1,7.4-3.9-1.6-8.4-2.4-11.3-6,3.2,1.6,7.3,4.6,11,2.6,1-3.8.9-7.7,1.1-11.6-3.4-4-7.6-6.7-11.4-10.2-3.6-3.4-6.3-7.4-9.7-11-1.6.3-3.1.7-4.6,1-.7.5-1.4,1-2.2,1.5-1.1.6-2.1,1.3-2.7,1.6v14.1c.8.5,1.7,1,2.7,1.6,0,.2,0,.5,0,.7-5.1-2.7-10.4-5.3-15.3-8.3-3.6-2.2-6.8-4.9-10.2-7.4-1.5-4.2-3.1-8.5-4.6-12.7-.5-2.3-1-4.6-1.5-6.9-.8-3.7-1.5-7.4-2.3-11.1h0c0-3.6-.4-7.3,0-10.9.3-2.5,1.9-4.7,2.9-7.1.7-.7,1.5-1.5,2.2-2.3-1,2-2,4-3,6-1.7,4.2-2.2,8.3,0,12.9,3.9.9,8,1.9,12,2.8,8-.2,10.8,5.6,13.6,11.7-2.5,5.6-4.2,11.3,2.4,16,.6-.7,1.3-1.4,2-2.2h0c2.8-1.1,5.3-3.3,9.5-1.6,1.5,1.9,3.5,4.4,5.5,6.9,3,2.7,6,5.5,9,8.2,2.8,1.8,6.1,3.8,6.9,7.3.9,3.6-.6,9-.9,12.8,6.2.4,11.9,1.2,15.8-4.3,2.5-1.6,5.1-3.2,7.6-4.7-.6-1-.7-1.3-.9-1.6-8-11.2-16-22.5-24-33.7-8-11.1-16-22.2-23.9-33.3-4.1-5.7-8.9-11.1-10.6-18.2,0-1.9-.2-3.9-.3-5.9-3.3,0-10.5-.8-10.3,4.4-.4,2.6-.8,5.2-1.2,7.8,0,.1.3.3.5.5-.5.9-1,1.9-1.6,3h-2.1c.5-1.5,1.2-2.9,1.4-4.4.6-4.4,1.1-8.8,4.6-12.1,2.7-.4,5.4-.7,8.5-1.2.4-1.5.8-3.2,1.2-4.8,1.2-6.2.8-12.7.8-19,0-5.5-.9-11.4,2.2-16.2,2.2-2.2,4.5-4.5,6.7-6.7,2.9-1.5,5.6-2.7,6.6-6.1.9-3.3.1-7.8,0-11.2,0-7.8,0-15.5,0-23.3h0c6.6-9.7,7.1-21.7,10.2-32.8.3,0,.7.2,1,.3-1.5,7.3-3,14.7-4.5,22-.7,1.5-1.5,3-2.2,4.5-.3.8-.4,1.7-.9,2.4-2.4,4-3.1,8.2-2.9,12.8.4,9.1.6,18.2.9,27.9.6.3,1.8.7,2.9,1.2,1.7,2.4,4.2,4.5,4.9,7.2,1.6,5.7,5.1,9.1,10.1,11.5,5.2,3,4.7,9.6,5.2,14.8.7,6.5,1.4,12.7.9,19.2,1.3.8,2.8,1.8,4.4,2.8,0,.2,0,.5,0,.7-3.7-.9-6.9-3.3-10.8-3.8-3.2-.4-6.6.6-9.7,1-8.4,1.2-16.7,2.4-25.1,3.5,3,8.4,7.9,15,13.1,22.2,5.2,7.2,10.5,14.3,16,21.3ZM740.2,666c-.3-3.9-.4-7.8-.9-11.7-.3-1.9-1.4-3.7-2.1-5.5-.5-.3-1-.5-1.5-.8-3.5-3.8-7.5-5.7-9.5-10.8-1.9-4.9-3.5-8.5-8.9-10.2-5.2,2.7-8.4,5.3-12.4,9.7-2.7,7.8-2.3,15.2-2.3,23.4,0,7.8-1.9,15.3-1.2,23.1,1.7-.6,3-1,4.2-1.4,1.5-.5,3-1,4.5-1.5,10.3.2,20.8-3.6,31.1-1.5-.4-4.5-.7-8.6-1-12.8ZM700.4,761.2c.7.1,1.3.3,1.9.4.5-4.2,1.6-7.9-.4-11.7-1.4-2.5-2.9-5-4.7-8.3.4-1.6,1.1-3.7,1.7-5.9.3-1.1.5-2.1.9-3.4-1.9-3.7-2.8-7.6-7.1-9.2-5.2-1.9-11.3-2.4-16.8-3.6-.5,6.6,1.5,14.2,3.3,20.5,1.7,6,4.3,11.5,10,14.5,3.8,2.2,7.5,4.5,11.3,6.7Z" fill="#fbfbfb"/>
        <path d="M730.4,727.6c-5.5-7-10.8-14.1-16-21.3-5.2-7.3-10.1-13.8-13.1-22.2,8.4-1.2,16.7-2.3,25.1-3.5,3.2-.5,6.5-1.4,9.7-1,3.9.5,7.1,2.8,10.8,3.8,0,1.3.2,2.7.2,3.9,1.9,1.3,3.2.4,4.3-.9.5.2,1,.5,1.4.7.8.9,1.5,1.8,2.3,2.6,1,.9,2,1.8,3.1,2.6-1.3.2-2.5.5-3.8.7,0,.2,0,.5,0,.7-.9-.6-1.7-1.3-3.3-2.4-1.7,5.7-3.3,11.1-5.1,16.9-5.9-3.1-11.5-6.1-16.7-8.8-.4-6.4-.7-12.2-1.1-18.2-4.5.6-8.5,1.1-12.7,1.7.3,1.3.5,2.4.7,3.5-1.2-1.1-1.6-1.7-2.2-3.3-3.7.8-7.4,1.5-11.2,2.3,1.1,7.2,8,14,12.1,19.7,5.1,7.2,11.9,14.5,15.5,22.5ZM739,702.5h3.9c.2-1.3.4-2.4.7-3.8h-4.6v3.8Z" fill="#efedde"/>
        <path d="M976.7,599.1c-2.7-5.7-5.2-10.8-7.8-16.3,3.5-1.8,6.8-3.5,10.6-5.4-2.3-3.2-4.4-6.2-6.8-9.7,6.8-3.4,13-6.4,19.4-9.6,1.1,2.2,2,3.9,3,5.8-3.6,1.9-6.9,3.6-10.6,5.5,3.3,7,6.4,13.7,9.8,20.9-5.7,2.8-11.3,5.6-17.7,8.8Z" fill="#d9d9d8"/>
        <path d="M707.2,747.7c.7-.5,1.4-1,2.2-1.5h4.1c-.4,1.1-.7,1.9-.9,2.6,2.7,3.2,5.2,6.3,7.8,9.4,1-.1,1.9-.3,2.9-.4-.3,1-.5,1.8-.8,2.9,3.4,2.5,6.8,4.9,10.3,7.4.9-.6,1.6-1.1,2.3-1.6-.2,3.9-.1,7.8-1.1,11.6-3.7,2-7.7-1-11-2.6-5.2-3.2-10.5-6.5-15.7-9.7,0-.2,0-.5,0-.7-.6-1-1.3-2-2.3-3.5.2-3.3.5-7.4.8-11.8.3-.4.9-1.2,1.5-2Z" fill="#faf8e8"/>
        <path d="M984.7,503.2c2-3.1,7.3-2.3,10.4-2.4,4.9-.2,9.8-.5,14.7-.7,1.9,4.5.8,11.9.9,16.9.2,6.7.6,13.4,1,20.1-3,.3-6,.5-9.3.8-.9-10-1.8-19.4-2.6-29h-8.4c-.6-2.2-1.1-4.5-1.8-7.4-1.9,1-3.4,1.9-4.8,2.7,0-.3,0-.5,0-.8Z" fill="#f5f0d8"/>
        <path d="M777.7,764.3c-1.3.7-2.5,1.5-3.8,2.2-.5-.7-1-1.5-1.5-2.2,1.2-.8,2.4-1.6,3.9-2.6-2.4-3.2-4.5-6-7-9.4-1.3,1.6-2.1,2.7-3,3.7-.7-1.2-1.5-2.5-2.2-3.7,1.1-.8,2.2-1.5,3.5-2.4-1.3-1.9-2.2-3.2-3.3-4.7-1.6.7-3,1.4-4.3,2-.1-.1-.2-.3-.3-.4,2.7-2.9,5.5-5.9,8.2-8.8,1-.4,2-.8,2.7-1,3.5,2.7,6.8,5.2,10.1,7.7,4.2,2.7,10.1,2.2,15,2.6v1.9c0,.2,0,.5,0,.7-6,4.7-12,9.5-18,14.2Z" fill="#faf8e8"/>
        <path d="M736.4,645.7c-5-2.4-8.5-5.9-10.1-11.5-.7-2.6-3.2-4.8-4.9-7.2,0-.3,0-.5,0-.8,1,.7,2,1.5,3.4,2.5,3.2-1.5,6.7-3.1,10.5-4.8,3.1,5.5,6.2,11,9.3,16.6-2.8,1.7-5.5,3.5-8.3,5.2Z" fill="#f5f0d8"/>
        <path d="M902.3,626.4c-1.8,2.2-3.4,4.1-5.3,6.4-6.8-5.5-13.3-10.7-20.3-16.2,1.8-2.3,3.2-4.2,5-6.6,7,5.6,13.6,10.9,20.5,16.4Z" fill="#d9d9d7"/>
        <path d="M936,582.7c2.3-.9,3.7-1.5,5.6-2.2,4.7,10.3,9.4,20.4,14.2,30.9-1.7.9-3.2,1.6-5.3,2.6-4.8-10.5-9.5-20.7-14.4-31.3Z" fill="#d9d9d7"/>
        <path d="M958.9,553.6c9-4.3,17.4-8.3,26.2-12.5,1.1,2.1,2,3.8,3.1,6-8.7,4.3-17.1,8.4-25.9,12.7-1.1-2-2-3.8-3.4-6.2Z" fill="#d9d9d7"/>
        <path d="M981.2,514c2.4-1,4.3-1.8,6.5-2.8,3.8,8.2,7.5,16,11.4,24.4-2.3,1.1-4.2,2-6.5,3.1-3.8-8.2-7.5-16.2-11.4-24.6Z" fill="#d9d9d7"/>
        <path d="M827.9,717c-.2.2-.5.5-.7.7-.2,0-.5,0-.7,0-2.2.9-3.6,2.4-5.3,4.1-2.5-.5-4.2-.8-6-1.1-3.5-2-7-4-10.5-6,0,0,.2-.2.3-.3-1.3-1.1-2.7-2.2-4-3.2,8.2-.9,22.5.4,27,2.4v2.6c0,.3,0,.5,0,.8Z" fill="#faf8e8"/>
        <path d="M827.9,717c0-.3,0-.5,0-.8.7-1,1.5-2.1,2.3-3.3-11.1-3.2-22.2-2.4-33.5-2.5,2.7,1.4,5.3,2.9,8,4.3,3.5,2,7,4,10.5,6,1.9.9,3.9,1.9,5.9,2.9,1.9-2.1,3.7-4,5.4-5.9.2,0,.5,0,.7,0-1.7,2.2-3.5,4.5-5.2,6.7-.8.5-1.5,1-2.3,1.5h0c.3-2-1.2-2.4-2.5-3.1-5.4-2.9-10.8-5.9-16.2-8.9-2.9-1.5-5.9-2.9-9.1-4.5-1.1,2.3-2,4.1-2.9,6-.6.7-1.4,1.4-1.8,2.2-3.1,5.5-6.5,10.7-12.4,13.6-.3,0-.5,0-.8,0,2.6-3.5,6.7-5.4,9.2-9.3,2.8-4.2,5.3-8.7,7.9-13-2-1.2-3.8-2.2-5.5-3.2.1-.2.2-.5.3-.7,2,1,4,2,6.1,2.9,13.6.5,26.9,1.4,40.5,3,.4-.1.7-.2,1.1-.3.2.2.4.4.5.5-2,1.9-4,3.9-6.1,5.8Z" fill="#fbfbfb"/>
        <path d="M860.2,645c-1.7,5.2-3.4,10.4-5.1,15.6-.3.8-.6,1.6-.9,2.4-.4,1.5-.8,3.1-1.2,4.6-1.4,5-2.7,9.9-4.1,14.9-.3.5-.6,1-.8,1.6-1.8,5-3.5,9.9-5.3,14.9-.7.5-1.5,1-2.2,1.5,2.3-6.5,4.5-13,6.8-19.5,4.8-14.9,8.2-31.3,15.7-45,2.5-5.3,5-10.5,7.5-15.8h0c2.6-4.4,5.2-8.9,7.7-13.3-2-2.3-3.8-4.2-5.5-6.1,0-.3,0-.5,0-.8h0c1.9,1.7,3.8,3.4,5.8,5.2.7-.3,1.4-.6,2.7-1.3-2.1,3.6-3.8,6.6-5.5,9.6l-7.5,15-1.5,2.3c-2.3,4.7-4.5,9.5-6.8,14.2Z" fill="#fbfbfb"/>
        <path d="M951,574.5c-1.1-1.6-2.2-3.2-3.5-5-1.4.4-3,.8-4.9,1.3-.5-.9-1-1.8-1.7-3.1,1.8-.9,3.3-1.6,5.2-2.5-.9-2.8-1.9-5.6-2.9-8.8,1.5-.6,2.7-1.1,4.7-1.8,2.4,6,4.8,11.7,7.2,17.6-1.6.9-2.8,1.6-4.1,2.3h0Z" fill="#d8d8d6"/>
        <path d="M692.9,658.4c.1,2.5.2,4.9.4,7.8-1,.2-2.2.4-3.8.8-1.7-6.4-1.7-12.7-2.5-19.3,2.7-.4,4.9-.6,7.7-1,.5,3.4,1,6.9,1.5,10.4-1.2.5-2,.9-3.2,1.3Z" fill="#d9d9d7"/>
        <path d="M951,574.5c.9,0,1.7,0,2.5.1,1.3,2.1,2.5,4.1,3.7,6h2.4c.8,1.5,1.5,3,2.5,4.9-2.4,1.4-4.7,2.7-7.3,4.3-1.1-1.8-2-3.4-3-5-.6,0-1.3-.1-2.2-.2-1.1-2.2-2.2-4.4-3.2-6.5,1.7-1.4,3.2-2.5,4.6-3.6h0Z" fill="#d9d9d6"/>
        <path d="M812.4,743.5c.4.4,1.3,1.4,2.5,2.7-6.5,6.2-12.7,12.1-19.6,18.6-.9-.9-1.7-1.7-2.1-2.1,6.7-6.7,12.7-12.7,19.2-19.2Z" fill="#d8d8d5"/>
        <path d="M714.6,554c2.1-.5,3.8-1,5.4-1.4,1.2,1.3,2,2.2,2.6,3,1.8,5.1-3.9,7.3-3.8,11.8-1.5-.2-2.6-.4-4.1-.7.2-1.6.3-3,.5-4.5-.2,0-.3,0-.5,0v-8.3Z" fill="#d9d9d7"/>
        <path d="M765.5,711.2c1,1.4,2,2.8,3.2,4.4-1.6,2-3.2,4-5.1,6.2-1.3-1.2-2.2-2.1-3.2-3,.6-1,1-1.9,1.6-2.9-2.1-1.8-4.1-3.6-6.4-5.7,1.6-1.4,2.8-2.5,4.1-3.6,2,1.8,3.8,3.4,5.5,4.9.1-.1.2-.2.3-.3Z" fill="#d9d9d6"/>
        <path d="M836.9,541.5c-.5,1-1,2-1.4,3-.9,5.7,1.6,10.2,5.2,14.3.7,1.5,1.5,3,2.2,4.4,3.3,5,6.5,10,9.8,15-8.3-7.2-11.3-17.8-18-26.3-1.2-3.3-1-6.4.3-9.7.6-1.5.8-3,1.2-4.6,2-4.5,1.3-9.2-.2-13.7-1.1-3.1-4.4-8.1-2.8-11,2.2,6.2,4.3,12.4,6.2,17.9-1,4.1-1.7,7.3-2.5,10.6Z" fill="#fbfbfb"/>
        <path d="M788.9,775.3c1.3-1.7,2.4-3,3.5-4.5,3.7,3,7.1,5.8,10.7,8.6-1.3,1.6-2.4,3-3.5,4.4-3.6-2.9-6.9-5.5-10.7-8.5Z" fill="#d9d9d6"/>
        <path d="M1012.5,454.5c0-3.3,0-6.5,0-9.8.3-8.3.2-16.6.9-24.9.8-9.2.4-18.6,2.9-27.6.2-2.3.5-4.5.7-6.8,0,.5,0,1,.1,1.4.9-3.7,2.6-6.8,5.9-8.9v.8c-4.3,3.8-5.2,9.4-6,14.8-.9,6.3-1.6,12.5-1.9,18.8-.3,6.6-.6,13.3-.8,19.9-.2,6.5-2.4,15.6.5,21.4.1.1.3.3.4.4-.1.1-.3.3-.4.4-.7,0-1.5,0-2.2,0Z" fill="#e5e4dd"/>
        <path d="M1004,558.4c1.7-.6,3-1.1,4.8-1.8,1.3,4.8,2.6,9.3,3.9,14.1-1.9.6-3.2,1-4.8,1.6-1.3-4.6-2.5-9-3.9-13.9Z" fill="#d9d9d6"/>
        <path d="M974.6,600.1c-2.1,1.1-3.8,1.9-6.4,3.2-.2-1.9-.3-3.3-.4-5.4-1-2-2.3-4.7-3.9-7.9,1.8-.7,3-1.1,4.4-1.6,2.1,4,4.1,7.6,6.3,11.6Z" fill="#d9d9d6"/>
        <path d="M773.9,731.3c.3,0,.5,0,.8,0,0,.2,0,.5,0,.7-.4.7-.9,1.4-.9,1.5,2.7,3.1,5.7,8,9.7,9.4,5,1.7,11.8.9,17.1,1.2,2.5-2.6,4.8-5.1,7.2-7.6,0,.3,0,.5,0,.8.2.3.5.5.7.8l-.7.7c-2.2,2-4.4,4-6.7,6-4.9,0-10,.5-14.9,0-4.3-.5-6.8-3.1-9.9-5.9-.2.2-.4.5-.6.7,1.9,1.7,3.8,3.5,5.7,5.2-.3,0-.5,0-.8,0-3.3-2.5-6.6-5.1-10.1-7.7-.7.3-1.7.6-2.7,1,0-.3,0-.5,0-.8,0-.2,0-.5,0-.7.3-.3.5-.5.8-.8,1.6.3,3.2.6,4.8,1-.6-.9-1.1-1.8-1.7-2.6.8-1.1,1.5-2,2.2-2.9,0,0,0,0,0,0Z" fill="#e8e8e4"/>
        <path d="M884.4,629.1c3.1,2.5,5.7,4.7,8.6,7-1.5,1.7-2.7,3-4.2,4.6-2.8-2.1-5.5-4.2-8.6-6.5,1.5-1.8,2.7-3.3,4.2-5.1Z" fill="#d9d9d7"/>
        <path d="M767.9,737.2c0,.3,0,.5,0,.8-2.7,2.9-5.5,5.9-8.2,8.8.1.1.2.3.3.4,1.4-.6,2.7-1.3,4.3-2,1.1,1.5,2,2.8,3.3,4.7-1.3.9-2.4,1.6-3.5,2.4-2.3-1.8-4.7-3.6-7.6-5.9.5-1,1-2.3,1.6-3.6-.4-.3-1-.7-1.5-1.1,2.9-.5,5.3-1.7,7.4-3.9.7-.8,1.3-2.8,3.1-1.4-3.2,3-6.4,6-9.5,9.1l.7.7c3.2-3,6.4-6,9.6-9Z" fill="#e1e0d9"/>
        <path d="M758.2,692.2c-1-.9-2.1-1.7-3.1-2.6-.8-.8-1.5-1.8-2.3-2.6.3-.3.5-.5.8-.8,2.7,3.6,8.7,4.8,12.7,7.1,2.9,1.7,8.5,6.8,12,4.9-1.3,1.2-2.7,2.5-4.5,4.1-1.4-1.7-2.6-3.1-3.9-4.6-3.8-1.8-7.8-3.7-11.8-5.5Z" fill="#d3e5b0"/>
        <path d="M751.1,694.1c1.2.3,2.1.5,3.5.9-1.2,5.1-2.3,9.9-3.4,15-1.1,0-2,.1-3.3.2-.3-5.8,2-10.7,3.3-16.1Z" fill="#d8d8d5"/>
        <path d="M1000.8,583.1c-1.9.4-3,.6-4.4.8-1-4.2-1.9-8.3-2.9-12.6,1.3-.5,2.4-.9,4.2-1.6,1.1,4.6,2,8.8,3.1,13.3Z" fill="#d8d8d6"/>
        <path d="M901.9,618.2c1.8-2.3,3.3-4.2,5-6.3,1.3.7,2.3,1.2,3.5,1.8-.6,1.2-1,2.2-1.6,3.4.7,1,1.5,2.1,2.5,3.5-.7.9-1.4,1.8-2.3,3-2.4-1.8-4.6-3.4-7.2-5.4Z" fill="#d9d8d6"/>
        <path d="M1017,385.5c-.2,2.3-.5,4.5-.7,6.8h-4.6c.4-4.4.7-8.3,1-12.5h4.3c0,2,0,3.8,0,5.7Z" fill="#d8d8d6"/>
        <path d="M808.4,758.9c1.4,1,2.2,1.6,3.5,2.6-2.1,3.4-4.1,6.7-6.4,10.4-1.4-.9-2.5-1.6-3.9-2.5,2.3-3.6,4.4-6.8,6.8-10.4Z" fill="#d9d8d6"/>
        <path d="M723.6,578.2c1.5-7.3,3-14.7,4.5-22-.3,0-.7-.2-1-.3-3.1,11.1-3.6,23-10.2,32.8.2-2.8,2.2-5.3,3.2-7.9,1.3-3.6,2.2-7.3,3-11.1.6-2.9,1.1-15.1,5.1-15,1.2,2.3-3.5,23.7-4.6,23.5Z" fill="#e3e3dd"/>
        <path d="M781.4,744.8c-1.9-1.7-3.8-3.5-5.7-5.2.2-.2.4-.5.6-.7,3.1,2.7,5.6,5.4,9.9,5.9,4.8.6,10,0,14.9,0,2.3-2,4.5-4,6.7-6-2.3,2.7-4.4,5.5-6.9,7.9-1.4,1.4-3.4,2.2-5.2,3.3,0-.2,0-.5,0-.7.9-.8,1.8-1.7,2.5-2.3-5.8-.8-11.2-1.5-16.7-2.2Z" fill="#fbfbfb"/>
        <path d="M773.1,781c2.3,1.6,4.1,2.8,6.3,4.2-.8,1.5-1.5,2.8-2.4,4.6-2.5-1.5-4.6-2.7-7.1-4.2,1.1-1.6,2-2.9,3.2-4.6Z" fill="#d9d8d6"/>
        <path d="M721.4,626.3c0,.3,0,.5,0,.8-1.1-.5-2.2-.9-2.9-1.2-.3-9.6-.5-18.7-.9-27.9-.2-4.6.5-8.9,2.9-12.8.4-.7.6-1.6.9-2.4-.1,3.2-1.5,5.1-2.3,8.2-1,3.6-.8,7.4-.6,11.1.5,7.6.7,15.3.7,22.9.7.5,1.5.9,2.2,1.3Z" fill="#e4e3dd"/>
        <path d="M784.9,775.2c-1-1.2-1.7-2.1-2.6-3.4,2.2-1.9,4.4-3.8,7.3-6.3,1.2,1.2,2.2,2,3.4,3.2-3.1,2.5-5.3,4.3-8.1,6.5Z" fill="#d9d8d5"/>
        <path d="M716.9,588.7c0,7.8-.1,15.5,0,23.3,0,3.3.9,7.9,0,11.2-1,3.4-3.7,4.6-6.6,6.1,1.8-1.9,4.7-3,5.7-5.6,1.1-3.1,0-7.8-.2-11-.5-6.9-3.2-17.9,1.3-23.9Z" fill="#e5e5df"/>
        <path d="M896.2,587.3c-2.2,2.1-4.3,4.1-6.5,6.2-.3-.3-.7-.6-1-.8,3.6-4.5,7.9-8.3,12.1-12.2,3.7-3.6,7.7-9,12.7-10.4-5.8,5.8-11.5,11.5-17.3,17.3,0,0,0,0,0,0Z" fill="#e4e4de"/>
        <path d="M781.8,778.7c1.2-1.1,1.8-1.7,2.2-2.1,2.9,1,5.4,1.9,8.3,2.9-1.2,1.7-2.1,3-3.3,4.7-2.4-1.9-4.6-3.5-7.3-5.5Z" fill="#d9d9d5"/>
        <path d="M982.5,501.7c.3,0,.5,0,.8,0-7.3,7.4-14.5,14.8-21.8,22.2-1,1.1-2,2.2-3,3.3-.3.2-.7.4-1,.6-.2-.3-.5-.6-.7-.8,8.6-8.4,17.1-16.8,25.7-25.3Z" fill="#e4e3dd"/>
        <path d="M955.7,572.1c1.5-.9,2.5-1.5,3.6-2.1,1.5,2.5,2.7,4.7,4.3,7.4-1.1.8-2.1,1.5-3.5,2.6-1.5-2.7-2.9-5.1-4.4-7.8Z" fill="#d8d8d5"/>
        <path d="M803.3,792.6c-1-1.4-1.6-2.3-2.4-3.5,2.1-1.7,3.9-3.2,6.1-5,.8,1.2,1.5,2.2,2.5,3.6-2.1,1.6-4,3.1-6.2,4.9Z" fill="#d9d8d5"/>
        <path d="M798.9,788.2c.3,1.6.4,2.7.7,4.4-2.3.6-4.3,1.1-6.9,1.7-.3-1.4-.6-2.6-1-4.3,2.4-.6,4.4-1.1,7.2-1.8Z" fill="#d8d8d5"/>
        <path d="M832.4,711c-13.5-1.6-26.8-2.5-40.5-3,13.8-1.1,26.8,1,40.5,3Z" fill="#e3e2dd"/>
        <path d="M984.7,503.2c0,.3,0,.5,0,.8-6.3,6.2-12.6,12.4-19,18.6-.8.7-1.8,1.1-2.8,1.7,6.7-6.8,13.4-13.6,20.1-20.4.4-.4,1.1-.5,1.7-.7Z" fill="#e4e3de"/>
        <path d="M836.9,541.5c.8-3.2,1.5-6.5,2.5-10.6-1.9-5.5-4.1-11.7-6.2-17.9,0-.3,0-.5,0-.8,2.8,5,5.3,10.3,6.2,16,.3,1.7-1.3,14.2-2.5,13.3Z" fill="#e5e4de"/>
        <path d="M823,695.2c.7.8,1.4,1.6,2.7,3-1.9,1.5-3.6,2.8-5.5,4.3-.7-.7-1.6-1.5-2.6-2.4,1.8-1.6,3.5-3.1,5.5-4.9Z" fill="#d8d8d5"/>
        <path d="M734.2,781.5c8.7,1.5,15.8-1.8,22.1-7.4,1-.9,2.2-1.5,3.4-2.3,0,.3,0,.5,0,.8-5,4.6-10.6,8.3-16.2,10.3-1.2,0-9.7-.5-9.3-1.4Z" fill="#e5e4de"/>
        <path d="M833.2,512.2c0,.3,0,.5,0,.8-1.6,2.9,1.7,8,2.8,11,1.6,4.5,2.3,9.2.2,13.7,0-.3,0-.5,0-.8,1.5-8.9-3-16.6-5.9-25.5,1.6.4,2.2.6,2.9.7Z" fill="#e6e5df"/>
        <path d="M703.4,636c-3.1,4.9-2.3,10.7-2.2,16.2,0,6.3.4,12.8-.8,19,0-9.7,0-19.5,0-29.2,0-2.5.2-4.9,3-6.1Z" fill="#dfdedb"/>
        <path d="M819.2,766.8c-2-1.1-3.4-2-5.3-3.1,1.1-1.4,1.9-2.4,2.9-3.6,1.7,1.2,3.1,2.1,4.8,3.3-.9,1.2-1.5,2.2-2.4,3.4Z" fill="#d8d8d5"/>
        <path d="M913.5,571.5c-.1,2.7-5.2,6.3-7.1,8.2-2.8,2.8-6,7.4-9.7,8.9-.2-.5-.3-1-.5-1.4,0,0,0,0,0,0,1.1-.7,2.4-1.3,3.3-2.2,4.7-4.5,9.3-9,14-13.5Z" fill="#e4e3dd"/>
        <path d="M913.5,571.5c-4.6,4.5-9.3,9.1-14,13.5-.9.9-2.2,1.5-3.3,2.2,5.8-5.8,11.5-11.5,17.3-17.3,0,.5,0,1,0,1.5Z" fill="#fbfbfb"/>
        <path d="M676.7,674.2c-.7-2-1.3-3.9-2.1-6.4,2.1,0,3.2-.1,4.6-.2v6.4c-.8,0-1.5.2-2.5.3Z" fill="#d7d7d3"/>
        <path d="M690.7,677.2c-3.4,3.3-4,7.7-4.6,12.1-.2,1.5-.9,2.9-1.4,4.4-1.5,1-3,2-4.5,3h0c0-.8,0-1.6,0-2.3,1.8-.9,3.5-1.8,4.8-2.5.6-4.2,0-13.7,5.7-14.7Z" fill="#e4e3dd"/>
        <path d="M788.3,696.9c1.8,1.1,3.4,2,5.4,3.3-1,1.1-1.7,1.9-2.7,3-1.7-1.2-3.1-2.2-4.9-3.4.9-1.3,1.5-2.1,2.2-2.9Z" fill="#d8d8d5"/>
        <path d="M872.9,600.8c1.7,1.9,3.4,3.9,5.5,6.1-2.6,4.4-5.2,8.9-7.7,13.4,2-4.4,4-8.8,6.1-13.5-1.9-2.1-3.3-3.3-3.9-6Z" fill="#e4e3de"/>
        <path d="M1011.7,540c.3,2.5.5,5,.8,7.5,0,.3,0,.5,0,.8-1.3-.4-2.6-.7-4.3-1.2,0-.9-.2-2.1-.3-3.4,1.3-.4,2.4-.7,3.6-1.1,0-.9.1-1.7.2-2.6Z" fill="#deddd7"/>
        <path d="M767.9,777.7c-.9,2.1-1.6,3.6-2.5,5.5-2-1-3.7-1.9-6.1-3,.8-1.8,1.5-3.5,2.4-5.6,2.4,1.2,4.2,2.1,6.1,3.1ZM766.6,778.2c-1.7-.8-3-1.4-4.4-2.1-.7,1.3-1.2,2.2-1.8,3.4,1.5.7,2.7,1.4,4.2,2.1.7-1.2,1.2-2.1,2-3.4Z" fill="#e7e5d9"/>
        <path d="M876.6,641.9c-3.7,2.9-5.1-.8-7.9-1.2.9-1.2,1.5-1.9,2.2-2.9,1.9,1.4,3.5,2.5,5.7,4.1Z" fill="#d8d8d3"/>
        <path d="M902.8,612.1c-1,1.1-1.5,1.7-2,2.2-4.5-1.6-4.9-2.2-3.3-5.3,1.6,1,3.2,1.9,5.3,3.2Z" fill="#d8d8d4"/>
        <path d="M847.5,681c-2.3,6.5-4.5,13-6.8,19.5-1.2-1.9,2-8,2.8-10.2.5-1.5,3.2-9.8,4-9.2Z" fill="#e4e3de"/>
        <path d="M848.9,682.5c1.4-5,2.7-9.9,4.1-14.9.4-1.5.8-3.1,1.2-4.6.2.5.8,1.2.7,1.6-1.9,6.2-3.9,12.4-5.9,18.7,0-.3,0-.5,0-.8Z" fill="#e3e2dd"/>
        <path d="M852.7,578.3c-3.3-5-6.5-10-9.8-15,3,.9,10.3,11.9,9.8,15Z" fill="#e4e3de"/>
        <path d="M819.7,726c.8-.5,1.5-1,2.3-1.5.5,2.8-3.3,5-5.2,6.9-1.1,1.1-4.7,5.9-6.1,5.1,1.8-1.9,3.6-3.7,5.3-5.7,1.3-1.5,2.5-3.2,3.7-4.8Z" fill="#e4e3de"/>
        <path d="M870.7,620.2c-2.5,5.3-5,10.5-7.5,15.8.5-4.8,3.2-12.9,7.5-15.8Z" fill="#e5e4dd"/>
        <path d="M868.4,628.5l7.5-15c.6,3-4.6,14-7.5,15Z" fill="#e4e3de"/>
        <path d="M676.5,701.3c-1,2.4-2.6,4.6-2.9,7.1-.5,3.6,0,7.3,0,10.9-2.6-6.3-1.7-12.2,1.9-17.9.1-.2.7-.1,1.1-.1Z" fill="#e3e2dc"/>
        <path d="M809.6,778.4c.8-1.3,1.3-2.1,2.1-3.3,1.2,1,2.1,1.9,3.2,2.9-.9,1.1-1.6,1.9-2.5,3-1-.9-1.8-1.6-2.8-2.6Z" fill="#d8d8d4"/>
        <path d="M819.7,726c-1.2,1.6-2.4,3.3-3.7,4.8-1.7,1.9-3.5,3.8-5.3,5.7-.7.5-1.5,1-2.2,1.5-.2-.3-.5-.5-.7-.8,3.5-3.5,7-7,10.5-10.5.5-.3,1-.5,1.5-.8,0,0,0,0,0,0Z" fill="#fbfbfb"/>
        <path d="M848.9,682.5c0,.3,0,.5,0,.8-1.5,5.1-3.1,10.2-4.7,15.3,0,.3-.9.3-1.3.5,1.8-5,3.5-9.9,5.3-14.9.2-.6.5-1.1.8-1.6Z" fill="#e3e3dd"/>
        <path d="M673.4,719.2c.7,3.7,1.5,7.4,2.3,11.1.5,2.3,1,4.6,1.5,6.9-.2,0-.5,0-.7,0-.7-2.7-1.6-5.4-2-8.1-.5-3.3-.7-6.6-1-9.9Z" fill="#e4e3de"/>
        <path d="M860.2,645c2.3-4.7,4.5-9.5,6.8-14.2.9,2.3-6.5,14.5-6.8,14.2Z" fill="#e4e3dd"/>
        <path d="M880,631.8c-1-.9-1.6-1.5-2.5-2.2.8-1.2,1.6-2.2,2.5-3.5.9.7,1.7,1.2,2.6,1.9-.9,1.3-1.7,2.3-2.7,3.8Z" fill="#d9d8d3"/>
        <path d="M1012.5,548.3c0-.3,0-.5,0-.8,1.8,5.9,3.2,11.8,3,18h-.7c-.6-4.4-1.2-8.8-1.8-13.2-.2-1.3-.3-2.7-.5-4Z" fill="#e4e3dd"/>
        <path d="M759.7,772.5c0-.3,0-.5,0-.8,4.9-.6,10-.8,14.2-3.8-.7,1.5-3.3,3.4-5.4,3.7-2.9.4-5.9.6-8.8.9Z" fill="#e4e4de"/>
        <path d="M767.9,737.2c-3.2,3-6.4,6-9.6,9l-.7-.7c3.2-3,6.4-6,9.5-9.1.2,0,.5,0,.7,0,0,.2,0,.5,0,.7Z" fill="#fbfbfb"/>
        <path d="M836.2,537c0,.3,0,.5,0,.8-.4,1.5-.6,3.1-1.2,4.6-1.3,3.2-1.4,6.4-.3,9.7-1.5-1.5-2.2-3.8-1.4-7.1.7-2.7,1.9-5.3,2.9-7.9Z" fill="#e2e1dc"/>
        <path d="M840.7,558.8c-3.6-4.1-6.1-8.6-5.2-14.3.1,5.4,3.5,9.6,5.2,14.3Z" fill="#e3e2dd"/>
        <path d="M792.7,693.5c1.3.6,2.5,1.2,3.8,1.8,0,.4,0,.8,0,1.1-2.8.8-2.9.4-4.7-1.7.3-.4.7-.8,1-1.3Z" fill="#d8d8d3"/>
        <path d="M676.4,737.3c.2,0,.5,0,.7,0,1.5,4.2,3.1,8.5,4.6,12.7-.4,0-1.1,0-1.1-.1-1.4-4.2-2.8-8.4-4.2-12.6Z" fill="#e4e3dc"/>
        <path d="M1001.6,539.2c1.6-.4,2.5-.5,3.2-.7,1.5,1.4,1.1,2.7-1.3,4.3-.6-1-1.1-2-1.9-3.6Z" fill="#d9d9d4"/>
        <path d="M862.2,587.3l-8.6-6.7c.2-.2.4-.5.6-.7l8.7,6.7c-.2.2-.5.5-.7.7Z" fill="#fbfbfb"/>
        <path d="M773.9,731.3c-.7.9-1.3,1.8-2.2,2.9.5.8,1.1,1.7,1.7,2.6-1.6-.3-3.2-.6-4.8-1,1-2.4,2.8-3.9,5.3-4.5Z" fill="#fbfbfb"/>
        <path d="M872.9,600c-2.3-2.9-4.6-5.9-6.9-8.8.4-.3.7-.5,1.1-.8l5.8,9.6h0Z" fill="#fbfbfb"/>
        <path d="M680.2,694.5c0,.8,0,1.5,0,2.3-1.7-.8-3.6-1.4-2.7-4,1.9-1,2.8-.3,2.7,1.8Z" fill="#dcdcd6"/>
        <path d="M940.2,545.3l-6.4,7.4c-.1-.1-.2-.2-.3-.3,2.3-2.3,4.5-4.7,6.8-7,0,0,0,0-.1,0Z" fill="#fbfbfb"/>
        <path d="M952.7,548.4h2.4v3.3c-3,.6-2.8-1.1-2.4-3.3Z" fill="#d9d9d3"/>
        <path d="M924.7,560.8c2.3-2.3,4.5-4.7,6.8-7-.2-.2-.4-.4-.6-.6-2.1,2.5-4.3,4.9-6.4,7.4,0,0,.1.2.2.2Z" fill="#fbfbfb"/>
        <path d="M1081.5,301.5c1.5,1.5,3,3,4.5,4.5,1.7.8,3.3,2,5.1,2.2,3.3.4,6.6.1,9.9.1h0c1.4,6.8,1,13.7,0,20.5h-3.6v8.4c1.1.2,2.1.5,3.2.7.5,8.3,1.3,19.4-1.2,27.4-5.5,0-11,0-16.5,0-1.1,0-2.1-.1-3.3-.2v-7h-8.2c-.4,2.5-.8,4.9-1.2,7.2h-8.6c.3-7,.7-13.3,1-19.6.1-2.7.7-5.5-1.8-8-3.8-.7-8-1.4-12.3-2.1.2-2.5.3-4.8.5-7.3-3.4-.5-6.3-1-9.3-1.5-.1-.8-.2-1.4-.3-2,1.5-11.2,3.2-22.3,4.9-33.4,3.9-.9,7.5-1.2,11.5-1.4,3.4-.2,7.4.3,10.6-1.2,1.8,1.5,3.5,3,5.3,4.5,3.2,2.7,6.5,5.5,9.7,8.2ZM1077.6,336.2h-8.7v4.4c2.8.2,5.7.5,8.7.7v-5.1ZM1068.2,354.3h3.3v-8.7c-1.3.3-2.3.5-3.3.7v7.9ZM1046.4,303c-.4,3.5-.7,6.4-1.1,9.5h3c.4-3,.8-5.9,1.3-9-1.1-.2-1.9-.3-3.3-.5Z" fill="#faf8e8"/>
        <path d="M1112.2,345.8h25.9c.1,1.1.3,1.8.3,2.5.3,19.8.5,39.6.8,59.5,0,1.4-1.1,3.4,1.5,4h0c-.3,2.2-.5,4.5-.8,6.8-.4-1.2-.8-2.5-1.2-3.7-.1,0-.2,0-.4,0,.3,3.6.5,7.2.8,10.9-1.9.1-3.1.2-4.5.3-.9.8-1.9,1.7-2.9,2.6.1,1.1.2,2,.3,3.1-1.6.3-3,.6-4.5.9-.4-2.8-.7-5.3-1.1-8.4.3-.8.9-2.3,1.3-3.4-.4-2.3-.6-4.2-.9-6.2-.1,0-.3,0-.4,0v8.1c-1.5,1.1-3,2.2-4.6,3.2-.5.2-1,.5-1.5.7-2.3-.5-4.7-.9-7.3-1.4-.5-8.7,0-17.2,1.3-25.6,0-3.8,0-7.7,0-11.5,0-1.4-.5-2.8-.7-4.2-.2-3.7-.6-7.4-.7-11.1-.3-8.8-.5-17.6-.8-26.4,0-.2,0-.5,0-.7Z" fill="#f5f0d8"/>
        <path d="M1122,426c1.5-1.1,3-2.1,4.6-3.2v-8.1c.1,0,.3,0,.4,0,.3,1.9.6,3.8.9,6.2-.4,1.1-1,2.6-1.3,3.4.4,3.1.7,5.6,1.1,8.4,1.5-.3,2.9-.6,4.5-.9-.1-1-.2-2-.3-3.1,1-.9,2-1.8,2.9-2.6,1.4-.1,2.6-.2,4.5-.3-.3-3.7-.5-7.3-.8-10.9.1,0,.2,0,.4,0,.4,1.2.8,2.5,1.2,3.7v13.2h6.6v-13.2c-.2,0-.4,0-.6,0v13c-1.5-.4-2.5-.7-3.5-.9v-15.9c1.3-.5,2.4-1,3.6-1.4,0-.4,0-.7,0-1.1-1.7-.1-3.4-.2-5.2-.3,0,0,0,0,0,0,1.5-.4,3-.8,4.9-1.2v-12.2c-.1,0-.2,0-.3,0v11.8c-1.3,0-2.3-.1-3.7-.2.1-5.7-1-10.9.6-16.1.3,5.1-1,10.4,1.7,15.3.5-5.2,1.5-11-1.7-15.3.8-.3,1.7-.5,3-.9-1.4-2.6-2.4-4.5-3-7.3,4.9,6.5,4.5,14.4,4.6,22.1.1,8.2.7,16.5.7,24.7-4.8.6-9.7.2-14.6.5-4.7.4-9.3,2-13.9,2.1-1.2-.4-2.5-.8-3.5-1.2v-6h4.8c.1,2.3.2,4.3.3,6.5,1.5-.4,2.9-.8,4.3-1.2-.3-2.4-.6-4.5-.9-6.8-.7,0-1.3-.2-2-.3ZM1143.7,429.4c.3,0,.5,0,.8,0,1.5-3.9,1-12-1.6-14.1l.8,14.1Z" fill="#e3e2d9"/>
        <path d="M1112.2,345.8c0,.2,0,.5,0,.7-2.2,11.5.4,24.1-.2,35.8-3.5-.5-6.5-1-9.9-1.6,1.2-11.7,1.5-23.3,1.8-35,2.7,0,5.5,0,8.2,0ZM1104.9,362.7h3.3v-16.3c-1.4.4-2.3.6-3.3.9v15.4Z" fill="#efedde"/>
        <path d="M1104,345.7c-.4,11.7-.6,23.4-1.8,35,3.4.5,6.4,1,9.9,1.6.5-11.8-2.1-24.3.2-35.8.3,8.8.5,17.6.8,26.4.1,3.7.5,7.4.7,11.1,0,.3,0,.5,0,.8-3.8-1.1-7.5-2.1-11.7-3.3,0-11.6.6-23.1.9-34.7.3-11.7-.2-23.8,1.7-35.4-3-9.6-13.7-2.4-20.1-8.5.4-.2,1.1-.6,1.2-.4,3.3,3,7.3,3,11.3,2.6,7.7-.8,9.3,4.3,8.2,10.5-.1.7-.4,1.5-.4,2.2-.3,9.3-.5,18.6-.8,27.9Z" fill="#e4e2da"/>
        <path d="M1230.7,440.2v.7c-27.2-1.5-54-2.6-80.8-7.7-1.5-7.1-1.1-14.6-1.3-21.9-.2-7.7-1.1-14.6-2.6-22.1,5.1,3.3,3.3,14.8,3.5,20.2.2,7.7.6,15.4,1,23,13.3,2.4,26.6,4,40.1,5.2,6.5.6,13.1.8,19.6,1.1,6.6.3,14.2-.5,20.6,1.4Z" fill="#e5e4de"/>
        <path d="M1076.2,382.5c3,.3,6,.5,9,.8-.2,3-.5,6-.7,9,0,11.5,0,22.9,0,34.4,0,1.3.5,2.6.7,3.9-.2,1-.5,2-.7,3,0,.8.1,1.7.2,2.6h6.1c0,.4,0,.8,0,1.2h-6.3c-.8,4.1-.8,8-.8,12.2-3,.5-5.6.9-8.2,1.3-.3.2-.5.5-.8.7-.7,2.7-2.5,5.3-.8,8.2-.7,1-1.5,2-2.2,3-.3-.5-.5-1-.8-1.5-.7,1.3-1.5,2.5-2.2,3.8,0-1-.2-2-.2-3-.3,0-.6,0-.9,0v15.5c1.1,5.9-1.3,11.9-.3,17.4-1,1.3-1.6,2.2-2.3,3.1h0c-1.7.3-3.3.6-5.1,1-.2-2-.3-3.8-.5-5.9h-5.5c-.2,2.1-.3,4.1-.5,6-.3,0-.6,0-.9,0v-6.6c2.5-.4,4.7-.8,7.1-1.2.3-2.7.6-4.9.8-7.4h-7.1c-.8,1-1.6,1.9-2.1,2.4h-10c-1.1-7.8-1.9-15.1,0-22.8,3.3.3,6.4.5,9.5.8,0-.4,0-.7,0-1.1-3.8-.6-7.5-1-11.4.3.2-.8.4-1.5.7-2.3.7.3.8-11.3.8-12.8,4.4.5,8.2-1,12.1,1.4v10.7c.3,0,.6,0,1,0v-11h15c0-.2,0-.4,0-.6-8.9-.5-17.8-.9-26.9-1.4,0-6.7,0-13.3-.3-19.9.2-.5.4-1,.7-1.6,1.1.6.8-4.3.8-5.2h12.2c2-13.4.2-26.3,2.7-38.7,4.2.3,7.6.5,11.7.8-.4,4.4-.7,8.4-1,12.4,0,10.5,0,20.9,0,31.4,0,1.3.5,2.6.7,3.9.4.2.7.4,1.3.7,0-1,.1-1.6.2-2.2,1.5-2.7,1-7.1,1.2-10.2.2-3.9.3-7.9.3-11.8,0-8.1,0-16.2,0-24.2,1.6,0,2.6-.1,3.7-.2ZM1057,444.8c3.9-1.6,4.8-8.7,1.9-13.1-2.9,2.4-4,9.6-1.9,13.1ZM1074.1,448.2c3.9,0,5.4-1.1,5.7-4.4-2.4.1-2-4.9-5.7-2.9v7.3ZM1060.3,450.7c-1.8-.2-3.6-.4-5.6-.6v4.8h5.6v-4.2Z" fill="#f5f0d8"/>
        <path d="M1186.5,483.7c-1.5-3.2-3-6.5-4.5-9.7,7.5-1.3,14.9-2.6,22.8-4,1.9,10.8,3.6,20.9,5.3,30.7-2.8,1.9-59.3,11.7-63.9,11.3-.4-1.6-.8-3.3-1.2-4.9h-10.9c.2-.5.5-1,.7-1.5,4.4-.2,8.4.3,12.5-1.5,4-1.7,7.5-4.4,11.2-6.6-.2-.4-.4-.7-.6-1.1-5.2,3.2-9.4,7-15.7,7.7-6.6.7-9.2-.2-12.7-6-.5-1.5-.9-3.1-1.5-5-1.2,0-2.6-.1-3.3-.2-1.2,1.3-2,2.1-2.7,2.9-3-.4-3.3-3.1-4.3-5.1-1-2-1.6-4.1-2.4-6.2,4.5-2.4,9.9-2.1,14.9-2.5,5.4-.5,10.7-.9,16.1-1.4,10.3-.9,20.4-1.8,30.5-4.3,8.4-1.2,5.8,18.5,11.8,16.9.4-3.4.6-6.7-2.1-9.4Z" fill="#f5f0d8"/>
        <path d="M1084.5,392.3c.2-3,.5-6,.7-9,9.1,0,18-.3,26.9,1.9,0,7.8-.2,15.1-1.4,22.9-.3-.3-.5-.5-.8-.8-1.5-3.3-8-2.3-10.9-2.3v-11.8c-4.8-.3-9.7-.6-14.6-1ZM1104.1,401.8c2-3.1,2.3-12.3.5-14.1-1.1,4.9-2,9.5-.5,14.1Z" fill="#eeecdd"/>
        <path d="M1134.7,505.5c-.2.5-.5,1-.7,1.5v12.5h-7.3c0,.1,0,.3.1.4-1.5.5-3,1.1-5.2,1.8v-9.8c1.4-.2,2.6-.3,4-.5,0-1.7.2-3.4.3-5.3,2.3-.5,4.4-.9,6.5-1.4l2.2.8Z" fill="#d9d9d7"/>
        <path d="M1061.5,549.2c-.4-1.7-.7-3.1-1.1-4.8,2.3-.7,4-1.2,5.7-1.8,3.7-3.8,8.7-3.6,13.4-5.4.8,2.1,1.4,3.6,2.3,5.8-6.8,2.1-13.3,4-20.2,6.1Z" fill="#d9d9d7"/>
        <path d="M1120.1,499.4c.2,1.9.3,3,.4,4.2-1,.7-1.9,1.3-3,2,.5,3.4,1,6.9,1.5,10.7-1.7.3-2.8.4-4.6.7-.8-5.4-1.6-10.6-2.5-16.1,2.9-.5,5.3-1,8.1-1.5Z" fill="#d9d9d6"/>
        <path d="M1098.4,501.3v6.8h-13.6c0-1.6-.2-3.2-.3-5,4.8-.6,9.1-1.2,13.9-1.8Z" fill="#d9d9d7"/>
        <path d="M1102.9,497h-5c.3-5.5.6-11,.9-16.8,1.6,0,2.8-.1,4.2-.2v17Z" fill="#d9d9d6"/>
        <path d="M1071,461.3c.3.5.5,1,.8,1.5-.3,10.7.1,21.6-1.4,32.1,2.2-.1,4.2-.2,6.1-.3,0,.2,0,.3,0,.5-1.6.3-3.3.7-5.5,1.1-.9,1.6-2.1,3.7-3.3,5.7-.3-.5-.7-.9-1-1.4v16.8c-1.1,0-2.2.1-4,.2,0-2.5,1.6-15.3-1.5-15.7,2.4-1.2,6.4-2.3,7.7-4.9,1.6-3.1.7-8.4.8-11.7.2-8,.5-15.9,1.2-23.9ZM1064.5,501.9c-2,3.1-1.4,11.8.9,14.7,1.4-2.2.8-12.5-.9-14.7Z" fill="#e6e5db"/>
        <path d="M1249.5,506.3c0-.3,0-.5,0-.8v-4.4c4.5-1.7,8.4-2,12.7,0-.3,1.9-.6,3.7-.8,5-3.9.3-8.1,1.2-11.9.1Z" fill="#d8d8d4"/>
        <path d="M1037.2,554.3c1.6-.8,3.2-1.7,4.8-2.4,3.9-1.7,7.8-3.4,11.7-5.1-.9,1-1.8,2-2.8,3.1.2,1.2.4,2.6.7,4.5-4.1,1.4-8,2.7-11.8,4-1-1.6-1.8-2.8-2.5-4Z" fill="#dddcd8"/>
        <path d="M1110,407.3c.3.3.5.5.8.8,0,13.6-.1,27.2-.1,40.8,0,12.8.4,27.3,4.6,39.5-6.9-11.8-3.9-27.3-6.4-40.4,1.9-13.4,1.2-27,1.2-40.5Z" fill="#e3e3dd"/>
        <path d="M1080.4,527c-1.6,0-3,.2-4.6.2-.4-3.6-.7-7-1.1-10.9,2,0,3.6-.2,5.6-.3v10.9Z" fill="#d9d9d6"/>
        <path d="M1075.5,450.7c2.6-.4,5.2-.8,8.2-1.3,0-4.2,0-8.1.8-12.2,0,4.1,0,8.2,0,12.6h11.1c0,.3,0,.6,0,.9h-15.1c-1.3,6.4-.8,12.9.6,14.2-3.7,7.4-1,15.2-2.9,22.5.3-12,.6-24,1-36.5-1.4-.1-2.6-.2-3.8-.3Z" fill="#e6e4d8"/>
        <path d="M1129.5,457.5c2.7-.4.8-7.5.7-9.4h5c.1,2,.2,3.8.4,6.1-.7.5-1.4,1.1-2,1.5.6,2.6,1.1,5,1.6,7.3,3.3-.6,6.5-1.2,10.3-2v7.7h-10.1l-.8-.7h10.2v-5.6c-3.7.6-7.2,1.1-10.7,1.6-.2-2-.3-3.7-.5-5.6-1.3,0-2.4-.1-3.5-.2-.3-.2-.5-.5-.8-.7ZM1131.2,453.7c1.3,0,2.4-.2,3.6-.3-.1-1.6-.2-2.8-.3-4.2-1.3.1-2.2.2-3.3.3v4.1Z" fill="#dcdee2"/>
        <path d="M1074.8,530.1c.5,1.6.8,2.7,1.3,4.4-3.5,1.1-6.8,2.2-10.6,3.4-.5-1.5-1-2.7-1.7-4.6,3.7-1.1,7.1-2.1,11-3.2Z" fill="#d8d8d6"/>
        <path d="M1083.3,461.7c-.5-.2-1.4-.5-2.3-.9v-5.2h8.3c.1,1.4.2,2.7.3,4.1-2.2.7-4.1,1.3-6.3,2Z" fill="#e4e0d2"/>
        <path d="M1089.7,537c-1.3.9-2.7,1.8-4.7,3.2-.9-3.8-1.6-6.7-2.4-9.8,1.7-.6,2.9-.9,4.3-1.4,1,2.8,1.9,5.5,2.8,8.1,0,0,0,0,0,0Z" fill="#d8d8d6"/>
        <path d="M1129.5,457.5c.3.2.5.5.8.7-.4,2-.8,4-1.4,6.5-2.9.2-5.8.3-9,.5,0,1,.2,1.8.3,3h9.7c.1,1.6.2,2.8.3,3.9-.2,0-.4,0-.6-.1-.6,1.2-1.1,2.3-1.7,3.5h0c0-2.4.2-3.7,1.1-5.9h-9.8v-5.7c3.2-.2,6.1-.3,8.9-.5.5-2.1.9-3.9,1.3-5.8Z" fill="#e1e3e3"/>
        <path d="M1056.7,540.7c-1.4-13-2.8-26-4.2-39h8.7c-2.3.7-4.6,1.4-7.3,2.2,0,6.6.8,13,1.9,19.5.3,1.8,2.1,17.9.9,17.3Z" fill="#e4e4dd"/>
        <path d="M1101.9,529c.6,2.4,1.1,4.4,1.7,6.9-2.3.2-3.7.3-5.2.4-.4-1.5-.7-2.6-1-3.8,1.3-2.5,2.6-4.9,3.9-7.4q2.2,2,.5,3.9Z" fill="#d8d8d4"/>
        <path d="M1084.5,433.5c.2-1,.5-2,.7-3,4.4.3,8.8-.3,12.1,2.8-.2.4-.4.8-.5,1.3-4.1-.4-8.2-.7-12.3-1.1Z" fill="#d9d9d5"/>
        <path d="M1092.2,460.8h4.3c-.3,5.5-.7,10.7-1,16.4-1.3,0-2.5.2-4.4.3.4-5.8.7-11,1.1-16.8ZM1093.3,476.9c.4,0,.9,0,1.3-.1.2-3.4.4-6.9.5-10.3.2-3.4.7-3.8-1.9-5.5-.3,3.9-2.6,13,0,16Z" fill="#e6e4d8"/>
        <path d="M1078.7,511.9h-3.4c-.7-4.4-1.4-8.6-2.1-13h6.2c-.2,4.3-.5,8.4-.7,13ZM1075.8,510.5c.4,0,.9.1,1.3.2.5-3.6,1-7.2,1.4-10.8h-3.8c.4,3.7.7,7.2,1,10.6Z" fill="#e7dedf"/>
        <path d="M1102.2,458h-3.8v-6.9c1.3-.1,2.4-.2,3.8-.4v7.3Z" fill="#e2ded0"/>
        <path d="M1242.4,487.9h3.8v6.8h-3.8v-6.8Z" fill="#dadad5"/>
        <path d="M1074,459.7c-1.7-2.9,0-5.5.8-8.2.8,0,1.7.2,3,.3-.1,2.5-.2,4.9-.4,7.7-1.3.1-2.3.2-3.4.3Z" fill="#e1ddd0"/>
        <path d="M1103,440.2c-1.5-.3-2.3-.4-3.2-.6v-8.1c1.3,0,2.2.2,3.2.3v8.5Z" fill="#d9d9d4"/>
        <path d="M1242.3,509.2c-.4-2.7-1.3-5.7-.6-8.4.8-.1,1.8-.3,3.1-.5v8.7c-.8,0-1.5.1-2.5.2Z" fill="#d8d8d4"/>
        <path d="M1251.5,476.9c-1.9-4.8-1.6-6.4.7-8.1,4.1,1.6,1,6.2-.7,8.1Z" fill="#dadad4"/>
        <path d="M1152.8,468.4c1.7-.4,3.1-.8,4.9-1.3.4,1.1.8,2.1,1.4,3.7-2.2.4-3.9.8-6,1.2-.1-1.5-.2-2.5-.3-3.6Z" fill="#d8d8d4"/>
        <path d="M1262.7,481c-1.4-.4-2.3-.7-3.6-1.1.4-1.8.8-3.4,1.2-5.4,1.3.4,2.3.7,3.6,1.1-.4,1.9-.7,3.4-1.2,5.4Z" fill="#dbdbd6"/>
        <path d="M1262,490.1c-1.3,0-2.2.1-3.3.2v-5.7c1.2.1,2.2.2,3.3.4v5.2Z" fill="#d9d9d4"/>
        <path d="M1091.9,443.5c-.3,1.4-.4,2.3-.6,3.3h-5v-3.3h5.6Z" fill="#e0ddce"/>
        <path d="M1134.7,468l.8.7c-.3.7-.5,1.4-.8,2,.5,1.7,3.5,2.4,1.4,5.2-2.5.3-5.3,1-8.1-.4h0c2.6-.4,5.2-.8,8.4-1.2-2.4-2-3.4-3.9-1.7-6.3Z" fill="#e1e3e3"/>
        <path d="M1017,564.7v-5.6c4.1-1.7,8.4-2.4,12.7-2.7-3.9,1.1-7.7,2.1-11.5,3.2-.4,1.8-.8,3.5-1.2,5.1Z" fill="#dddcd8"/>
        <path d="M1235,505.9c-3.1-1.6-3.4-1.4-2.6-4.9,3.4.5,2.8,2.3,2.6,4.9Z" fill="#dadad4"/>
        <path d="M1089.7,537v-3.2c2.5-1.2,3.1.2,3.8,2.4-1.4.3-2.6.5-3.8.8h0Z" fill="#d8d8d3"/>
        <path d="M1137.5,513.6c1.6-2.5,1.5-2.8,4.2-1.3,0,.3,0,.7,0,1-1.1.5-2.1.9-3.2,1.4-.3-.4-.7-.7-1-1.1Z" fill="#dadad4"/>
        <path d="M1101.9,517.3c0-1.2-.1-2.1-.2-3.2,1,0,1.7-.1,2.7-.2,0,1.2,0,2.1.2,3.2-1,0-1.7.1-2.7.2Z" fill="#d7d7d3"/>
        <path d="M1014.7,454.5c.1-.1.3-.3.4-.4-.2-.1-.3-.3-.4-.4,0-2,0-4,0-6,7.9-.9,15.6-.1,23.5.2-.4,4.9-.7,9.5-1,14,0,7.2,0,14.5,0,21.7,1,6.3,2,12.5,2.9,18.2,3.3.2,6.2.5,9.2.7.5.7,1,1.4,1.4,2.1.9,7.8,1.8,15.6,2.7,23.4.1,1.2.7,2.4,1.1,3.6,2.3,8.9-.4,14.1-7.5,16.8-9.8,3.8-19.5,7.2-30.6,8.6-.3-1.8-.6-3.8-1-5.8-1.2-13.9-2.8-27.8-2.9-41.8-.1-14.1.9-28.2,1.5-42.2.1,0,.2,0,.3,0,.2,1.3.5,2.6.7,4.1h3.2c1.8-3.2,2.1-5.9,1.4-13-1.8-1.4-3.4-2.7-5-4ZM1028,473.1v-13c-1.7,0-3.1.2-4.7.3v12.7h4.7ZM1017,540.1c-1,2.7-1.5,5,.4,7.3,2.3-.4,4.5-.8,7.2-1.3-.5-2.2-.8-4.1-1.2-6h-6.4ZM1047.5,509.1c-2.4.2-4.2.3-6.4.5.5,1.5.8,2.4,1,3.1h5.4v-3.6ZM1032.3,478.7v5.1c1.5-.2,2.6-.3,4.2-.5-.1-1.7-.3-3.1-.4-4.6h-3.8ZM1034.7,510c-1.4.3-2.3.4-3.3.6v4.7c1.3-.2,2.3-.4,3.3-.6v-4.6ZM1029.5,455.1c0-1,0-1.6.1-2.3-1.3-.6-2.6-1.2-4.1-2-.3,1.6-.5,2.8-.8,4.3h4.8Z" fill="#f5f0d8"/>
        <path d="M1039.5,324.7c0,.6.2,1.2.3,2,3,.5,5.9.9,9.3,1.5-.2,2.4-.3,4.8-.5,7.3,4.4.8,8.5,1.5,12.3,2.1,2.5,2.5,1.9,5.3,1.8,8-.3,6.3-.6,12.6-1,19.6h8.6c4.2,0,8.5,0,12.7,0h16.5c-1.3.8-2.7,1.6-4.1,2.5v5.2c1.5.4,2.7.6,4.4,1-.4,2.4-.7,4.6-1.1,7-4.6-.4-8.8-.7-13.4-1.1v-11.6c-.3,0-.5,0-.8,0v11.6c-4.1-.5-8.5,0-12.7.3-2.3-.2-4.5-.5-6.8-.7,1.5,0,3,0,4.5,0,0-.4,0-.7,0-1.1-9.5,0-18.9,0-28.4,0-.8,0-1.5.7-2.3,1-2.6-.3-5.1-.7-8.3-1.1,1.8-18,5.1-35.8,8.2-53.6.3,0,.5,0,.8,0Z" fill="#efedde"/>
        <path d="M1014.7,445.5c.2-1,.5-2,.7-3,1.8-6.1,1.1-13.1,1.2-19.5.2-6.8.6-13.4,1.4-20.1,2-.1,3.8-.2,5.6-.3,0-.1,0-.3,0-.4-1.9-.1-3.8-.3-5.8-.4-.1-.8-.2-1.4-.3-2,1.2-5.5,2.4-11,3.7-16.5,1-.7,2-1.4,3.4-2.5,4.5.3,9.4.7,14.3,1.1,2,22,1,43.4-1.3,65.3-5.1-.4-9.7-.8-14.9-1.2.3-6.3.6-12.4.9-18.5-.2,0-.5,0-.7,0-.4,6.1-.8,12.3-1.3,18.8-2.5-.3-4.8-.5-7.1-.8ZM1023.9,443.3c1.1.2,2,.5,3.9.9.3-5.6.5-10.7.8-16.3h-3.8c-.3,5.2-.6,10.1-.9,15.4Z" fill="#f5f0d8"/>
        <path d="M1068.7,395.3c.3-4,.7-8.1,1-12.4-4-.3-7.5-.5-11.7-.8-2.5,12.4-.7,25.3-2.7,38.7h-12.2v-6.4c1.5-.2,2.6-.4,4.6-.7-2-.3-3.2-.5-4.4-.8v-30.4h7.9c0-.3,0-.5,0-.8-1.2,0-2.4,0-3.6,0,2.7-1.5,6.8-.6,9.8-.6,4.2,0,8.5.1,12.7.2,0,8.4.3,16.8-.7,25.2-.3-3.8-.5-7.5-.8-11.3Z" fill="#eeecde"/>
        <path d="M1014.7,454.5c1.6,1.3,3.3,2.6,5,4,.7,7.1.5,9.7-1.4,13h-3.2c-.3-1.5-.5-2.8-.7-4.1-.1,0-.2,0-.3,0-.7,14-1.7,28.1-1.5,42.2.1,13.9,1.6,27.9,2.9,41.8-2.8-14.7-2.8-30.1-3.3-45.1-.3-7.4-.4-14.8,0-22.3.2-2.8,3-19.3-.4-19.7-.3-.8-.7-1.5-.9-2-1.6.2-3.1.3-5.3.5.4-2.4.7-4.1,1.1-6.4,1.8.6,3.1.9,4.6,1.4.4-1.1.8-2.2,1.3-3.3.7,0,1.5,0,2.2,0Z" fill="#e2dfd3"/>
        <path d="M1039.5,463.5c3.8-1.3,7.6-.9,11.4-.3,0,.4,0,.7,0,1.1-3.1-.3-6.2-.5-9.5-.8-1.9,7.7-1.2,15.1,0,22.8h10c.5-.6,1.3-1.5,2.1-2.4h7.1c-.3,2.4-.5,4.6-.8,7.4-2.4.4-4.6.8-7.1,1.2v6.6c.3,0,.6,0,.9,0,.2-2,.3-3.9.5-6h5.5c.2,2.1.3,3.9.5,5.9,1.8-.3,3.4-.7,5.1-1-1.9.7-3.8,2.1-5.8,2.1-5.7.1-11.4-.2-16.8-.4-2.3-12.4-3.6-24.3-2.9-36.2ZM1042.7,498.5c3,.3,5.7.6,8.5.9v-11.6h-9.3c.3,3.6.5,6.9.8,10.7Z" fill="#e5e2d2"/>
        <path d="M1071.7,380.2c4.2-.2,8.5-.8,12.7-.3v-11.6c.3,0,.5,0,.8,0v11.6c4.6.4,8.7.7,13.4,1.1.4-2.5.8-4.7,1.1-7-1.7-.4-2.9-.7-4.4-1v-5.2c1.5-.9,2.8-1.7,4.1-2.6,2.5-8,1.7-19.1,1.2-27.4-1.1-.2-2.1-.5-3.2-.7v-8.4h3.6c.9-6.8,1.3-13.6,0-20.5,3,4.9,1.1,12.8.9,18.5-.2,6.3-.5,12.7-.7,19-.5,11.9.7,24.7-2,36.2-9.2-.6-18.3-1.1-27.4-1.7ZM1096.1,368.4v3.5c1,0,1.6-.1,2.6-.2,0-1.3-.1-2.3-.2-3.3h-2.4Z" fill="#e0dfd9"/>
        <path d="M1014.7,445.5c2.3.3,4.6.5,7.1.8.4-6.6.8-12.7,1.3-18.8.2,0,.5,0,.7,0-.3,6.1-.6,12.2-.9,18.5,5.1.4,9.8.8,14.9,1.2,2.4-21.9,3.4-43.3,1.3-65.3-4.9-.4-9.8-.8-14.3-1.1-1.4,1-2.4,1.8-3.4,2.5,1-5.7,15.1-2.5,19.1-2.4,1.3,13.4.8,27.3.3,40.8-.2,6.7-1.1,13.4-1.7,20-.6,6.8,0,13.6-1.2,20.3-.2,0-.5,0-.7,0,.3-4.5.7-9.1,1-14-7.9-.4-15.6-1.1-23.5-.2v-2.2Z" fill="#e5e2d6"/>
        <path d="M1122,426c.6,0,1.2.2,2,.3.3,2.2.6,4.4.9,6.8-1.4.4-2.8.8-4.3,1.2-.1-2.2-.2-4.2-.3-6.5h-4.8v6c1,.3,2.3.8,3.5,1.2-1.8.5-3.7,1-5.7,1.6-1.9-3.1-.8-6.2-1-9.2,2.7-.2,5.5-.5,8.2-.7.5-.2,1-.5,1.5-.7Z" fill="#f0efe4"/>
        <path d="M1041.8,427.5c.2,6.7.3,13.3.3,19.9,9,.5,18,.9,26.9,1.4,0,.2,0,.4,0,.6h-15v11c-.3,0-.6,0-1,0v-10.7c-3.8-2.4-7.7-.9-12.1-1.4,0,1.6-.1,13.2-.8,12.8.5-11.2,1.1-22.5,1.6-33.7Z" fill="#e3dfd0"/>
        <path d="M1176.7,476.3c-10.1,2.5-20.2,3.4-30.5,4.3-5.4.5-10.7.9-16.1,1.4-5,.4-10.4.2-14.9,2.5,0-.6.1-1.2.2-1.9,20.2-1.8,40.4-3.4,60.5-6.3.3,0,.5,0,.8,0Z" fill="#e2e0d7"/>
        <path d="M1039.5,324.7c-.3,0-.5,0-.8,0,1.6-11.3,3.2-22.6,4.9-33.9,6.8-2.8,15.6-1.8,22.9-2-3.2,1.5-7.2,1-10.6,1.2-4,.2-7.6.5-11.5,1.4-1.7,11.1-3.4,22.3-4.9,33.4Z" fill="#e4e3dd"/>
        <path d="M1047.7,381.7h3.6c0,.3,0,.5,0,.8h-7.9v30.4c1.2.2,2.4.4,4.4.8-2,.3-3.1.5-4.6.7v6.4c0,.9.3,5.8-.8,5.2v-44c1.9,0,3.6-.2,5.3-.3Z" fill="#dad9d2"/>
        <path d="M1076.2,382.5c-1.1,0-2.2.1-3.7.2,0,8.1,0,16.2,0,24.2,0,4-.1,7.9-.3,11.8-.2,3,.3,7.5-1.2,10.2.3-15.6.6-31.2,1-47.4,1.6.4,2.9.6,4.3.9Z" fill="#e1dfd3"/>
        <path d="M1017.7,399.7c0,.6.2,1.2.3,2,2,.1,3.9.3,5.8.4,0,.1,0,.3,0,.4-1.8.1-3.6.2-5.6.3-.8,6.7-1.2,13.3-1.4,20.1-.2,6.3.5,13.4-1.2,19.5,0-14.3.3-28.6,2.3-42.8Z" fill="#e0ded5"/>
        <path d="M1065,498c.7-.9,1.3-1.8,2.3-3.1-1-5.6,1.4-11.5.3-17.4v-15.5c.3,0,.6,0,.9,0,0,1,.2,2,.2,3-.2,10.3-.4,20.6-.6,31.2-1.2.7-2.2,1.3-3.2,1.8Z" fill="#e2e0d6"/>
        <path d="M1176.7,476.3c-.3,0-.5,0-.8,0,1.2-.3,2.5-.7,4-1.1,4,5.2,5.9,11.1,7.3,17.7,1.7-3.5-.2-5.8-.8-8.4,0-.3,0-.5,0-.8,2.7,2.7,2.4,6,2.1,9.4-6,1.6-3.4-18-11.8-16.9Z" fill="#e2e0d8"/>
        <path d="M1120.5,426.7c-2.7.2-5.5.5-8.2.7,0-5.5-.2-10.9,0-16.4.2-3.8.9-7.6,1.4-11.3.2,0,.5,0,.7,0-1.4,8.4-1.8,16.9-1.3,25.6,2.6.5,5,1,7.3,1.4Z" fill="#e3e2d9"/>
        <path d="M1008,498c.4-.5.9-1.1,1.4-1.8.4-10.5.9-20.8,2.3-31.2-.5,10.8-1,21.5-1.5,32.5-.8.2-1.5.3-2.2.5Z" fill="#e1dfd4"/>
        <path d="M1050.7,504.7c-.5-.7-.9-1.4-1.4-2.1-3-.2-5.9-.4-9.2-.7-.9-5.6-1.9-11.9-2.9-18.2h.4s.4,0,.4,0c1,5.5,2,11,3,16.8,2.9.6,6.3,1.3,9.7,1.9,0,.8,0,1.5,0,2.3Z" fill="#e2e0d6"/>
        <path d="M1068.7,395.3c.3,3.8.5,7.5.8,11.3,0,8,0,16,0,24-.3-1.3-.7-2.6-.7-3.9,0-10.5,0-20.9,0-31.4Z" fill="#e1ded0"/>
        <path d="M1050.7,504.7c0-.8,0-1.5,0-2.3,2.8,9.1,2.6,19.8,3.8,29.2-.4-1.2-.9-2.3-1.1-3.6-1-7.8-1.8-15.6-2.7-23.4Z" fill="#e2e0d8"/>
        <path d="M1038.7,379.5c.8-.3,1.5-1,2.3-1,9.5,0,18.9,0,28.4,0,0,.4,0,.7,0,1.1h-4.5c-8.7,0-17.5,0-26.2,0Z" fill="#dddcd3"/>
        <path d="M1121.9,495.8c.8-.8,1.5-1.6,2.7-2.9.7,0,2.1.1,3.3.2.6,2,1.1,3.5,1.5,5-2.5-.8-5-1.5-7.5-2.3Z" fill="#dad9d2"/>
        <path d="M1038,483.7h-.4s-.4,0-.4,0c0-7.2,0-14.5,0-21.7.2,0,.5,0,.7,0,0,7.2,0,14.5,0,21.7Z" fill="#dddacf"/>
        <path d="M1101,308.3c-3.3,0-6.7.3-9.9-.1-1.8-.2-3.4-1.4-5.1-2.2,3.4,1.8,7.1,1.5,10.8,1.6,1.4,0,2.8.5,4.2.7Z" fill="#e0dfd9"/>
        <path d="M1114.5,399.7c-.2,0-.5,0-.7,0,0-5,0-10,0-15,0-.3,0-.5,0-.8.2,1.4.7,2.8.7,4.2,0,3.8,0,7.7,0,11.5Z" fill="#dddbd0"/>
        <path d="M753.7,686.2c-.3.3-.5.5-.8.8-.5-.2-1-.5-1.4-.7l1.6-2.9c8.2-9.7,15.9-21,25.3-29.5.3.3.6.5.9.8-7.9,10.8-18.6,20.2-25.6,31.6Z" fill="#f6f6f5"/>
        <path d="M753,683.3l-1.6,2.9c-1.1,1.3-2.4,2.2-4.3.9,0-1.2-.1-2.6-.2-3.9,0-.2,0-.5,0-.7,1.2.7,2.3,1.4,3.6,2.2.9-.5,1.7-1,2.6-1.4Z" fill="#d1dab8"/>
        <path d="M699.7,684c1.7,7.1,6.5,12.5,10.6,18.2,7.9,11.1,16,22.2,23.9,33.3,8,11.2,16,22.5,24,33.7.2.3.4.6.9,1.6-2.5,1.6-5.1,3.2-7.6,4.7-.5,0-1.1,0-1.6,0-2.4-3-4.8-5.9-7-9-11.4-15.9-22.8-31.9-34.1-47.8-6.5-9.1-12.9-18.2-19.4-27.3-.2-.3-.6-.4-.9-.6-.2-.2-.5-.4-.5-.5.4-2.6.8-5.2,1.2-7.8,2.4-3.3,5.6-4.5,9.3-3.4.5,1.8.9,3.4,1.3,4.9Z" fill="#f5f0d8"/>
        <path d="M705.7,746.2c-.7.8-1.4,1.5-2,2.2-6.6-4.8-4.9-10.4-2.4-16-2.8-6.1-5.6-11.9-13.6-11.7,0-.2,0-.5,0-.7,6.2.1,11.7,3.5,13.6,9.6,2,6.4-5,12,2.3,17.1.4,0,1.3-.3,2.1-.5Z" fill="#e4e3dd"/>
        <path d="M749.9,775.5c.5,0,1.1,0,1.6,0-4,5.4-9.6,4.7-15.8,4.3.3-3.7,1.8-9.2.9-12.8-.8-3.5-4.1-5.4-6.9-7.3,2.5-.9,6.2,2.9,7.3,5.1,2,3.8,0,10-.6,14.1,5.2.7,10,1.1,13.5-3.4Z" fill="#e4e3dd"/>
        <path d="M687.7,720c0,.2,0,.5,0,.7-4.1-1-8.2-1.9-12-2.8-2.1-4.6-1.7-8.7,0-12.9l-.4,6.7c-.1,0-.2,0-.4,0,.3,1.6.6,3.1,1.1,5.2,3.7,1,7.7,2,11.7,3.1Z" fill="#e4e4de"/>
        <path d="M720.7,751.5c-2-2.5-4-5-5.5-6.9-4.1-1.7-6.7.5-9.5,1.6,2.2-1.5,4.3-2.9,6.1-4.1,2.4.7,10.8,6.3,8.9,9.3Z" fill="#e6e5df"/>
        <path d="M766.4,756c.8-1.1,1.7-2.1,3-3.7,2.5,3.4,4.6,6.2,7,9.4-1.5,1-2.7,1.8-3.9,2.6-2-2.7-4-5.5-6-8.2Z" fill="#d9d9d6"/>
        <path d="M704.9,636.7c4-4.3,7.2-6.9,12.4-9.7,5.4,1.7,7.1,5.3,8.9,10.2,1.9,5.1,6,7,9.5,10.8-.8.7-1.7,1.3-2.5,2l.7.4c-.2,1.5-.3,2.9-.5,4.4-5.5.6-11,1.1-16.5,1.7,0,.2,0,.3,0,.5.5,0,1,0,1.4.1-1.3.2-2.5.5-3.8.7-1.4-.2-2.8-.7-4.2-.7-2.3,0-4.7.4-7,.7.3-7-1.1-14.2,1.5-21.1Z" fill="#f5f0d8"/>
        <path d="M698.9,735.7c-.6,2.2-1.2,4.4-1.7,5.9,1.8,3.2,3.3,5.7,4.7,8.3,0,2.6.1,5.2,0,7.8-.1,1.2-.9,2.4-1.4,3.5-3.8-2.2-7.5-4.5-11.3-6.7-1.2-2.5-3.6-3.8-5.2-5.9-1.7-2.3-2.7-5.3-3.6-8-2.1-6.4-2.9-13.2-3.5-20,5.2,1.1,12.6,1.4,17.1,4.4,4.1,2.8,3.2,6.8,5,10.7Z" fill="#faf8e8"/>
        <path d="M703.5,657.8c2.3-.2,4.6-.6,7-.7,1.4,0,2.8.4,4.2.7-1.9.3-3.8.6-5.7.9-.2,1.5-.1,2.4.2,3.9,5.8-.6,11.5-1.2,17.6-1.9-.2-1.4-.3-2.4-.4-3.6h-7.9c-.5,0-1,0-1.4-.1,0-.2,0-.3,0-.5,5.5-.6,11-1.1,16.5-1.7.3,4.1.5,8.3.8,12.4-6.3.6-13.8.4-19.8,2.1-5.8,1.6-4.8,6.2-4.2,11-1.5.5-3,1-4.5,1.5-1.2,0-2.4-.2-4.4-.3,1.7-8.1,2.2-15.4,2.1-23.7ZM704.6,680.3c1.3-.2,2.5-.3,4-.5-.1-1.7-.2-3.1-.4-4.9-1.9.3-3.3.6-5.1.9.6,1.8,1,3.1,1.5,4.6Z" fill="#faf8e8"/>
        <path d="M710.2,680.2c-.6-4.9-1.6-9.4,4.2-11,6.1-1.7,13.5-1.4,19.8-2.1-.3-4.1-.5-8.2-.8-12.4.2-1.5.3-2.9.5-4.4l-.7-.4c.8-.7,1.7-1.3,2.5-2l1.5.8c-.5.8-1,1.5-1.5,2.3.5,4,1,8,1.5,12-.6,1,2.3,1.4,2.9,1.6-1.2,1.2-2,2-2.9,2.9,1.2-.2,2.7.6,3-1.5.3,4.1.7,8.2,1,12.8-10.3-2.1-20.7,1.7-31.1,1.5ZM727,672.5c-1.6.5-2.8.8-4.5,1.2.8,1.5,1.3,2.6,1.8,3.7,1.4-.5,2.4-.9,3.5-1.2-.2-1.1-.4-2.1-.8-3.7ZM713.1,674.4c.2,1.4.3,2.5.5,3.6,1.5,0,2.6-.2,4-.3,0-1.2-.1-2.2-.2-3.3h-4.3ZM737.6,671.9c-1.5.1-2.7.3-4.1.4.6,1.4,1,2.4,1.4,3.5,1.4-.1,2.5-.3,4-.4-.5-1.3-.8-2.2-1.3-3.5Z" fill="#eceadc"/>
        <path d="M735,766.5c-.7.5-1.4,1-2.3,1.6-3.5-2.5-6.9-4.9-10.3-7.4.3-1.1.5-1.9.8-2.9-1,.1-1.9.3-2.9.4-2.6-3.1-5.1-6.2-7.8-9.4.2-.7.5-1.5.9-2.6h-4.1c1.5-.3,3-.7,4.6-1,3.3,3.6,6,7.7,9.7,11,3.8,3.5,8,6.2,11.4,10.2Z" fill="#d8d8d4"/>
        <path d="M698.9,735.7c-1.8-3.9-.9-7.9-5-10.7-4.5-3.1-11.9-3.3-17.1-4.4.5,6.7,1.4,13.5,3.5,20,.9,2.7,1.9,5.7,3.6,8,1.6,2.2,4,3.4,5.2,5.9-5.7-3-8.3-8.5-10-14.5-1.8-6.3-3.8-13.9-3.3-20.5,5.4,1.1,11.6,1.6,16.8,3.6,4.3,1.6,5.2,5.5,7.1,9.2-.3,1.3-.6,2.4-.9,3.4Z" fill="#e4e4de"/>
        <path d="M703.5,657.8c0,8.3-.5,15.6-2.1,23.7,2,.1,3.2.2,4.4.3-1.2.4-2.5.8-4.2,1.4-.8-7.8,1.2-15.3,1.2-23.1,0-8.2-.5-15.6,2.3-23.4-2.6,6.9-1.1,14-1.5,21.1Z" fill="#dfded8"/>
        <path d="M740.2,666c-.3,2.2-1.8,1.3-3,1.5.9-.9,1.7-1.7,2.9-2.9-.6-.2-3.6-.7-2.9-1.6,2.7-1.8,1.3-10.6-1.5-12,.5-.8,1-1.5,1.5-2.3.7,1.8,1.8,3.6,2.1,5.5.6,3.9.7,7.8.9,11.7Z" fill="#dddcd4"/>
        <path d="M707.2,747.7c-.6.8-1.2,1.6-1.5,2-.3,4.4-.6,8.4-.8,11.8,1,1.6,1.6,2.6,2.3,3.5-.9-.6-1.9-1.1-2.7-1.6v-14.1c.6-.3,1.6-1,2.7-1.6Z" fill="#e3e2dd"/>
        <path d="M699.7,684c-.4-1.5-.8-3.1-1.3-4.9-3.7-1.1-6.8.1-9.3,3.4-.2-5.2,7-4.4,10.3-4.4,0,2,.2,4,.3,5.9Z" fill="#e2e0d9"/>
        <path d="M700.4,761.2c.5-1.2,1.3-2.3,1.4-3.5.2-2.6,0-5.2,0-7.8,2,3.8.9,7.5.4,11.7-.6-.1-1.2-.3-1.9-.4Z" fill="#e4e3dd"/>
        <path d="M739,702.5v-3.8h4.6c-.3,1.5-.4,2.5-.7,3.8h-3.9Z" fill="#fdfced"/>
        <path d="M781.4,744.8c5.5.7,10.9,1.4,16.7,2.2-.7.6-1.6,1.5-2.5,2.3,0-.6,0-1.3,0-1.9-4.9-.4-10.8.1-15-2.6.3,0,.5,0,.8,0Z" fill="#e0e0da"/>
        <path d="M804.7,714.8c-2.7-1.4-5.3-2.9-8-4.3,11.3,0,22.3-.7,33.5,2.5-.8,1.2-1.5,2.2-2.3,3.3v-2.6c-4.5-2-18.8-3.3-27-2.4,1.4,1.1,2.7,2.2,4,3.2,0,0-.2.2-.3.3Z" fill="#e3e2dc"/>
        <path d="M826.5,717.8c-1.7,1.9-3.4,3.8-5.4,5.9-2-1-4-1.9-5.9-2.9,1.8.3,3.5.6,6,1.1,1.7-1.7,3.1-3.2,5.3-4.1Z" fill="#e4e3de"/>
        <path d="M819.7,726c-.5.3-1,.5-1.5.8-.3,0-.8-.3-.9-.2-3.2,3.3-6.4,6.6-9.6,9.9-2.4,2.5-4.7,5-7.2,7.6-5.2-.3-12.1.4-17.1-1.2-4-1.4-7-6.3-9.7-9.4,0,0,.5-.8.9-1.5,2.7-1.5,5.3-3.1,8.5-4.9-.8,1.7-1.3,2.9-2,4.6,1.2.5,2.2.9,3.4,1.4,2.3-4.9,4.4-9.3,6.4-13.7-.8-1.1-1.4-2.1-2.1-3.1,1.2-1.7,2.3-3.4,3.6-5.3,2.9,1.4,5.1,2.9,8.4,3,5.4,3,10.8,5.9,16.2,8.9,1.3.7,2.8,1.2,2.5,3.1Z" fill="#faf8e8"/>
        <path d="M788.9,716.3c.7,1,1.3,2,2.1,3.1-2,4.4-4.1,8.8-6.4,13.7-1.2-.5-2.2-.9-3.4-1.4.7-1.7,1.3-2.8,2-4.6-3.2,1.9-5.9,3.4-8.5,4.9,0-.2,0-.5,0-.7,5.9-2.9,9.3-8.1,12.4-13.6.5-.8,1.2-1.5,1.8-2.2,0,.3,0,.5,0,.8ZM783.5,731.6c2.5-4,4.9-8,5.6-12.8-2.7,3.9-5,8-5.6,12.8Z" fill="#e5e3d9"/>
        <path d="M788.9,716.3c0-.3,0-.5,0-.8.9-1.9,1.8-3.7,2.9-6,3.2,1.6,6.1,3.1,9.1,4.5-3.2-.2-5.5-1.6-8.4-3-1.3,1.9-2.5,3.6-3.6,5.3Z" fill="#e4e3de"/>
        <path d="M807.7,736.5c3.2-3.3,6.4-6.6,9.6-9.9.1-.1.6.1.9.2-3.5,3.5-7,7-10.5,10.5,0-.3,0-.5,0-.8Z" fill="#e4e4de"/>
        <path d="M766.6,778.2c-.8,1.3-1.3,2.2-2,3.4-1.5-.7-2.7-1.4-4.2-2.1.6-1.2,1.1-2.1,1.8-3.4,1.5.7,2.7,1.3,4.4,2.1Z" fill="#fdfded"/>
        <path d="M1083,365.3c-4.2,0-8.5,0-12.7,0,.4-2.3.8-4.7,1.2-7.2h8.2v7c1.2,0,2.3.2,3.3.2Z" fill="#dbdad6"/>
        <path d="M1077.6,336.2v5.1c-3-.3-5.8-.5-8.7-.7v-4.4h8.7Z" fill="#d9d9d6"/>
        <path d="M1068.2,354.3v-7.9c1.1-.2,2-.4,3.3-.7v8.7h-3.3Z" fill="#d9d9d5"/>
        <path d="M1046.4,303c1.3.2,2.1.3,3.3.5-.4,3.1-.9,6-1.3,9h-3c.3-3.1.7-6.1,1.1-9.5Z" fill="#d7d7d4"/>
        <path d="M1140.7,411.7c1.7.1,3.4.2,5.2.3,0,.4,0,.7,0,1.1-1.1.4-2.3.9-3.6,1.4v15.9c1,.3,2,.5,3.5.9v-13c.2,0,.4,0,.6,0v13.2h-6.6v-13.2c.3-2.3.5-4.5.8-6.8Z" fill="#f9f7e7"/>
        <path d="M1142.2,393.8c3.2,4.3,2.1,10.1,1.7,15.3-2.6-4.9-1.3-10.2-1.7-15.3h0Z" fill="#fbfaeb"/>
        <path d="M1143.7,429.4l-.8-14.1c2.6,2.1,3.1,10.2,1.6,14.1-.3,0-.5,0-.8,0Z" fill="#fbfbeb"/>
        <path d="M1104.9,362.7v-15.4c.9-.3,1.9-.5,3.3-.9v16.3h-3.3ZM1107.1,362.9c1.1-5.4.8-10,.3-15.2-2.3,2.2-2.5,11.7-.3,15.2Z" fill="#e4e2da"/>
        <path d="M1057,444.8c-2.1-3.5-1-10.7,1.9-13.1,2.9,4.3,2,11.4-1.9,13.1Z" fill="#e1dece"/>
        <path d="M1074.1,448.2v-7.3c3.7-2.1,3.3,3,5.7,2.9-.3,3.4-1.7,4.5-5.7,4.4Z" fill="#e2dfcf"/>
        <path d="M1060.3,450.7v4.2h-5.6v-4.8c2,.2,3.8.4,5.6.6Z" fill="#e3dfd0"/>
        <path d="M1104.1,401.8c-1.5-4.7-.6-9.3.5-14.1,1.8,1.8,1.5,11.1-.5,14.1Z" fill="#fdfded"/>
        <path d="M1064.5,501.9c1.6,2.1,2.2,12.5.9,14.7-2.3-2.9-2.8-11.6-.9-14.7Z" fill="#fcfcec"/>
        <path d="M1134.7,468c-1.7,2.4-.7,4.3,1.7,6.3-3.2.4-5.8.8-8.4,1.2.6-1.2,1.1-2.3,1.7-3.5.2,0,.4,0,.6.1,0-1.2-.2-2.4-.3-3.9h-9.7c-.1-1.2-.2-2-.3-3,3.2-.2,6.1-.3,9-.5.5-2.4.9-4.4,1.4-6.5,1.1,0,2.2.1,3.5.2.2,1.9.3,3.6.5,5.6,3.6-.5,7-1.1,10.7-1.6v5.6h-10.2Z" fill="#fdfcee"/>
        <path d="M1131.2,453.7v-4.1c1.1,0,2-.2,3.3-.3.1,1.4.2,2.6.3,4.2-1.2,0-2.3.2-3.6.3Z" fill="#fcfbee"/>
        <path d="M1093.3,476.9c-2.7-2.9-.4-12.1,0-16,2.6,1.7,2.1,2.1,1.9,5.5-.2,3.4-.4,6.9-.5,10.3-.4,0-.9,0-1.3.1Z" fill="#fcfcec"/>
        <path d="M1075.8,510.5c-.3-3.4-.6-6.9-1-10.6h3.8c-.5,3.7-1,7.3-1.4,10.8-.4,0-.9-.1-1.3-.2Z" fill="#f8f7de"/>
        <path d="M1028,473.1h-4.7v-12.7c1.6,0,3-.2,4.7-.3v13Z" fill="#e5e1d2"/>
        <path d="M1017,540.1h6.4c.4,1.9.8,3.8,1.2,6-2.7.5-4.9.9-7.2,1.3-2-2.3-1.4-4.7-.4-7.3Z" fill="#d9d9d6"/>
        <path d="M1047.5,509.1v3.6h-5.4c-.2-.8-.5-1.6-1-3.1,2.2-.2,4-.3,6.4-.5Z" fill="#e0dccd"/>
        <path d="M1032.3,478.7h3.8c.1,1.5.2,2.9.4,4.6-1.5.2-2.7.3-4.2.5v-5.1Z" fill="#e0ddcd"/>
        <path d="M1034.7,510v4.6c-1,.2-2,.4-3.3.6v-4.7c.9-.2,1.8-.3,3.3-.6Z" fill="#dfdccc"/>
        <path d="M1029.5,455.1h-4.8c.3-1.4.5-2.7.8-4.3,1.5.7,2.8,1.3,4.1,2,0,.7,0,1.3-.1,2.3Z" fill="#dcdbd5"/>
        <path d="M1023.9,443.3c.3-5.3.6-10.2.9-15.4h3.8c-.3,5.5-.5,10.6-.8,16.3-1.8-.4-2.8-.6-3.9-.9ZM1025,443.5c2.6-3.3,3.2-12.1.8-14.9-.2,4.7-.5,9.4-.8,14.9Z" fill="#e5e2d6"/>
        <path d="M1042.7,498.5c-.3-3.7-.5-7-.8-10.7h9.3v11.6c-2.8-.3-5.5-.6-8.5-.9Z" fill="#f4f0d8"/>
        <path d="M1096.1,368.4h2.4c0,1.1.1,2.1.2,3.3-1,0-1.6.1-2.6.2v-3.5Z" fill="#fbfbec"/>
        <path d="M718.4,657h7.9c.1,1.1.3,2.1.4,3.6-6.1.6-11.8,1.3-17.6,1.9-.4-1.5-.4-2.3-.2-3.9,1.9-.3,3.8-.6,5.7-.9,1.3-.2,2.5-.5,3.8-.7Z" fill="#e4e0d2"/>
        <path d="M704.6,680.3c-.5-1.5-.9-2.7-1.5-4.6,1.8-.3,3.2-.6,5.1-.9.1,1.9.3,3.2.4,4.9-1.5.2-2.7.3-4,.5Z" fill="#dadad5"/>
        <path d="M735.7,651c2.8,1.4,4.2,10.1,1.5,12-.5-4-1-8-1.5-12Z" fill="#faf9ea"/>
        <path d="M727,672.5c.3,1.6.5,2.5.8,3.7-1,.4-2,.7-3.5,1.2-.5-1.1-1-2.1-1.8-3.7,1.7-.5,2.9-.8,4.5-1.2Z" fill="#fbfbec"/>
        <path d="M713.1,674.4h4.3c0,1.1.1,2.1.2,3.3-1.4,0-2.5.2-4,.3-.1-1.2-.3-2.2-.5-3.6Z" fill="#fdfdee"/>
        <path d="M737.6,671.9c.5,1.2.8,2.1,1.3,3.5-1.5.2-2.6.3-4,.4-.4-1.1-.8-2.1-1.4-3.5,1.5-.1,2.6-.3,4.1-.4Z" fill="#fdfded"/>
        <path d="M783.5,731.6c.6-4.8,2.9-8.9,5.6-12.8-.7,4.7-3.1,8.8-5.6,12.8Z" fill="#fcfcec"/>
        <path d="M1107.1,362.9c-2.2-3.5-2-12.9.3-15.2.5,5.1.8,9.8-.3,15.2Z" fill="#f9f8e9"/>
        <path d="M1025,443.5c.3-5.5.5-10.2.8-14.9,2.4,2.8,1.8,11.6-.8,14.9Z" fill="#fcfcec"/>
      </g>
    </g>
  </g>
</svg>