<?xml version="1.0" encoding="UTF-8"?>
<svg xmlns="http://www.w3.org/2000/svg" version="1.1" xmlns:inkscape="http://www.inkscape.org/namespaces/inkscape" xmlns:sodipodi="http://sodipodi.sourceforge.net/DTD/sodipodi-0.dtd" xmlns:svg="http://www.w3.org/2000/svg" viewBox="0 0 359.5 216.2">
  <defs>
    <style>
      .cls-1 {
        fill: #bfe9bf;
      }
    </style>
  </defs>
  <!-- Generator: Adobe Illustrator 28.7.8, SVG Export Plug-In . SVG Version: 1.2.0 Build 200)  -->
  <g>
    <g id="svg1" inkscape:version="1.4.2 (f4327f4, 2025-05-13)">
      <sodipodi:namedview id="namedview1" bordercolor="#000000" borderopacity="0.25" inkscape:current-layer="layer1" inkscape:cx="341.8444" inkscape:cy="260.03549" inkscape:deskcolor="#d1d1d1" inkscape:document-units="mm" inkscape:pagecheckerboard="0" inkscape:pageopacity="0.0" inkscape:showpageshadow="2" inkscape:window-height="1017" inkscape:window-maximized="1" inkscape:window-width="1920" inkscape:window-x="1912" inkscape:window-y="-8" inkscape:zoom="0.51339147" pagecolor="#ffffff">
        <inkscape:page id="page1" x="0" y="0" width="126.81828" height="76.259201" bleed="0" margin="0"/>
        <inkscape:page id="page2" x="-27.314276" y="145.33257" width="0" height="0"/>
      </sodipodi:namedview>
      <g id="layer1" inkscape:groupmode="layer" inkscape:label="РЎР»РѕР№ 1">
        <path id="path101" class="cls-1" d="M162.5,186.5c-14.8-4.7-15.1-18-13.4-36.9-46.4,5.1-15-15.4-40.8-16.5-12.3,2.4-11.2-19.6-21.6-26.3-24.9-8-29.8-54.2-51.7-48.2-19.8.6-8.6-10.5,1-16.6,4.1-8.5,103.1-7.8,76,13.6-14.9,7.5-9.5,21.9-4.3,35.4,6.3,17.2,42,16.1,54.9,27.1,12.6,10,12.4,28.6,23.9,35.8,17.4,9.1-6.2,49.8-24,32.5Z"/>
        <path id="path102" class="cls-1" d="M310.5,196.1c-30.5-17.4-44.9-26.1-64.2-53-3.1-7.3-24.1-14.4-17.4-21.5,2.7-6.7,38.5,14,35.4,18.1,1.9,8.8,17.8,9.1,22.1,13.9,10.6,9.2,26.1,14.1,38.3,23.2,12.8,5.4,8.8,11.5,13.4,19.7,8.1,10-21.2,3.7-27.7-.4Z"/>
      </g>
      <sodipodi:namedview id="namedview1" bordercolor="#000000" borderopacity="0.25" inkscape:current-layer="layer1" inkscape:cx="540.5232" inkscape:cy="622.33212" inkscape:deskcolor="#d1d1d1" inkscape:document-units="mm" inkscape:pagecheckerboard="0" inkscape:pageopacity="0.0" inkscape:showpageshadow="2" inkscape:window-height="1017" inkscape:window-maximized="1" inkscape:window-width="1920" inkscape:window-x="1912" inkscape:window-y="-8" inkscape:zoom="0.51339147" pagecolor="#ffffff"/>
      <sodipodi:namedview id="namedview1" bordercolor="#000000" borderopacity="0.25" inkscape:current-layer="layer1" inkscape:cx="332.10525" inkscape:cy="248.3485" inkscape:deskcolor="#d1d1d1" inkscape:document-units="mm" inkscape:pagecheckerboard="0" inkscape:pageopacity="0.0" inkscape:showpageshadow="2" inkscape:window-height="1017" inkscape:window-maximized="1" inkscape:window-width="1920" inkscape:window-x="1912" inkscape:window-y="-8" inkscape:zoom="0.51339147" pagecolor="#ffffff"/>
      <sodipodi:namedview id="namedview1" bordercolor="#000000" borderopacity="0.25" inkscape:current-layer="layer1" inkscape:cx="316.5226" inkscape:cy="174.33091" inkscape:deskcolor="#d1d1d1" inkscape:document-units="mm" inkscape:pagecheckerboard="0" inkscape:pageopacity="0.0" inkscape:showpageshadow="2" inkscape:window-height="1017" inkscape:window-maximized="1" inkscape:window-width="1920" inkscape:window-x="1912" inkscape:window-y="-8" inkscape:zoom="0.51339147" pagecolor="#ffffff"/>
      <sodipodi:namedview id="namedview1" bordercolor="#000000" borderopacity="0.25" inkscape:current-layer="layer1" inkscape:cx="-73.043676" inkscape:cy="73.043676" inkscape:deskcolor="#d1d1d1" inkscape:document-units="mm" inkscape:pagecheckerboard="0" inkscape:pageopacity="0.0" inkscape:showpageshadow="2" inkscape:window-height="1017" inkscape:window-maximized="1" inkscape:window-width="1920" inkscape:window-x="1912" inkscape:window-y="-8" inkscape:zoom="0.51339147" pagecolor="#ffffff"/>
    </g>
  </g>
</svg>