<?xml version="1.0" encoding="UTF-8"?>
<svg xmlns="http://www.w3.org/2000/svg" version="1.1" xmlns:inkscape="http://www.inkscape.org/namespaces/inkscape" xmlns:sodipodi="http://sodipodi.sourceforge.net/DTD/sodipodi-0.dtd" xmlns:svg="http://www.w3.org/2000/svg" viewBox="0 0 1273.3 810.3">
  <defs>
    <style>
      .cls-1 {
        fill: #e7f4e7;
      }
    </style>
  </defs>
  <!-- Generator: Adobe Illustrator 28.7.8, SVG Export Plug-In . SVG Version: 1.2.0 Build 200)  -->
  <g>
    <g id="_Слой_1" data-name="Слой_1">
      <g id="svg1" inkscape:version="1.4.2 (f4327f4, 2025-05-13)">
        <sodipodi:namedview id="namedview1" bordercolor="#000000" borderopacity="0.25" inkscape:current-layer="layer1" inkscape:cx="1025.5332" inkscape:cy="561.94935" inkscape:deskcolor="#d1d1d1" inkscape:document-units="mm" inkscape:pagecheckerboard="0" inkscape:pageopacity="0.0" inkscape:showpageshadow="2" inkscape:window-height="1017" inkscape:window-maximized="1" inkscape:window-width="1920" inkscape:window-x="1912" inkscape:window-y="-8" inkscape:zoom="0.51339147" pagecolor="#ffffff"/>
        <g id="layer1" inkscape:groupmode="layer" inkscape:label="Р РЋР В»Р С•Р в„– 1">
          <path id="path78" class="cls-1" d="M106.8,806.8c3.7-32.5-69.3-94.3-78.7-47.6-8.1-38.7-46.7-39.9-5.8-50,48.2-10.2,24-38.5,49.7-25,13.4,6.8,19.6.4,22.4-8.9,12.4-8.9,73.7-32.7,40.5-60.1,36.4-31.2-48.1-19.8-22.3-80.3,5.4-6.4,12.1-6.9,12.1-.9,1.7,17.1,65.1,33.1,41-1.6-12.5-23.7,50-88.7,90.5-81.5,75.3,5,64.9-61.6,90.2-60.4,82.5,15.2,94.3-17.1,135.2-48.6,10.9-3.1,32.2-18.9,34-25.2,27.3-12.3,52.3-27.9,84.1-40.3,35.6-6.5,15.4-15.2,37.1-25.8,101.7-43.4-10.9-91.4,94.9-109.7,14.4,0,13.4-.8,12.7-6.8-1-19.7,71.5,27.2,89.7-28.3,37.2-15.9,31.3,30.6,88.7-29.5,7.7-11.9,13.3-7.1,24.2-13.9,11.3-10.9,32,16.2,38.9,5.3-7.9-13.1,39-22.3,43.2-9.3,0,9,16.9,8,26.9-1.5,30.8-11.4,74.6-70.4,101.2-49.3,61.9,4.8,9.4,74.3,76.4,83.1,27.3,4.1,62.2,64.2,9.8,57.6-44.5,2.3-11.1,34.4-35.2,42.9-29.2,10-15.9-9.6-49.6-2.3-.1,8.4-3.3,46.4,1.5,46.6,5.2.4,4.2,6.2-1.2,6-17.7,4.9,5.6,24.7-36.8,34.6-16.9,4.4-.9-13.6-20.9-10.6-17.7-1-9.9,8.4-23.8,9-4.4,0-8,1.6-8,6.8-.9,11.4,53.1,25.7,47.1,34.4-5.2,15.5-21.8-16.2-38.9-10.7-20.5,5.6,21.1,26,8.8,40.3-2.1,13.7-40.2-14.4-36.2,8.7,1.3,6,0,7.5-6.9,8.2-21.5,1.9-2.8,19.8,11.2,20.4,9.4,0,10.8,4.8-.4,7.3-12.1,3.9-20.5-11.3-32.6-10.4-34.5,3.6,39,43.5-1.4,39.6-28.1-.5,4.4,29.9-28.8,26.6-36.5,1.9-12.7,26.9-28.4,29.9-21.8,8.3-4.4,20.7-31.8,37.8-29.7,35.7-69.3,20.7-54.8,43.3,6.8,11.7,4.3,15-9.7,13-29.6-3.5-3.8,17.2-1.2,28.4,1.6,5.6,0,7.6-9.1,10.9-32.7,8.1,10.8,55.5-9.9,64.8-7.6,0-4.1-2.1-2.9-6.1,3.2-17.3-26.5-22.8-34.1-10.2-8,24-37.2-8.8-25.3-19.7,4.9-2.3,6.6-5.7,5.9-11.4-1-7.5-2.1-8-16.9-7.9-31.2,2.9-4.3-20-47.3-34.1-15-3.1-42.8-30.5-55.3-33.6-32.6,9.2-68.6,30.9-102.3,13.5-16.6-5.8-62.3,16.7-63.3,28.4,0,5.6-3.7,3.1-8.3,3.1-51.6,36.1-60.5,9.9-75.1,36.7-7.9,13.1-8.8,13.7-12.2,7.9-11.4-16.7-59.6-18.1-28.4,10.4,0,0,10.6,9.5,10.6,9.5-7.6,1.7-17.1,1.6-16.3,12.1-4.5,21.8-5,1.8-10.7-3.6-19.5,3.1,2,44.9-20.9,56.7-17.4,16.6-9.7,12.4-23.6,30.5-63.4,116.4-26.2-76.8-19.9-101.7,17.3-87.1-106.5,53.8-137.2,66.6-17.2,12.7-37.7-6.1-46.4,20.2-4.9,12.7-4,14,10,14,46.4-.7-6.1,64.5-19.7,51.7Z"/>
        </g>
      </g>
    </g>
  </g>
</svg>