<?xml version="1.0" encoding="UTF-8"?>
<svg xmlns="http://www.w3.org/2000/svg" version="1.1" xmlns:inkscape="http://www.inkscape.org/namespaces/inkscape" xmlns:sodipodi="http://sodipodi.sourceforge.net/DTD/sodipodi-0.dtd" xmlns:svg="http://www.w3.org/2000/svg" viewBox="0 0 536.8 506.3">
  <defs>
    <style>
      .cls-1 {
        fill: #bfe9bf;
      }
    </style>
  </defs>
  <!-- Generator: Adobe Illustrator 28.7.8, SVG Export Plug-In . SVG Version: 1.2.0 Build 200)  -->
  <g>
    <g id="_Слой_1" data-name="Слой_1">
      <g id="svg1" inkscape:version="1.4.2 (f4327f4, 2025-05-13)">
        <sodipodi:namedview id="namedview1" bordercolor="#000000" borderopacity="0.25" inkscape:current-layer="layer1" inkscape:cx="78.88717" inkscape:cy="180.1744" inkscape:deskcolor="#d1d1d1" inkscape:document-units="mm" inkscape:pagecheckerboard="0" inkscape:pageopacity="0.0" inkscape:showpageshadow="2" inkscape:window-height="1017" inkscape:window-maximized="1" inkscape:window-width="1920" inkscape:window-x="1912" inkscape:window-y="-8" inkscape:zoom="0.51339147" pagecolor="#ffffff"/>
        <g id="layer1" inkscape:groupmode="layer" inkscape:label="Р РЋР В»Р С•Р в„– 1">
          <path id="path95" class="cls-1" d="M199.2,482.2c-48-40.3-78.8-73.4-154.7-70.9-25.9,3.2-28,2.2-36.2-15.3-12-71.5-23.8-132.7,68.4-125.9,72.7-15.3,142,18.1,160.1-4,19.4-68.2,157-100,64.6-113.6-41.9-5.5-120.1-90.4-82.1-127.9,9.8-12.9,38.3-27.8,48.1-21.6,29.2,18.5,96.3-14.9,93.2,34.1,1.9,20.3,9.1,24.3,20.9,21.2,11-2.8,44.7-.9,78.7-7.2,82.5-16.4,91-13.7,40.9,35.7-8.7,5.8-22.1,12.4-10.6,20.6,29.8,25.5-24.9,42.5-37.9,56.8,2,77.6,102.4,44.9,55.3,91.7-14.8,21.3-16,16.4-27.2,39-13.1,43.9-75.9-19.3-96,9.2-27.8,116.5-109.2,82.2-137,177.2-6.6,31.3-30.4,30.3-48.5.9Z" sodipodi:nodetypes="ssssssssssssssssssssssssssssssssss"/>
        </g>
      </g>
    </g>
  </g>
</svg>