<?xml version="1.0" encoding="UTF-8"?>
<svg xmlns="http://www.w3.org/2000/svg" version="1.1" viewBox="0 0 1920 1080">
  <!-- Generator: Adobe Illustrator 28.7.8, SVG Export Plug-In . SVG Version: 1.2.0 Build 200)  -->
  <g>
    <g id="_Слой_1" data-name="Слой_1">
      <g>
        <path d="M0,575.7C0,383.8,0,191.9,0,0,63.4,0,126.7,0,190.1,0c2.2,2.1,4.3,4.2,6.5,6.4,2.1,1.4,4.2,2.9,6.4,4.3,5.3,6.7,10.5,13.4,15,19.1,11,.5,18.6.9,26.6,1.2,2.9-2.4,5.8-4.9,8.7-7.3,60.6-2,124.9-10.7,185.3-5,31.6,3,58.5,12.5,87,21.8,29.6,9.7,59.4,19.2,89,28.9.1.7.2,1.3.3,2,3.1,7.1,6.3,14.1,8.6,19.5,25.1,6.1,47.2,11.6,65.8,16.1,19.4,24.3,12.5,47.4,9.5,71.4-16.3,2.9-32.3,5.7-51.6,9.1,2.5,17.4-2.9,33.4-28.4,43.4,5.9,8.7,11,16.2,16,23.6-4.1,3.7-7.2,6.5-11.2,10.1v20.5c-9.4,1-18,2-27.7,3-1.4,4-3.1,8.8-4.8,13.7-.6-.3-1.1-.7-1.7-1-6.9,5.8-13.8,11.5-23.5,19.6-12.1,1.9-29.8,4.1-34.9,16.3-12.5,1.5-22.8,2.7-29.4,3.4-18.6,6.5-14.5,17.9-19.3,26.7-18.9,3.9-40.6-.3-55.9,9.7,1.1,15.6,10.8,30.5-3.1,44.4,34.9,37.8,68.9,74.7,102.9,111.7,4.3,11,22.9,11.4,32,19.3-9.4,33.8,37.5,55.5,50.9,84.9-29.9,10.2-44.8,12.9-56.5,11-3.6-14.7-15.6-26.2-29.7-38.6-30.9,5.9-61.3,11.7-92.7,17.7,1.9,9,3.5,17,5.4,25.7-6.5,1.3-12.3,2.5-15,3.1-17.9-3.8-18.2-20.2-39.2-19-4,15.2,16,27.2,10.1,42.4h-25.4c-10.5-6-21-11.9-32.5-18.5-2.8,2.5-5.4,4.8-8.6,7.7,17.4,13.1,7,31.2-1,45.7-9.5,17.1-29.6,25.4-49.9,35.7-20.5-17.2-40.5-34-61-51.2-32,10.4-62.8,20.4-93.5,30.4-3,5.2-5.9,10.1-8.9,15.3,19.9,23.1,39.7,46.2,60.6,70.4-32.8,1.7-65.2,3.5-98.1,3.5-11.8-17.5-15.2-37.7-21.1-56.6-6.7-21.5-13.3-43-19.6-64.5C20.7,656.6,12.3,615.9,0,575.7ZM231,411.6c-1.9-5.6-3.1-9-4.9-14.2-22.4,1.3-44.5,2.6-67.8,3.9.4,4.3.8,7.7,1.2,12.6,24-.8,46.7-1.5,71.4-2.3Z" fill="#ccebb1"/>
        <path d="M526.2,532.5c-34-36.9-68.1-73.9-102.9-111.7,13.9-13.9,4.2-28.8,3.1-44.4,15.3-10.1,37.1-5.8,55.9-9.7,4.8-8.8.7-20.1,19.3-26.7,6.6-.8,16.8-2,29.4-3.4,5.2-12.2,22.8-14.4,34.9-16.3,9.7-8.1,16.6-13.8,23.5-19.6.6.3,1.1.7,1.7,1,1.7-4.8,3.4-9.6,4.8-13.7,9.6-1,18.3-2,27.7-3v-20.5c4-3.6,7.1-6.4,11.2-10.1-5-7.4-10.1-14.9-16-23.6,25.4-10,30.9-26,28.4-43.4,19.4-3.4,35.4-6.2,51.6-9.1,2.9-24,9.9-47.1-9.5-71.4-18.6-4.6-40.7-10-65.8-16.1-2.4-5.3-5.5-12.4-8.6-19.5,41.5,9.7,112.5,12,151.9,4.2-23-3.6-47.9,1.4-71.7,1.5-25.4.1-55.2-.5-77.4-10.1,6.9-8.6,13.8-17.1,19.8-24.7C644,27.6,649.9,13.8,655.8,0c61.3,0,122.5,0,183.8,0,.6,6.1,1.2,12.2,2.1,20.6,13.2-3.7,25.5-7.1,37.8-10.5,16.3,7.3,31.4,14.1,44.8,20.1.8,5.7,1.3,9.3,1.9,13.7,20.3,6.1,40.7,12.3,60.8,18.4-2.3,14.3-39.2,15.6-32.2,30.1,28.7,10.5,56.8,23.5,87,31.9,23,6.4,65.6,19.7,89.5,14.4,2,0,4,0,6,0,2.2,2.8,4.4,5.7,6.6,8.5,0,.8-.2,1.7-.2,2.5-8.7-.1-18-1.7-25.6,4.8,4.9,11,10,22.4,14.8,33-9.6,8.5-17.2,15.2-25.2,22.2-8.5,1.2-17.2,2.4-27,3.8-4.8,15.1-9.7,30.4-14.9,46.5-2.5,1.6-5.9,3.8-10.2,6.6-5-.6-10.2-1.3-15.5-2,6.7-23.1,6.6-23.4-9.2-23-2.8,10-5.6,20.1-8.2,29.4-10.1,5.9-19.2,11.2-30.1,17.5-7.9-1-17.5-2.1-25.8-3.1-7.9-10.3-14.3-19.4-5.8-29.4-8.2-4.4-15.2-8.2-22.8-12.3-3.2-35.8,20.9-69.6,37.6-102.8,10.5.7,21.1,1.3,31.6,2,21.1.8,42.2,1.6,63.3,2.4,3.5,1.3,7,2.7,10.4,4,1.2,4.9,2.4,9.7,3.6,14.7h13c2.9-6,5.7-11.6,9.1-18.5-5.8-1-10-1.7-14.2-2.5-3.1-.7-6.2-1.5-9.3-2.2-13.5-3.2-26.9-6.4-41.7-9.9-2.5,4.1-4.2,6.9-5.9,9.7-9.5.1-19,.2-28.5.3-9.5-1.5-19-2.9-28.6-4.4,3.1-7,6.1-14.1,9.2-21.2-6.3-2.8-11.6-5-16.2-7-22.9,3.6-24.5,5.2-24.8,23.6-5.3-.6-10.5-1.3-15.8-1.9-.1.6-.3,1.2-.4,1.8,5.4.9,10.8,1.9,16.3,2.8-9.1,36.5-19.3,73.2-25.3,110.2-1.6,9.9-1.7,20.5-8.6,29.5-5.9,7.7-10.8,13.6-14.5,22.1-9.1,20.7-17.9,41.5-26.7,62.3,5.8,7.8,10.7,14.5,14.1,19-13.3,23.7-25.6,47.9-40.3,71.2-13.8,21.7-51.5,22.8-81.8,28.8,3.8,29,1.9,61.8,14.5,89.7,6.1,13.5,18.9,19.2,30,29.9,9.8,9.4,8.8,24.8,10.9,36,9.8,2,20.4,4.1,29.2,5.8,11.5-6.6,20.2-11.7,28.2-16.3q.5-11.6-12.4-14.4c-7.2,1.6-13.8,3-20.7,4.5-8.2-10.6-15.4-19.7-24.3-31.2,3-17.1,6.4-36.5,9.8-56,18.7-4.9,24.5-15,46.7-11,21.6,3.9,45,8.4,65.3,14.8-10.2,6-16.1,9.4-22.7,13.3,5.7,19.3,11.5,38.7,17,57.3-8.2,4.1-14,7.1-20.3,10.2,1.7,6.6,3.3,12.9,4.8,18.5,9.3,7.3,17.9,14,27.5,21.5,55-7.7,109.7-15.4,164-23,5-7.8,12-15.3,15.1-23.6,3.4-9,1.4-18,1.4-27.2,5.9-1.3,11-2.4,16.6-3.6,3.7,6.4,6.7,11.6,10.1,17.6,4.8-.2,9.2-.3,14.8-.5-4.8-20.7-9.3-40.3-13.9-60-12-5.2-16-18.1-35.9-14.2-.6-5.6-1.2-10.2-1.8-15.9-4.5-2.2-9.7-4.7-16-7.8-7.5,8.8-13.9,16.3-20.2,23.7-22.3-8.5-40.5-32-41.5-51,12.3-10.4,24.4-20.7,35.8-30.3-4.4-12.2-27.1-16.8-23.3-30.3,9.4-3.9,17.4-7.3,26.2-11-7.6-8.6-13.7-15.6-19.9-22.6-10.4-2.2-20.7-4.4-32.5-7,.5-8.2,1-15.7,1.5-23h32.1c1-4.3,1.8-7.4,2.7-11.3,6.5-.9,12.8-1.8,17.4-2.4,4.7,24.4,9.1,47.4,12.9,67.3,29.9,16.8,55.6,38.4,87.1,53.5,35.5,17,81,26.2,120.6,37.8,10.3-4.5,20.2-9,29.9-13.3-2.3-7.5-4.3-14.1-6.4-20.9,2.4-4.2,4.8-8.5,7.2-12.7-28.6-44.5-56.8-88.4-84.6-131.7-5.7-1.5-9.9-2.6-15.2-4,6.4-22.6-12.6-42.5-27-61.7-15.7-21-31.3-41.6-42-63.9h1.6s1.6,0,1.6,0c46.2,66.6,91.6,132.9,132.8,201,41,67.7,80.8,135.5,127.2,201.6-6.6,8.2-18.6,7.8-29.9,9.5-57.3,8.1-114.5,16.8-171.8,25-79.8,11.4-159.7,22.7-239.5,33.9-25.1,3.5-50.3,6.4-75.5,9.6,2-2.3,3.9-4.6,7-8.2-29.5-1.7-56.8-4.1-84.2-4.5-19.6-.2-39.3,2.4-58.9,3.8,0-2.1,0-4.3,0-6.4,9.9-2.4,23.1-2.7,28.9-9.5,6.5-7.7,2.8-20.8,2.8-29.4-13.6-10.1-25.3-18.8-40.5-30.1-14.1-3.2-33.7-7.6-53.4-12-27.9,1.3-48.6-5-74-11.8-9.4-1.5-18.8-3-28.2-4.5-27.5-4.2-56.9-2.9-82.5-13ZM825.1,79.6c22.1,9.9,44.2,19.8,66.2,29.7-17.4-14.8-41.5-22.5-66.2-29.7ZM772.5,75.1h48.6c-16.5-6.3-32.1-3.9-48.6,0ZM644.3,235.7c5.3-.3,9.6-.5,14.7-.7-.7-3.1-1.1-5.1-1.6-7.1-8-.7-15.2-1.8-13.1,7.9Z" fill="#f7f5f4"/>
        <path d="M1083.6,1080h-12.7c11-18.6,21.9-37.2,33.4-56.7-18.5-22.9-39.8-46.3-28.7-74.9-13.2-6.4-24.8-11.9-37-17.8-10.3.9-21.1,1.9-34,3.1-9,7.8-19,16.4-29.3,25.2,5.5,11.2,10.8,22,16,32.4,7.9,3,15,5.7,22.7,8.6-8.2,9.4-18,17.7-13.8,29.2,3.9,10.6,11.4,21.7,16.3,32.2-7.9,4.3-25.9,10.2-18.5,18.7h-31.7c-3.9-2.2-7.4-5.4-11.8-6.3-55.5-10.4-111.2-20.5-166.8-30.6-29.3-5.3-58.6-10.6-87.9-15.9-.9-.2-1.9.3-3.7.5-1.1,2.4-2.3,5-3.1,6.6-4.2,1-7.2,1.7-10.3,2.5,4.5,3.6,9.3,5.6,14.5,6.6,41.3,8,82.7,15.7,124.1,23.7,22,4.2,44,8.6,66,12.9h-53.9c-.7-.5-1.4-1.3-2.2-1.4-53.6-9.7-107.1-19.3-159.9-28.7-3.9,2.7-7.9,5.4-13.8,9.5,5.2,1.9,9.5,4.1,14.3,5.2,23.2,5.3,46.5,10.4,69.8,15.5h-263c31.5-12.2,65.6-20.6,98.8-30.3,34.2-9.9,64.7-23.3,97.6-34.6,1.7,2.5,3.4,5.1,5.3,7.8,13-4.2,28.8-3.5,37.9-13.2-1.5-1.7-3-3.4-4.7-5.4-13.3,3.7-25.9,7.2-38.5,10.8,3.1-1.8,6-3.9,9.4-5.3,57.9-24.7,115.8-49.2,174-74,0-1.8.4-3.2,0-4.5-12.6-37.6-25-75.3-38.1-112.8-7.6-21.8-16.3-43.5-24.5-65.2,0-10.1-.5-20.2-.2-30.3.3-12.2-6.1-22.3-19.1-30.6-.5-1.9-1-3.8-1.5-5.8-3.2-.2-5.7-.4-8.1-.5,224.5-37.8,452.8-64.4,678.2-99.7,8.8.3,17.6.7,25.8,1,22.6-3.6,44.8-7.1,67.8-10.8,2.7,7.1,5.3,13.9,7.9,20.8-11.5-2.4-22.9-4.8-36.8-7.8-2.1,1.3-6.3,3.9-9.8,6.1-1.3,15,7.5,18.4,40.1,16,2.7-2.9,6-6.4,9.3-9.9,13.1,31,28.8,61.5,41.5,92.5,6.2,15.1,12.2,31.1,10,47-2.1,14.8-10.8,30-16.6,44.3-2.9-4.1-5.7-8.2-8-11.5,5-13.4,9.6-25.7,14.7-39.3h-71.3c-11.7,10.3-25,21.9-38.2,33.6.8.6,1.6,1.2,2.3,1.8-5-.2-9.9-.5-15.3-.7-2.6,9.2-5.2,18.2-6.9,24.3,2.3,9,17.9,3.8,17.4,14.3-9.3-2.3-17-4.3-22.5-5.6,3-17,5.7-32,8.4-47l-3.9-.6c7.5-5.5,15-10.9,24-17.5-3.7-3.7-7.2-7.2-12.1-12.1-14.1,7.5-26.1,14-37.4,20v18.9h-18.8c-.6,13.4-10.4,26.3-3.9,41.1h16.3c-1.8,13.3-3.5,26.6-5.3,40,10.1,1.1,19.2,2.1,30.3,3.2,37.9-9.4,76-17.8,114.6-25.9-7.5,16.5-15.1,33.1-22.6,49.6-4.1-2.1-8.3-4.3-12.4-6.4-9.4,0-18.3-.4-27.7-1.2v-21c-8.6,1.7-15.2,3.1-21.2,4.3-1.1,10.6-2.8,11.1-15.5,17,9.3,2.6,13.9,3.9,19.7,5.5v27.5c.5,0,1,0,1.6,0v21.1c3.8,3.1,7.4,6.1,10.4,8.5,6.4,1.2,11.8,2.2,17.2,3.2-2.2,5.7-4.5,11.4-6.7,17.1-7-4.7-14.7-7.7-27.2-4.8-2.6,8.9-5.3,18.4-7.6,26.7,7.9,4.4,13.6,7.5,19.3,10.7-4.4,11.5-8.8,23-13.1,34.5-23-4.6-48.6-3.5-70.1-13.7,2.7-15.9,5.3-30.7,7.8-45.1-5.1-3.3-8.9-5.7-13.8-8.9-23.5,1-47.5,2-71.8,3.1-3.5,7-6.6,13.1-10.2,20.2,4.5,2.7,9.2,5.5,15.2,9-3.2,4.4-6.5,8.8-10.6,14.4-10.2-10.7-19.7-7-28.8-2.6-17-3.6-36-9.8-53.8-10.8-18.8-1.1-27.9,6.4-40.8,14.5-13.1-2.8-31-9.5-45.3-7.4-14.4,2.1-29.5,12-41.5,17.3-1.7,13.4-.8,26.2-8.5,38.8-7.5,12.4-18,24.2-26.8,36.2ZM1196.1,708c-23.4,9.9-57.3,9.7-68.7,35.7v23.4c-12,10.9-38.6,3.2-46.2,18.7,5.8,10.1-1,23.3,13.2,31.8,16.9.6,32.4,1.1,48.5,1.7v15.9c8.5,6.8,18.4,12.6,32.4,13.3,32.7-24.5,18.9-55.3,28.2-81.5-3.8-5.3-6.9-9.7-10-14,9-13.7,17.5-26.7,26.9-41-8.9-1.5-16.3-2.7-24.3-4ZM952.6,675.5c-8.9,32.7-13.8,65.8-17,99-1.6,16.1,10.5,31.8,18.1,46.8,8.4,16.5,16.8,33,25.1,49.4,10.3-1.2,21.6-2.4,33.9-3.8-5.6-11.7-12.6-23.5-15.5-35.8-2.2-9.2,1.8-16.4,6.3-24.9,4.5-8.7,9.2-17.5,16.7-25.2,6.4-6.6,17.5-11.3,22.3-18.2-14.3-3.9-28.2-7.7-42.2-11.5-15.6-24.7-8.4-55.8-47.6-75.9ZM1416.3,710.9c8.3-30.5,16.2-59.5,24.5-89.8-20.4-2-39.2-3.9-59.8-5.9-9.7,28.7-19.2,56.6-28.7,84.9,21.9,3.7,41.1,6.9,64.1,10.8ZM726.8,1021.3c78,15.5,153.6,30.6,230.5,45.9,2.3-6.1,4.1-10.8,6.3-16.6-73.5-13.4-146.2-26.7-216.8-39.6-6.8,3.5-11.8,6.1-20,10.3ZM957.9,1024c-57.1-9.8-111.7-19.1-165.1-28.3-6.3,2.9-11.4,5.3-19.4,8.9,27.1,10,58.7,13,88.6,17.8,30.5,4.9,61,9.7,91.5,14.5,1.4-4.2,2.6-7.7,4.4-13ZM745.8,1001.6c59.9-19.6,119.3-37.5,175.9-60.3-13.1-5.2-31.4,4.1-43.5,8-15.4,5-30.7,10-46,15.3-30,10.3-58.7,19.5-90.7,26.5,1.6,3.9,2.7,6.6,4.3,10.5ZM897.2,990.3c-23.7-3.5-45.5-6.8-68-10.2-1.8,3.7-3.2,6.6-4.1,8.4,7.2,3.5,13.3,6.5,19.4,9.5-.3.4-.7.9-1,1.3,34.7,5.4,69.5,10.9,104.2,16.3l1.7-3.4c-17-5.4-34-10.7-51.3-16.2-.2-1.5-.6-3.5-.9-5.7ZM1464.8,982.4c-2.1,2.3-3.8,4.1-5.5,6-1.3-.2-2.7-.4-4-.6-.7-11.6,7.1-22.7,7.5-34.5h-19.8c-3.6,17.3-7,33.6-10.7,51,7.9-.3,13.4-.4,19.1-.6,2-3.7,3.5-6.5,6-11.2,2.7,4.3,4.2,6.7,5.6,8.9,6.1.9,11.6,1.8,18.3,2.8,2.8-6.3,5.4-12.1,8.1-18.3-9.2-1.4-16.3-2.4-24.5-3.6ZM1118.2,656.3c-3.6,18.6-7.2,36.9-10.8,55.3,10.1.6,17.7,1.1,27.7,1.6,2.3-19,4.5-37.7,6.8-56.9h-23.7ZM1443.4,659.3c-4.9,16.8-9.6,33.1-14.9,51.5,8.6.4,15.7.8,24.1,1.2,5.2-18,9.9-34.4,14.8-51.2-9.8-.6-16.5-1-24-1.4ZM1517.6,642.2c-23.4-3.7-45.1-7.1-68.2-10.7-1.9,6.8-3.5,12.6-5.4,19.2,24.2,1.7,45.2,7.7,68.2,6.4,1.8-5,3.3-9.1,5.3-14.9ZM908.2,970.8c-11.2-1.1-20.3-2.1-30.8-3.1-2.2,4.3-4.1,8.1-6.9,13.6,32.6,3.8,61.6,12.3,94.8,14-3.4-6.6-5.8-11.2-8.2-15.8-7-1.1-13.5-2.2-20.7-3.4-2.5,2.6-4.7,4.9-7.4,7.7-7.1-1.3-14.5-2.7-21.7-4,.3-3.1.5-5.5.7-8.9ZM1327.7,944.7c28.4-1.1,54.8-2.2,82.2-3.3-.6-4.4-1-7.1-1.5-10.9h-67.4c-3.1-4.3-5.4-7.5-7.8-10.7l-3.7.4c-4,7.6-1.5,15.5-1.9,24.5ZM1079.4,921.3c27.2,1.9,50.9,3.6,75.2,5.4,1.6-4.9,2.7-8.5,4.3-13.6-25.2-1.7-48.9-3.2-73.8-4.9-2.1,4.8-3.7,8.3-5.7,13ZM1029.2,699c13.9,11.5,29.1,4.8,44.8,3.3,1.2-3.6,2.4-6.9,3.9-11.3h-43q-9-7.1-20.1-5.2c-1.2,6.9-2.4,13.7-3.7,21.3h13.4c1.4-2.5,2.7-4.7,4.7-8.1ZM1210.8,773.8c-1.3,9.6-2.6,19.5-3.9,29.7,9.1,1.3,15,2.2,22.4,3.2,3.3-10.3,6.3-20,9.5-30.2-4.7-2.2-9.3-4.4-13.4-6.4-5.2,1.3-9.1,2.2-14.6,3.6ZM1275.1,923.4c-7.7-1.8-17.3-4.1-28.7-6.8v21.9c16.8-.2,30.5,12.6,48.9,2.9-6.9-6.2-12.9-11.5-20.1-18ZM1226.9,720.2c-3.1,13.3-5.9,24.9-8.6,36.7h23.6c2.8-11.2,5.4-22,8.1-33.2-7.6-1.1-14-2.1-23.1-3.5ZM1155,943.7c-26.8-2-51.3-3.9-76.6-5.8v10.7c23.5,1.8,46.1,3.6,70,5.5,1.6-2.5,3.4-5.3,6.6-10.3ZM1351.4,852.5c-2.2,8.8-3.9,15.3-5.7,22.4,4.7,1.3,8.2,2.2,12.1,3.3,1.5-5.5,2.7-9.9,3.9-14.4,10.4.7,20.1,1.4,30.9,2.2.9-4.3,1.5-7.5,2.2-10.8-14.9-.9-28.2-1.8-43.4-2.7ZM1255.3,659.9c13.9,1.5,27.6,2.9,42.5,4.4v-14.3c-14.7-1-28.3-1.9-42.5-2.8v12.7ZM1427.5,901.1c1.8-13.6,3.4-25.6,5.1-38.6-6.6,1-11.3,1.7-16,2.4-1.5,11.2-2.9,21.5-4.3,31.8,5.4,1.6,9.1,2.6,15.2,4.4ZM1330.4,825.2c-14.7-1.1-28.5-2.1-42.2-3.1-1.9,4.2-3.1,6.9-4.6,10.4,14.7,2.2,28.7,4.3,42.9,6.4,1.5-5.2,2.5-8.9,3.9-13.7ZM1371.1,838.2c1.5-12.1,2.8-22.7,4.3-34.3h-15c-1.5,10.3-2.9,20.1-4.4,30.4,5,1.3,9.1,2.3,15.2,3.8ZM1454.3,897c2.3-11,4.3-20.3,6.4-30.4h-15.9c-1.9,9.2-3.7,17.9-5.6,27.4,4.3.9,8,1.6,15.1,3ZM1351.5,759.9c2.4-6.1,4.5-11.4,6.5-16.6,5.3.4,9.9.8,15.4,1.3,1.9-3.2,3.5-6,5.5-9.5-6-.9-10.4-1.5-14.9-2.2l.5,1.9c-5.6,1.7-11.3,3.4-18,5.4-1.5,5-3.1,10.6-4.9,16.6,3,1,5.7,1.8,9.8,3.2ZM1192.5,955.9c16.3,1,30.5,1.9,44.9,2.8,1.1-3.4,1.8-5.6,2.7-8.3-16.6-1-31.8-1.9-47.6-2.8v8.3ZM1527.9,706.9c4.3.7,7.6,1.1,10.9,1.6,1.3-6.9,2.4-12.9,3.8-20.3-5.5-.7-10.9-1.5-19.1-2.6,1.7,8,3,14.2,4.5,21.2ZM1403.4,602.7c-13.4-2.3-23.3.2-36.6,5.1,13.1,2.7,22.7,4.6,34.6,7.1.8-4.8,1.4-8.3,2-12.2ZM955.4,958.9c-10.9-2.4-21.2-4.7-32.7-7.2v8.3c9.9,2.2,19.6,4.4,29.9,6.7,1-2.9,1.8-4.9,2.8-7.8ZM1546,668.3c1.1-7.7,2.1-14.9,3.1-22.4-4-.4-6.5-.6-8.9-.8-2.5,7.8-4.9,15.1-7.5,23.2h13.3ZM1066.3,742v25.3c1.4.1,2.9.2,4.3.4,2.3-7.6,4.6-15.2,7.2-23.5-3.8-.7-6.5-1.3-11.4-2.2ZM1309.9,627.4c-2.6-4.3-4.3-7-5.8-9.4-7.7.8-13.8,1.4-20.8,2.1.4,3.4.7,6,1.1,10.2,8.6-1,15.9-1.8,25.4-2.9ZM1415.9,843.1c-1.5-5.4-2.7-10.2-4.1-15.3-5.1.9-9.5,1.6-15.4,2.6,2,4.9,3.7,9.1,5.6,13.7,5.2-.4,9.2-.7,13.9-1.1ZM1307.1,960.9c-5.5-1.7-8.9-2.7-10.5-3.2-5.2,4.4-9.2,7.8-13.3,11.2,3.5,1,8.3,2.3,14,3.8,3-3.7,5.8-7,9.8-11.8ZM1542.6,853.9c-3.8-1.1-6.9-2-10.8-3.1-1.5,3.6-2.7,6.5-4,9.6,3.6,1.2,6.3,2,9.8,3.2,1.8-3.5,3.2-6.3,4.9-9.6Z" fill="#f7f5f4"/>
        <path d="M766.6,686.1c2.4.2,4.8.3,8.1.5.5,2,1,3.9,1.5,5.8-25.8,3.3-51.2,7.2-76.6,11.5-23,3.9-58.3,5.4-77.9,14.3v8.4c15.3,3.7,33.5,11.3,48.8,3.6,13-6.5,13.4-13.3,32.1-13.6,1.6,5.6,3.1,11,4.7,16.5-8.7,3-15.6,5.3-22.8,7.8,3.7,10.4,7.2,20.2,10.8,30.6-11.3,2.5-20.1,4.5-29.5,6.5-1.7,8-3.3,15.8-5.3,25.1-5.7,2.6-12.9,6-21.2,9.9,1.7,3,3.2,5.7,4.4,7.8,5.1.6,8.7,1.1,11.2,1.4,14.5-4,27.9-7.7,38.3-10.6,5.7,2.5,8.8,3.8,11.8,5.1-2.6,6-5,11.4-7.7,17.6,4.4,1.2,8.5,2.4,12.6,3.6,17.8-12.8,11.8-26.8,6.5-41,10.8-1.2,20-2.1,29.5-3.1,10.9,9.7,21,18.8,32.9,29.5,6.3-1.9,13.2-4,20.1-6.1-1.2-.6-2.3-1.1-3.5-1.7v-62.3c8.2,21.7,16.9,43.4,24.5,65.2,13.1,37.5,25.5,75.2,38.1,112.8.4,1.3,0,2.8,0,4.5-58.2,24.7-116.1,49.3-174,74-3.4,1.5-6.3,3.5-9.4,5.3,0,0,0,0,0,0-32.9,11.3-63.5,24.7-97.6,34.6-33.3,9.7-67.3,18.1-98.8,30.3H0c0-23.1,0-46.2,0-69.3,16-6.7,32-13.3,48.3-20.2-2.8-5.6-8.7-12-9.2-17.9-.5-6.4,6-10.5,7.9-16.5,4.4-13.3-12.5-22.9-23.6-32.3,6.1-15.7,2.3-31.1,4.8-46.9,2.6-16.7,1.1-26-9.8-41.5H0C0,834.7,0,834,0,833.3c14.6-.7,29.2-1.7,43.8-1.9,8.6-.1,17.2,1.1,25.9,1.7-5.2.8-10.3,1.6-16.8,2.6,6.4,11.8,12,22,18.3,33.6,10-4.6,17.5-8,25.4-11.6-4.7-9.7-7.3-18.7-17.5-26.4,10.6-4.3,26.2-3,38.4-3.5,15.2-.6,30.4-1.2,45.5-2.4,27.7-2.2,56.3-4.9,82.6-11.4,58.3-14.5,114.3-35.8,170.1-54.2,56.5-18.6,110.3-37.6,171.6-47.7,59.4-9.7,119.3-17.9,179.3-26ZM398.6,928.7c-19-29.5-37.4-58.1-56.2-87.3-7.7,2.2-14.2,4.1-23.5,6.8,18.7,29.6,37.1,58.7,55.8,88.5,8.5-2.8,15.8-5.3,23.8-8ZM121.3,961.1c-8-20.2-14.7-37.3-21.1-53.6,4.6-3.8,7.5-6.3,10.3-8.7v-14.8c-5.7-4.7-11.5-9.6-18.2-15.1-7.2,2.1-13.1,3.9-18.9,5.6v14c4.1,2.7,8.2,5.4,10.8,7.1,3.6,25.5-.3,50.3,15.6,75,8.4-3.7,15.8-7,21.4-9.5ZM136.7,872.9c26.8-8.7,51.3-16.6,76.7-24.8-5-5.8-8.7-10-12.9-14.9-24.5,7.8-48.5,15.6-73.5,23.6,3.5,5.7,6.2,10.2,9.8,16.1ZM195.5,962.9c26-7.4,51.3-14.7,77.5-22.2-3.7-5.6-6.6-10-10.1-15.4-26.3,7.5-51.4,14.6-77.2,22,3.9,6.2,6.7,10.6,9.8,15.6ZM527.3,752.3c-11.4,2.9-20.7,5.3-31.5,8.1,8.7,14.4,16.5,27.3,24.8,41.1,9.2-3.2,16.5-5.7,25.7-8.9-6.2-13.1-12.1-25.8-18.9-40.2ZM645.7,896.7c6.5-2,12.4-3.9,19-5.9-11.4-18.5-22.2-36.3-33.3-54.4-6.6,1.6-13.3,3.2-21.7,5.2,12.2,18.6,23.4,35.8,36,55.1ZM472.9,814.5c9.3,16.1,18.3,31.5,27.5,47.3,8.4-2.4,14.5-4.1,20.8-5.9-8.5-16.1-16.8-31.8-25.3-47.7-7.9,2.1-15,4.1-23,6.3ZM252.8,970.9c6.9,10.8,13.8,21.5,20.8,32.5,8.2-2.2,15.4-4.2,23.7-6.5-9.4-12.7-18.2-24.7-29.1-39.3-6.3,5.5-10.1,8.7-15.4,13.3ZM223.8,973c7.9,13.5,15.4,26.2,23.3,39.7,6.8-2.3,12.3-4.2,19.2-6.5-9.3-13.4-17.9-25.9-27.2-39.3-5.7,2.3-9.9,4-15.3,6.1ZM518.6,889.1c6.7,11.1,12.6,20.9,18.6,31,7.2-1.3,12.8-2.4,19.1-3.5-6.5-11.7-12.6-22.5-19-34-7.3,2.6-12.3,4.3-18.8,6.6ZM550.4,942.1c3.9,8.4,7.3,15.7,10.9,23.7,9.4-2.8,16.8-5.1,25.3-7.7-4.6-8-8.7-15.1-13.3-23.1-8.3,2.6-15.2,4.7-22.9,7.1ZM393,952.7c18.9-5.4,35.6-10.3,53.6-15.4-3.4-4.7-6.1-8.4-9.2-12.7-16.6,6.7-32,12.9-48.6,19.5.7,1.5,2.2,4.4,4.2,8.6ZM430,832.7c-6.6,2.2-12,4.1-20.1,6.8,9.8,5.4,18,9.8,26.4,14.5,1.5,3.8,3.2,8.2,5,12.9,6.3-1.1,11.8-2.1,16.7-3,3.9,1.3,7.1,2.3,10.4,3.4,1-.6,2-1.2,3-1.8-3-4-5.9-8.1-8.7-11.8-6.2,2-10.8,3.4-16.4,5.1-5.5-8.8-10.6-16.9-16.3-26.1ZM147.8,829.9c-23.4-1.9-35.5,1.5-39.6,11.4,8,1.9,16.2,3.8,24.2,5.8,7.5-5.4,18.6-7.9,15.3-17.2ZM305.9,804.4c6.1,10.3,11.5,19.4,17.2,29.2,6.4-1.7,10.9-2.9,15.8-4.3-6.6-9.9-12.5-18.9-18.5-28-5.2,1.1-8.6,1.8-14.6,3.1ZM496.6,937.4c-1.9.5-3.9,1-5.8,1.5,7.8,16.9,15.6,33.8,23.7,50.6.4.8,4,.9,9.3,2-11.5-18.9-15.5-37.5-27.2-54.1ZM565.2,868.1c10.2-2.5,19.6-4.9,30.4-7.6-4.7-4.8-8.2-8.2-12.3-12.4-9.1,3.4-17.5,6.6-26.7,10,3.4,4,5.7,6.6,8.6,9.9ZM615.9,911.8c-5.3-8.2-9.8-15.2-14.7-22.9-5.9,2.2-9.8,3.7-14.4,5.3,4.7,7.4,9,14.2,13.4,21.3,5.5-1.3,9.3-2.2,15.7-3.7ZM453,809.9c8.5-3.8,14.6-6.4,21.4-9.4-2.3-4.3-4.4-8.1-7-12.8-8.2,2.2-15.2,4.2-23.5,6.4,3.1,5.4,5.7,9.9,9.1,15.8ZM456.5,914.5c4,8.3,7.2,14.9,10.7,22.1,6.4-2.4,11.8-4.3,18.5-6.8-4.6-6-8.5-11.2-12.7-16.7-5.4.5-9.8.9-16.5,1.5ZM646.8,740.7q11.1,27.6,24,25.2c-4.5-9.2-9-18.4-13.8-28.4-4.2,1.3-6.8,2.2-10.2,3.2ZM366.6,835.1c4.6,3.9,7.7,6.5,11,9.3,7.2-1.8,13.4-3.4,21-5.3-3.2-4-5.8-7.2-8.7-10.7-8.1,2.3-14.7,4.2-23.3,6.7ZM196.9,1035.2c-3.4-4.4-6-7.7-9.3-12.1-6.5,3.4-11.9,6.3-18.8,9.9,4.7,3.4,8,5.8,11.3,8.1,6-2.1,10.6-3.8,16.8-6ZM506,1048.8c-7.4,1.8-12.6,3.1-18.4,4.5.8,3.5,1.3,6.1,2,9.3,8-1.1,14.8-2.1,22.5-3.1-2-3.5-3.6-6.4-6.1-10.7ZM477.4,749.6c-8.7,2-16,3.6-24.7,5.6,2.2,3.3,3.7,5.6,5.3,7.8,8-2.2,14.7-4.1,22-6.1-.8-2.4-1.5-4.3-2.6-7.4ZM629.3,749.7c-7.5,1.7-14.3,3.3-23.6,5.4,4.5,3.4,6.9,5.3,9.7,7.5,6.5-2.2,12-4.1,18.1-6.2-1.5-2.4-2.7-4.2-4.2-6.7ZM641.4,906.3c-5.7,2.3-9.9,4-14.4,5.9,2.3,3.8,4.1,6.6,6.1,9.8,5.1-1.6,9.2-2.8,14.4-4.4-2.1-3.9-3.8-7-6.1-11.2ZM299.7,972.1c3.7-1.1,6.6-2,9.8-2.9-2.8-4.5-5.2-8.3-8.2-13.2-3.8,1.6-6.8,2.9-10.1,4.3,2.9,4,5.1,7.2,8.5,11.8ZM592.2,769.2c-1.9-3.4-3.4-6.3-5.4-10.1-4.7,1-8.7,1.9-13.9,3,2.7,3.9,4.5,6.6,6.8,9.9,4.5-1,8.2-1.8,12.6-2.8ZM474.7,982.7c-2.5-3.3-4.1-5.5-5.7-7.6-8.5.8-15.9,1.5-10.2,9.8,4.6-.6,9-1.3,15.9-2.2Z" fill="#fcfbfb"/>
        <path d="M1920,482.6v77.9c-9.8,30-21.4,60.4-25.1,91.1-3.9,32.4-1.5,64.3-8.4,96.7-30.9,1.4-61.6-1.9-90.8,4.6.1.8.2,1.6.3,2.4,20.6-1.7,41.1-3.3,62.9-5.1,10.7,10.9,20.8,21.2,29.6,30.2-5.7,23.4-4.4,47.3-5.7,70.9-1.4,25.5-4.9,50.7-8.8,76.1-7.8,50.8-16,101.6-23.8,152.4h-101.4c10.7-19.8,13.8-41.8,29.1-60.2,9.1-.4,15.3-.6,23-.9,7.2-19.1,14.1-37.7,21.5-57.5-18.6-6.8-36.6-13.3-54.6-19.9,7.5-20.3,14.9-40.5,23-62.7-31.4-4-80.2-11.7-108.6,2.1h0c-12.7-2.2-25.4-4.3-38-6.5,6.9-6.6-.9-10.4-6.1-15-4.6.2-9.1.3-15,.5,4.2-21.5,2.9-58.9,25-75.7,5.1.4,9.5.7,15.1,1.1,7.9-11.5,10.5-23.1,9-34.1-10.6-4.2-19.4-7.8-26.4-10.6-1.8-12.8-3.3-23.7-4.9-34.5h-24.8c-2.2-2.4-4.3-4.7-6.5-7-2.8-10-4.5-20.3-8.7-30-5.8-13.3-13.5-26.2-20.4-39.3,29.8,8.3,66.6,4.3,98.6,4.3,6.2-8.6,12.5-17.3,18.5-25.5,7.4-.4,12.6-.6,21-1,9.1-15.1,18.5-30.8,28.7-47.6-9-9.6-17.9-19-27-28.7-22,7.3-28.5-2.4-35.1-12.4-7.8,4.3-14.3,8-21.6,12.1,8.3,4,14.7,7,22,10.6-.4,5.5-.9,11.4-1.3,17.7-10.8,1-19.9,1.8-31.2,2.8v56.7c-8.4-.4-14.2-.7-22.7-1.2,5.2-22.3,10-43.2,15.1-65.4-7,.4-10.8.6-14.4.7-7.5,14-14.6,27.3-21.6,40.5-7.8-1.1-12.3-1.8-16.6-2.4-5.2,2.5-9.8,4.8-15.8,7.7,1.3,9.2,2.9,17.6.7,26.7-8.4-19.4-16.8-38.8-25.2-58.2,40.4-15.4,72.9-35,108.8-54.9,39.2-21.6,77.3-44.3,115.8-66.5,25.8,14.4,55.4,23.2,87.6,28.3,18.3,2.9,36.6,5.7,55,8.5ZM1764.8,681.7c-8.8,2-17.5,3.9-28.4,6.3-11.1,11.5-23.4,24.3-35.6,36.9,14.7,8.3,32.9,11.6,48.4,9.4,4.1-6.5,8.3-13.3,13.5-21.6,10.1,2.9,18.4,5.3,24.7,7,4.3,9.3,7.6,16.6,11,24h18.4c.3-24.6-4.9-46.9-30-67,.4-4.8.9-10.8,1.4-17.8-5.8-4.6-12.7-9.9-20.9-16.4,4.8-16.7,8.2-34.3-2.1-52.3-4-3-8.8-6.7-14.2-10.7-12.9,4.4-12.2,12.7-14.5,18.5,7.6,8.3,14.2,15.3,20.7,22.4-1.8.4-3.6.7-5.4,1.1,1.1,11.6,2.2,23.1,3.2,34.7.9,0,1.8,0,2.8,0-2.5,2.2-5.1,4.4-7.7,6.7,1.8,2,3.4,3.8,5.1,5.6h-28.2c-.7,1.2-2.3,4-5,8.7,15.6,1.5,29.1,2.9,42.6,4.2ZM1770.2,469.3c-15.3,9.2-29.9,17.9-44.8,26.8,4.4,3.5,8.6,6.8,12.5,9.9h19.1c8.7-6.8,16.9-13.2,25.9-20.2.5-2.3,1.3-5.4,2-8.7-5-2.6-9.8-5.2-14.8-7.8ZM1664.7,639.3c-4.2,18.2-7.8,33.5-11.5,49.6,6.8.6,10.6.9,15.2,1.4,3.1-12,6-23.2,8.4-32.7,3.8,1.6,7.8,3.3,14.3,6.1v-17.3c-8.1-2.1-16.3-4.3-26.5-7ZM1697.3,706.6c-7.8-1.8-15-3.4-23.7-5.4-3.1,10.3-5.9,19.6-8.9,29.5,7.7,1.1,14.5,2.1,22.9,3.4,3.4-9.6,6.4-18.1,9.7-27.5ZM1773.1,757.8c2.9-11.7,5.4-22.2,8.3-34.1-8.3-.3-13.1-.5-18.7-.7-3.2,11-6.2,20.9-9.2,31.3,6.3,1.1,11.7,2.1,19.6,3.5ZM1628.2,639.6c-2.2,17.3-4,32.3-6,48.1,4.9-.2,8.2-.3,12.4-.4-2.4-7.9,10.8-15.6-1.4-21.5,6-6.6,9.3-13.2,7.2-21.5-2.7-1-5.7-2.2-12.3-4.8ZM1714.4,676.5c-5.8-1.1-10-2-14.9-2.9-2.1,6.2-4,11.7-5.8,17.1-4.5.1-9,.3-13.6.4-.8,2.9-1.4,5.2-2,7.7,11.5-1.4,21.4-2.6,31.3-3.8,1.7-6.3,3.2-11.8,5-18.5ZM1746.1,628.7c-2.3-.3-4.5-.6-6.8-.9-11,9.9-4.7,22.3-9.8,33.4,5.4.8,8.7,1.3,12.6,1.8,1.4-12.1,2.7-23.3,4-34.4ZM1664.6,847.8c-1.7,5.7-3,10.2-4.5,14.9,7,1.3,11.8,2.1,17.5,3.2,1.3-5.4,2.4-9.8,3.7-14.9-5.6-1-10.3-1.9-16.8-3.2ZM1767,830.3c-1.2-.7-2.4-1.3-3.5-2-7.2,4-8,4.4-6.8,10.7h10.4v-8.7Z" fill="#f7f5f4"/>
        <path d="M773,642.7c0,2.1,0,4.3,0,6.4-6.9,1.2-13.9,2.3-20.5,3.4-11.8,8.9,3.1,15.7,2.6,23.2,7.7-.2,14.4-.4,21.1-.6-1.1,1.4-2.1,2.9-3.2,4.3-8.5,1.1-16.9,2.5-25.4,3.3-4.1.4-8.4-.5-12.6-.8,3-1.3,6.1-2.6,9.2-4-4.9-7.7-2.2-17.3-17.5-22.8-17.2,1.3-34.4,3.8-51.6,1-12.2-2-31.6-13.7-41.5-4.1,5.7,12.8,11.3,25.6,16.9,38.2,28.7-2.3,55.1-4.4,81.5-6.5-10,5.6-31.9,6.3-44.7,8.3-16.4,2.5-32.9,5.1-49.3,7.6-30.5,4.7-61.2,8.9-91.3,14.9-62,12.3-120.4,36-178.6,54.9-57.3,18.6-114.9,42.3-178.5,49C127.5,825,62.7,825.4,0,828.9v-4.3c11.4.8,13.6-4.8,15.9-10.4C10.8,798.9,5.4,783.6,0,768.3c0-64.2,0-128.4,0-192.6,12.3,40.2,20.7,80.9,32.4,121.2,6.2,21.6,12.9,43.1,19.6,64.5,5.9,18.9,9.3,39.1,21.1,56.6,32.9,0,65.3-1.7,98.1-3.5-20.9-24.3-40.7-47.3-60.6-70.4,3-5.2,5.9-10.1,8.9-15.3,30.7-10,61.5-20,93.5-30.4,20.5,17.2,40.5,34,61,51.2,20.4-10.3,40.5-18.7,49.9-35.7,8-14.4,18.4-32.6,1-45.7,3.2-2.9,5.9-5.2,8.6-7.7,11.5,6.6,22,12.5,32.5,18.5h25.4c5.9-15.2-14.2-27.2-10.1-42.4,21-1.3,21.3,15.2,39.2,19,2.8-.6,8.5-1.8,15-3.1-1.8-8.8-3.5-16.7-5.4-25.7,31.4-6,61.8-11.8,92.7-17.7,14.1,12.4,26,23.9,29.7,38.6,11.7,2,26.6-.8,56.5-11-13.4-29.5-60.3-51.1-50.9-84.9-9-7.9-27.7-8.3-32-19.3,25.6,10,55,8.7,82.5,13,9.4,1.4,18.8,3,28.2,4.5-11.7,1-23.4,2-37.3,3.2-2.3,1.2-6.5,3.3-8.4,4.2-10.9,1.1-19.1,2-29,3,13.5,27.8,38.6,54.7,72.7,73.2,39.3,21.4,91.7,11.5,138.1,9.1ZM565.6,686.1c20.1-5.4,38.7-10.5,58.3-15.8-4.2-5-7.2-8.6-10.5-12.7-18.4,5.5-35.4,10.5-52.4,15.6,1.7,4.8,3,8.3,4.6,12.9ZM531.3,679.3c-16.9,4.5-31.4,8.4-47.1,12.6,1.3,4.5,2.5,8.4,3.9,13.4,17.4-5.3,33-10.2,49.7-15.3-2.1-3.5-3.7-6.2-6.4-10.7ZM434,707.9c-9.8,2.7-20.7,5.6-32.6,8.9,2.5,3.4,3.8,5.3,4.7,6.4,16.9-3.8,32.8-7.4,46.9-10.6,1.7-6,3.3-11.4,5-17.4-10.7,2-20.4,3.7-30.1,5.5-1,1.1-2.1,2.2-3.1,3.3,2.8,1.2,5.5,2.4,9.1,3.9ZM397.8,727.8c-3.5-5.8-6.6-10.7-9.8-15.9-7.6,1.3-13.5,2.4-21.9,3.9,3.1,6.3,5.8,12,8.9,18.2,8.2-2.2,14.3-3.9,22.8-6.2ZM500.9,678.1c-5.2-6.9-9.3-12.4-14.1-18.8-5.4,1.6-9.4,2.7-13.7,3.9,3.2,6.3,5.9,11.6,8.9,17.4,6.2-.8,11.5-1.6,18.9-2.6ZM523,665.6c-2.5-4.4-4.4-7.7-7-12.2-4.4,1-8.2,1.8-12.3,2.7,2.1,4.9,3.7,8.5,5.5,12.9,4.7-1.2,8.4-2.1,13.7-3.4ZM205.2,742.1c5.2-6.4,19-5.4,14-15.6-6.7,2.1-12.5,3.9-18.3,5.8,1.3,3,2.2,5,4.3,9.8ZM417.1,685.3l-4.9.7c1.2,5.3,2.3,10.7,3.9,17.8,10.3-7.8,5-13.2,1-18.5Z" fill="#fcfbfb"/>
        <path d="M1920,32.5v95.2c-71.7-6.7-143.3-13.5-214.9-20.4-1.6-27.1.7-53.6-1.3-80.1-1.8,0-3.6,0-5.4,0v79.2c-86.5-6.8-171.8-16-256.9-28.5,0-.7,0-1.5,0-2.2,7.3-9.6,7.7-19.9,6.3-30.4.4-3.8.9-7.6,1.6-13.7,37,4.7,72.1,9.1,109.1,13.8C1564.1,30.1,1569.4,15.1,1574.7,0c101.4,0,202.8,0,304.2,0,5.7,4.2,11.5,8.3,19.9,14.5-1.5,6.3-3.5,14.7-5.5,23.2-1.2,0-2.5-.1-3.7-.2,1.4,2.5,2.7,5.1,5.2,9.7,9.4-5.5,17.4-10.2,25.3-14.8ZM1615.8,85.8c8.8,1.4,16.5,2.7,24.9,4.1.5-5.4.8-9.4,1.2-13.4-7.2,1.1-13.7,2-22,3.2-.6,1-2.1,3.1-4.1,6.2ZM1902.2,122.9c1.1-1.1,2.3-2.2,3.4-3.2-4.2-2.3-12.2-8.8-17.3-6.6.2,2.2.5,4.5.8,7.1,4.7,1,8.9,1.8,13,2.7Z" fill="#f7f5f4"/>
        <path d="M1083.6,1080c8.8-12,19.2-23.8,26.8-36.2,7.7-12.6,6.8-25.5,8.5-38.8,12-5.4,27.1-15.2,41.5-17.3,14.2-2.1,32.1,4.6,45.3,7.4,13-8.1,22-15.5,40.8-14.5,17.8,1,36.8,7.2,53.8,10.8,9.1-4.4,18.6-8.1,28.8,2.6,4.2-5.6,7.4-10.1,10.6-14.4-5.9-3.5-10.6-6.3-15.2-9,3.6-7.1,6.7-13.2,10.2-20.2,24.3-1,48.3-2.1,71.8-3.1,4.9,3.2,8.7,5.6,13.8,8.9-2.5,14.5-5.1,29.3-7.8,45.1,21.4,10.2,47,9.1,70.1,13.7-3.1,7.9-6.2,15.9-9.2,23.8-2.5,5.2-5,10.5-7.7,16.1,7.3,1,11.3,1.5,15.1,2,1.8-1.8,3.4-3.5,5.1-5.1,4-3.5,8-7,12.8-11.2,4.1,1.2,8.2,2.4,13.2,3.9-1.3,5.7-2.4,10.9-3.7,17,5.2,3.2,10.6,6.5,16,9.8,10.6,2.9,21.1,5.8,31.7,8.6h-22.2c-14.5-4.1-29.1-8.1-42-11.8-2.4,5.1-4,8.4-5.6,11.8h-123.6c-39.2-9.8-80.2-16.6-120.4-24.4-6.4,8.3-12.7,16.3-19,24.4h-139.4ZM1299.7,998.8c-1.5.6-3.1,1.1-4.6,1.7-1.9,3.2-3.9,6.4-6.2,10.1-4.5-.2-8.4-.5-12.1-.7-1-3-1.7-5.2-2.5-7.9-12.7,2.1-25.3-5-34.9.8-1.1,6.4-1.9,11.3-2.8,16.6-11.9-1.6-20.9-2.9-32.4-4.5.4,6.4.7,10.1.9,13.6,11.4,2.9,21.2,5.4,31.6,8,8.6-5.3,17.2-12.8,29.8-12.7,11.6,0,23.6,6.6,33.2,10.4,25.4,10,48.8,14.7,77.3,19.8-.1-.5-.2-1.1-.3-1.6,7.4-.9,14.9-1.8,25.2-3.1-2.6,4.7-3.7,6.7-5.2,9.4,16-1.8,14.9-10.4,18.1-16.5-9.6-10.6-15.1-11.5-31.8-11.1-14.1.4-25.5-.7-39.5-2.8-12.1-1.8-22.6-3.1-29.8-10.7-6-6.4-6.9-12.5-14-18.7Z" fill="#eaf2e0"/>
        <path d="M1473.2,1038.8c3.1-7.9,6.2-15.9,9.2-23.8,4.4-11.5,8.8-23,13.1-34.5,5.2-10.9,10.3-21.8,15.5-32.7,2.2-5.7,4.5-11.4,6.7-17.1,9.4-19.5,18.7-39.1,28.1-58.6,7.5-16.5,15.1-33.1,22.6-49.6,5.2-12.3,10.3-24.6,15.5-37,5.8-14.3,14.5-29.5,16.6-44.3,2.3-15.8-3.8-31.8-10-47-12.7-31-28.4-61.5-41.5-92.5-.9-1.5-1.8-3-2.8-4.5-2.6-6.8-5.2-13.7-7.9-20.8-23.1,3.7-45.3,7.2-67.8,10.8-8.2-.3-17-.6-25.8-1-6.3-2.1-12.6-4.2-18.9-6.4-46.3-66.1-86.1-133.8-127.2-201.6-41.3-68.1-86.7-134.4-132.8-201-7.3-10.1-14.6-20.3-21.9-30.4-2.2-2.8-4.4-5.7-6.6-8.5-23.6-28.1-50.1-54.9-83.1-78.3C1019.9,35.8,979.2,18.4,937.8,0c11.6,0,23.2,0,34.9,0,15.8,7.9,31.6,15.9,47.5,23.8,6.2,3.1,12.7,5.8,19.1,8.7,0,0,0,0,0,0,10.6,7.9,21.3,15.8,31.9,23.7,2,1.5,4.1,3,6.1,4.5,14.8,12.2,29.6,24.5,44.5,36.7,2,2.2,4,4.4,6,6.7,29.1,35.7,56.8,71.2,82.8,108,13.7,19.5,27.4,39,41.1,58.4,2,2.9,4.1,5.8,6.1,8.8,17.2,28.5,34.2,57.1,51.7,85.5,10.9,17.8,22.6,35.4,33.9,53.1,18.9,33.8,39.4,67.2,59.7,100.7,14.2,23.3,29,69.9,79.9,52.9h-.2c7.1-.5,14.4-.7,21.4-1.7,14.1-2.1,28-4.6,42-6.9l6.7,4.5c8.4,19.4,16.8,38.8,25.2,58.2.9,1.5,1.8,2.9,2.7,4.4,6.9,13.1,14.6,26,20.4,39.3,4.2,9.7,5.9,20,8.7,30,2,10.3,4.5,20.5,6,30.8,3.1,21-10,40.1-15.5,60.1-3.3,9.3-6.6,18.6-10,28-5.3,12.3-10.6,24.5-15.9,36.8-3,4.5-6.9,8.8-9,13.4-25.8,57.5-51.3,115.1-76.8,172.7-5.1-.7-10.3-1.4-15.4-2.1Z" fill="#b3bbcb"/>
        <path d="M1767.9,941.5c18,6.5,36,13.1,54.6,19.9-7.4,19.8-14.4,38.4-21.5,57.5-7.7.3-13.9.6-23,.9-15.3,18.4-18.4,40.4-29.1,60.2h-85.5c4.1-2.1,8.2-4.2,12.7-6.6,2.2-12.8,4.5-25.7,6.7-38.6-1.3-.2-2.7-.4-4-.7,8.7-8.4,24-13.3,25.7-25.6,1.5-10.7,7-21.1,11.4-33.8-12.4-1.3-21.5-2.3-29.5-3.1-10.6,18.8-20.1,35.4-29.5,52.1-13.7-2.9-27.4-5.8-41.2-8.7-9.5-2.2-19-4.3-28.6-6.5-2.1-.7-4.2-1.4-6.3-2.1-11.3-3.4-22.5-6.9-33.8-10.3-18,9.3-17.1,24.8-28.3,35.5h-20.2c13.4-31,26.3-61.1,39.6-91.9,3.3-.8,7.2-1.7,11-2.7-5,14.2-9.9,28.3-15.5,44.2,24.5,4.8,48.5,9.5,72.5,14.2,3.1-1,6.3-2,10.8-3.5,2.8.6,7.2,1.6,8.2,1.8,6.9,5.2,11.6,8.8,16.4,12.4,1.7-.3,3.3-.6,5-.9,2.5-7.3,5-14.6,7.5-21.8-3.7-2.8-6.8-5.2-8.4-6.4v-31.3h29.6c3.9-3.4,7.4-6.4,11.2-9.6,18.2,8.2,34.3,15.4,48.2,21.6h22.8v-10.7c3.1-1.8,6.7-3.8,10.4-5.8Z" fill="#eaf2e0"/>
        <path d="M1920,577.9v435c-.9.8-2.6,1.6-2.7,2.5-2.4,21.5-4.6,43.1-6.8,64.6h-53.9c10.8-84,29.4-168.1,34.4-252.3,2.5-42.6,3.8-85.2,5.8-127.7,2-41.9,10.3-81.1,23.2-122Z" fill="#f7f5f4"/>
        <path d="M1574.7,0c-5.3,15.1-10.6,30.1-16,45.4-37.1-4.7-72.1-9.1-109.1-13.8-.7,6.1-1.1,9.9-1.6,13.7-3-.1-5.9-.3-8.2-.4-1.8,11-6.4,21,1.9,30.7,0,.7,0,1.5,0,2.2-56.6-3.3-114.2-17.5-169.3-27-57.9-9.9-115.9-19.7-173.9-29.4-3.2,7.6-6.8,14.6-11.7,21.8,1.5-10.4,3-20.8,4.3-29.8-6.9-5.6-11.9-9.6-16.9-13.6,77.1,0,154.2,0,231.3,0,29.7,5.3,59.4,10.5,93.1,16.5-1.9-7.3-3.1-11.9-4.4-16.5,38,0,76,0,114.1,0,11.7,11.5,35.8,11.6,55.3,14.8,2-6,3.4-10.4,4.9-14.8,2.1,0,4.2,0,6.3,0ZM1410.3,55.6c-70.8-12-139.5-23.6-208.6-35.2-1.5,5.4-2.7,9.5-4.2,14.8,69.9,11.9,138.6,23.7,208,35.5,1.7-5.4,3.1-9.8,4.8-15.1ZM1398.3,29.1c-59.8-8.9-117.1-17.4-175.6-26.2.4,5.7.7,9.5,1.1,14,56.8,8.6,112.7,17.1,169.2,25.6,1.9-4.7,3.3-8.4,5.3-13.5ZM1556.7,26.3c-40.5-5.9-79.8-11.6-119.9-17.4-1.5,4.5-2.8,8.2-4.5,13.3,39.8,5.7,78.6,11.3,118.1,17,2.1-4.3,3.7-7.5,6.3-12.9ZM1111.4,18.3c25.4,3.7,48.1,7.1,71.4,10.5,2.3-4.7,3.9-8,6.5-13.3-24.2-3.7-47.2-7.3-71.3-11-2.3,4.9-4.2,8.9-6.6,13.8Z" fill="#f0f0f0"/>
        <path d="M1131.3,138.6c-23.9,5.2-66.6-8-89.5-14.4-30.2-8.4-58.3-21.4-87-31.9-7-14.4,29.9-15.7,32.2-30.1-20.1-6.1-40.5-12.2-60.8-18.4-.6-4.4-1.1-8-1.9-13.7-13.4-6-28.6-12.8-44.8-20.1-12.3,3.4-24.6,6.8-37.8,10.5-.8-8.3-1.5-14.4-2.1-20.6,29.6,0,59.1,0,88.7,0,40.2,18.1,80.7,33.4,115,57,35.7,24.5,60.9,52.7,88.1,81.6Z" fill="#ccebb1"/>
        <path d="M998,1080c-7.4-8.5,10.7-14.4,18.5-18.7-4.9-10.5-12.4-21.7-16.3-32.2-4.2-11.5,5.6-19.8,13.8-29.2-7.7-2.9-14.7-5.6-22.7-8.6-5.1-10.4-10.5-21.2-16-32.4,10.2-8.8,20.3-17.4,29.3-25.2,12.9-1.2,23.7-2.2,34-3.1,12.2,5.9,23.7,11.4,37,17.8-11.1,28.7,10.2,52,28.7,74.9-11.5,19.5-22.5,38.1-33.4,56.7h-72.9Z" fill="#eaf2e0"/>
        <path d="M1657,1023.7c9.4-16.6,18.9-33.3,29.5-52.1,8,.8,17.1,1.8,29.5,3.1-4.5,12.7-10,23.1-11.4,33.8-1.7,12.2-17,17.2-25.7,25.6,1.3.2,2.7.4,4,.7-2.2,12.9-4.5,25.8-6.7,38.6-4.5,2.3-8.6,4.5-12.7,6.6h-31.7c.7-2.4,1.5-4.8,2.7-8.6-10.2-1.3-19.9-2.6-33-4.2,2.1,5.5,3.6,9.2,5,12.8h-31.7c2.6-4.7,5.2-9.3,8.5-15.2-17.4-3.6-34.1-7-51.2-10.6-3,6.4-5.5,11.8-8,17.1-5.4-3.3-10.8-6.6-16-9.8,1.3-6.1,2.5-11.2,3.7-17-5-1.5-9.1-2.7-13.2-3.9-4.8,4.2-8.8,7.7-12.8,11.2,1-3.7,2-7.3,2.9-11,25.6-57.6,51.1-115.1,76.8-172.7,2.1-4.7,6-9,9-13.4,2.2,3.6,4.4,7.3,6.5,10.9-6.3,15.9-12.7,31.7-19,47.6-4.2,7.9-8.4,15.9-12.7,23.8-3.8.9-7.7,1.9-11,2.7-13.3,30.8-26.2,60.9-39.6,91.9h20.2c11.2-10.8,10.3-26.3,28.3-35.5,11.3,3.4,22.5,6.9,33.8,10.3-9.7-.6-19.4-1.1-29.9-1.7-2.2,5.4-4.3,10.7-6.4,16.1,12.6,2.2,23.8,4.2,35.6,6.3,2.6-6.9,4.8-12.8,7-18.6,9.5,2.2,19,4.3,28.6,6.5-2,2.4-4.1,4.8-7.2,8.5,13.7,4.1,26.3,7.8,39.5,11.7,3.6-4.6,6.3-8.1,8.9-11.5Z" fill="#f7f5f4"/>
        <path d="M1920,132v222.9c-19.4,11.4-38.8,22.8-59.9,35.3-11-20-6.1-39.8-1.9-60.7,4.4-21.8,8.9-43.6,12-65.6,6.4-45.2,10.3-90,21.6-134.7,10.9,1,19.6,1.9,28.2,2.7Z" fill="#f7f5f4"/>
        <path d="M655.8,0c-5.9,13.8-11.9,27.6-18.2,42.3-6.1,7.5-13,16.1-19.8,24.7-1,0-2,0-3,0-30.3-10.1-60.5-20.2-90.7-30.2-27-9-51.2-18.4-81.4-20.8-63.1-5.1-125.9,3.1-189.1,3.3C256.6,12.9,259.8,6.4,263,0c131,0,261.9,0,392.9,0Z" fill="#ccebb1"/>
        <path d="M1920,132c-8.6-.8-17.3-1.7-28.2-2.7-11.3,44.7-15.2,89.6-21.6,134.7-3.1,21.9-7.7,43.7-12,65.6-4.2,20.9-9.1,40.6,1.9,60.7,21.2-12.5,40.5-23.9,59.9-35.3v6.5c-17.6,10.2-35.3,20.3-52.7,30.7-15.4,9.1-30.5,18.5-45.7,27.8-2.1,1.3-4.1,2.7-6.2,4-11.5,6.6-23,13.1-34.5,19.7l-3.5,2.2c-38.5,22.3-76.6,44.9-115.8,66.5-35.9,19.8-68.4,39.5-108.8,54.9l-6.7-4.5c23.4-3,40.9-12.8,57.2-23.8,22.2-12,44.7-23.7,66.4-36.1,19.6-11.3,38.2-23.5,57.2-35.3,42.7-24.7,85.3-49.4,126-73-3.3-9.2-7.8-16.9-7.5-26.4.3-10.9,2.8-22,4.7-32.9,3.9-23,8.6-45.9,13.2-68.8,9-45.5,12.8-91.4,18.1-137.2-27.6-6.7-62.1-6.2-91.1-8.8-32.7-2.9-65.4-5.9-98.1-8.9-65.6-6.1-131.1-12.9-196.2-20.7-131.8-15.8-261.1-42-391-63.7-10.4,10.9,4.7,26.7,10.8,37.1,7.5,12.8,14.4,25.9,12.2,39.9-2-2.2-4-4.4-6-6.7,1.8-10.7-6.2-19.3-13.1-28.2-3.9-7.1-7.7-14.2-12.5-22.9-5.7,4.5-9.1,7.2-12.5,9.9-2.2,1.5-4.3,3-6.5,4.5-2-1.5-4.1-3-6.1-4.5,4.2-3.6,8.5-7.2,12.7-10.8,1-.7,1.9-1.3,2.9-2,4.9-7.3,8.5-14.2,11.7-21.8,58,9.7,116,19.5,173.9,29.4,55.2,9.5,112.7,23.6,169.3,27,85.2,12.6,170.4,21.7,256.9,28.5V27.3c1.8,0,3.6,0,5.4,0,2,26.4-.3,53,1.3,80.1,71.6,6.9,143.3,13.7,214.9,20.4v4.3Z" fill="#d1d5df"/>
        <path d="M1425.9,580c6.3,2.1,12.6,4.2,18.9,6.4-225.4,35.2-453.7,61.9-678.2,99.7-59.9,8.2-119.8,16.3-179.3,26-61.3,10-115.1,29-171.6,47.7-55.8,18.4-111.8,39.7-170.1,54.2-26.3,6.5-54.9,9.3-82.6,11.4-15.1,1.2-30.3,1.8-45.5,2.4-12.2.5-27.8-.8-38.4,3.5-3.1.6-6.3,1.2-9.4,1.8-8.6-.6-17.3-1.8-25.9-1.7-14.6.2-29.2,1.2-43.8,1.9,0-1.4,0-2.9,0-4.3,62.7-3.5,127.5-4,189.6-10.5,63.5-6.7,121.2-30.3,178.5-49,58.2-18.9,116.6-42.7,178.6-54.9,30-5.9,60.8-10.1,91.3-14.9,16.4-2.6,32.9-5.1,49.3-7.6,12.8-2,34.7-2.7,44.7-8.3,1-.6,2.1-1.2,3.1-1.8,4.2.3,8.5,1.2,12.6.8,8.5-.8,16.9-2.2,25.4-3.3,24.9-3.6,49.9-7,74.8-10.9,20.6-3.2,41-7.1,61.5-10.6h-.1c25.2-3.1,50.4-6.1,75.5-9.6,79.9-11.2,159.7-22.4,239.5-33.9,57.3-8.2,114.4-16.9,171.8-25,11.3-1.6,23.4-1.2,29.9-9.5Z" fill="#d1d5df"/>
        <path d="M1821.6,419.9c15.2-9.3,30.3-18.7,45.7-27.8,17.4-10.3,35.1-20.5,52.7-30.7v116.9c-8.2-1-16.4-2-21.8-2.6-27.4-17.6-59.2-32.7-76.6-55.8Z" fill="#f7f5f4"/>
        <path d="M0,835.4h18.4c10.9,15.6,12.4,24.8,9.8,41.5-2.5,15.8,1.3,31.2-4.8,46.9,11.1,9.4,28,19,23.6,32.3-2,5.9-8.4,10-7.9,16.5.5,5.9,6.4,12.3,9.2,17.9-16.4,6.8-32.3,13.5-48.3,20.2,0-58.4,0-116.9,0-175.3Z" fill="#ccebb1"/>
        <path d="M887.1,1080c-22-4.3-43.9-8.7-66-12.9-41.3-7.9-82.7-15.7-124.1-23.7-5.2-1-10-3-14.5-6.6,3.1-.7,6.2-1.5,10.3-2.5.8-1.7,2-4.3,3.1-6.6,1.8-.3,2.9-.7,3.7-.5,29.3,5.3,58.6,10.6,87.9,15.9,55.6,10.1,111.3,20.2,166.8,30.6,4.5.8,7.9,4.1,11.8,6.3h-79.2Z" fill="#e5e5e5"/>
        <path d="M1920,577.9c-12.9,40.9-21.2,80.1-23.2,122-2,42.6-3.3,85.2-5.8,127.7-5,84.3-23.6,168.3-34.4,252.3h-6.3c7.9-50.8,16-101.6,23.8-152.4,3.9-25.3,7.4-50.6,8.8-76.1,1.3-23.7,0-47.6,5.7-70.9-8.8-9-18.9-19.3-29.6-30.2-21.8,1.8-42.3,3.4-62.9,5.1-.1-.8-.2-1.6-.3-2.4,29.2-6.5,59.9-3.3,90.8-4.6,6.9-32.4,4.5-64.3,8.4-96.7,3.7-30.7,15.3-61.1,25.1-91.1v17.3ZM1887.1,772.4v-20.7h-19.6c7.1,7.5,12.7,13.4,19.6,20.7Z" fill="#ded8d4"/>
        <path d="M1086.6,43.4c-1,.7-1.9,1.3-2.9,2-4.8,2.4-9.8,4.6-14.1,7.4-9.3-8.7-17.9-13.9-30.5-20.3,0,0,0,0,0,0-6.7-4.8-12.9-10.1-20.3-14.4C1008.2,11.7,996.6,6,985.3,0c29.6,0,59.1,0,88.7,0,5,4,9.9,8,16.9,13.6-1.3,9-2.8,19.4-4.3,29.8Z" fill="#ccebb1"/>
        <path d="M741.4,1080c-23.3-5.1-46.6-10.2-69.8-15.5-4.8-1.1-9.1-3.3-14.3-5.2,5.9-4,10-6.8,13.8-9.5,52.8,9.5,106.3,19.1,159.9,28.7.9.2,1.5.9,2.2,1.4h-91.9Z" fill="#e5e5e5"/>
        <path d="M1223,1080c6.3-8.1,12.6-16.1,19-24.4,40.2,7.8,81.2,14.6,120.4,24.4h-139.4Z" fill="#f7f5f4"/>
        <path d="M1920,32.5c-7.9,4.7-15.9,9.3-25.3,14.8-2.5-4.7-3.8-7.2-5.2-9.7,1.2,0,2.5.1,3.7.2,2-8.5,4-17,5.5-23.2-8.5-6.2-14.2-10.3-19.9-14.5,13.5,0,27,0,41.2,0v32.5Z" fill="#ccebb1"/>
        <path d="M1524,1071.4c2.5-5.3,5-10.7,8-17.1,17.1,3.5,33.8,7,51.2,10.6-3.3,5.8-5.9,10.5-8.5,15.2h-19c-10.6-2.9-21.1-5.8-31.7-8.6Z" fill="#e5e5e5"/>
        <path d="M1131.3,138.6c-27.2-28.9-52.4-57.1-88.1-81.6C1009,33.4,968.5,18.1,928.3,0c3.2,0,6.3,0,9.5,0,41.4,18.4,82,35.8,116.5,60.3,32.9,23.4,59.4,50.2,83.1,78.3-2,0-4,0-6,0Z" fill="#e7ece3"/>
        <path d="M1821.6,419.9c17.4,23.1,49.2,38.2,76.6,55.8,5.4.7,13.6,1.7,21.8,2.6v4.3c-18.3-2.8-36.7-5.5-55-8.5-32.1-5.2-61.8-14-87.6-28.3,1.2-.7,2.3-1.5,3.5-2.2,35.7,17.5,71.5,27.6,103.8,28.6-12.6-9.1-23.3-16.2-37.8-23.8-13-6.8-21-16.2-31.5-24.6,2.1-1.3,4.1-2.7,6.2-4Z" fill="#dcd6d2"/>
        <path d="M263,0c-3.2,6.4-6.3,12.9-9.5,19.3,0,0-.2.1-.2.1-13.6-3.5-27.1-7.2-40.7-10.6-5.1-1.2-10.6-1.7-15.9-2.5C194.4,4.2,192.3,2.1,190.1,0c24.3,0,48.6,0,72.9,0Z" fill="#f7f5f4"/>
        <path d="M1394.1,0c1.2,4.6,2.4,9.2,4.4,16.5C1364.8,10.5,1335.1,5.3,1305.3,0c29.6,0,59.1,0,88.7,0Z" fill="#e4e4e4"/>
        <path d="M1568.3,0c-1.5,4.4-2.9,8.8-4.9,14.8-19.5-3.2-43.6-3.3-55.3-14.8,20.1,0,40.1,0,60.2,0Z" fill="#e4e4e4"/>
        <path d="M0,768.3c5.4,15.3,10.8,30.5,15.9,45.8-2.3,5.7-4.6,11.3-15.9,10.4C0,805.9,0,787.1,0,768.3Z" fill="#ccebb1"/>
        <path d="M1910.5,1080c2.2-21.5,4.5-43.1,6.8-64.6,0-.9,1.7-1.6,2.7-2.5v67.1h-9.5Z" fill="#96d1f8"/>
        <path d="M1606.3,1080c-1.4-3.7-2.8-7.3-5-12.8,13.1,1.7,22.8,2.9,33,4.2-1.2,3.8-1.9,6.2-2.7,8.6h-25.3Z" fill="#ebe4e0"/>
        <path d="M985.3,0c11.2,6,22.8,11.7,33.6,18.1,7.3,4.3,13.5,9.6,20.3,14.4-6.4-2.9-12.9-5.7-19.1-8.7C1004.3,15.9,988.5,7.9,972.7,0c4.2,0,8.4,0,12.7,0Z" fill="#eeefec"/>
        <path d="M1485.9,1080c1.6-3.3,3.1-6.6,5.6-11.8,12.9,3.6,27.4,7.7,42,11.8h-47.5Z" fill="#f7f5f4"/>
        <path d="M253.4,19.3c63.3-.2,126.1-8.4,189.1-3.3,30.2,2.4,54.4,11.8,81.4,20.8,30.3,10.1,60.5,20.2,90.7,30.2,0,.8-.2,1.5-.2,2.3-29.7-9.6-59.4-19.2-89-28.9-28.4-9.3-55.3-18.8-87-21.8-60.4-5.7-124.7,3-185.3,5,0-.6,0-1.2,0-1.8,0-.8,0-1.7.1-2.5,0,0,.2-.1.2-.1Z" fill="#a7dadc"/>
        <path d="M231,411.6c-24.7.8-47.4,1.5-71.4,2.3-.5-4.9-.8-8.2-1.2-12.6,23.2-1.4,45.4-2.6,67.8-3.9,1.8,5.3,2.9,8.6,4.9,14.2Z" fill="#dde3d7"/>
        <path d="M614.5,69.4c0-.8.2-1.5.2-2.3,1,0,2,0,3,0,22.1,9.6,52,10.2,77.4,10.1,23.7-.1,48.6-5.1,71.7-1.5-39.5,7.8-110.4,5.5-152-4.2-.1-.7-.2-1.3-.3-2Z" fill="#bbdef4"/>
        <path d="M253.2,21.9c0,.6,0,1.2,0,1.8-2.9,2.4-5.8,4.9-8.7,7.3-8-.4-15.7-.7-26.6-1.2-4.4-5.7-9.7-12.4-15-19.1,5.3,1.5,10.5,3.2,15.9,4.4,11.4,2.4,22.8,4.5,34.3,6.8Z" fill="#f6f5f4"/>
        <path d="M253.2,21.9c-11.4-2.2-22.9-4.4-34.3-6.8-5.4-1.2-10.6-2.9-15.9-4.4-2.1-1.4-4.2-2.9-6.4-4.3,5.3.8,10.8,1.3,15.9,2.5,13.7,3.3,27.2,7,40.7,10.6,0,.8,0,1.7-.1,2.5Z" fill="#b8def6"/>
        <path d="M975.9,140.7c-16.7,33.2-40.8,67-37.6,102.8,7.6,4.1,14.6,7.9,22.8,12.3-8.6,10-2.1,19.1,5.8,29.4,8.3,1,17.8,2.2,25.8,3.1,10.9-6.3,20-11.6,30.1-17.5,2.6-9.3,5.4-19.4,8.2-29.4,15.8-.4,16,0,9.2,23,5.3.7,10.5,1.3,15.5,2,4.3-2.8,7.7-5,10.2-6.6,5.2-16.1,10.1-31.4,14.9-46.5,9.8-1.4,18.4-2.6,27-3.8,7.9-7,15.6-13.8,25.2-22.2-4.7-10.6-9.9-22-14.8-33,7.6-6.5,16.9-4.9,25.6-4.8,6.3,9.3,12.7,18.6,19,27.9,10.7,22.4,26.3,43,42,63.9,14.4,19.2,33.4,39.1,27,61.7,5.2,1.4,9.4,2.5,15.2,4,27.8,43.3,56,87.3,84.6,131.7-2.4,4.2-4.8,8.5-7.2,12.7,2.1,6.8,4.1,13.4,6.4,20.9-9.7,4.3-19.7,8.7-29.9,13.3-39.6-11.7-85.1-20.9-120.6-37.8-31.6-15.1-57.3-36.7-87.1-53.5-3.8-19.9-8.2-43-12.9-67.3-4.7.6-10.9,1.5-17.4,2.4-.9,3.8-1.7,6.9-2.7,11.3h-32.1c-.5,7.4-.9,14.8-1.5,23,11.8,2.5,22.1,4.7,32.5,7,6.1,7,12.3,13.9,19.9,22.6-8.8,3.7-16.8,7.1-26.2,11-3.8,13.4,19,18.1,23.3,30.3-11.4,9.7-23.5,19.9-35.8,30.3,1,19,19.2,42.6,41.5,51,6.3-7.4,12.7-14.9,20.2-23.7,6.3,3.1,11.5,5.6,16,7.8.7,5.7,1.2,10.3,1.8,15.9,20-3.9,23.9,9,35.9,14.2,4.6,19.7,9.1,39.4,13.9,60-5.6.2-10,.3-14.8.5-3.4-5.9-6.4-11.2-10.1-17.6-5.5,1.2-10.7,2.3-16.6,3.6,0,9.2,2,18.1-1.4,27.2-3.1,8.3-10.1,15.8-15.1,23.6-54.3,7.6-109,15.3-164,23-9.6-7.5-18.2-14.2-27.5-21.5-1.4-5.6-3-11.9-4.8-18.5,6.3-3.2,12.1-6.1,20.3-10.2-5.5-18.6-11.2-38-17-57.3,6.6-3.9,12.5-7.3,22.7-13.3-20.3-6.3-43.7-10.9-65.3-14.8-22.2-4-27.9,6.1-46.7,11-3.4,19.4-6.8,38.8-9.8,56,9,11.5,16.1,20.7,24.3,31.2,6.9-1.5,13.4-2.9,20.7-4.5q12.9,2.7,12.4,14.4c-8,4.6-16.7,9.7-28.2,16.3-8.8-1.8-19.4-3.9-29.2-5.8-2.1-11.2-1.1-26.5-10.9-36-11.2-10.7-24-16.4-30-29.9-12.6-27.9-10.6-60.8-14.5-89.7,30.2-6,68-7.1,81.8-28.8,14.8-23.3,27-47.5,40.3-71.2-3.4-4.6-8.3-11.2-14.1-19,8.9-20.8,17.6-41.6,26.7-62.3,3.7-8.5,8.7-14.4,14.5-22.1,6.9-9,7-19.6,8.6-29.5,6-36.9,16.2-73.6,25.3-110.2,9.5,2.1,19.1,4.1,28.6,6.2ZM1185.4,412.4c12.2-4.6,21.7-8.2,31.7-12-1.8-5.6-3.4-10.8-5.3-16.6,1.9-1.8,4.3-4,6.6-6.1,10.4,5.7,20.1,11.1,30.7,17,5-1.1,9.9-2.2,15-3.3-16.1-18.3-37.3-32.5-48.6-50.5,4.6-4.1,7.7-6.9,11.2-10.1-8.4-21.5-22.6-42-34.8-62.6-11.8-19.9-21.1-42.5-39.6-59.9-24.9-.8-28,.3-33.1,13.1,8.1.9,16.1,1.8,25.1,2.8,3,4,6.3,8.4,9.5,12.6-6.2,9.7-12.6,15.7-8.1,26.7,4.3,10.5,14.4,20.8,21.5,30.6,15.2,21,36,42.1,37.8,66.1-10.6,15.3-40.1,19-46.5,37.2,9.7,5.5,18.1,10.1,26.9,15.1ZM1010.2,338.3c-2.4,1.4-5.8,3.5-10,6-13.8-1.1-28-2.2-42-3.4-7.1-10.4-14.8-13-29.6-9.9,3.4,4.4,6.6,8.7,9.9,13-2.2,3.6-4.2,6.6-5.5,8.7,21.3,5.7,41.6,11,61.8,16.4,21.5,5.7,30.2,20.5,43.7,32,1.7-.4,3.4-.8,5.2-1.2.8-5.3,1.5-10.6,2.1-14.9-10.1-5.2-18.4-9.5-26.7-13.7,1.6-1.1,3.2-2.2,4.8-3.3-.5-3.5-.9-7.1-1.3-9.9-4.6-3.6-8.3-6.5-13-10.2,4.2-6.3,8.3-12.5,12.4-18.6l3,.6c-3.3-3.9-6.6-7.8-10-11.8-1.6.3-3.2.6-4.8.9v19.4Z" fill="#ccebb1"/>
        <path d="M773,642.7c-46.4,2.5-98.8,12.3-138.1-9.1-34.1-18.6-59.2-45.4-72.7-73.2,9.9-1,18.1-1.9,29-3,1.9-1,6.1-3.1,8.4-4.2,13.9-1.2,25.6-2.2,37.3-3.2,25.4,6.7,46.1,13.1,74,11.8,19.6,4.4,39.3,8.9,53.4,12,15.2,11.3,26.9,20,40.5,30.1,0,8.5,3.7,21.6-2.8,29.4-5.8,6.8-18.9,7.1-28.9,9.5Z" fill="#ccebb1"/>
        <path d="M776.2,675.2c-6.7.2-13.4.4-21.1.6.5-7.5-14.4-14.3-2.6-23.2,6.6-1.1,13.6-2.3,20.5-3.4,19.7-1.4,39.3-4,58.9-3.8,27.4.3,54.8,2.8,84.2,4.5-3.1,3.6-5,5.9-7,8.2h.1c-19.5,2.1-39.2,4-58.6,6.6-24.9,3.3-49.7,7.1-74.5,10.6Z" fill="#ccebb1"/>
        <path d="M947.2,131.8c.2-18.4,1.9-20,24.8-23.6,4.6,2,9.8,4.3,16.2,7-3.1,7.1-6.2,14.1-9.2,21.2-10.6-1.5-21.1-3.1-31.7-4.6Z" fill="#ccebb1"/>
        <path d="M1092.9,142.9c4.2.7,8.3,1.5,14.2,2.5-3.4,7-6.1,12.5-9.1,18.5h-13c-1.3-5.1-2.4-9.9-3.6-14.7-3.4-1.3-6.9-2.7-10.4-4,7.3-.8,14.7-1.5,22-2.3Z" fill="#eaf2e0"/>
        <path d="M1092.9,142.9c-7.3.8-14.7,1.5-22,2.3-21.1-.8-42.2-1.6-63.3-2.4,0-.6,0-1.3,0-1.9,9.5-.1,19-.2,28.5-.3,15.9,0,31.7.1,47.6.2,3.1.7,6.2,1.5,9.3,2.2Z" fill="#b7dfed"/>
        <path d="M825.1,79.6c24.7,7.1,48.9,14.9,66.2,29.7-22.1-9.9-44.2-19.8-66.2-29.7Z" fill="#b5ddf6"/>
        <path d="M1083.6,140.7c-15.9,0-31.7-.1-47.6-.2,1.7-2.8,3.4-5.7,5.9-9.7,14.8,3.5,28.2,6.7,41.7,9.9Z" fill="#e9f2e0"/>
        <path d="M1007.5,140.8c0,.6,0,1.3,0,1.9-10.5-.7-21.1-1.3-31.6-2-9.5-2.1-19.1-4.1-28.6-6.2-5.4-.9-10.8-1.9-16.3-2.8.1-.6.3-1.2.4-1.8,5.3.6,10.5,1.3,15.8,1.9,10.6,1.5,21.1,3.1,31.7,4.6,9.5,1.5,19,2.9,28.6,4.4Z" fill="#acdbe7"/>
        <path d="M772.5,75.1c16.5-3.9,32-6.3,48.6,0h-48.6Z" fill="#b3dcf6"/>
        <path d="M1162.7,177.5c-6.3-9.3-12.7-18.6-19-27.9,0-.8.2-1.7.2-2.5,7.3,10.1,14.6,20.3,21.9,30.4h-1.6s-1.6,0-1.6,0Z" fill="#e6ebe2"/>
        <path d="M644.3,235.7c-2.1-9.7,5.1-8.6,13.1-7.9.5,2.1.9,4,1.6,7.1-5.1.2-9.4.5-14.7.7Z" fill="#ebe4e0"/>
        <path d="M795.5,753.2v62.3c1.2.6,2.3,1.1,3.5,1.7-6.9,2.1-13.7,4.1-20.1,6.1-12-10.7-22.1-19.8-32.9-29.5-9.5,1-18.6,2-29.5,3.1,5.3,14.2,11.3,28.3-6.5,41-4.1-1.2-8.2-2.4-12.6-3.6,2.7-6.1,5.1-11.6,7.7-17.6-3-1.3-6.1-2.7-11.8-5.1-10.4,2.9-23.9,6.6-38.3,10.6-2.5-.3-6.1-.7-11.2-1.4-1.2-2.1-2.8-4.9-4.4-7.8,8.3-3.9,15.5-7.2,21.2-9.9,1.9-9.3,3.6-17,5.3-25.1,9.4-2.1,18.2-4,29.5-6.5-3.7-10.4-7.1-20.2-10.8-30.6,7.3-2.5,14.1-4.8,22.8-7.8-1.6-5.5-3.1-10.9-4.7-16.5-18.6.3-19.1,7.1-32.1,13.6-15.3,7.7-33.5.1-48.8-3.6v-8.4c19.6-8.9,54.9-10.4,77.9-14.3,25.5-4.3,50.9-8.2,76.6-11.5,13,8.2,19.4,18.3,19.1,30.6-.3,10.1.1,20.2.2,30.3Z" fill="#ccebb1"/>
        <path d="M1584,785.6c-5.2,12.3-10.3,24.6-15.5,37-38.6,8.1-76.7,16.5-114.6,25.9-11-1.2-20.2-2.2-30.3-3.2,1.8-13.5,3.6-26.8,5.3-40,2.1-13.7,4.2-27.4,6.3-41.1v-18.9c11.2-6,23.3-12.5,37.4-20,4.9,4.9,8.3,8.4,12.1,12.1-9.1,6.6-16.6,12.1-24,17.5l3.9.6c-2.7,15-5.4,30-8.4,47,5.5,1.4,13.2,3.3,22.5,5.6.5-10.5-15.1-5.3-17.4-14.3,1.7-6.1,4.3-15.1,6.9-24.3,5.4.3,10.4.5,15.3.7-.8-.6-1.6-1.2-2.3-1.8,13.2-11.6,26.5-23.3,38.2-33.6h71.3c-5.1,13.7-9.7,25.9-14.7,39.3,2.3,3.3,5.1,7.4,8,11.5ZM1497.7,807.8c12,.7,21.5,1.3,33.1,1.9,2.5-9.5,4.6-17.6,6.7-25.8-8.5-2.9-14.5-5-20.8-7.2-5.1,3.5-9.5,6.5-14,9.7-1.5,6.3-2.9,12.5-5,21.4Z" fill="#eaf2e0"/>
        <path d="M1196.1,708c8,1.3,15.4,2.5,24.3,4-9.4,14.3-17.9,27.3-26.9,41,3,4.3,6.2,8.7,10,14-9.3,26.2,4.5,57-28.2,81.5-14.1-.7-23.9-6.5-32.4-13.3v-15.9c-16.2-.6-31.6-1.1-48.5-1.7-14.2-8.5-7.5-21.7-13.2-31.8,7.6-15.5,34.2-7.8,46.2-18.7v-23.4c11.4-26,45.3-25.8,68.7-35.7Z" fill="#eaf2e0"/>
        <path d="M952.6,675.5c39.3,20,32,51.1,47.6,75.9,14.1,3.8,27.9,7.6,42.2,11.5-4.8,6.9-15.9,11.6-22.3,18.2-7.5,7.7-12.2,16.5-16.7,25.2-4.5,8.5-8.4,15.7-6.3,24.9,2.9,12.3,10,24,15.5,35.8-12.2,1.4-23.5,2.6-33.9,3.8-8.4-16.5-16.8-33-25.1-49.4-7.6-15-19.7-30.7-18.1-46.8,3.2-33.2,8.2-66.3,17-99Z" fill="#ccebb1"/>
        <path d="M1416.3,710.9c-23-3.9-42.2-7.1-64.1-10.8,9.6-28.2,19-56.2,28.7-84.9,20.6,2,39.4,3.9,59.8,5.9-8.3,30.3-16.2,59.2-24.5,89.8ZM1395.5,689.3c1.5.7,2.9,1.3,4.4,2,18.7-13.7,19.7-39.9,25.4-58.1-4.9-1-9.2-1.8-15.3-3.1-5,20.3-9.7,39.7-14.5,59.2Z" fill="#f0f0f0"/>
        <path d="M726.8,1021.3c8.2-4.2,13.1-6.8,20-10.3,70.6,12.9,143.2,26.1,216.8,39.6-2.2,5.8-4,10.5-6.3,16.6-76.8-15.3-152.5-30.3-230.5-45.9Z" fill="#e5e5e5"/>
        <path d="M1545.9,872.1c-9.4,19.5-18.7,39.1-28.1,58.6-5.4-1-10.7-2-17.2-3.2-2.9-2.4-6.6-5.4-10.4-8.5v-21.1c-.5,0-1,0-1.6,0v-27.5c-5.8-1.6-10.4-2.9-19.7-5.5,12.7-5.9,14.4-6.4,15.5-17,6-1.2,12.6-2.5,21.2-4.3v21c9.4.8,18.3,1.2,27.7,1.2,4.1,2.1,8.2,4.3,12.4,6.4Z" fill="#eaf2e0"/>
        <path d="M957.9,1024c-1.8,5.3-3,8.8-4.4,13-30.5-4.8-61-9.6-91.5-14.5-29.9-4.8-61.5-7.8-88.6-17.8,7.9-3.7,13-6,19.4-8.9,53.4,9.2,108,18.5,165.1,28.3Z" fill="#e5e5e5"/>
        <path d="M745.8,1001.6c-1.6-3.9-2.7-6.6-4.3-10.5,31.9-7.1,60.7-16.2,90.7-26.5,15.2-5.2,30.6-10.3,46-15.3,12.1-3.9,30.4-13.2,43.5-8-56.6,22.8-115.9,40.7-175.9,60.3Z" fill="#e5e5e5"/>
        <path d="M897.2,990.3c.4,2.2.7,4.3.9,5.7,17.3,5.5,34.3,10.8,51.3,16.2l-1.7,3.4c-34.7-5.4-69.5-10.9-104.2-16.3.3-.4.7-.9,1-1.3-6.1-3-12.2-6-19.4-9.5.9-1.8,2.3-4.7,4.1-8.4,22.5,3.4,44.2,6.6,68,10.2Z" fill="#e5e5e5"/>
        <path d="M1464.8,982.4c8.2,1.2,15.3,2.3,24.5,3.6-2.7,6.1-5.3,12-8.1,18.3-6.7-1-12.3-1.9-18.3-2.8-1.4-2.3-2.9-4.7-5.6-8.9-2.5,4.7-4,7.5-6,11.2-5.6.2-11.1.4-19.1.6,3.6-17.4,7-33.7,10.7-51h19.8c-.3,11.7-8.1,22.9-7.5,34.5,1.3.2,2.7.4,4,.6,1.7-1.8,3.4-3.7,5.5-6Z" fill="#ebe7e0"/>
        <path d="M1118.2,656.3h23.7c-2.3,19.2-4.5,37.9-6.8,56.9-10-.6-17.7-1-27.7-1.6,3.6-18.4,7.2-36.7,10.8-55.3Z" fill="#e5e5e5"/>
        <path d="M1443.4,659.3c7.5.4,14.2.8,24,1.4-4.8,16.8-9.6,33.3-14.8,51.2-8.4-.4-15.5-.8-24.1-1.2,5.3-18.4,10-34.7,14.9-51.5Z" fill="#e5e5e5"/>
        <path d="M1517.6,642.2c-2.1,5.8-3.5,9.9-5.3,14.9-23.1,1.3-44.1-4.7-68.2-6.4,1.9-6.7,3.5-12.4,5.4-19.2,23.1,3.6,44.7,7,68.2,10.7Z" fill="#e5e5e5"/>
        <path d="M908.2,970.8c-.3,3.4-.5,5.8-.7,8.9,7.2,1.3,14.6,2.7,21.7,4,2.7-2.8,4.9-5.1,7.4-7.7,7.2,1.2,13.7,2.2,20.7,3.4,2.4,4.6,4.7,9.2,8.2,15.8-33.2-1.7-62.2-10.2-94.8-14,2.8-5.5,4.7-9.3,6.9-13.6,10.5,1.1,19.6,2,30.8,3.1Z" fill="#e5e5e5"/>
        <path d="M1327.7,944.7c.4-9-2.1-16.9,1.9-24.5l3.7-.4c2.3,3.2,4.6,6.4,7.8,10.7h67.4c.5,3.8.9,6.5,1.5,10.9-27.4,1.1-53.8,2.2-82.2,3.3Z" fill="#e5e5e5"/>
        <path d="M1079.4,921.3c2.1-4.7,3.6-8.2,5.7-13,24.8,1.6,48.5,3.2,73.8,4.9-1.6,5-2.7,8.6-4.3,13.6-24.3-1.7-48-3.4-75.2-5.4Z" fill="#e5e5e5"/>
        <path d="M1029.2,699c-2,3.4-3.2,5.6-4.7,8.1h-13.4c1.3-7.6,2.5-14.5,3.7-21.3q11.1-1.9,20.1,5.2h43c-1.5,4.5-2.7,7.8-3.9,11.3-15.7,1.5-30.9,8.1-44.8-3.3Z" fill="#ebe4e0"/>
        <path d="M1210.8,773.8c5.5-1.3,9.4-2.3,14.6-3.6,4.1,2,8.7,4.1,13.4,6.4-3.2,10.2-6.3,19.8-9.5,30.2-7.4-1.1-13.3-1.9-22.4-3.2,1.3-10.2,2.7-20.2,3.9-29.7Z" fill="#e5e5e5"/>
        <path d="M1275.1,923.4c7.2,6.5,13.2,11.8,20.1,18-18.3,9.7-32.1-3.1-48.9-2.9v-21.9c11.4,2.7,21,4.9,28.7,6.8Z" fill="#eaf2e0"/>
        <path d="M1511,947.9c-5.2,10.9-10.3,21.8-15.5,32.7-5.7-3.2-11.4-6.3-19.3-10.7,2.4-8.3,5.1-17.8,7.6-26.7,12.5-2.9,20.2,0,27.2,4.8Z" fill="#eaf2e1"/>
        <path d="M1226.9,720.2c9.1,1.4,15.5,2.3,23.1,3.5-2.7,11.2-5.4,21.9-8.1,33.2h-23.6c2.8-11.7,5.5-23.4,8.6-36.7Z" fill="#e5e5e5"/>
        <path d="M1546.3,597.3c.9,1.5,1.8,3,2.8,4.5-3.3,3.5-6.6,7-9.3,9.9-32.6,2.4-41.4-1.1-40.1-16,3.5-2.2,7.7-4.8,9.8-6.1,13.9,2.9,25.4,5.4,36.8,7.8Z" fill="#eaf2e0"/>
        <path d="M1435.2,764c-2.1,13.7-4.2,27.4-6.3,41.1h-16.3c-6.5-14.9,3.3-27.7,3.9-41.1h18.8Z" fill="#e5e5e5"/>
        <path d="M1155,943.7c-3.2,5-5,7.8-6.6,10.3-23.9-1.9-46.5-3.6-70-5.5v-10.7c25.4,1.9,49.8,3.8,76.6,5.8Z" fill="#e5e5e5"/>
        <path d="M1351.4,852.5c15.2,1,28.5,1.8,43.4,2.7-.7,3.3-1.3,6.5-2.2,10.8-10.8-.8-20.5-1.5-30.9-2.2-1.2,4.5-2.4,8.9-3.9,14.4-3.9-1.1-7.4-2-12.1-3.3,1.8-7.1,3.5-13.6,5.7-22.4Z" fill="#e5e5e5"/>
        <path d="M1255.3,659.9v-12.7c14.2.9,27.8,1.9,42.5,2.8v14.3c-15-1.6-28.6-3-42.5-4.4Z" fill="#e5e5e5"/>
        <path d="M1427.5,901.1c-6.1-1.8-9.8-2.8-15.2-4.4,1.4-10.4,2.8-20.6,4.3-31.8,4.7-.7,9.4-1.4,16-2.4-1.7,13.1-3.3,25-5.1,38.6Z" fill="#e5e5e5"/>
        <path d="M1330.4,825.2c-1.3,4.7-2.4,8.5-3.9,13.7-14.2-2.1-28.2-4.2-42.9-6.4,1.5-3.5,2.7-6.2,4.6-10.4,13.7,1,27.4,2,42.2,3.1Z" fill="#e5e5e5"/>
        <path d="M1371.1,838.2c-6-1.5-10.1-2.6-15.2-3.8,1.5-10.4,2.9-20.1,4.4-30.4h15c-1.4,11.6-2.8,22.2-4.3,34.3Z" fill="#e5e5e5"/>
        <path d="M1454.3,897c-7.2-1.4-10.9-2.2-15.1-3,2-9.5,3.7-18.2,5.6-27.4h15.9c-2.1,10.1-4.1,19.4-6.4,30.4Z" fill="#e5e5e5"/>
        <path d="M1351.5,759.9c-4.1-1.3-6.7-2.2-9.8-3.2,1.8-6,3.4-11.6,4.9-16.6,6.7-2,12.3-3.7,18-5.4l-.5-1.9c4.4.7,8.8,1.3,14.9,2.2-2,3.5-3.6,6.3-5.5,9.5-5.5-.5-10.1-.8-15.4-1.3-2,5.2-4.1,10.5-6.5,16.6Z" fill="#e5e5e5"/>
        <path d="M1192.5,955.9v-8.3c15.8.9,31,1.8,47.6,2.8-.9,2.7-1.6,4.9-2.7,8.3-14.4-.9-28.6-1.8-44.9-2.8Z" fill="#e5e5e5"/>
        <path d="M674.9,1015.1c12.6-3.5,25.1-7,38.5-10.8,1.7,2,3.2,3.7,4.7,5.4-9.1,9.7-24.9,9-37.9,13.2-1.9-2.8-3.6-5.3-5.3-7.8h0Z" fill="#e5e5e5"/>
        <path d="M1527.9,706.9c-1.5-7.1-2.8-13.2-4.5-21.2,8.2,1.1,13.6,1.8,19.1,2.6-1.4,7.4-2.5,13.4-3.8,20.3-3.3-.5-6.5-1-10.9-1.6Z" fill="#ebe4e0"/>
        <path d="M1403.4,602.7c-.6,3.8-1.2,7.4-2,12.2-11.9-2.4-21.5-4.4-34.6-7.1,13.2-4.9,23.2-7.4,36.6-5.1Z" fill="#eaf2e0"/>
        <path d="M955.4,958.9c-1,2.9-1.7,4.9-2.8,7.8-10.3-2.3-20-4.5-29.9-6.7v-8.3c11.5,2.5,21.8,4.8,32.7,7.2Z" fill="#e5e5e5"/>
        <path d="M1546,668.3h-13.3c2.6-8.1,4.9-15.4,7.5-23.2,2.5.2,4.9.4,8.9.8-1.1,7.6-2.1,14.7-3.1,22.4Z" fill="#ebe4e0"/>
        <path d="M1066.3,742c4.9.9,7.6,1.5,11.4,2.2-2.5,8.2-4.8,15.8-7.2,23.5-1.4-.1-2.9-.2-4.3-.4v-25.3Z" fill="#ebe4e0"/>
        <path d="M1309.9,627.4c-9.5,1.1-16.8,1.9-25.4,2.9-.5-4.2-.8-6.9-1.1-10.2,6.9-.7,13-1.3,20.8-2.1,1.5,2.4,3.1,5.1,5.8,9.4Z" fill="#e5e5e5"/>
        <path d="M1415.9,843.1c-4.7.4-8.7.7-13.9,1.1-1.9-4.7-3.6-8.9-5.6-13.7,5.9-1,10.3-1.7,15.4-2.6,1.4,5.1,2.6,9.8,4.1,15.3Z" fill="#ebe4e0"/>
        <path d="M1307.1,960.9c-4,4.8-6.8,8.2-9.8,11.8-5.6-1.5-10.5-2.8-14-3.8,4.1-3.5,8.1-6.8,13.3-11.2,1.5.5,5,1.5,10.5,3.2Z" fill="#e5e5e5"/>
        <path d="M1542.6,853.9c-1.7,3.3-3.1,6.2-4.9,9.6-3.6-1.2-6.3-2-9.8-3.2,1.3-3.1,2.5-6,4-9.6,3.9,1.1,7,2,10.8,3.1Z" fill="#e5e5e5"/>
        <path d="M398.6,928.7c-8,2.7-15.3,5.1-23.8,8-18.8-29.7-37.1-58.8-55.8-88.5,9.2-2.7,15.8-4.6,23.5-6.8,18.8,29.2,37.2,57.8,56.2,87.3Z" fill="#e6e6e6"/>
        <path d="M121.3,961.1c-5.6,2.5-13,5.8-21.4,9.5-15.9-24.7-12-49.6-15.6-75-2.6-1.7-6.7-4.4-10.8-7.1v-14c5.8-1.7,11.8-3.5,18.9-5.6,6.7,5.5,12.5,10.4,18.2,15.1v14.8c-2.8,2.3-5.7,4.8-10.3,8.7,6.4,16.3,13.1,33.4,21.1,53.6Z" fill="#ccebb1"/>
        <path d="M136.7,872.9c-3.6-5.9-6.3-10.4-9.8-16.1,25-8,49-15.7,73.5-23.6,4.2,4.9,7.9,9.1,12.9,14.9-25.3,8.2-49.8,16.1-76.7,24.8Z" fill="#e6e6e6"/>
        <path d="M195.5,962.9c-3.1-4.9-5.9-9.4-9.8-15.6,25.7-7.3,50.8-14.5,77.2-22,3.5,5.4,6.4,9.7,10.1,15.4-26.2,7.5-51.5,14.7-77.5,22.2Z" fill="#e6e6e6"/>
        <path d="M527.3,752.3c6.8,14.4,12.8,27.1,18.9,40.2-9.2,3.2-16.5,5.8-25.7,8.9-8.3-13.7-16.1-26.6-24.8-41.1,10.8-2.8,20.2-5.2,31.5-8.1Z" fill="#e6e6e6"/>
        <path d="M645.7,896.7c-12.6-19.3-23.9-36.5-36-55.1,8.4-2,15.1-3.6,21.7-5.2,11.1,18.1,22,35.8,33.3,54.4-6.6,2-12.4,3.9-19,5.9Z" fill="#e6e6e6"/>
        <path d="M472.9,814.5c8-2.2,15.1-4.1,23-6.3,8.5,16,16.7,31.6,25.3,47.7-6.3,1.8-12.4,3.5-20.8,5.9-9.2-15.9-18.1-31.3-27.5-47.3Z" fill="#e6e6e6"/>
        <path d="M69.7,833.1c3.1-.6,6.3-1.2,9.4-1.8,10.2,7.6,12.8,16.7,17.5,26.4-7.9,3.6-15.4,7-25.4,11.6-6.3-11.6-11.9-21.8-18.3-33.6,6.5-1,11.6-1.8,16.8-2.6Z" fill="#ccebb1"/>
        <path d="M252.8,970.9c5.3-4.6,9.1-7.9,15.4-13.3,10.8,14.7,19.7,26.6,29.1,39.3-8.3,2.3-15.5,4.2-23.7,6.5-7-11-13.9-21.7-20.8-32.5Z" fill="#e6e6e6"/>
        <path d="M223.8,973c5.4-2.1,9.6-3.9,15.3-6.1,9.3,13.4,17.9,25.9,27.2,39.3-6.9,2.3-12.3,4.2-19.2,6.5-7.9-13.5-15.4-26.2-23.3-39.7Z" fill="#e6e6e6"/>
        <path d="M518.6,889.1c6.5-2.3,11.5-4,18.8-6.6,6.4,11.5,12.5,22.4,19,34-6.3,1.2-11.9,2.2-19.1,3.5-6.1-10.1-12-19.9-18.6-31Z" fill="#e6e6e6"/>
        <path d="M550.4,942.1c7.7-2.4,14.6-4.5,22.9-7.1,4.6,8,8.7,15.2,13.3,23.1-8.5,2.6-15.9,4.8-25.3,7.7-3.7-8-7-15.2-10.9-23.7Z" fill="#e6e6e6"/>
        <path d="M393,952.7c-2.1-4.2-3.5-7.1-4.2-8.6,16.6-6.7,32-12.8,48.6-19.5,3.1,4.3,5.8,8,9.2,12.7-17.9,5.2-34.7,10-53.6,15.4Z" fill="#e6e6e6"/>
        <path d="M430,832.7c5.7,9.2,10.8,17.2,16.3,26.1,5.6-1.8,10.1-3.2,16.4-5.1,2.8,3.8,5.7,7.8,8.7,11.8-1,.6-2,1.2-3,1.8-3.3-1.1-6.5-2.1-10.4-3.4-4.9.9-10.3,1.9-16.7,3-1.8-4.7-3.5-9.1-5-12.9-8.4-4.6-16.6-9.1-26.4-14.5,8.1-2.7,13.5-4.6,20.1-6.8Z" fill="#e6e6e6"/>
        <path d="M147.8,829.9c3.3,9.3-7.9,11.8-15.3,17.2-8.1-1.9-16.2-3.9-24.2-5.8,4-9.9,16.2-13.3,39.6-11.4Z" fill="#ccebb2"/>
        <path d="M305.9,804.4c6-1.3,9.3-2,14.6-3.1,6,9.1,12,18.1,18.5,28-4.9,1.3-9.4,2.5-15.8,4.3-5.8-9.8-11.2-18.9-17.2-29.2Z" fill="#e6e6e6"/>
        <path d="M496.6,937.4c11.7,16.7,15.7,35.2,27.2,54.1-5.3-1.1-8.9-1.1-9.3-2-8.1-16.8-15.9-33.7-23.7-50.6,1.9-.5,3.9-1,5.8-1.5Z" fill="#e6e6e6"/>
        <path d="M565.2,868.1c-2.8-3.3-5.1-6-8.6-9.9,9.2-3.4,17.6-6.6,26.7-10,4.1,4.1,7.5,7.6,12.3,12.4-10.8,2.7-20.2,5-30.4,7.6Z" fill="#e6e6e6"/>
        <path d="M615.9,911.8c-6.3,1.5-10.2,2.4-15.7,3.7-4.4-7-8.7-13.8-13.4-21.3,4.6-1.7,8.5-3.2,14.4-5.3,5,7.7,9.5,14.7,14.7,22.9Z" fill="#e6e6e6"/>
        <path d="M453,809.9c-3.4-5.9-6-10.4-9.1-15.8,8.2-2.2,15.3-4.2,23.5-6.4,2.5,4.7,4.7,8.5,7,12.8-6.8,3-12.8,5.7-21.4,9.4Z" fill="#e6e6e6"/>
        <path d="M456.5,914.5c6.7-.6,11.1-1,16.5-1.5,4.2,5.5,8.1,10.7,12.7,16.7-6.7,2.5-12.1,4.4-18.5,6.8-3.5-7.2-6.7-13.8-10.7-22.1Z" fill="#e6e6e6"/>
        <path d="M646.8,740.7c3.3-1.1,5.9-1.9,10.2-3.2,4.8,9.9,9.3,19.1,13.8,28.4q-12.8,2.4-24-25.2Z" fill="#e6e6e6"/>
        <path d="M366.6,835.1c8.6-2.5,15.2-4.4,23.3-6.7,2.9,3.5,5.5,6.8,8.7,10.7-7.6,1.9-13.9,3.5-21,5.3-3.3-2.8-6.4-5.5-11-9.3Z" fill="#e6e6e6"/>
        <path d="M196.9,1035.2c-6.2,2.2-10.8,3.9-16.8,6-3.3-2.4-6.6-4.7-11.3-8.1,6.9-3.6,12.3-6.5,18.8-9.9,3.4,4.3,6,7.7,9.3,12.1Z" fill="#e6e6e6"/>
        <path d="M506,1048.8c2.5,4.3,4.1,7.2,6.1,10.7-7.7,1.1-14.5,2-22.5,3.1-.7-3.2-1.3-5.8-2-9.3,5.8-1.4,11-2.7,18.4-4.5Z" fill="#e6e6e6"/>
        <path d="M477.4,749.6c1.1,3.1,1.8,5.1,2.6,7.4-7.3,2-14,3.9-22,6.1-1.5-2.3-3.1-4.5-5.3-7.8,8.7-2,16-3.7,24.7-5.6Z" fill="#e6e6e6"/>
        <path d="M629.3,749.7c1.6,2.5,2.7,4.3,4.2,6.7-6.2,2.1-11.6,4-18.1,6.2-2.8-2.1-5.2-4-9.7-7.5,9.2-2.1,16.1-3.7,23.6-5.4Z" fill="#e6e6e6"/>
        <path d="M641.4,906.3c2.3,4.2,4,7.4,6.1,11.2-5.3,1.6-9.3,2.9-14.4,4.4-2-3.2-3.7-6-6.1-9.8,4.5-1.8,8.7-3.6,14.4-5.9Z" fill="#e6e6e6"/>
        <path d="M299.7,972.1c-3.3-4.7-5.6-7.8-8.5-11.8,3.3-1.4,6.3-2.7,10.1-4.3,3,4.9,5.3,8.7,8.2,13.2-3.2,1-6.1,1.8-9.8,2.9Z" fill="#e6e6e6"/>
        <path d="M592.2,769.2c-4.4,1-8.1,1.8-12.6,2.8-2.3-3.3-4.1-6-6.8-9.9,5.2-1.1,9.2-2,13.9-3,2,3.8,3.6,6.6,5.4,10.1Z" fill="#e6e6e6"/>
        <path d="M474.7,982.7c-7,1-11.4,1.6-15.9,2.2-5.7-8.3,1.8-9,10.2-9.8,1.6,2.1,3.2,4.2,5.7,7.6Z" fill="#e6e6e6"/>
        <path d="M1562,913.3c6.3-15.9,12.7-31.7,19-47.6,21.1,2.9,42.2,5.8,63.4,8.7,12.7,2.2,25.4,4.3,38,6.5-.9,5.1-1.7,10.2-2.7,15.8,26.7,4.5,51.4,8.6,77.8,13,2.4-6.2,4.3-11.1,6.6-17.2-28.6-4.1-55.2-7.9-81.7-11.6,28.4-13.8,77.2-6.1,108.6-2.1-8.1,22.1-15.6,42.4-23,62.7-3.6,2-7.2,4-10.4,5.8v10.7h-22.8c-13.9-6.3-30-13.5-48.2-21.6-3.7,3.2-7.3,6.2-11.2,9.6h-29.6v31.3c1.6,1.2,4.7,3.6,8.4,6.4-2.5,7.1-5,14.5-7.5,21.8-1.7.3-3.3.6-5,.9-4.8-3.6-9.5-7.2-16.4-12.4-1.1-.2-5.5-1.2-8.2-1.8-4.6,1.5-7.7,2.5-10.8,3.5-.2-3.2-.4-6.3-.8-10.9-11.1-1.4-22-2.8-34.2-4.3.6-3.6,1.3-7.7,2-12.2,11.5-.4,21.3-.8,32-1.2,4.5-7.3,9-14.4,14.5-23.4-8.9-.6-15.7-1-23.1-1.5-8.9-5.1,2.1-9.8,2.7-16.9-12.2-3.8-24.8-7.8-37.5-11.8Z" fill="#f0f0f0"/>
        <path d="M1580.7,629.8c-.9-1.5-1.8-2.9-2.7-4.4,2.2-9.1.6-17.5-.7-26.7,6-2.9,10.7-5.2,15.8-7.7,4.3.6,8.8,1.3,16.6,2.4,7-13.2,14.1-26.4,21.6-40.5,3.5-.2,7.4-.4,14.4-.7-5.1,22.2-10,43.1-15.1,65.4,8.5.4,14.3.7,22.7,1.2v-56.7c11.3-1,20.4-1.8,31.2-2.8.5-6.3.9-12.2,1.3-17.7-7.4-3.5-13.7-6.6-22-10.6,7.3-4.1,13.8-7.7,21.6-12.1,6.6,10,13.2,19.6,35.1,12.4,9.1,9.6,18,19.1,27,28.7-10.2,16.9-19.6,32.6-28.7,47.6-8.4.4-13.6.7-21,1-6,8.2-12.3,16.9-18.5,25.5-32,0-68.8,3.9-98.6-4.3Z" fill="#eaf2e0"/>
        <path d="M1644.3,874.4c-21.1-2.9-42.2-5.8-63.4-8.7-2.2-3.6-4.4-7.3-6.5-10.9,5.3-12.3,10.6-24.5,15.9-36.8,5-.7,10.1-1.4,15.3-2.2.7-9.7,11.8-19-5.3-25.8,5.5-20,18.7-39.1,15.5-60.1-1.5-10.3-4-20.5-6-30.8,2.1,2.3,4.3,4.6,6.5,7h24.8c1.5,10.8,3.1,21.7,4.9,34.5,7,2.8,15.9,6.4,26.4,10.6,1.4,11-1.2,22.5-9,34.1-5.5-.4-10-.7-15.1-1.1-22.2,16.8-20.8,54.2-25,75.7,5.9-.2,10.4-.4,15-.5,5.2,4.6,12.9,8.3,6.1,15Z" fill="#eaf2e0"/>
        <path d="M1755.3,668.8c-1.6-1.8-3.3-3.6-5.1-5.6,2.6-2.3,5.1-4.5,7.7-6.7-.9,0-1.8,0-2.8,0-1.1-11.6-2.2-23.1-3.2-34.7,1.8-.4,3.6-.7,5.4-1.1-6.5-7.1-13.1-14.2-20.7-22.4,2.4-5.8,1.7-14.1,14.5-18.5,5.4,4,10.2,7.7,14.2,10.7,10.3,18,6.9,35.6,2.1,52.3,8.2,6.4,15.1,11.8,20.9,16.4-.6,7-1.1,13-1.4,17.8,25.1,20.1,30.3,42.4,30,67h-18.4c-3.4-7.4-6.8-14.8-11-24-6.2-1.8-14.6-4.2-24.7-7-5.2,8.3-9.4,15.1-13.5,21.6-15.5,2.2-33.7-1.2-48.4-9.4,12.2-12.6,24.5-25.4,35.6-36.9,10.8-2.4,19.6-4.4,28.4-6.3v-8.6c-3.9-1.8-6.7-3.1-9.5-4.4Z" fill="#eaf2e0"/>
        <path d="M1770.2,469.3c4.9,2.6,9.8,5.1,14.8,7.8-.8,3.3-1.5,6.4-2,8.7-9,7-17.2,13.5-25.9,20.2h-19.1c-3.9-3.1-8.2-6.5-12.5-9.9,14.8-8.9,29.4-17.6,44.8-26.8Z" fill="#eaf2e0"/>
        <path d="M1664.7,639.3c10.2,2.7,18.3,4.8,26.5,7v17.3c-6.5-2.8-10.5-4.5-14.3-6.1-2.5,9.5-5.3,20.7-8.4,32.7-4.7-.4-8.5-.8-15.2-1.4,3.7-16.1,7.3-31.3,11.5-49.6Z" fill="#e5e5e5"/>
        <path d="M1697.3,706.6c-3.3,9.4-6.3,17.9-9.7,27.5-8.4-1.2-15.2-2.2-22.9-3.4,3-9.9,5.8-19.2,8.9-29.5,8.7,2,15.9,3.6,23.7,5.4Z" fill="#e5e5e5"/>
        <path d="M1773.1,757.8c-7.9-1.4-13.3-2.4-19.6-3.5,3-10.3,6-20.3,9.2-31.3,5.6.2,10.4.4,18.7.7-2.9,11.8-5.5,22.3-8.3,34.1Z" fill="#e5e5e5"/>
        <path d="M1628.2,639.6c6.6,2.6,9.6,3.7,12.3,4.8,2.1,8.2-1.2,14.8-7.2,21.5,12.3,5.9-.9,13.6,1.4,21.5-4.2.1-7.5.3-12.4.4,2-15.8,3.8-30.8,6-48.1Z" fill="#e5e5e5"/>
        <path d="M1714.4,676.5c-1.8,6.7-3.3,12.2-5,18.5-9.9,1.2-19.8,2.4-31.3,3.8.7-2.6,1.3-4.8,2-7.7,4.6-.2,9.1-.3,13.6-.4,1.8-5.4,3.7-10.9,5.8-17.1,4.9,1,9.1,1.8,14.9,2.9Z" fill="#e5e5e5"/>
        <path d="M1755.3,668.8c2.8,1.3,5.6,2.6,9.5,4.4v8.6c-13.5-1.3-27-2.7-42.6-4.2,2.7-4.7,4.3-7.5,5-8.7h28.2Z" fill="#e5e5e5"/>
        <path d="M1746.1,628.7c-1.3,11.2-2.6,22.3-4,34.4-3.9-.6-7.2-1-12.6-1.8,5.1-11.1-1.2-23.5,9.8-33.4,2.3.3,4.5.6,6.8.9Z" fill="#e5e5e5"/>
        <path d="M1664.6,847.8c6.4,1.2,11.2,2.1,16.8,3.2-1.2,5.1-2.3,9.5-3.7,14.9-5.7-1-10.5-1.9-17.5-3.2,1.4-4.7,2.8-9.2,4.5-14.9Z" fill="#e5e5e5"/>
        <path d="M1767,830.3v8.7h-10.4c-1.2-6.3-.4-6.6,6.8-10.7,1.2.7,2.4,1.3,3.5,2Z" fill="#ebe4e0"/>
        <path d="M735.1,681.9c-1,.6-2.1,1.2-3.1,1.8-26.4,2.1-52.8,4.2-81.5,6.5-5.5-12.5-11.2-25.3-16.9-38.2,9.9-9.5,29.3,2.2,41.5,4.1,17.2,2.8,34.4.3,51.6-1,15.3,5.5,12.6,15.1,17.5,22.8-3.1,1.3-6.2,2.6-9.2,4Z" fill="#ccebb1"/>
        <path d="M565.6,686.1c-1.7-4.7-2.9-8.1-4.6-12.9,17-5,34-10.1,52.4-15.6,3.4,4.1,6.4,7.7,10.5,12.7-19.6,5.3-38.2,10.4-58.3,15.8Z" fill="#e6e6e6"/>
        <path d="M531.3,679.3c2.7,4.4,4.3,7.2,6.4,10.7-16.6,5.1-32.3,9.9-49.7,15.3-1.4-4.9-2.6-8.9-3.9-13.4,15.7-4.2,30.2-8.1,47.1-12.6Z" fill="#e6e6e6"/>
        <path d="M434,707.9c-3.6-1.5-6.4-2.7-9.1-3.9,1-1.1,2.1-2.2,3.1-3.3,9.7-1.8,19.4-3.6,30.1-5.5-1.7,6-3.3,11.4-5,17.4-14.1,3.2-30.1,6.8-46.9,10.6-.8-1.1-2.2-3-4.7-6.4,11.9-3.2,22.8-6.2,32.6-8.9Z" fill="#e6e6e6"/>
        <path d="M776.2,675.2c24.8-3.6,49.6-7.4,74.5-10.6,19.4-2.6,39.1-4.4,58.6-6.6-20.5,3.6-40.9,7.4-61.5,10.6-24.8,3.9-49.8,7.3-74.8,10.9,1.1-1.4,2.1-2.9,3.2-4.3Z" fill="#f4f2f2"/>
        <path d="M397.8,727.8c-8.4,2.3-14.5,3.9-22.8,6.2-3-6.3-5.8-12-8.9-18.2,8.4-1.5,14.3-2.5,21.9-3.9,3.2,5.2,6.2,10.2,9.8,15.9Z" fill="#ece5e1"/>
        <path d="M500.9,678.1c-7.4,1-12.7,1.7-18.9,2.6-3-5.8-5.7-11.1-8.9-17.4,4.3-1.2,8.3-2.4,13.7-3.9,4.7,6.3,8.9,11.9,14.1,18.8Z" fill="#e6e6e6"/>
        <path d="M523,665.6c-5.4,1.3-9.1,2.2-13.7,3.4-1.8-4.3-3.4-7.9-5.5-12.9,4.1-.9,7.9-1.8,12.3-2.7,2.6,4.5,4.4,7.7,7,12.2Z" fill="#e6e6e6"/>
        <path d="M205.2,742.1c-2.1-4.9-3-6.9-4.3-9.8,5.8-1.8,11.6-3.7,18.3-5.8,5.1,10.2-8.7,9.2-14,15.6Z" fill="#e6e6e6"/>
        <path d="M417.1,685.3c4,5.4,9.2,10.7-1,18.5-1.6-7.1-2.7-12.5-3.9-17.8l4.9-.7Z" fill="#e6e6e6"/>
        <path d="M1441.6,75.8c-8.3-9.8-3.7-19.7-1.9-30.7,2.3.1,5.3.2,8.2.4,1.4,10.5,1,20.7-6.3,30.4Z" fill="#e4e4e4"/>
        <path d="M1615.8,85.8c2-3.1,3.5-5.2,4.1-6.2,8.3-1.2,14.8-2.2,22-3.2-.4,4-.7,8.1-1.2,13.4-8.4-1.4-16.1-2.6-24.9-4.1Z" fill="#ebe4e0"/>
        <path d="M1902.2,122.9c-4.2-.9-8.3-1.7-13-2.7-.3-2.6-.6-5-.8-7.1,5.1-2.2,13,4.3,17.3,6.6-1.1,1.1-2.3,2.2-3.4,3.2Z" fill="#ebe4e0"/>
        <path d="M1299.7,998.8c7.1,6.2,7.9,12.3,14,18.7,7.1,7.6,17.7,8.9,29.8,10.7,13.9,2.1,25.3,3.2,39.5,2.8,16.7-.4,22.2.5,31.8,11.1-3.2,6.1-2.2,14.6-18.1,16.5,1.5-2.7,2.6-4.7,5.2-9.4-10.3,1.3-17.7,2.2-25.2,3.1.1.5.2,1.1.3,1.6-28.5-5.1-51.9-9.8-77.3-19.8-9.6-3.8-21.6-10.3-33.2-10.4-12.6,0-21.2,7.5-29.8,12.7-10.4-2.7-20.2-5.1-31.6-8-.2-3.5-.5-7.2-.9-13.6,11.5,1.6,20.5,2.8,32.4,4.5.9-5.3,1.7-10.2,2.8-16.6,9.7-5.8,22.2,1.3,34.9-.8.9,2.7,1.6,4.9,2.5,7.9,3.7.2,7.6.4,12.1.7,2.3-3.7,4.2-6.9,6.2-10.1,1.5-.6,3.1-1.1,4.6-1.7Z" fill="#f7f5f4"/>
        <path d="M1488.6,1040.9c-1,3.7-2,7.3-2.9,11-1.6,1.7-3.3,3.3-5.1,5.1-3.8-.5-7.8-1-15.1-2,2.7-5.7,5.2-10.9,7.7-16.1,5.1.7,10.3,1.4,15.4,2.1Z" fill="#c8ced4"/>
        <path d="M1127.6,104c2.2-14-4.7-27.1-12.2-39.9-6.1-10.4-21.2-26.2-10.8-37.1,129.9,21.7,259.1,47.9,391,63.7,65.2,7.8,130.7,14.6,196.2,20.7,32.7,3.1,65.4,6.1,98.1,8.9,29.1,2.5,63.6,2.1,91.1,8.8-5.3,45.8-9.1,91.7-18.1,137.2-4.5,22.9-9.2,45.8-13.2,68.8-1.8,10.8-4.4,21.9-4.7,32.9-.3,9.6,4.3,17.2,7.5,26.4-40.7,23.6-83.3,48.3-126,73,11.2-15.6,34.1-28.7,51.1-41.5-10.7-10-21.5-20-32.2-30-7.9-25.9-.2-53.3-8.8-79-36.9-4.5-73.8-9.3-110.9-13.4-35.4-4-65.4.5-100.2,4.8-32.2-27.1-44.7-65.4-61.7-98-35.2-15.2-69.6-3.4-103.8-1.9-2.3-8.2-4.4-15.8-6.7-24-57.4-6.5-110.8-23.1-171.4-24.7,10.6,16.4,26.7,34.2,28.2,52.2-26-36.8-53.8-72.3-82.8-108ZM1208.8,106.5c2.4-7.4,4.3-13.4,6.6-20.4-15.3,5.3-17.6,12.1-6.6,20.4ZM1480.2,116c-5.8,5.5-10,11.2-3.1,18.9,9.7-6.3,4.7-12.8,3.1-18.9ZM1723.5,231.3c-.6-3.6-1-5.5-1.4-8.2-7.5,1.1-16-3.3-21.1,5,7.5,1.1,13.9,2,22.5,3.2ZM1845.3,274.5c2.7-5.9,3.8-10.6-8.5-11.3-3.4,6.2-4,10.7,8.5,11.3ZM1211.2,65.1c-12.1,5.7-13,9.8-5.9,19,1.9-6.1,3.5-11.4,5.9-19Z" fill="#f7f5f4"/>
        <path d="M1745.8,396.1c10.7,10,21.5,20,32.2,30-17,12.8-40,25.9-51.1,41.5-19,11.8-37.6,24-57.2,35.3-21.6,12.5-44.2,24.1-66.4,36.1-14.1-3.8-21.1,6.1-34.8,8.6-.5-5.2-1-9.7-1.5-14.6-6.9-5-14-10.2-21.2-15.4,1.1-.3,2.3-.7,3.4-1-5.2-12.4-10.5-24.8-15.8-37.5-43.3,11-83.9,21.4-124.6,31.7-11.9-15.2-21-31.5-31.1-47.3-9.3-14.6-16.6-35.1-34.3-45.6-11.3-17.7-23-35.3-33.9-53.1-17.5-28.4-34.5-57-51.7-85.5,21.9-14.7,57.6-18.3,86.3-25.2,35.3-8.5,66.9-11.6,103.9-13.8,4.1,3.2,8.3,6.5,13.3,10.4,3.1-.5,7.6-1.1,12-1.8,2.1,4.3,4.2,8.7,6.3,13-13.6,4.1-27.1,8.1-43.7,13.1,4.6,3.3,7.3,5.3,9.2,6.6,15.6-4.2,28.3-7.7,40.9-11.1,5.3,9.4,10.6,18.8,15.8,28.1-13.6,4.1-27.2,8.3-41.7,12.6,1.9,3.7,3.6,6.9,5.6,10.8,14.9-5.2,28.6-10,42.4-14.8,7.2,2.9,14.4,5.8,20.8,8.4,31.7-5.8,62-9.2,94.7-5.8,35.1,3.6,70,8.8,104.9,13.3,2.2,26.2,4.2,51,6.3,77,5.6-2.2,8.2-3.2,10.9-4.2ZM1396.8,387.3c-1.7-4.4-2.9-7.7-4.1-10.8,23.8-7.5,46.7-14.7,70.1-22.1-3.3-5.2-6.2-9.7-9.8-15.4-29.7,9.2-58.1,18-87.8,27.3,7.3,8.3,2.4,19.1,15.4,25.4,5.5-1.5,10.3-2.8,16.2-4.3ZM1375.5,351.9c-11-18.1-21-34.5-31.8-52.2-8,2.3-15,4.3-23.1,6.6,10.7,17.5,20.8,33.9,31.7,51.7,7.8-2,14.8-3.9,23.2-6ZM1631.7,332h-24.5c-3.6,17.8-7.1,35.1-10.5,52.4h24.1c3.7-17.4,7.1-33.9,11-52.4ZM1698,421.2c-20-3-37.1-5.5-55.2-8.2-2.5,4.7-4.6,8.5-7.2,13.5,18.7,3,35.9,5.7,54.5,8.7,2.5-4.3,4.8-8.5,7.9-13.9ZM1505.6,439.6c3.7,5.7,6.8,10.3,10.3,15.6,14.7-3.4,27.8-6.4,42.4-9.7-2.8-5.6-5.2-10.3-7.7-15.2-16.1,3.3-29.9,6.2-45,9.3ZM1565.1,423.7c18.6,2.9,36.5,5.7,55.6,8.8v-11.4c-18.2-3.6-35.5-7-54.6-10.8-.4,5.3-.7,8.7-1,13.5ZM1692.9,446.1c-3.2,11-6.1,21.3-9.5,33.1h19.8c1.8-10.4,3.4-19.8,5.1-29.6-5.7-1.3-9.9-2.2-15.4-3.5ZM1611.5,509.3c-2.5-2.1-5.7-4.8-9.3-7.8-5.9,2-11,3.8-16.7,5.7,3.7,1.3,6.4,2.3,9.1,3.3-.6,6.6-1.2,12.9-1.9,20.5,6.2.3,11.8.5,18.8.8v-22.4ZM1399.6,310.4c6.1-2.1,10.9-3.7,16-5.4-5.1-7.8-9.5-14.4-13.8-21.1-6.4,1.2-11.3,2-18.9,3.4,5.7,7.9,10.8,15,16.7,23.1ZM1555.8,490.4c-5.5-10.1-10.5-19.3-16.1-29.5-4.4.8-7.8,1.5-12,2.3,6.2,9.9,11.7,18.7,17.3,27.8,3.4-.2,6.4-.4,10.8-.7ZM1487.1,384.9c1.6-.2,3.1-.3,4.7-.5,9.4-8.7-4.3-16-3.6-25-5.6.3-9.8.5-15.2.8,5.2,9.1,9.7,16.9,14.1,24.7ZM1475.6,400.7c3.2,4.6,5.5,8,8.1,11.7,4-.8,7.3-1.4,11.2-2.2-1.7-4.2-3.1-7.8-4.9-12.4-4.9,1-8.9,1.8-14.4,2.9Z" fill="#f0f0f0"/>
        <path d="M1501.8,298.7c-5.3-9.4-10.6-18.8-15.8-28.1-2.1-2.9-4.2-5.8-6.3-8.7-2.1-4.3-4.2-8.7-6.3-13,7.6-6.1-5.4-22.5-8.8-29.6-6.9,1.1-12.2,2-17.8,2.9.8,4.7,1.5,8.8,2.1,12.4-8.3,1.2-15.7,2.3-23.1,3.3-31.7-1.2-60.1,5.4-89.1,13.1-25.3,6.7-57.9,18.3-85,19.4-13.7-19.5-27.4-39-41.1-58.4-1.5-18-17.6-35.8-28.2-52.2,60.6,1.6,114.1,18.2,171.4,24.7,2.3,8.2,4.4,15.8,6.7,24,34.2-1.5,68.6-13.2,103.8,1.9,17,32.6,29.5,70.9,61.7,98,34.7-4.3,64.8-8.8,100.2-4.8,37,4.2,73.9,8.9,110.9,13.4,8.7,25.7.9,53.1,8.8,79-2.6,1-5.3,2.1-10.9,4.2-2.1-26-4.2-50.8-6.3-77-34.9-4.5-69.8-9.7-104.9-13.3-32.8-3.4-63,0-94.7,5.8-6.5-2.6-13.7-5.5-20.8-8.4-2.1-2.9-4.2-5.8-6.3-8.6ZM1304.4,242.7c-9.5-10.6-18.3-20.4-29.1-32.4-5.6,6.4-9.2,10.6-12.9,14.8,6.3,8.4,12.2,16.3,18.8,25,8-2.5,14-4.5,23.2-7.4ZM1355,242.7c14.1-2.9,28.2-5.5,42.6-7.8-1.9-5-3.2-8.7-4.9-13.3-14.1,3.2-27.6,6.3-41.9,9.5,1.6,4.2,2.8,7.5,4.2,11.6ZM1315.6,213.5l-4,3.9c4.1,2.2,8.2,4.4,12.7,6.8,6.9-2.8,11.5-4.8,17.1-7.1-2.5-3.6-4.3-6.3-6.5-9.4-7.2,2.1-13.3,3.9-19.3,5.7Z" fill="#f0f0f0"/>
        <path d="M1343.3,417.8c17.7,10.5,25,31,34.3,45.6,10.1,15.8,19.2,32.1,31.1,47.3,40.7-10.4,81.3-20.7,124.6-31.7,5.3,12.7,10.6,25.1,15.8,37.5-1.1.3-2.3.7-3.4,1,7.2,5.2,14.3,10.4,21.2,15.4.5,4.9,1,9.4,1.5,14.6,13.8-2.5,20.7-12.4,34.8-8.6-16.3,11.1-33.7,20.8-57.2,23.8-14,2.3-27.9,4.9-42,6.9-7,1-14.3,1.2-21.4,1.8,11.5-2.8,20.5-4.5,29-10.5-.6-.8-1.2-1.6-1.8-2.4h-44.9c.2-.6.3-1.1.5-1.7-9.5-3.1-17.8-5.5-25.4-10-5.5-3.3-6.6-7.6-15.3-3.7,4.3,15.6,28.1,27,58.2,28.4-50.9,17-65.8-29.6-79.9-52.9-20.3-33.4-40.8-66.9-59.7-100.7Z" fill="#f7f5f4"/>
        <path d="M1251.6,270.5c27.1-1.1,59.7-12.6,85-19.4,29-7.7,57.4-14.3,89.1-13.1,7.4.7,14.8,1.5,22.2,2.2-37,2.2-68.7,5.3-103.9,13.8-28.8,6.9-64.5,10.5-86.3,25.2-2-2.9-4.1-5.8-6.1-8.8Z" fill="#d1d6df"/>
        <path d="M1108.5,69.2c6.8,8.8,14.9,17.4,13.1,28.2-14.8-12.2-29.6-24.5-44.5-36.7,2.2-1.5,4.3-3,6.5-4.5,5.8,6.5,11.6,13.1,19,21.4,3.3-4.7,4.6-6.5,5.9-8.4Z" fill="#f0f0ef"/>
        <path d="M1600.3,790.1c17.1,6.8,6,16.1,5.3,25.8-5.2.7-10.2,1.5-15.3,2.2,3.3-9.3,6.6-18.6,10-28Z" fill="#f4f3f2"/>
        <path d="M1039.1,32.5c12.6,6.5,21.1,11.6,30.5,20.3,4.3-2.8,9.3-5,14.1-7.4-4.2,3.6-8.5,7.2-12.7,10.8-10.6-7.9-21.3-15.8-31.9-23.7Z" fill="#eeefec"/>
        <path d="M1562,913.3c12.6,4,25.3,8,37.5,11.8-.6,7.1-11.6,11.9-2.7,16.9,7.5.5,14.2.9,23.1,1.5-5.6,9-10,16.1-14.5,23.4-10.7.4-20.5.7-32,1.2-.8,4.6-1.4,8.6-2,12.2,12.2,1.6,23,2.9,34.2,4.3.3,4.6.5,7.7.8,10.9-24-4.7-48-9.4-72.5-14.2,5.6-15.9,10.5-30.1,15.5-44.2,4.2-7.9,8.4-15.9,12.7-23.8Z" fill="#e5efdd"/>
        <path d="M1587.3,1008.6c-2.2,5.8-4.4,11.6-7,18.6-11.8-2.1-23-4.1-35.6-6.3,2.2-5.4,4.3-10.7,6.4-16.1,10.5.6,20.2,1.2,29.9,1.7,2.1.7,4.2,1.4,6.3,2.1Z" fill="#e5e5e5"/>
        <path d="M1657,1023.7c-2.7,3.5-5.3,6.9-8.9,11.5-13.2-3.9-25.8-7.7-39.5-11.7,3.2-3.7,5.2-6.1,7.2-8.5,13.7,2.9,27.4,5.8,41.2,8.7Z" fill="#e3e2e1"/>
        <path d="M1410.3,55.6c-1.7,5.3-3.1,9.7-4.8,15.1-69.4-11.8-138.1-23.6-208-35.5,1.5-5.3,2.7-9.4,4.2-14.8,69.1,11.7,137.8,23.3,208.6,35.2Z" fill="#e4e4e4"/>
        <path d="M1398.3,29.1c-2,5.1-3.4,8.7-5.3,13.5-56.5-8.6-112.4-17-169.2-25.6-.3-4.4-.6-8.3-1.1-14,58.5,8.7,115.7,17.2,175.6,26.2Z" fill="#e4e4e4"/>
        <path d="M1556.7,26.3c-2.6,5.4-4.2,8.7-6.3,12.9-39.5-5.7-78.4-11.3-118.1-17,1.8-5.2,3-8.9,4.5-13.3,40,5.8,79.4,11.5,119.9,17.4Z" fill="#e4e4e4"/>
        <path d="M1111.4,18.3c2.4-5,4.2-8.9,6.6-13.8,24.1,3.7,47.1,7.3,71.3,11-2.6,5.3-4.2,8.6-6.5,13.3-23.3-3.4-46-6.8-71.4-10.5Z" fill="#e4e4e4"/>
        <path d="M1815.4,423.9c10.5,8.3,18.5,17.7,31.5,24.5,14.5,7.6,25.2,14.7,37.8,23.8-32.3-1.1-68.1-11.1-103.8-28.6,11.5-6.6,23-13.1,34.5-19.7Z" fill="#f7f5f4"/>
        <path d="M1108.5,69.2c-1.3,1.8-2.6,3.7-5.9,8.4-7.4-8.4-13.2-14.9-19-21.4,3.4-2.7,6.7-5.3,12.5-9.9,4.8,8.7,8.6,15.8,12.5,22.9Z" fill="#ceebb4"/>
        <path d="M1887.1,772.4c-6.9-7.2-12.5-13.2-19.6-20.7h19.6v20.7Z" fill="#f4f2f0"/>
        <path d="M1185.4,412.4c-8.8-5-17.2-9.7-26.9-15.1,6.4-18.2,35.9-21.9,46.5-37.2-1.8-24-22.7-45.2-37.8-66.1-7.1-9.7-17.1-20-21.5-30.6-4.5-11,1.9-17,8.1-26.7-3.1-4.2-6.4-8.6-9.5-12.6-9.1-1-17-1.9-25.1-2.8,5.2-12.7,8.2-13.9,33.1-13.1,18.5,17.4,27.8,40,39.6,59.9,12.2,20.6,26.4,41.1,34.8,62.6-3.5,3.2-6.7,6-11.2,10.1,11.3,18,32.6,32.1,48.6,50.5-5.1,1.1-10,2.2-15,3.3-10.6-5.9-20.3-11.2-30.7-17-2.3,2.1-4.6,4.3-6.6,6.1,1.9,5.8,3.5,11,5.3,16.6-10,3.8-19.5,7.3-31.7,12Z" fill="#f7f5f4"/>
        <path d="M1010.2,338.3v-19.4c1.6-.3,3.2-.6,4.8-.9,3.3,3.9,6.6,7.8,10,11.8l-3-.6c-4.1,6.2-8.2,12.4-12.4,18.6,4.7,3.7,8.4,6.6,13,10.2.4,2.8.8,6.4,1.3,9.9-1.6,1.1-3.2,2.2-4.8,3.3,8.3,4.3,16.6,8.6,26.7,13.7-.6,4.2-1.4,9.6-2.1,14.9-1.7.4-3.4.8-5.2,1.2-13.5-11.4-22.2-26.2-43.7-32-20.2-5.4-40.5-10.8-61.8-16.4,1.3-2.1,3.3-5.2,5.5-8.7-3.2-4.2-6.5-8.5-9.9-13,14.8-3.1,22.5-.5,29.6,9.9,14,1.1,28.2,2.3,42,3.4,4.2-2.5,7.7-4.6,10-6Z" fill="#96d1f8"/>
        <path d="M1497.7,807.8c2-8.8,3.5-15.1,5-21.4,4.5-3.1,8.9-6.2,14-9.7,6.3,2.2,12.3,4.3,20.8,7.2-2.1,8.2-4.2,16.3-6.7,25.8-11.6-.7-21.1-1.2-33.1-1.9Z" fill="#f5f4f3"/>
        <path d="M1395.5,689.3c4.8-19.5,9.5-38.9,14.5-59.2,6.1,1.2,10.4,2.1,15.3,3.1-5.7,18.2-6.7,44.4-25.4,58.1-1.5-.7-2.9-1.3-4.4-2Z" fill="#e4e4e4"/>
        <path d="M1682.4,880.9c26.6,3.8,53.1,7.6,81.7,11.6-2.4,6.1-4.3,11-6.6,17.2-26.4-4.4-51.1-8.6-77.8-13,1-5.6,1.8-10.7,2.7-15.8h0Z" fill="#e4e4e4"/>
        <path d="M1208.8,106.5c-11-8.2-8.7-15.1,6.6-20.4-2.3,7-4.2,12.9-6.6,20.4Z" fill="#e5e5e5"/>
        <path d="M1480.2,116c1.6,6.1,6.6,12.6-3.1,18.9-6.9-7.7-2.7-13.4,3.1-18.9Z" fill="#e5e5e5"/>
        <path d="M1723.5,231.3c-8.6-1.2-15-2.2-22.5-3.2,5.1-8.2,13.6-3.9,21.1-5,.5,2.7.8,4.7,1.4,8.2Z" fill="#ebe4e0"/>
        <path d="M1845.3,274.5c-12.5-.5-11.9-5.1-8.5-11.3,12.3.7,11.2,5.4,8.5,11.3Z" fill="#ebe4e0"/>
        <path d="M1211.2,65.1c-2.3,7.6-4,12.9-5.9,19-7.2-9.2-6.2-13.3,5.9-19Z" fill="#e5e5e5"/>
        <path d="M1396.8,387.3c-5.9,1.6-10.7,2.9-16.2,4.3-13-6.3-8.2-17.1-15.4-25.4,29.7-9.2,58.2-18,87.8-27.3,3.6,5.7,6.4,10.2,9.8,15.4-23.5,7.4-46.3,14.6-70.1,22.1,1.2,3.1,2.4,6.4,4.1,10.8Z" fill="#e4e4e4"/>
        <path d="M1375.5,351.9c-8.4,2.2-15.4,4-23.2,6-10.9-17.8-21-34.2-31.7-51.7,8.1-2.3,15-4.3,23.1-6.6,10.8,17.7,20.8,34.1,31.8,52.2Z" fill="#e4e4e4"/>
        <path d="M1631.7,332c-3.9,18.4-7.3,34.9-11,52.4h-24.1c3.5-17.3,7-34.6,10.5-52.4h24.5Z" fill="#e4e4e4"/>
        <path d="M1698,421.2c-3.1,5.5-5.4,9.6-7.9,13.9-18.6-3-35.8-5.7-54.5-8.7,2.6-4.9,4.7-8.7,7.2-13.5,18.1,2.7,35.2,5.2,55.2,8.2Z" fill="#e4e4e4"/>
        <path d="M1505.6,439.6c15.1-3.1,28.8-6,45-9.3,2.5,5,4.8,9.6,7.7,15.2-14.5,3.3-27.6,6.4-42.4,9.7-3.5-5.3-6.5-9.9-10.3-15.6Z" fill="#e4e4e4"/>
        <path d="M1565.1,423.7c.4-4.7.6-8.1,1-13.5,19.1,3.8,36.4,7.2,54.6,10.8v11.4c-19.2-3-37-5.8-55.6-8.8Z" fill="#eae3df"/>
        <path d="M1447.9,240.2c-7.4-.7-14.8-1.5-22.2-2.2,7.4-1.1,14.8-2.1,23.1-3.3-.6-3.6-1.3-7.7-2.1-12.4,5.6-.9,11-1.8,17.8-2.9,3.4,7.1,16.4,23.5,8.8,29.6-4.5.7-8.9,1.3-12,1.8-5-3.9-9.2-7.2-13.3-10.4Z" fill="#e4e4e4"/>
        <path d="M1692.9,446.1c5.5,1.2,9.8,2.2,15.4,3.5-1.7,9.8-3.3,19.2-5.1,29.6h-19.8c3.4-11.7,6.3-22,9.5-33.1Z" fill="#eae3df"/>
        <path d="M1611.5,509.3v22.4c-6.9-.3-12.6-.5-18.8-.8.7-7.6,1.3-13.9,1.9-20.5-2.7-1-5.4-1.9-9.1-3.3,5.7-1.9,10.7-3.7,16.7-5.7,3.6,3,6.8,5.7,9.3,7.8Z" fill="#eae2de"/>
        <path d="M1501.8,298.7c2.1,2.9,4.2,5.8,6.3,8.6-13.8,4.8-27.5,9.6-42.4,14.8-2-3.9-3.6-7-5.6-10.8,14.4-4.4,28-8.5,41.7-12.6Z" fill="#e4e4e4"/>
        <path d="M1399.6,310.4c-5.9-8.1-11-15.3-16.7-23.1,7.5-1.4,12.5-2.2,18.9-3.4,4.4,6.7,8.7,13.3,13.8,21.1-5.1,1.7-9.9,3.3-16,5.4Z" fill="#e4e4e4"/>
        <path d="M1479.6,261.9c2.1,2.9,4.2,5.8,6.3,8.7-12.6,3.4-25.3,6.9-40.9,11.1-1.9-1.4-4.6-3.3-9.2-6.6,16.6-5,30.2-9.1,43.7-13.1Z" fill="#e4e4e4"/>
        <path d="M1555.8,490.4c-4.4.3-7.4.4-10.8.7-5.7-9.1-11.2-17.9-17.3-27.8,4.2-.8,7.7-1.4,12-2.3,5.6,10.2,10.6,19.4,16.1,29.5Z" fill="#e4e4e4"/>
        <path d="M1487.1,384.9c-4.5-7.8-8.9-15.7-14.1-24.7,5.4-.3,9.7-.5,15.2-.8-.8,9.1,13,16.3,3.6,25-1.6.2-3.1.3-4.7.5Z" fill="#e4e4e4"/>
        <path d="M1475.6,400.7c5.5-1.1,9.5-2,14.4-2.9,1.8,4.6,3.3,8.2,4.9,12.4-3.9.8-7.2,1.4-11.2,2.2-2.6-3.7-4.9-7.1-8.1-11.7Z" fill="#e4e4e4"/>
        <path d="M1304.4,242.7c-9.2,2.9-15.2,4.8-23.2,7.4-6.6-8.7-12.5-16.6-18.8-25,3.7-4.2,7.3-8.4,12.9-14.8,10.8,12,19.6,21.8,29.1,32.4Z" fill="#e4e4e4"/>
        <path d="M1355,242.7c-1.5-4-2.7-7.3-4.2-11.6,14.3-3.2,27.8-6.3,41.9-9.5,1.7,4.5,3,8.2,4.9,13.3-14.4,2.3-28.4,4.9-42.6,7.8Z" fill="#e4e4e4"/>
        <path d="M1315.6,213.5c6.1-1.8,12.1-3.6,19.3-5.7,2.1,3.1,4,5.8,6.5,9.4-5.6,2.3-10.2,4.2-17.1,7.1-4.5-2.4-8.6-4.6-12.7-6.8l4-3.9Z" fill="#e4e4e4"/>
        <path d="M1482.9,571.4c-30.1-1.3-53.9-12.8-58.2-28.4,8.6-3.8,9.8.4,15.3,3.7,7.6,4.6,16,7,25.4,10-.2.6-.3,1.1-.5,1.7h44.9c.6.8,1.2,1.6,1.8,2.4-8.5,6.1-17.5,7.7-29,10.5h.2Z" fill="#dcf1c9"/>
      </g>
    </g>
  </g>
</svg>