<?xml version="1.0" encoding="UTF-8"?>
<svg xmlns="http://www.w3.org/2000/svg" version="1.1" xmlns:inkscape="http://www.inkscape.org/namespaces/inkscape" xmlns:sodipodi="http://sodipodi.sourceforge.net/DTD/sodipodi-0.dtd" xmlns:svg="http://www.w3.org/2000/svg" viewBox="0 0 870.4 1000.9">
  <defs>
    <style>
      .cls-1 {
        fill: #bfe9bf;
      }
    </style>
  </defs>
  <!-- Generator: Adobe Illustrator 28.7.8, SVG Export Plug-In . SVG Version: 1.2.0 Build 200)  -->
  <g>
    <g id="svg1" inkscape:version="1.4.2 (f4327f4, 2025-05-13)">
      <sodipodi:namedview id="namedview1" bordercolor="#000000" borderopacity="0.25" inkscape:current-layer="layer1" inkscape:cx="540.5232" inkscape:cy="622.33212" inkscape:deskcolor="#d1d1d1" inkscape:document-units="mm" inkscape:pagecheckerboard="0" inkscape:pageopacity="0.0" inkscape:showpageshadow="2" inkscape:window-height="1017" inkscape:window-maximized="1" inkscape:window-width="1920" inkscape:window-x="1912" inkscape:window-y="-8" inkscape:zoom="0.51339147" pagecolor="#ffffff"/>
      <g id="layer1" inkscape:groupmode="layer" inkscape:label="РЎР»РѕР№ 1">
        <path id="path97" class="cls-1" d="M2.7,988.4c-2.8-13.2-.9-15.2,15.3-15.2,23.9,0,34.8-27.9,15.8-40.3-11.1-7.2-11-7.7,2-7.7,39.4-1.3,45.6-37,59-59.8,5.4-4,16.4-19.5,24.5-34.4,37-61.4-44.6-30.6,36.3-105.4,7.4-76.2,50.1-34.7,77-98.6,20.5-50.9-16.2-100.7-62-102.2-20.4,4.3-27.2-11.7-42.7-13.7-15.3-1.7-1.5-15.3-26.1-25.1-30.2,1.1-29.2-96.3-27.6-110.6,33.9-8.7,22.8-74.7,45.4-95.4,11.4-.2,28.7-20.5,30.3-35.7,1.7-8.6,13.2,14.5,20.3,14.5,23.9.8,33,10.8,46.3,29.3,21.7,25.5,5.8-3.2,36.3-1.6,66.8,2.2,27.8-15.9,66.2-38.8,19.2-3,20-35.1,29.9-45.9,5.3-8.7,23.8-3,28.1-18.7,5.7-21.1,3-32.9,25.4-36.8,43.7.6,26.8-21.3,78.3-41.5,49.5-20.2,43.5-18.6,36.7-23.9-5.1-31.5,66.6-50,73.8-78.1.1-3.9,40.6,3.8,48,3.3,13.8-1,14.5-.2,57-3.4,63.7-13,46.3,64.1,84.4,11.2,2.7-8,33-5.1,43.1-7.5,2.5-3.1,33.9,66.6,44.7,80.3-35.5,32.4-80.7,63.8-120.3,62-7.6,2.6-10.6,0-10.6-9-29.6-35.4-87.7-5.6-148.7,50.6-91.5,62.4-83.4,156.8-65.3,214.2-13.4,12-9,33.7,8.9,44.2,41.2,22.9-2.3,57.5-18.7,26.7-13-51-149.8,38.9-171.9,61,2.3-22.5-25.3-41.3-46.7-32.1-23.5,15-.1,49.5,21.4,59.3-71.8,16.2,14.7,33.7-7.7,50.4-11.5,9-4.2,26.1-18.5,31.4-35.1,14.7,29.1,15.2,10.9,30-6.4,6.9-6.2,9.4.6,11.8,12.1,4.8-18.2,2.7-14.9,10.9-44.8,44.9-28.6,109.6-127.2,167.3-50.1,23.2-83.5,110.9-146.1,130-6.2,6.8-8.2,5.6-10.8-6.8Z" sodipodi:nodetypes="ssssssssssssssssssssssssssssssssssssssssssssssscsssssssssssssscssscssssssssssssssssss"/>
      </g>
      <sodipodi:namedview id="namedview1" bordercolor="#000000" borderopacity="0.25" inkscape:current-layer="layer1" inkscape:cx="332.10525" inkscape:cy="248.3485" inkscape:deskcolor="#d1d1d1" inkscape:document-units="mm" inkscape:pagecheckerboard="0" inkscape:pageopacity="0.0" inkscape:showpageshadow="2" inkscape:window-height="1017" inkscape:window-maximized="1" inkscape:window-width="1920" inkscape:window-x="1912" inkscape:window-y="-8" inkscape:zoom="0.51339147" pagecolor="#ffffff"/>
      <sodipodi:namedview id="namedview1" bordercolor="#000000" borderopacity="0.25" inkscape:current-layer="layer1" inkscape:cx="316.5226" inkscape:cy="174.33091" inkscape:deskcolor="#d1d1d1" inkscape:document-units="mm" inkscape:pagecheckerboard="0" inkscape:pageopacity="0.0" inkscape:showpageshadow="2" inkscape:window-height="1017" inkscape:window-maximized="1" inkscape:window-width="1920" inkscape:window-x="1912" inkscape:window-y="-8" inkscape:zoom="0.51339147" pagecolor="#ffffff"/>
      <sodipodi:namedview id="namedview1" bordercolor="#000000" borderopacity="0.25" inkscape:current-layer="layer1" inkscape:cx="-73.043676" inkscape:cy="73.043676" inkscape:deskcolor="#d1d1d1" inkscape:document-units="mm" inkscape:pagecheckerboard="0" inkscape:pageopacity="0.0" inkscape:showpageshadow="2" inkscape:window-height="1017" inkscape:window-maximized="1" inkscape:window-width="1920" inkscape:window-x="1912" inkscape:window-y="-8" inkscape:zoom="0.51339147" pagecolor="#ffffff"/>
    </g>
  </g>
</svg>