<?xml version="1.0" encoding="UTF-8"?>
<svg xmlns="http://www.w3.org/2000/svg" version="1.1" viewBox="0 0 1920 1080">
  <!-- Generator: Adobe Illustrator 28.7.8, SVG Export Plug-In . SVG Version: 1.2.0 Build 200)  -->
  <g>
    <g id="_Слой_1" data-name="Слой_1">
      <g>
        <path d="M970,0h937.1c3.3,0,6.7.1,10,0,2.5-.1,3.1.3,2.9,2-.3,2.2,0,4.5,0,6.7v844c-15.2,5-30.6,4.4-46.1.5-2.5-2.2-2.5-4.7-2.4-7.3,2.2-52.2,2.7-104.5.3-156.7-2.3-50.3.6-100.6-2.8-150.8-2.6-37.5-2.8-75-1.6-112.4.8-25.7-5.1-49.6-21.7-72.5-3.9-9.4-6.3-19.3-16.3-27-5.4-5.6-13.2-9.1-22.1-11.7-23.1-6.8-46.3-13.4-69.5-20.1-11.5-3.3-23.5-4.7-36.1-4.7-317.1,0-634.1,0-951.2,0-4.8,0-9.5,0-14.2.5-8.7.8-14,3.9-14.2,10.1-.2,6,4.7,9.7,12.9,11.1,6.9,1.2,14.2.8,21.3.8,126.9,0,253.9-1.6,380.7.4,187.3,2.9,374.5.4,561.7,1.6,21.5.1,41.3,3.4,56.5,14.6-2.5,6-10.3,5.1-16.4,5.1-61.3-.5-122.6,2-183.8-1.4-5.2-.3-10.5,0-15.6,0-9.4,3-21.7,2.6-27.1,10.3-2.3,16.3-.8,32.7-1,49-.3,25,0,50-.1,75,0,5.1,1,10.3-4.1,14.8-5.4,2.7-11.8,2.2-17.9,2.2-90.8,0-181.6,1.3-272.3-.4-53.2-1-106.3-.6-159.5-1.3-19.8-.3-23.4-2.2-23.5-15.7-.4-37.8,0-75.7-.1-113.5,0-3.2-.3-6.4,0-9.6.6-7.6-4-11.3-15.8-11-8.1.2-16.2,0-24.2,0-77,0-154,0-231,0-7.9,0-16.3-1.1-23.4,2.5-4.1,3.1-4.7,6.9-4.7,10.8,0,6.4-.1,12.8,0,19.2,2.1,107.6-3.7,215.2-2.8,322.8,0,4.7-2,9.7,3.4,13.8,5.2,2.2,10.9,2.1,16.6,2,168.6-1.3,337.1,2.9,505.7,2,109.7-.5,219.5-.1,329.2,0,26.1,0,52.1.9,78.2,1.6,48.3,1.3,96.7-2.5,145.1-2,7.6,0,15.3-.6,22.1,2.5,4.6,3.9,3.5,8.5,3.5,12.9,0,40,.2,80,0,120-2,10.5-4.4,21.4-11.3,30.7-12.5,16.8-30.7,30.8-58.7,36.7-24.2,5.1-48.8,6.3-74.4,5.9-77.9-1.1-155.8,3.7-233.6,1.4-113.5-3.4-227.1.5-340.6-2.1-109.3-2.5-218.6.9-327.7-2-86.4-2.3-173,1.3-259.2-3.5-54.4-3.1-108.9-5.9-163.3-8.7-58.2-3-116.4-6.2-174.7-8.7-54.9-2.4-110-3.6-164.8-7.8-9.3-.7-19.2-.5-27.2-4.8v-213.7c4.2-2.6,9.4-3,14.7-2.7,55.8,3.2,111.8,4.1,167.6,7,19.8,1,39.8,1,59.7,2.3,42.2,2.7,80-8.9,119-16.9,7.6-1.6,12.3-5.8,16-10.4,10.9-13.5,21.6-27.1,32.8-40.5,5.7-6.8,9.1-14,10.5-21.8,11.3-62.7,23.7-125.3,35.8-187.9,2-10.5,4-21,5.7-31.5.7-4,3.2-9.7-4.9-10.5-9.9-1-8.6,5.8-9.3,9.6-5.1,27-10.9,54-15.5,81.1-6.3,36.6-14.6,73.1-21.1,109.7-.8,4.4-1,9-5.7,12.7-1.8.4-3.4.1-4.6-.9-6.3-13.2-4.5-26.9-2.5-40,3.6-23.7,2.3-47.4,4-71.1,2-27.5,4.4-55,4.1-82.6-.2-16,3.4-32,2.5-48-.6-11.5-1.8-12.9-19.2-12.3-34.6,1.4-69.2,2.8-103.8,4.4-36.5,1.7-73,3-109.4,5-25.1,1.3-50.3,1.7-75.3,3.4-5.2.4-10.4.4-15.7.4-12.2.1-17.9-3.8-19.2-12-1.7-10.2-2.1-20.5-3.5-30.7-1.3-9.6-3.8-10-18.2-9.9-14.9.1-30,3.8-44.8-.5v-77c4.1-3.7,10.2-4.3,16.4-5,118.4-14.2,236.9-27.9,355.4-42,120.8-14.3,241.8-27.9,362.3-43.1,53.5-6.8,91.1-28.7,116.2-60.8,5.5-7.1,9.6-14.7,17.2-21,9-5.3,20.8-5.3,31.4-7.6,20-4.3,39.4-10.3,60.6-11.9,3.5-.3,7.2.8,10.4-1Z" fill="#f9f8f7"/>
        <path d="M0,269.5c7.6,1.1,14-2.6,21.6-2,7.5.6,15.2,0,22.8.2,3.9.1,5.8-2.4,10.2-2.2,9.7.4,8.4.2,11.3,6.8,3.5,7.8,2.5,15.6,2.2,23.3-.2,4,3.5,7,3.2,10.8-.2,3.8,0,7.7,0,11.5,0,1.1.9,1.8,2.6,1.7,11-.9,22.4,2.1,33.1-1.8,2.2-.8,5.6-.3,8.4-.1,24.4,1.1,48.5-3.2,72.9-1.9,13.1-3.3,27-.6,40.1-2.1,16.3-1.9,32.8-.3,48.7-2.1,13.5-1.5,27.1-.1,40.2-1.8,16.3-2.1,32.9-.1,48.7-2.1,14.1-1.7,27.9-.7,41.7-1.6,5.8-.4,6,1.3,6,4.4-.2,13.1,1.9,26.5-.6,39.4-3.5,18.7.5,37.5-3,55.9-3.2,16.8.6,33.7-2.7,50.2-3.7,18.7.6,37.5-3,55.9-3.4,17.5-.9,34.8-2.3,52.2,3.2,8.1-.4,15.9-2.2,23.8-.2.9-.6,1.8-1.1,2.6-.7,1.3-1.6,2.5-2.5,3.7-.6.8-1.3,1.6-2.1,2.3-2,1.9-3.6,4-5.3,6-.9.9-1.8,1.7-2.6,2.6-26.4,24.1-61.3,37.1-106.3,37.1-58.2,0-116.4,2.1-174.7,2.4-29.3.2-58.6,1.3-88,1.3-6.2,0-12.4.3-17.5-2.9v-113.6c4.2-2.6,9.3-2.9,14.6-2.5,37.6,2.4,75.2,4.2,112.8,6.6,9.5.6,20.2,2.9,26.6-4.8,2.7-2.9,7.8-3.5,11.7-5.2,12.8-5.6,13.7-15.2,1.9-21.5-3.7-2-8.3-3.3-9.9-6.6-1.9-6.1-9.2-6.8-16.4-7.1-39.2-1.4-78.1-4.6-117.2-6.2-8.4-.4-17.1-.7-24.1-4.7v-207.9Z" fill="#e6ebf6"/>
        <path d="M0,877.8c13.1-1.4,25.6,3.1,38.7,1.9,11.6,3.5,23.9,1.7,35.9,1.8,8.8,0,16.8,3,25.9,2.2,8.4-.7,17.6-1.4,25.5.1,14,2.6,28,.3,41.7,1.9,16.7,1.9,33.7.4,50.1,2.2,11.7,1.2,23.3.2,34.5,1.7,13.4,1.8,27.2.4,40.1,2.1,11.2,1.5,22.4.3,33.1,1.7,13.4,1.8,27.1.4,40.1,2.1,11.2,1.4,22.4.2,33.1,1.8,13,1.9,26.3.2,38.7,2,11.7,1.7,23.3.2,34.5,1.8,13.4,1.8,27.2.4,40.1,2.1,11.2,1.5,22.1,1,33.2,1.6,3.1.2,6.3-.6,9.2,1.4,1.7,1.1,5.3,1.1,7.5-.5,1.1-.8,2.6-1.3,3.7-.8,9.7,4.1,20.2,1.7,30.2,1.7,49,.3,97.9.2,146.9.1,19.2,0,38,2.8,57.3,2.1,19-.7,38-.1,57-.1h174c19.5,0,39.2-1.3,58.4.3,36.3,3,72.5,1.1,108.7,1.5,36.6.5,73.2.1,109.8.1s73.2.2,109.8,0c11.2,0,21.7,2.7,33.1,2.2,11.8-.6,23.8-.1,35.6-.1h69.9c11.4,0,22.9.8,34.2-.1,36.2-2.9,72.4-1.4,108.6-1.7,5.8,0,11.4-.2,17.6,1.5,6.4,1.8,13.7-2,20.7-2.6,10.7-.9,20.4-4.7,31.4-4.8,5.1,0,9.5-1.7,13.1-4.1,11.4-7.7,22.3-15.8,34.5-23,5.6-3.3.5-8.3,6.3-10.9.9-8.8,6.1-16.9,8.6-25.5.6-.9,1.4-1.6,1.4-2.7,0-1.3.1-2.6,0-3.8-3.9-78.7,4.4-157.3,6.1-235.9,1.7-77.5.2-155.1,2.1-232.6.1-5.5-3.7-12.4,7.5-15.8-1.1,3.1,2.4,5.2,4.2,7.5,6.3,7.9,8.3,16.9,15.8,24.4-1.1,5.4,3.2,10.1,3.1,15.5-.5,41-.3,82-.3,123,5.7,24,2.1,48.1,2.7,72.2.6,24.3-2.1,48.8.8,73,2.7,22.5,1.4,45,2,67.5.7,22.7.5,45.5,0,68.2-.4,17,2.7,34.2-2.7,51.1,3.3,5.7-1.6,10.9-2.6,16.3-4.4,17.5-17.4,31.5-37.6,42.7-5.1,2.8-9.5,6.3-13.4,9.9-7.4,6.8-17.3,10.9-29.2,12.8-26.7,4.2-52.9,10.4-80.9,9.6-10.2-.3-13.7,3.3-15.2,9.8-3.9,17.7-6.2,35.6-12.1,53.1-1.8,7.7-4.9,15.3-4.4,23.3-2,15.2-5.8,30.2-9.2,45.3-.5,1.7-2,3-3.6,4.3h-45.6c-2.4-1.8-3.6-3.9-3.7-6.3,7.2-38.5,15.6-77,23.6-115.4.7-3.5,1.9-6.9.7-10.4-2.4-3.7-7.2-3.7-12-3.7-90.6.2-181.2-.5-271.8.4-150.6-.8-301.2-1-451.8-2.5-97.4-.9-194.8-.3-292.2-1.2-5.7,0-11.4-.3-16.7,1.5-6,3.4-4.6,8.2-4.6,12.5,0,37.8,0,75.5,0,113.3,0,4.1.7,8.4-4.1,11.8h-42.8c-7.3-6.6-2.9-14.1-3.9-21.2,0-1.6.6-3,1.5-4.4.7-.8,1.7-1.4,2.9-1.9,4.7.5,5.9-1,7-4,2.2-6.3-8.5-3.4-9.8-6.9-3.1-6.6-1.6-13.3-1.7-20-.2-23,0-46-.1-68.9,0-4.1,1.1-8.4-3.8-11.8-5.4-3.2-12.2-3.5-18.8-3.8-97.6-4.9-195-10.4-292.6-15.3-55.8-2.8-111.7-5.4-167.7-7-14.2-2.6-29.1-1.1-43.4-3-5.1-.7-10.4-.6-14.5-3.1v-30.8Z" fill="#afb8c9"/>
        <path d="M0,177.2v-75.1c26.9-9.4,55.8-14.2,85.7-16,61.4-3.7,122.8-7.8,184.2-11.6,61.4-3.9,122.7-8.4,184.2-11.4,81.2-3.8,160.9-13.8,240.7-23.7,42-5.2,83.9-11,126.2-15.1,4.6,0,9.3.2,13.7-1.2,2.3-.5,4.6-.8,6.8.2,1.8,10.9-9,18.4-16.5,26.5-24.5,26.5-61.9,39.4-106.4,44.6-205.9,24.2-411.7,48.8-617.7,73-28.1,3.3-56.1,6.7-84.3,9.8-5.6.6-11.2,1.8-16.7,0Z" fill="#f9f8f7"/>
        <path d="M824.5,27c-5.6-.3-10.7.7-16,1.8-4.7.9-10.3-1-14.4,2.1-8.1-1.4-15.1,3-23,1.9-3.6-.5-6.3,2-8.7,1.7-7.3-.8-13.3,2.9-20.2,2.1-6.7-.8-12.7,1.4-18.6,2.4-12.6,2-25.7,1.9-38.1,5.1-6,1.5-13.3,1.2-20.1,2-12.4,1.4-24.7,4-37.5,4.1-6.8,3.9-16.5,0-23.3,3.8-8.4-1-16.4,1.5-24.4,2.3-13.5,1.4-26.6,4-40.5,3.5-7.2,3.1-15.3,2.1-23,1.8-6.7-.3-12,3-18.8,2.2-6-.7-13.1-1.4-18.3.1-7.9,2.3-15.5,1.7-23.2,1.5-6.2-.2-11.1,2.7-17.4,2.2-6.1-.5-12.9-1.2-18.4.1-9.2,2.3-18.3,1.8-27.4,1.5-6.2-.2-10.9,3-17.4,2.2-6-.7-12.9-1.3-18.3.1-8.3,2.1-16.6.7-24.6,1.8-11.9,1.7-24.2.6-35.8,2.2-8.3,1.1-16.5,1.7-24.6,1.3-7.2-.4-13,2.7-20.2,2.3-6.6-.3-14-2-20.2,1.7-.5.3-1.9.1-2.8,0-16.9-1.3-33.3,2.9-50.1,1.9-6.9-.4-12.9,2.7-20.2,2.1-6.1-.5-13-1.4-18.8,1.7-.3.2-.9,0-1.4,0-15-1.4-29.5,2.4-44.4,1.9-11.7-.4-22.7,3.4-34.4,2-3.7,2.5-9.1,2.6-13.4,3.6-12.2,2.6-24.9,4-36.6,7.8-2.7.9-6.6.1-9.9.1v-61.6c5.6-6.3,15.8-6.3,24.6-8.3,5.4-1.2,10.8-2.3,16.3-3.3,7.9-.9,15.8-1.4,23.7-2.5C208.1,18.5,351,6.4,494.8,1.1c5.7,0,11.4,0,17.1,0,5.3-.5,10.8,1,15.9-1h433.6c1,.4,1.3.9,1,1.3-.3.4-.6.6-1,.6-18.7,4-37.6,7.7-56.2,12.1-9.6,2.3-19.1,4.6-29.2,5.3-2,.2-3.9,1.2-5.9,1.9-4.7,2.2-12,3.4-13.9,0-6.2-11-9.5-3-13.8.4-.9.7-2.4,1-3.7,1.4,0,1.3-.9,2-2.9,1.9-3.3,2.1-8.2-.2-11.4,1.9Z" fill="#afb7c9"/>
        <path d="M0,908.6c18.4-1,36.4,3.3,54.9,2,1.4,0,2.5.7,2.2,1.9,9,6,21.2,4.3,31.4,4.5,47.4.9,94.6,4.5,141.9,6.3,8.4.3,18.4.1,19.3,8.1.5,4.7-10.6,8.4-22.2,6.5-22.4-3.7-45.2-1-67.8-2.7-25.8-2-52-1.8-77.8-4.4-4.2-.4-8.5-.3-12.8-.3-16.4.1-19,2.1-18.4,13,.1,2.2.9,4.5,0,6.7-1.5,3.4-4.3,5-9.3,2.3-5.5-9.4-.4-19.3-3.4-28.7-1.6-1.4-3-1.2-3.6.4-1.1,2.8-1.4,5.7-1.4,8.6,0,32.7.3,65.4-.2,98.1-.1,7,3.7,9.7,13.3,10.7,5.2.5,10.3.8,15.5.8,39.9,0,79.8,0,119.8,0,100.2.1,200.4,3.1,300.6,1.9,17.9-.2,35.5,3.8,53.7.1,8.4-1.7,11.3,3.1,9.4,8.5v3.8c-4.2,16.6-4.2,17-30.8,16.6-90.5-1.3-181-3.1-271.5-4.3-39.8-.5-79.8.7-119.2-1.2-38.1-1.9-76.6-.6-114.5-4.5-3.4-.3-6.3-1.2-8.9-2.8v-38.5c1.8-1.3,1.8-2.6,0-3.8v-9.6c.8-.4,1-.9.8-1.3-.3-.4-.5-.6-.8-.6v-98.2Z" fill="#f9f8f7"/>
        <path d="M1680.3,1006.7c-2-4.2,2.5-7.7,3-11.7.4-3.6-2.1-7.5,2.6-10.8.9-.7,0-2.5.2-3.7,1.3-7.8,1.8-15.7,5.5-23.4,1.3-2.6,0-5.7.2-8.6.5-5.6,3.2-7.2,11.6-7.3,6.6,0,13.4-.5,19.9.1,8.6.8,16-2.5,24.3-2.2,4.1-4.1,12.2.5,16.4-3.4,6.1.5,11.4-1.5,17-2.5,7.2-1.2,14.8-1.7,21.5-4.3,4.4-1.7,9.1-3.3,11.8-6.2,9.5-10,23.2-17.3,35.4-25.5,7.5-5,11.4-10.9,13-17.5,1-4.3,3.7-7.9,5.9-11.8,17.1-4.9,34.2-4.9,51.3,0v148.2c-6,3.6-13.3,2.7-20.3,2.7-68,0-136.1,0-204.1,0-17.2-.9-17.7-1.4-15.2-12.4Z" fill="#f9f8f7"/>
        <path d="M838.8,23.2c3.6-4.7,7.2-9.4,10.9-14,.8-1,3-2.3,3.2.1.1,1.8,2.9,2.4,3,3.9.2,2.5-1,6,.9,7.2,3.3,2,8.8.5,13.4.8-4,5.6-8.2,11.2-12,16.8-6.1,9.1-13.9,17.7-23.5,25-10.1,7.8-18.9,16.5-30.9,23.2-1.4.8-2.7,1.9-4.3,2.3-11.4,2.3-21.5,6.8-32.6,9.5-3.8.9-7.1,2.4-10.8,3.3-3.7.9-22.1,4.5-25.6,4.7-8.1.3-15.8,2-23.6,3.3-3.5.6-7.5.9-11.1.4-4.3-.6-6.1,2.5-10.3,2.2-8.2-.6-16,3.1-24.4,1.8-6.1,4.3-15.7-.3-21.9,3.8-14.4-.8-27.8,2.9-41.7,4.3-12.6,1.2-25.9,1.5-37.9,5.3-8.5-1.4-16.3,1.4-24.4,2.2-13.2,1.3-26.7,2.1-39.5,5.1-6.4,1.5-13.9-.8-19.9,2.4-14.3-.7-27.5,4.6-41.8,3.8-5.3,2.6-12,.8-17.2,2.2-5.5,1.4-11.1.7-16,1.8-12.4,2.9-25.8,2.2-37.8,5.6-8.5-1.4-16.2,1.7-24.4,2.1-7.4.4-15.1,1.1-22.2,3.1-1.4.4-2.6.5-3.9.5-15.7,1-31.3,2.3-46.3,5.8-9.4-1.4-18.5,1.2-27.2,2.3-12.6,1.7-25.7,1.7-38,5.1-5.5,1.5-12.6,1.4-18.7,1.7-8.7.5-17,3.5-25.8,2.3-4.3-.6-6,2.7-10.3,2.1-3.4-.4-6.9-.5-10.5,1.4-2.4,1.3-7.3.6-11,.3-4-.3-6.1,2.3-10.2,2.1-13.8-.6-26.4,4.6-40.4,3.7-5.2,2.9-12.2.6-17.1,2.2-5.5,1.7-11.9.2-15.8,1.9-6.3,2.9-14.1-.4-19.4,3.4-.5.3-1.8.2-2.7.1-6.6-.8-12.6,1.1-18.8,1.9,0-5.1,0-10.3,0-15.4,2-.6,3.9-1.8,6-1.8,14.1-.4,27.9-2.8,41.7-4.3,12.6-1.4,25.9-1.6,37.9-5.4,9,1.5,17.4-1.4,25.8-2.3,12.7-1.4,25.8-1.8,38.1-5.1,3.3-.9,7.5-.6,11.2-.3,4,.3,6.1-2.3,10.2-2.1,13.8.6,26.5-4.6,40.4-3.7,5.2-2.9,12.1-.7,17.2-2.2,5.5-1.6,11.2-.6,16-1.8,12.3-3.2,25.4-4,38-5.1,14-1.3,27.7-3.4,41.6-4.8,12.6-1.2,25.9-1.5,37.9-5.3,8.5,1.5,16.3-1.4,24.4-2.2,13.2-1.3,26.7-2.1,39.5-5.1,3.4-.8,7.5-.8,11.1-.3,4.2.5,6-2.4,10.3-2.2,13.8.7,26.5-4.6,40.4-3.7,5.3-2.8,12-.8,17.2-2.2,5.5-1.5,10.9-.9,16-1.8,8.7-1.6,17.4-2.7,26.2-3.7,8.4-1,16.7-1.8,24.8-3.6,5.8-1.3,12.9.7,18.7-2.2,9,1.4,17.1-3.1,25.9-1.9,4.2.6,6.2-2.4,10.3-2.1,3.5.2,7,.5,10.6-1.3,2.5-1.2,7.3-.7,11-.4,4,.3,6.1-2.3,10.3-2.1,13.8.6,26.5-4.7,40.4-3.7,5.2-2.9,12.1-.7,17.2-2.2,5.5-1.6,10.7-1.2,16.1-1.8,4.3-.5,8.4-1.7,12.4-2.9,12.8-3.9,25.6-7.8,38.8-11.1,3.4-.9,9.3-1.3,9.7-5.6.1-1.2,2.6-2.5,4.4-3.5,9.4-5.3,15.2-12.7,24-18.4,3.9-2.6,5.8-6.6,8.5-10,3.4-4.2,5.3-8.9,10.7-12.4,1.7-1.1,1.5-3-2.1-3.2Z" fill="#eae8e6"/>
        <path d="M405.2,564c0-4.9,0-9.8,2.6-14.7,2.3-4.2-2.2-9.4,3-13.6.9-.8,0-2.5.1-3.8.1-4.3,0-8.5,2.5-12.8,2.2-3.8-1.5-8.7,3.1-12.6.5-.4,0-1.3,0-1.9.6-4.6-.6-9.1,2.4-13.8,2.6-4-1.4-9.3,3.2-13.6.7-.6.2-1.9,0-2.8-1.2-7.9,2.9-15.4,3.5-23.2.4-5.1.6-10.6,2.6-15.5,2.1-5,1.3-9.9,2.6-14.6,2.7-10,3.4-20.2,6.1-30.1,1.3-4.9.5-10,2.7-14.6,2.3-4.9,2.8-9.8,2.3-14.7-.3-2.8,3.7-4.2,3.1-6.9-.4-2.2-.1-4.5,0-6.7,0-1.1.9-1.7,2.6-1.7,4.3,0,8.6-.2,12.8,0,3.8.3,7,3.6,7.5,6.3.9,4.5-1.5,8.5-2.9,12.7-1.4,4.2,2.8,8.9-2.7,12.8-.7.5-.4,1.9-.2,2.8,2,7.6-2.8,14.8-3.5,22.3-.5,5.1-.5,10.6-2.6,15.5-2.3,5.3-1.1,10.6-2.7,15.6-3,9.4-3.2,18.9-5.8,28.2-1.5,5.2-1,10.6-2.9,15.5-1.9,4.9-.6,10.2-2.9,14.5-2.6,4.7-1.1,9.3-2.5,13.7-3.2,10.6-3.3,21.5-6,32-1.2,4.6-1.6,9.1-2.6,13.7-.9,4.5-3.2,8.9-2.7,13.7.4,4-4,7.4-3,11.7.9,3.9-1.1,7.8-2.1,11.7-2.1,8-8.9,14.3-14,21.2-2.2,2.9-4.7,5.7-7,8.6-7.6,10.1-16.2,19.8-23.9,29.9-4,5.2-11.4,7.9-18.4,9-7.4,1.2-14.4,3-21.7,4.3-13.3,2.3-26.6,4.6-39.4,7.8-12.3,3-24.7,3.7-37.6,3.8-27.3.4-54.2-3.5-81.5-2.1-15.5-3.6-31.7-.5-47.2-2.1-17.7-1.9-35.7-.2-52.9-2.1-15.5-1.8-30.7-1.2-46-1.3-5.8,0-10.4-2.3-15.9-2.2-5.7.1-11.4,0-17.1,0v-15.4c5.1-3.1,11.3-3,17.5-2.7,68.2,3.2,136.7,3.8,204.6,8.2,43.2,2.8,81.7-4.7,121.2-12.7,6.7-1.4,12.1-3.8,15.2-8.1,8.2-11.6,20.2-21.7,29.4-32.9,2.2-1.8,3.6-3.9,5.7-5.8,1.7-1,1.2-2.8,2.9-3.8,6.3-8.5,1.2-18.6,8.6-26.9Z" fill="#eae8e6"/>
        <path d="M1666,1076c0-4.3,0-8.4,2.6-12.6,2.3-3.5-2.5-8.2,3.1-11.5.2-.1.1-.6,0-.9-2.2-7.2,4.4-13.9,2.9-21.1,1.5-4.8,2.1-10.3,13.1-8.5,73.4,2.7,146.8,1.7,220.1.7,4.4,0,8.5,0,12,2.1v23.1c-13.7,6.7-30.4,6.9-45.9,9.5-36.9,6-73.7,12.4-110.7,18.3-30.7,4.8-61.4,2.4-92.2,2.8-1.9,0-3.5-.9-5-1.6Z" fill="#f9f8f7"/>
        <path d="M1620.4,1074.1v5.8H587.7c0-45.4,0-90.8.1-136.1,0-2.1-2.8-5.1,2.7-6.3,6,4.6,4.8,10.2,4.8,15.6.2,33.3-.2,66.7.1,100,.1,13.8.6,13.5,20.8,14,175.2,4.1,350.6-.4,525.8,2.3,114.5,1.7,228.9,0,343.4,1.9,41.3.7,82.6,1.3,123.9,1.4,3.8,0,7.6.1,11.1,1.4Z" fill="#eae8e6"/>
        <path d="M0,1060.6c8.1,0,16.2.3,24.2,0,9.8-.5,18.8,2.8,28.8,2.1,9.9-.6,19.9-.1,29.9-.1s20,0,29.9,0c1.4,0,2.9-.3,3.8.8,1.3,1.5-1.6,4.2,2.1,4.6,1.8.2,0-3.9,4.6-3.5,3.3.3,6.6,0,10,0,28,0,56.2-1.3,84.1.3,42.4,2.5,84.8.9,127.2,1.6,16.5,3.4,33.4,1.6,50.1,1.9,16.6.3,33.3.6,49.9,0,15.1-.6,29.4,2.8,44.5,2.2,15.2-.6,30.4-.1,45.6-.1,7.2,0,6.8,0,7.5-5.2.4-2.7-3.6-6.3,2.7-8.3v23.1H117c-11.6-2.2-23.5-1-35.2-.9-23.7.2-47.3-1.1-71-1.1-3.8,0-7.6,0-10.7-1.9v-15.4Z" fill="#eae8e6"/>
        <path d="M496.4,2c-6.2-1-11.1,2.5-17.4,2-6.1-.5-12.9-1.2-18.4.1-9.6,2.3-19.2,1.4-28.9,1.7-6.4.2-12,2.6-18.8,2.1-6.2-.4-13.1-1.6-18.8,1.7-.6.3-1.9.1-2.8,0-16.4-1.3-32.3,3.1-48.7,1.9-6.7-.5-12,2.9-18.8,2.1-6-.7-13-1.3-18.3.1-8.3,2.3-16.4,1.6-24.6,1.5-6.1,0-11,2.9-17.4,2.2-5.5-.7-11.9-1.1-16.9,0-9.2,2.2-18.6.5-27.3,1.9-10.6,1.8-21.4.5-31.6,2-10.2,1.5-20.4.5-30.2,1.9-11.1,1.6-22.3.5-33,2-9.7,1.3-19.7.2-28.7,1.9-11.2,2.1-22.1,1.1-33.1,1.6-7.2-9.6-7.1-19.2,0-28.9h433.6c1,.4,1.3.9,1,1.3-.3.4-.6.6-1,.6Z" fill="#f9f8f7"/>
        <path d="M159.8,496.7c5.3,2.1,11.9,2.2,16.3,5.9,2.5,2.1,3.8,3.9,3.8,6.6.1,5.8-.2,10.7-7.7,15.2-5.1,3-9.8,3-15.2,3.1-14.2,5-28.8,1.1-43,.5-31.5-1.5-63-3.8-94.6-5.2-7.2-.3-14.1-1-19.4-4.9v-28.9c6.4-3.7,14.1-3.4,21.6-2.9,42.2,3,84.5,4.7,126.6,7.6,4.2.3,8.5.5,11.5,3Z" fill="#afb8c9"/>
        <path d="M388,600.6c-1.9,6.9-7.2,12.9-12.5,18.5-5,5.4-9.7,10.8-12.9,16.6-3.2,5.6-9.6,8.4-16.7,8.8-9.2.6-17.2,3.2-25.6,4.9-14.3,2.9-29.2,4.6-42.9,8.9-14.8-1-29.9,2.1-44.5-1.6-2.5-.6-5.6-.3-8.4-.3-9.5,0-19-.3-28.5,0-10.7.4-20.7-2.8-31.6-2.1-10.3.7-21.4,1.5-31.2-.2-15.4-2.6-30.6-1.1-45.9-1.5-9.7-.3-18.8-2.8-28.7-2.1-9.4.6-19.4,1.4-28.3-.2-10.2-1.8-20.2-1.2-30.2-1.6v-5.8c15.2,0,30.4-.5,45.6.1,27.7,1,55.1-2.6,82.9-2.1,28,.5,56.3,1.6,84-.3,30.6-2.2,61-.6,91.5-1.5,3.3,0,5.9-.9,8.9-1.8,17.4-5.1,33.8-11.6,50.4-17.6,4.4-1.6,7.7-4.4,10.6-7.3,4.2-4.2,7.7-8.8,14.2-11.8Z" fill="#f9f8f7"/>
        <path d="M1666,1076c18,0,36.1-.6,54,.2,15.5.7,30-2.2,44.4-4.4,10.7-1.7,21.6-3.1,32.2-5.2,17.4-3.4,35.3-5.6,52.6-9.4,3.6-.8,7.4.8,10.6-1.2,4.7-2.9,11.2-.1,17-2.6,3.7-1.6,9.6-2.9,15.6-2.5,5,.3,11-.7,15.3-2.5,4.3-1.7,8.2-.6,12.2-1.1v15.4c-4.8,3.5-11.3,4.3-17.7,5.4-28.1,4.7-56,10.1-85,12h-151.2v-3.8Z" fill="#eae8e6"/>
        <path d="M1919.9,1024.1c-34.1,3.7-68.5,1.5-102.7,1.8-34.2.4-68.3-.2-102.5.2-10.8.1-20.8-3.5-31.6-2.1-2.1-8.6,8-5.7,14-6.7,69.2,0,138.3,0,207.5,0,5.1,0,10.4-.9,15.3.9v5.8Z" fill="#e5ded9"/>
        <path d="M159.8,496.7c-5.7,0-11.4-.4-17,.1-7.6.7-14-2.6-21.5-2.1-7,.5-14.8,1.3-21.1-.2-8.3-2.1-16.3-1.3-24.5-1.6-13.3-.6-26.4-3.1-39.9-1.9-11.6-3.5-23.8-1.3-35.7-1.9v-11.5c8-1.4,15.1,2.1,23,2,7.6-.1,15.8-1.3,22.5.3,8.4,2,16.4,1.6,24.5,1.5,7.5-.1,13.9,2.8,21.6,2.2,7-.6,14.7-1.3,21.1.1,10.6,2.3,21.1,1.5,31.6,1.5,5.6,0,10,3,15.9,2.1,2.5-.4,2,1.5,2.5,2.7,1,2.7-1.4,4.7-2.9,6.9Z" fill="#f9f8f7"/>
        <path d="M0,517.8c6.6-1,11.9,2.8,18.7,2.1,6.5-.7,13.7-1.3,19.7,0,11,2.5,22.2.3,32.8,1.9,11,1.6,22.3.3,32.7,2,11.1,1.8,22.1.6,32.9,1.8,6.7.7,13.2,2.1,20.1,1.7,0,.6,0,1.3,0,1.9,0,7.7,0,7.4-10.8,7.8-17.8.7-35.1-3.5-52.9-2-9.7-2.9-20.4-.7-30-2.2-13-2-26.1-.5-38.7-2-8.2-1-16.3-1.5-24.5-1.6v-11.5Z" fill="#f8f7f7"/>
        <path d="M40,30.9c-3.5,3-9,2.9-13.8,3.8-8.9,1.6-17.6,3.4-26.1,5.8C0,27.7.1,14.8,0,2,0,.3.5,0,2.9,0c12.4.1,24.7,0,37.1,0,7.1,10.3,7.1,20.5,0,30.8Z" fill="#f9f8f7"/>
        <path d="M1817.2,1079.9c4.7-2.9,11-3.4,16.6-3.6,10.8-.5,20.6-3.4,31.1-4.7,13.3-1.6,26.1-5.1,39.4-6.8,5.2-.7,10-3.2,15.7-2.2v17.3h-102.7Z" fill="#f9f8f7"/>
        <path d="M1919.9,868.1h-51.3c-.3-2.8,1.3-5.2,2.5-7.8,1.2-2.5.5-5.4,3.2-7.6h45.6v15.4Z" fill="#eae8e6"/>
        <path d="M40,30.9V0h22.8v28.9c-3.2,1-6.1,2.4-10.1,2-4.1-.4-8.5,0-12.7,0Z" fill="#eae8e6"/>
        <path d="M1919.9,1018.3h-225.4c-1-.4-1.3-.9-1-1.3.3-.4.6-.6,1-.6h225.4v1.9Z" fill="#cbc5c0"/>
        <path d="M0,1076c4.7,0,9.5.2,14.1,0,16.7-.9,32.9,2.9,49.7,2.1,16.4-.7,33-.2,49.5-.2,1.9,0,3.9,0,3.6,1.9-37.6,0-75.1-.1-112.7.1-5.8,0-4.1-2.1-4.3-4Z" fill="#f7f6f5"/>
        <path d="M496.4,2V0h17.1c1,.4,1.3.9,1,1.3-.3.4-.6.6-1,.6h-17.1Z" fill="#e9eaed"/>
        <path d="M513.6,2V0h14.3c.2,1.7-1.5,1.9-3.4,1.9-3.6,0-7.2,0-10.9,0Z" fill="#d1d5de"/>
        <path d="M961.4,2V0h8.6c-1.3,3.7-5.8,1.2-8.6,1.9Z" fill="#dfe1e7"/>
        <path d="M0,1018.3c2.7-.1,3,1.1,2.8,2.4-.2,1-1.1,1.7-2.8,1.5v-3.8Z" fill="#869cc0"/>
        <path d="M0,1006.7c1.4,0,2.6.1,2.3,1.3-.1.3-1.5.4-2.3.6,0-.6,0-1.3,0-1.9Z" fill="#718ab5"/>
        <path d="M840.1,750.7h231c40.4-4,81-1.4,121.5-1.8,40.4-.5,80.8-.1,121.2-.1h489.2c1.9,0,3.8,0,5.7,0,8.5,0,8.5,0,8.5,5.4,0,26.9,0,53.9,0,80.8,0,5-2.9,9.4-4.7,14.1-2.2,5.8-4.7,11.5-6.7,17.4-1.1,3.3-2.7,6.4-6.4,8.8-7.8,5.2-15.8,10.2-23.1,15.7-3.8,2.8-9.8,1.4-13.3,4.1-12.8.1-24.5,3-36.4,5.7-2.6.6-5.7,0-8.5,0h-435c-37-3.9-74.3-1.4-111.5-1.8-37.1-.4-74.2,0-111.2,0s-75.3,1.5-112.6-.4c-36.8-2-73.4-.9-110.1-1.4-36.6-.5-73.2,0-109.8,0h-111.2c-2.9,0-5.7.2-8.5,0-6.2-.5-9.1-2.8-9.1-7.1,0-44.9,0-89.8,0-134.7,0-4.4.1-4.5,7-4.5,78,0,155.9,0,233.9,0Z" fill="#e6ebf6"/>
        <path d="M881.5,73.2c1.1-1.9-2.6-4.9,2.9-5.8,10,3.7,20.7,1.2,30.7.6,62.7-4.1,125.5-7.2,188.3-10.9,91.5-5.3,183.1-10.5,274.6-15.6,79.3-4.4,158.6-8.8,237.9-13.4,45.8-2.6,91.6-4.8,137.3-7.8,16.4-1.1,22,1.4,23.9,12.6,4.4,26.1,7.2,52.3,10.4,78.4,1.4,11.5,3.4,22.9,4,34.5.2,3.5,1.4,7-1.7,10.3-16.6,6-35.3,3.8-52.9,5.2-42.2,3.1-84.6,5.4-127,7.7-27.3,1.5-54.7,2.9-82,4.5-37.6,2.3-75.3,4.2-112.8,6.9-24.9,1.8-49.9,2.9-74.8,4.3-29.2,1.7-58.3,3.6-87.4,5.3-25.4,1.5-50.9,2.8-76.3,4.4-29.1,1.8-58.3,3.5-87.4,5.2-25.9,1.5-51.8,3-77.7,4.4-28.7,1.6-57.5,2.6-86,5.4-17,1.7-20.8.5-25.8-9-5.4-41.2-11-82.5-16.5-123.7-.2-1.3-.3-2.5-1.5-3.6Z" fill="#dfdfdf"/>
        <path d="M1754.4,329.2c-11.6-3.6-23.1-7.2-34.7-10.9-4.1-1.3-8.3-.6-12.4-.6-106,0-212,0-318,0h-213.9c-36.1-3.7-72.4-1.5-108.6-1.8-36.6-.4-73.2,0-109.8,0h-109.8c-36.6,0-73.2-.4-109.8.2-10.8.2-16.4-4.2-20.1-8.7-3.9-4.6-2.3-11,2.3-15.9,2.7-2.9,7.3-4.6,12.8-4.5,3.3,0,6.7,0,10,0,321.3,0,642.7,0,964-.2,11.8,0,22.9,1.6,32.8,4.7,16.3,5.2,33.3,9.3,49.5,14.6,9.1,3,18.9,4.9,28,7.9,5.3,1.7,11.1,3.5,13.6,7.8,1.1,1.9,2.7,3.7,4,5.6,2,7.3-6.8,6.4-12.3,6.7-17.9.9-35.8,0-53.6-.2-5.6-.1-10.6-1.2-13.9-4.6Z" fill="#afb8c9"/>
        <path d="M1831.5,708.4c-32.3,0-64.7,0-97,0-13,0-25.6,2.8-38.8,2.1-12.8-.7-25.8.7-38.5-.3-41.9-3.5-83.9-1.2-125.8-1.7-42.8-.4-85.6,0-128.3,0h-255.3c-42.3,0-84.7,1.3-126.9-.4-31.1-1.3-62-1.1-93-1.4-31.8-.3-63.7,0-95.5,0s-62.7,0-94.1,0c-2.6,0-7,1.9-8-1.8,1.3-1,2.8-1.7,4.7-2.1,5.5-1.3,11.2-1.1,16.9-1.1,128.4,0,256.8-1.5,385.1.3,212,3.1,424,.4,636,1.5,27.9.1,27.6,0,28-19.1.5-23.1-2-46.2,1.5-69.2,1.3-3.1,4.9-4.5,9-5.4,9.6-2.1,10.5-7.2,10.3-12.9-.2-4-1.7-6.8-9-6.2-4.6.4-8.3-.5-10.1-3.8-2-4.1-1.8-8.3-1.8-12.4,0-64.4-.1-128.8.1-193.2,0-5.5-2.4-11.8,6.6-15.7,15.5,6.8,17.2,18.4,22,28.9,1,2.1.9,4.4.8,6.7-1.8,40.4,4,80.6,2.8,121-1.6,57,4.2,113.9,2.9,170.9-.1,5.3,1.5,11-4.7,15.6Z" fill="#e9e2de"/>
        <path d="M1831.5,708.4v-34.6c0-16,2.1-32.2-.6-48-2.7-16.2-1.7-32.2-2.2-48.3-.5-16-.1-32-.1-48.1s1.9-32.2-.6-48c-2.2-14.2-1.9-28.3-2.2-42.5-.3-14.4-.4-28.8.2-43.3.2-3.7-4.9-6.1-3.3-9.7-7.4-5.8-8.2-13.8-14.1-20.1-5.8-2.6-7.3-6.8-6.6-10.9,1.9-10.2-5.7-14.4-19.3-15.4-5.9-2.6-15.6-1.5-16.9-8.3,21.2,0,42.3-.1,63.5,0,4.8,0,5.5-1.3,5-3.9,4.2,3.7,8.7,6.8,9.2,12.3.3,3.3,4.2,7,5.1,10.8-1.8-.2-2.7.5-2.8,1.5-.1,2.9,0,5.8,0,8.7,0,61.9-.5,123.7.3,185.6.3,26.4-4.3,52.6-3.3,79,1,26.3.2,52.6.3,78.8,0,2.8.6,5.4-5.7,4.5-2.7-.4-2.9,1.1-2.9,2.4,0,2.2,0,4.5,0,6.7,0,39.1,0,78.2-.1,117.3,0,2.1,2.8,5.2-2.7,6.3v-132.8Z" fill="#d6d1d2"/>
        <path d="M736.1,333.1c.4-1.4-1.4-3.4,2.3-3.8,2.3-.2,4.7,0,7.1,0h283.5c1.9,0,3.8,0,5.7,0,3.1-.2,4.1.8,3.9,2.8-.2,2.2,0,4.5,0,6.7,0,45.2,0,90.3,0,135.5,0,5.4-1.1,5.1,7.5,5.1,48.4,0,96.9,0,145.3,0,34.6,3.8,69.5,1.4,104.2,1.8,35.1.4,70.3,0,105.4,0h105.4c1,1.2,1.1,2.4.3,3.6-5.1,3.8-12.1,3.4-18.6,3.4-146.4,0-292.8.2-439.3,0-24.2,0-29.2-3.7-29.3-20-.2-37.9,0-75.7-.1-113.6,0-14.1-.7-14.5-21.7-14.5-78.9,0-157.8,0-236.7-.1-8.6,0-18.5,1.6-24.2-5.1-.2-.6-.4-1.2-.5-1.9Z" fill="#e9e2de"/>
        <path d="M1788.7,156c2.1-4.8-3.7-8.8-3-13.6.7-4.8,1.9-10-.2-14.3-3.5-7.2-.5-14.5-2.8-21.4-2.6-8.1-.7-16.4-3-24.2-2.1-7.2-.4-14.5-2.8-21.3-2.7-7.5-1.3-14.9-2.6-22.3-.8-4.5-3.3-8.9-2.6-13.6.3-1.8-1.5-2.1-3.5-2-11,.8-22.4-2-33.1,1.9-.7.3-1.9,0-2.8,0-18.3-1.3-36.2,3.1-54.4,1.9-7.1-.5-12.9,2.9-20.2,2.1-6.5-.7-14-1.4-19.8.1-8.3,2.2-16.5,1.9-24.6,1.4-7.7-.4-14.2,2.4-21.6,2.2-7.1-.2-14.9-1.2-21.2.2-10.2,2.3-20.5.4-30.2,1.8-12.9,1.9-26.2.4-38.7,2.1-9.3,1.3-18.4,1.7-27.4,1.3-7.2-.3-13,2.9-20.2,2.3-7-.6-14.9-1.4-21.2.2-8.8,2.2-17.5,1.8-26,1.4-7.3-.3-13.1,2.7-20.2,2.3-7.1-.4-14.8-1.2-21.2.2-10.6,2.3-21.4.4-31.7,1.9-12,1.8-24.3.5-35.8,2-11.2,1.5-22.3.4-33,1.8-12,1.6-24.3.5-35.8,2-10.2,1.4-20.5.3-30.2,1.8-12,1.9-24.3.3-35.8,2-10.7,1.6-21.4.3-31.6,1.8-12.5,1.8-25.3.4-37.2,2.1-9.8,1.4-19.3,1.5-28.9,1.4-7.1,0-13,2.9-20.2,2.2-6.5-.6-14-1.4-19.8.2-9.3,2.4-18.4,1.8-27.5,1.4-7.2-.3-13,3-20.2,2.3-7-.6-14.9-1.4-21.2.2-8.4,2-16.4,1.5-24.6,1.5-12.5.1-24.6,3.3-37.3,2.1-4.4-.4-8.3-.6-9.6-4,7.2,1.4,13.1-2.5,20.2-2,7.1.4,14.8,1.2,21.2-.2,10.6-2.3,21.4-.4,31.7-1.9,12-1.8,24.3-.5,35.8-2,11.2-1.5,22.4-.4,33-1.8,12-1.7,24.3-.4,35.8-2,10.2-1.4,20.5-.3,30.2-1.8,12-1.9,24.3-.3,35.8-2,10.2-1.5,20.2-1.6,30.3-1.4,6.6,0,12-2.9,18.8-2.2,6.5.6,13.9,1.3,19.8-.1,9.7-2.3,19.3-1.6,28.9-1.5,7.1,0,13-2.9,20.2-2.2,6.5.6,14,1.4,19.8-.2,9.3-2.4,18.4-1.7,27.5-1.4,7.2.3,13-2.9,20.2-2.3,7,.6,14.9,1.4,21.2-.2,8.4-2,16.5-1.8,24.6-1.4,7.7.4,14.2-2.4,21.6-2.2,7.1.2,14.9,1.2,21.2-.2,9.7-2.2,19.3-1.6,28.9-1.5,7.1.1,13-2.9,20.2-2.2,6.5.6,13.9,1.3,19.8-.1,9.2-2.3,18.4-1.8,27.4-1.5,7.2.3,13-2.9,20.2-2.3,7,.6,14.9,1.4,21.2-.2,8.4-2,16.5-1.8,24.6-1.4,7.7.4,14.2-2.4,21.6-2.2,7.1.2,14.8,1.2,21.2-.2,10.2-2.2,20.5-.5,30.2-1.9,12.9-1.9,26.2-.4,38.7-2.1,9.8-1.4,19.3-1.5,28.9-1.4,7.1,0,13-2.8,20.2-2.2,6.5.6,14,1.4,19.8-.2,8.8-2.3,17.4-1.3,26.1-1.5,3.6-.1,9.6-1.4,10.5.6,1.2,2.8,4.4,5.4,3.8,8.6-1.9,11.7,4.9,23.1,2.8,34.8-.9,4.8,4.3,8.7,3.1,13.7-1,4.4-2,9.4.2,13.3,3.2,5.6,2.8,11.1,2.1,16.6-.6,5.2,3.6,9.6,3.2,14.6-.4,4.8-1.8,10,.3,14.3,3.3,6.6,1.8,13,2.4,19.5.1,1.3,0,2.6-2.8,2.5-2.9,1.3-5.7,1.5-8.6,0Z" fill="#e4e4e4"/>
        <path d="M487.9,236.8v53.9c-2.7,2.2,0,6.2-5.5,7.5-29.9,2.5-59.9.7-89.8.8-2.8,0-5.3-1.3-7.4-2.5-3.2-8.6,0-16.9,1.1-25.4,1.3-9.5.5-19.1.2-28.7-.1-4.5,1.8-7.8,8.8-8.1,28.8-1.1,57.6-1.5,86.4.2,2.4.1,4.3,1.3,6.1,2.3Z" fill="#dfdfdf"/>
        <path d="M1506.3,483.2v-1.9c0-45.4,0-90.8.1-136.1,0-2.1-2.8-5.1,2.7-6.3,8.9-1.7,17.9-4.6,26.9,0,4,4,3.6,8.5,3.6,13,.1,38.4.2,76.8,0,115.2,0,16.7-7.9,20.3-33.3,16.2Z" fill="#d0c8c2"/>
        <path d="M1788.7,156h8.6c-1.2,2.8-5.5,3.3-8.3,3.6-5.3.7-11,0-15.8,2.1-15.9-1.5-31.4,3-47.2,1.8-7.3-.6-13.1,2.6-20.2,2.2-7.1-.4-14.8-1.2-21.2.2-9.7,2.1-19.5.5-28.8,1.9-12,1.8-24.2.5-35.8,2-10.7,1.4-21.5.3-31.6,1.9-11.1,1.8-22.3.4-33,1.9-11.1,1.5-22.5.3-33,2-11.2,1.8-22.4.2-33,1.8-11.1,1.6-22.4.4-33,2-10.2,1.6-20.2,1.6-30.3,1.4-6.2-.1-11,2.8-17.4,2.2-6.1-.6-12.9-1.3-18.4.1-10.1,2.6-20.2,1.4-30.3,1.6-7.3.2-13.9,2.8-21.6,2.2-6.6-.5-14-1.5-20.2,1.7-.3.2-.9,0-1.4,0-15-1.4-29.5,2.3-44.4,1.9-14.9-.4-29.4,3.4-44.4,1.9-10.2,3.3-21.3.6-31.5,2.1-11.5,1.7-23.4.3-34.4,2.1-10.3,1.7-20.2,1.3-30.3,1.5-7.4.2-13.9,2.8-21.6,2.2-6.6-.5-13.9-1.5-20.2,1.7-.6.3-1.9.1-2.8,0-17.8-1.3-35.2,2.8-52.9,1.9-6.5-.3-12,2.8-18.8,2.1-6-.7-12.8-1.2-18.4,0-9.6,2.2-19.5.6-28.8,1.9-12.5,1.8-25.2.4-37.2,2.1-9.8,1.4-19.2,1.1-28.9,1.5-1.9,0-3.9,0-3.7-1.9,3.7-2.8-.8-6.8,2.9-9.6.8.2,2.3.4,2.3.7.5,2.1-.4,5,1.4,6.3,2.5,1.9,7.1.6,10.8.7,13.9.2,27.5-3.3,41.6-1.9,9.7-3.4,20.1-1.6,30.2-1.8,7.4-.2,13.9-2.8,21.6-2.2,6.6.5,13.9,1.5,20.2-1.7.6-.3,1.9-.1,2.8,0,17.8,1.3,35.2-2.9,53-1.9,6.5.3,12-2.8,18.8-2.1,6,.7,12.9,1.2,18.4,0,10.1-2.4,20.5-.3,30.2-1.9,11.6-1.9,23.3-.4,34.4-2,10.6-1.5,21.5-.4,31.6-1.9,11.1-1.7,22.3-.4,33-1.9,11.1-1.5,22.4-.5,33-2,10.2-1.5,20.5-.4,30.2-1.9,12-1.8,24.3-.3,35.8-2,10.2-1.5,20.5-.2,30.2-1.8,11.6-1.9,23.3-.4,34.4-2,10.6-1.5,21.5-.4,31.6-1.9,11.1-1.7,22.3-.4,33-1.9,11.1-1.5,22.4-.4,33-2,11.2-1.7,22.4-.3,33-1.8,11.1-1.6,22.4-.4,33-2,10.7-1.7,21.1-1.4,31.7-1.5,6,0,11-2.9,17.4-2.2,5.5.6,12,1.2,16.9,0,10.1-2.7,20.2-1.4,30.3-1.6,7.4-.2,13.9-2.8,21.6-2.2,6.6.5,14,1.5,20.2-1.7.3-.2.9,0,1.4,0,14.5,1.4,28.6-2.3,43-1.9,9.3.3,18.3-1,27.3-2Z" fill="#d3d3d3"/>
        <path d="M733.2,704.5h-2.9c-1.8.2-2.7-.5-2.8-1.5-.2-1.9,0-3.8,0-5.8v-137.4c5.5-23.7,2.2-47.5,2.7-71.3.6-24.3.1-48.7.1-73s0-48.1,0-72.1c0-3.9-.5-8,5.7-10.3,3.9,5.6,5,11.6,4.9,17.7,0,82.3,1.2,164.7-.7,247-.7,31.7-1.7,63.4-2.3,95,0,4.2-.2,8.4-4.8,11.7Z" fill="#d1c9c3"/>
        <path d="M1765.9,331.1c1.2,3.2,6.1,3.3,9,3.6,3.3.3,5.2,2.1,8.2,2.2-3.4,6.6-12.1,5-19,5-34.6.3-69.1.1-103.7.1-34.6,0-69.1.1-103.7,0-7.8,0-16.5.7-21.3-5.3-1-1.8-1-3.7-.4-5.5,0-.3-.1-.9,0-.9,9.1-2,18.6-1.6,27.5-.3,3.5.5,7,1.2,10.5,1.2,57.9,0,115.8,0,173.6,0,2.6,0,6.9,1.9,7.9-1.8,2.3,0,4.6-.3,6.2,1.3,1.3,1.3,3.4.4,5.2.6Z" fill="#e9e2de"/>
        <path d="M487.9,236.8c-31.2,0-62.4,0-93.6,0-4.7,0-7.5.4-6.3,4.1,0,.3,0,.6,0,1,0,6.1.5,12.1-.1,18.2-.7,6.1,1.2,12.1-2.1,18.5-2.8,5.4-.6,12-.6,18-.8-.2-2.3-.5-2.3-.7.4-7.1-3.1-14.3,1.7-21.3,1.3-1.8.5-4.3.6-6.5,0-11.8.2-23.6,0-35.4,0-3.1,1.5-3.6,5.6-3.6,30.2.1,60.5,0,90.7,0,6.2,0,6.2,0,6.4,4.8,0,1,0,1.9,0,2.9Z" fill="#e5e5e5"/>
        <path d="M901.5,200.2c0,2.4,0,4.9,0,7.3,0,1.3-.3,2.4-2.9,2.3,2.1-4.8-3.7-8.8-3-13.6.7-4.4,2-9.5-.3-13.3-3.1-5-2-9.8-2.3-14.7-.5-9.7-4.8-19.2-2.9-29-4.6-5.6-3-11.6-2.6-17.5.3-4.5-4.4-8.1-3.3-12.7,1-4.1,1.9-8.7-.1-12.4-4.3-7.8-1.4-15.6-2.5-23.3,1.8,2.1,5.7,11,5.7,13.2,0,3.8-1.2,7.9.3,11.4,3.1,7.4.8,15,3.1,22.2,2.2,6.9.7,13.7,2.7,20.3,2.4,7.4.6,15.1,3,22.2,2.3,6.9,2.3,13.6,2.1,20.4-.1,3.3,4.6,5.3,3.3,8.8-1,2.7-.2,5.7-.2,8.6Z" fill="#d0d0d0"/>
        <path d="M385.2,296.5h99.8c1.8,0,1.8,1.4,2.9,1.9-.3,5.7-.4,5.4-6.5,5.8-11.2.9-21.7-2.5-32.9-2.2-18.9.6-37.9.2-56.8.1-6.2,0-6.2,0-6.5-5.8Z" fill="#d4d4d4"/>
        <path d="M40,870.1c0,1,0,1.9,0,2.9,0,1.2.4,2.7-2.2,2.9-2.1.2-4.1-.4-3.4-2,1.1-2.6-2.9-3.8-2.9-5.9,0-2.6,0-5.1,0-7.7v-55.6c9.5-4.4,10.5.2,9.8,4.6-1.9,11.7-.5,23.5-1.9,35.3-1,8.5-2.2,17.1.7,25.5Z" fill="#e3dbd6"/>
        <path d="M40,870.1c-2.8.1-2.8-1.1-2.8-2.5,0-15.9,0-31.8,0-47.7,0-3.7,4.6-6.7,2.9-10.7-.5-1.2,0-2.5-.3-3.8-.4-1.6-4.8-2-8.4-.9.4-1.4-1.4-3.4,2.2-3.8,4.2-.5,7.2.7,9.1,3.2.6.8,0,1.9,0,2.8,0,11.5,1.9,23.1-.6,34.4-2.1,9.7-1.6,19.3-2.3,28.9Z" fill="#cec8c3"/>
        <path d="M1534.8,331.1c2,0,2.9.6,2.9,1.9-2.8,1.5-.1,4.3-2.9,5.8h-25.7c-.3-1.2.8-1.7,2.2-1.9,8.2-1.3,15.2-4.7,23.4-5.8Z" fill="#d5cfcb"/>
        <path d="M405.2,564c1.3,4.6-4.9,8.5-2.9,13.2,1.9,4.4-2.6,8.1-2.9,12.3,0,.9-1.1,1.7-2.8,1.4-.7-8.1,4.9-15.8,3-24-.2-1,3.1-1.4,2.7-3h2.9Z" fill="#f3f3f3"/>
        <path d="M487.9,298.4c-2,0-2.9-.6-2.9-1.9,1.1-1.9-2.6-4.9,2.9-5.8v7.7Z" fill="#c6c6c6"/>
        <path d="M393.7,594.8c.5,3-1.2,5-5.7,5.8-.5-3,1.2-5,5.7-5.8Z" fill="#f9f8f7"/>
        <path d="M396.6,591c-.4,1.5,1.4,3.7-2.9,3.8.4-1.5-1.4-3.7,2.9-3.8Z" fill="#f9f8f7"/>
        <path d="M1620.4,1074.1c-3.3,1-6.2,2.1-10.2,2-32.8-.2-65.8,1.4-98.3-.5-30.6-1.8-61.1-1-91.6-1.4-30.9-.4-61.8,0-92.7,0s-61.8.1-92.7,0c-64.2-.4-128.4-2.6-192.7-2-64.6.6-129.3.1-193.9.1h-193.9c-19.9-3-40.1-1.7-60.1-1.9-3.3,0-3.8-1.1-3.7-3,.2-2.2,0-4.5,0-6.7v-123.1h283.7c56.5,3.9,113.2,1.4,169.9,1.8,57,.4,114,0,171,0,23.7,3.6,47.7,1.5,71.5,1.9,23.7.3,47.5,0,71.3,0,13.6,2.2,27.4.8,41,.9,30.4.3,60.8,0,91.2.2,5.6,0,14.2-2.8,14.7,5.1.5,7.6-7.3,8.3-15,8.4-32.8.3-65.6.9-98.3-.3-9-.3-17.9-1.4-27-1.3-199.5,1.4-399-3-598.6-2-45.1.2-90.1-2.8-135.3-1.9-20.1.4-20.8.6-21,14.1,0,7.7,0,15.4,0,23.1.1,5.5,3.7,8.3,12.1,8.2,4.7,0,9.5,0,14.3,0,300.8,0,601.6,0,902.4,0,21.9,0,43.5-2.7,65.4-2.2,8.6.2,12.9-3.1,14.2-8.6,1.4-6.3,2.4-12.7,4.2-19,2.1-7.4-2.8-9.8-13-9.8-27.1,0-54.2,0-81.3,0-5.7,0-11.4,0-16.9-1.2-6.6-1.4-6.4-4.9-6.1-8.6.3-4.3,4.9-4,9.2-4,41.3,0,82.7,0,124,0,4.3,0,10.7-1,7.8,4.7-.5,4.6.7,9.1-2.5,13.7-2.6,3.7,1.9,8.7-3,12.6-.9.7-.4,2.5,0,3.8.9,4.1-1.4,7.8-2.8,11.7-1.4,3.8-.1,7.7-2.4,11.8-2.6,4.6-2.2,10.3-2.8,15.4-.9,7.4-4.9,14.6-3.7,22.2.5,3.1-3.6,6.1-2.8,9.7.7,3,.9,6.2-2.7,8.8,1.9,6-2.6,11.6-2.9,17.4Z" fill="#f9f8f7"/>
        <path d="M42.9,952.8c3.9.4,7.5-.6,5.5-3.4-4-5.4-1.9-11-2.7-16.6-.4-2.5,1.6-2.8,4.6-3.5,5.7-1.3,11.1-1.9,18-1.7,4,.1,8.5,1.2,12.1-1.1,2.3-1.5,4.1-.7,5.9.6,1.9,1.3,3.4,2.9,7,2.6,21.1-1.5,41.8,2.9,62.9,1.8,13.1-.7,25.6,3.3,38.7,2,4-.4,7.8.5,12-1.5,5-2.3,10.4.6,15.2,2,8.1,2.4,15.8,1.7,23.7-.5,2.4-.6,2.7-1.4,2.7-2.7,0-1.5.3-2.7-3.1-3.4-3.4-.7-6.4-2-10.3-1.8-5.7.3-11.4.3-17.1,0-13.4-.5-26.6-2.3-40.1-2.2-4.9,0-9.8-2.7-14.7.3-11.1-5.1-25,1.3-36.1-3.8-13.6.4-27.3-.9-40.8.7-.7,0-1.4.7-2,1-7.6-6.7-18.3-3-27.6-3.5-4.6-.3-6.3-2.4-9-3.9-.6-.3-.8-.9-1.2-1.3.8-.2,1.6-.6,2.4-.6,2.8,0,5.7,0,8.5,0,10.9,0,21.9.4,32.7-.1,9.5-.5,17.8,3,27.3,2.2,8.9-.7,18.6-1.5,26.9.2,13.1,2.6,26.1.2,38.8,1.8,16.2,2.1,32.7.5,48.6,2.1,11.6,1.2,23.4.1,34.4,1.9,12.1,1.9,24.2.3,35.9,1.9,13,1.8,26.2.3,38.7,2,11.6,1.6,23.3.3,34.5,1.8,13.4,1.8,27.1.4,40.1,2.1,11.2,1.5,22.4,0,33,1.8,12.5,2,25.2.3,37.3,2,12.1,1.7,24,1.1,35.9,1.7,7.1.4,14,1.8,21,2.8,0,0,0,.6,0,.9,2.9,5.9,1.3,12,1.3,18.1,0,28.8.5,57.6-.2,86.5-1.5,2.1-4.2,1.5-6.8,1.3-4.2-.8-8.4-1.2-12.7-1.1-7.1,0-14.2,0-21.4,0-144.1-.4-288.3-3-432.4-2-28,.2-35.1-4.4-33.6-23.4,1.3-17.9,4.2-35.6.9-53.5-.7-3.7,1.2-7.6,5.7-10.5Z" fill="#f9f8f7"/>
        <path d="M1646,947.1c-.4-1.4,1.4-3.4-2.3-3.8-1.9-.2-3.8,0-5.7,0-41.4,0-82.7,0-124.1,0-2.6,0-6.5-1.1-7.5,1.1-1,2.3-.6,5.1.1,7.6.4,1.4,3.2.9,5,.9,25.2,0,50.4,0,75.6,0s24.7,0,37.1,0c3.8,0,4.4.9,4.8,3.3.7,4.2-1.7,7.9-3,11.7-1.2,3.6,2.1,7.5-2.4,10.9-1.2.9-.4,3-.5,4.6,0,1.9.4,3.9-.1,5.8-.8,2.6-1.5,5.6-3.9,7.4-1.6,1.2-6.2.7-9.4.5-27.3-1.2-54.3,2.2-81.5,2.1-302.8-.3-605.7-.2-908.5-.2-4.7,0-10.7.9-13.7-.7-3.3-1.7-1.1-6-1.1-9.1-.1-12.8,0-25.7-.1-38.5,0-2.9,1-3.8,5.4-3.8,24.7.1,49.4,0,74.2,0s18.2-.7,27.1.1c36.6,3.5,73.4,1.3,110.1,1.7,36.6.4,73.2,0,109.8,0s74.3-1.5,111.2.4c36.8,2,73.4,1,110.1,1.4,37.5.4,75.1,0,112.7,0s74.3-1.5,111.2.4c37.7,2,75.3.6,113,1.5,3.3,0,6.7,0,10,0,3.1.1,4.2-.7,4-2.8-.2-1.6-.1-3.2,0-4.8.1-1.7-1.3-2.1-3.5-2.1-3.3,0-6.7,0-10,0-41.4,0-82.7,0-124.1,0-2.6,0-7,1.9-8-1.8,44.6,0,89.2-.2,133.7.2,5.4,0,10.2-2.1,16.3-.5,5.4,1.4,12.2.3,18.3.3h111c2.4,0,4.7,0,7.1,0,5.6.1,5.9,1.2,1.6,5.8Z" fill="#e6ebf6"/>
        <path d="M539.2,1043.3c4.8-.3,2.8-2.8,2.8-4.4.1-21.7,0-43.4,0-65.1v-36.4c5.6.7,2.7,3.6,2.7,5.4.2,24.3.1,48.7.1,73s0,16,0,24c0,1.4-1.1,3.4,2.8,3.4,4.1,3.2,4.2,6.4,0,9.6h-2.9c-.3-.5-.5-1.4-1-1.6-4.4-1.1,1.2-5.8-4.3-6-3.3,0-6.6,1.4-10.1,2-11.4,1.8-19.9,2.5-30.8.2-3.8-.8-7.4-.4-11.1-.4-60.4,0-120.8,1.2-181-.5-42-1.2-83.8-1.1-125.7-1.4-42.3-.3-84.6-.1-126.9,0-7,0-12.9-3.2-20.3-2.2-2,.3-4.8-1.7-5-3.9,0-1.3,0-2.6,0-3.8,0-36.2,0-72.5,0-108.7,0-2.8.7-5.3,2.3-8,1.4-2.3,1.8-4.6,4.9-6.2,2.6,2.4,8.3,3.6,7.1,7.7-.2.6,0,1.3,0,1.9-6.2,13.4-3.5,27.5-3.5,41,.1,18.9-.5,37.7-.8,56.6-.3,17.8,1.4,18.9,27.9,18.8,94.1-.3,188.2.6,282.3,1.3,58.9.4,117.8-.8,176.6,1.5,4.8.2,9.5.1,13.8,1.9Z" fill="#e4dcd7"/>
        <path d="M547.8,1052.9v-9.6c-.5-2.5,0-4.2,4.9-3.9,3.2.2,3.9,1,3.7,2.9-.2,1.9-.4,3.8,0,5.6.7,3.2-1.3,5.4-4.8,7.2-1.1.6-2,2.5-3.8.6-.6-.7,0-1.8,0-2.8Z" fill="#acb4c4"/>
        <path d="M1694.5,1016.4v1.9c-7.5.8-10.8,2.4-11.4,5.8-5.2-1.9-5.2-1.8-5.8,1.5-.3,1.5,1.9,4-2.8,4.3-.8-7.6,4.4-14.8,3.4-22.5,0-.2,1.5-.4,2.3-.6.2,3-1.2,7.2,1.2,8.8s8.6.6,13.1.8Z" fill="#d1cdcc"/>
        <path d="M824.5,27c-.2-1.7,1.4-1.9,3.4-1.9,2.7,0,5.4,0,8.1,0,.2,1.7-1.4,1.9-3.4,1.9-2.7,0-5.4,0-8.1,0Z" fill="#eae8e6"/>
        <path d="M852,5.6c-.6-.2-1.2-.5-1.8-.7.3-.2.7-.6.9-.6.7.1,1.3.4,1.9.6-.3.2-.6.4-1,.7Z" fill="#f9f7f6"/>
        <path d="M539.2,1043.3c-7.1,0-14.4.6-21.3,0-36.1-3.4-72.3-1.4-108.5-1.8-36.1-.3-72.2,0-108.2,0s-73.3,1.3-109.6-.5c-24.9-1.2-49.6-1.1-74.4-1.4-24.7-.3-49.4-.2-74.1,0-5.6,0-6-1.2-6-4.4.2-34,.1-67.9,0-101.9,0-4.2,1.2-8.1,5.7-11.3v30.8c-.9,2.7,2,5.8-2,8.1-1.7,1-1.4,2.7-.7,3.5,5.1,6.3,2.1,13,2.6,19.4.5,6.7,2,13.8-.4,20.1-2.3,6.3-1.3,12.4-2.5,18.5-.8,4.2,5,7.4,3.1,11.7-.4.8,1.3,1.3,2.9,1.4,9.1.9,18,2,27.3,2,91.6-.2,183.3-.2,274.9,0,14.8,0,29.4,2.5,44.4,2,15.1-.6,30.4-.1,45.6-.1h89.7c2.3,1.8,6.3.2,8.6,1.9,2,0,2.9.6,2.9,1.9Z" fill="#cdc7c2"/>
        <path d="M1769.1,997.1c-22.3,0-44.6,0-66.9,0-5.2,0-5.4-.2-3.6-3.7.3-.5,1.6-1.1,1.5-1.5-1.9-7,3.8-13.5,2.9-20.3-.8-6,4.9-11.4,3-17.5-.3-.8,1.3-1.5,3-1.4,1.9,0,3.8-.1,5.7,0,14.5,1.3,28.1-2,41.4-4.5,10.7-1.9,21.8-2.8,32.3-5.1,5.5-1.2,11.3-1.6,16.8-2.8,1.6-.3,3.7-.7,4.8-1.3,4-2.2,7.5-4.9,11.2-7.4,6.7-4.5,13.4-9,20.1-13.6,3.4,6.5,1.2,13.1,1.3,19.7.4,18.6,0,37.1.2,55.7,0,3.1-1.5,3.6-5.7,3.6-22.8-.1-45.5,0-68.3,0Z" fill="#e6ebf6"/>
        <path d="M1534.8,338.8c1.1-1.9-2.6-4.9,2.9-5.8.3,5.7.3,5.8,6.5,5.8,77.4,0,154.8,0,232.3,0,2.3,0,6,1.4,6.5-1.9,6.4,1.8,13,2.3,19.8,1.9,2.5-.1,3.1.9,3.1,2.3,0,2.5,0,5,0,7.5s.5,6.3-.1,9.4c-.7,3,4.3,4.8,3,7.7-1.8-.2-2.7.5-2.8,1.5-.2,2.9,0,5.8,0,8.6v213.1c6.7,7.7,6.7,15.4,0,23.1,0,28.8,0,57.7,0,86.5q0,7.8-12.1,7.8c-79.8,0-159.6,0-239.4,0h-386.2c-36.1-3.9-72.4-1.4-108.5-1.8-36.1-.4-72.2,0-108.3,0h-218c0-24.7.5-49.4-.2-74.1-.4-13.9,4.4-27.6,3.3-41.5-1.1-14.4-.2-28.9-.2-43.3v-212.6c5,3.8,5,3.8,13.1,3.8,86.5,0,173,0,259.6,0s5.7,0,8.6,0c6.8,0,6.9,0,6.9,4.5,0,35,0,69.9,0,104.9s.1,22.5,0,33.7c0,2.5,1.8,2.5,4.6,3.4,5.4,1.7,10.6,1.7,16.1,1.7,149.7,0,299.5,0,449.2-.1,4,0,9.4,2.4,12.2-1.8,3.1-.3,5-2.4,8.8-2,5.1.5,10.4,0,15.6.1,2.9,0,4.4-.4,4.2-2.6-.2-2.2,0-4.5,0-6.7v-133.2Z" fill="#e5dcd7"/>
        <path d="M1805.8,612.2v-23.1c2.7-.3,6.4,1,7.8-.7,1.6-1.9,1.3-4.5,6-2.5,3.2,1.4,7.4,1.8,6.3,5.8-.9,3.4.2,7-.3,10.4-.3,2.1,2.1,4.4-2.5,6.4-7,3.1-6.5,3.6-13,3.7-1.4,0-2.8,0-4.2,0Z" fill="#ebe5e1"/>
        <path d="M1617.5,1018.3c1.8.3,4.1-.7,5.2.7,1.1,1.6-.4,2.1-2.3,3.3-5.8,3.5-12.1,3.7-19.3,3.7-49.4-.1-99-1.6-148.2.4-42.9,1.7-85.7.9-128.6,1.4-43.2.4-86.5,0-129.7,0h-260.9c-43.2,0-86.5,0-129.7,0-11.5,0-21.7,3.9-33,4.4-1.2,0-2.2,1.2-3.4,1.3-4.6.4-10.2-1.2-13.7.8-4.1,2.3-9.1-.2-13,2.4-3.1,2.1-9.4-.7-12.6,2.6-7-.6-13.5,1.2-20.2,1.7-6,.4-11.2,2.2-17,2.9-1.8.2-3.9,1.3-6.3,1.3-5,0-9.8,0-14.6,1.7-3.7,1.3-9.2-1-13.1,2-.8.6-3.6,0-5.5,0-13.3,0-26.6,0-39.9,0-5.6,0-10.2-2.1-15.3-3-1.3-.2-3.1-1.3-3-2.9.1-1.9,2.9-1.3,3.7-1.9,3-2.4,5.2-.3,7.8,0,39.9,4.5,78.1-2.2,116.2-8.3,46.3-7.4,92.6-12.2,140.6-11.2,61.7,1.2,123.4.9,185.1.2,130.5-1.6,261.1.2,391.6-1,59.7-.6,119.4-.7,179.1-2.7Z" fill="#e4dcd7"/>
        <path d="M1617.5,1018.3c-.5,3.2-4.3,1.9-6.5,1.9-23.8.1-47.7-1.3-71.2.4-37.7,2.7-75.3,1.1-112.9,1.5-38.5.4-77,0-115.4,0h-114c-38,0-76.2-1.4-114,.4-31.5,1.5-62.9,1.1-94.4,1.4-32.3.3-64.6,0-96.9,0s-63.7,0-95.5,0c-3.6,0-6.9.6-10.5,1.3-10.6,2.2-22,2.9-33,4.4-10.5,1.4-20.9,3.1-31.3,4.7-10.9,1.6-21.8,3.2-32.6,4.9-11.3,1.8-22.9,2.4-33.8,5.2-2.1.5-4.9,1-6.7.5-12.7-3.5-25.9-1.1-38.8-1.8-2.1-.1-5.1.7-5.1-1.9-.2-1.9,3.1-2.4,3.5-1.8,2.2,3,5.7-.5,8.6,1.1,3.3,1.9,8.1.5,12.3.7,3.8.2,7.6,0,11.4,0s8,.7,11.3-.1c11-2.7,22.7-2.8,33.9-5,6.2-1.2,13.2-1.7,19.9-2.6,11.3-1.5,22.6-3.7,33.9-4.9,11.1-1.2,21.9-3.3,32.8-4.8,7.3-1,15-1.1,22.1-3.4,3.5-1.1,8.4-.3,12.6-.3,205.7,0,411.4,0,617.2.1,18.7,0,37-2.9,55.8-2.2,18.5.7,37,.1,55.6.1s38,0,57,0c2.7,0,5.2.2,8-1,5.5-2.2,11.4-1.1,16.7,1Z" fill="#ccc6c1"/>
        <path d="M536.4,1041.4c-2.8-.7-7.2,1.8-8.6-1.9,2.8.7,7.2-1.8,8.6,1.9Z" fill="#e4dcd7"/>
      </g>
    </g>
  </g>
</svg>