<?xml version="1.0" encoding="UTF-8"?>
<svg xmlns="http://www.w3.org/2000/svg" version="1.1" xmlns:inkscape="http://www.inkscape.org/namespaces/inkscape" xmlns:sodipodi="http://sodipodi.sourceforge.net/DTD/sodipodi-0.dtd" xmlns:svg="http://www.w3.org/2000/svg" viewBox="0 0 624.2 854.1">
  <defs>
    <style>
      .cls-1 {
        fill: #e1f4dd;
      }
    </style>
  </defs>
  <!-- Generator: Adobe Illustrator 28.7.8, SVG Export Plug-In . SVG Version: 1.2.0 Build 200)  -->
  <g>
    <g id="_Слой_1" data-name="Слой_1">
      <g id="svg1" inkscape:version="1.4.2 (f4327f4, 2025-05-13)">
        <sodipodi:namedview id="namedview1" bordercolor="#000000" borderopacity="0.25" inkscape:current-layer="layer1" inkscape:cx="797.63694" inkscape:cy="593.11465" inkscape:deskcolor="#d1d1d1" inkscape:document-units="mm" inkscape:pagecheckerboard="0" inkscape:pageopacity="0.0" inkscape:showpageshadow="2" inkscape:window-height="1017" inkscape:window-maximized="1" inkscape:window-width="1920" inkscape:window-x="1912" inkscape:window-y="-8" inkscape:zoom="0.51339147" pagecolor="#ffffff"/>
        <g id="layer1" inkscape:groupmode="layer" inkscape:label="Р РЋР В»Р С•Р в„– 1">
          <path id="path90" class="cls-1" d="M144.2,848.3c-30.8-37.9-155-28.2-141.3-87.8,45.8-37.9,37.7-180,97-217.7,14.7,0,7.4-4.8,7.4-10.6-.6-14.2,26.7-21.6,27-34.4,33-42.3,18.1-136.9,43.6-125.6,18,4,57.5-8.7,57.3-18.5-5.7-34.3-149.3-92.9-74.6-166.2,14.4-11.6,21.2-23.9,24.7-44.6,13.2-63.3,46.8-44.4,66.8-68.4,17.9-18.6,37.9-3.4,50-29.2,4.5-18.8,115.9-78.8,114.5-18.7-8.7,67.2,125.1,56.2,74.4,17.1-18.9-13.7-17.4-17.4,5.5-13.3,11,2,21.3.6,23.9-3.2,8.3-9.8,35.9-3.9,45.5-14.8,12.2-11.7,60-3.8,54.8,10.8-2.1,5.8-7.6,16.5-3.8,18.7,25.9,17.3-46,57.7-57.9,64.2-8-1.9-26.9-11.1-23.6-2.6,5.3,13.7-30.7,25.5-42.6,28.2-27.9,6.5,3,11.6,9.8,38.4,13.4,29.5-12,26.2-29,18.6-8.7-8.4-91.5-12.7-55.5,17.6,14.6,13.5-14.1,13-24.9,25.3-30.6,13.9-5.9,69.7-27.3,71.2-32.4-1.3,40.4,78.4-3.3,73.8-21.1-6.7-13.4,21.7-5.1,27.9,17.2,17-39.6-9-35.3,11.1,5.3,19,19.2,45.9-13.7,49.3-25.9-2.1-3.8,30.2-26.1,35.7-21.8,10.4-42,46.8-59.5,107.3-72.4,120.8,97.2,209.8,81.6,121.7-1.1-57.3,29.6,9.2,70.9,5.3,62.4,10.8.6,86.8-31.3,90-12.8,0-10.4,4.2-13.6,9.3-28.1,13.9-154,20.8-186.3,14.1Z" sodipodi:nodetypes="sssssssssssssssssssssssssssssssssssssssssssssssssssssssssssssssssss"/>
          <path id="path92" class="cls-1" d="M429.9,616.5c-1-7.3-5.8-4.7.2-12.1,2.1-14.3,13.4-12.1,12.1-30.1-1.8-24,10.2-26.6,16.6-43.7,4.7-15.8,22.1-14.3,38.2-13.3,4.1-10,11.2-3,11.9-16.8,10.5-10.7,25-20.8,32.6-40.6,15,12.7,26,25.1,32.5,41.3,15.4,61.9-40.3,32-66.9,64.6-20,6.9-20.4-2.2-35,19.5-3.4,6-16.9,13.3-19.9,17.9-.6,4.5-24.4,20-22.3,13.3Z"/>
        </g>
      </g>
    </g>
  </g>
</svg>