<?xml version="1.0" encoding="UTF-8"?>
<svg xmlns="http://www.w3.org/2000/svg" version="1.1" xmlns:inkscape="http://www.inkscape.org/namespaces/inkscape" xmlns:sodipodi="http://sodipodi.sourceforge.net/DTD/sodipodi-0.dtd" xmlns:svg="http://www.w3.org/2000/svg" viewBox="0 0 510.9 469.5">
  <defs>
    <style>
      .cls-1 {
        fill: #bfe9bf;
      }
    </style>
  </defs>
  <!-- Generator: Adobe Illustrator 28.7.8, SVG Export Plug-In . SVG Version: 1.2.0 Build 200)  -->
  <g>
    <g id="svg1" inkscape:version="1.4.2 (f4327f4, 2025-05-13)">
      <sodipodi:namedview id="namedview1" bordercolor="#000000" borderopacity="0.25" inkscape:current-layer="layer1" inkscape:cx="-73.043676" inkscape:cy="73.043676" inkscape:deskcolor="#d1d1d1" inkscape:document-units="mm" inkscape:pagecheckerboard="0" inkscape:pageopacity="0.0" inkscape:showpageshadow="2" inkscape:window-height="1017" inkscape:window-maximized="1" inkscape:window-width="1920" inkscape:window-x="1912" inkscape:window-y="-8" inkscape:zoom="0.51339147" pagecolor="#ffffff"/>
      <g id="layer1" inkscape:groupmode="layer" inkscape:label="РЎР»РѕР№ 1">
        <path id="path96" class="cls-1" d="M64.5,455.1c-21.7-41.7-102.1-17.9-38.5-74,53.3-27.6-11.1-78.3-13.6-106.7,46.7,8.2,27.5-54.5,62.9-78.4,9.7-8.3,78-40.3,86.3-66,12.3-53.6,32.8-84,73.8-51.1,46.4,21.4,67.9-67.2,89.1-77.2,92.1,5.3,162.2-17.4,181.5,60.6,19.7,41.8-71.6,119.1-120.2,156.4-48,31.5,8.6,39.7-24.2,45.6-31.2,7.3-70.3,27-77.5,39.1-15.7,22.3-51.1.4-53.6,34.4-2.2,13.1-8.9,22.2-19.8,27-23.2,8.5-20.6,44-40.2,50.4-26.7,9.3-16.7,45.7-54.3,39.2-41.4-5.4-30.1,32-51.5.7Z" sodipodi:nodetypes="sssssssssscssssssssssssssssssssss"/>
      </g>
    </g>
  </g>
</svg>