<?xml version="1.0" encoding="UTF-8"?>
<svg xmlns="http://www.w3.org/2000/svg" version="1.1" viewBox="0 0 1920 1080">
  <!-- Generator: Adobe Illustrator 28.7.8, SVG Export Plug-In . SVG Version: 1.2.0 Build 200)  -->
  <g>
    <g id="_Слой_1" data-name="Слой_1">
      <g>
        <path d="M936.2,1079.9h-90.7c-.5-4.3,2.4-6.6,4.9-8.5,20.5-16,29.5-40.9,40.1-64,6.3-13.8,8.1-29.8,11.8-44.9,20.1-80.7,40-161.5,60.3-242.2,2.7-10.6,5.3-21.2,7.8-31.8.3-1.3.7-2.6.7-3.9,0-2.9-1.1-5.2-3.8-6-2.8-.8-4.6.9-5.7,3.6-1.3,3.4-2.1,7.1-3,10.7-22.9,91.5-45.5,183.1-68.4,274.7-.2.6-.4,1.3-.5,1.9-4,25.8-14.8,48.6-27.1,70.6-5.8,10.4-13.5,20-23,25.7-10.6,6.3-23.1,9.1-35.7,7.7-2.2-.2-4.4-.8-6.6-.7-16.9.7-33.8-1-50.7-1.6-32.6-1.1-65.1-2.8-97.7-3.9-19.9-.7-39.8-1.4-59.7-2.7-14.9-1-29.8.3-44.6-2.2-2.2-.4-4.5-.2-6.2-2V396.9c1.3-3.2.3-6.5.6-9.8,0-3.1,0-6.2,0-9.4.9-27.2,1.2-54.4,3.2-81.5,1.1-14.6,1.2-29.4,2.6-44,.8-7.6,2.2-9.5,9.1-8.9,24.5,1.9,49.1,1.5,73.6,3.5,10.6.9,21.3.9,32,1.2,15.7.5,31.4,1.2,47.1,1.9,25.7,1.1,51.5,1.6,77.2,3.5,11.2.8,22.5.9,33.8,1.2,27,.8,53.9,2,80.9,3.2,33.4,1.5,66.8,2.1,100.1,4.8,12.6,1,25.4.9,38,1.2,19.1.5,38.3,1.2,57.4,2,29,1.1,58,1.4,86.9,3.5,12.9.9,25.8.8,38.6,1.2,21.7.6,43.5,2.1,65.2,2,3.2,0,6.4-.3,6.7-4.6.3-4.3-2.7-5.6-6-5.6-8.1,0-16-1.6-24.1-1.6-31,0-62-2.1-93-2.9-23.1-.6-46.3-1.3-69.4-2.5-29.4-1.5-58.8-1.3-88.1-3.8-7.2-.6-8.4-1.8-7.6-10.5,2.2-23.8,4.2-47.7,6.4-71.5,3.5-38.9,6.9-77.8,10.4-116.7.4-4.2.9-8.3,1.2-12.4.7-7.9,2-9.5,9.5-9.2,9.2.4,18.5,1,27.7,1.7,16.1,1.3,32.1,2.3,48.2,3.4,24.1,1.6,48.2,3.3,72.3,4.9,15.7,1,31.3,2,47,3.1,17.3,1.2,34.5,2.3,51.8,3.5,15.9,1.1,31.7,2.1,47.6,3.1,21.7,1.4,43.4,3.2,65.1,4.2,2.5.1,4.7,1.1,6.3,3.3v631.5c-2.1,2-4.4,1.5-6.8,1-8.9-1.7-17.6-4.4-26.6-5.9-4.6-1.7-6.7.5-7.6,5.3-3.3,17.6-6.9,35.2-10.5,52.8-.8,4,0,6.8,3.7,8.5,2,.9,4,2.1,6.1,2.9,11.6,3.4,23.5,5.8,35.2,8.6,2.4.6,4.6,1.4,6.4,3.3v75.2c-1.6,3.4-4.9,3.6-7.7,4.4-51.3,14.9-103,28.3-154.5,42.5-2.9.8-7.4-.4-7.9,5.1,4.2,21.6,9.7,42.9,14.4,64.3,7.7,34.4,16,68.6,23.4,103.1.3.6.6,1.1.9,1.6.2.2.3.5.5.7.6.7,1.3,1.2,2.1,1.6,2.9.7,5.6-.6,8.3-1.3,37.1-9.9,74.1-20.4,111.2-30.6,3-.8,6.1-2.8,9.2-.3,0,15.2,0,30.3,0,45.5,0,1.7-.3,2.2-1.9,2-1.2-.2-2.4,0-3.6,0h-323.5c-1.2-5.3,1.2-9.9,2.5-14.6,16.9-61.1,34-122,50.6-183.2.3-3.5-1.6-5.4-4-7.1-22.1-7.9-44.5-15-66.8-22.5-13.1-4.4-26.1-8.8-39.2-13.1-2.1-.7-4-2.2-6.3-1.1-4.9,13.3-8.1,27.1-11.9,40.8-16.8,60.1-33.2,120.3-50.1,180.4-1.9,6.9-2.9,14.2-6.6,20.4Z" fill="#f9f8f7"/>
        <path d="M563.8.1h449.8c1.4,3.2.8,6.5.5,9.7-5,48.4-8.7,97-13.1,145.5-2.5,27.7-5,55.5-7.5,83.2-.2,1.7-.6,3.5-.7,5.2-.4,5.2-2.9,6.7-7.7,6.7-28.6-.2-57.1-2.2-85.7-3.2-31.8-1.1-63.5-2.6-95.3-3.9-31.6-1.3-63.1-2.8-94.7-4-21.1-.8-42.2-1.6-63.3-2.6-30.4-1.4-60.7-2.8-91.1-3.8-7.3-.2-9.1-1.9-8.8-9.9.5-14.9,1.8-29.8,2.8-44.6,1.4-21.4,2.9-42.9,4.3-64.3,1.8-26,3.4-52.1,5.4-78.1.6-8.5,1.5-17,1.9-25.6.2-3.8.4-7.5,3.2-10.3Z" fill="#f9f8f7"/>
        <path d="M1397,846.5v179.3c-1.9,2.7-4.7,3.3-7.4,4-38.6,10.3-77.1,21.4-115.7,31.9-2.5.7-5,1.7-7.7.8-2.6-1.1-2.5-3.9-2.9-6.1-11.7-53-24.2-105.7-36.3-158.6-.4-1.8-.6-3.4,0-5.1,1.8-3.2,5.1-3.5,7.9-4.2,51.1-13.3,102-27.4,152.8-41.7,3-.8,6.1-2.7,9.3-.2Z" fill="#dfdfdf"/>
        <path d="M1062,1079.9h-122.1c-1.8-2.8-.5-5.6.2-8.2,16.2-57.9,32.1-115.9,48.2-173.8,4.7-16.8,9.2-33.6,14-50.4.7-2.3,1-4.7,2.6-6.6,2.1-1.6,4.3-.9,6.4-.1,34.7,12.1,69.6,23.3,104.5,35,.8.3,1.5.7,2.2,1.1.8.7,1.4,1.5,1.5,2.7-18.3,64.2-35.8,128.6-53.7,192.9-.8,2.7-1.3,5.6-3.5,7.4Z" fill="#dfdfdf"/>
        <path d="M563.8.1c.6,3.1-1.7,5.5-1.3,8.7.4,3,.8,6.4,0,9.2-1.5,4.7-.3,9.5-1.2,14-1.2,6-.2,12.1-1.3,17.9-.9,4.8-1,9.4-.8,14,.2,3.7-1.6,7-1.4,10.7.2,3.7.9,7.8-.2,11.1-1.3,4.1-.8,8.1-1,12.1-.4,8.2-1.9,16.3-1.2,24.5-2.1,4.9-.4,10.3-1.3,15.2-1.2,6.6-.2,13.4-1.3,19.9-1,6.1,0,12.1-1.1,17.9-1.1,5.8-.2,11.7-1.2,17.2-1.3,6.7.1,13.5-1.3,19.9-1.2,5.7-.4,11.1-1,16.7-.1,1.4.4,1.9,1.7,1.9,5.6,0,11.3.4,16.9-.1,6.6-.6,12.9,1.9,19.5,1.5,6.6-.4,13.5-1.1,19.9.1,10.2,1.9,20.4-.3,30.3,1.3,10.8,1.7,21.6-.2,32.1,1.4,10.8,1.6,21.6-.3,32.2,1.3,11,1.6,22-.2,32.7,1.3,10.4,1.5,20.8-.3,30.9,1.3,10,1.6,19.9-.2,29.7,1.2,11.1,1.6,22.4-.1,33.3,1.4,9.6,1.4,19.1,0,28.5,1.2,11.7,1.6,23.6,0,35.2,1.5,10.2,1.3,20.3-.3,30.3,1.2,11,1.6,22-.2,32.7,1.4,10.2,1.5,20.3.6,30.4.9,2.1,0,4.3,2.8,5.8.8,1-1.4-.3-4.4.4-6.3,1.5-4.4.3-9.1,1.3-13.3,1-4.3.3-8.6,1.2-12.6,1-4.7.2-9.5,1.3-13.9,1.1-4.5.7-8.9,1-13.4.2-2.9,1.6-5.6,1.3-8.7-.3-2.9-.9-6,1.1-8.7,0-.1,0-.4,0-.6-.9-6.9,2-13.7,1.1-20.5-.4-3.2,1.4-5.7,1.3-8.7-.1-2.9-.8-6.1.2-8.5,1.4-3.4,1-6.8.9-10.1-.1-3.5,1.7-6.4,1.4-10-.3-3.3-1-6.9,1.1-10,.2-.3,0-.9,0-1.3-.8-6.9,2-13.6,1.2-20.5-.3-2.8,1.8-5.1,1.3-8-.4-2.8-.9-6.1,0-8.5,1.4-3.6,1-7.2,1-10.7,0-3.2,1.8-6,1.4-9.4-.3-2.8-.9-5.9,1-8.8.7-1,.3-3,0-4.5-.9-6.1,1.7-11.9,1.2-17.9,1.9-3.1,1.2-6.6,1.1-10,0-1.6,1.3-2.1,1.3-3.4h13.3c2,2.4,2.1,5.3,1.5,8.1-1.2,5.8,1.8,7.5,6.2,7.9,6.4.6,12.9.9,19.3,1.2,22.7,1.2,45.4,3,68.1,4.5,23.1,1.5,46.2,3.1,69.2,4.7,15.6,1.1,31.3,2.1,47,3.1,15.7,1,31.3,1.9,47,3.2,3.9,1.4,7.9,1,11.9.8,17.2,1,34.5,2.1,51.7,3.4,13.8,1.1,27.7,1.3,41.5,2.9,2.4.3,4.8.4,6.8,2.4v15.8c-1.9.6-3-1.7-4.9-1.4-1.8.3-3.6,0-5.4,0-9.9.2-19.8-2.2-29.7-1.3-6-2.4-12.3-.3-18.2-1.5-6.9-1.4-13.9,0-20.6-1.4-6.2-1.3-12.2-.8-18.3-1-3.7-.1-7.2-1.9-11-1.5-3.6.4-7.5.9-10.8,0-5.9-1.8-11.8-1-17.7-1-3.8,0-7.1-2.1-11-1.5-3.6.5-7.4.9-10.8,0-6.1-1.8-12.3-.1-18.3-1.3-6.9-1.4-13.9,0-20.6-1.4-6.2-1.3-12.2-.8-18.3-1-3.7-.1-7.2-1.9-11-1.5-3.6.4-7.5,1-10.8-.1-5.7-1.9-11.5-.2-17.1-1.2-7.1-1.4-14.3-.2-21.2-1.5-6.4-1.2-12.7-.1-18.9-1.2-7.1-1.2-14.3-.2-21.2-1.5-6-1.1-11.8-.6-17.7-1-3.7-.2-7.2-1.9-11-1.4-3.8.5-7.9,1-11.4-.1-5.3-1.7-10.6-.6-15.9-1.1-1.3-.1-1.8.5-1.7,1.9,0,.4,0,.9,0,1.3.7,7.1-2.1,14.1-1.2,21.2-1.8,4-.5,8.6-1.4,12.6-1.1,4.9-.4,9.9-1.2,14.6-.8,4.5-.3,9-1.2,13.3-.9,4.5-.3,9.1-1.2,13.3-1,4.7-.7,9.3-1.1,14-.2,2.9-1.4,5.6-1.2,8.7.2,2.9.6,6-1.1,8.7,0,.1,0,.4,0,.6.8,7.4-2,14.5-1.2,21.9.3,3.2-1.7,6-1.3,9.4.3,2.8.9,6-1.1,8.7,0,.1,0,.4,0,.6.9,6.7-1.5,13.2-1.3,19.9.2,6-2,11.8-1.2,17.9-2.1,3.1-1.3,6.7-1.1,10,.2,3-1.6,5.2-1.4,8,.2,2.6,0,5.2-.2,7.8,0,.7-1.8,1.9.3,1.7,9-.8,17.8,2,26.7,1.4,4-.3,8.1.2,12.1,0,7.3-.4,14.5,2,21.9,1.5,7.4-.5,15-1.1,22.3.1,11.6,1.9,23.2-.2,34.6,1.3,12.8,1.7,25.5.1,38.2,1.4,5.7.6,11.4.9,17.1,1,5.8.1,11.8-.7,17.5.2,12.5,2,25.2-.2,37.6,1.4,12.4,1.6,24.7,0,37,1.3,6.1.7,12.2,1,18.3,1.2,3,0,5.5,3,5.8,6.2.4,4.9-1.2,7.8-5.2,9.4-.7.3-1.8.6-2.3.2-2.5-2.3-5.3-1.1-8-1.2-7.3-.1-14.5-.3-21.8,0-4.6.2-8.8-2-13.4-1.5-4.6.5-9.3.1-13.9.1s-9.4.8-13.9-.2c-5.7-1.3-11.4-1-17.1-1.1-5.6-.1-11.4.7-16.9-.2-12.7-1.9-25.6.1-38.2-1.4-12-1.5-24,.4-35.8-1.3-12.6-1.7-25.2.3-37.6-1.3-12.2-1.6-24.4.3-36.4-1.3-12.2-1.7-24.4.3-36.4-1.3-8.8-1.2-17.6.2-26.1-1.3-10-1.8-19.9.2-29.7-1.3-10.9-1.6-22,.1-32.7-1.4-10.2-1.5-20.3.2-30.3-1.3-11-1.6-22,.2-32.7-1.4-10-1.5-19.9.2-29.7-1.2-11.1-1.6-22.4.1-33.3-1.4-10-1.4-19.9.2-29.7-1.2-10.9-1.6-22,.1-32.7-1.4-10.2-1.5-20.3.2-30.3-1.3-11-1.6-22,.2-32.7-1.4-9.8-1.5-19.5.2-29.1-1.2-10.9-1.7-22,.2-32.7-1.4-10.2-1.6-20.3-.6-30.4-.9-2.8,0-5.2-1.7-8-1.5-2.6.2-5.2.2-7.9,0-2-.1-2.2.8-2.2,2.7-.4,9.7-1.8,19.4-1.2,29.1-2.2,6.7-.2,13.8-1.4,20.5-1.4,7.6,0,15.2-1.2,22.5-1.2,7.6,0,15.2-1.2,22.5-1.2,7.1-.2,14.3-1.2,21.2-.7,4.9-1,9.7-1,14.6-.4.6-.8.6-1.2,0v-224.1c1.3-2.3.3-4.9.6-7.3,0-2.6,0-5.3,0-7.9.6-28.5,2.2-56.8,4.3-85.2,1-13.1,2.1-26.2,2.9-39.3.3-5,.2-10.1,3-14.5h14.5Z" fill="#bac1d0"/>
        <path d="M538.4,1060.1c6.8-.9,13.3,1.7,20.1,1.4,6.8-.3,13.8-1,20.5.2,10.4,1.8,20.8-.2,30.9,1.3,10.8,1.6,21.6-.2,32.1,1.4,10.2,1.5,20.3-.2,30.3,1.3,11,1.6,22-.2,32.7,1.4,10,1.5,19.9-.2,29.7,1.2,11.5,1.7,23.2-.1,34.5,1.4,9.6,1.3,19,.7,28.5.9,3,0,5.7,1.3,8.6,1.5,6.5.7,12.6-2.3,19-2.7,3.5-2.7,8-1.9,11.9-3.8,1.3-.6,2.4-1.1,3.4-2.2,5.4-5.9,10.9-11.7,16.2-17.7,1.7-1.9,3.1-4.3,4.3-6.6,3.2-6.2,6.2-12.6,9.5-18.8,2.7-5.1,5-10.5,8-15.6,1.7-2.8,2.5-6.4,3.1-9.8,1-6.1,3.2-11.8,4.3-17.9,1.5-7.8,3.8-15.5,5.6-23.2,1.5-6.5,2.9-13.2,4.9-19.5,1.4-4.3,2-8.7,3.3-13,2.2-7.4,4-14.9,5.7-22.5,1.7-7.8,3.9-15.4,5.6-23.3,1.1-5.3,2.7-10.6,4-15.9,1.4-6,2.9-11.9,4.4-17.8,1.7-6.7,3.2-13.4,5-20.1,1.5-5.7,3.1-11.4,4.5-17.1,1.4-5.7,2.7-11.5,4.1-17.3,1.4-5.9,2.7-11.9,4.4-17.8,2.5-8.4,4.1-17,6.2-25.5,1.5-5.7,3.4-11.3,4.5-17.1,1.2-6,3.2-11.8,4.4-17.8,1.1-5.4,3.3-10.6,4-16,.5-4.2,2.8-7.7,2.7-12.1,0-2.4,4.9-6.5,7-6,1.7.4,3.7,1.2,4.8,3.1,1.5,2.5,3.3,4.4,1.5,8.3-2.1,4.7-2.6,10.2-3.8,15.4-1.7,7.2-3.2,14.3-5.1,21.4-1.6,6.1-3.2,12.2-4.6,18.3-1.2,5.4-2.8,10.6-4,16-1.3,6.2-3,12.3-4.6,18.4-1.7,6.5-2.9,13.2-4.9,19.5-1.4,4.3-2.1,8.7-3.3,13-2.1,7.4-4,14.9-5.7,22.4-1.7,7.6-3.8,15-5.4,22.7-1.2,5.5-2.9,11-4.1,16.6-1.3,6-2.8,11.9-4.4,17.8-1.7,6.7-3.2,13.4-5.1,20.1-1.5,5.7-3,11.4-4.4,17.1-1.4,5.7-2.9,11.5-4.1,17.3-1.7,8-4,15.8-5.8,23.8-1.4,6.3-2.9,12.7-4.8,18.9-1.4,4.7-2.1,9.6-3.5,14.2-1.5,5-2.6,10.1-5.4,14.7-2.9,4.7-5.4,9.9-7.7,14.9-3.9,8.4-8.6,16.3-12.3,24.7-.6,1.3-1.9,2.2-2.8,3.3-5.8,7.2-13.1,12.7-19.1,19.6-.8.9-2.1,1.5-2.2,3h-210.4c-5.2-1.5-10.6-.3-15.9-.7-3.3,0-6.6,0-10,0-21.6-.3-43.2-1-64.7-1.3-2.2,0-4.4-.2-6.2-2v-15.8Z" fill="#bac1d0"/>
        <path d="M1285.7,34.4c-3.8,0-7.7-.2-11.5,0-4.2.3-8-1.9-12.2-1.5-4,.4-8.3,1-12-.1-5.7-1.8-11.4-.8-17.1-1-3.5-.1-6.7-2-10.4-1.5-3.6.5-7.4.9-10.8,0-6.5-1.9-13.1-.1-19.4-1.3-6.9-1.3-13.9-.2-20.6-1.4-5.9-1.1-11.8-.2-17.6-1.2-7.5-1.3-15.1-.2-22.4-1.5-5.9-1.1-11.8-.7-17.6-1-3.5-.2-6.7-1.9-10.4-1.5-3.6.4-7.4.9-10.8,0-5.7-1.7-11.4-.9-17-1.1-3.9-.1-7.5-2-11.6-1.5-3.8.5-7.9,1-11.4-.1-5.1-1.6-10.2-1.2-15.2-1-3.8.2-7.2-2.1-11-1.5-.6.1-1-.4-1-1.2,0-1.8-.6-3.8.1-5.2,1.7-3.5.8-7.1,1.1-10.7h264.8c3,4.2.6,8.8.7,13.2.2,5.7-.9,11.2-1.5,16.8-.3,3.3-1.3,6.1-5.3,4.3Z" fill="#f9f8f7"/>
        <path d="M1397,42.3c-3.1-.3-6.5.9-9.4-.5-3.1-1.6-6.2-.5-9.3-.7-3.2-.3-6.6.7-9.6-.2-5.7-1.8-11.3-.9-17-1.1-3.7,0-7.1-1.9-10.9-1.5-3.6.4-7.4.9-10.8,0-6.1-1.9-12.1-1-18.2-1-2.6,0-4.7-1.7-7.3-1.5-2.6.2-5.2,0-7.8,0-1.3-.9-3.3-1-3.2-3.3.3-10.9-.3-21.8,3.2-32.3,32.9,0,65.7,0,98.6,0,1.6,0,1.9.4,1.9,2,0,13.4,0,26.8,0,40.2Z" fill="#f9f8f7"/>
        <path d="M1397,692.3v71.2c-8.5.3-16.5-2.9-24.6-4.9-5.8-1.4-12-1.3-17.1-5.5-1.4-2.7-.9-5.6-.3-8.3,3.4-17.4,6.9-34.8,10.3-52.2.5-2.8,1.1-5.7,3.7-7.2,9.5,1.7,19.1,2.7,28,6.9Z" fill="#dfdfdf"/>
        <path d="M1062,1079.9c1.1-4.5,2.2-9.1,3.5-13.5,2.3-7.5,3.9-15.3,6.2-22.9,2.4-7.7,4.7-15.5,6.7-23.3,2.6-10.2,5.6-20.4,8.1-30.6,2.1-8.2,4.4-16.4,6.9-24.5,2.2-7.1,3.9-14.5,6.1-21.6,2.1-6.5,3.9-13.2,5.6-19.8,2.1-7.8,4.6-15.5,6.5-23.5,1.4-5.9,3.3-11.7,4.7-17.6.4-1.7,1.1-2.6,2.5-3.1,2.1-1.8,3.3.6,4.8,1.3-2.1,3.7-2.3,8.1-3.6,12.2-3.4,11-5.6,22.4-9.6,33.1,0,5.5-2.5,10.3-3.9,15.3-1.4,5-2.6,10.1-4.3,15.1-1.5,4.3-2.8,8.9-3.7,13.4-1,4.4-2.9,8.5-3.5,12.9-.8,5.4-2.7,10.3-4.1,15.3-1.4,5-2.6,10.1-4.3,15.1-1.5,4.3-2.8,8.9-3.8,13.4-1,4.4-2.9,8.5-3.5,12.9-.8,5.4-2.7,10.3-4.1,15.3-1.4,5-2.4,10.2-4.3,15.1-1.2,3.1-1.5,6.7-2.8,9.9h-6Z" fill="#e4e4e4"/>
        <path d="M1005.2,841.3c-.3,5.2-2.2,9.9-3.5,14.9-2.2,8-4.4,16.1-6.5,24.1-1.8,6.8-3.5,13.8-5.8,20.4-1.3,3.8-2.1,7.8-3.3,11.7-1.2,3.6-3.3,7.2-2.6,11.3-3.2,6.1-3.9,13.2-6,19.7-2.2,7.1-4.1,14.4-6.1,21.6-2.3,8.2-4.6,16.4-6.9,24.5-2.5,8.7-5,17.5-7.3,26.3-2.3,8.8-5,17.5-7.2,26.4-1.3,5.1-2.7,10.3-4.2,15.3-1.4,5-1.8,10.5-4.6,15,.7,2.7-1.4,4.8-1.3,7.3h-3.6c0-2.3.4-4.5,1.1-6.7,2.5-7.9,4.8-15.9,6.8-23.9,2.6-10,5.6-20,8-30.1,1.7-7.1,3.6-14.1,5.9-21,1.3-3.8,2-7.8,3.3-11.7,1.2-3.6,3.3-7.2,2.6-11.3,3.2-6.1,3.9-13.2,5.9-19.7,2.3-7.1,4.1-14.4,6.1-21.6,2.3-8.2,4.6-16.4,6.9-24.5,2.5-8.8,5.1-17.5,7.2-26.4,1.3-5.1,3-10.1,4.1-15.4,1-5.2,3.5-10,4.4-15.1,1-5.5,3.5-10.4,4.2-16,0-.2.6-.3,1-.5,2.2,1.3,2.7,3,1.2,5.3Z" fill="#cfcfcf"/>
        <path d="M1266.4,1061.4c4.6-.2,8.8-2.3,13.2-3.3,5.7-1.3,11.3-3,16.9-4.6,8.5-2.4,17.2-4.4,25.6-7.3,3.9-1.4,8-2.2,12-3.2,7.1-1.9,14.3-3.7,21.4-5.6,5.6-1.5,11.2-3.3,16.8-4.9,6-1.7,12-3,18-5,2.1-.7,4.3-1.8,6.6-1.6v6.6c-4.6.2-8.8,2.3-13.2,3.3-5.5,1.3-10.9,3.1-16.4,4.6-5.1,1.4-10.4,2.2-15.4,4.1-4.1,1.6-8.3,2.6-12.5,3.6-3.9.9-7.8,2-11.6,3.1-3.7,1.1-7.6,2.3-11.4,3.3-5.3,1.5-10.6,2.8-15.9,4.3-6,1.7-12,3.2-18,5-4.9,1.4-9.9,2.5-14.8,4.1-1.9.7-1.5-1.4-1.5-2.6-.4-.5-.6-1-.7-1.6-.2-.9,0-1.7.7-2.4Z" fill="#e4e4e4"/>
        <path d="M549.3.1c.3,7.8-2.1,15.4-1.2,23.1-2,4.5-.5,9.4-1.3,13.9-1.2,6-.2,12.1-1.3,17.8-1,5-1,9.8-.8,14.6.1,3.9-1.9,7.3-1.4,11.3.4,3.7.9,7.7-.1,11.1-1.4,4.5-1,8.9-.9,13.3.1,3.9-1.8,7.3-1.4,11.3.4,3.7.9,7.8-.1,11.1-1.3,4.1-.6,8-1,12-.4.6-.8.6-1.2,0,0-45.7,0-91.4,0-137.1,0-2.3.4-2.9,2.5-2.7,2.8.3,5.6,0,8.5,0Z" fill="#f9f8f7"/>
        <path d="M1397,846.5c-4.6.2-8.8,2.4-13.3,3.3-3.9.8-7.6,2.2-11.4,3.3-5.5,1.6-10.9,3.1-16.4,4.6-5.7,1.6-11.3,3.1-17,4.6-5.5,1.5-11,2.7-16.5,4.3-5.6,1.6-11.2,3.3-16.8,5-6,1.8-12,3.5-18,5-7.2,1.8-14.3,3.8-21.5,5.7-7.3,1.9-14.6,4.1-21.8,6-4.4,1.1-8.8,2.7-13.4,3-1.4,0-1.9,1.5-3.1,1.4-.8.8-1.6.8-2.4,0-1.7-2.9-1.7-3.4.1-3.9,6.4-1.8,12.8-3.5,19.1-5.3,7.4-2.1,14.9-4.1,22.4-6.2,5.5-1.5,11-3,16.5-4.3,7.2-1.7,14.4-3.3,21.4-5.7,4.4-1.5,8.9-1.9,13.2-3.4,5.9-2,12-3.5,18-5.1,8.6-2.3,17.1-5.1,25.8-7,6.8-1.5,13.3-4.2,20-6.2,4-1.2,8.1-2.2,12.2-2.8,1.3-.2,1.9-1.5,3.1-1.4v5.3Z" fill="#c2c2c2"/>
        <path d="M1296.6.1c0,3-.2,6.1,0,9.1.4,3.7-1.7,6.9-1.3,10.6.3,3.5,0,7,0,10.4,0,.8-.4,1.1-.7,1.6-1.3,2.1,0,2.4,1.5,2.7.2,0,.3.7.4,1.1-3.1,0-6.3,0-9.4,0-.8,0-1.6,0-1.5-1.3,3.6-.2,3.7-.2,3.6-3.6,0-7.4,2.1-14.7,1.2-22.2,1.5-2.7,1.2-5.6,1.2-8.5h4.8Z" fill="#ebe9e7"/>
        <path d="M538.4,1075.9c4.8,0,9.7.2,14.5,0,6.5-.3,12.8,1.9,19.4,1.5,6.4-.5,13-1,19.2.1,6.1,1.1,12.2.8,18.2,1.1.4.3.5.6.4.9-.1.3-.3.4-.4.4h-68.3c-1,0-2.8.3-2.9,0-.3-1.2-.1-2.6-.1-3.9Z" fill="#f6f5f5"/>
        <path d="M1355.8,752.9c7.6,1.8,15,3.8,22.6,5.5,5.5,1.2,11,3,16.6,3.8.7.1.9,1.5,1.9,1.3v2.6c-2.4.7-4.6-.8-6.6-1.5-6.5-2.1-13.4-1.8-19.6-5.1-5.4.4-10.3-3.1-15.7-2.9-.1,0-.3-.7-.4-1.1-.8-1.5-.8-2.6,1.2-2.6Z" fill="#e5e5e5"/>
        <path d="M1397,692.3c-1,.2-1.3-1.4-1.9-1.2-3.4.7-6.5-.9-9.6-1.7-3-.7-6.5-.1-9.2-2.4-2.6.9-4.8-1.3-7.2-1.3-2.8,1.2-5.1,1.2-6-2.6,1,0,2.1-.3,3,0,4.1,1.4,8.7,1.3,12.5,3.2,2.4,1.2,5.3-.9,7,2,3.9-.8,7.5,2.3,11.4,1.3v2.6Z" fill="#c5c5c5"/>
        <path d="M619.4,1078.6c4.7,0,9.5,0,14.2,0,.8,0,1.6,0,1.5,1.3h-15.7c-.4-.3-.5-.6-.4-.9.1-.3.3-.4.4-.4Z" fill="#d7dae2"/>
        <path d="M619.4,1078.6v1.3h-9.7v-1.3h9.7Z" fill="#ebebee"/>
        <path d="M539.6,387.7c0,2.5,0,5.1,0,7.6,0,.9-.1,1.7-1.2,1.6v-9.2c.4-.6.8-.6,1.2,0Z" fill="#e4e6ea"/>
        <path d="M539.6,387.7h-1.2v-9.2h1.2v9.2Z" fill="#ccd0db"/>
        <path d="M538.4,139.9h1.2v7.9c-.4.6-.8.6-1.2,0v-7.9Z" fill="#e3e5ea"/>
        <path d="M538.4,147.8h1.2c0,1.7,0,3.3,0,5,0,.9-.1,1.7-1.2,1.6v-6.6Z" fill="#d0d4de"/>
        <path d="M837.1,1019.2c-.2,1.4-1.5,2.3-1.3,4,.3,2.6,0,5.2,0,7.8-4.2,3.4-8.9,2.2-13.4,1.8-18.3-1.4-36.6-2.4-54.8-3.8-24.1-1.8-48.2-3.1-72.3-4.7-17.3-1.2-34.5-2.4-51.8-3-9.3-.3-18.4-1.6-27.7-1.6-5.8,0-8.1-3-7.7-9.3,1.7-25.8,2.7-51.7,4.1-77.5,1.1-19,1.9-38.1,2.9-57.2,1-20.4,2-40.7,3.2-61.1,1-18.2,1.9-36.4,2.8-54.5,1.1-21.5,2.2-42.9,3.3-64.4.9-18.4,1.9-36.8,2.8-55.2,1-21,2.1-42,3.2-63.1,1-18.2,1.8-36.4,2.8-54.5,1.1-21.5,2.2-42.9,3.3-64.4.9-18.2,1.9-36.4,2.7-54.5.5-10.6.4-10.4,9.9-9.9,23.5,1.1,47,2.5,70.4,4.1,28.9,2,57.8,2.8,86.7,5,8.4.7,16.9,1,25.3,1.4,2.5.1,5.4.7,6.9-2.6,0-5.9.3-11.9,0-17.7-.5-7.2,1.5-14,1.3-21.1-.2-7.2-.9-14.6.2-21.6,1.8-11,.5-22,.9-33,0-2.4,1.4-4.3,1.3-6.7,0-2.2,0-4.4,0-6.6,1.3-4.9.5-10,.6-15,.2-7.2,1.1-8.6,7.7-7.9,10.3,1.1,20.5.6,30.8,1.3,15.9,1.2,31.8,1.6,47.7,2.3,29.6,1.4,59.1,2.7,88.7,4.1,7.4.3,15-.9,22.1,2.2,2.5,1.8,2.2,4.5,1.8,7.1-1.4,10.5-.6,21-1.3,31.5-.4,6.6.4,13.3,7.3,17.3,6.4,3.8,8,17,3.5,23.3-1.9,2.6-2.8,5.3-2.3,8.5.2,1.3.4,2.6.3,3.9-.1,3-.8,6.2-3.7,6.8-3.1.6-3.6-2.9-4.2-5.3-1.4-5.9-2.2-12-3.1-18.1-.1-.7,0-1.5-.4-2.1,0,.7-.2,1.3-.1,2,2.6,16.9-1.4,33.5-1.5,50.3-.1,12-1.1,23.9-.2,36,.5,6.5-.9,13.1-.9,19.7,0,3.7.9,5.5,4.7,5.7,6.6.4,13.3,1,19.9.9,20.1-.3,40.2,2,60.3,1.6,9.9-.2,19.6,2.1,29.5,2.7,4.2.2,5,3.6,2.6,10.2-.7.8-1.7,1.1-2.6,1.4-2.5.3-5,0-7.6.1-.4,0-.7-.2-1.1-.4-1.3-.7-2.1-2.6-3.9-2.2,1.2.1,2.4.3,1.7,2.1-.2.5-1,.6-1.6.8-5.8.3-11.6.6-17.4-.6-4-.9-8.3-.8-12.6-.6-8.2.4-16.5,1.1-24.6-1.1-3.3-.9-6.8-.3-10.2-.3-7.8.2-15.6.9-23.4-.9-4.6-1.1-9.5-.8-14.4-.5-7.4.5-14.8.9-22.2-1.1-7.1-2-14.4.5-21.7.1-5.8-.3-11.7.1-17.3-1.8-.8-.3-1.6-.4-2.4-.2-14.8,3.5-29.6-.9-44.4-.9-17.7,0-35.4-.3-53.1-1.2-6.9-.4-9.2,1.6-9.7,9.4-.4,6.6,0,13.2-.1,19.8,0,2.2.5,4.4-.6,6.4,0,2.2-.2,4.4,0,6.6.7,6.3-1.5,12.3-1.3,18.6.2,6.1.9,12.5-.2,18.4-1.1,6.5,0,13-1.2,19.2-1.2,6.9-.4,13.8-1.2,20.5-.5,3.6-.7,7.1-1.1,10.7-.3,2.5,1.6,4.3,1.3,6.7-.3,3.1,0,6.2-1.1,9.4-1,2.9.8,6.3-1.2,9.4-.6.8-.1,2.6-.1,3.9,0,3.3.4,6.7-.1,9.9-.5,3-.5,6.2-2.3,8.8.6,5.1-1.2,10.4.9,15.4.4,1.1.7,2.9.2,3.7-1.8,2.8-1,5.8-1.1,8.7-.1,7.9-.4,15.8,0,23.7.3,6.3-1.7,12.3-1.3,18.6-2.1,3.8-.5,8-1.3,11.9-1.7,9,0,18.2-1.4,27.1-1.4,8.7-.3,17.3-1,25.8-1.3,3.2-.5,6.5-.6,9.7-.2,6.3.5,12.7-1.5,18.9-.3,1-.5,2.2-.3,3.3,1.8,10.9-.4,21.7-.9,32.5-.5,11.5-.2,23.2-2.1,34.6-.1.9-.2,1.8-.1,2.6,1.8,13.6-.9,27-1.7,40.5-.6,11-.6,22.1-1.7,33.2-1,9.9-2.2,20.1-2,30.4.2,7.8-.4,15.9-1.3,23.9Z" fill="#e5dcd7"/>
        <path d="M1264.6,221.6c-4.6,0-9.3-.3-13.9,0-4.4.3-8.4-1.9-12.8-1.5-4.6.4-9.3,0-13.9,0s-9,.8-13.3-.2c-10.5-2.2-21.1-.6-31.6-1.2-8.9-.5-17.8-1.4-26.7-1.6-4.7,0-9.4-2.6-14.1-4.2-3-1-5.9-2.7-9-3.4-1.6-.4-2.7-1-3.4-2.2-3.3-5.9-8.3-9.9-12.5-14.8-1.3-1.5-1.7-3-2.2-5-2-8.2-3.5-16.5-4.7-24.9-2.2-1.4.2-2.8,0-4.2-.2-3.3-.2-6.6,0-9.9.2-5.6,1.2-11.1,3.6-16.1,3-6.1,5.8-12.3,8.5-18.6,3.5-8.1,3.7-8,5.4-8.7,3-1.2,5.8-2.9,8.8-3.9,7.5-2.5,14.8-5.6,22.1-8.6,3.4-1.4,7.1-1,10.5-.1,1,.2,2.2.9,3.3.8,13.2-.9,26.2,2.1,39.4,1.2,5.4-.4,10.5,1.9,15.8,1.5,5.2-.4,10.7-1,15.7.1,7.9,1.8,15.9,0,23.7,1.3,7.9,1.3,15.8,1.1,23.7,1.2.8,0,1.4.2,2.2.6,4.6,2.9,9.8,3.9,14.7,5.9,5.4,2.2,11,3.8,13.5,10.4,3.2,2.6,4.9,6.6,7.6,9.8,2.3,2.7,4.8,5.7,4.1,10-.4,2.4,1.6,4.2,1.3,6.7-.2,2-1,4.4,1.1,6.1.2.2,0,.8,0,1.3,0,2.6-.8,5.8.2,7.8,1.3,2.6-.2,4.4-.4,6.3-.6,5.1-1.1,10.5-2.7,15.2-1.5,4.5-3.7,8.9-6.4,13-3.2,5-5.1,10.9-8.7,15.8.6,2.7-2.1,2.6-3,3-5.8,2.4-11.6,4.6-17.3,6.8-1.2.5-2.5,1.3-3.7,1.3-2.5,0-4.1,2.4-6.3,2.7-3.4.4-6.8.1-10.3.1h-8.5Z" fill="#ccebb1"/>
        <path d="M628.7,254.6c4.2,0,8.6-.7,12.7.1,9.9,2.1,20-.2,29.7,1.4,10.8,1.7,21.5-.2,32.1,1.3,11.5,1.6,23.2-.2,34.5,1.4,10.2,1.4,20.3-.3,30.3,1.2,10.3,1.6,20.8-.2,30.9,1.4,9.2,1.4,18.2.6,27.3,1,2,0,2.2.8,2.3,2.7.1,3.4-1.6,6.5-1.4,10,.2,3.1,1.2,6.5-1,9.4-.2.2,0,.9,0,1.3.8,7.8-1.8,15.4-1.2,23.2.3,3.4-1.7,6.4-1.3,10,.3,3.1.9,6.5-1.1,9.3,0,.1,0,.4,0,.6.9,6.7-1.3,13.2-1.2,19.9,0,6.7-2.1,13.2-1.2,19.9-1.9,4.3-1.3,8.9-1.1,13.3.1,2.2-1.5,3.4-1.4,5.4.1,2.6,0,5.2-.1,7.8-2.7.9-5.6,0-8.3.5-3.1.7-5.6-1.8-8.6-1.5-3,.3-6.3.9-9-.1-4.1-1.5-8.3-.3-12.2-1.3-5.1-1.3-10.3-.3-15.2-1.4-4.5-1-9.1-.2-13.4-1.3-4.7-1.2-9.5-.3-14-1.3-4.7-1.1-9.5-.2-14-1.4-4.5-1.2-9-.8-13.5-1.1-3.1-.2-5.9-2.1-9.2-1.4-1.1.2-.9-1-1-1.9-.6-4.9-1.6-9.7-1.2-14.6-2.5-3.9-.7-8.6-2.2-12.8-1.3-3.8-2.7-7.7-3.3-11.7-1.1-7.2-5.7-12-9-17.7-3.5-6-7.9-11.1-12.4-16.1-2.2-2.5-5.1-4-7.4-6.3-1.3-1.3-3.7-1.6-5.6-2.5-7.2-3.2-14.5-6.4-22.5-5.9-2.4.2-4.2-2-6.8-1.5-2.2.4-4.5.5-6.8-1-1.1-.8-3.2-.4-4.7,0-2.8.5-5.1-2.2-8-1.4-.5.1-.8-.8-.7-1.5.1-1.1,1.4-1.4,1.2-2.8-.8-7.4,1.1-14.5,1.2-21.9,0-1.8-.2-3.6,0-5.3.3-1.8.6-3.9,1.7-5.1.7-.8,2.6-.4,4-.4,4,0,8.1,0,12.1,0Z" fill="#eceff6"/>
        <path d="M838.3,402.2c-.1,3.9-.2,3.7-2.8,4-5.4.7-10.4-2-15.8-1.4-3.2.4-6.5-.1-9.7.1-4.4.4-8.4-2-12.8-1.5-4.2.5-8.7,1-12.6-.1-6.5-1.9-13-.6-19.5-1.1-5.7-.4-11.3-1.8-17-1.4-5.8.4-11.8.8-17.5-.1-4.5-.8-9.1-.2-13.4-1.3-6.9-1.8-13.8-.8-20.7-1.1-4.1-.2-8-1.9-12.2-1.5-4,.4-8.2.9-12,0-6.7-1.8-13.4-1-20.1-1-3.2,0-6-1.9-9.2-1.5-1.2.2-1.9.2-1.8,1.8.9,11.3-2.1,22.5-1.1,33.7.4,5-1.7,9.6-1.4,14.6.3,5,.9,10.3-.1,15.1-1.6,6.9-.7,13.7-.9,20.6-.1,4.5-1.8,8.7-1.4,13.3.4,4.3.8,9,0,13.1-1.6,7.5,0,15.2-1.2,22.5-1.3,8.4,0,16.9-1.3,25.1-1.1,7.2-.6,14.2-.9,21.2-.2,4.5-1.8,8.7-1.3,13.3.4,4.4.9,9,0,13.1-1.7,6.9-.8,13.7-.9,20.6-.1,4.5-1.9,8.7-1.4,13.3.4,4.3.8,9,0,13.1-1.6,7.5,0,15.2-1.2,22.5-1.3,8.4,0,16.9-1.3,25.1-1.1,7.2-.7,14.2-.9,21.2-.2,4.5-1.8,8.7-1.3,13.3.4,4.4.9,9,0,13.1-1.7,6.9-.8,13.7-.9,20.6-.1,4.5-1.9,8.7-1.4,13.3.5,4.6,1,9.5-.1,13.8-1.6,6.3-1,12.5-.9,18.6,0,4.8-1.7,9.2-1.4,14,.3,4.8.9,9.9-.1,14.4-1.6,7.3,0,14.7-1.2,21.9-1.3,8.6,0,17.4-1.3,25.8-1,6.9-.7,13.7-.9,20.6,0,4.5-1.9,8.7-1.4,13.3.5,4.6.9,9.4,0,13.8-1.5,6.5-.9,12.9-.9,19.3,0,4.8-1.8,9.2-1.4,14,.4,4.6.9,9.4,0,13.8-1.7,7.6-.7,15.1-1,22.6-.1,3.4-1.9,6.4-1.3,10,.5,3.2,1,4.3,4,4.1,12.4-.8,24.6,2.2,37,1.4,7.8,2,15.9.2,23.6,1.6,6.4,1.1,12.6.8,18.9.9,4.1,0,8,2,12.2,1.5,4.2-.5,8.7-1,12.6.1,5.9,1.7,11.8,1,17.7,1,4,0,7.6,2,11.6,1.5,3.8-.4,7.8-.9,11.4,0,6.3,1.8,12.7.2,18.9,1.3,7.1,1.2,14.3.2,21.2,1.5,6.2,1.2,12.3,0,18.3,1.2,6.3,1.3,12.6,1,18.9,1.2.9,3.3-1.8,6.1-1.2,9.3.1.8-.4,1.2-1,1.2-2.6,0-5.6.8-7.8-.2-2.2-1.1-4.2-1.1-6.2-1-10.4.5-20.6-2.4-30.9-1.4-6-2.3-12.2-.3-18.2-1.5-7.3-1.4-14.7-.1-21.8-1.4-6.4-1.2-12.7,0-18.9-1.2-7.9-1.4-15.9,0-23.6-1.5-6.6-1.2-13-.7-19.5-1-4.1-.2-8-1.9-12.2-1.5-4,.4-8.3,1-12-.1-6.1-1.8-12.2-1-18.3-1-4.1,0-8-1.9-12.2-1.5-4.2.4-8.5,0-12.7.2-1.9.1-2.9-1.8-5-1.5-2.9.4-6,0-9,0-.9-3.4,0-6.9-.4-10.4-.7-5.4,1.3-10.6,1.2-15.9,0-5.3-.8-10.7.2-15.8,1.5-7.1,0-14.3,1.2-21.2,1.3-8.4,0-16.9,1.3-25.1,1.1-7.2.7-14.2.9-21.2.2-4.5,1.8-8.7,1.3-13.3-.4-4.4-.9-9,0-13.1,1.7-6.9.8-13.7.9-20.6.1-4.5,1.9-8.7,1.4-13.3-.5-4.6-1-9.5.1-13.8,1.6-6.3,1-12.5.9-18.6,0-4.8,1.7-9.2,1.4-14-.3-4.8-.9-9.9.1-14.4,1.6-7.3,0-14.7,1.2-21.9,1.3-8.6,0-17.4,1.3-25.8,1.1-7.2.6-14.2.9-21.2.2-4.5,1.8-8.7,1.3-13.3-.4-4.3-.9-9,.1-13.1,1.6-6.5.9-12.9.9-19.3,0-4.8,1.8-9.2,1.4-14-.4-4.6-.9-9.4,0-13.8,1.6-7.3,0-14.7,1.2-21.9,1.3-8.6,0-17.4,1.3-25.8,1.1-7.2.6-14.2.9-21.2.2-4.5,1.8-8.7,1.3-13.3-.4-4.3-.9-9,0-13.1,1.7-6.9.7-13.7,1-20.6.1-4.5,1.8-8.7,1.4-13.3-.4-4.3-.9-9,0-13.1,1.7-7.3.1-14.7,1.2-21.9,1.3-8.6.1-17.4,1.3-25.8,1.1-7.4,0-14.7,1.1-21.9,1.3-8.4.1-16.9,1.3-25.1,1-7.4.7-14.6.9-21.9,0-1.3.2-2,1.6-2,6.8,0,13.8-.9,20.5.3,6.6,1.2,13,.7,19.5,1,4.3.2,8.4,2,12.8,1.5,4.2-.5,8.7-1,12.6.1,5.7,1.6,11.5.2,17.1,1.2,9.1,1.7,18.3.1,27.3,1.5,7.2,1.1,14.3,0,21.3,1.2,7.9,1.3,15.9,0,23.7,1.5,7,1.2,13.9.1,20.7,1.1,6.9,1,13.7,1.3,20.7,1.3,1.7,0,3-.7,4.3-1.4Z" fill="#e9e2de"/>
        <path d="M1158.7,468.1c0-1.3.9-1.6,1.5-1.2,1.2.8,2.3,1.4,3.8,1.3,19.8-1,39.5,2,59.3,1.3,6.5-.3,12.8,2,19.4,1.5,6.6-.5,13.4-1.1,19.9.1,10.9,2,21.9-.2,32.7,1.3,12.5,1.7,25,.9,37.6,1.1,1.7,0,2.7,1.8,4.3,1.4,1.3-.3,1.7.5,1.6,1.9,0,10.5,0,21.1,0,31.6,0,1.5-1.3,2.1-1.3,3.4.7.9.7,1.8,0,2.6,0,11-.2,21.9,0,32.9.1,5-1.9,9.6-1.4,14.6.5,5,.1,10.1.1,15.1s.7,10.2-.1,15.1c-2.1,11.9-.8,23.8-.9,35.7,0,5-2,9.6-1.4,14.6.1,1.2-.9,1.4-1.7,1.1-7.4-2.6-15-.8-22.5-1.2-4.9-.3-9.6-2-14.6-1.5-4.8.5-9.8,1-14.4,0-8.3-1.9-16.7.2-24.9-1.3-8.5-1.6-17.1.2-25.5-1.3-10.3-1.8-20.6-.8-30.9-1-10.5-.3-20.9,0-31.4,0-5.5,0-10.8-2-16.3-1.6-.1,0-.3-.7-.4-1.1,1.1-1.6,2.7-2.1,4.3-2.7.7-.2,1.4-.4,2.1-.5,26.6-1,53.1.6,79.6,2.1,9.4.5,18.9.6,28.3,1.2,16.3,1,32.6,1.5,48.8,2.6,4.7.3,5.3-2.7,5.3-6.6,0-11.8.8-23.7.9-35.5.2-22,1.8-43.9,1.6-65.8,0-14.9,1.4-29.8,1.2-44.7,0-5.3-1.5-7.5-6.5-7.5-29.2.3-58.3-2.4-87.5-2.9-21.7-.3-43.4-1.8-65.1-2.5-1.2,0-2.4-.2-3.6-.7-1.1-.5-2-1.3-2.3-2.7Z" fill="#e9e2de"/>
        <path d="M1040.2,283.6c-6.1.3-12-1.9-18.2-1.4-6,.5-12.2,1.1-18.1-.1-8.9-1.8-17.9,0-26.7-1.2-10.5-1.5-21.1,0-31.5-1.5-8-1.1-15.8-.9-23.7-.9-6,0-11.6-2-17.6-1.6-5.8.4-11.8,1-17.5-.1-9.9-1.9-19.9-.3-29.7-1.3-3.9-.4-7.7-1.2-11.6-1.3-2.4,0-2.6.9-2.5,3,.1,5.3,0,10.5,0,15.8,0,1,.5,2.3-1.2,2.4,0-7.7,0-15.4,0-23.1,0-1.3.2-2,1.6-2,8.1,0,16.3-1,24.1.3,7.2,1.2,14.2,1,21.3.9,6.4-.1,12.5,1.8,18.8,1.5,6.2-.2,12.6-1,18.7.2,9.6,1.8,19.1-.1,28.5,1.3,10.3,1.5,20.8,0,30.9,1.4,8.8,1.3,17.4.7,26.1.9,4.3.1,8.4,2,12.8,1.5,4.4-.5,8.9-.2,13.3,0,3.9.1,7.6-1.9,11.6-1.5,4,.5,8.2-.6,12.1.2,9.7,2,19.6-.1,29.1,1.5,9,1.5,17.9-.2,26.7,1.2,9.7,1.6,19.5.3,29.1,1.4,4.1.5,8.1,1,12.2,1.1,4.9,0,5.7,1.1,4.1,6.4-.3,1-.7,1.9-.7,3,.9,17-1.8,33.9-1.1,50.9.3,7-1.7,13.6-1.4,20.6.3,6.8.9,13.8-.1,20.4-1.7,10.6.2,21.3-1.2,31.8-1.5,11.5,0,23-1.3,34.4-.7,6.2-.8,12.4-1,18.6.4.9.1,1.6-.7,2-5,.7-5.7-3.2-5.9-7-.4-6.1-.8-12.4,0-18.4,2-16.2,1.1-32.4,1.8-48.6.8-19,1.8-38.1,1.7-57.2,0-13.4,1.7-26.7,1.2-40.1-.3-8.3-.3-8.5-7.6-9.4-15.2-1.8-30.5-1-45.7-2.9-3.9-1.4-7.7-1.4-11.8-.3-5.3,1.5-10.6-2.1-16.1-.7-11,0-21.9-1.3-32.9-2Z" fill="#e9e2de"/>
        <path d="M1156.3,469.5v-1.3h2.4c.8,0,1.2.4,1.2,1.3,2.3,8.8,1.2,17.9.4,26.6-1.3,16-1.4,32-1.7,47.9-.4,26.5-2.1,53-1.6,79.5,0,3.3.3,6.6-2,9.4-2.7,1.3-4.3.6-4.1-2.9.9-17.7,1-35.4,1.3-53.1,2.2-8.3.5-16.8,1-25.3,0-.2.3-.9-.4-.7.3.2.4.5.4,1.1-.3,8,.6,16.1-.5,24.2-1.3,2-.7,4.2-.7,6.3.3,14.4-.8,28.7-.9,43.1,0,2.3,2.2,7.5-3.4,7.4-1.9.3-3.3-.7-3.5-2.5-.3-2.1-.3-4.5.4-6.4.5-1.3.8-2.4.7-3.6-.8-16.5,2-33,1.2-49.5,2-9.4.1-19.1,1.4-28.4,1.3-9.5-.2-19.1,1.2-28.4,1.3-8.5.5-16.8,1-25.2,0-.9.5-2.3-1.2-2.4-.4-.3-.6-.6-.4-.9.1-.3.3-.4.4-.4,0-.9.4-1.4,1.2-1.3,4.1.3,4-3,4.3-5.9.3-2.9-.4-6.1,1.7-8.6Z" fill="#d7cfc9"/>
        <path d="M1149.1,485.3v1.3c-3.4,0-7.1-.8-10.2.2-4.9,1.6-9.9,1.7-14.6.9-12.5-2-25.2.2-37.6-1.4-11.2-1.5-22.3.3-33.3-1.3-12.2-1.7-24.4.3-36.4-1.3-13.4-1.8-26.7-.4-40-1.2-3.7-.2-7.3-1.2-11-1.4-2.7-.1-4.8,1.8-7.4,1.5-2.4-.2-4.9-.4-7.2,0-3.8.6-7.2-2.2-11-1.4-1.5-2.2-3.7-1.2-5.6-1.2-11.9,0-23.8-.4-35.6,0-9,.4-17.8-1.8-26.7-1.4-2.1,0-4.3-.7-6.1,1.5-1.9,2.4-2.5,5.2-2.6,8-.3,7.5,0,14.9-.1,22.4,0,1,.5,2.3-1.2,2.4,0-8.6,0-17.1,0-25.7,0-2.8,0-5.5,1.2-8,.6-1.5.8-3.6,1.9-4.3,1.2-.8,3.7-.9,4.6,0,2.1,1.9,4.2,1.1,6.3,1.1,5.2.2,10.5,0,15.7,0s10.9,0,16.3,0c5.3,0,10.4,2.2,15.8,1.3,2.3-.4,4.8.8,6.8-1.3.3-.3,1.2,0,1.8,0,2-.2,3.4,1.8,5.6,1.5,1.8-.3,3.9-.9,5.7,1,.5.6,1.9.2,2.9.2,3,0,6,.2,9.1,0,3.1-.2,6.1,0,9.2-1,4.7-1.6,9.6.7,14.3,1.7,1.1.2,2.2.7,3.3.7,4.8,0,9.7-.3,14.5.2,2.2.2,3.5-1.5,5.5-1.6,4.2-.2,8.2.6,12.2,1.5,6.8,1.6,14.5,1.8,20.8,0,.6-.2,1.2-.2,1.8-.1,2.3.5,4.5-.7,6.9,1.1,1.7,1.3,4.7-.8,6.8,1.1.9.8,1.9.4,2.9.4,3,0,6,.2,9.1,0,3.7-.2,7.3.6,11-1.1,3.5-1.6,7.2,1.8,10.9,1.2,2.4,2.2,5.3,1.2,8,1.3,3.4.1,6.8.1,10.3,0,1.7,0,3.5.7,5.1-1.1.5-.6,2.1-.6,2.8-.1,2.6,1.6,5.5.5,8,1.4,6.3,2.2,12.6.7,18.9,1.2.8-.8,1.6-.7,2.4,0h8.5Z" fill="#f4f1ef"/>
        <path d="M1363.1,683c0,.2,0,.6,0,.6,2.1.3,3.8,2.2,6,2-1.1,3-2.2,6-2.5,9.4-.4,4.7-1.3,9.4-2.6,13.9-1,3.4-1.4,6.8-2.1,10.1-1.4,6.8-2.6,13.6-4,20.4-.9,4.4-2.3,8.8-2,13.5-1.8.1-1,1.6-1.2,2.6-4.1-.8-7.3-3.8-11.2-5.3-1.4-.5-1.1-2.3-.8-2.6,2.4-2.3.3-5.7,1.9-8.4,1.2-2.1,1.5-5.1,1.5-7.7,0-3,2.1-5.6,1.3-8.6,2.7-6.2,2.1-13.2,4.7-19.5.9-2.1.9-4.9,1.1-7.3.3-3,1.2-5.7,1.6-8.6.7-6.2,2.9-7.2,8.4-4.5Z" fill="#d0d0d0"/>
        <path d="M837.1,1019.2c-.2-3.1,0-6.2-1-9.4-1.1-3.3.7-7,1.7-10.3.5-1.5.7-3,.4-4.4-1.5-8.7-1.7-8.8.9-17,.5-1.5.6-3.1.3-4.4-1.5-7.7-1.9-10.4.4-15.9.9-2.2,1.3-4.4.8-6.1-1.6-5.3-1.1-10.2,0-15.5.9-4.8.4-10.1.1-15.1-.2-4.5.7-8.7,2.1-12.9.8-2.3.6-4.8.2-7-1.3-7.1-1.4-8.6-.1-14.2.3-1.2.3-2.6.2-3.8-.7-13.5,2-26.8,1.3-40.3-.1-2.1.5-4.6,1.6-6.5.8-1.5,1.2-3.2.7-4.2-2-4.1-.8-8.5-1.1-12.7-.1-2.1-.4-4.4,1.7-5.8,1.2-.9.6-2.4.7-3.6,0-5.9,0-11.9,0-17.8,0-1-.5-2.3,1.2-2.4,0,6.4,0,12.7,0,19.1,0,3.8.1,7.5-.9,11.4-.8,2.9-1.4,6.9,1,9.9-.5,2.9.9,6-.9,8.8-.6.9-.3,2.5-.3,3.8,0,3.7,0,7.5,0,11.2-.1,9.9-2,19.7-1.2,29.7-2.4,8.3-.8,16.7-1.2,25.1-.2,4.5-1.8,8.7-1.3,13.3.4,4.3.9,9,0,13.1-1.5,6.7-.5,13.3-1.1,19.9-.3,3.3-.6,6.7-1.6,9.8-.5,1.5-.3,2.9-.8,4.3-.8,2.5,2.3,4.6.2,7.6-1.1,1.7,0,4.8-1.3,7.3-.6,1.2-.2,3,0,4.5.4,9.9-2.1,19.7-1.2,29.7,0,.7-.4,1.2-1.2,1Z" fill="#f2eeec"/>
        <path d="M1005.2,841.3c.1-1.9,0-3.7-1.2-5.3,0-.6.1-1.4.8-1,3.2,1.8,6.8,2.2,10.1,3.7,3.5,1.7,7.2,2.2,10.7,3.6,3.3,1.3,6.7,2.6,10.4,3.2,3.3.6,6.6,2.5,10,3.6,6.6,2.3,13.3,4.3,19.8,6.6,8.5,3,17.1,5.9,25.7,8.7,8.8,2.9,17.5,6,26.4,8.4.6.2,1.1.5,1,1.3.7,1.7,0,2.9-1.2,4-4.1-1.2-8.3-2.4-12.4-3.9-8.1-2.9-16.5-5.3-24.7-8-7.1-2.4-14.1-5.4-21.3-7.4-7.4-2-14.6-4.9-22-7.2-9.8-3.1-19.7-5.9-29.2-10.4-.8-.4-2,0-3,0Z" fill="#c1c1c1"/>
        <path d="M1225.2,892.7h2.4c-.2,5.5,2.1,10.5,3,15.7,1.1,6.2,2.8,12.3,4.2,18.4,2,8.1,3.8,16.2,5.7,24.3,1.4,6.2,2.8,12.4,4.1,18.6,1.5,7.6,3.4,15.1,5.1,22.7,1.4,6.3,3,12.7,4.4,19,1.8,7.7,3.2,15.6,5.2,23.3,1.6,6.3,2.9,12.7,4.5,19,.7,2.6.6,5.5,2.4,7.7v2.6c-.4.4-.8.4-1.2,0-.4-.5-.8-.8-1.2-1.3-1.8-2.2-2.1-5.1-2.3-7.7-.3-5.1-2.2-9.6-3.1-14.5-1.1-6.2-2.9-12.3-4.3-18.4-1.9-8.1-3.6-16.3-5.7-24.4-1.5-5.9-2.6-12-4-17.9-1.9-8.1-3.8-16.2-5.7-24.4-1.4-6-2.7-11.9-4-17.9-1.7-8-3.8-15.9-5.4-23.8-1.4-7-4.1-13.8-4.3-21.1Z" fill="#d4d4d4"/>
        <path d="M1147.9,632.9c1.1,0,2.5.6,2.4-1.7,0-6.8.1-13.6,0-20.4-.2-5.6,1.8-10.9,1.3-16.5-.4-5.7-.1-11.4,0-17.1,0-.7.4-1.2,1.2-1,0,15.7,0,31.4,0,47.1,0,1.9.2,3.7-.5,5.7-1.3,3.7-1.2,3.8,2.9,4-.6,2.5-2.4.8-3.6,1.3-1.2-.5-3.1,1.2-3.6-1.3Z" fill="#e4dbd5"/>
        <path d="M1117.6,878.2c-.6-1.7,1-2.6,1.2-4,2.7,1.3,3,4.6,4.8,6.6-.7-.2-1.6.4-2.2-.4-.7-1.1-1.7-.9-2.6-.9,0-.9-.4-1.4-1.2-1.3Z" fill="#c9c9c9"/>
        <path d="M1337.7,514.3v-2.6c1.1,0,1.3.8,1.2,1.6,0,.7-.4,1.1-1.2,1Z" fill="#cccbcc"/>
        <path d="M1263.9,1062.8c.8,0,1.2.4,1.2,1.3-.8,0-1.2-.4-1.2-1.3Z" fill="#dfdfdf"/>
        <path d="M1265.1,1064.1h1.2v1.3c-.8,0-1.2-.4-1.2-1.3Z" fill="#dfdfdf"/>
        <path d="M837.1,46.2v5.3c-1.2,3.4-.3,7.1-1.2,10.5v5.3c-1.2,3-.4,6.2-1.2,9.2v5.3c-1.2,3.4-.3,7.1-1.2,10.5v5.3c-1.2,3.4-.3,7.1-1.2,10.5v4c-1.4,8.6-1.4,9-9.8,8.5-12.2-.8-24.4-2.1-36.5-3.3-6.8-.7-13.6-1.1-20.4-1.9-2.2-.2-4.5,0-6.2-1.9-.9-11.6,1.1-23.1,1.6-34.7.4-9,1.4-17.9,1.5-26.8.1-6.8,1.6-13.5,1.4-20.3-.1-4.2,3-3.4,5.2-3.5,9.7-.3,19.3,1.2,28.9,1.8,10.4.7,20.9,1.6,31.3,2.3,3.3.2,6.4.5,8.9,3.3v1.3c-1.2,3-.4,6.2-1.2,9.2Z" fill="#dfdfdf"/>
        <path d="M818.2,236.1c-3,0-6.1.5-9,0-10.3-2.2-20.7.1-30.9-1.5-10.4-1.6-20.7.3-30.9-1.3-10.4-1.6-20.7.2-30.9-1.3-11.2-1.7-22.3.2-33.3-1.3-11.1-1.5-22.4.2-33.3-1.4-11-1.6-21.9-.4-32.8-1-1.7,0-2.6-.2-2.4-2.4.4-4.6-.5-9.3,1.1-14,.9-2.5.1-5.6.2-8.5,0-2.3,0-4.5,1.1-6.8,1.2-2.4,1.5-3.2,3.3-2.4.7.3,1.1,1.2,2,1.1,6.4-.9,12.5,1.4,18.8,1.3,6.1,0,12.1,2.2,18.2,1.3,3.3,2.3,6.9,1.1,10.4,1.3,5.7.4,11.3,2.1,17,1.3,3.9,2.3,8.2.5,12.2,1.5,5.1,1.3,10.3.4,15.2,1.4,4.5,1,9.1.2,13.4,1.3,4.3,1.1,8.7.3,12.8,1.3,4.7,1.1,9.5.3,14,1.4,4.5,1.2,9.1.2,13.4,1.2,4.9,1.2,9.9.2,14.6,1.4,3.9,1,7.8.9,11.6,1,3.1,0,5.9,1.9,9.2,1.5,2.8-.3,5.8-.9,8.6,1.1.9.6,2.4.3,3.6,0,5.4-.8,10.5,1.5,15.8,1.3,1.1,0,1.4.7,1.2,1.7-.4,2.7.4,5.3-.8,8.2-1.1,2.5-.4,6-.3,9,0,1.7-.4,2.3-2,2.2-3.6-.1-7.2,0-10.9,0Z" fill="#eceff6"/>
        <path d="M838.3,35.7c-3.2.3-5.9-1.9-9.2-1.4-3,.4-6.2.8-9,0-6.1-1.9-12.3-.1-18.2-1.4-5.3-1.2-10.7-.3-15.8-1.3-6.3-1.2-12.6-1.1-18.9-1.2-.4,0-.9,0-1.1-.3-1-1.2-1.5-1.2-1.6.6,0,2.6.4,5.4,0,7.9-1.5,7-.3,14.3-1.4,21.2-.9,5.8-.1,11.6-1.1,17.3-1.3,7.1-.2,14.3-1.3,21.2-.8,5.2-.7,10.2-1,15.3.7.9.6,1.8,0,2.6-1.2.1-1.2-.8-1.2-1.7,0-4.8-.6-9.8.1-14.5,1.1-6.7.2-13.4,1.3-19.9,1.1-6.1.7-12,.9-18,.1-3.6,1.8-6.9,1.4-10.7-.4-3.7-.2-7.5,0-11.2,0-2.1,1.4-3.8,1.3-6-.1-3-.7-6.1.4-9,3,0,6.3-1,9,.1,3.9,1.6,7.8,1.2,11.7,1,4-.2,7.6,1.7,11.6,1.5,3.8-.2,7.9-.9,11.4.2,5.1,1.6,10.2.7,15.3,1.1,3.7.3,7.2,1.8,11,1.4,4.5-.4,4.5,0,4.6,5.2Z" fill="#e5e5e5"/>
        <path d="M759.7,116.1v-2.6c7.9-.7,15.7,2.3,23.6,1.3,4.3,2.2,9,.4,13.4,1.5,4.9,1.2,9.8.4,14.6,1.4,5.3,1.1,10.5,1,15.8,1.2,3.7.2,3.6.3,4-3,.1-1.2-1.2-3.2,1.2-3.7,0,2.6-.2,5.3,0,7.9.3,2.7-.9,2.8-2.8,2.7-3-.1-6-.3-9,0-3,.3-5.5-1.9-8.5-1.5-2.8.4-5.9.9-8.3,0-4.3-1.7-8.6-.3-12.8-1.3-5.3-1.3-10.6-.3-15.7-1.4-4.9-1.1-9.7-.8-14.6-1.1-.6,0-1.1-.5-.9-1.3Z" fill="#cecece"/>
        <path d="M832.2,108.2c-.7.1-1.4-.6-1.2-1,1.5-2.7,1.1-5.7,1.2-8.6,0-.7.4-1.2,1.2-1,0,3,0,6,0,8.9,0,.9,0,1.7-1.2,1.6Z" fill="#cbcbcb"/>
        <path d="M833.4,92.4c-.7.1-1.4-.6-1.2-1,1.5-2.7,1.1-5.7,1.2-8.6,0-.7.4-1.2,1.2-1,0,3,0,6,0,8.9,0,.9,0,1.7-1.2,1.6Z" fill="#cbcbcb"/>
        <path d="M835.9,62.1c-.7.1-1.4-.6-1.2-1,1.5-2.7,1.1-5.7,1.2-8.6,0-.7.4-1.2,1.2-1,0,3,0,6,0,8.9,0,.9,0,1.7-1.2,1.6Z" fill="#cbcbcb"/>
        <path d="M834.7,76.6c-.7.1-1.4-.7-1.2-1,1.8-2.4.7-5.3,1.4-7.8,0-.2.6-.3,1-.5,0,2.5,0,5.1,0,7.6,0,.9-.1,1.7-1.2,1.6Z" fill="#cbcbcb"/>
        <path d="M837.1,46.2c-.7.1-1.4-.7-1.2-1,1.8-2.4.7-5.3,1.4-7.8,0-.2.6-.3,1-.5,0,2.5,0,5.1,0,7.6,0,.9-.1,1.7-1.2,1.6Z" fill="#cbcbcb"/>
        <path d="M1156.3,469.5c0,4.4-.2,8.8,0,13.1.2,2.7-.9,3.1-2.8,2.7-1.1-.3-2.9,1.3-3.4-1.3.2,0,.5,0,.6,0,1.2-2.7.4-5.5.6-8.3,0-.4-.3-.7-1.1-.5-5.5,1.3-5.5,1.1-10.2-.2-.6-.2-1.1-.3-1.7-.2-8.5.3-16.9-2.1-25.5-1.4-4.8.4-9.7-.2-14.5.1-4.8.3-9.2-2-14-1.5-4.6.5-9.3,0-13.9,0s-9.7,0-14.5,0c-2.5,0-4.9-2.5-7.3-1.2-2.3,1.2-4.2,1.5-6.3,0-.3-.2-.8,0-1.2,0-2.7-.3-5.6.6-8.2-.6,0-3.1,0-6.1,0-9.2,0-2.4-.1-4.8,0-7.2.1-2,0-4,.9-6.2.8-2.3,1.4-5.9-1.4-8.4-1.4-1.2-.8-2.8.1-4.5,1.4-2.6,2.8-5.7.8-8.8-.6-.9.2-1,.3-1.4.7-2.3,1-4.5-.4-6.7-.8-1.3-.8-3.3-.2-4.3,1.2-1.9,1.5-3.2.1-5.1-.8-1.1,0-2.6.6-4,1.1-2.4,2.7-4.9.4-8.1-1-1.4-.9-4.8,0-6.3,1.5-2.4.3-5.5,2.2-7.6-2.2-2,1.9-5.2-1.1-7,2.4-3.5,1.6-7.8.9-11.2-.9-3.9-.6-7.6-.9-11.4,0-.7,0-1.3,0-2,0-1.3,1.2-1.6,1.8-2.5.6.8,1.6,1.5,1.8,2.4.2,1.8,0,3.6.9,5.2-2.7,1.9.4,3.3.5,5,.4,5.4,1.6,10.7,2.2,16.1.2,1.4,1.3,2,1.4,3.4.2,1.6,1.2.3,1.4-.2,1.4-2.7,3.2-5,1.3-8.6-1-2-.6-5.1-.4-7.7.2-1.7,1.9-2.7,3.1-3.7,3.1-2.5,3.6-3.1,2.3-6.4-.5-1.3-.8-2.5-.6-3.7.6-3.7-1.7-6.3-2.8-9.3-.4-1-1.4-2.2-2.9-1.8-1.5.4-2.6-.4-3.8-1.2-.6-.4-1.6-.1-1.5-1.4.1-5.1-2.9-9.5-2.4-14.7.2-2.1.6-4.1,1-6.1.5-2.6,1.4-6-.8-8.7-.4-.5-.5-2-.1-2.5,2.1-2.5,1.3-5.5,1-8.1-.4-4.4,1.7-8.3,1.3-12.6-.1-.8.3-1.3.9-1.3,5.6,0,11.3-1,16.7.2,5.5,1.3,10.9.6,16.3,1,4.3.8,8.5,1.8,11.8,5.5,2.7,3,5.9,1.7,8.9,0,1.8-1.1,2.8-3.2,4.7-4.1,3,0,6.1.3,9.1,0,5.6-.6,10.8,2,16.4,1.5,5.6-.5,11.3,0,16.9-.2,2,0,3.4,1.9,5.6,1.5,2.7-.4,5.6,0,8.4,0,1,3.2.4,6.4.5,9.7.1,7,0,14,0,21.1,0,7.1-1.8,14-1.3,21.2.5,7.2,1,14.6,0,21.7-1.8,11.9-.6,23.8-.9,35.7-.1,4.3-1.8,8.2-1.4,12.6.4,4.6,0,9.2,0,13.8s.7,9-.1,13.1c-1.9,9.3-.6,18.6-1,27.8-.2,4.5.3,4.8,4.8,5.1Z" fill="#e4dbd5"/>
        <path d="M1140.6,485.3h-2.4c-.7-2.6-2.6-.8-3.9-1.3-.3-.1-.6-.4-.9-.6.1-.2.3-.4.4-.4,1.5-.1,3.1-.4,4.6-.2,1.1.2,2,1.1,2.2,2.6Z" fill="#e4dbd5"/>
        <path d="M1155.1,632.9v-18.4c0-6.4.1-12.7,0-19.1-.1-6.2,1.8-12.2,1.3-18.5-.5-6.3-.1-12.7-.1-19.1s-.8-12.9.2-19c1.9-11.9-.2-23.9,1.3-35.6,1.1-9.1.7-18.1,1-27.1,0-2.4,1.9-4.2,1.3-6.7,7.3,0,14.5-.1,21.8,0,6.3.2,12.5,1.8,18.8,1.4,6.2-.4,12.6-1,18.7.1,10.1,2,20.3.9,30.3.9,6.5,0,12.9,2,19.4,1.6,6.6-.4,13.4-1,19.9.1,11.1,2,22.3.5,33.4,1.1.8,0,1.8-.3,2.4,0,.8.6,3.1.8,1.3,3-.4.5-.3,1.6-.3,2.5.9,21.8-1.9,43.5-1.2,65.3,0,2.6.3,5.3,0,7.9-2.1,14.9,0,30-1.4,44.9-1.3,12.8-.4,25.6-.9,38.4,0,2.4-.6,2.8-2.7,2.9-3.4,0-6.6-1.4-9.8-1.3-14.4.6-28.6-2.2-43-1.5-4.9.2-9.6-1.9-14.6-1.4-5,.5-10.3,1.1-15-.1-6.8-1.7-13.4-1.2-20.1-.9-10.4.3-20.6-1.9-30.9-1.5-10.3.4-20.5,0-30.8,0Z" fill="#e4dbd5"/>
        <path d="M1099.5,284.9c0,3.6-2.5,5.4-4.8,6.4-1.8.7-3.7,2.1-6,1.6-1.2-.2-2.2-.2-3.1-1.3-3-4-6.5-7-11.5-7.3,0,0,0-.4,0-.6,2.6,0,5.2.2,7.8,0,2.2-.2,3.4,3.1,5.8,1.8,2-1.1,4.1-1.9,6.5-1.9,1.7,0,3.1,0,5.3,1.5Z" fill="#e7deda"/>
        <path d="M1153.9,562.8c0,3.9,0,7.8,0,11.8,0,.6-.3,1.5-.6,1.6-1.2.3-.5-.8-.6-1.2,0-8.1,0-16.1,0-24.2,0-.8-.2-2.1.7-2,.9,0,.5,1.5.5,2.3,0,3.9,0,7.8,0,11.8Z" fill="#e4dbd5"/>
        <path d="M1036.6,466c0,1,0,1.9,0,2.7,0,.2-.5.4-.8.5,0,0-.4-.3-.4-.4,0-.9-.2-1.8,0-2.6.2-1-.9-2.9.8-3,.9,0,.2,1.9.4,2.8Z" fill="#d7d0ca"/>
        <path d="M1248.2,475.7c-.5.1-1,.4-1.5.3-.5,0-1-.5-.8-1.3,0-.1.7,0,1.1,0,.6,0,1,.2,1.2.9Z" fill="#f7f5f3"/>
        <path d="M1245.3,474.7c-.2-.3-.6-.6-.5-.8.1-.5.5-.6.7-.2.2.3.2.7.3,1-.2,0-.4,0-.5,0Z" fill="#fefefe"/>
      </g>
    </g>
  </g>
</svg>