<?xml version="1.0" encoding="UTF-8"?>
<svg xmlns="http://www.w3.org/2000/svg" version="1.1" viewBox="0 0 900 900">
  <!-- Generator: Adobe Illustrator 28.7.8, SVG Export Plug-In . SVG Version: 1.2.0 Build 200)  -->
  <g>
    <g id="_Слой_2_xA0_Изображение" data-name="Слой_2_xA0_Изображение">
      <g id="_Слой_1_xA0_Изображение">
        <path d="M256.7,899.8c-62.6,2.9-39.6-37.6-61.8-75.5,12.7-8.2-3.5-8.7-10.4-14.2-11.5-9.8-2.6-12.2,1.1-21.8,8.8-13.4,23.8-19.2,33.2-32.6,13.6-20.5,2.3-49.8-25.6-45.2-.3-10.6,9.2-19.6,8.5-31.4,6.8-13.5,23.8-8,21.3-27.6,17-40.6-13.7-97.2,15.3-130,28-16.6,63.2-4.4,93.9-11,14.3-14.3-1.6-23.5-15.5-27.9-14.4-8.3-35.2-7.4-44-22.7-9.1-11-26.9-10.1-40.4-9-20.7,29.5-153.2,30.9-124.8,75.6,21.4,6.3,23.5,9.3,5.8,23.3-9.3,24.7-6.2,53.1-12.8,79.2-7.5,28,40.6,29.4,40.4,56.2-13-3-23.3,4.4-23.9,17.2-23.9,25.2-17.5-16.5-26.6-27.4-13.1-7.7-28.5,2-42,.3-3.2-14.9-2.7-32.6-14.6-45.3-14.7-15.2,18.9-17.3,14.1-35.1-39-8.3-49.8-32.1-.5-32.9,44.3-29.1,16-55.7,20-94.8-20.9-5.7-29-27.5-49.8-31.9-20.3-5.5-26.9-47.5.7-46.8,26.7-.4,44.8-36,32-57.5-4-8.9,9.3-8.2,13.8-12.9,2.3-10.9,3.3-20.8,7.9-31.4,8.9-22.7-33.7-30.7-24.2-54,14.9-5.3,11-25.3,9.8-37.5-16.9-32.3,18.8-22.1,30.1-37.6,5.9-15.1,25.5-21.8,19.6-40.6-.5-18-20.7-22.9-26-37-1.1-14.6,2.4-27.8-10.2-38.8,5-7.9,20.9-10.2,27.6-15-1.4-6.7-2.3-13.8,4.3-18.5,1.6-13.4,26.3-5.3,36.3-2.7,17.3,4.8,37.2-.5,52.2,10.5,13.7,11.8,34.7,12.1,48.2,23.6,48.9,21.6,1.2-30.5,39.4-25.9,13.6,2.1,23.7,14.7,38.6,13.5,6.6,10.6,14.4,20.1,21.7,29.8,17.5,7.2,35.4-1.8,53-2.4,24.6-.8,51.5,9,74.8,1.4,8.9-8.7,15.1-29.4,30.1-14,3.2,12.3,14.8,15.2,24.4,21.2,4.4,7.4,9.3,14,15.8,20.1,32.1,30.3,68.7-8.8,105,2.4,8,.5,4.1,8.7,6.6,13.6,15.3,8.9,19.9,28.3,32,38.4,8.8,13.7,32.3,4.1,44.1,14.6,23.4,6.6,32.1,32,32.7,54-8.8,7.6-20.6,9.8-29.2,17.6-2.6,32.4-73.3,90.6-56.7,111.4,38.5,50.2,73.2-16.9,110.9,39.7,21.4,13.7,45.6,21.7,70.4,25.1-2.5,13.8,4,23.5,11,34.4,5.7,3.4,8.3,7.4,12.7,12,3.3,9.2,38.3,14.8,14.5,21.9-48.9,15.8-29.7,20-32,56.3-3.5,21.4-33.6,27-49,39.2-4.5,17.8-24.8,14.7-39.2,22.1-21.8,16.9-51.5,18.8-69.5,40-73.9,42.7-46.1,61.9-147.7,51.3-13.8,75.4-98.6,31-136.3,85.2-27.5,47.4-17.7,14.5-9.5,51.8-17.7,1.4-32.3-3.7-41.9-18.2-23.3,7.2-8.3,37.2,2.3,49.2-14.9,3.4-26.4-6-40,8.2-14.5,1.8-27.3,3.2-40.1,10.8-9.6,1.3-20.5-5-29.7-1.1-4.3,15.2,51,29.3-2.8,37.6l.2-.2Z" fill="#e8f3e6"/>
      </g>
    </g>
  </g>
</svg>