<?xml version="1.0" encoding="UTF-8"?>
<svg xmlns="http://www.w3.org/2000/svg" version="1.1" xmlns:inkscape="http://www.inkscape.org/namespaces/inkscape" xmlns:sodipodi="http://sodipodi.sourceforge.net/DTD/sodipodi-0.dtd" xmlns:svg="http://www.w3.org/2000/svg" viewBox="0 0 335.2 568.8">
  <defs>
    <style>
      .cls-1 {
        fill: #bfe9bf;
      }
    </style>
  </defs>
  <!-- Generator: Adobe Illustrator 28.7.8, SVG Export Plug-In . SVG Version: 1.2.0 Build 200)  -->
  <g>
    <g id="svg1" inkscape:version="1.4.2 (f4327f4, 2025-05-13)">
      <sodipodi:namedview id="namedview1" bordercolor="#000000" borderopacity="0.25" inkscape:current-layer="layer1" inkscape:cx="316.5226" inkscape:cy="174.33091" inkscape:deskcolor="#d1d1d1" inkscape:document-units="mm" inkscape:pagecheckerboard="0" inkscape:pageopacity="0.0" inkscape:showpageshadow="2" inkscape:window-height="1017" inkscape:window-maximized="1" inkscape:window-width="1920" inkscape:window-x="1912" inkscape:window-y="-8" inkscape:zoom="0.51339147" pagecolor="#ffffff"/>
      <g id="layer1" inkscape:groupmode="layer" inkscape:label="РЎР»РѕР№ 1">
        <path id="path98" class="cls-1" d="M203.5,558.3c-27.3-10.4-114.6,8.5-160.5,4.4C10.7,390.4-8.4,167,15.4,4.7c2.4-17.8,66.4,46,91.2,58.7,15.5,7.9-19.1,1.8-19.4,45.9-.3,42.3-5,49.8,6.6,74.7,5.4,11.6,20.3,19.6,37.2,17.1,61.6-15.7,169.4,65,171.2,96.3,11.2,38.3,64.2,84.6.6,113.1-11.5,1.7-26.6,60.4-43,55.5-19.4-11.8-19.6,134.8-56.2,92.4Z" sodipodi:nodetypes="ssscssssssssssssssssss"/>
      </g>
      <sodipodi:namedview id="namedview1" bordercolor="#000000" borderopacity="0.25" inkscape:current-layer="layer1" inkscape:cx="-73.043676" inkscape:cy="73.043676" inkscape:deskcolor="#d1d1d1" inkscape:document-units="mm" inkscape:pagecheckerboard="0" inkscape:pageopacity="0.0" inkscape:showpageshadow="2" inkscape:window-height="1017" inkscape:window-maximized="1" inkscape:window-width="1920" inkscape:window-x="1912" inkscape:window-y="-8" inkscape:zoom="0.51339147" pagecolor="#ffffff"/>
    </g>
  </g>
</svg>