<?xml version="1.0" encoding="UTF-8"?>
<svg xmlns="http://www.w3.org/2000/svg" version="1.1" xmlns:inkscape="http://www.inkscape.org/namespaces/inkscape" xmlns:sodipodi="http://sodipodi.sourceforge.net/DTD/sodipodi-0.dtd" xmlns:svg="http://www.w3.org/2000/svg" viewBox="0 0 955.6 1054.3">
  <defs>
    <style>
      .cls-1 {
        fill: #e1f4dd;
      }
    </style>
  </defs>
  <!-- Generator: Adobe Illustrator 28.7.8, SVG Export Plug-In . SVG Version: 1.2.0 Build 200)  -->
  <g>
    <g id="_Слой_1" data-name="Слой_1">
      <g id="svg1" inkscape:version="1.4.2 (f4327f4, 2025-05-13)">
        <sodipodi:namedview id="namedview1" bordercolor="#000000" borderopacity="0.25" inkscape:current-layer="layer1" inkscape:cx="671.02791" inkscape:cy="723.61935" inkscape:deskcolor="#d1d1d1" inkscape:document-units="mm" inkscape:pagecheckerboard="0" inkscape:pageopacity="0.0" inkscape:showpageshadow="2" inkscape:window-height="1017" inkscape:window-maximized="1" inkscape:window-width="1920" inkscape:window-x="1912" inkscape:window-y="-8" inkscape:zoom="0.51339147" pagecolor="#ffffff"/>
        <g id="layer1" inkscape:groupmode="layer" inkscape:label="Р РЋР В»Р С•Р в„– 1">
          <path id="path93" class="cls-1" d="M72.2,1036c-38.8-33.9-96.4-10.1-57.7-99.7,20.7-127.1,78.9-161.4,127.9-216.5,3.6-17,3.9-17.1,9-3.7,18.1,43.9,83.5-84.9,68.9-108.4-1.9-83.2-59.8-44.9-25.9-71.8,0,0,14.9-13.3,14.9-13.3,20,44.4,85.9,27.6,100.9-13.1,0-10.7,18.2-22.1,23.3-14.6,60.5,44.4,292.7-201.6,285.8-257.9,20.1,1.9,38.5-48.9,59.1-57.6,58.7-10.4,13.7-64.4,61.3-69.1,71.2-20.9,54.5-71,121.8-108.6-32.1,81.5,147.7,126.7,65.9,158.5-8.5,4.1-17.7,3.4-33.5.2-22.2-9.2-8.5,98.1-35.3,110.9-1.7,23.6-27,40.2-36.8,60.2-10.7-3.3-25.9,18.1-33.1,32.8-11,54.9-32.7,142.6-65.3,182.9-.4,38.3-21.9,160.6-64.5,155.7-9.2-1.8-25.7,1.5-11.5,16.8,14.3,31.3-30.8,21-24.3,60.6,0,32-23.7-6.4-14.3,34.8-2.9,4.2-143.4,21.6-154.8,19.7-12.6,2.8-14.9-.2-19-25.1-8.3-30.2-19.3-21.5-44.2-24.5-57.9,6.4-42.9-27.6-95.6,12.7-47.2,40.3,40.1,131.5,84.7,135.3,25.2,3.1,38.5,12.5,7.5,28.1-28.2,14.3-55,45.4-73.6,68.2-13.3,18.8,10.7,30.2-42.8,18.1-39.4-17.9-165.2,26.1-198.8-11.6Z" sodipodi:nodetypes="sssssssssssscsssssssssssssssssssssssssssssssssssssssssscssssssssssssss"/>
        </g>
      </g>
    </g>
  </g>
</svg>