<?xml version="1.0" encoding="UTF-8"?>
<svg xmlns="http://www.w3.org/2000/svg" version="1.1" viewBox="0 0 1920 1080">
  <!-- Generator: Adobe Illustrator 28.7.8, SVG Export Plug-In . SVG Version: 1.2.0 Build 200)  -->
  <g>
    <g id="_Слой_1" data-name="Слой_1">
      <g>
        <path d="M800.3,738.8h-24c-.2-1-.5-2-.7-3-.8-.1-1.6-.2-2.3-.3v3.3h-12v-3.9c-1.1,1.3-1.8,1.9-2.4,2.6-.5-.8-1-1.5-1.4-2.2-.2,0-.5.1-.7.2v3.2h-6c-1.6-2,.8-3,1.5-5.1-1.2.7-1.9,1.2-2.5,1.6-.3-.4-.6-.7-1.3-1.5-.3,2-.5,3.5-.7,5h-237.7v-51.7c5.6-2,6.2-6.8,8.2-11.7,2.4-6,7-10.8,9.7-16.7,2.8-5.9,3.2-11.9,5.1-18,1.9-6.3,5.2-12.4,7.8-18.5-.3-5.8,1.2-16.9-4.4-20.5-4-2.6-9.2-4-13.5-5.9-4.3-1.8-8.6-3.6-12.9-5.5,0-16.8,0-33.5,0-50.2,5.1,4.4,9.6,8.6,16.1,10.8,3.5,1.2,7.1,2.5,10.6,3.9,2.7,1.1,5.5,2.8,8.6,2.5,2.6-1.8,4.4-3.2,6.4-4.6-1.6-5-6-10-8.8-14.5-2.7-4.3-5.4-8.8-8.7-12.6-3.4-3.9-7-5.1-11.4-7.4-4.5-2.4-8.6-6.5-12.7-9.6,0-6,0-12,0-18,4.6,1.4,8.9,3.7,14.4,3.7.6-1.8,1.1-3.5,1.6-5.1-5.9-4.3-10.8-9.2-16-14.4,0-3.5,0-7,0-10.5,5,4.7,9.9,9.5,14.9,14.2,1.2,1,2.5,2.1,3.7,3.1,0,2.7,2,3.9,3.8,5.1,5.1,3.2,9.4,7.1,12.6,12.3,2.6,4.3,7.7,5.2,12.2,6.8l4.4,2.7v.8c2.6,4,4.6,7.1,9.3,8.8,4.6,1.7,9.8,2,14.5,3.1-4.3-5.2-10.8-2.9-16.3-5.7,1.9-1.1,3.1-1.8,4.3-2.5,0,.2,0,.4,0,.7,3.7.6,7.5,1.1,11.2,1.7,4,4.4,8,8.7,12,13.1,2.6,6.6,5.2,13.2,7.8,19.9-1.8.9-3.1,1.6-3.9,2-3.1,6.3-6.1,12.2-8.9,17.8,1.5,4.2,2.9,8.5,4.4,12.7,1.2,3.4,1.8,7.2,4.7,9.4,6.4,4.7,14,7.2,21.5,9.3-2.4-7.9-7.9-12.5-11.9-18.1-3.3,4.2-5.6-.5-7.5-3.4-2.6-3.9-5.1-8-7.7-11.9,3.4-3.6,7.2-6.7,12.4-9,7.8,12.2,12.6,25.8,20,38.4,1.8-.6,3.5-1.1,5.5-1.7.5,1.1.9,2.1,1.4,3.1-1.6.9-3,1.7-4.7,2.7,1.5,2.5,2.8,4.7,4.1,7h8.8c1.8,2.4,3.6,4.8,5.2,6.9-.5,1.4-.8,2.3-1.2,3.5,2.6-.7,4.5-1.6,5.8-4,1.4-2.6,1.2-4.9,4.5-5.8,1,.4,2.1.9,3.4,1.4,1.7-1.4,3.3-2.7,4.9-4-.2-.1-.4-.3-.6-.4,1.1-3.2,2.1-6.4,3.3-9.9q-2-6.1-.8-7.1c1.8,2.6,3.6,5.1,5.5,7.8,1.6-.7,2.6-1.1,4.1-1.8-1.4-3.9-2.7-7.5-4.1-11.6,1.5-1.2,3-2.4,4.5-3.6,2.5,1.1,4.9,1.4,7.9-.5-2.1-2.8-3.9-5.4-5.5-8.5,1-.4,2-.9,2.9-1.3,1.4,1,2.6,1.8,4.1,2.8,2.8-.8,5.8-1.5,8.8-2.3h6.1c1.3,5,2.5,10,3.8,15.4,4.1-1.8,7.7-3.4,10.9-4.8,2.2-3.3,4.2-6.5,6-9.9.1,0,.8-.3,1.5-.6.4.4.8.8,1.7,1.6,2.6-5.6,3.7-11.5,5.2-17.4,2.6-6.1,5-12.2,7.3-18.4,2.3-5.9,5.8-9.3,10-13.8,5.7-3.2,11.6-6.1,17.2-9.6,2.1-1.3,3.5-3.6,5.2-5.5,2.5-4.5,5-9,7.5-13.5.9-.2,1.8-.4,2.6-.6-.2-1.7-.3-3-.5-4.4,7.5-7.4,13.9-15.2,23.8-19.3,9.6-4,19.8-7.2,28.7-12.6-.1-.3-.2-.5-.3-.8,3.6-.9,7.2-2.2,10.9-2.7,3-.5,6.3.2,8.9-1.8,3.4-1.6,7.5-3.5,10.1-6.4,3-3.3,3.4-9.3,4.5-13.5-.6-.7-1.1-1.4-1.7-2.2,2.3-2.3,1.3-4.7.6-7.1.3-.2.5-.4.8-.7,2.6-2.6,4.2-6.2,8-7.1,8.5-16.4,30.8-21.4,46.8-26.9,3.3-.7,6.5-1.4,9.8-2.1,8.1.3,16.3-1.9,23.7.8,2.1,2.8,3.8,5,5.9,7.8,3.1-8.9,2.6-15.8,1-24.9-.7-4.2,0-8.1-.9-12.3-.9-4.5-2.3-8.9-2.7-13.4,124.7,0,249.5,0,374.2,0-2.5,1.5-5,3-7.5,4.5,0,0,0,0,0,0-6.2,2.9-12.1,6.9-18.7,9-5.5,1.7-11,1.6-16.2,4.4-5.5,3-7.9,7.4-11.7,12-3.8,4.5-9.8,5.6-11.6,11.9-5.2,3.3-9.1,5.7-13.1,10.5-3.7,4.3-7.2,8.7-11.1,12.8-7.3,7.9-14.6,16-24.3,20.9-7.4,3.8-18.8,5.6-23.5,12.9-4.9,7.5-9.1,12.2-17.3,16.1-9,4.2-17,10.9-25,16.7-4.1,2.9-8.3,6-13,8-2.2.9-4.4,1.1-6.6,1.8-1.9.6-3,1.8-4.5,3-3.8,3.1-8.2,4.2-12.5,6.2-4.3,2-6,5.2-8.5,9.1-4.3,6.7-13.3,12-14.8,20.1-.9,4.7-.3,9.6-1,14.3-.7,5.2-2.7,9.6-4.9,14.3-1.4,3-3.5,6.9-2.5,10.3.8,2.8,4.4,3.7,4.9,6.2-2.7-.3-5.3-.5-7.6-.7-6,3.6-4.3,13.6-4.7,19.5-9.2,3.5-18.5,7.2-28.3,3.4-5.9-2.4-16.9-6.5-13.9-14.8-1-4.8-10-5.9-13.8-7.2-6.5-2.2-13-3.8-19.8-5-7-1.2-14.1-2.2-21.2-3-7-.8-10.5.8-15.4,5.4-4.6-.8-9.6-1.7-14.3-2.5-.9-2.5-1.6-4.3-2.4-6.5-.2,1.8-.4,3.2-.6,5.3-5.1-1.7-9.9-3.3-15.2-5-24.3,4.9-49.2,8.3-74.7,5.5-1.2-.5-2.5-1-3.7-1.6-6.8,4.7-15.1,4.4-23,5.3-4.1,1-8,2.8-12.2,3.4-4.2.7-8.4,1-12.5,1.7l-6.7,1.4c-3.2-.8-6.3-.7-9.6-.7,0-.3,0-.5,0-.8-1.5.7-3.1,1.4-4.8,2.2-.9-.6-1.8-1.2-2.4-1.6-5.7,1-11.3,2.1-16.9,3.2-3,1.3-5.9,2.7-8.9,4,0,.1.1.2.2.4-1.3.1-2.7.2-4.1.4-2.5,3.5-5,6.9-7.5,10.3-1.4.2-2.9.4-4.1.6-1.1-.9-1.9-1.6-2.9-2.4-3.5,1.9-6.9,3.8-10.4,5.7-.4,1-.7,2-1.1,3.1h-2.6c.1.2.3.4.4.6-2.1,1.8-4.2,3.6-6.1,5.2-1.7.7-3.2,1.4-4.7,2-2.7.6-5.7,2-8.1,1.5-4.2-.9-7.4,0-10.6,2.4-1.4.9-2.8,1.8-4.2,2.7-2.3,1.4-4.7,2.6-5.4,5.6-1,.9-2,1.8-2.9,2.7-.8.8-1.6,1.7-2.3,2.6-2.4,2.6-6.1,3.2-8.9,5.6-2.9,2.4-5.3,5.4-8.3,7.7-.5.2-1.7.5-2.8.9-.6,1.1-1.2,2.1-1.7,3-3.8,1.3-7.4,2.5-11.8,4-.3.4-1.2,1.5-1.5,1.9-3.9,1.8-7.1,3.4-10.4,4.9.2.3.4.6.7.9-1.8,1.6-3.1,3.5-5.3,4.7-2.7,1.4-5.8,2.3-8.5,3.6-5,2.4-9.7,5.2-14.3,8.3-9.5,6.4-15.1,17-21.2,26.5-5.7,8.9-13.6,18.2-22.5,24-4.1,2.7-8.8,4.4-13.5,6-3.9,1.4-8.9,2.2-10.7,6.6.8.6,1.4,1.1,1.6,1.2,12.6-4.8,25.2-9,37.3-14.9,11.9-5.8,23.6-11.9,35.2-18.2,23.8-12.9,46.6-27.7,70.8-39.8,21.1-10.6,42.5-20.1,64.7-28.1,23.5-8.4,47.5-14.2,71.8-19.4,23.4-5,47.1-8.3,70.8-11.3,23.7-3,47.8-7.1,71.7-6.1,24.3,1,49.3,1.5,72.7,9,21.1,6.8,42.1,16.1,58.5,31.4,8.2,7.7,14.9,16.6,22,25.3,2.1,2.6,4.2,5.3,6.5,7.8,1.9,2.1,4.3,3.5,6.3,5.5,4,4,7.3,9.1,10.8,13.5,7.3,9.3,14.2,19,21.4,28.3,7,9,15.1,16.8,22.8,25.1h-380.2v-2.7c-.7-.1-1.2-.3-1.7-.4-.4,1-.8,2-1.3,3ZM546.8,700.6c3.2-1.7,6.5-3.4,9.5-4.9v-5.9c-3.8-1.3-6.6.2-9.4,1.9-3.6,2.2-4.1,7.4-1,10,.3-.3.6-.7.9-1ZM1055.8,476.6c-4.5-6.6,2.3-15.3,5.8-20.9,4.1-6.6,9.7-11.7,14.3-17.9-.2-.2-.4-.4-.7-.6-7.9,1.4-10.1,12-15.2,17.4-2.5-1.1-4.6-1.9-6.6-2.8-.1.2-.2.3-.4.5-1-1.3-1.9-2.5-2.9-3.8-.3,0-.6.2-1,.3-1.1,3.9-1.7,8-5.5,10.1-4.2,2.2-7.7,1.1-12.1,1-4.5,0-8.2,2.3-12.2,4.3-4.1,2-8.3,3.9-12.5,5.9-5.4-4.2-7.6,2.6-11.4,4-4.6-.7-6.5,1.5-8.3,5.4-1.9,4.1-4.5,7.9-7.7,11.1-3.5,3.4-7.1,5.4-9.9,9.5-2.4,3.4-6.2,5.9-9.3,8.6,3,1.9,4.5.1,6.1-1.6,1.5.5,3,1,4.5,1.5.9-.6,1.8-1.3,2.5-1.9h4.8c.5,1.8,1,3.6,1.5,5.6-1.8,1.3-3.3,2.4-4.7,3.4,0-.3-.2-.7-.3-1-11.8,0-23.1,0-34.6-2.9-10.6-2.7-21-6.2-31.5-9.1-10.7-2.9-21.3-4.4-32.2-6.1-10.2-1.6-20.2-4.7-30.4-5.8,1.1,4.8,5.3,4.8,9.4,5.8,4.8,1.1,10,1.5,14.7,3,4.6,1.5,8.7,4.4,13.1,6.4,4.6,2.1,9.4,3.6,14.2,5,5.1,1.5,10.3,3,15.4,4.6,4.3,1.3,9.6,2.2,13.4,4.8,3.1,2.2,4.6,5.3,5.3,8.9.9,4.6,2.4,7.4,5.1,11.1.9.1,2.4.4,4,.7,3.2-7.2,14.5-8.3,21.3-9.7,9.1-1.9,17.7-4.5,26.6-7.4,8.9-2.9,17.4-6,25.9-9.9,7.1-3.2,14.9-4.2,17.6-12.6-1.6-5.9,0-8.6,5.8-10.1,8.4-2.1,16.4-3.3,24.4-7.1.2-1.9.5-3.8.7-5.9-2.5-.5-4.4-.9-6.9-1.5ZM571.4,559.9l.7-1.2c-2.4-5.6-7-8.8-10.2-13.8-3.7-5.8-7.8-11.2-11.9-16.7-6.2-8.3-16-25.8-29.1-21.3,3.7,6.5,11.3,10.2,16.7,15.2,4.3,3.9,5.1,9.3,8.1,14,1.6,2.5,3.9,4.1,5.8,6.4,1.7,2.1,2.7,4.5,4.6,6.5,4.6,4.9,9.3,8.1,15.2,10.9ZM579.6,585.8c-.5-7.5-7.6-12.6-12.6-17.4-4.5-4.3-11.1-14-18.2-12.1-.4,1.2-.8,2.3-1.2,3.5,3.1,3.3,6.1,6.7,9.1,10,2.5,2.7,5.3,3.6,8.1,5.6,5.7,4,5.4,13,14.7,10.4ZM594.2,553.6c5.5-5.4,5-11.2.8-17.4-3.3-4.9-11.3-12.1-17.8-10,1.3,5,6.9,8.8,10.1,12.7,3.7,4.7,4.8,9.3,6.9,14.7ZM619.4,603.2c-.7,1.2-1.5,2.6-2.1,3.6,2.3,7.4,12.9,7.3,19.1,8.6,3.7-3.2-3.9-7.3-6.1-8.9-3.4-2.6-6.6-3.9-11-3.3ZM618.6,615.3c-3.7,6.3,4.1,11.2,9.6,9.4.2-1.1.4-2.1.6-3.4,2.1-.5,4.5-.7,4-3.7-2.9-3.8-5.3-3.2-14.1-2.3ZM584.9,604.5c.3-.2.7-.4,1-.6-1.2-3-2.4-6-3.8-9.4-2.4-.2-4.8-.3-7-.4-3,5.7-1.1,13.1,3.3,15.1.6-2,1.3-4,1.9-6.1,1.9.6,3.2,1.1,4.5,1.5ZM564.4,591.3c1.5.5,4.9,2.3,6.3,1.7-1.3-5.5-3.4-7.4-7.6-6.4.4,1.5.8,3,1.3,4.7ZM585.2,548.2c-.4,4.7,2.3,7.5,4.1,11.4,1.7-5.5.6-8.5-4.1-11.4ZM1072.9,581.2c.8-3.7-5-5.9-5.7-1.9,1.8.6,3.6,1.2,5.7,1.9Z" fill="#9ed4f1"/>
        <path d="M830.2,564.8c8-.9,16.2-.6,23-5.3,1.2.5,2.5,1,3.7,1.6,25.4,2.8,50.4-.6,74.7-5.5,5.3,1.8,10.1,3.3,15.2,5,.2-2.1.4-3.5.6-5.3.8,2.2,1.5,4,2.4,6.5,4.7.8,9.7,1.7,14.3,2.5,4.9-4.6,8.4-6.2,15.4-5.4,7.1.8,14.2,1.8,21.2,3,6.8,1.2,13.3,2.8,19.8,5,3.8,1.3,12.7,2.4,13.8,7.2-3.1,8.3,7.9,12.4,13.9,14.8,9.7,3.9,19.1.1,28.3-3.4.3-5.9-1.4-16,4.7-19.5,2.3.2,4.9.5,7.6.7-.5-2.5-4-3.5-4.9-6.2-1-3.4,1.1-7.3,2.5-10.3,2.1-4.7,4.1-9.1,4.9-14.3.7-4.7.1-9.6,1-14.3,1.5-8.1,10.5-13.4,14.8-20.1,2.5-3.8,4.1-7,8.5-9.1,4.3-2,8.7-3.1,12.5-6.2,1.5-1.2,2.6-2.4,4.5-3,2.2-.7,4.4-.9,6.6-1.8,4.7-2,8.9-5.1,13-8,8.1-5.8,16-12.5,25-16.7,8.3-3.9,12.5-8.6,17.3-16.1,4.7-7.3,16.1-9.2,23.5-12.9,9.7-4.9,17-13,24.3-20.9,3.8-4.2,7.4-8.5,11.1-12.8,4-4.7,7.9-7.2,13.1-10.5,1.8-6.3,7.8-7.4,11.6-11.9,3.8-4.6,6.2-9,11.7-12,5.2-2.8,10.7-2.7,16.2-4.4,6.6-2,12.5-6,18.7-9-1,.9-2,1.8-3,2.8,0,2.7-.3,4.5-1.3,7.1.5,11.5,6.8,20,13.4,28.1h5.8c.5-2,1-3.9,1.5-5.8,1,0,2,.2,2.4.2-2.8-7.9-1.7-17-1.7-25.4-.2,0-.5,0-.7,0,0,6.9.5,13.9-.7,20.6-3.4-5.8-3.9-13.3-10.7-17.3v-10.4c-1.9,0-3.5,0-5.1,0,2.5-1.5,5-3,7.5-4.5,8.2,0,16.5,0,24.7,0-.7,2.7-1.3,5.5-2.3,9.5,1,3.8,2.4,8.7,3.8,13.8h12.2c1.7,1.4,3,2.6,4.4,3.7,0,.2,0,.5,0,.7-1,.3-2,.6-2.7.8-1.1,4,1,6.4,2.6,9-4.2-1.3-8.4-2.6-12.4-3.9-.3-1.4-.4-2.4-.5-2.9-.9,2.6-1.9,5.5-2.8,8.3-.9-.2-1.8-.4-2.7-.6-.2-1.9-.4-3.5-.5-5.1h-.4c-.1,1.5-.3,3-.4,4.6-.8,0-1.5.1-2.3.2,0-1.8.2-3.4.3-4.9-.1,0-.2,0-.4,0-.4,1.3-.7,2.5-1.1,3.9-1.1.3-2,.6-2.9.8,3.1,0,3.1,2.9,4.1,5.1.3-1.4.5-2.5.9-4.4,2.8,3.3,2.4,5.1,2.4,9.5-2.8.6-.8,8.3-.6,10.3-.6.3-1.6,1.6-1.6,1.8-1,2.5-1.9,5.1-2.9,7.6-.2,0-.5-.2-.7-.3-.1-.9-.3-1.8-.4-2.8h-.7c.6,3.6,1.2,7.1,1.8,10.7-2.1.4-3.5.8-5.4,1.8,1.1,8.4,2.1,16.8,3.2,25.4,2.2,0,3.7.2,5.1.2,1,7.5,2.4,15.1,2,22.6-.4,7.2-1.8,14.5-2.7,21.6-1-.9-2-1.8-2.4-2.2-.6-3.3-1.1-5.8-1.6-8.1h-5.4c-4.5,6.1-3,13-1.7,19.8,1.4,7.5,1.8,15.2,2.9,22.8h5.8c-.5,3.2-1,6.4-1.5,9.3-10.9-.5-21-.9-31.1-1.4,0,.2,0,.4,0,.6,10.2.6,20.4,1.2,31.3,1.9-.4,3.6-.7,6.6-1,9.6-3-.1-2.4,3.1-3.9,4.3-1.3.3-2.5.5-4.4.9.4,5.6.5,11,.2,16.6-.6.8-1.5,2-2.7,3.6-2.5-2-4.6-3.8-7.2-5.8h-6.1c-1.4-1.1-2.4-2-3.3-2.7h-7.5c-1.7,1.6-3.3,3-5,4.5.4,6.4,1.9,13.3,1.7,19.7-.1,5.5-5.4,11.2-8.8,15.2-3.6,4.4-6.2,9.3-6.4,15.2-.1,5.1-.3,11.4,2.7,15.7-.9,1.4-1.7,2.4-2.4,3.5-9.6-4.7-7.5-20.1-7.5-28.7-5.6-3.4-6.8-10-9.2-16.1,3.9-14.9,7.5-28.3,6.5-43.9-.5-7.5-1.2-15-.2-22.4,1.1-7.7,3.5-14,.7-21.7-6-3-11.9-6.2-18-9-5.4-2.5-9.8-4.8-13.8-9.3-.4-4.7-.9-9.4-1.2-14.1-.2-3.6,0-7.4-3.1-10h-6.7c-1.4,2.2-2.9,4.3-4.3,6.4-1.4.5-2.7,1-4,1.5-5.4,4.9-6.4,13-12,17.5-5.2-1-5.5-5.8-7.4-8.8-4-.6-7.4-.5-9.9,3.4-.1,6.6-3.5,11.2-10.3,12.4-.8,2.2-1.3,4.5-2.4,6.6-.9,1.7-2.2,3.1-2.7,5-.9,3.7.6,7.1,2,10.5h7.7c.8-1.3,1.5-2.4,2.3-3.8,1.3.6,2.4,1.1,3.8,1.7,0,3.3-.5,7.5,2.2,10,1.3,1.2,3.1,1.6,4.5,2.8,1.6,1.4,2.8,3.6,4.1,5.3,4.9,6.9,10.5,15.5,19.5,17.4.4,1.6.8,2.8.9,3.3-2,6.4-7.3,7.4-12.1,9.1-1.5,8.5,4.3,14.4,9.8,19.6,4.3,4.1,9.9,8.6,15.8,9.7,3.5.7,7.3.6,10.2,2.9,2.8,2.2,3.1,5.6,4.7,8.6,1.7,3.3,5.3,5.5,6.6,9,1.6,4.1,0,9.9-.2,14.2-.4,2.6-.8,5.2-1.2,8.2-5.8-.3-11.6-.9-17.4-1.5.6-2.4,1.2-4.7,1.9-7.1,2.6-.3,4.7-.5,6.8-.7v-8.7c-2.3,1.4-3.9,2.4-5.5,3.4-16.1-1.4-29.6,3.4-39,16.7-2.8.1-5,.3-7.9.4.4,3.6.8,6.8,1.1,9.7,4.8.9,8.8,1.6,12,2.2,2.4,3.4,4.4,6.1,6.4,9,.6,7.3-6,17.9-14,21.8-1.7,2.5-3.5,5.2-5.5,8.3,4.4,7.7,6.3,13.8,7.5,22.6-.3.3-.9.9-1.5,1.4-4.3-1.6-8.4-1.5-12.2.4-2.2,8.5-2.3,14.9-.5,20.4.4,1.5.8,3,1.3,4.8-.3.7-.7,1.7-1.1,2.7.2,1.3.4,2.5.6,3.8h-20.2c-7.7-8.3-15.8-16.1-22.8-25.1-7.3-9.4-14.1-19-21.4-28.3-3.5-4.4-6.8-9.6-10.8-13.5-2-2-4.3-3.4-6.3-5.5-2.3-2.5-4.3-5.2-6.5-7.8-7.1-8.6-13.8-17.6-22-25.3-16.3-15.3-37.4-24.6-58.5-31.4-23.4-7.5-48.3-8-72.7-9-23.9-1-48,3.1-71.7,6.1-23.7,3-47.4,6.4-70.8,11.3-24.3,5.2-48.4,11-71.8,19.4-22.2,8-43.6,17.5-64.7,28.1-24.2,12.1-47,26.9-70.8,39.8-11.6,6.3-23.3,12.4-35.2,18.2-12.1,5.9-24.8,10.2-37.3,14.9-.1,0-.8-.6-1.6-1.2,1.8-4.3,6.8-5.2,10.7-6.6,4.7-1.6,9.3-3.3,13.5-6,9-5.8,16.8-15.1,22.5-24,6.1-9.5,11.7-20.2,21.2-26.5,4.6-3.1,9.3-5.9,14.3-8.3,2.8-1.3,5.8-2.2,8.5-3.6,2.2-1.1,3.5-3,5.3-4.7-.2-.3-.4-.6-.7-.9,3.2-1.5,6.5-3.1,10.4-4.9.3-.4,1.2-1.5,1.5-1.9,4.4-1.5,8-2.7,11.8-4,.5-.9,1.1-1.9,1.7-3,1.1-.3,2.3-.7,2.8-.9,3-2.3,5.4-5.3,8.3-7.7,2.9-2.3,6.5-3,8.9-5.6.3,1.8.5,3.7.8,5.5-1.7.4-2.8.7-4.1,1-1.4,3.1-2.1,6.8-6.4,7.6.9,2.1,1.5,3.6,2.2,5.3,5.4-1.6,10.4-3.2,15.8-4.8.1-2.2.3-4.3.5-6.9.8-1.5,2-3.5,3-5.2-1.2-2.5-2.4-4.8-3.6-7.3-1-.1-2-.2-2.9-.3.8-3,3.1-4.2,5.4-5.6,1.4-.9,2.8-1.8,4.2-2.7,1.7,1.4,3.5,2.7,5.7,4.5.4,1.3.9,3.1,1.4,4.7,5-2.5,10.2-5,15.5-7.6.4,1.6.7,3.2,1.1,4.7,3,1,5.4,1.8,7.3,2.4,3.8-1,7.1-1.8,10.4-2.6,1.3.2,2.6.4,3.7.6.9,1.3,1.6,2.6,2.6,4.1,7.1-2.1,14.6-3.6,21.5-6.3,2.9-1.2,4.5-3.1,7-4.8,2.4-1.7,5.4-2,8.2-2.5,14.6-2.3,28.8-6.9,43.4-9.6,0-.3-.1-.7-.2-1-8,1.6-16,3.2-23.9,4.8-.9-1.4-1.4-2.3-2.1-3.4-.2,1.3-.4,2.4-.7,4-2.4.5-4.9,1-7.2,1.4-.6-2-1-3.3-1.3-4.6-.2,0-.5.1-.7.2.2,1.5.4,3.1.7,4.7-3.5,2.5-7.4,2.3-11.1,2.6-.6-.9-1.1-1.6-1.6-2.3-.1-1.6-.2-3.2-.3-4.9,2.4-.7,4.7-1.3,7.1-2,0-.1,0-.3,0-.4h-3.1c-.5-1.2-.9-2.2-1.3-3.2,4.3-1.1,8.7-2.2,13.4-3.4-.4-1.3-.8-2.5-1.2-3.6-2.6-1-4.9-1.9-7.2-2.8,0,.2,0,.5-.1.7-2.4-.2-4.8-.5-7.1-.7,7.9-2.7,16.1-3.4,24.4-2.9-.3,1.4-.6,2.7-.7,3.6-2.5.4-4.6.8-6.8,1.2,0,.2,0,.3.1.5h6.9c.3.7.5,1.5.8,2.2,17.9-3,35.3-5.7,53.5-5.9,18.1-.2,36.3-.2,54.4-.2,18.4,0,36.9-.1,55.3.2,16.5.3,33.6.5,49.5,5.1,0-.4.2-.8.2-1.3-30.1-6-60.7-5.5-91.2-5.5-15.9,0-31.7,0-47.6,0-14.3,0-28.5,1.2-42.8,1.2v-8c0-2.2,0-4.5,0-6.7ZM871.5,589.5c-.6-1.2-1.3-2.4-2-3.7-14.9-3.5-29.3.7-44.1,2.7-.2,1.7-.4,3.1-.7,5.1,15.9-1.1,31.3-2.2,46.8-3.3,17.4-.9,34.9-1.3,52.3-2.2,3.8-.2,7.6-1.2,11.5-.8,3.2.3,5.7,1.9,8.9,1.1,7.6-1.7,15.3,1.1,22.7-1.1-2-1.8-8.4-.8-10.9-.8-3.7,0-7.4,0-11.2,0-8.1,0-16.2.1-24.4.5-16.3.6-32.7,1.8-49,2.5ZM1237.6,428.2c0,2,0,4.1,0,6.1.2,4.3-1.5,9.2,3.3,12.5h4.7c2-2.8,3.9-5.5,5.9-8.4,7.7,2.9,11.9,9.6,18.8,14,1.9-.4,4.4-.9,7.6-1.5-1.1-6-2.1-11.4-3-16.1,3.1-4.1,5.6-7.6,8.1-11,4.9,0,6.6,4.4,10,6.5h4.9c2.4-1.9,4.8-3.9,7.2-5.8,0-1.8-.2-3.4-.3-5-2.5-.2-4.5-.4-7.1-.6-.5-3.2-.9-6.2-1.4-9.6-11.5-5.8-23.5-14.9-36.8-9.5-5.6,2.2-10.3,7.2-12.9,12.6-1.4,2.9-2.4,5.9-4.4,8.6-2,2.8-3.5,3.9-4.6,7.3ZM1115.3,520.1c4.5-1.9,7.9-3.4,10.6-4.5,3.1,1.2,5.4,2.1,7.7,3,1.5-1.2,2.7-2.3,4.1-3.4.7.4,1.4.8,1.5.9-3.9,6.9-7.5,14.2-12.1,20.6-4.4,6.1-7.4,12.7-7.4,20.2,5.1,1.4,10.2,2.9,15.3,4.3,4.2,1.1,8.1,3,12.2.7,7.7-4.4,12.8-10.2,17.6-17.5-1.7-1.4-3.3-2.7-4.9-3.9.2-.3.4-.6.6-.9,1.3-.3,2.5-.5,4-.8.4-4.3.8-8.5,1.1-12.7-.4-.4-.9-.9-1.3-1.3l8-8.1c.4.4.8.8,1.2,1.2-1.2-3.3-2.4-6.7-3.7-10.4-10.9-7.1-19.2,4.3-29,6.7,7.1-6.4,15-12.5,21-20,2.7-3.4,5.1-7.2,7.3-11,2.3-3.9,3.5-6.3-.6-9.4-1.3.8-2.7,1.8-4.5,2.9,0-1.5-.2-2.9-.2-4.4,1.4,0,2.2-.1,3.3-.2-.3-1-.5-1.7-.9-2.9-1.6.8-2.9,1.4-4.3,2.1-.7,2.6-1.4,5.1-1.9,7.3-1.4,1.7-2.7,3.1-4,4.7-.9-.9-1.6-1.5-2-1.9,1-1.7,1.8-3,2.6-4.4l-.8-.8c-1.5.8-3.1,1.6-4.6,2.4.3,1.6.5,2.6.7,4-1.2-.8-2.1-1.4-3-2-3.4,1.5-6.7,3-9.9,4.4.2.3.4.5.6.8-4.8,4.4-10.5,7.6-12.9,14,.3,2.2.5,3.9.7,5.5-2.3.3-4.2.5-6.1.7-.9,1.1-1.6,2.1-2.5,3.1-1-.3-2-.6-3.8-1.2,1.1,1.6,1.6,2.4,2.5,3.7-2.4,2.3-4.7,4.5-7.4,7.1,0,1.5.2,3.5.3,5.8-.8,0-1.6,0-1.5,0-1.3,5-2.5,9.5-3.6,14,.3,0,.5.1.8.2,1-1.8,2.7-3.3,3.4-5.3.6-1.6.5-3.3,1.1-4.9,1.2-3.1,4-5.4,4.8-8.6ZM1274.8,392.5c5.2,4.7,10.8,3.2,17.2,2.4,5.4-.7,10.4-2.6,15.3-4.9,4.6-2.1,7.5-6.4,8.4-11.4.5-2.8,1.1-8,.2-10.7-.8-2.3-3.1-3-5.3-3.8-.7-1.5-1.3-2.8-1.8-3.9-4.7-1.2-9,.4-12.8,3.3-4.1,3.2-6.8,4.6-11.8,6.2-.7,1.3-1.2,2.4-1.7,3.5-1.7.1-3.3.3-4.9.4-4.7,5.8-2.1,12.5-2.9,18.8ZM1134.2,595.1c3.2,4.7,6.3,9.3,9.4,13.8,1.5,0,2.8,0,4.2,0,6.4-3.9,6.5-12.2,3.7-20-5-5.1-10.4-7.7-17.3-3.8v10.1ZM1217.4,455c8.1-5.5,10-13,8.5-21.7-7-1.5-12.7,3.5-14.3,11.5.6,4.1,1.1,7.1,1.6,10.2h4.2ZM1202.8,656v-12.1c-2.9-1.6-5.5-1.6-8.3.3-1.2,3.7-3.9,7.2-2.2,11.9h10.5ZM1189.3,453.2c.2.2.5.4.7.6,4.5-4.7,8.8-10.1,13.9-14.1,5.1-4,10.9-5,16.5-7.7-5.5.8-12.5,2.6-16.6,6.3-5.1,4.7-9.7,9.8-14.6,14.8ZM1311.6,555.9c.3.3.6.7.8,1h7.8c-2.2-2-3.8-3.5-5.8-5.4-1.1,1.8-2,3.1-2.8,4.4ZM1342.8,433.4c.3,0,.7,0,1,.1.4-3.2.8-6.4,1.2-9.4h-7.4c-2.1.7-4.9,1.7-7.7,2.8,0,.2.2.5.2.7,4.4-1.1,8.7-3.4,14-1.6-.5,2.5-.9,5-1.4,7.5ZM1306.2,397.5c-7.3-2.2-13.8,1.4-20.5,1.2,3.4,1.6,6.6-.4,9.9-.4,3.4-.1,6.8-.5,10.6-.7ZM1181.9,638.5c-8.1-1.7-15.5-.7-22.9-1,0,.3,0,.7,0,1h22.9ZM1105.1,566.9c3.2-4.7,5.5-9.7,5.4-15.8-1.9,5.5-3.7,10.6-5.4,15.8Z" fill="#f5f2e3"/>
        <path d="M957.8,342c.4,4.5,1.8,8.9,2.7,13.4.9,4.2.2,8.2.9,12.3,1.6,9.1,2.1,16-1,24.9-2.2-2.9-3.8-5.1-5.9-7.8-7.3-2.7-15.6-.4-23.7-.8,6.6-1.3,12.6-1.5,19.3-1.5-1.4-.7-2.2-1.1-3.7-1.9,2.3-.2,3.8-.4,5.8-.6-10.9-2.6-20.4,1.9-30.2,3.1-2-1.2-1.1-2.8-.8-4.3,1-1.5,2-3,3-4.5,1-.9,2-1.8,3.1-2.8-1.3-.2-2.4-.4-3.6-.6-.3-1.8-.5-3.5-.8-5.3.8-.1,1.3-.2,1.9-.3,1-.3,2-.7,3.4-1.1-1.4-.4-2.3-.7-3.1-1v-6.5c1.9-.3,3.5-.6,5.4-.9v-8.5c-4.1.5-7.9,1-11.6,1.5,0-.5-.1-.9-.1-.9-4.5,2.5-9.2,3.4-14.2,4.7-8.1,1.4-16.3,2.3-24.2,4.9,0,.3.1.5.2.8,4.8-.9,9.6-1.9,14.4-2.8,1,5.1,1.9,9.7,2.9,14.3-.4-.2-.9-.5-1.3-.7-4.5-2.2-8.6.6-13,.7,0,.4,0,.7,0,1.1,3.5-.3,7-.6,10.5-.9,1.3,3-9.3,3.7-11.3,4.2-5.7,1.2-11.4,2.3-17.2,3.5-1-1.6-1.9-3.2-2.9-4.8-5.2,2-11.3,1.1-14.7,6.8-.3-.2-.5-.4-.8-.5-.1-1.5-.3-3-.4-4.1,1.2-1.5,2-2.5,2.8-3.5-.3-.2-.6-.4-.9-.6-1.3,2-2.6,4-3.6,5.6.7,1.8,1.1,2.8,1.5,3.9-6.1,7.4-14.1,9.2-22.9,12.2-4.5,1.6-9,3.2-13.6,4.8-3.7,1.3-8.4,2.1-10.4,5.9,9-4.3,18.5-7.5,27.9-10.8,4.3-1.5,9.1-2.7,13.1-5.1,3.6-2.2,6.2-5.8,8.9-8.9,1.2,1.7,1.9,2.7,2.6,3.7h14.2c.4-1.5.7-2.8,1.1-4.1,8.6-1.4,17.1-2.9,25.7-4.6,1.1.5,2.2,1,3.2,1.4-.1.8-.2,1.4-.4,2.8,3.4-3.9,6.7-2.5,10-1.3h6.3c.3.4.7.9,1.2,1.5.1,2.9.3,5.9.4,8.9.7-.2,1.6-.5,2.3-.7-1.1-2.7-1.9-5.4-2.7-8.2.1-.7.3-1.3.4-2,.7-.1,1.3-.2,1.9-.3,1.3.8,2.5,1.7,3.5,2.3v6.8c.3-.3.6-.7.9-1,.3.8.5,1.6.8,2.3-15.9,5.5-38.2,10.5-46.8,26.9-3.7.8-5.4,4.5-8,7.1-.8-.4-1.7-.9-1.7-.9.6-2.5,1.2-4.6,1.7-6.7,1.1-3.1,2.2-6.2,3.4-9.4-.3,0-.5,0-.8,0-.8-1.2-1.7-2.3-2.7-3.8-1.3,2.4-2.6,4.7-3.9,7.2,1.1,2.1,2.2,4,3.2,5.9-.5.2-.9.5-1.4.7-1.5-.8-2.9-1.6-4.3-2.4-2.1,1.5-3.8,2.7-5.5,3.9-7.7,4.1-15.6,2.6-23.6.7-1.1.7-2.1,1.4-3,2.1-1.2,0-2.3-.2-3.4-.3v.8c5.9.6,11.8-.2,17.7.1,3.6.2,10.2-.2,12.3-3.5,1.9-.6,3.7-1.2,6.3-2.1.6.1,2,.4,3.4.6.3.8.5,1.6.7,2.2-1.2,1.5-2.2,2.8-3.5,4.6,1.7.3,2.6.5,3.5.7-.5,4-.9,8-1.5,12-.4,3-1,5.9-1.5,8.9-.1-1.1-.2-2.2-.3-3.3h-8c-1.1,1.3-2.5,3.1-4.1,5q-2.5,1.1-2.9,3.3h5.5c0-.2-.2-.5-.2-.7,1.8-.7,3.7-1.3,5.5-2-.8.9-1.4,2.1-2.4,2.5-2.6,1.1-5.4,1.8-8.1,2.6-2.1,0-4.1,0-6.2,0,0-.6,0-1.2,0-1-2.1-1.1-3.6-2-5.2-2.8,0-.1.2-.3.2-.4-1.1,0-2.1.1-3.1.2-.8-1.5-1.4-2.8-2.3-4.5-7,1.6-14,3.6-21.2,4.4-3.8.4-15.1-1-17.5,2.2.7.4,1.3.7,1.8.9-.6.4-1.2.8-1.7,1.3.1.3.2.7.3,1,8.4-1.1,16.7-2.1,25.1-3.2,0-.3,0-.5,0-.8,3.2.5,6.4,1.1,9.6,1.6,0-.1,0-.2,0-.4h5.9c0,1.5-.1,2.9-.2,4.3-7.4,3-14.4,5.8-21.5,8.7,2-3.4,4-6.7,6.2-10.5-1.4.6-2.5,1.1-3.5,1.6-.6,1.3-1.2,2.4-1.7,3.5-2.2,1.2-4.4,2.3-6.9,3.6-2-1.7-4-3.4-5.8-4.9-.8,1.5-1.6,3.1-2.7,5.1,2.8,1.1,5.6,2.1,8.3,3.2-3,5.2-11.9,8.3-17.1,11.3-2.5,4.9-5.5,7.9-9.6,9.8-1.7-1.8-3.2-3.4-4.5-4.8,1.6-5.6,3.3-10.9,5.6-16.3,1.9,2.1,3.8,4.1,5.5,6,3.7-1.7,8-1.1,9.5-6.2-3.4-1.9-6.9-3.9-10.3-5.8h-3c1.4-9.5,4.8-19.3,7.5-28.6,5,1.2,10,2.5,14.9,3.7,0-.2.1-.5.2-.7-7.3-2.5-14.7-5-22-7.4-6.6-2.2-13.6-4.5-20.1-.8-2.1.1-4.1.3-6.7.4.4-2.6.4-7.8,1.9-10.1,1.4-2.1,3.8-1.6,5.9-2.3,5.6-1.9,9.1-9.3,15.4-9,3.7,1.8,6.6-1.6,10.1-1.4.4-1.7.8-3.2,1.3-4.9.6,1.1,1.1,1.8,1.9,3.2,1.5-1.9,2.7-3.5,3.9-5.1,1.7-1.8,3.4-3.6,5.4-5.9.9-.3,2.5-.8,3.8-1.2.4-1,.7-1.8,1-2.5,1.4-.3,2.5-.5,4.6-.9-2.7-4.6-6.9-7.9-6.3-12.4-3-1.9-5.3-3.2-7.9-4.8h-4.5c-1.9,2.7-3.9,5.5-5.9,8.5-6.6,1.2-8,9.1-8.1,14.5,2.5.4,4.9.8,7.1,1.2-7.7,6.1-15.5,12.3-23.8,18.8-.4,0-1.6-.3-2.8-.5-.3-.3-.6-.5-1-.8-1.3,1.6-2.6,3.2-4,5-9.3,2-17.7,4.1-25.8,9.3-4.5,1.6-9,3.2-13.4,4.7,0,.2.1.4.2.6,3.8-1.1,7.6-2.3,11.6-3.5.1,1.7.2,2.8.3,4,.2,0,.3,0,.5,0,0-.7,0-1.4.1-2.1,7.2-5.8,16.5-6.8,24.7-10.3,4.4,1.9-4.7,21.3-6.3,24.7-1.5-1-2.5-1.7-3.4-2.3-2.6,0-5.2-.8-6.7,2.2-3.9.9-7.8,1.2-12,.5-1.7,3.1.4,6.2,1.3,9.3,1.1.6,2,1,2.5,1.3,7-1.4,14-2.3,21-3.6,4.5.6,8.6-1.2,13.2-1.1,5,.1,10,.5,15,.7,3.6,1.9,2.3,5.3,1.4,8.3-1.2,4-2.2,8-3.3,12.1-2.5,8.8-5,17.7-7.5,26.5-8.6,1.5-17.1,3-26,4.5-.2-2.3-.3-4.1-.5-5.9-.2,0-.4,0-.6,0v5.8c-3.1.5-6.1,2.1-9.4,1.1-.3-2.1-.6-3.9-1-6.1,2-.6,4-1.2,5.9-1.8.8-.5,1.5-1.1,2.5-1.8-2.6-3.9-5.1-7.5-7.5-11.1l.6-.5c.3-.9.7-1.9.9-2.6-2.5-7.2-4.9-14.2-7.2-20.9-8.9-6-3.9-18.1-2-26.3-5.9,1.4-10.9,2.6-15.7,3.8-1.3-.8-2.3-1.4-3.6-2.1-.7,1.4-1.3,2.6-2.1,4.4-2-.3-4.1-.6-7.1-1.1-.5.6-1.5,1.9-2.9,3.6-2.3.5-5.2,1.2-8.4,1.9-.9-.3-2-.7-3.2-1.2-.4,1.3-.7,2.5-.9,3.5-3.6,1.7-6.9,3.4-10.4,5.1-.9-.6-1.9-1.3-3.5-2.3-1.2,1.7-2.2,3.2-3.4,5-1.7.9-3.8,2-6,3.2-.7-.5-1.6-1.2-2.5-1.9-.9.1-1.7.3-2.6.4.1-.5.2-.9.3-1.3,2.3-1.2,4.6-2.3,7-3.5,21.4-10.8,42.9-21.7,64.3-32.5.6,2,1.2,3.9,1.8,5.9,7.4-.9,8.9-6.7,10.8-12.2,4.1.7,10.6,2.8,13.7-1.2,2.3-.4,4.7-.7,7.1-1.1q-1-3.3-4.2-4.3v-9h-14.1c.5-.8,1-1.7,1.6-2.7-.9-.4-1.7-1.1-2.1-.9-6.2,2.7-13.4,3.2-18.8,8.5-.3,1-.6,2.2-1.3,4.4,2.5-.6,4.2-.7,5.6-1.5,5-2.7,9.3-6.5,15-7.9-1.8,8.2-8,12.3-15.1,15.5v5.4c-6.8,3.3-13.6,6.6-20.4,10.1-15.4,7.7-30.7,15.6-46.1,23.3-2.8,1.4-5.7,3.4-9.2,2.2-4,.2-5.3-2.3-8.6-3.5-3.4-1.2-8.1-1.2-11.7-1.4-8.1-.4-15.3,1.5-23.2,2.5-7.3-3.8-14.5-7.7-21.8-11.5,6.6,4.9,13.8,10.2,21.8,12.3,7.4-.6,15.1-2,22.6-1.2,7.1.8,14.1,3,20.9,5,.7.6,1.4,1.3,2.1,1.9-1.5,3.9-4.7,5-9,5.5-1.4-1.6-3-3.4-5.1-5.8h-2.2c-.9,1.1-1.6,2-3.1,3.8-.7-1.6-1.1-2.6-1.4-3.4-1.2.5-1.8.7-2.3,1-2.6-1.4-6.5-1.1-9.5-1.3-4.1-.3-8.2-.7-12.4-.8-8-.3-15.9-.3-23.9-.4-15.8-.2-31.9-1.1-47.7-.3,7.4.8,14.9.2,22.3,1.3-.4,3.8-8.2,2.3-10.7,2.3-4.8.1-9.6.5-14.3.8-1.9,1.4-4.8.9-7.8-.7-3.4,1.2-6.1.5-7.6-3-.8,0-1.6,0-2.3-.1v-90.7c8,1.5,16.5,2,21.7,9.8,2.7,2,5.4,3.9,8.2,5.9-1.5-3.7-5.2-4.3-8.1-6-1.2-1.8-1.9-4.3-3.6-5.3-5.5-3.4-11.7-5.1-18.2-5.2v-17.2c149.2,0,298.5,0,447.7,0ZM826.5,378c-3.5,2.2-6.9,3.6-10.8,5-.4,1.4-.8,2.7-1.4,4.7,6.4-.9,12.1-1.8,18.2-2.6.8-.8,1.9-1.8,3-2.8-.2-.1-.5-.2-.7-.3v-4.7c5.2-.2,4.2-7.1,4.5-10.7-1.9-3.3-3.3-5.6-4.6-7.9-5.3-1-10,.7-14.6,2.8-.6,5.8-2.6,11.7,1.8,16.5,1.4,0,3,0,4.6,0ZM680,419.3c6.9,3.6,10.7.1,12.1-4.4-.3-.9-.7-1.9-1.3-3.4-2.7-.3-5.5-.6-8.1-.8q-6-5.1-9.2-3.9c.3,2.1.6,4.3.9,6.5,1.5.8,2.7,1.5,3.9,2.2.6,1.3,1.1,2.5,1.7,3.9ZM665.5,396.9c-3,5.4-.9,9.9-.6,14.4h5.3c-.2-3.5-.5-6.5-.7-9.8-1.2-1.4-2.4-2.8-4-4.6ZM877.4,354.2c-8.5-1.2-16.1,4.6-21.2,10.9,5.4,1.7,7-1.2,10.1-5,3.3-4.2,6.5-4.1,11.1-5.8ZM540.3,413c-.1.1-.3.2-.4.3,1.9,2.4,2.6,3.6,5.3,5.2,2.6,1.5,4.1,3.9,6.6,5.5,5.6,3.4,13.2,7.4,19.6,8.7-4.8-3.8-10.7-5.6-16.1-8.2-2.7-1.3-4.4-3.1-6.7-5-1.9-1.6-4.2-2.6-6.4-3.9-.2-1.4-.4-2.4-.6-3.8-1.1-.4-2.3-.8-3.4-1.2l-.3.7c.8.5,1.6,1,2.4,1.6ZM917.4,347.1c-1.6-3.4-5.7-1.2-8.5-.5-3.9.9-7.8,1.6-11.5,2.8,0,.3.2.6.2.9,6.6-.1,13.3-.1,19.8-3.2ZM570.1,421.5c-3.4-12.1-10.3-22.7-15.4-34.2-.3.1-.6.3-.9.4,5.4,11.3,10.9,22.5,16.3,33.8ZM737.9,472.1h-.5v13.7h.5v-13.7Z" fill="#f5f2e3"/>
        <path d="M1271.9,621.1c.3-4.3,1.8-10,.2-14.2-1.3-3.4-4.8-5.7-6.6-9-1.5-2.9-1.9-6.4-4.7-8.6-2.9-2.3-6.7-2.2-10.2-2.9-5.9-1.1-11.5-5.6-15.8-9.7-5.5-5.2-11.3-11.1-9.8-19.6,4.7-1.8,10.1-2.7,12.1-9.1-.1-.5-.4-1.6-.9-3.3-8.9-1.9-14.5-10.5-19.5-17.4-1.2-1.7-2.4-3.9-4.1-5.3-1.4-1.2-3.2-1.5-4.5-2.8-2.7-2.5-2.2-6.7-2.2-10-1.4-.6-2.5-1.1-3.8-1.7-.8,1.3-1.5,2.5-2.3,3.8h-7.7c-1.4-3.3-3-6.8-2-10.5.5-1.9,1.8-3.3,2.7-5,1.1-2.1,1.5-4.4,2.4-6.6,6.8-1.3,10.1-5.8,10.3-12.4,2.5-3.8,5.9-3.9,9.9-3.4,1.9,3,2.2,7.8,7.4,8.8,5.5-4.6,6.6-12.6,12-17.5,1.3-.5,2.6-1,4-1.5,1.4-2.1,2.8-4.2,4.3-6.4h6.7c3.1,2.6,2.9,6.3,3.1,10,.3,4.7.8,9.4,1.2,14.1,4,4.6,8.4,6.8,13.8,9.3,6.1,2.8,12,6,18,9,2.8,7.7.5,14-.7,21.7-1.1,7.4-.3,15,.2,22.4,1,15.5-2.6,29-6.5,43.9,2.3,6.1,3.6,12.7,9.2,16.1,0,8.6-2,24,7.5,28.7.7-1,1.5-2.1,2.4-3.5-3-4.4-2.9-10.6-2.7-15.7.2-5.9,2.7-10.7,6.4-15.2,3.3-4.1,8.6-9.7,8.8-15.2.2-6.4-1.3-13.3-1.7-19.7,1.7-1.6,3.3-3,5-4.5h7.5c.9.8,2,1.6,3.3,2.7h6.1c2.5,2,4.7,3.8,7.2,5.8,1.2-1.6,2.1-2.8,2.7-3.6.3-5.6.2-11-.2-16.6,1.9-.4,3.1-.6,4.4-.9,1.5-1.2.9-4.4,3.9-4.3.5-.2,1.1-.4,1.6-.6,1.1,0,2.2,0,3.4,0,6.5,6.1,11.9,13.8,21.7,15.2.2,1.4.3,2.6.5,3.9,5.7,6.4,11.5,12.8,17,18.9h4.4c6.1-7.1.2-10.4-2.5-17.7-1.2-3.3-1.3-5.8-4.7-7.4-3.9-1.8-8.9-2.5-13.1-3.6-.5-1.2-.9-2.2-1.3-3.3-.5-6.4-1.1-12.7-1.6-19.1-1.7-1-3.3-2-4.7-2.8-.3-1.5-.6-2.7-.8-4-1.5-.2-2.8-.4-4.1-.7v-.6c-1.4-.3-2.9-.6-4.4-.8-2.7.8-5.4,1.6-8.2,2.4-.3,0-.6,0-.8,0h-5.8c-1.1-7.6-1.5-15.3-2.9-22.8-1.3-6.8-2.8-13.7,1.7-19.8h5.4c.5,2.3.9,4.8,1.6,8.1.4.4,1.4,1.3,2.4,2.2.5.5,1,1,1.5,1.5,1.4,1.4,2.7,2.9,4,4.2,1.5.2,2.7.4,4,.5.2,1.5.4,2.8.6,4.2,3.8,3,8,6.1,10.5,10.4,2.8,4.7,3.1,11.4,4.4,16.7,1.1-.2,1.7-.2,2.7-.4,0-6.1.7-12.7-.2-18.7-.9-5.3-2.9-9.8-2.8-15.3.1-5.5,1.3-10.9,2.4-16.3.8-3.8,1.8-8.8,7-8.2.9,1.4,1.8,2.7,2.7,4-1.3,2.7.8,3.7,2,4.8,2.1-.5,3.7-.8,5.4-1.2.9,1.4,1.7,2.9,2.3,3.8-2,5.7-8.4,8.5-7.2,15.8,4.4-4.4,8.4-8.3,12.7-12.6,1.2,2,1.9,3.4,2.7,4.9.8-.5,1.6-.9,2.3-1.3v12.7c-4.1,1.9-8.2,3.7-12.8,5.8v14.6c-1.4.9-2.6,1.6-4.3,2.7h4.5c4.2-3,8.4-5.9,12.6-8.8v33.7c-2,1.1-4,2.3-5.9,3.4v5.5c1.9,1.5,3.9,3.1,5.9,4.6v43.5c-4.2.7-8.3,1.5-13.2,2.3-.5.6-1.6,1.7-2.6,2.9-7.3,2.2-13,7.5-19,12,.1.2.2.4.3.6h6.4c3.4-2.8,6-4.8,10-6.6,1.3,1.3,2.6,2.6,3.9,3.8,0,1.2,0,2.5,0,3.7-.3,1-.5,1.9-.8,2.9-1.2,1.5-2.4,3.1-3.6,4.6-3.2.2-3.3,3.2-4.6,5.1-4.1,1.1-8.9,1.1-11.2,6.4.2,1.6.4,3.8.7,6.4-4.6.6-8.9,1.2-12.9,1.7-2.7-5-3.4-9.5-2.7-14.6,1.2-8.5,7.8-12.1,14.4-15.9-.6-1.7-1-3.1-1.5-4.3-4.5-1.5-8.6-3.7-13.6-2.4-1.8,4.5-4.9,8.5-3.4,14.2,1.7,6.5,0,11.8-6,16.2-6.5,4.8-10.9,11.7-13,19.6-2.8,10.3-5.2,20.7-9.7,30.5-4,8.7-9.7,15.6-18.4,20.2-7.2,3.8-14.2,2-21.8,2-2.7,3-5.9,6.6-9,10.1h-5.8c-1.3-2.5-2.6-4.9-3.9-7.4-1.6-5.2-3.3-10.4-7.2-14.9h-9c-2.7-2-5-3.6-7.1-5.2-6.7,1.6-6.7,5.8-6.8,11.8-2.4,2.3-4.1,3.9-5.4,6.9.2,0,.3,0,.5,0,1.7-1.8,3.3-3.6,5-5.4.4,5.5.2,10.9-3.2,15.7-2.5,3.5-4.6,7.4-4.9,12h-6c-.8-1.7-1.6-3.5-2.3-5.2h-5.9c-1.2,1.6-2.5,3.4-3.7,5.2h-9c-.2-1.3-.4-2.5-.6-3.8,2-.5,3.8-1.2,4.4-3.6-1.6-1.7-4.2-3-3.4-6,1.7-1,3.2-2,5-3.1.9.2,2,.4,3.3.6v-3.3c1.2,0,2.3-.1,3-.2,1.1,1.4,2,2.4,2.8,3.4,3.4.3,6.5.5,10,.8-.2-1.3-.3-2.1-.5-3.6-.6,1.4-1,2.1-1.2,2.5-2.7-.3-5.1-.5-7.8-.8-.7-.9-1.7-2-2.6-3.1h-3.8c-2.6,3.3-10,3.7-9.4,8.9-1.8-5.5-1.7-11.9.5-20.4,3.8-1.9,7.9-2,12.2-.4.5-.5,1.2-1.1,1.5-1.4-1.2-8.7-3.1-14.9-7.5-22.6,2-3.1,3.8-5.8,5.5-8.3,8-4,14.6-14.6,14-21.8-2.1-2.9-4-5.6-6.4-9-3.2-.6-7.2-1.3-12-2.2-.3-2.9-.7-6.1-1.1-9.7,2.9-.2,5.1-.3,7.9-.4,9.4-13.3,22.9-18.1,39-16.7,1.6-1,3.2-2,5.5-3.4v8.7c-2,.2-4.2.4-6.8.7-.6,2.4-1.3,4.8-1.9,7.1-.5,5.1,3.1,10.4,9.1,11.9,3.1-2.2,6.3-4.6,9.5-6.9,0-4,0-7.8,0-11.6ZM1326,642.1c.6.4,1.2.8,2.8,1.9-3.9,3.6-7.6,6.9-11.4,10.5,3.1.6,5.9,1.2,8.7,1.7,6.1-6.7,12.1-13.2,18-19.7,2.8-3.1,5.1-6.5,5.1-11.5-3,1.1-5.5,2-8.1,2.9-7.4-.4-14.2,7.5-17.7,13.3,1.1.4,1.9.8,2.7,1.1ZM1210,511.3c6.6-1.8,11.6-11,10.6-19.1-1.6-1.3-3.4-2.7-5-3.9-9.5,1.3-14.4,6.7-12.3,14.9,1.7,1,3.5,2,5.1,3,.6,1.8,1,3.4,1.6,5.1ZM1368.2,570.7c-3.1-2.1-5.8-5.9-11-3.8-.4,1.2-.9,2.6-1.2,3.7,2.9,3,5.5,5.6,7.9,8.1h4.2c2-2.7,1.6-5.3.1-8.1ZM1303.8,696.6c5.1-4,9.7-7.6,14.8-11.6-.3-1.3-.7-2.6-1.2-4.4-5.3,4.5-10,8.4-14.8,12.4.3,1,.6,1.8,1.2,3.5ZM1331.4,597.7c.4.2.7.3,1.1.5,2.2-1.3,4.4-2.6,6.4-3.9.2-4.9-2.1-7.6-6.5-9.3-2,4.3-1.2,8.5-1.1,12.7ZM1338.8,610.1c-7.3-2.3-13.3-.2-17.8,5.8,5.9-1.9,11.9-3.9,17.8-5.8Z" fill="#c4e093"/>
        <path d="M624,453c.6-.2,1.1-.5,2.3-1,.4.9.8,1.9,1.4,3.4,1.4-1.8,2.2-2.7,3.1-3.8h2.2c2.1,2.3,3.7,4.2,5.1,5.8,4.3-.5,7.5-1.5,9-5.5-.7-.6-1.4-1.3-2.1-1.9.5,0,1,0,1.5,0,1-.2,2-.5,3-.7,0,.4-.1.7-.3,1.3.9-.2,1.8-.3,2.6-.4.9.7,1.8,1.3,2.5,1.9,2.3-1.2,4.3-2.3,6-3.2,1.2-1.8,2.3-3.3,3.4-5,1.5,1,2.6,1.7,3.5,2.3,3.5-1.7,6.8-3.3,10.4-5.1.3-1,.6-2.2.9-3.5,1.2.4,2.3.8,3.2,1.2,3.2-.7,6-1.4,8.4-1.9,1.4-1.7,2.4-2.9,2.9-3.6,3,.5,5.1.8,7.1,1.1.9-1.8,1.5-3,2.1-4.4,1.3.8,2.3,1.4,3.6,2.1,4.8-1.2,9.8-2.4,15.7-3.8-1.9,8.2-6.9,20.3,2,26.3,2.3,6.8,4.7,13.8,7.2,20.9-.3.7-.6,1.7-.9,2.6l-.6.5c2.4,3.6,4.9,7.2,7.5,11.1-.9.7-1.7,1.2-2.5,1.8-.5-.3-1-.5-1.5-.8-.5-2.8-2.2.2-3.1-.6-.2.1-.5.2-.7.3-1.2-2.7-2.4-5.4-3.7-8.2-2.2-1.9-4.7-.5-7.1-.1-3,.5-6.1.4-9.1.4-1,1.8-1.7,3.1-2.5,4.5-.5,0-1,0-1.5,0-2.7-1.3-5.5-2.6-8.3-4-.9,1.7-1.5,2.9-1.8,3.6-3.1.7-5.6,1.3-8.4,1.9-1.6-3.6-3.3-7.5-5-11.2,2-3.9,1.8-6.9,1.8-11.4-1.7-2.5-3.5-4-6.8-1.8.4,6.6.8,13.5,1.2,19.7-1.7,1.8-3.3,3.4-5.3,5.4-2.5.8-5.8,1.7-9.3,2.8-.8.7-1.8,1.6-2.8,2.4,1.2-6.4.9-12.2-.9-14.9-.5,1-1,2-1.5,3-.2-.7-.3-1.4-.6-2.4-1.3.2-2.4.4-3.4.5-.5,3.7-.2,4.1,3.9,5.5,0,2.8,0,5.5,0,8.3-.7.2-1.3.4-2.3.7.2,1.9.3,3.7.5,5.4.3,0,.6,0,.9,0l.2-3.1c.3,1.1.6,2.3.9,3.4-5.6,5.9-4.4,14.7-9.6,20.7-3.5-2.1-7.4-3.3-8.5-7.9.7-3.5,1.5-7.1,6.1-8.5-4.1,0-6.5,2.5-6.9,6.6-.6,5.5,3,9.8,9.6,11.2-2.4.5-4.9,1-7.3,1.5-.9-.5-1.9-1-2.4-1.3-1.8.9-3,1.5-4.7,2.4,0-2,.1-3.2.2-4.6-1-.7-2-1.5-2.7-2-1.2-5.5-5.9-19-13.4-15.9v4c.8.7,1.7,1.4,2.5,2.2-.2.1-.4.3-.7.4,4.5,8.3,7.9,19.1,15.1,25.4-1,1.6-2.1,3.2-3.5,5.4-3.1-3.8-6.2-7.5-9.3-11.3,0-.3,0-.5,0-.8,1.1-.7,2.1-1.4,3.1-2.1-2.3-6.1-7.5-12-11.5-17.3-2.6-3.5-6.6-9.6-11.6-8.9-.3.8-.7,1.8-1.2,2.8-1-.2-2-.4-3-.7,0-.6.1-1.2.3-2.1-3.7.5-7.1.9-10.5,1.3,0-.2-.1-.4-.2-.6-1.6,1.2-3.1,2.3-4.9,3.6-1.9-2-3.7-3.9-5.7-6.1-1.2.1-2.7.2-4.5.4-1.2-1.3-2.5-2.7-3.9-4.1.5-1.4.9-2.5,1.4-3.8-1.6-.8-3.1-1.5-4.4-2.2-2.1-6.5-9.3-9.6-16.2-7.9-1-.5-2-1.1-2.4-1.3-2.1-3.5-3.7-6.3-5.2-8.9-4.4.2-8.4-1.2-11.4,3v4.5c-1.5-.2-3-.5-4.5-.7-5.5-5.3-11-10.5-16.5-15.8,0-3.5,0-7,0-10.5.7,0,1.5,0,2.3.1,1.5,3.5,4.2,4.3,7.6,3,3,1.6,5.9,2.1,7.8.7,4.8-.3,9.5-.7,14.3-.8,2.5,0,10.3,1.5,10.7-2.3,14.5,0,29,0,43.5,0,.9,4,1.9,4.4,7.2,2.7,1.3.6,2.6,1.3,3.8,1.8,2.1-.5,3.9-.9,5.7-1.4,0,.2,0,.4,0,.6,3.3.3,6.5.6,9.7.9.6-1.4,1.1-2.3,1.5-3.2h0ZM710.3,450.6c.7-1.6,1.3-3.3,2-4.9-2.1-2.4-2.6-2.3-6.2.4h-4.7c-.9-1-1.8-1.9-2.7-2.9-2,.6-3.8,1.2-6.4,2,.9,1.7,1.5,2.8,2.1,4,0,1.2,0,2.4,0,3.5-1.7.6-3.5,1.3-5.6,2.1,2.8,2.5,5.1,4.6,8,7.2,1.9-3.1,3.6-5.7,5.2-8.3h0c2.5.3,2.5,2,2,4.4,4.3-1.8,8.4-3.6,12.5-5.3,0-.8.1-1.5.2-2.7-2.3.2-4.4.3-6.4.5ZM659.6,460.5c2.3-.4,4.2-.7,6.3-1.1.8-3,2.8-5.7,2.1-9.2-4.5.5-6.9,3.4-9.6,6.5.4,1.1.8,2.4,1.2,3.8ZM655.6,469.4c.9,1.3,1.8,2.5,2.5,3.5,1.2-1.9,2.4-3.9,3.6-5.9-.7-1.2-1.3-2.2-2.3-3.9-1.5,2.5-2.6,4.4-3.8,6.4ZM638.2,509.8c-2.1-1-3.6-1.6-5.2-2.4-1.1,2.9-.6,4.4,2.2,5.7.8-.8,1.6-1.7,3-3.3Z" fill="#f5f2e3"/>
        <path d="M1391.4,630c1.2-1.5,2.4-3.1,3.6-4.6,1.7,1,3.3,2.1,4.8,3,.3,1.7.6,3,.9,4.7,3.2.2,6.3.4,9.3.6v105h-28.5c.4-.2.9-.6,1.3-.6,9.5,0,16.6-4.2,21.4-12.5,1.9-3.3,3.2-6.4,2-10.2-.2-1-.5-2-.7-3-.1-.8-.2-1.7-.3-2.8-5.8-1.3-11.8-1.2-17.8-1-5.7.2-8.7,1.9-13.3,4.8-4.5,2.8-9.1,1.2-13.8,3-4.6,1.7-5.7,9.4-7.3,13.6.9,3.3,1.6,6,2.3,8.6h-42.7c.2-3.5-.3-7.4.2-10.8.4-2.8,2-6,2.8-8.8-.3,0-.6-.2-.9-.3-1,3.2-3.4,6.7-3.5,10.2,0,3.6,2.5,6.4-.2,9.6h-28.5c-1.2-1.4-2.4-2.8-3.6-4.3-.1-2.2-.2-4.3-.3-6.8-2.2-.1-4-.2-5.8-.3-.2-.5-.4-1-.7-1.5.2-.3.5-.6.7-.9h5.8c3.2-3.5,6.3-7,9-10.1,7.7,0,14.7,1.8,21.8-2,8.7-4.6,14.4-11.5,18.4-20.2,4.5-9.8,7-20.2,9.7-30.5,2.1-7.9,6.5-14.8,13-19.6,5.9-4.4,7.6-9.7,6-16.2-1.5-5.7,1.7-9.8,3.4-14.2,5-1.2,9.1,1,13.6,2.4.4,1.3.9,2.6,1.5,4.3-6.6,3.9-13.2,7.4-14.4,15.9-.7,5,0,9.6,2.7,14.6,4.1-.5,8.3-1.1,12.9-1.7-.3-2.6-.5-4.7-.7-6.4,2.4-5.2,7.1-5.2,11.2-6.4-.3,3.5-.5,7-.8,10.5-6.4,5.4-13.5,9.4-20.2,14.3-1.8,2.5-2.2,3.5-3.1,6.3-.8,2.5-2.3,4.4-4.6,5.7-.6,1.7-1.2,3.2-2,5.4,2.1-2.6,4.6-5.2,6.4-8.1,1.7-2.8,2.4-6.1,3.4-9.2,4-2,8.1-3.7,11.9-6.1,3.3-2.1,6-5,9-7.5,0-1.4,0-2.8.1-4.1.5-4.5,1-9,4.6-12.3ZM1333.9,709.1c-6.7,1.1-16.2,5.6-17.1,7.3,5.7-2.4,11.4-4.9,17.1-7.3ZM1335.2,699.5c1-2.3,2.1-5.2,3.3-8-4.4,5.6-4.9,8.6-2.1,15-.3-2-.7-4.1-1.1-7ZM1340.7,688.6c.9-4.5,5.9-2.9,7.9-5.7-2.8,1.7-7.8,0-7.9,5.7Z" fill="#f5f2e3"/>
        <path d="M510,590.3c4.3,1.8,8.6,3.6,12.9,5.5,4.3,1.8,9.6,3.3,13.5,5.9,5.6,3.6,4.1,14.7,4.4,20.5-2.6,6.1-5.9,12.2-7.8,18.5-1.8,6.1-2.2,12.1-5.1,18-2.8,5.8-7.3,10.7-9.7,16.7-2,4.9-2.6,9.7-8.2,11.7,0-32.2,0-64.5,0-96.7Z" fill="#f5f2e3"/>
        <path d="M1410,352.5v51c-4.9,0-7.6,3.9-11.1,6.3-4,2.8-7.8,5.7-11.7,8.6-1.8-1-3.2-1.8-4.1-2.4h-6.1v-22.3c.6-2,1.3-3.9,1.9-5.9h7.2c.9.6,1.9,1.4,3.4,2.5,1.4-2.4,2.7-4.6,4.1-6.9,1-.4,2.3-.9,3.7-1.4,1.5-2,3-4.1,4.5-6.2-.3-.4-.5-1-.9-1.2-3.2-1.2-6.4-2.3-9.6-3.4,3.3-3.7,7.5-5.2,11.3-8.2,3.6-2.8,3.7-7.1,5.1-11.1,1,.2,1.7.4,2.3.6Z" fill="#c4e093"/>
        <path d="M510,508.5c4,3.2,8.1,7.2,12.7,9.6,4.4,2.3,8,3.6,11.4,7.4,3.4,3.8,6,8.3,8.7,12.6,2.8,4.5,7.2,9.5,8.8,14.5-2,1.4-3.9,2.8-6.4,4.6-3.1.3-5.8-1.4-8.6-2.5-3.5-1.4-7-2.7-10.6-3.9-6.4-2.2-11-6.4-16.1-10.8,0-10.5,0-21,0-31.5Z" fill="#f5f2e3"/>
        <path d="M1272.1,726c.2.5.4,1,.7,1.5-6.4-.6-9.5-6-13.8-9.5-2.5-.3-5-.7-8-1.1-.9,6.4-1.8,12.6-2.8,18.9-.7.9-1.6,1.9-2.5,2.9h-15c.2-4.6,2.4-8.4,4.9-12,3.4-4.8,3.7-10.2,3.2-15.7.9-.6,1.7-1.1,3.3-2.1-1.7.3-2.5.4-3.3.5,0-6,0-10.2,6.8-11.8,2.1,1.5,4.4,3.2,7.1,5.2h9c3.9,4.5,5.5,9.7,7.2,14.9l-3.8-.6c0,.2,0,.4-.1.6,1.2.5,2.4,1,3.6,1.5-.2.1-.3.3-.5.4,1.3,2.1,2.7,4.2,4,6.4Z" fill="#f5f2e3"/>
        <path d="M1355.3,738.8c-.7-2.6-1.4-5.3-2.3-8.6,1.6-4.2,2.8-11.8,7.3-13.6,4.6-1.8,9.3-.1,13.8-3,4.7-2.9,7.7-4.7,13.3-4.8,6-.2,12-.3,17.8,1,.1,1.1.2,1.9.3,2.8-8.4,3.8-14.7,9.2-21.8,15.1-3.6-.8-7.7,1.5-11.3-1.8-2.2,2.1-4.4,4.2-6.6,6.3-2.5,2.3-5,4.5-7.5,6.8h-3Z" fill="#cde6a3"/>
        <path d="M1410,352.5c-.7-.2-1.4-.3-2.3-.6-1.4,4-1.5,8.3-5.1,11.1-3.8,3-8,4.5-11.3,8.2-1-.2-2-.4-3-.7-.9-.3-1.8-.6-2.5-.8-4.1,3.1-6.3,3-10.8,0,0-.2,0-.5,0-.7,2.9-5,6-9.9,8.6-15.1,1.9-3.8,3.3-7.9,4.9-11.9,7.2,0,14.3,0,21.7,0v10.5Z" fill="#cde6a3"/>
        <path d="M1388.3,342c-1.6,4-3,8.1-4.9,11.9-2.6,5.2-5.7,10.1-8.6,15.1-1.3-1.1-2.7-2.2-4.4-3.7h-12.2c-1.4-5.1-2.7-10-3.8-13.8,1-4,1.7-6.7,2.3-9.5,10.5,0,21,0,31.5,0Z" fill="#c4e093"/>
        <path d="M1245.8,738.8c.9-1,1.8-2.1,2.5-2.9.9-6.3,1.8-12.4,2.8-18.9,3,.4,5.4.7,8,1.1,4.3,3.5,7.4,8.9,13.8,9.5,1.8,0,3.6.2,5.8.3.1,2.4.2,4.6.3,6.8,1.2,1.4,2.4,2.8,3.6,4.3h-36.7Z" fill="#c4e193"/>
        <path d="M1377,393.7v22.3h6.1c.9.5,2.3,1.3,4.1,2.4,3.8-2.8,7.7-5.8,11.7-8.6,3.5-2.4,6.2-6.3,11.1-6.3v20.2l-2.2,2.2c-.7-.4-1.5-.7-2.2-1-2.1,2-4,3.8-5.9,5.6-1.4,0-2.6-.1-3.8-.2.1-.3.2-.6.3-.8-5.8-3.4-11.7-6.4-17.7-9.4-3.4-2.5-2.3-7.5-2.3-11.1,0-5.1-.4-10.2.7-15.1Z" fill="#cce4a3"/>
        <path d="M1358.3,738.8c2.5-2.3,5-4.5,7.5-6.8,7.5-.6,15.9-.1,22.3-4.6,3.1-2.2,14.4-14.4,18.2-11.9,1.2,3.8-.1,6.9-2,10.2-4.8,8.3-11.8,12.4-21.4,12.5-.4,0-.9.4-1.3.6h-23.2Z" fill="#bbd68c"/>
        <path d="M1394.2,609c1.1-1.2,2.1-2.3,2.6-2.9,4.9-.9,9-1.6,13.2-2.3v18.7c-1.7-.2-3.3-.4-5-.7-2.6-.5-5.2-1-7.8-1.5,2.6-1.9,4.9-2.9,8-4-.1-.3-.2-.6-.3-.9-3,1.2-6.1,2.3-9.1,3.5-1.3-1.3-2.6-2.6-3.9-3.8.7-2,1.5-4,2.2-6Z" fill="#f5f2e4"/>
        <path d="M1410,513c-4.2,2.9-8.3,5.8-12.6,8.8h-4.5c1.7-1.1,2.9-1.8,4.3-2.7v-14.6c4.6-2.1,8.7-3.9,12.8-5.8v14.2Z" fill="#cde4a3"/>
        <path d="M1410,486c-.7.4-1.5.8-2.3,1.3-.8-1.5-1.6-2.8-2.7-4.9-4.3,4.3-8.3,8.2-12.7,12.6-1.2-7.3,5.3-10.1,7.2-15.8-.6-1-1.4-2.4-2.3-3.8,1-1.2,2.1-2.5,3.1-3.7l9.7-.7v15Z" fill="#cde5a3"/>
        <path d="M1407.8,425.9c.7-.7,1.5-1.4,2.2-2.2v18.7c-4.8,3.2-9.6,6.3-15,9.9v-8.5c.3-.5.5-.9.8-1.4,1-1.5,2-3,3.1-4.5,2.6-1.8,5.1-3.7,8.2-5.9.2-1.7.4-4,.7-6.3Z" fill="#c5e194"/>
        <path d="M510,474.8c5.2,5.2,10.1,10,16,14.4-.5,1.6-1.1,3.3-1.6,5.1-5.4,0-9.8-2.3-14.4-3.7,0-5.2,0-10.5,0-15.7Z" fill="#f5f2e3"/>
        <path d="M1397.3,620.2c2.6.5,5.2,1.1,7.8,1.5,1.7.3,3.3.5,5,.7v11.2c-3.1-.2-6.1-.4-9.3-.6-.3-1.7-.6-3-.9-4.7-1.5-.9-3.1-2-4.8-3,.3-1,.5-1.9.8-2.9.5-.8,1-1.5,1.5-2.3Z" fill="#c8e29a"/>
        <path d="M1410,471c-3.2.2-6.5.5-9.7.7-.3-.3-.6-.6-.8-.8,3.2-2.7,4.4-6.3,4.4-10.5-1.2-1.4-2.5-2.9-3.8-4.4,3.3-.5,6.6-1,9.9-1.5v16.5Z" fill="#c5e193"/>
        <path d="M1410,454.5c-3.3.5-6.6,1-9.9,1.5-1.9-.9-3.7-1.8-6.1-2.9.3-3,.6-6.1.9-9.2v8.5c5.4-3.6,10.2-6.7,15-9.9v12Z" fill="#cce4a2"/>
        <path d="M1410,560.3c-2-1.6-4-3.2-5.9-4.6v-5.5c1.9-1.1,3.9-2.2,5.9-3.4v13.5Z" fill="#f5f2e2"/>
        <path d="M510,461.3c5.5,5.3,11,10.5,16.5,15.8-.5.5-1,1-1.6,1.4-5-4.7-9.9-9.5-14.9-14.2,0-1,0-2,0-3Z" fill="#fabd4f"/>
        <path d="M1212.8,738.8c1.3-1.8,2.5-3.5,3.7-5.2h5.9c.8,1.7,1.5,3.4,2.3,5.2h-12Z" fill="#f4f2e2"/>
        <path d="M531.7,369.8c-5.2-7.8-13.7-8.3-21.7-9.8v-.7c6.6,0,12.7,1.8,18.2,5.2,1.6,1,2.4,3.5,3.6,5.3h0Z" fill="#c0dee6"/>
        <path d="M1311,738.8c2.7-3.2.2-6,.2-9.6,0-3.4,2.4-6.9,3.5-10.2.3,0,.6.2.9.3-.8,2.8-2.5,5.9-2.8,8.8-.5,3.4,0,7.3-.2,10.8h-1.5Z" fill="#bfdde6"/>
        <path d="M747.8,738.8c.2-1.5.4-2.9.7-5,.7.8,1,1.1,1.3,1.5.7-.4,1.3-.8,2.5-1.6-.8,2.1-3.2,3.1-1.5,5.1h-3Z" fill="#5799bd"/>
        <path d="M756.8,738.8v-3.2c.2,0,.5-.1.7-.2.4.7.9,1.3,1.4,2.2.6-.7,1.2-1.4,2.4-2.6v3.9h-4.5Z" fill="#599bc0"/>
        <path d="M773.3,738.8v-3.3c.7,0,1.5.2,2.3.3-.3,1-.5,2-.8,3h-1.5Z" fill="#5396bb"/>
        <path d="M800.3,738.8c.4-1,.8-2,1.3-3,0,1,.2,2,.2,3h-1.5Z" fill="#93ccea"/>
        <path d="M774.8,738.8c.3-1,.5-2,.8-3l.7,3h-1.5Z" fill="#97d0ee"/>
        <path d="M801.8,738.8c0-1-.2-2-.2-3,.5.1,1.1.2,1.7.4v2.7h-1.5Z" fill="#4d92b8"/>
        <path d="M1055.8,476.6c2.5.5,4.5.9,6.9,1.5-.3,2.1-.5,4-.7,5.9-7.9,3.7-16,4.9-24.4,7.1-5.8,1.5-7.3,4.1-5.8,10.1-2.6,8.4-10.5,9.4-17.6,12.6-8.5,3.9-17,7-25.9,9.9-8.9,2.9-17.5,5.6-26.6,7.4-6.8,1.4-18.1,2.5-21.3,9.7-1.6-.3-3.1-.5-4-.7-2.7-3.7-4.2-6.5-5.1-11.1-.7-3.6-2.2-6.8-5.3-8.9-3.8-2.6-9.1-3.5-13.4-4.8-5.1-1.6-10.2-3.1-15.4-4.6-4.8-1.4-9.6-2.9-14.2-5-4.4-2-8.5-4.9-13.1-6.4-4.7-1.5-9.9-1.9-14.7-3-4.1-.9-8.4-.9-9.4-5.8,10.2,1.1,20.2,4.2,30.4,5.8,10.9,1.7,21.5,3.1,32.2,6.1,10.5,2.9,20.9,6.4,31.5,9.1,11.5,3,22.8,2.9,34.6,2.9,0,.3.2.7.3,1,1.5-1.1,2.9-2.1,4.7-3.4-.5-2-1-3.8-1.5-5.6h-4.8c-.7.5-1.6,1.2-2.5,1.9-1.5-.5-3-1-4.5-1.5-1.6,1.7-3,3.5-6.1,1.6,3.1-2.7,6.9-5.2,9.3-8.6,2.8-4,6.4-6,9.9-9.5,3.3-3.2,5.8-6.9,7.7-11.1,1.8-3.8,3.7-6.1,8.3-5.4,3.8-1.4,6-8.2,11.4-4,4.2-2,8.4-3.9,12.5-5.9,4-1.9,7.6-4.4,12.2-4.3,4.4,0,7.8,1.2,12.1-1,3.9-2,4.5-6.1,5.5-10.1.3,0,.6-.2,1-.3,1,1.3,1.9,2.5,2.9,3.8.1-.2.2-.3.4-.5,2,.9,4.1,1.7,6.6,2.8,5-5.4,7.2-16,15.2-17.4.2.2.4.4.7.6-4.6,6.2-10.2,11.3-14.3,17.9-3.4,5.6-10.3,14.3-5.8,20.9Z" fill="#c5e193"/>
        <path d="M677.1,578.2c-1.5,1.2-3.1,2.4-4.5,3.6,1.4,4.1,2.7,7.7,4.1,11.6-1.4.6-2.4,1.1-4.1,1.8-1.9-2.6-3.7-5.2-5.5-7.8q-1.3.9.8,7.1c-1.2,3.5-2.2,6.7-3.3,9.9.2.1.4.3.6.4-1.6,1.3-3.2,2.6-4.9,4-1.3-.5-2.4-1-3.4-1.4-3.3.9-3.1,3.2-4.5,5.8-1.3,2.4-3.2,3.3-5.8,4,.4-1.2.7-2.1,1.2-3.5-1.6-2.1-3.4-4.5-5.2-6.9h-8.8c-1.3-2.2-2.6-4.4-4.1-7,1.8-1,3.1-1.8,4.7-2.7-.5-1-.9-2-1.4-3.1-2,.6-3.7,1.1-5.5,1.7-7.4-12.6-12.2-26.2-20-38.4-5.2,2.3-9,5.4-12.4,9,2.6,4,5.1,8,7.7,11.9,1.9,2.9,4.3,7.6,7.5,3.4,4,5.6,9.5,10.2,11.9,18.1-7.5-2.1-15.1-4.6-21.5-9.3-2.9-2.2-3.5-6-4.7-9.4-1.5-4.2-2.9-8.5-4.4-12.7,2.8-5.6,5.7-11.5,8.9-17.8.8-.4,2.1-1.1,3.9-2-2.6-6.7-5.2-13.3-7.8-19.9,7.9,6.3,15.9,12.7,23.5,18.8,5.8.4,9.6-1.3,11.3-5h1.4c3.2,1.5,6.4,3,9.6,4.6,0-.1,0-.2,0-.3,9.4,3.9,18.7,7.7,27.2,11.2,3.6,6.2,6.7,11.4,9.9,16.9-.9,1.2-1.8,2.4-2.6,3.6Z" fill="#f5f2e3"/>
        <path d="M695.2,568.5c-3,.8-5.9,1.6-8.8,2.3-1.4-1-2.6-1.8-4.1-2.8-1,.4-1.9.9-2.9,1.3.3-1.1.5-2.3.8-3.2-2.9-4.3-5.2-9.2-8.3-13.2-2.6-3.4-6.1-4.7-9.8-6.6-8.6-4.2-9.3-13.5-10.3-22,.2,0,.5,0,.7,0,1.1.9,2.3,1.8,3.8,2.9.9-1,1.1-4.2,3-3,.3,1.7,0,5.2,1.1,6.8,1.1,1.6,2.5,1.1,4.4,1.5.4-2.2.6-3.7,1-5.6,5.6-1.2,11.1-2.4,16.3-3.5.9-.9,1.3-1.7,1.9-2.8,2-.4,4.1-1.8,5.7.6,2-3.2,5.2-1.8,7.8-2.2,4.5-.7,8.9-1.9,13.5-.7,0,.3,0,.5,0,.8v4.3c-3.2,1.9-6.3,3.7-9.6,5.6-.2.8-.6,1.8-.9,3,1.5.3,2.7.5,3.1.5,4,3.1,7.7,3.8,11.9,3.2.8.4,1.6.8,3.1,1.6.4-.6.7-1.2,1.1-1.8.6.6,1.4,1.3,2.2,2.1,1.7-1.3,3.2-2.4,4.7-3.5h4.9c0,.1,0,.3-.1.4,1.2.5,2.3,1.1,3.5,1.6-1,.9-2,1.7-3.2,2.8h2.9c-.7,1.7-1.3,3.2-1.7,4.3-2.7.9-4.9,1.7-7.4,2.5-.7-.9-1.4-1.9-2.1-2.8-.4,1.6-.8,3.2-1.1,4.5,1.2.5,2.4,1,3.6,1.5h0c.5,3.2,1,6.4,1.5,9.7,1-1.9,2-4,3-6-1.5,6-2.6,11.9-5.2,17.4-.9-.8-1.3-1.2-1.7-1.6v-5.5c-1.4-1.7-2.8-3.3-4.1-5-1.8-.1-3.5-.3-5.1-.4-.8-1.5-1.5-2.8-2.3-4.3-2.6.9-5.1,1.8-7.5,2.6-1-1.1-1.6-1.8-2.6-2.9.3,1.6.4,2.6.6,3.6-3.3,2.1-6.5,4-9,5.6.6,2.4,1.1,4.3,1.6,6.2Z" fill="#f5f2e3"/>
        <path d="M777.7,401.3c-6.3-.4-9.7,7.1-15.4,9-2.1.7-4.5.3-5.9,2.3-1.6,2.3-1.5,7.5-1.9,10.1,2.6-.2,4.7-.3,6.7-.4-2.3,1-4.7,2-7,3,0,.2,0,.3.1.5,1-.2,2.1-.3,3.1-.5-2.5,1.8-4.9,3.7-7.5,5.6-1.6,3.9-2.9,12.7-1.9,14.6,4.9-2.9,10.4-2.3,16.2-1.8-.3-1.6-.5-2.9-.7-4.2.9.2,1.8.4,2.7.6-.2,1.8-.4,3.3-.6,4.8,1.7.3,3,.5,5,.9.3-.7.8-1.7,1.1-2.4,1.5.3,2.2.5,2.9.6,1.4.2,2.8.4,4.7.6,2.2-6,4.4-11.9,6.6-17.8.7.3,1.5.5,2.2.8-2.7,9.3-6.1,19-7.5,28.6-3.8,1.1-2,3.7-1.6,6-2.3,5.4-4,10.6-5.6,16.3,1.3,1.4,2.8,3,4.5,4.8,4.2-1.9,7.1-4.9,9.6-9.8,5.2-3,14.1-6.1,17.1-11.3,2.2.4,4.8,2.1,6.1-1.4,7-2.8,14.1-5.7,21.5-8.7,0-1.3.1-2.8.2-4.3.4,1.1.9,2.2,1.2,3,2.3-.5,4.6-.9,6.9-1.4,2.1,0,4.1,0,6.2,0,1,.1,1.9.3,2.9.4.8,0,1.5.2,2.3.2-2.6,2-5.9,1.3-8.9,1.8-3.6.6-7.3,1.8-10.9,2.7.1.3.2.5.3.8-8.9,5.4-19.1,8.6-28.7,12.6-9.9,4.1-16.4,11.9-23.8,19.3.1,1.4.3,2.7.5,4.4-.8.2-1.7.4-2.6.6-.4-.3-.8-.7-1.2-1-.4.4-.8.7-1.1.9-.2-2.5.7-5.4-2.7-7.5-.3,3.8-.5,7.1-.8,10.7,1.3,0,2.4-.1,3.4-.2-1.7,2-3.4,4-5.2,6v-14c-.3,0-.5,0-.8,0,0,6.2-.3,12.3-.7,18.5-.5.5-1,1-1.5,1.5-1.1,0-2.2-.1-3.5-.2-.1-1.3-.2-2.4-.3-3.5-.5-2.8-1-5.5-1.5-8.3,1.2-.5,2.5-1,3.7-1.5,2.5-8.8,5-17.7,7.5-26.5,1.1-4,2.1-8.1,3.3-12.1.9-3.1,2.2-6.4-1.4-8.3-5-.2-10-.6-15-.7-4.6,0-8.7,1.7-13.2,1.1-1.6-.4-3.2-.9-5-1.3-.2-1.9-.4-3.8-.6-6.2h-7.2c1.5-3,4.1-2.2,6.7-2.2.9.6,1.9,1.3,3.4,2.3,1.6-3.5,10.6-22.8,6.3-24.7-8.2,3.6-17.4,4.6-24.7,10.3.4-.9.8-1.8,1.1-2.8,0-.3-.2-.6-.3-1,8.1-5.1,16.5-7.3,25.8-9.3,1.4-1.8,2.7-3.4,4-5,.3.3.6.5,1,.8,1.2.2,2.4.4,2.8.5,8.3-6.6,16.1-12.8,23.8-18.8-2.2-.4-4.6-.8-7.1-1.2h9.3c.8,1.3,1.4,2.2,1.9,3.2-.5,3-3,3.2-4.8,3.8-1,1.8-1.7,3.2-2.3,4.4-1.4.6-2.4,1.1-3.4,1.5Z" fill="#f5f2e3"/>
        <path d="M774,581.2c2.4.2,4.8.5,7.1.7,0-.2,0-.5.1-.7,2.3.9,4.6,1.8,7.2,2.8.4,1.1.8,2.4,1.2,3.6-4.7,1.2-9.1,2.3-13.4,3.4-3.8,2.5-7.8,3.2-12.7,2.5.2-1.5.3-2.6.4-3.9-.4-.3-1.1-.6-1.1-.7-2.5.7-4.5,1.3-6.4,1.8-.4-1-.7-1.5-.9-2.1-.2,0-.4,0-.6.1.3,2,.6,3.9.9,5.9-.1,2.2-2,2.3-3.5,2.8-2.3.7-4.7,1.2-7,1.7-.3-3.5-.5-6.9-.8-10.4,2.5-3.4,4.9-6.8,7.5-10.3,1.5-.1,2.8-.3,4.1-.4,0-.1-.1-.2-.2-.4,3-1.3,5.9-2.7,8.9-4,2.1.3,4.3.5,6.6.8,0,1.5-.1,2.4-.2,3.5-2.3.9-4.4,1.7-6.6,2.5,0,.2.1.4.2.6,2.3-.6,4.6-1.3,7-2,.6,1.5,1,2.9,1.8,5,0-1.5.1-2.2.1-2.9Z" fill="#f4efd8"/>
        <path d="M695.2,568.5c-.5-1.9-1-3.8-1.6-6.2,2.4-1.5,5.7-3.5,9-5.6-.2-1-.3-2-.6-3.6,1,1.1,1.6,1.8,2.6,2.9,2.4-.8,4.9-1.7,7.5-2.6.8,1.6,1.5,2.8,2.3,4.3,1.6.1,3.3.3,5.1.4,1.3,1.6,2.7,3.2,4.1,5v5.5c-.7.3-1.4.5-1.5.6-1.9,3.4-3.8,6.7-6,9.9-3.2,1.4-6.8,3-10.9,4.8-1.4-5.4-2.6-10.4-3.8-15.4h-6.1Z" fill="#eae9df"/>
        <path d="M571.4,559.9c-6-2.8-10.6-6-15.2-10.9-1.9-2-2.9-4.4-4.6-6.5-1.8-2.2-4.2-3.9-5.8-6.4-3-4.7-3.8-10.1-8.1-14-5.4-5-13.1-8.6-16.7-15.2,13.1-4.5,22.8,13,29.1,21.3,4.1,5.5,8.3,10.9,11.9,16.7,3.2,5,7.8,8.2,10.2,13.8l-.7,1.2Z" fill="#f5f2e3"/>
        <path d="M524.9,478.4c.5-.5,1-1,1.6-1.4,1.5.2,3,.5,4.5.7,2.7-2.2,5.2-4.9,9.7-3.2,1.4,4.9,4.4,9,9.6,11.4,1.2-.7,2.4-1.5,3.8-2.4,2.8,1,5.5,2.1,8.7,3.3-2.1,5.9-6.3,9.1-11.7,11.4.3.4.6.8.9,1.1-.8.3-1.6.6-2.3.9-.2-.8-.5-1.7-.5-1.9-6.6-6.6-11.8-12.8-20.5-16.9-1.2-1-2.5-2.1-3.7-3.1Z" fill="#e0ecb2"/>
        <path d="M651.8,524.3c1,8.4,1.7,17.8,10.3,22,3.7,1.8,7.2,3.1,9.8,6.6,3.1,4,5.4,9,8.3,13.2-.2.9-.5,2-.8,3.2,1.6,3.1,3.4,5.7,5.5,8.5-3,1.8-5.4,1.6-7.9.5.9-1.2,1.7-2.3,2.6-3.6-3.2-5.5-6.2-10.7-9.9-16.9-8.4-3.5-17.8-7.3-27.2-11.2,0,.1,0,.2,0,.3l-9.6-4.7c.3-.5.5-.9.8-1.4,6.5,3.9,13.6,6.3,21.1,8.1-4.7-6.1-7.4-12.7-6.2-20.4-1.1-1.2-2-2.4-3-3.5,1.5-.3,3-.5,4.6-.8.5,0,1,0,1.5,0ZM660.9,548.5c.9,4,2.2,4.9,7.2,5.2-1.6-2.8-3.6-4.7-7.2-5.2Z" fill="#9ed5f1"/>
        <path d="M744.7,588.8c.3,3.5.5,6.9.8,10.4-5.7,1.5-11.5,3-17.2,4.5-2.1.7-4.1,1.5-6.1,2.1-1.1-.8-2-1.4-3.6-2.5-.9,1.8-1.6,3.3-2.4,4.8-.6.2-1.1.4-2.1.7-.4-1.9-.7-3.6-1-5.3,1.5-.7,3-1.3,4.7-2,1.9-1.6,4-3.4,6.1-5.2-.1-.2-.3-.4-.4-.6h2.6c.4-1.1.8-2.1,1.1-3.1,3.5-1.9,6.9-3.8,10.4-5.7,1,.8,1.8,1.5,2.9,2.4,1.2-.2,2.7-.4,4.1-.6Z" fill="#f5f2e3"/>
        <path d="M579.6,585.8c-9.3,2.6-8.9-6.5-14.7-10.4-2.9-2-5.7-2.9-8.1-5.6-3.1-3.3-6-6.7-9.1-10,.4-1.2.8-2.4,1.2-3.5,7.1-1.8,13.7,7.8,18.2,12.1,4.9,4.8,12.1,9.9,12.6,17.4Z" fill="#f5f2e3"/>
        <path d="M730.6,552.7c-1,2-2,4-3,6-.5-3.3-1-6.5-1.5-9.7.8,1.3,1.6,2.7,2.7,4.5.9-2.4,1.7-4.3,2.6-6.5h-4.9c-.2.8-.3,1.4-.4,2-1.2-.5-2.4-1-3.6-1.5.3-1.3.7-2.8,1.1-4.5.7.9,1.4,1.9,2.1,2.8,2.5-.8,4.7-1.6,7.4-2.5.4-1.1,1-2.6,1.7-4.3h-2.9c1.2-1,2.2-1.9,3.2-2.8,1.3-4.5,5-8.6,2.2-13.3.7-2.1,1.3-3.8,2-6h-3.3c-.7.9-1.3,1.7-2.1,2.7-6.8-4.2-11.4,2.3-17.1,3.2-1.8-1.3-3.7-2.6-5.5-3.8,0-.3,0-.5,0-.8,4.9-3.6,15-3.5,21-4.4.6.9,1.1,1.6,1.6,2.3,1.8-.2,3.4-.3,5-.4v-.3c-1.6-.3-3.1-.6-5.4-1,2.6-2.1,4.5-1.7,6.3-1,.5,1.2,1,2.2,1.4,3.2.8,1.8,1.6,3.7,2.5,5.6,1.5-.6,3-1.2,4.4-1.8-4.2,4.5-7.7,7.9-10,13.8-2.3,6.2-4.8,12.3-7.3,18.4Z" fill="#ebeadb"/>
        <path d="M684.8,615.8c1,0,1.9.2,2.9.3,1.2,2.5,2.4,4.9,3.6,7.3-1,1.7-2.1,3.8-3,5.2-.2,2.7-.3,4.7-.5,6.9-5.4,1.6-10.5,3.2-15.8,4.8-.7-1.7-1.4-3.3-2.2-5.3,4.3-.8,5.1-4.5,6.4-7.6,1.2-.3,2.3-.6,4.1-1-.3-1.8-.5-3.6-.8-5.5.8-.9,1.5-1.8,2.3-2.6.9-.9,1.9-1.8,2.9-2.7Z" fill="#f4efd8"/>
        <path d="M774,581.2c0,.7,0,1.4-.1,2.9-.8-2.1-1.2-3.4-1.8-5-2.4.7-4.7,1.3-7,2,0-.2-.1-.4-.2-.6,2.1-.8,4.3-1.7,6.6-2.5,0-1,.1-2,.2-3.5-2.3-.3-4.5-.5-6.6-.8,5.6-1.1,11.3-2.1,16.9-3.2.6.4,1.5,1,2.4,1.6,1.7-.8,3.2-1.5,4.8-2.2,0,.3,0,.5,0,.8,3.3,0,6.4-.2,9.6.7-.3,1.6-.7,3.2-1.1,5.1,1.6-.3,2.4-.4,3.2-.5-.8,2.4-1.6,4.9-2.4,7.5.2,0-.2,0-.6,0-2.3,0-4.6,0-6.9,0,0-.2,0-.3-.1-.5,2.2-.4,4.3-.7,6.8-1.2.2-.9.4-2.2.7-3.6-8.4-.5-16.5.3-24.4,2.9Z" fill="#eae9df"/>
        <path d="M549.6,500.3c.8-.3,1.6-.6,2.3-.9,8.1,3.1,16.1,6.7,24.4,9.3,7,2.2,12.2,6.1,16.7,11.7,4.5,5.6,9.5,10.8,15.7,14.6,5.1,3.7,9,9.3,15.4,10.3,2.8-1.4,5-2.4,7.2-3.5,0,.2,0,.4.2.6-1.7,3.6-5.5,5.4-11.3,5-7.6-6.1-15.5-12.4-23.5-18.8-4-4.4-8-8.7-12-13.1-3-1.3-5.9-2.6-8.9-4-2.7-1-5.3-2-8-3-1.5-.6-3-1.3-4.4-1.9-4.7-2.1-9.3-4.1-14-6.2Z" fill="#fcbb41"/>
        <path d="M594.2,553.6c-2.1-5.4-3.2-10-6.9-14.7-3.1-4-8.7-7.8-10.1-12.7,6.5-2,14.5,5.2,17.8,10,4.2,6.2,4.7,12-.8,17.4Z" fill="#f5f2e3"/>
        <path d="M747.9,520.5c-1.4.6-2.9,1.2-4.4,1.8-.8-1.9-1.6-3.8-2.5-5.6,0-1.3.1-2.7.2-4.4,5.1-.8,9.9-1.6,14.8-2.4,1.3.3,2.5.5,3.8.8,0,.6-.1,1.3-.2,2.6,1.9-1.7,3.3-2.9,4.7-4.1,1-.8,2-1.5,3-2.3.5-.5,1-1,1.5-1.5.5,0,1,0,1.5,0h0c-1.7,1.9-3.2,4.2-5.2,5.5-5.6,3.4-11.4,6.4-17.2,9.6Z" fill="#f4f1e2"/>
        <path d="M619.4,603.2c4.4-.6,7.6.7,11,3.3,2.1,1.6,9.8,5.8,6.1,8.9-6.3-1.4-16.9-1.3-19.1-8.6.6-1,1.4-2.4,2.1-3.6Z" fill="#f5f2e3"/>
        <path d="M713.2,603.6c.3,1.7.6,3.3,1,5.3.9-.3,1.5-.5,2.1-.7l2.2-.7c0,.2.1.3.2.5-.6.3-1.1.7-1.7,1-5.2,2.6-10.5,5.1-15.5,7.6-.5-1.6-1-3.4-1.4-4.7-2.3-1.8-4-3.1-5.7-4.5,3.2-2.3,6.4-3.3,10.6-2.4,2.5.6,5.4-.9,8.1-1.5Z" fill="#eae9df"/>
        <path d="M830.2,564.8c0,2.2,0,4.5,0,6.7-3.8.4-7.7.7-11.5,1.2-4.7.6-9.4,1.2-14,1.8.3-1.5.5-3,.8-4.5,4.2-.7,8.4-1.1,12.5-1.7,4.2-.7,8.1-2.4,12.2-3.4Z" fill="#f5f0d8"/>
        <path d="M618.6,615.3c8.9-.8,11.2-1.5,14.1,2.3.5,3.1-1.9,3.3-4,3.7-.2,1.2-.4,2.3-.6,3.4-5.5,1.8-13.3-3.1-9.6-9.4Z" fill="#f4f2e3"/>
        <path d="M584.9,604.5c-1.3-.4-2.5-.8-4.5-1.5-.7,2.1-1.3,4.1-1.9,6.1-4.4-2-6.2-9.4-3.3-15.1,2.2.1,4.6.3,7,.4,1.4,3.4,2.6,6.4,3.8,9.4-.3.2-.7.4-1,.6Z" fill="#f4f2e3"/>
        <path d="M549.6,500.3c4.7,2.1,9.3,4.1,14,6.2,1.5.6,2.9,1.3,4.4,1.9-2.1,0-4.2,0-6.3.1l-4.4-2.7c-4.5-1.6-9.6-2.5-12.2-6.8-3.2-5.3-7.5-9.1-12.6-12.3-1.9-1.2-3.8-2.4-3.8-5.1,8.7,4.1,13.8,10.3,20.5,16.9,0,.2.3,1,.5,1.9Z" fill="#eaeed9"/>
        <path d="M921,386.1c-.3-.8-.5-1.6-.8-2.3-.3.3-.6.7-.9,1v-6.8c-1-.6-2.2-1.5-3.5-2.3.2-.5.5-1,.7-1.5,1.5-.5,3-1,4.5-1.5,0,0,0,0,0,0-2.4,2-1.2,4,0,6-.3,1.5-1.2,3.2.8,4.3,9.8-1.2,19.3-5.8,30.2-3.1-2,.2-3.5.4-5.8.6,1.5.8,2.3,1.2,3.7,1.9-6.7,0-12.7.2-19.3,1.5-3.3.7-6.5,1.4-9.8,2.1Z" fill="#e3e2d6"/>
        <path d="M576,511.4c3,1.3,5.9,2.6,8.9,4-3.7-.6-7.5-1.1-11.2-1.7,0-.2,0-.4,0-.7-1.2.7-2.4,1.4-4.3,2.5,5.5,2.8,11.9.5,16.3,5.7-4.8-1.1-9.9-1.4-14.5-3.1-4.7-1.7-6.7-4.8-9.2-8.8,3.5-.7,6.5.8,9.5,2.1,1.6.6,3.1,1.6,4.7,0Z" fill="#f2f1e3"/>
        <path d="M546.8,691.5c2.8-1.6,5.7-3.2,9.4-1.9v5.9c-3,1.6-6.2,3.2-9.5,4.9-1.7-3-.7-6,0-9Z" fill="#c3df94"/>
        <path d="M851.9,449.9c-.8,0-1.5-.1-2.3-.2-1-.1-1.9-.3-2.9-.4,2.7-.9,5.5-1.6,8.1-2.6,1-.4,1.6-1.7,2.4-2.5,2.4,1,2.7-2.2,4.5-2.3.5-3,1.1-5.9,1.5-8.9.6-4,1-8,1.5-12h.8c.7,2.3,1.7,4.7-.6,7,.6.8,1.1,1.4,1.7,2.2-1.1,4.2-1.5,10.2-4.5,13.5-2.6,2.8-6.7,4.8-10.1,6.4Z" fill="#e5e6db"/>
        <path d="M564.4,591.3c-.5-1.7-.9-3.2-1.3-4.7,4.2-1,6.3.9,7.6,6.4-1.5.6-4.8-1.2-6.3-1.7Z" fill="#f2f1e4"/>
        <path d="M805.5,570c-.3,1.5-.5,3-.8,4.5,0,0,0,0,0,0-1.2.5-2.5,1-3.7,1.5-.8.1-1.7.3-3.2.5.4-2,.7-3.5,1.1-5.1,2.2-.5,4.4-.9,6.7-1.4Z" fill="#f5f2e3"/>
        <path d="M585.2,548.2c4.7,2.9,5.8,6,4.1,11.4-1.8-3.9-4.5-6.7-4.1-11.4Z" fill="#eff0e4"/>
        <path d="M775.5,492c.3-.3.7-.6,1.1-.9.4.3.8.6,1.2,1-2.5,4.5-5,9-7.5,13.5h0c0-1.5,0-3,0-4.5,1.7-2,3.4-4,5.2-6,0-1,0-2,0-3Z" fill="#eae8d8"/>
        <path d="M576,511.4c-1.6,1.7-3.1.7-4.7,0-3.1-1.3-6-2.8-9.5-2.1v-.8c2,0,4.1,0,6.2-.1,2.7,1,5.3,2,8,3Z" fill="#b9deec"/>
        <path d="M546.8,691.5c-.7,3-1.7,6,0,9-.3.3-.6.7-.9,1-3.1-2.7-2.6-7.8,1-10Z" fill="#b4dcc1"/>
        <path d="M1072.9,581.2c-2.1-.7-4-1.3-5.7-1.9.7-4.1,6.5-1.8,5.7,1.9Z" fill="#f0f0e4"/>
        <path d="M865.5,420.8c-.3,0-.5,0-.8.1-.9-.2-1.8-.4-3.5-.7,1.4-1.8,2.3-3.1,3.5-4.6-.2-.6-.5-1.4-.7-2.2h0c.5-.3.9-.5,1.4-.8.3,0,.5,0,.8,0-.5,2.1-1.1,4.2-1.7,6.7,0,0,.9.5,1.7.9-.3.2-.5.4-.8.7Z" fill="#b8dce9"/>
        <path d="M1115.3,520.1c-.8,3.2-3.6,5.5-4.8,8.6-.6,1.6-.6,3.3-1.1,4.9-.7,2-2.3,3.5-3.4,5.3-.3,0-.5-.1-.8-.2,1.2-4.5,2.4-9.1,3.6-14,0,0,.7,0,1.5,0-.1-2.2-.2-4.3-.3-5.8,2.7-2.6,5-4.8,7.4-7.1-.9-1.3-1.5-2.2-2.5-3.7,1.8.5,2.7.8,3.8,1.2.9-1.1,1.6-2.1,2.5-3.1,1.9-.2,3.8-.5,6.1-.7-.2-1.6-.4-3.3-.7-5.5,2.4-6.4,8.1-9.6,12.9-14-.2-.3-.4-.5-.6-.8,3.3-1.5,6.6-2.9,9.9-4.4,1,.6,1.8,1.2,3,2-.2-1.4-.4-2.4-.7-4,1.5-.8,3-1.6,4.6-2.4l.8.8c-.8,1.4-1.6,2.7-2.6,4.4.4.4,1.1,1,2,1.9,1.4-1.6,2.6-3,4-4.7.6-2.1,1.2-4.6,1.9-7.3,1.4-.7,2.7-1.3,4.3-2.1.3,1.1.6,1.8.9,2.9-1.1,0-1.9.1-3.3.2,0,1.5.2,2.9.2,4.4,1.8-1.2,3.3-2.1,4.5-2.9,4.1,3.1,2.9,5.4.6,9.4-2.2,3.8-4.6,7.5-7.3,11-6,7.5-13.9,13.6-21,20,9.8-2.4,18.1-13.8,29-6.7,1.3,3.8,2.5,7.1,3.7,10.4-.4-.4-.8-.8-1.2-1.2l-8,8.1c.4.4.9.9,1.3,1.3-.4,4.2-.7,8.4-1.1,12.7-1.5.3-2.8.5-4,.8-.2.3-.4.6-.6.9,1.6,1.3,3.2,2.5,4.9,3.9-4.9,7.3-9.9,13.1-17.6,17.5-4.1,2.3-8,.5-12.2-.7-5.1-1.4-10.2-2.9-15.3-4.3,0-7.5,3-14.1,7.4-20.2,4.6-6.4,8.2-13.7,12.1-20.6-.1,0-.8-.5-1.5-.9-1.4,1.2-2.6,2.2-4.1,3.4-2.3-.9-4.6-1.8-7.7-3-2.7,1.2-6.2,2.6-10.6,4.5Z" fill="#9dd4f1"/>
        <path d="M1237.6,428.2c1.1-3.3,2.6-4.5,4.6-7.3,1.9-2.7,3-5.7,4.4-8.6,2.5-5.4,7.3-10.3,12.9-12.6,13.3-5.4,25.3,3.7,36.8,9.5.5,3.4.9,6.4,1.4,9.6,2.6.2,4.6.4,7.1.6,0,1.6.2,3.2.3,5-2.4,2-4.8,3.9-7.2,5.8h-4.9c-3.4-2.1-5.1-6.5-10-6.5-2.5,3.4-5.1,6.9-8.1,11,.9,4.7,1.8,10.1,3,16.1-3.2.6-5.7,1.1-7.6,1.5-6.9-4.4-11.1-11.1-18.8-14-2,2.8-3.9,5.5-5.9,8.4h-4.7c-4.8-3.3-3.1-8.1-3.3-12.5,3.3,2.1,5.8-5.3,6.9-7.2-1.2-.8-2-1.4-2.9-2.1-1.5,1.2-2.7,2.2-3.9,3.1Z" fill="#c3df93"/>
        <path d="M1274.8,392.5c.8-6.2-1.8-12.9,2.9-18.8,1.6-.1,3.2-.3,4.9-.4.5-1.1,1.1-2.2,1.7-3.5,5-1.6,7.6-3,11.8-6.2,3.7-2.9,8-4.5,12.8-3.3.5,1.1,1.1,2.4,1.8,3.9,2.1.8,4.5,1.4,5.3,3.8.9,2.7.3,7.9-.2,10.7-.9,4.9-3.8,9.2-8.4,11.4-5,2.3-9.9,4.2-15.3,4.9-6.4.8-12.1,2.3-17.2-2.4Z" fill="#c3df92"/>
        <path d="M1359,381c1-2.9,1.9-5.7,2.8-8.3,0,.5.3,1.5.5,2.9,4,1.3,8.2,2.6,12.4,3.9,3.5.7,6.9,1.4,11.1,2.2.6.3,1.9,1.1,3.2,1.8-4,.3-7.5-2.9-11.5-1.3-1.8,8.9-2,18.1-8.1,26.3-.2.5-.6,1.6-1.1,2.7-.2,0-.4-.2-.6-.2.2,1.4.4,2.8.5,3.4,1.5,1.1,2.5,1.9,3.5,2.6-1,0-2,0-3,0h-5.6c-1.1,4.1-1.9,7.3-2.7,10.5-.4,2.6-.8,5.2-1.3,8h-5.1c-.6-2.4-1.2-4.5-1.7-6.6h-.4c.6,5.4,1.2,10.6,1.7,15.9-1.5,0-2.9-.1-5.1-.2-1.1-8.6-2.1-17-3.2-25.4,1.9-.9,3.3-1.4,5.4-1.8-.6-3.6-1.2-7.1-1.8-10.6h.7c.1.8.3,1.7.4,2.6.2,0,.5.2.7.3,1-2.5,1.9-5.1,2.9-7.6,2.1.5,8.5,1.1,9.2,3.4.2-.1.5-.2.7-.4.3-.7.5-1.4.9-2.2-3-.4-5.6-.8-8.6-1.3,1.2-1.6,2.1-2.7,3.1-4.1-1,0-1.8.2-3,.3v-6.2c1.2-3,2.4-5.9,3.5-8.9.2-.4-.3-1.1-.5-1.6Z" fill="#f5f0d8"/>
        <path d="M728.2,603.7c5.7-1.5,11.5-3,17.2-4.5,2.3-.6,4.7-1,7-1.7,1.5-.4,3.4-.5,3.5-2.8.5-1,1-2,1.6-3.4,1.5,0,3.1-.2,5.1-.3-.2,1.8-.3,3.1-.5,4.2,3.3.2,6.4.3,9.4.5.9,2.3,1.6,4,2.3,5.6.5.7,1,1.4,1.6,2.3,3.7-.4,7.6,0,11.1-2.6-.2-1.7-.5-3.2-.7-4.7.2,0,.5-.1.7-.2.4,1.3.8,2.6,1.3,4.6,2.4-.5,4.8-1,7.2-1.4.3-1.5.4-2.6.7-4,.7,1.1,1.2,1.9,2.1,3.4,7.9-1.6,15.9-3.2,23.9-4.8,0,.3.1.7.2,1-14.5,2.7-28.8,7.2-43.4,9.6-2.8.5-5.8.8-8.2,2.5-2.5,1.7-4.1,3.6-7,4.8-6.8,2.8-14.4,4.3-21.5,6.3-1-1.6-1.8-2.8-2.6-4.1-1.1-.2-2.4-.4-3.7-.6-.1-.9-.3-1.8-.4-2.7-3,.7-5.7,1.4-8.4,2,0-.2,0-.4-.1-.6,2.7-.9,5.3-1.7,8-2.6v-5.8h-6.6ZM735.6,603.3c1.2,3.5,3.3,2.6,5.5,2.4.4-1.2.9-2.4,1.6-4.5-2.9.8-4.8,1.4-7.1,2Z" fill="#eae9df"/>
        <path d="M1371.8,417c-1-.7-2-1.5-3.5-2.6,0-.6-.3-2-.5-3.4.2,0,.4.2.6.2.4-1.1.9-2.2,1.1-2.7,6.1-8.1,6.3-17.4,8.1-26.3,4.1-1.6,7.5,1.7,11.5,1.3-1.3-.7-2.6-1.5-3.2-1.8-4.2-.8-7.6-1.5-11.1-2.2-1.7-2.6-3.7-5-2.6-9,.7-.2,1.7-.5,2.7-.8,4.5,3,6.8,3,10.8,0,.7.2,1.6.5,2.5.8-.7,1.2-1.3,2.5-1.7,3.2,2.4,1.4,4.5,2.6,6.8,3.8,1,0,2.4-.2,3.8-.3,0,0,0-.2,0-.3,1.6-.4,3.2-.8,4.8-1.2-1.5,2.1-3,4.2-4.5,6.2-1.4.5-2.7,1-3.7,1.4-1.4,2.4-2.7,4.5-4.1,6.9-1.6-1.1-2.5-1.8-3.4-2.5h-7.2c-.6,2-1.3,3.9-1.9,5.9-1.1,4.9-.7,10.1-.7,15.1,0,3.6-1.1,8.7,2.3,11.1-2.5,4.1-4.7,10.6-9.2,13-2-.4-3.5-.7-5.1-1-.6,1.6-1.1,2.7-1.5,3.8-.7-.2-1.3-.3-2.2-.5v-7.8c.8-3.2,1.6-6.3,2.7-10.5h5.6c-.2,1.1-.4,2.1-.7,3.4,1.3.8,2.5,1.6,3.8,2.4.3-.2.5-.4.8-.6-.3-1.8-.6-3.5-.9-5.3Z" fill="#f5f2e3"/>
        <path d="M1324.5,346.5h5.1v10.4c6.8,4,7.4,11.5,10.7,17.3.2,1.5.4,3,.7,4.5-.5,1.9-1,3.8-1.5,5.8h-5.8c-6.6-8.2-12.9-16.7-13.4-28.1,1-2.6,1.3-4.3,1.3-7.1,1.1-1,2.1-1.9,3-2.8,0,0,0,0,0,0Z" fill="#c5e194"/>
        <path d="M1134.2,595.1v-10.1c6.9-3.9,12.3-1.3,17.3,3.8,2.8,7.8,2.7,16.1-3.7,20-1.5.1-2.8.2-4.2,0-3-4.5-6.2-9.1-9.4-13.8Z" fill="#c5e294"/>
        <path d="M804.7,574.5c4.7-.6,9.3-1.2,14-1.8,3.8-.4,7.6-.8,11.5-1.2v8c14.3,0,28.5-1.2,42.8-1.2,15.9,0,31.7,0,47.6,0,30.5,0,61.1-.5,91.2,5.5,0,.4-.2.8-.2,1.3-15.9-4.6-33-4.8-49.5-5.1-18.4-.4-36.9-.2-55.3-.2-18.1,0-36.3,0-54.4.2-18.2.2-35.6,2.9-53.5,5.9,3.8-2.7,9.3-2.6,13.9-3.3,5.3-.8,10.5-1.6,15.8-2.5v-7.2c-4.1.4-8.2.9-12.2,1.3-3.5.3-8.2,2.3-11.5.5h0Z" fill="#e3e1d5"/>
        <path d="M871.5,590.2c-15.5,1.1-30.9,2.2-46.8,3.3.3-2,.4-3.4.7-5.1,14.8-2,29.2-6.2,44.1-2.7.8,1.4,1.4,2.6,2,3.7,0,.2,0,.5,0,.7Z" fill="#d9e1be"/>
        <path d="M1217.4,455h-4.2c-.5-3.1-.9-6-1.6-10.2,1.6-8,7.3-13,14.3-11.5,1.5,8.7-.4,16.2-8.5,21.7Z" fill="#c5e193"/>
        <path d="M804.7,574.5c3.3,1.8,8-.2,11.5-.5,4.1-.4,8.2-.8,12.2-1.3v7.2c-5.3.9-10.5,1.7-15.8,2.5-4.6.7-10.1.6-13.9,3.3-.3-.7-.5-1.5-.8-2.2.4,0,.7,0,.6,0,.9-2.7,1.6-5.1,2.4-7.5,1.2-.5,2.5-1,3.7-1.5Z" fill="#f5f0d8"/>
        <path d="M728.2,603.7h6.6v5.8c-2.7.9-5.3,1.7-8,2.6,0,.2,0,.4.1.6,2.7-.6,5.3-1.3,8.4-2,.2.9.3,1.8.4,2.7-3.3.8-6.6,1.7-10.4,2.6-1.9-.6-4.4-1.5-7.3-2.4-.3-1.4-.7-3.1-1.1-4.7.6-.3,1.1-.7,1.7-1,0-.2-.1-.3-.2-.5l-2.2.7c.7-1.5,1.5-3,2.4-4.8,1.6,1.1,2.5,1.7,3.6,2.5,1.9-.7,4-1.4,6.1-2.1Z" fill="#f4efd8"/>
        <path d="M1271.9,621.1v11.6c-3.3,2.4-6.5,4.7-9.5,6.9-6-1.5-9.6-6.7-9.1-11.9,5.8.6,11.6,1.2,17.4,1.5.4-3,.8-5.6,1.2-8.2Z" fill="#f4f1e2"/>
        <path d="M1202.8,656h-10.5c-1.7-4.6,1-8.1,2.2-11.9,2.8-1.9,5.4-1.9,8.3-.3v12.1Z" fill="#c6e295"/>
        <path d="M1360.5,427.5v7.8c.9.2,1.6.4,2.2.5,5,.2,10,.5,15,.7h7.9c.3-1.9.5-3,.7-4.4.5,1.7.8,3.1,1.2,4.5,0,.2,0,.5,0,.7,0,.5,0,1,0,1.5h-1.5c-1-.5-1.9-1.4-2.9-1.4-3-.2-6.1,0-9.1,0h-20.1c1.1,8.8,2.5,17.7,2.6,26.6.2,8.9-1.3,17.9-2.1,26.7-.5-.5-1-1-1.5-1.5.9-7.1,2.3-14.4,2.7-21.6.4-7.6-1-15.2-2-22.6-.6-5.2-1.2-10.5-1.7-15.7h.4c.6,2,1.1,4.1,1.7,6.4h5.1c.4-2.8.9-5.4,1.3-8Z" fill="#dfddd1"/>
        <path d="M871.5,590.2c0-.2,0-.5,0-.7,16.3-.8,32.7-1.9,49-2.5,8.1-.3,16.2-.4,24.4-.5,3.7,0,7.4,0,11.2,0,2.5,0,8.9-1.1,10.9.8-7.5,2.1-15.2-.6-22.7,1.1-3.2.7-5.7-.8-8.9-1.1-3.8-.4-7.7.6-11.5.8-17.4.9-34.9,1.3-52.3,2.2Z" fill="#dfddd2"/>
        <path d="M774,601.5c-.7-1.7-1.4-3.4-2.3-5.6-3-.2-6.1-.3-9.4-.5.1-1.2.3-2.4.5-4.2-2,.1-3.7.2-5.1.3-.7,1.4-1.2,2.4-1.6,3.4-.3-2-.6-3.9-.9-5.9.2,0,.4,0,.6-.1.2.5.5,1.1.9,2.1,1.9-.6,3.9-1.1,6.4-1.8,0,0,.7.4,1.1.7-.1,1.3-.3,2.4-.4,3.9,4.9.7,8.9,0,12.7-2.5.4,1,.8,2,1.3,3.2h3.1c0,.1,0,.3,0,.4-2.3.7-4.7,1.3-7.1,2,.1,1.7.2,3.3.3,4.9Z" fill="#e1decf"/>
        <path d="M1350.7,521.3c.3,0,.6,0,.8,0,.8,1.2,1.6,2.5,2.3,3.7,1.7,0,3.1,0,4.4,0-.3.3-.5.5-.8.8h-6.3c-.5,5-1.2,10-1.1,15.1-.5.2-1.1.4-1.6.6.3-3,.6-6,1-9.6-10.9-.7-21.1-1.3-31.3-1.9,0-.2,0-.4,0-.6,10.1.5,20.2.9,31.1,1.4.5-2.9,1-6.1,1.5-9.3Z" fill="#dfddd3"/>
        <path d="M1202.9,727.6c-.7-5.2,6.8-5.6,9.4-8.9h3.8c.9,1.1,1.9,2.2,2.6,3.1,2.7.3,5.2.5,7.8.8.2-.5.5-1.2,1.2-2.5.2,1.5.3,2.3.5,3.6-3.5-.3-6.6-.5-10-.8-.8-1-1.7-2-2.8-3.4-.8,0-1.8.1-3,.2v3.3c-1.3-.2-2.4-.4-3.3-.6-1.7,1.1-3.3,2-5,3.1-.8,3,1.8,4.3,3.4,6-.6,2.4-2.4,3.1-4.4,3.6.4-1,.8-2,1.1-2.7-.5-1.8-.9-3.3-1.3-4.8Z" fill="#a2d3ba"/>
        <path d="M1359,381c.2.5.7,1.2.5,1.6-1.1,3-2.3,6-3.5,8.9,0-.5,0-1,0-1.6,0-4.4.4-6.2-2.4-9.5-.4,1.9-.6,3-.9,4.4-1-2.2-1-5.1-4.1-5.1.9-.3,1.9-.5,2.9-.8.4-1.3.7-2.6,1.1-3.9.1,0,.2,0,.4,0,0,1.5-.2,3.1-.3,4.9.8,0,1.5-.1,2.3-.2.1-1.6.3-3.1.4-4.6h.4c.2,1.5.3,3.1.5,5,.9.2,1.8.4,2.7.6Z" fill="#e4e1d5"/>
        <path d="M1237.6,428.2c1.2-1,2.5-2,3.9-3.1.9.6,1.7,1.2,2.9,2.1-1,1.9-3.6,9.3-6.9,7.2,0-2,0-4.1,0-6.1Z" fill="#cde5a3"/>
        <path d="M1189.3,453.2c4.8-4.9,9.5-10.1,14.6-14.8,4.1-3.8,11.1-5.5,16.6-6.3-5.7,2.6-11.4,3.7-16.5,7.7-5.1,4-9.4,9.4-13.9,14.1-.2-.2-.5-.4-.7-.6Z" fill="#e4e2d7"/>
        <path d="M1356,390c0,.5,0,1,0,1.6v6.2c1.2-.1,2-.2,3-.3-1.1,1.4-1.9,2.6-3.1,4.1,3.1.4,5.7.8,8.6,1.3-.3.8-.6,1.5-.9,2.2-.2.1-.5.2-.7.4-.7-2.3-7.1-2.9-9.2-3.4,0-.2,1-1.4,1.6-1.8-.2-2-2.2-9.6.6-10.3Z" fill="#e0ddcd"/>
        <path d="M1311.6,555.9c.8-1.3,1.7-2.6,2.8-4.4,2,1.9,3.6,3.4,5.8,5.4h-7.8c-.3-.3-.6-.7-.8-1Z" fill="#cfe4a3"/>
        <path d="M1342.8,433.4c.5-2.5.9-4.9,1.4-7.5-5.3-1.8-9.6.5-14,1.6,0-.2-.2-.5-.2-.7,2.8-1,5.6-2,7.7-2.8h7.4c-.4,3-.8,6.2-1.2,9.4-.3,0-.7,0-1-.1Z" fill="#f5f0d8"/>
        <path d="M1341,378.7c-.2-1.5-.4-3-.7-4.5,1.2-6.8.7-13.8.7-20.6.2,0,.5,0,.7,0,0,8.4-1.2,17.4,1.7,25.4-.5,0-1.4-.1-2.4-.2Z" fill="#dcdad0"/>
        <path d="M1306.2,397.5c-3.9.3-7.2.6-10.6.7-3.3,0-6.5,2.1-9.9.4,6.7.2,13.3-3.4,20.5-1.2Z" fill="#e0ded4"/>
        <path d="M1181.9,638.5h-22.9c0-.3,0-.7,0-1,7.4.3,14.8-.7,22.9,1Z" fill="#dfddd2"/>
        <path d="M1105.1,566.9c1.8-5.2,3.6-10.3,5.4-15.8,0,6.1-2.3,11.1-5.4,15.8Z" fill="#e2e0d5"/>
        <path d="M732.8,490.5c.5.3,1,.5,1.5.8-1.9.6-3.9,1.2-5.9,1.8.3,2.2.6,4,1,6.1,3.3.9,6.3-.6,9.4-1.1.3.3.5.5.8.8-2.6,2.2-1.3,4.9-.7,7.4-1.3.5-2.6,1.2-4,1.5-4.9,1.1-9.8,2-14.7,3h0c-1.4,0-2.9.2-4.2.3-.2,1.8-.4,3.1-.6,4.7-3.3.4-6.4.7-9.4,1.1-.7-1.3-1.1-2.2-1.5-3.1v-5.4c-6.2.9-12.1,1.7-17.9,2.5-.6-1.1-.9-1.7-1.2-2.3-.1,0-.3,0-.4,0,.3,3.3.5,6.5.8,10.1-1.5.4-2.7.7-3.8,1v-4.9c-.8-1-1.5-1.8-2.2-2.6-4.1-2-8.4,1-12.6.3,0-1,0-2,.1-3,2.8-.5,5.3-.9,7.7-1.3v-.5c-2.7.2-5.4.4-8.3.7-.2-.7-.4-1.4-.6-2,6.8-1.6,11.6-6.1,16.5-10.5.3-.8.5-1.5.8-2.3.4,1,.7,2,1.1,3.2,1-.5,2-.9,2.9-1.3.5-1.2,1-2.2,1.5-3.3.2,0,.5.2.7.3-.5,1.6-1.1,3.3-1.7,5.4.7.5,1.7,1.3,3,2.3,1.4-1.2,2.6-2.2,3.7-3.1v-5.6c3.3-.2,6.6-.5,10-.7.3,1.2.6,2,.6,2.1,6.2-.7,12-1.5,17.9-2.2.4,3.3-.2,11,5.2,9.2-.3-2.2-.6-4.2-.9-6.1-1-1.1-1.9-2.1-2.9-3.1,0-.3,0-.5,0-.8,2.6,2,5.4,1.9,8.2.8ZM713.6,514.1c.4-1.8.8-3.4,1.3-5.3h-7.4c.4,2,.7,3.5,1.1,5.3h5Z" fill="#edebd8"/>
        <path d="M921,372.7c-1.5.5-3,1-4.5,1.5-3.7,0-7.1,1-10.5,2.3-3.3-1.2-6.5-2.7-10,1.3.2-1.4.3-2.1.4-2.8-1.1-.5-2.1-1-3.2-1.4,1.6-.2,3.2-.5,5.3-.8-.3-1-.5-2-.8-3-.9-4.6-1.8-9.2-2.9-14.3-4.9.9-9.6,1.9-14.4,2.8,0-.3-.1-.5-.2-.8,7.8-2.6,16.1-3.5,24.2-4.9,4.6-.6,9.1-1.3,13.7-1.9.5,1.2.9,2.3,1.3,3.4,0,0,0,0,0,0-.3,1.2-.6,2.4-.9,3.7.2,0,.8.4,1.4.6.3,1.6.6,3,.9,4.5-.5.5-.9.9-1.3,1.4,3.1,2.4,3.6,5.7,1.4,8.5Z" fill="#edebd8"/>
        <path d="M788.2,391.6c-.6-.9-1.1-1.8-1.9-3.2h-9.3c0-5.4,1.5-13.3,8.1-14.5,2.1-2.9,4-5.8,5.9-8.5h4.5c2.6,1.6,4.9,3,7.9,4.8-.5,4.5,3.7,7.8,6.3,12.4-2,.4-3.2.6-4.6.9-.3.7-.6,1.5-1,2.5-1.4.4-2.9.9-3.8,1.2-2.1,2.2-3.7,4-5.4,5.9-1.5,0-3-.1-4.4-.2-.5-.9-.9-1.7-1.5-3-.4.9-.6,1.3-.8,1.7Z" fill="#c4e093"/>
        <path d="M747,405.8c-3,4-9.6,1.9-13.7,1.2-1.9,5.5-3.3,11.3-10.8,12.2-.6-2-1.2-4-1.8-5.9,0-.3,0-.6,0-.9v-5.4c7.1-3.2,13.3-7.2,15.1-15.5h0c4.6,0,9.1,0,14.1,0v9c-6.9.3-9.7,1.9-9.8,6.1,2.3-.3,4.6-.5,6.9-.8Z" fill="#c4df93"/>
        <path d="M826.5,378c-1.6,0-3.2,0-4.6,0-4.4-4.8-2.4-10.8-1.8-16.5,4.6-2.1,9.3-3.8,14.6-2.8,1.4,2.3,2.7,4.6,4.6,7.9-.3,3.6.7,10.5-4.5,10.7-2.8.2-5.6.4-8.4.7Z" fill="#c5e194"/>
        <path d="M897.7,369.7c.3,1,.6,2,.8,3-2.1.3-3.7.6-5.3.8-8.5,1.7-17.1,3.2-25.7,4.6-.4,1.4-.7,2.6-1.1,4.1h-14.2c-.7-1-1.4-2-2.6-3.7-2.8,3.2-5.3,6.7-8.9,8.9-4,2.4-8.7,3.6-13.1,5.1-9.5,3.3-18.9,6.4-27.9,10.8,2-3.8,6.7-4.6,10.4-5.9,4.5-1.6,9-3.2,13.6-4.8,8.8-3.1,16.7-4.8,22.9-12.2-.4-1.1-.8-2.1-1.5-3.9,1-1.6,2.3-3.6,3.6-5.6.3.2.6.4.9.6-.8,1-1.6,2-2.8,3.5.1,1.1.2,2.6.4,4.1.3.2.5.4.8.5,3.4-5.6,9.5-4.8,14.7-6.8,1,1.6,1.9,3.2,2.9,4.8,5.7-1.2,11.4-2.3,17.2-3.5,2.1-.4,12.7-1.2,11.3-4.2.8-.3,1.6-.6,2.4-.9.4.2.9.5,1.3.7Z" fill="#e9e8de"/>
        <path d="M840.6,449.2c-2.3.5-4.6.9-6.9,1.4-.3-.8-.7-1.9-1.2-3h-5.9c0,.1,0,.2,0,.4-3.2-.5-6.4-1.1-9.6-1.6,0,.3,0,.5,0,.8-8.4,1.1-16.7,2.1-25.1,3.2-.1-.3-.2-.7-.3-1,.6-.4,1.1-.8,1.7-1.3-.5-.3-1.1-.6-1.8-.9,2.4-3.2,13.7-1.8,17.5-2.2,7.2-.8,14.2-2.8,21.2-4.4.9,1.7,1.5,3,2.3,4.5,1,0,2-.1,3.1-.2,0,.1-.2.3-.2.4,1.5.8,3.1,1.7,5.2,2.8,0-.2,0,.4,0,1Z" fill="#9fd5f1"/>
        <path d="M734.3,439.5h7.2c.2,2.3.4,4.2.6,6.2,1.8.5,3.4.9,5,1.3-7,1.3-14,2.2-21,3.6-.6-.3-1.4-.7-2.5-1.3-.9-3.1-3-6.2-1.3-9.3,4.2.7,8.1.3,12-.5Z" fill="#d9e1be"/>
        <path d="M680,419.3c-.6-1.4-1.1-2.6-1.7-3.9-1.2-.7-2.4-1.4-3.9-2.2-.3-2.1-.6-4.4-.9-6.5q3.3-1.2,9.2,3.9c2.6.3,5.4.6,8.1.8.6,1.4,1,2.5,1.3,3.4-1.5,4.5-5.3,8-12.1,4.4Z" fill="#9fd5f1"/>
        <path d="M826.5,378c2.8-.2,5.6-.4,8.4-.7v4.7c.2.1.5.2.7.3-1.1,1-2.2,2-3,2.8-6.1.9-11.8,1.7-18.2,2.6.6-2,1-3.4,1.4-4.7,3.9-1.5,7.3-2.8,10.8-5Z" fill="#d9e1be"/>
        <path d="M918.8,348.7c3.8-.5,7.5-1,11.6-1.5v8.5c-1.9.3-3.5.6-5.4.9v6.5c.8.3,1.7.5,3.1,1-1.4.4-2.4.8-3.4,1.1-.9-.6-1.8-1.2-3-1.9-.2-2.3-.4-4.6-.7-7.3-.3-.3-.9-1.2-1.6-2h0c-.2-1.7-.5-3.5-.7-5.3Z" fill="#ecead8"/>
        <path d="M779.1,462c-.4-2.2-2.2-4.9,1.6-6h3c3.5,1.9,7,3.9,10.3,5.8-1.5,5-5.7,4.5-9.5,6.2-1.8-1.9-3.6-4-5.5-6Z" fill="#9ed5f1"/>
        <path d="M735.8,391.5c-5.7,1.4-10,5.3-15,7.9-1.4.7-3.1.8-5.6,1.5.7-2.2,1-3.5,1.3-4.4,5.4-5.3,12.5-5.8,18.8-8.5.4-.2,1.3.5,2.1.9-.6,1-1.1,1.9-1.6,2.7h0Z" fill="#9fd5f1"/>
        <path d="M646.5,450c-.5,0-1,0-1.5,0-6.8-2-13.8-4.2-20.9-5-7.4-.8-15.2.6-22.6,1.2,0-.2,0-.5,0-.7,7.9-1,15.1-3,23.2-2.5,3.6.2,8.3.1,11.7,1.4,3.3,1.2,4.7,3.7,8.6,3.5.5.7,1,1.4,1.5,2.1Z" fill="#a3d6f0"/>
        <path d="M646.5,450c-.5-.7-1-1.4-1.5-2.1,3.5,1.2,6.4-.8,9.2-2.2,15.4-7.6,30.7-15.5,46.1-23.3,6.8-3.4,13.6-6.7,20.4-10.1,0,.3,0,.6,0,.9-21.4,10.8-42.9,21.7-64.3,32.5-2.3,1.2-4.6,2.3-7,3.5-1,.2-2,.5-3,.7Z" fill="#c1dee6"/>
        <path d="M810.8,460.5c-1.3,3.6-3.9,1.8-6.1,1.4-2.7-1-5.4-2.1-8.3-3.2,1.1-2,1.9-3.6,2.7-5.1,1.8,1.6,3.7,3.2,5.8,4.9,2.5-1.3,4.7-2.4,6.9-3.6.5-1.1,1.1-2.2,1.7-3.5,1-.4,2.1-.9,3.5-1.6-2.2,3.8-4.2,7.1-6.2,10.5Z" fill="#a0d6f1"/>
        <path d="M861.7,441.7c-1.8.1-2.1,3.3-4.5,2.3-1.8.7-3.7,1.3-5.5,2,0,.2.2.5.2.7h-5.5q.4-2.2,2.9-3.3c1.6-1.9,3-3.7,4.1-5h8c.1,1.2.2,2.3.3,3.3Z" fill="#a0d6f1"/>
        <path d="M596.3,451.5c-14.5,0-29,0-43.5,0-7.4-1.1-14.8-.6-22.3-1.3,15.8-.8,31.9.1,47.7.3,8,.1,15.9.1,23.9.4,4.1.1,8.2.5,12.4.8,3,.2,6.9,0,9.5,1.3h0c-1.4,0-2.7,0-4.1,0-7.9-.5-15.8-1-23.7-1.5Z" fill="#dfddd2"/>
        <path d="M665.5,396.9c1.6,1.8,2.8,3.3,4,4.6.2,3.3.4,6.3.7,9.8h-5.3c-.3-4.6-2.4-9,.6-14.4Z" fill="#a0d6f1"/>
        <path d="M739.5,498.8c-.3-.3-.5-.5-.8-.8v-5.8c.2,0,.4,0,.6,0,.1,1.8.3,3.6.5,5.9,8.9-1.6,17.4-3,26-4.5-1.2.5-2.5,1-3.7,1.5-1.9.4-3.8.8-6,1.3.4,2.3.7,4.4,1,6.5.7.3,1.3.5,1.9.8-1.9,1.4-1.9,3-.3,4.8,1.3-.4,2.6-.7,3.6-.9.5-1.6.9-2.9,1.3-4.1,0,1.1.2,2.2.3,3.5,1.3,0,2.4.2,3.5.2-1,.8-2,1.5-3,2.3-2.3-1.9-3.2.2-4.5,1.5-1.3-.3-2.5-.5-3.8-.8-.2-.2-.5-.5-.7-.7,2.2-2.8,2.1-3.5-.8-4.5-1,0-2,0-3,0,0-.2,0-.5,0-.7,1.3-.1,2.6-.2,4.5-.4-.3-1.6-.5-2.9-.7-4.1-.1-.9-.3-1.8-.4-2.9-2.1.3-3.8.5-5.6.7-3.2.5-6.5,1-9.7,1.5Z" fill="#dfddd2"/>
        <path d="M788.2,391.6c.2-.4.4-.8.8-1.7.6,1.2,1.1,2.1,1.5,3,1.5,0,3,.1,4.4.2-1.2,1.6-2.4,3.1-3.9,5.1-.8-1.4-1.3-2.1-1.9-3.2-.5,1.7-.9,3.2-1.3,4.9-3.5-.2-6.4,3.2-10.1,1.4,1-.4,2-.9,3.4-1.5.6-1.1,1.4-2.6,2.3-4.4,1.7-.6,4.3-.8,4.8-3.8Z" fill="#a3d7f0"/>
        <path d="M747,405.8c-2.3.3-4.6.5-6.9.8.1-4.2,2.9-5.8,9.8-6.1q3.2,1,4.2,4.3c-2.4.4-4.7.7-7.1,1.1Z" fill="#a1d6ef"/>
        <path d="M877.4,354.2c-4.6,1.7-7.7,1.6-11.1,5.8-3,3.9-4.7,6.8-10.1,5,5-6.3,12.6-12.1,21.2-10.9Z" fill="#a0d6f0"/>
        <path d="M788.3,427.5c-.7-.3-1.5-.5-2.2-.8-4.6-2-9.1-4.5-14.2-5.3-5.4-.8-9.5,1.8-14.3,3.8-1,.2-2.1.3-3.1.5,0-.2,0-.3-.1-.5,2.3-1,4.7-2,7-3,6.5-3.7,13.5-1.4,20.1.8,7.3,2.5,14.7,4.9,22,7.4,0,.2-.1.5-.2.7-5-1.2-10-2.5-14.9-3.7Z" fill="#b8dce9"/>
        <path d="M866.2,412.5c-.3,0-.5,0-.8,0-1.1-1.9-2.1-3.9-3.2-5.9,1.3-2.5,2.6-4.8,3.9-7.2,1,1.4,1.9,2.6,2.7,3.8.3,0,.5,0,.8,0-1.1,3.1-2.2,6.2-3.4,9.4Z" fill="#a0d6f1"/>
        <path d="M540.3,413c-.8-.5-1.6-1-2.4-1.6l.3-.7c1.1.4,2.2.8,3.4,1.2.2,1.3.4,2.4.6,3.8,2.2,1.3,4.5,2.3,6.4,3.9,2.2,1.9,3.9,3.6,6.7,5,5.4,2.6,11.3,4.5,16.1,8.2-6.4-1.4-14-5.3-19.6-8.7-2.5-1.5-4-4-6.6-5.5-2.7-1.5-3.4-2.7-5.3-5.2.1-.1.3-.2.4-.3Z" fill="#c3dfe6"/>
        <path d="M917.4,347.1c-6.5,3-13.2,3-19.8,3.2,0-.3-.2-.6-.2-.9,3.8-1.2,7.7-1.9,11.5-2.8,2.8-.6,6.9-2.9,8.5.5Z" fill="#a2d6f0"/>
        <path d="M854.3,414.8c-2.1,3.3-8.6,3.7-12.3,3.5-6-.4-11.8.5-17.8-.1v-.8c1.1,0,2.2.2,3.4.3,1-.7,2-1.4,3-2.1,7.9,1.9,15.9,3.3,23.6-.7h0Z" fill="#b8dce9"/>
        <path d="M570.1,421.5c-5.4-11.3-10.9-22.5-16.3-33.8.3-.1.6-.3.9-.4,5.1,11.5,12,22.1,15.4,34.2Z" fill="#c5dfe6"/>
        <path d="M919.5,354c.6.8,1.3,1.7,1.6,2,.3,2.8.5,5.1.7,7.3,1.2.7,2.1,1.3,3,1.9-.6,0-1.2.2-1.9.3.3,1.8.5,3.5.8,5.3,1.2.2,2.2.4,3.6.6-1.1,1-2.1,1.9-3.1,2.8-1-.5-2-1-3-1.5h0c2.2-2.8,1.7-6.2-1.4-8.5.4-.5.9-.9,1.3-1.4-.3-1.5-.6-2.9-.9-4.5-.6-.3-1.2-.6-1.4-.6.3-1.3.6-2.5.9-3.7Z" fill="#dbd9cd"/>
        <path d="M601.5,445.5c0,.2,0,.5,0,.7-8-2-15.2-7.4-21.8-12.3,7.3,3.8,14.5,7.7,21.8,11.5Z" fill="#c6e0e6"/>
        <path d="M896.4,369c-.8.3-1.6.6-2.4.9-3.5.3-7,.6-10.5.9,0-.4,0-.7,0-1.1,4.3-.1,8.4-2.8,13-.7Z" fill="#a2d6f0"/>
        <path d="M918.8,348.7c.2,1.8.5,3.5.7,5.3-.4-1.1-.9-2.2-1.3-3.4-4.6.6-9.1,1.3-13.7,1.9,5-1.2,9.7-2.1,14.2-4.7,0,0,0,.4.1.9Z" fill="#dcdacf"/>
        <path d="M921,372.8c1,.5,2,1,3,1.5-1,1.5-2,3-3,4.5-1.3-2-2.5-4,0-6Z" fill="#edebd8"/>
        <path d="M726.7,421.5c.1.3.4.7.3,1-.3,1-.7,1.9-1.1,2.8,0,.7,0,1.4-.1,2.1-.2,0-.3,0-.5,0-.1-1.2-.2-2.3-.3-4-4,1.2-7.8,2.3-11.6,3.5,0-.2-.1-.4-.2-.6,4.5-1.6,9-3.2,13.4-4.7Z" fill="#e3e0d5"/>
        <path d="M906,376.5c3.4-1.3,6.8-2.2,10.5-2.3-.2.5-.5,1-.7,1.5-.6,0-1.1.2-1.9.3-.1.7-.3,1.4-.4,2,0,0,0,0,0,0-.4-.6-.9-1.1-1.2-1.5h-6.3Z" fill="#dddbd0"/>
        <path d="M737.9,472.1v13.7h-.5v-13.8h.5Z" fill="#dfddd2"/>
        <path d="M854.2,414.7c1.7-1.2,3.4-2.4,5.5-3.9,1.4.8,2.8,1.6,4.3,2.4h0c-1.4-.2-2.8-.5-3.4-.6-2.6.9-4.5,1.5-6.3,2.1,0,0,0,0,0,0Z" fill="#b8dce9"/>
        <path d="M531.8,369.7c2.9,1.7,6.5,2.2,8.1,6-2.7-2-5.4-3.9-8.2-5.9h0Z" fill="#c3dfe6"/>
        <path d="M913.5,378c.8,2.8,1.6,5.5,2.7,8.2-.7.2-1.6.5-2.3.7-.1-3.1-.3-6-.4-8.9,0,0,0,0,0,0Z" fill="#dddbd0"/>
        <path d="M1354.5,490.5c.8-8.9,2.3-17.8,2.1-26.7-.2-8.9-1.6-17.7-2.6-26.6h20.1c-.2,2.2-.5,4.5-.7,6.7-.7,0-1.4.2-2.2.3,0,.1,0,.3,0,.4.7,0,1.4,0,2.1.1-.3,3.7,1.7,6,4.4,8.2,4.6-.1,9.3.5,13.8-.4.3-1.9.3-13,4.2-10.1-.3.5-.5.9-.8,1.4-.3,3.1-.6,6.2-.9,9.2,2.4,1.1,4.2,2,6.1,2.9,1.3,1.5,2.5,2.9,3.8,4.4,0,4.2-1.2,7.8-4.4,10.5-.6-.7-1.3-1.4-1.8-2-3.5,0-3.7,0-7.9,2.9-.9-1.3-1.8-2.6-2.7-4-5.2-.7-6.3,4.3-7,8.2-1.1,5.4-2.3,10.8-2.4,16.3-.1,5.5,2,10,2.8,15.3,1,6,.2,12.6.2,18.7-1,.1-1.6.2-2.7.4-1.3-5.3-1.7-11.9-4.4-16.7-2.5-4.3-6.7-7.4-10.5-10.4-.2-1.4-.4-2.7-.6-4.2-1.3-.2-2.6-.3-4-.5-1.2-1.3-2.6-2.8-4-4.2ZM1370.2,463.3h13.4c0-.3,0-.5,0-.8h-13.2v-15.3c-.3,0-.6,0-1,0,1.4,5.2-2.2,10.6.8,16.1Z" fill="#f5f2e3"/>
        <path d="M1350,540.8c0-5.1.6-10,1.1-15.1h6.3c-.8,5.8,6,9.5,9.8,12.6-1,1.7-1.6,3.7-2.3,5.5,3.8,3.2,5.4,2.9,10.4,2.9.4,1,.8,2.1,1.3,3.3,4.2,1.1,9.1,1.8,13.1,3.6,3.5,1.6,3.5,4.1,4.7,7.4,2.7,7.3,8.6,10.6,2.5,17.7h-4.4c-5.5-6.1-11.2-12.5-17-18.9-.2-1.3-.3-2.5-.5-3.9-9.8-1.4-15.2-9.1-21.7-15.2h-3.4Z" fill="#f5f2e3"/>
        <path d="M1375.4,546.8c-4.9,0-6.6.3-10.4-2.9.7-1.9,1.3-3.8,2.3-5.5-3.8-3.1-10.7-6.7-9.8-12.6.3-.3.5-.5.8-.8.7-1,1.4-1.9,2.2-2.9-.3-1.1-.5-2.1-.8-3.2,1.5.3,3,.6,4.5.8v.6c1.2.2,2.5.4,4,.7.3,1.3.5,2.5.8,4,1.4.8,3,1.7,4.7,2.8.5,6.3,1.1,12.7,1.6,19.1Z" fill="#f4efd7"/>
        <path d="M1210,511.3c-.5-1.7-1-3.3-1.6-5.1-1.6-.9-3.4-2-5.1-3-2-8.3,2.8-13.6,12.3-14.9,1.6,1.2,3.3,2.6,5,3.9,1,8.1-4.1,17.3-10.6,19.1Z" fill="#f5f2e3"/>
        <path d="M1341,627.8c2.5-.9,5.1-1.8,8.1-2.9,0,5-2.3,8.4-5.1,11.5-5.9,6.5-11.8,13-18,19.7-2.7-.5-5.6-1.1-8.7-1.7,3.9-3.5,7.5-6.9,11.4-10.5-1.6-1.1-2.2-1.5-2.8-1.9,2.6-.3,5.2-.6,8.1-1,2.6-4,6.9-8.5,6.9-13.3Z" fill="#cde5a3"/>
        <path d="M1341,627.8c0,4.9-4.3,9.3-6.9,13.3-2.9.4-5.5.7-8.1,1-.8-.3-1.6-.6-2.7-1.1,3.6-5.7,10.3-13.6,17.7-13.3Z" fill="#f5f2e3"/>
        <path d="M1368.2,570.7c1.4,2.7,1.8,5.3-.1,8.1h-4.2c-2.4-2.5-5-5.2-7.9-8.1.4-1.2.8-2.5,1.2-3.7,5.2-2.1,7.8,1.7,11,3.8Z" fill="#f4f2e2"/>
        <path d="M1394.2,609c-.7,2-1.5,4-2.2,6-4,1.7-6.7,3.7-10,6.6h-6.4c-.1-.2-.2-.4-.3-.6,6-4.6,11.7-9.9,19-12Z" fill="#cce4a2"/>
        <path d="M1303.8,696.6c-.6-1.7-.9-2.6-1.2-3.5,4.8-4.1,9.5-8,14.8-12.4.5,1.8.9,3.2,1.2,4.4-5.1,4-9.7,7.6-14.8,11.6Z" fill="#cde5a3"/>
        <path d="M1331.4,597.7c-.1-4.2-.9-8.4,1.1-12.7,4.4,1.6,6.7,4.4,6.5,9.3-2.1,1.2-4.3,2.5-6.4,3.9-.4-.2-.7-.3-1.1-.5Z" fill="#f4f1e2"/>
        <path d="M1389.8,471.8c4.1-2.9,4.4-3,7.9-2.9.5.6,1.2,1.3,1.8,2,.3.3.6.6.8.8-1,1.2-2.1,2.5-3.1,3.7-1.7.4-3.3.7-5.4,1.2-1.2-1.2-3.3-2.2-2-4.8Z" fill="#9ed5f0"/>
        <path d="M1338.8,610.1c-5.9,1.9-11.9,3.9-17.8,5.8,4.5-6.1,10.5-8.1,17.8-5.8Z" fill="#cde6a3"/>
        <path d="M1359.7,518.9c.2,1,.5,2.1.8,3.2-.8,1-1.5,2-2.2,2.9-1.3,0-2.6,0-4.4,0-.8-1.2-1.5-2.4-2.3-3.7,2.7-.8,5.4-1.6,8.2-2.4Z" fill="#f5f2e3"/>
        <path d="M1386,645.7c.3-3.5.5-7,.8-10.5,1.3-1.9,1.5-4.9,4.6-5.1-3.6,3.3-4.1,7.8-4.6,12.3-.2,1.4,0,2.7-.1,4.1-.2-.3-.5-.5-.7-.8Z" fill="#b7dadc"/>
        <path d="M1272.1,726c-1.3-2.1-2.7-4.2-4-6.4.2-.1.3-.3.5-.4-1.2-.5-2.4-1-3.6-1.5,0-.2,0-.4.1-.6l3.8.6c1.3,2.5,2.6,4.9,3.9,7.4-.2.3-.5.6-.7.9Z" fill="#c1dee6"/>
        <path d="M1397.3,620.2c-.5.8-1,1.5-1.5,2.3,0-1.2,0-2.5,0-3.7,3-1.2,6.1-2.3,9.1-3.5.1.3.2.6.3.9-3.1,1.1-5.4,2-8,4Z" fill="#b7dadc"/>
        <path d="M1238.9,709.5c.8-.1,1.6-.3,3.3-.5-1.6,1-2.5,1.6-3.3,2.1-1.7,1.8-3.3,3.6-5,5.4-.2,0-.3,0-.5,0,1.4-3,3.1-4.6,5.4-6.9Z" fill="#aad6c5"/>
        <path d="M682.5,495.7c-4.9,4.5-9.8,9-16.5,10.5-1.1,4.7.4,9.1,1.5,13.5,0,0,0,0,0,0,.1.9.3,1.9.5,3.2,5.6-.8,10.8-1.6,16-2.4-.6,1.1-1.1,2-1.9,2.8-5.2,1.1-10.8,2.3-16.3,3.5-.3,1.9-.6,3.3-1,5.6-1.9-.3-3.3.1-4.4-1.5-1.1-1.5-.8-5-1.1-6.8-1.9-1.2-2.1,2-3,3-1.5-1.2-2.6-2.1-3.8-2.9.3-1.7.6-3.4,1-5.1,2-8.4,6.8-16,6.6-24.9,1-.9,2.1-1.8,2.8-2.4,3.5-1.1,6.7-2,9.3-2.8,2-2.1,3.6-3.7,5.3-5.4-.4-6.2-.8-13.1-1.2-19.7,3.4-2.2,5.1-.7,6.8,1.8,0,4.5.3,7.4-1.8,11.4,1.7,3.7,3.4,7.5,5,11.2,2.8-.6,5.4-1.2,8.4-1.9.3-.6.9-1.8,1.8-3.6,2.9,1.4,5.6,2.7,8.3,4-4.4,1-6.9,1.8-10.5,4.5v5.6c-1.1.9-2.3,1.9-3.7,3.1-1.3-1-2.3-1.8-3-2.3.7-2.1,1.2-3.7,1.7-5.4-.2,0-.5-.2-.7-.3-.5,1.1-.9,2.1-1.5,3.3-.9.4-1.9.9-2.9,1.3-.4-1.2-.8-2.2-1.1-3.2-.3-2.4-.6-4.8-1-7.2h-.4c-.2,1.9-.3,3.6-.5,5.4-5.7.9-11.3,2.2-17,3.3,1.1,3.7,14.7.9,18.1.7h0Z" fill="#f5f2e3"/>
        <path d="M608.8,534.9c-6.3-3.8-11.3-9-15.7-14.6-4.5-5.6-9.7-9.5-16.7-11.7-8.3-2.6-16.3-6.1-24.4-9.3-.3-.4-.6-.7-.9-1.1,5.4-2.2,9.6-5.5,11.7-11.4-3.2-1.2-6-2.2-8.7-3.3-1.4.9-2.6,1.6-3.8,2.4-5.2-2.4-8.2-6.5-9.6-11.4-4.5-1.8-7,1-9.7,3.2v-4.5c3-4.2,7-2.7,11.4-3,1.5,2.6,3.2,5.4,5.2,8.9.4.2,1.4.8,2.4,1.3,6.9-1.8,14,1.4,16.2,7.9,1.4.7,2.8,1.4,4.4,2.2-.5,1.3-.9,2.4-1.4,3.8,1.3,1.4,2.7,2.8,3.9,4.1,1.8-.2,3.2-.3,4.5-.4,2,2.1,3.7,4,5.7,6.1,1.8-1.3,3.4-2.5,4.9-3.6,0,.2.1.4.2.6,3.4-.4,6.8-.9,10.5-1.3-.1.9-.2,1.5-.3,2.1,0,.2,0,.4,0,.5-.8.8-1.6,1.5-2.3,2.2-1.6-.2-3-.4-4.4-.6,0,.2,0,.3-.1.5.7.6,1.5,1.2,2.1,1.7,0,1-.1,1.7-.2,2.7.8-.6,1.3-1,2-1.6,2.3,4.7,4.6,9.2,6.8,13.7-1,1.2-1.7,2.1-2.8,3.4,1.6-.6,2.7-1.1,4.3-1.7,2,3.6,5.9,8,4.9,12.1Z" fill="#f5f2e3"/>
        <path d="M635.2,534.7c-7.3-6.3-10.6-17.1-15.1-25.4.2-.1.4-.3.7-.4-.8-.7-1.7-1.4-2.5-2.2v-4c7.5-3.1,12.2,10.4,13.4,15.9.8.6,1.8,1.3,2.7,2,0,1.4-.1,2.6-.2,4.6,1.7-.8,3-1.5,4.7-2.4.5.3,1.4.8,2.4,1.3-2,3.5-4,6.9-6,10.4Z" fill="#f5f2e3"/>
        <path d="M732.8,490.5c-2.9,1.2-5.7,1.3-8.2-.8-.3-1.2-.5-2.5-.8-3.7-4.1-2-7.5-.7-11.9,0,0,.2,0,.5.1.7,3.7-.5,7.3-.7,11-.8-.1,1.1-.3,2.1-.4,3.4-5.9.4-11.5,3.7-17.6.2.6-1.2,1.1-2,1.5-2.8.7-1.4,1.5-2.7,2.5-4.5,3,0,6.1,0,9.1-.4,2.4-.4,4.9-1.7,7.1.1,1.3,2.8,2.5,5.5,3.7,8.2.2-.1.5-.2.7-.3.9.9,2.6-2.2,3.1.6Z" fill="#f5f2e3"/>
        <path d="M660.1,494.3c.2,8.9-4.6,16.6-6.6,24.9-.4,1.7-.7,3.4-1,5.1-.2,0-.5,0-.7,0-.5,0-1,0-1.5,0-.5-.5-1.1-1-1.6-1.4-6.6-1.5-10.2-5.7-9.6-11.2.4-4.1,2.8-6.5,6.9-6.6-4.6,1.4-5.3,5-6.1,8.5,1.1,4.5,4.9,5.8,8.5,7.9,5.2-6,3.9-14.8,9.6-20.7-.3-1.1-.6-2.3-.9-3.4l.7-3c0-2.8,0-5.5,0-8.3,0-1.2,0-2.4,0-3.7.5-1,1-2,1.5-3,1.8,2.6,2.1,8.5.9,14.9Z" fill="#a4d7f0"/>
        <path d="M601.5,502.5c.4-1,.8-2,1.2-2.8,5-.7,9,5.4,11.6,8.9,3.9,5.3,9.1,11.2,11.5,17.3-1,.7-2.1,1.4-3.1,2.1-2.3-3.7-4.1-7.8-7.1-10.9-4.7-4.9-7.9-11.1-14-14.6Z" fill="#f5f2e3"/>
        <path d="M694.5,452.8c0-1.2,0-2.4,0-3.5,4.6-3,9.4-2.1,14.8-2.1.2,1.4.3,2.5.4,3.6-.6.4-1.1.9-1.7,1.1-2,.7-4,1.3-6,1.9h0c-2,.1-4,.3-6.3.4-.3-.3-.8-.9-1.2-1.4Z" fill="#c5e194"/>
        <path d="M596.3,451.5c7.9.5,15.8,1,23.7,1.5,1.4,0,2.7,0,4.1,0-.4.9-.8,1.8-1.5,3.2-3.2-.3-6.4-.6-9.7-.9,0-.2,0-.4,0-.6-1.8.4-3.6.9-5.7,1.4-1.1-.5-2.4-1.2-3.8-1.8-5.2,1.7-6.2,1.3-7.2-2.7Z" fill="#f5f2e3"/>
        <path d="M659.6,460.5c-.5-1.5-.9-2.7-1.2-3.8,2.7-3.1,5.1-5.9,9.6-6.5.8,3.5-1.3,6.1-2.1,9.2-2.1.4-4,.7-6.3,1.1Z" fill="#a0d5f1"/>
        <path d="M648.6,522.8c.5.5,1.1,1,1.6,1.4-1.5.3-3,.5-4.6.8-2.1-.3-3.5.6-4.6,2.4-2.4,4.5-4.9,8.9-7.3,13.3-.3.5-.5.9-.8,1.4h-1.4c-.1,0-.2-.3-.2-.5-3.2-4.3-6.5-8.6-9.7-12.9.3,0,.5,0,.8,0,3.1,3.8,6.2,7.5,9.3,11.3,1.4-2.1,2.4-3.7,3.5-5.4,2-3.5,4-6.9,6-10.4,2.4-.5,4.9-1,7.3-1.5Z" fill="#bcdce7"/>
        <path d="M694.5,452.8c.5.5.9,1.1,1.2,1.4,2.2-.2,4.2-.3,6.3-.5-1.6,2.6-3.2,5.2-5.2,8.3-2.9-2.6-5.2-4.7-8-7.2,2.2-.8,3.9-1.4,5.6-2.1Z" fill="#9ed5f0"/>
        <path d="M622.5,528.7c-.3,0-.5,0-.8,0-7.7-9.1-13.4-19-23.1-26.4,0-.2,0-.4,0-.5,1,.2,2,.4,3,.7,6.1,3.5,9.3,9.7,14,14.6,2.9,3.1,4.7,7.2,7.1,10.9,0,.3,0,.5,0,.8Z" fill="#a1d6f0"/>
        <path d="M702,453.8c2-.6,4-1.2,6-1.9.6-.2,1.1-.7,1.7-1.1.2,0,.4,0,.6-.1,2-.2,4.1-.3,6.4-.5,0,1.2-.1,1.9-.2,2.7-4.1,1.7-8.2,3.4-12.5,5.3.6-2.4.5-4-2-4.3Z" fill="#9ed5f0"/>
        <path d="M710.3,450.6c-.2,0-.4.1-.6.1-.1-1.1-.2-2.2-.4-3.6-5.4,0-10.3-.9-14.8,2.1-.6-1.1-1.2-2.3-2.1-4,2.6-.8,4.4-1.4,6.4-2,.9,1,1.7,1.9,2.7,2.9,1.5,0,3.1,0,4.7,0,3.6-2.8,4.1-2.8,6.2-.4-.7,1.7-1.4,3.3-2,4.9Z" fill="#f5f2e3"/>
        <path d="M706.5,486.8c-.4.8-.9,1.7-1.5,2.8,6.1,3.5,11.7.2,17.6-.2.2-1.3.3-2.4.4-3.4.3,0,.5,0,.8,0,.3,1.2.5,2.5.8,3.7,0,.3,0,.5,0,.8-.5,0-1,0-1.5,0-5.9.7-11.8,1.4-17.9,2.2,0-.1-.3-1-.6-2.1-3.4.2-6.7.5-10,.7,3.6-2.7,6.1-3.5,10.5-4.5.5,0,1,0,1.5,0Z" fill="#e0ded1"/>
        <path d="M655.6,469.4c1.2-2,2.3-3.8,3.8-6.4,1,1.7,1.6,2.7,2.3,3.9-1.3,2.1-2.5,4.1-3.6,5.9-.7-1-1.6-2.2-2.5-3.5Z" fill="#f5f2e3"/>
        <path d="M657.8,482.3c0,1.2,0,2.4,0,3.7-4.1-1.4-4.4-1.8-3.9-5.5,1-.1,2.1-.3,3.4-.5.2,1,.4,1.7.6,2.4Z" fill="#f5f2e3"/>
        <path d="M638.2,509.8c-1.5,1.6-2.3,2.5-3,3.3-2.8-1.3-3.3-2.8-2.2-5.7,1.6.8,3.1,1.4,5.2,2.4Z" fill="#f5f2e3"/>
        <path d="M657.7,494.3l-.7,3-.2,3.1c-.3,0-.6,0-.9,0-.1-1.7-.3-3.5-.5-5.4.9-.3,1.6-.5,2.3-.7Z" fill="#f5f2e3"/>
        <path d="M1406.2,715.5c-3.8-2.5-15,9.7-18.2,11.9-6.4,4.5-14.8,4-22.3,4.6,2.2-2.1,4.4-4.2,6.6-6.3,3.6,3.4,7.7,1,11.3,1.8,7.2-5.9,13.4-11.3,21.8-15.1.2,1,.5,2,.7,3Z" fill="#c5e194"/>
        <path d="M1386,645.7c.2.3.5.5.7.8-3,2.5-5.8,5.4-9,7.5-3.7,2.4-7.9,4.1-11.9,6.1h0c6.8-4.9,13.8-9,20.2-14.3Z" fill="#c1dee6"/>
        <path d="M1365.8,660c-1,3.1-1.7,6.5-3.4,9.2-1.7,2.9-4.3,5.5-6.4,8.1.8-2.3,1.4-3.7,2-5.4,2.3-1.4,3.8-3.2,4.6-5.7.9-2.8,1.3-3.8,3.1-6.3h0Z" fill="#c1dee6"/>
        <path d="M1333.9,709.1c-5.7,2.4-11.4,4.9-17.1,7.3.9-1.8,10.4-6.3,17.1-7.3Z" fill="#bfdde6"/>
        <path d="M1335.2,699.5c.5,2.9.8,5,1.1,7-2.8-6.4-2.3-9.4,2.1-15-1.2,2.8-2.3,5.7-3.3,8Z" fill="#bfdde7"/>
        <path d="M1340.7,688.6c0-5.7,5.1-4,7.9-5.7-2,2.8-7,1.2-7.9,5.7Z" fill="#bedde6"/>
        <path d="M1401.8,375.8c-1.6.4-3.2.8-4.8,1.2,0,0,0,.2,0,.3-1.4.1-2.8.3-3.8.3-2.3-1.3-4.4-2.5-6.8-3.8.4-.7,1.1-2,1.7-3.2,1,.2,2,.4,3,.7,3.2,1.1,6.4,2.2,9.6,3.4.4.1.6.8.9,1.2Z" fill="#efebd5"/>
        <path d="M1387.5,437.3c0-.2,0-.5,0-.7v-9.8c-2.7,1.3-4.8,2.4-7.1,3.5-.8,2-1.7,4.2-2.6,6.3-5-.2-10-.5-15-.7.4-1.1.9-2.3,1.5-3.8,1.7.3,3.1.6,5.1,1,4.5-2.4,6.6-8.8,9.2-13,6,3,11.9,6,17.7,9.4-.1.3-.2.6-.3.8,1.2,0,2.4.1,3.8.2,1.9-1.8,3.8-3.6,5.9-5.6.7.3,1.5.7,2.2,1-.3,2.3-.5,4.5-.7,6.3-3.1,2.2-5.7,4-8.2,5.9-3.8-.3-7.6-.5-11.3-.8Z" fill="#f5f2e4"/>
        <path d="M1387.5,437.3c3.8.3,7.6.5,11.3.8-1,1.5-2,3-3.1,4.5-3.9-3-4,8.1-4.2,10.1-4.6.9-9.2.3-13.8.4-2.8-2.1-4.8-4.5-4.4-8.2h12.5c.2,2.2.3,3.6.5,5.1.3,0,.5,0,.8,0v-10.4h8.7c0-.2,0-.5,0-.7h-8.1c0-.5,0-1,0-1.5Z" fill="#edebd9"/>
        <path d="M711,519.1c1.8,1.3,3.7,2.6,5.5,3.8,5.7-.9,10.3-7.4,17.1-3.2.8-1,1.4-1.8,2.1-2.7h3.3c-.7,2.1-1.3,3.8-2,6,2.9,4.6-.9,8.8-2.2,13.3-1.2-.5-2.3-1.1-3.5-1.6,0-.1,0-.3.1-.4h-4.9c-1.4,1.1-3,2.3-4.7,3.5-.9-.8-1.6-1.5-2.2-2.1-.4.6-.7,1.2-1.1,1.8-1.5-.8-2.3-1.2-3.1-1.6-4.2.6-7.9,0-11.9-3.2-.3,0-1.5-.3-3.1-.5.4-1.2.7-2.2.9-3,3.3-2,6.4-3.8,9.6-5.6v-4.3Z" fill="#9dd4f1"/>
        <path d="M755.2,509.2c.2.2.5.5.7.7-4.9.8-9.7,1.6-14.8,2.4,0,1.7-.1,3.1-.2,4.4-.4-1-.9-2-1.4-3.2-1.9-.7-3.8-1.2-6.3,1,2.2.4,3.8.7,5.3,1v.3c-1.6.1-3.1.3-5,.4-.5-.7-1-1.4-1.6-2.3-6.1.9-16.1.7-21,4.4-4.6-1.2-9,0-13.5.7,0-.5,0-1,0-1.5,2.1-.3,4.3-.5,6.4-.8.1-1.3.2-2.2.3-3h0c.4.9.9,1.7,1.5,3.1,3-.3,6.1-.7,9.4-1.1.2-1.6.4-2.9.6-4.7,1.4,0,2.8-.2,4.2-.3-1.1.4-2.2.9-3.8,1.5.3.9.5,1.9.9,3.1,7.3-1.2,14.2-2.4,21.4-3.6-.4-1.3-.7-2.2-1.1-3.3-5.9.8-11.7,1.5-17.4,2.3,4.9-1,9.8-1.9,14.7-3,1.4-.3,2.7-1,4-1.5.7,0,1.5,0,2.2,0,0,.3,0,.5,0,.8-.7.2-1.4.4-2.3.6.5,1.4.8,2.5,1.3,3.7,4.8-.7,9.3-1.4,13.8-2.1.5,0,1,0,1.5,0Z" fill="#dcdbcd"/>
        <path d="M697.5,517.5c0,.5,0,1,0,1.5-2.6.4-5.8-1-7.8,2.2-1.6-2.4-3.7-1.1-5.7-.6-5.2.8-10.5,1.6-16,2.4-.2-1.3-.3-2.2-.5-3.2.6.8,1.1,1.5,1.7,2.3,4.3-.8,8.4-1.5,12.5-2.3,1.1-.3,2.3-.6,3.8-1-.3-3.5-.6-6.8-.8-10.1.1,0,.3,0,.4,0,.3.6.7,1.2,1.2,2.3,5.8-.8,11.7-1.7,17.9-2.5v5.4h0c-.4-1.4-.9-2.7-1.3-4.2-5.5.7-10.8,1.5-16.5,2.2,0,2.6-.9,5.1,1.4,7.1,3.3-.5,6.5-.9,9.7-1.3Z" fill="#dedccd"/>
        <path d="M757.5,425.2c4.8-2,8.9-4.7,14.3-3.8,5.1.8,9.6,3.3,14.2,5.3-2.2,5.9-4.4,11.8-6.6,17.8-1.9-.2-3.3-.4-4.7-.6-1.7-1.7-4-2.4-5.6-4.1-1.7-1.7-2.9-3.9-4.5-5.7-.4.2-.9.4-1.3.6.1,1.6.2,3.1.3,4.7.2,1.3.4,2.6.7,4.2-5.8-.5-11.2-1.1-16.2,1.8-1-1.9.2-10.7,1.9-14.6,2.6-2,5.1-3.8,7.5-5.6Z" fill="#f5f2e3"/>
        <path d="M763.5,503.3c-.4,1.3-.8,2.5-1.3,4.1-1,.3-2.3.6-3.6.9-1.6-1.9-1.5-3.4.3-4.8-.6-.2-1.1-.5-1.9-.8-.3-2-.7-4.2-1-6.5,2.2-.5,4.1-.9,6-1.3.5,2.8,1,5.5,1.5,8.3Z" fill="#eae8d8"/>
        <path d="M763.5,439.4c-.1-1.6-.2-3.1-.3-4.7.4-.2.9-.4,1.3-.6,1.7,1.8,2.9,4,4.5,5.7,1.6,1.6,3.9,2.4,5.6,4.1-.7-.2-1.4-.3-2.9-.6-.3.6-.7,1.7-1.1,2.4-2-.4-3.4-.6-5-.9.2-1.5.4-3,.6-4.8-.9-.2-1.8-.4-2.7-.6Z" fill="#a3d6f0"/>
        <path d="M775.5,492c0,1,0,2,0,3-1.1,0-2.1,0-3.4.2.3-3.6.5-6.9.8-10.7,3.4,2.1,2.5,5,2.7,7.5Z" fill="#f5f2e3"/>
        <path d="M770.3,501c0,1.5,0,3,0,4.5-.5,0-1,0-1.5,0,.4-6.2.7-12.3.7-18.5.3,0,.5,0,.8,0v14Z" fill="#d6d4cc"/>
        <path d="M633.8,540.8c2.5-4.4,4.9-8.9,7.3-13.3,1-1.9,2.5-2.7,4.6-2.4,1,1.1,1.9,2.2,3,3.5-1.2,7.7,1.5,14.2,6.2,20.4-7.5-1.8-14.6-4.1-21.1-8.1Z" fill="#f5f2e3"/>
        <path d="M660.9,548.5c3.6.4,5.6,2.3,7.2,5.2-5-.2-6.3-1.2-7.2-5.2Z" fill="#eef0e4"/>
        <path d="M726,549c.1-.6.2-1.2.4-2h4.9c-.9,2.2-1.6,4.1-2.6,6.5-1.1-1.8-1.9-3.2-2.7-4.5,0,0,0,0,0,0Z" fill="#f5f2e3"/>
        <path d="M598.6,502.4c9.7,7.4,15.4,17.3,23.1,26.4,3.2,4.3,6.5,8.6,9.7,12.9-2.2,1.1-4.4,2.2-7.2,3.5-6.3-1-10.3-6.6-15.4-10.3,1-4.1-2.9-8.5-4.9-12.1-1.5.6-2.6,1-4.3,1.7,1.1-1.4,1.8-2.2,2.8-3.4-2.2-4.5-4.5-9-6.8-13.7-.8.6-1.2,1-2,1.6,0-1,.1-1.7.2-2.7-.6-.5-1.4-1.1-2.1-1.7,0-.2,0-.3.1-.5,1.4.2,2.8.4,4.4.6.7-.7,1.5-1.4,2.3-2.2Z" fill="#f4f0d8"/>
        <path d="M759.8,510.7c1.3-1.2,2.2-3.4,4.5-1.5-1.4,1.2-2.8,2.4-4.7,4.1.1-1.3.2-2,.2-2.6Z" fill="#eae8d8"/>
        <path d="M1371.8,417c.3,1.8.6,3.5.9,5.3-.3.2-.5.4-.8.6-1.2-.8-2.5-1.6-3.8-2.4.3-1.3.5-2.4.7-3.4,1,0,2,0,3,0Z" fill="#f5f2e4"/>
        <path d="M735.6,603.3c2.3-.7,4.2-1.2,7.1-2-.7,2-1.2,3.3-1.6,4.5-2.2.2-4.3,1.1-5.5-2.4Z" fill="#f5f2e3"/>
        <path d="M1373.2,444c.2-2.2.5-4.5.7-6.7,3,0,6.1-.1,9.1,0,1,0,1.9.9,2.9,1.4v5.2h-12.8Z" fill="#edebd9"/>
        <path d="M1377.7,436.5c.9-2.2,1.8-4.3,2.6-6.3,2.3-1.1,4.4-2.1,7.1-3.5v9.8c-.4-1.4-.7-2.8-1.2-4.5-.2,1.4-.4,2.6-.7,4.4-2.6,0-5.2,0-7.9,0Z" fill="#edebd9"/>
        <path d="M1373.2,444h12.8v-5.2h1.5c2.7,0,5.4,0,8.1,0,0,.2,0,.5,0,.7h-8.7v10.4c-.3,0-.5,0-.8,0-.1-1.4-.3-2.9-.5-5.1h-12.5c-.7,0-1.4,0-2.1-.1,0-.1,0-.3,0-.4.7,0,1.4-.2,2.2-.3Z" fill="#d5d4c8"/>
        <path d="M681.7,519.7c-4.1.8-8.2,1.5-12.5,2.3-.6-.8-1.2-1.5-1.7-2.3h0v-6c4.2-.5,8.1-1,12-1.5.7.8,1.4,1.6,2.2,2.6v4.9Z" fill="#f5f2e2"/>
        <path d="M741,506.2c-.7,0-1.5,0-2.2,0-.6-2.5-1.9-5.2.7-7.4,3.2-.5,6.5-1,9.7-1.5.1.9.3,1.8.5,3.2,2-.4,3.8-.7,5.5-1,.2,1.2.4,2.5.7,4.1-1.9.2-3.2.3-4.5.4-3.5.7-7,1.5-10.5,2.2Z" fill="#f4f1df"/>
        <path d="M713.6,514.1h-5c-.4-1.8-.7-3.3-1.1-5.3h7.4c-.5,1.9-.8,3.5-1.3,5.3Z" fill="#c7e298"/>
        <path d="M723,490.5c.5,0,1,0,1.5,0,.9,1,1.8,2,2.9,3.1.3,1.9.6,3.9.9,6.1-5.4,1.9-4.9-5.9-5.2-9.2Z" fill="#f5f2e3"/>
        <path d="M679.5,512.2c-3.9.5-7.8.9-12,1.5v6.1c-1.1-4.4-2.7-8.8-1.5-13.5.2.7.4,1.4.6,2,2.9-.2,5.5-.4,8.2-.7v.5c-2.4.4-4.8.9-7.7,1.3,0,1,0,2-.1,3,4.2.7,8.5-2.3,12.6-.3Z" fill="#dedccd"/>
        <path d="M664.4,495c5.6-1.1,11.3-2.4,17-3.3.2-1.8.3-3.5.5-5.3h.4c.3,2.3.6,4.7,1,7.1-.3.8-.5,1.5-.8,2.3h0c-.2-.9-.3-1.8-.5-2.9-6.1.8-11.8,1.5-17.6,2.2Z" fill="#dddbcd"/>
        <path d="M753.7,509.2c-4.5.7-9,1.4-13.8,2.1-.4-1.2-.8-2.3-1.3-3.7,1-.3,1.6-.4,2.3-.6,3.5-.8,7-1.5,10.5-2.3,1,0,2,0,3,0-.3,1.5-.5,3-.8,4.5Z" fill="#f4f1df"/>
        <path d="M755.2,499.5c-1.7.3-3.5.6-5.5,1-.2-1.4-.4-2.3-.5-3.2,1.8-.2,3.5-.4,5.6-.7.2,1.1.3,2,.4,2.9Z" fill="#eae8d8"/>
        <path d="M753.7,509.2c.3-1.5.5-3,.8-4.5,2.8,1,3,1.7.8,4.5-.5,0-1,0-1.5,0Z" fill="#eae8d8"/>
        <path d="M751.5,504.7c-3.5.8-7,1.5-10.5,2.3,0-.3,0-.5,0-.8,3.5-.7,7-1.5,10.5-2.2,0,.2,0,.5,0,.7Z" fill="#eae8d8"/>
        <path d="M1370.2,463.3c-3-5.5.5-10.9-.8-16.1.3,0,.6,0,1,0v15.3h13.2c0,.3,0,.5,0,.8h-13.4Z" fill="#e1dfd3"/>
        <path d="M664.4,495c5.8-.7,11.5-1.4,17.6-2.2.2,1.1.3,2,.5,2.9-3.3.1-17,3-18.1-.7Z" fill="#edebd8"/>
        <path d="M723.7,486c-.3,0-.5,0-.8,0-3.7.1-7.3.3-11,.8,0-.2,0-.5-.1-.7,4.4-.8,7.8-2.1,11.9,0Z" fill="#edebd8"/>
        <path d="M697.5,517.5c-3.2.4-6.4.9-9.7,1.3-2.3-2-1.4-4.4-1.4-7.1,5.7-.8,11.1-1.5,16.5-2.2.5,1.5.9,2.8,1.3,4.2,0,.8-.2,1.7-.3,3-2.2.3-4.3.5-6.4.8Z" fill="#edebd8"/>
        <path d="M720,510.8c5.7-.8,11.5-1.5,17.4-2.3.4,1.1.6,2,1.1,3.3-7.2,1.2-14.1,2.3-21.4,3.6-.3-1.2-.6-2.2-.9-3.1,1.5-.6,2.6-1,3.8-1.5h0Z" fill="#edebd8"/>
      </g>
    </g>
  </g>
</svg>