<?xml version="1.0" encoding="UTF-8"?>
<svg xmlns="http://www.w3.org/2000/svg" version="1.1" xmlns:inkscape="http://www.inkscape.org/namespaces/inkscape" xmlns:sodipodi="http://sodipodi.sourceforge.net/DTD/sodipodi-0.dtd" xmlns:svg="http://www.w3.org/2000/svg" viewBox="0 0 337.1 623.5">
  <defs>
    <style>
      .cls-1 {
        fill: #bfe9bf;
      }
    </style>
  </defs>
  <!-- Generator: Adobe Illustrator 28.7.8, SVG Export Plug-In . SVG Version: 1.2.0 Build 200)  -->
  <g>
    <g id="svg1" inkscape:version="1.4.2 (f4327f4, 2025-05-13)">
      <sodipodi:namedview id="namedview1" bordercolor="#000000" borderopacity="0.25" inkscape:current-layer="layer1" inkscape:cx="332.10525" inkscape:cy="248.3485" inkscape:deskcolor="#d1d1d1" inkscape:document-units="mm" inkscape:pagecheckerboard="0" inkscape:pageopacity="0.0" inkscape:showpageshadow="2" inkscape:window-height="1017" inkscape:window-maximized="1" inkscape:window-width="1920" inkscape:window-x="1912" inkscape:window-y="-8" inkscape:zoom="0.51339147" pagecolor="#ffffff"/>
      <g id="layer1" inkscape:groupmode="layer" inkscape:label="РЎР»РѕР№ 1">
        <path id="path99" class="cls-1" d="M95.6,615.3c9.7-79.6-24-19.3-30.8-171.6-.2-128.1-1.7-138.9-29.8-204.9C12.2,211.3,14.7,41,0,11.1,7.3,14.3,138.9.7,147.3-.1c23.3,1.8,20.8,18.9,22.7,75.7,1.1,34,7,40.5,21.6,45.1,13.9,4.4,17.9,10.8,20.2,16.6,6.7,10.2,28.6,18.8,38.4,23.2,24.6-5.1,65.2,9.1,67.1,34.6,27,19.2,13.3,63.8-2.7,88.2-51.5,39.9-60.3,15.3-59.3,62.6-3,13.9-14.8,19.2-35.1,44-16,31.1,16.7,39.5-10.3,80.3-4.8,13.9-20.5,24.5-24.9,29.8-9.4,22.7-15.2,54.6-45.1,58-6,.7-11.4,4.1-14.5,9.2q-29.8,48-29.8,48" sodipodi:nodetypes="ssssssssssssssssssssssssssssss"/>
      </g>
      <sodipodi:namedview id="namedview1" bordercolor="#000000" borderopacity="0.25" inkscape:current-layer="layer1" inkscape:cx="316.5226" inkscape:cy="174.33091" inkscape:deskcolor="#d1d1d1" inkscape:document-units="mm" inkscape:pagecheckerboard="0" inkscape:pageopacity="0.0" inkscape:showpageshadow="2" inkscape:window-height="1017" inkscape:window-maximized="1" inkscape:window-width="1920" inkscape:window-x="1912" inkscape:window-y="-8" inkscape:zoom="0.51339147" pagecolor="#ffffff"/>
      <sodipodi:namedview id="namedview1" bordercolor="#000000" borderopacity="0.25" inkscape:current-layer="layer1" inkscape:cx="-73.043676" inkscape:cy="73.043676" inkscape:deskcolor="#d1d1d1" inkscape:document-units="mm" inkscape:pagecheckerboard="0" inkscape:pageopacity="0.0" inkscape:showpageshadow="2" inkscape:window-height="1017" inkscape:window-maximized="1" inkscape:window-width="1920" inkscape:window-x="1912" inkscape:window-y="-8" inkscape:zoom="0.51339147" pagecolor="#ffffff"/>
    </g>
  </g>
</svg>