<?xml version="1.0" encoding="UTF-8"?>
<svg xmlns="http://www.w3.org/2000/svg" version="1.1" xmlns:inkscape="http://www.inkscape.org/namespaces/inkscape" xmlns:sodipodi="http://sodipodi.sourceforge.net/DTD/sodipodi-0.dtd" xmlns:svg="http://www.w3.org/2000/svg" viewBox="0 0 631.9 638.7">
  <defs>
    <style>
      .cls-1 {
        fill: #c8ecbf;
      }
    </style>
  </defs>
  <!-- Generator: Adobe Illustrator 28.7.8, SVG Export Plug-In . SVG Version: 1.2.0 Build 200)  -->
  <g>
    <g id="_Слой_1" data-name="Слой_1">
      <g id="svg1" inkscape:version="1.4.2 (f4327f4, 2025-05-13)" sodipodi:docname="layer_5.svg">
        <sodipodi:namedview id="namedview1" bordercolor="#000000" borderopacity="0.25" inkscape:current-layer="layer1" inkscape:cx="606.74947" inkscape:cy="320.41826" inkscape:deskcolor="#d1d1d1" inkscape:document-units="mm" inkscape:pagecheckerboard="0" inkscape:pageopacity="0.0" inkscape:showpageshadow="2" inkscape:window-height="1017" inkscape:window-maximized="1" inkscape:window-width="1920" inkscape:window-x="1912" inkscape:window-y="-8" inkscape:zoom="0.51339147" pagecolor="#ffffff"/>
        <g id="layer1" inkscape:groupmode="layer" inkscape:label="Р РЋР В»Р С•Р в„– 1">
          <path id="path94" class="cls-1" d="M339.5,621.8c.9-31.6-169.1,6.3-144.5-21.3,34.9-28.8,85-80.5,50.9-124-4.5-73.2-227.3-.3-242.8-92.3-11.5-30.1,74.7-34.5,34.8-72.4-5.7-1.9-3.7-6,6.2-12.5,22-14.5,44.2-49.8,39.5-62.9-2.6-7.2-.3-12.7,6.2-14.9,17.7-8.7,2.1-35.5,25.3-47.3,13.3-7.9,14-10.7,6.9-24.7-16.9-30,22.9,4.2,44-57.9,11.9-23.1,25.4-55.5,26.5-59.8,10.9-45.3-4.2-29.4,15.4-16.8,13.5,17.1,90.1,16.6,115.6,45.8,158.8,48,196.4-88.9,220.5,121-9.9,76.1,48,29.8,74.5,48.8-.3,69.4,38.1,94.6-26.5,147.6-21.7,29.4-62.3-54.8-80.6-58.4-82.5,32.9-115.7,152.2-115.3,246.7,0,22.8,3,30.6,14.9,38,14.7,9.2,14.6,9.3-9.3,9.3-39-5.2-25.7,48.9-62.1,8Z" sodipodi:nodetypes="sssssssssssssssssssssssssscssssssssssscssssss"/>
        </g>
      </g>
    </g>
  </g>
</svg>